<?xml version="1.0" encoding="utf-8" standalone="no"?>
<!DOCTYPE svg PUBLIC "-//W3C//DTD SVG 1.1//EN"
  "http://www.w3.org/Graphics/SVG/1.1/DTD/svg11.dtd">
<svg xmlns:xlink="http://www.w3.org/1999/xlink" width="518.4pt" height="273.6pt" viewBox="0 0 518.4 273.6" xmlns="http://www.w3.org/2000/svg" version="1.1">
 <metadata>
  <rdf:RDF xmlns:dc="http://purl.org/dc/elements/1.1/" xmlns:cc="http://creativecommons.org/ns#" xmlns:rdf="http://www.w3.org/1999/02/22-rdf-syntax-ns#">
   <cc:Work>
    <dc:type rdf:resource="http://purl.org/dc/dcmitype/StillImage"/>
    <dc:format>image/svg+xml</dc:format>
    <dc:creator>
     <cc:Agent>
      <dc:title>Matplotlib v3.6.3, https://matplotlib.org/</dc:title>
     </cc:Agent>
    </dc:creator>
   </cc:Work>
  </rdf:RDF>
 </metadata>
 <defs>
  <style type="text/css">*{stroke-linejoin: round; stroke-linecap: butt}</style>
 </defs>
 <g id="figure_1">
  <g id="patch_1">
   <path d="M 0 273.6 
L 518.4 273.6 
L 518.4 0 
L 0 0 
z
" style="fill: #ffffff"/>
  </g>
  <g id="axes_1">
   <g id="patch_2">
    <path d="M 42.765865 232.07546 
L 424.128184 232.07546 
L 424.128184 41.3943 
L 42.765865 41.3943 
z
" style="fill: #ffffff"/>
   </g>
   <g id="PathCollection_1">
    <path clip-path="url(#pbff17a8425)" style="fill: #053061"/>
   </g>
   <g id="PathCollection_2">
    <path clip-path="url(#pbff17a8425)" style="fill: #0e4179"/>
   </g>
   <g id="PathCollection_3">
    <path d="M 424.128184 49.519807 
L 423.722115 48.626058 
L 423.652701 48.449747 
L 422.652511 46.161329 
L 421.828877 44.237676 
L 421.444507 43.241079 
L 420.668488 41.3943 
L 424.128184 41.3943 
L 424.128184 43.777815 
L 424.128184 46.161329 
L 424.128184 48.544844 
" clip-path="url(#pbff17a8425)" style="fill: #1f63a8"/>
   </g>
   <g id="PathCollection_4">
    <path d="M 420.668488 41.3943 
L 421.444507 43.241079 
L 421.828877 44.237676 
L 422.652511 46.161329 
L 423.652701 48.449747 
L 423.722115 48.626058 
L 424.128184 49.519807 
L 424.128184 50.928358 
L 424.128184 53.311873 
L 424.128184 55.695387 
L 424.128184 58.078902 
L 424.128184 60.462416 
L 424.128184 65.229445 
L 424.128184 69.996474 
L 424.128184 74.692417 
L 420.572776 69.996474 
L 418.804933 67.358746 
L 416.046531 61.996784 
L 415.166032 60.462416 
L 414.875491 59.92944 
L 413.063031 55.865871 
L 412.975974 55.695387 
L 412.907218 55.556066 
L 412.210612 53.873852 
L 411.099086 51.150663 
L 411.029072 50.928358 
L 410.950672 50.67637 
L 409.429874 46.717477 
L 409.262358 46.161329 
L 409.073952 45.533997 
L 407.859954 42.264432 
L 407.603727 41.3943 
L 412.210612 41.3943 
" clip-path="url(#pbff17a8425)" style="fill: #3480b9"/>
   </g>
   <g id="PathCollection_5">
    <path d="M 407.603727 41.3943 
L 407.859954 42.264432 
L 409.073952 45.533997 
L 409.262358 46.161329 
L 409.429874 46.717477 
L 410.950672 50.67637 
L 411.029072 50.928358 
L 411.099086 51.150663 
L 412.210612 53.873852 
L 412.907218 55.556066 
L 412.975974 55.695387 
L 413.063031 55.865871 
L 414.875491 59.92944 
L 415.166032 60.462416 
L 416.046531 61.996784 
L 418.804933 67.358746 
L 420.572776 69.996474 
L 424.128184 74.692417 
L 424.128184 79.530532 
L 424.128184 89.06459 
L 424.128184 92.822309 
L 419.108413 89.06459 
L 415.803842 86.190006 
L 412.210612 81.189525 
L 406.749569 74.365308 
L 404.656862 69.996474 
L 403.089697 66.348108 
L 402.121869 64.497913 
L 400.638729 60.462416 
L 400.293039 59.49346 
L 399.828068 58.171896 
L 399.784414 57.977177 
L 399.03351 55.695387 
L 398.387456 53.692989 
L 398.222395 52.897744 
L 397.620408 50.928358 
L 397.093876 49.184676 
L 396.834005 47.853037 
L 396.343883 46.161329 
L 395.908657 44.654691 
L 395.567879 42.832783 
L 395.164274 41.3943 
L 400.293039 41.3943 
" clip-path="url(#pbff17a8425)" style="fill: #529dc8"/>
   </g>
   <g id="PathCollection_6">
    <path d="M 42.765865 56.053374 
L 43.238742 57.984326 
L 43.286823 58.183093 
L 43.838304 60.462416 
L 44.770874 64.427441 
L 45.176765 66.193805 
L 46.040139 69.996474 
L 47.298779 75.904201 
L 48.959078 84.485102 
L 49.816145 89.06459 
L 50.462796 93.285232 
L 52.658649 110.874947 
L 52.880105 112.899735 
L 52.954184 113.937287 
L 53.656054 126.584392 
L 53.681669 127.200822 
L 53.688017 127.59899 
L 53.758621 136.364953 
L 53.756928 136.73488 
L 53.747492 137.109258 
L 53.480929 145.787935 
L 53.458878 146.268938 
L 53.404212 147.036473 
L 52.45073 159.230401 
L 52.314986 160.570025 
L 51.93421 163.319252 
L 49.574672 179.296404 
L 48.638844 184.40517 
L 46.950502 192.138106 
L 45.430298 198.987176 
L 43.122174 208.240315 
L 42.765865 209.569202 
L 42.765865 208.240315 
L 42.765865 196.322742 
L 42.765865 184.40517 
L 42.765865 172.487597 
L 42.765865 160.570025 
L 42.765865 153.419482 
L 42.765865 146.268938 
L 42.765865 141.501909 
L 42.765865 136.73488 
L 42.765865 131.967851 
L 42.765865 127.200822 
L 42.765865 120.050279 
L 42.765865 112.899735 
L 42.765865 100.982163 
L 42.765865 89.06459 
L 42.765865 79.530532 
L 42.765865 69.996474 
L 42.765865 65.229445 
L 42.765865 60.462416 
L 42.765865 58.078902 
M 395.164274 41.3943 
L 395.567879 42.832783 
L 395.908657 44.654691 
L 396.343883 46.161329 
L 396.834005 47.853037 
L 397.093876 49.184676 
L 397.620408 50.928358 
L 398.222395 52.897744 
L 398.387456 53.692989 
L 399.03351 55.695387 
L 399.784414 57.977177 
L 399.828068 58.171896 
L 400.293039 59.49346 
L 400.638729 60.462416 
L 402.121869 64.497913 
L 403.089697 66.348108 
L 404.656862 69.996474 
L 406.749569 74.365308 
L 412.210612 81.189525 
L 415.803842 86.190006 
L 419.108413 89.06459 
L 424.128184 92.822309 
L 424.128184 100.982163 
L 424.128184 107.4301 
L 419.220619 105.889727 
L 412.210612 100.881815 
L 404.517678 96.757524 
L 400.293039 91.900997 
L 397.798582 89.06459 
L 394.269193 84.349609 
L 388.968011 70.47051 
L 388.743039 69.996474 
L 388.689568 69.870834 
L 388.375467 68.670531 
L 386.411743 61.247906 
L 386.3257 60.462416 
L 386.279532 60.043229 
L 385.436711 56.283138 
L 385.376406 55.695387 
L 385.315021 55.083298 
L 384.610137 51.681424 
L 384.539893 50.928358 
L 384.469232 50.147111 
L 383.869776 47.062467 
L 383.794045 46.161329 
L 383.719189 45.230074 
L 383.199499 42.429494 
L 383.122639 41.3943 
L 388.375467 41.3943 
M 244.574016 232.07546 
L 247.283754 227.329006 
L 252.879348 220.157887 
L 255.039927 216.420817 
L 257.282169 213.482929 
L 263.220843 208.240315 
L 266.297997 205.33857 
L 269.199742 202.486018 
L 278.494477 198.945579 
L 281.117314 198.039788 
L 283.884108 199.089536 
L 296.346444 204.928758 
L 298.235404 208.240315 
L 304.952459 218.696922 
L 305.316849 219.550571 
L 305.429472 220.157887 
L 306.262276 222.340915 
L 310.072886 232.07546 
L 304.952459 232.07546 
L 293.034887 232.07546 
L 281.117314 232.07546 
L 269.199742 232.07546 
L 257.282169 232.07546 
L 250.131626 232.07546 
" clip-path="url(#pbff17a8425)" style="fill: #84bcd9"/>
   </g>
   <g id="PathCollection_7">
    <path d="M 42.765865 209.569202 
L 43.122174 208.240315 
L 45.430298 198.987176 
L 46.950502 192.138106 
L 48.638844 184.40517 
L 49.574672 179.296404 
L 51.93421 163.319252 
L 52.314986 160.570025 
L 52.45073 159.230401 
L 53.404212 147.036473 
L 53.458878 146.268938 
L 53.480929 145.787935 
L 53.747492 137.109258 
L 53.756928 136.73488 
L 53.758621 136.364953 
L 53.688017 127.59899 
L 53.681669 127.200822 
L 53.656054 126.584392 
L 52.954184 113.937287 
L 52.880105 112.899735 
L 52.658649 110.874947 
L 50.462796 93.285232 
L 49.816145 89.06459 
L 48.959078 84.485102 
L 47.298779 75.904201 
L 46.040139 69.996474 
L 45.176765 66.193805 
L 44.770874 64.427441 
L 43.838304 60.462416 
L 43.286823 58.183093 
L 43.238742 57.984326 
L 42.765865 56.053374 
L 42.765865 55.695387 
L 42.765865 53.311873 
L 42.765865 50.928358 
L 42.765865 48.544844 
L 42.765865 46.161329 
L 42.765865 43.777815 
L 42.765865 41.3943 
L 51.158454 41.3943 
L 51.327978 42.065392 
L 52.25255 45.675152 
L 52.375588 46.161329 
L 52.486281 46.600761 
L 53.523648 50.6964 
L 53.581901 50.928358 
L 53.634217 51.138202 
L 54.683437 55.36117 
L 54.764117 55.679251 
L 54.768251 55.695387 
L 54.77275 55.71325 
L 55.888029 60.221498 
L 55.947673 60.462416 
L 56.080965 61.021427 
L 57.894149 68.71219 
L 58.186134 69.996474 
L 58.895162 73.365854 
L 61.038994 83.980145 
L 61.967848 89.06459 
L 63.239232 97.620385 
L 64.030496 103.552677 
L 65.025271 112.899735 
L 65.486195 119.381389 
L 65.561028 120.674268 
L 65.845492 127.200822 
L 65.936462 131.702032 
L 65.940873 132.231906 
L 65.947137 136.73488 
L 65.869053 141.209126 
L 65.850223 141.802224 
L 65.687638 146.268938 
L 65.306871 152.642998 
L 65.173685 154.275876 
L 64.620376 160.570025 
L 63.530622 169.41721 
L 62.380299 176.708308 
L 61.092913 184.40517 
L 60.004446 189.726178 
L 55.972549 206.951203 
L 55.662832 208.240315 
L 55.455957 209.012835 
L 54.683437 211.778851 
L 50.369791 227.761814 
L 49.177812 232.07546 
L 42.765865 232.07546 
L 42.765865 220.157887 
M 383.122639 41.3943 
L 383.199499 42.429494 
L 383.719189 45.230074 
L 383.794045 46.161329 
L 383.869776 47.062467 
L 384.469232 50.147111 
L 384.539893 50.928358 
L 384.610137 51.681424 
L 385.315021 55.083298 
L 385.376406 55.695387 
L 385.436711 56.283138 
L 386.279532 60.043229 
L 386.3257 60.462416 
L 386.411743 61.247906 
L 388.375467 68.670531 
L 388.689568 69.870834 
L 388.743039 69.996474 
L 388.968011 70.47051 
L 394.269193 84.349609 
L 397.798582 89.06459 
L 400.293039 91.900997 
L 404.517678 96.757524 
L 412.210612 100.881815 
L 419.220619 105.889727 
L 424.128184 107.4301 
L 424.128184 112.899735 
L 424.128184 120.050279 
L 424.128184 120.238944 
L 423.846559 120.219254 
L 412.210612 117.525061 
L 406.169981 116.524113 
L 400.293039 114.185917 
L 396.868855 112.899735 
L 390.893317 110.381885 
L 388.375467 107.412646 
L 378.918189 98.521868 
L 376.457894 91.304484 
L 375.648218 89.06459 
L 373.651272 81.77583 
L 373.690331 77.316482 
L 372.534162 69.996474 
L 372.115875 66.966253 
L 372.150565 63.506514 
L 371.800088 60.462416 
L 371.635812 59.043318 
L 371.649617 57.117246 
L 371.496345 55.695387 
L 371.352789 54.332894 
L 371.37 52.294294 
L 371.236119 50.928358 
L 371.111221 49.614178 
L 371.142733 47.481812 
L 371.026092 46.161329 
L 370.91832 44.88573 
L 370.979744 42.682185 
L 370.879271 41.3943 
L 376.457894 41.3943 
M 310.072886 232.07546 
L 306.262276 222.340915 
L 305.429472 220.157887 
L 305.316849 219.550571 
L 304.952459 218.696922 
L 298.235404 208.240315 
L 296.346444 204.928758 
L 283.884108 199.089536 
L 281.117314 198.039788 
L 278.494477 198.945579 
L 269.199742 202.486018 
L 266.297997 205.33857 
L 263.220843 208.240315 
L 257.282169 213.482929 
L 255.039927 216.420817 
L 252.879348 220.157887 
L 247.283754 227.329006 
L 244.574016 232.07546 
L 242.981082 232.07546 
L 238.214053 232.07546 
L 233.447024 232.07546 
L 228.679996 232.07546 
L 228.092873 232.07546 
L 228.344224 231.236032 
L 232.537832 220.157887 
L 232.951473 218.919008 
L 233.447024 217.690972 
L 237.491841 208.240315 
L 237.858677 207.351874 
L 241.756364 199.384539 
L 242.981082 196.873431 
L 243.138972 196.585892 
L 243.325221 196.322742 
L 250.202455 184.523218 
L 250.289293 184.40517 
L 257.282169 174.840498 
L 258.465181 173.670609 
L 260.393771 172.487597 
L 270.971799 162.342082 
L 274.049806 160.570025 
L 281.117314 156.624364 
L 285.406589 155.993046 
L 293.034887 154.489445 
L 301.170161 155.688861 
L 304.952459 156.913213 
L 310.117041 160.570025 
L 311.469993 161.625042 
L 317.205489 172.487597 
L 318.230516 174.192648 
L 319.253546 178.844117 
L 320.301612 184.40517 
L 321.351369 191.078185 
L 321.541789 196.322742 
L 322.053668 203.323047 
L 322.595897 208.240315 
L 322.964001 210.881751 
L 323.389418 220.157887 
L 324.716087 230.33668 
L 324.793434 232.07546 
L 324.020575 232.07546 
L 319.253546 232.07546 
L 312.103003 232.07546 
" clip-path="url(#pbff17a8425)" style="fill: #aed3e6"/>
   </g>
   <g id="PathCollection_8">
    <path d="M 63.342975 41.3943 
L 63.840522 43.225717 
L 64.11365 44.275287 
L 64.622989 46.161329 
L 65.182327 48.261107 
L 65.321571 48.800732 
L 65.882623 50.928358 
L 66.49633 53.290937 
L 66.506438 53.330787 
L 66.60101 53.699927 
L 67.134897 55.695387 
L 67.703824 57.858339 
L 67.826167 58.323933 
L 68.378982 60.462416 
L 69.297335 64.150915 
L 69.880821 66.54137 
L 70.703339 69.996474 
L 71.874516 75.311727 
L 73.874424 85.349263 
L 74.584137 89.06459 
L 75.11326 92.469913 
L 76.785006 100.982163 
L 77.585057 111.966209 
L 77.68884 112.899735 
L 77.724244 113.376338 
L 78.518582 126.815043 
L 78.54272 127.18634 
L 78.543445 127.200822 
L 78.54372 127.210877 
L 78.687625 136.667263 
L 78.688226 136.73488 
L 78.687588 136.802482 
L 78.518582 143.57832 
L 78.457579 146.244537 
L 78.456651 146.268938 
L 78.454241 146.307543 
L 77.517451 159.969346 
L 77.462224 160.570025 
L 77.306013 161.782594 
L 76.416918 172.487597 
L 74.707038 180.593626 
L 74.038684 184.40517 
L 72.81568 190.108072 
L 71.756903 196.322742 
L 70.569788 200.291521 
L 68.564007 208.240315 
L 66.60101 215.21966 
L 65.557923 219.1148 
L 64.749488 222.009409 
L 61.850103 232.07546 
L 54.683437 232.07546 
L 49.177812 232.07546 
L 50.369791 227.761814 
L 54.683437 211.778851 
L 55.455957 209.012835 
L 55.662832 208.240315 
L 55.972549 206.951203 
L 60.004446 189.726178 
L 61.092913 184.40517 
L 62.380299 176.708308 
L 63.530622 169.41721 
L 64.620376 160.570025 
L 65.173685 154.275876 
L 65.306871 152.642998 
L 65.687638 146.268938 
L 65.850223 141.802224 
L 65.869053 141.209126 
L 65.947137 136.73488 
L 65.940873 132.231906 
L 65.936462 131.702032 
L 65.845492 127.200822 
L 65.561028 120.674268 
L 65.486195 119.381389 
L 65.025271 112.899735 
L 64.030496 103.552677 
L 63.239232 97.620385 
L 61.967848 89.06459 
L 61.038994 83.980145 
L 58.895162 73.365854 
L 58.186134 69.996474 
L 57.894149 68.71219 
L 56.080965 61.021427 
L 55.947673 60.462416 
L 55.888029 60.221498 
L 54.77275 55.71325 
L 54.768251 55.695387 
L 54.764117 55.679251 
L 54.683437 55.36117 
L 53.634217 51.138202 
L 53.581901 50.928358 
L 53.523648 50.6964 
L 52.486281 46.600761 
L 52.375588 46.161329 
L 52.25255 45.675152 
L 51.327978 42.065392 
L 51.158454 41.3943 
L 54.683437 41.3943 
M 370.879271 41.3943 
L 370.979744 42.682185 
L 370.91832 44.88573 
L 371.026092 46.161329 
L 371.142733 47.481812 
L 371.111221 49.614178 
L 371.236119 50.928358 
L 371.37 52.294294 
L 371.352789 54.332894 
L 371.496345 55.695387 
L 371.649617 57.117246 
L 371.635812 59.043318 
L 371.800088 60.462416 
L 372.150565 63.506514 
L 372.115875 66.966253 
L 372.534162 69.996474 
L 373.690331 77.316482 
L 373.651272 81.77583 
L 375.648218 89.06459 
L 376.457894 91.304484 
L 378.918189 98.521868 
L 388.375467 107.412646 
L 390.893317 110.381885 
L 396.868855 112.899735 
L 400.293039 114.185917 
L 406.169981 116.524113 
L 412.210612 117.525061 
L 423.846559 120.219254 
L 424.128184 120.238944 
L 424.128184 127.200822 
L 424.128184 131.681014 
L 423.266601 131.623218 
L 412.210612 131.541237 
L 400.562389 131.860111 
L 400.293039 131.841331 
L 399.933787 131.82415 
L 388.375467 132.432942 
L 379.703179 133.265965 
L 376.457894 134.207829 
L 368.425456 136.73488 
L 366.193592 137.396188 
L 364.540322 138.523231 
L 357.607473 143.495799 
L 356.128811 146.268938 
L 352.622749 151.760364 
L 351.959621 152.756354 
L 351.401615 154.640616 
L 348.643307 160.570025 
L 347.141155 163.351607 
L 344.569683 172.487597 
L 342.512292 179.47198 
L 341.822855 184.40517 
L 340.444588 192.784533 
L 339.567166 196.322742 
L 339.242741 197.857874 
L 338.321662 205.624291 
L 337.99047 208.240315 
L 337.03515 216.941608 
L 336.85159 220.157887 
L 336.865282 223.798839 
L 336.40678 232.07546 
L 333.554633 232.07546 
L 328.787604 232.07546 
L 324.793434 232.07546 
L 324.716087 230.33668 
L 323.389418 220.157887 
L 322.964001 210.881751 
L 322.595897 208.240315 
L 322.053668 203.323047 
L 321.541789 196.322742 
L 321.351369 191.078185 
L 320.301612 184.40517 
L 319.253546 178.844117 
L 318.230516 174.192648 
L 317.205489 172.487597 
L 311.469993 161.625042 
L 310.117041 160.570025 
L 304.952459 156.913213 
L 301.170161 155.688861 
L 293.034887 154.489445 
L 285.406589 155.993046 
L 281.117314 156.624364 
L 274.049806 160.570025 
L 270.971799 162.342082 
L 260.393771 172.487597 
L 258.465181 173.670609 
L 257.282169 174.840498 
L 250.289293 184.40517 
L 250.202455 184.523218 
L 243.325221 196.322742 
L 243.138972 196.585892 
L 242.981082 196.873431 
L 241.756364 199.384539 
L 237.858677 207.351874 
L 237.491841 208.240315 
L 233.447024 217.690972 
L 232.951473 218.919008 
L 232.537832 220.157887 
L 228.344224 231.236032 
L 228.092873 232.07546 
L 223.912967 232.07546 
L 216.762423 232.07546 
L 214.136672 232.07546 
L 214.742096 228.708249 
L 216.988751 220.157887 
L 218.986467 211.947054 
L 220.169353 208.240315 
L 223.898044 196.347613 
L 223.905399 196.322742 
L 223.907858 196.314228 
L 223.912967 196.299848 
L 228.261177 184.40517 
L 228.460103 183.855438 
L 233.294567 172.487597 
L 233.37059 172.29651 
L 233.447024 172.132234 
L 234.237247 170.512041 
L 238.594931 161.522218 
L 239.137798 160.570025 
L 242.981082 153.635682 
L 243.062814 153.501213 
L 243.382472 153.018092 
L 247.717726 146.268938 
L 248.421489 145.128847 
L 250.131626 142.623365 
L 253.186918 138.771741 
L 254.967027 136.73488 
L 257.282169 134.011349 
L 258.825715 132.585269 
L 261.890109 130.124675 
L 265.302372 127.200822 
L 266.858694 125.796194 
L 269.199742 124.086915 
L 279.65162 119.170862 
L 281.117314 118.601078 
L 285.07488 117.675739 
L 293.034887 115.701519 
L 296.943063 115.244641 
L 304.952459 114.159951 
L 311.472789 113.529949 
L 312.103003 113.511618 
L 312.682978 113.47971 
L 317.277709 112.899735 
L 319.253546 112.66637 
L 323.675918 112.038092 
L 324.482574 111.744739 
L 328.787604 110.854848 
L 332.346657 109.879793 
L 335.701046 107.533703 
L 338.321662 106.376244 
L 340.747407 105.025071 
L 342.757206 100.982163 
L 348.392058 93.93101 
L 349.726595 89.06459 
L 352.622749 80.542342 
L 352.856931 79.717878 
L 352.860725 79.340151 
L 354.686209 69.996474 
L 355.310592 66.304582 
L 355.334863 64.1446 
L 355.813822 60.462416 
L 355.992146 58.752781 
L 356.003071 57.402837 
L 356.16746 55.695387 
L 356.313352 54.049993 
L 356.327626 52.570897 
L 356.468777 50.928358 
L 356.609667 49.342227 
L 356.637071 47.741979 
L 356.786778 46.161329 
L 356.952584 44.643782 
L 357.009597 42.900445 
L 357.194923 41.3943 
L 364.540322 41.3943 
" clip-path="url(#pbff17a8425)" style="fill: #d4e6f1"/>
   </g>
   <g id="PathCollection_9">
    <path d="M 75.949049 41.3943 
L 76.086654 41.880686 
L 77.281849 45.913983 
L 77.351506 46.161329 
L 77.412933 46.382459 
L 78.518582 50.248194 
L 78.718991 50.888277 
L 78.73179 50.928358 
L 78.745908 50.973823 
L 80.073052 55.384493 
L 80.167086 55.695387 
L 80.270105 56.045692 
L 81.376605 59.890812 
L 81.539975 60.462416 
L 81.907992 61.81818 
L 83.558728 67.980416 
L 84.070568 69.996474 
L 85.326932 75.443154 
L 86.868057 82.38501 
L 88.172718 89.06459 
L 89.978135 100.524143 
L 90.068087 100.982163 
L 90.093076 101.325241 
L 90.436155 104.372585 
L 91.525249 112.899735 
L 92.067398 119.071532 
L 92.209775 121.114451 
L 92.555122 127.200822 
L 92.675033 131.0723 
L 92.718239 132.880685 
L 92.757052 136.73488 
L 92.715849 140.590032 
L 92.691428 142.404018 
L 92.568102 146.268938 
L 92.215277 152.352008 
L 92.09002 154.411801 
L 91.531246 160.570025 
L 90.436155 168.867799 
L 90.060334 172.111777 
L 90.029121 172.487597 
L 89.920308 173.003444 
L 88.041613 184.40517 
L 86.398422 192.285009 
L 85.710524 196.322742 
L 83.693791 203.065106 
L 82.357588 208.240315 
L 81.466529 211.188262 
L 78.518582 220.067373 
L 75.808616 229.365493 
L 74.991537 232.07546 
L 66.60101 232.07546 
L 61.850103 232.07546 
L 64.749488 222.009409 
L 65.557923 219.1148 
L 66.60101 215.21966 
L 68.564007 208.240315 
L 70.569788 200.291521 
L 71.756903 196.322742 
L 72.81568 190.108072 
L 74.038684 184.40517 
L 74.707038 180.593626 
L 76.416918 172.487597 
L 77.306013 161.782594 
L 77.462224 160.570025 
L 77.517451 159.969346 
L 78.454241 146.307543 
L 78.456651 146.268938 
L 78.457579 146.244537 
L 78.518582 143.57832 
L 78.687588 136.802482 
L 78.688226 136.73488 
L 78.687625 136.667263 
L 78.54372 127.210877 
L 78.543445 127.200822 
L 78.54272 127.18634 
L 78.518582 126.815043 
L 77.724244 113.376338 
L 77.68884 112.899735 
L 77.585057 111.966209 
L 76.785006 100.982163 
L 75.11326 92.469913 
L 74.584137 89.06459 
L 73.874424 85.349263 
L 71.874516 75.311727 
L 70.703339 69.996474 
L 69.880821 66.54137 
L 69.297335 64.150915 
L 68.378982 60.462416 
L 67.826167 58.323933 
L 67.703824 57.858339 
L 67.134897 55.695387 
L 66.60101 53.699927 
L 66.506438 53.330787 
L 66.49633 53.290937 
L 65.882623 50.928358 
L 65.321571 48.800732 
L 65.182327 48.261107 
L 64.622989 46.161329 
L 64.11365 44.275287 
L 63.840522 43.225717 
L 63.342975 41.3943 
L 66.60101 41.3943 
M 357.194923 41.3943 
L 357.009597 42.900445 
L 356.952584 44.643782 
L 356.786778 46.161329 
L 356.637071 47.741979 
L 356.609667 49.342227 
L 356.468777 50.928358 
L 356.327626 52.570897 
L 356.313352 54.049993 
L 356.16746 55.695387 
L 356.003071 57.402837 
L 355.992146 58.752781 
L 355.813822 60.462416 
L 355.334863 64.1446 
L 355.310592 66.304582 
L 354.686209 69.996474 
L 352.860725 79.340151 
L 352.856931 79.717878 
L 352.622749 80.542342 
L 349.726595 89.06459 
L 348.392058 93.93101 
L 342.757206 100.982163 
L 340.747407 105.025071 
L 338.321662 106.376244 
L 335.701046 107.533703 
L 332.346657 109.879793 
L 328.787604 110.854848 
L 324.482574 111.744739 
L 323.675918 112.038092 
L 319.253546 112.66637 
L 317.277709 112.899735 
L 312.682978 113.47971 
L 312.103003 113.511618 
L 311.472789 113.529949 
L 304.952459 114.159951 
L 296.943063 115.244641 
L 293.034887 115.701519 
L 285.07488 117.675739 
L 281.117314 118.601078 
L 279.65162 119.170862 
L 269.199742 124.086915 
L 266.858694 125.796194 
L 265.302372 127.200822 
L 261.890109 130.124675 
L 258.825715 132.585269 
L 257.282169 134.011349 
L 254.967027 136.73488 
L 253.186918 138.771741 
L 250.131626 142.623365 
L 248.421489 145.128847 
L 247.717726 146.268938 
L 243.382472 153.018092 
L 243.062814 153.501213 
L 242.981082 153.635682 
L 239.137798 160.570025 
L 238.594931 161.522218 
L 234.237247 170.512041 
L 233.447024 172.132234 
L 233.37059 172.29651 
L 233.294567 172.487597 
L 228.460103 183.855438 
L 228.261177 184.40517 
L 223.912967 196.299848 
L 223.907858 196.314228 
L 223.905399 196.322742 
L 223.898044 196.347613 
L 220.169353 208.240315 
L 218.986467 211.947054 
L 216.988751 220.157887 
L 214.742096 228.708249 
L 214.136672 232.07546 
L 209.61188 232.07546 
L 200.574267 232.07546 
L 201.211195 228.558572 
L 201.759914 220.157887 
L 202.887783 213.433791 
L 204.041965 208.240315 
L 205.952566 199.982056 
L 206.429105 196.322742 
L 207.049226 193.760088 
L 209.61188 184.489647 
L 209.634608 184.40517 
L 211.85578 176.227432 
L 213.112763 172.487597 
L 216.869747 160.748898 
L 216.939148 160.570025 
L 217.04258 160.289868 
L 220.488724 149.995239 
L 221.904207 146.268938 
L 223.500217 141.777075 
L 223.64199 141.321258 
L 223.912967 140.556055 
L 225.308136 136.73488 
L 226.155746 134.210631 
L 227.084386 131.967851 
L 228.68953 127.210357 
L 228.693535 127.200822 
L 228.711066 127.154217 
L 231.293918 120.050279 
L 231.890554 117.715573 
L 233.447024 113.271709 
L 233.588542 112.899735 
L 235.414911 105.90188 
L 237.52964 100.982163 
L 239.200049 91.52958 
L 240.314808 89.06459 
L 241.692463 82.10777 
L 241.972016 79.530532 
L 240.80402 75.176407 
L 241.947667 69.996474 
L 242.185324 66.025204 
L 241.944677 65.229445 
L 238.214053 60.462416 
L 242.981082 60.462416 
L 250.131626 60.462416 
L 257.282169 60.462416 
L 269.199742 60.462416 
L 281.117314 60.462416 
L 293.034887 60.462416 
L 304.952459 60.462416 
L 312.103003 60.462416 
L 319.253546 60.462416 
L 324.020575 60.462416 
L 328.787604 60.462416 
L 328.787604 58.078902 
L 328.787604 55.695387 
L 328.787604 53.311873 
L 328.787604 50.928358 
L 328.787604 48.544844 
L 328.787604 46.161329 
L 328.787604 43.777815 
L 328.787604 41.3943 
L 333.554633 41.3943 
L 338.321662 41.3943 
L 345.472206 41.3943 
L 352.622749 41.3943 
M 424.128184 142.395885 
L 419.945906 143.17482 
L 412.210612 144.287683 
L 408.737886 144.879848 
L 403.922143 146.268938 
L 400.293039 147.286931 
L 393.462023 149.320872 
L 388.375467 151.948203 
L 380.879728 156.072582 
L 376.457894 160.059357 
L 375.889881 160.570025 
L 369.780757 165.81046 
L 365.490211 172.487597 
L 360.465327 180.330176 
L 359.065897 184.40517 
L 355.980639 192.964853 
L 354.390948 196.322742 
L 353.856693 197.556686 
L 352.622749 202.267538 
L 350.975984 208.240315 
L 349.300074 214.620095 
L 348.31563 220.157887 
L 347.241378 229.12684 
L 346.688832 232.07546 
L 345.472206 232.07546 
L 338.321662 232.07546 
L 336.40678 232.07546 
L 336.865282 223.798839 
L 336.85159 220.157887 
L 337.03515 216.941608 
L 337.99047 208.240315 
L 338.321662 205.624291 
L 339.242741 197.857874 
L 339.567166 196.322742 
L 340.444588 192.784533 
L 341.822855 184.40517 
L 342.512292 179.47198 
L 344.569683 172.487597 
L 347.141155 163.351607 
L 348.643307 160.570025 
L 351.401615 154.640616 
L 351.959621 152.756354 
L 352.622749 151.760364 
L 356.128811 146.268938 
L 357.607473 143.495799 
L 364.540322 138.523231 
L 366.193592 137.396188 
L 368.425456 136.73488 
L 376.457894 134.207829 
L 379.703179 133.265965 
L 388.375467 132.432942 
L 399.933787 131.82415 
L 400.293039 131.841331 
L 400.562389 131.860111 
L 412.210612 131.541237 
L 423.266601 131.623218 
L 424.128184 131.681014 
L 424.128184 131.967851 
L 424.128184 136.73488 
L 424.128184 141.501909 
" clip-path="url(#pbff17a8425)" style="fill: #ecf2f5"/>
   </g>
   <g id="PathCollection_10">
    <path d="M 89.626581 41.3943 
L 90.436155 43.747313 
L 90.447447 43.775556 
L 90.449443 43.780472 
L 91.37891 46.161329 
L 92.152906 48.201493 
L 92.434959 48.944605 
L 93.168094 50.928358 
L 93.784063 52.642291 
L 94.294533 54.083548 
L 94.857485 55.695387 
L 95.334225 57.099288 
L 96.026073 59.196885 
L 96.442627 60.462416 
L 97.099628 62.564056 
L 98.888758 68.610487 
L 99.293679 69.996474 
L 99.829665 72.015724 
L 102.353727 83.024262 
L 103.784181 87.920227 
L 104.057266 89.06459 
L 104.458647 91.16951 
L 107.46648 107.786983 
L 108.155581 112.899735 
L 108.512378 116.594926 
L 109.075826 123.167563 
L 109.345951 127.200822 
L 109.468434 130.046705 
L 109.578903 133.84481 
L 109.647069 136.73488 
L 109.65968 139.657261 
L 109.598718 143.370942 
L 109.553327 146.268938 
L 109.382558 150.486236 
L 108.920142 156.630176 
L 108.63342 160.570025 
L 107.98755 166.203848 
L 107.822823 172.487597 
L 105.2438 181.515097 
L 104.724213 184.40517 
L 104.264566 186.316008 
L 102.901537 196.322742 
L 99.191901 205.078489 
L 98.239625 208.240315 
L 95.999047 214.594996 
L 93.008542 222.730275 
L 90.436155 228.97476 
L 89.35388 232.07546 
L 78.518582 232.07546 
L 74.991537 232.07546 
L 75.808616 229.365493 
L 78.518582 220.067373 
L 81.466529 211.188262 
L 82.357588 208.240315 
L 83.693791 203.065106 
L 85.710524 196.322742 
L 86.398422 192.285009 
L 88.041613 184.40517 
L 89.920308 173.003444 
L 90.029121 172.487597 
L 90.060334 172.111777 
L 90.436155 168.867799 
L 91.531246 160.570025 
L 92.09002 154.411801 
L 92.215277 152.352008 
L 92.568102 146.268938 
L 92.691428 142.404018 
L 92.715849 140.590032 
L 92.757052 136.73488 
L 92.718239 132.880685 
L 92.675033 131.0723 
L 92.555122 127.200822 
L 92.209775 121.114451 
L 92.067398 119.071532 
L 91.525249 112.899735 
L 90.436155 104.372585 
L 90.093076 101.325241 
L 90.068087 100.982163 
L 89.978135 100.524143 
L 88.172718 89.06459 
L 86.868057 82.38501 
L 85.326932 75.443154 
L 84.070568 69.996474 
L 83.558728 67.980416 
L 81.907992 61.81818 
L 81.539975 60.462416 
L 81.376605 59.890812 
L 80.270105 56.045692 
L 80.167086 55.695387 
L 80.073052 55.384493 
L 78.745908 50.973823 
L 78.73179 50.928358 
L 78.718991 50.888277 
L 78.518582 50.248194 
L 77.412933 46.382459 
L 77.351506 46.161329 
L 77.281849 45.913983 
L 76.086654 41.880686 
L 75.949049 41.3943 
L 78.518582 41.3943 
M 328.787604 41.3943 
L 328.787604 43.777815 
L 328.787604 46.161329 
L 328.787604 48.544844 
L 328.787604 50.928358 
L 328.787604 53.311873 
L 328.787604 55.695387 
L 328.787604 58.078902 
L 328.787604 60.462416 
L 324.020575 60.462416 
L 319.253546 60.462416 
L 312.103003 60.462416 
L 304.952459 60.462416 
L 293.034887 60.462416 
L 281.117314 60.462416 
L 269.199742 60.462416 
L 257.282169 60.462416 
L 250.131626 60.462416 
L 242.981082 60.462416 
L 238.214053 60.462416 
L 241.944677 65.229445 
L 242.185324 66.025204 
L 241.947667 69.996474 
L 240.80402 75.176407 
L 241.972016 79.530532 
L 241.692463 82.10777 
L 240.314808 89.06459 
L 239.200049 91.52958 
L 237.52964 100.982163 
L 235.414911 105.90188 
L 233.588542 112.899735 
L 233.447024 113.271709 
L 231.890554 117.715573 
L 231.293918 120.050279 
L 228.711066 127.154217 
L 228.693535 127.200822 
L 228.68953 127.210357 
L 227.084386 131.967851 
L 226.155746 134.210631 
L 225.308136 136.73488 
L 223.912967 140.556055 
L 223.64199 141.321258 
L 223.500217 141.777075 
L 221.904207 146.268938 
L 220.488724 149.995239 
L 217.04258 160.289868 
L 216.939148 160.570025 
L 216.869747 160.748898 
L 213.112763 172.487597 
L 211.85578 176.227432 
L 209.634608 184.40517 
L 209.61188 184.489647 
L 207.049226 193.760088 
L 206.429105 196.322742 
L 205.952566 199.982056 
L 204.041965 208.240315 
L 202.887783 213.433791 
L 201.759914 220.157887 
L 201.211195 228.558572 
L 200.574267 232.07546 
L 197.694307 232.07546 
L 186.197963 232.07546 
L 186.213809 220.594962 
L 186.242358 220.157887 
L 186.3362 219.598422 
L 186.91807 208.240315 
L 187.78841 198.334418 
L 188.050383 196.322742 
L 188.776206 193.323271 
L 189.988627 184.40517 
L 191.02625 177.737113 
L 194.518478 163.745854 
L 195.11799 160.570025 
L 195.374918 159.178391 
L 197.694307 150.092838 
L 198.464892 146.731289 
L 198.602481 146.268938 
L 198.7148 145.860741 
L 200.384102 137.810798 
L 200.66996 136.73488 
L 200.986293 135.418086 
L 202.108824 128.966629 
L 202.497003 127.200822 
L 203.073053 123.973575 
L 203.905408 116.626395 
L 204.381065 112.899735 
L 204.678557 105.915485 
L 204.680366 100.982163 
L 204.5834 95.953683 
L 204.162804 89.06459 
L 203.49776 84.421828 
L 202.459251 73.808429 
L 201.829285 69.996474 
L 201.569419 68.44643 
L 201.026563 61.795319 
L 200.832037 60.462416 
L 200.754989 59.85028 
L 200.526153 56.261756 
L 200.458231 55.695387 
L 200.398105 55.154628 
L 200.199098 51.429317 
L 200.145028 50.928358 
L 200.092987 50.448622 
L 199.912316 46.604931 
L 199.862711 46.161329 
L 199.810606 45.73807 
L 199.622738 41.779986 
L 199.571462 41.3943 
L 209.61188 41.3943 
L 216.762423 41.3943 
L 223.912967 41.3943 
L 228.679996 41.3943 
L 233.447024 41.3943 
L 238.214053 41.3943 
L 242.981082 41.3943 
L 250.131626 41.3943 
L 257.282169 41.3943 
L 269.199742 41.3943 
L 281.117314 41.3943 
L 293.034887 41.3943 
L 304.952459 41.3943 
L 312.103003 41.3943 
L 319.253546 41.3943 
L 324.020575 41.3943 
M 424.128184 152.698209 
L 423.207147 152.86686 
L 412.210612 156.350868 
L 407.714841 157.872563 
L 402.523473 160.570025 
L 400.293039 161.71207 
L 393.234803 165.429361 
L 388.375467 169.676581 
L 380.59672 176.626423 
L 376.457894 182.43833 
L 375.046413 184.40517 
L 370.656866 190.521714 
L 367.910546 196.322742 
L 363.291392 206.991386 
L 362.964252 208.240315 
L 362.44011 210.340526 
L 359.021006 220.157887 
L 357.501122 225.03626 
L 356.237573 232.07546 
L 352.622749 232.07546 
L 346.688832 232.07546 
L 347.241378 229.12684 
L 348.31563 220.157887 
L 349.300074 214.620095 
L 350.975984 208.240315 
L 352.622749 202.267538 
L 353.856693 197.556686 
L 354.390948 196.322742 
L 355.980639 192.964853 
L 359.065897 184.40517 
L 360.465327 180.330176 
L 365.490211 172.487597 
L 369.780757 165.81046 
L 375.889881 160.570025 
L 376.457894 160.059357 
L 380.879728 156.072582 
L 388.375467 151.948203 
L 393.462023 149.320872 
L 400.293039 147.286931 
L 403.922143 146.268938 
L 408.737886 144.879848 
L 412.210612 144.287683 
L 419.945906 143.17482 
L 424.128184 142.395885 
L 424.128184 146.268938 
" clip-path="url(#pbff17a8425)" style="fill: #f9eee7"/>
   </g>
   <g id="PathCollection_11">
    <path d="M 106.571922 41.3943 
L 107.072931 42.338141 
L 108.425269 44.947021 
L 109.04296 46.161329 
L 109.765879 47.64376 
L 110.558967 49.28731 
L 111.324503 50.928358 
L 112.207349 52.899083 
L 112.547071 53.656719 
L 113.419593 55.695387 
L 114.2713 57.765387 
L 114.437521 58.045658 
L 114.477205 58.120083 
L 115.788191 60.462416 
L 117.588333 63.902632 
L 119.05722 67.143813 
L 120.389242 69.996474 
L 121.835632 73.479067 
L 126.188872 87.029925 
L 127.002855 88.413404 
L 127.26364 89.06459 
L 127.766031 90.641749 
L 132.84922 106.239388 
L 134.289563 112.899735 
L 135.201508 118.307317 
L 135.717595 121.483588 
L 136.466829 127.200822 
L 136.908187 131.488548 
L 136.982602 132.417388 
L 137.329394 136.73488 
L 137.590017 141.295338 
L 137.595942 141.70611 
L 137.747366 146.268938 
L 137.752676 153.20722 
L 137.718458 153.652274 
L 137.4095 160.570025 
L 136.299656 170.680808 
L 136.49904 172.487597 
L 134.882023 175.712019 
L 132.719925 184.40517 
L 130.912819 189.129116 
L 130.386819 196.322742 
L 122.975573 205.027015 
L 121.396754 208.240315 
L 114.2713 219.892413 
L 114.194109 220.080697 
L 114.030378 220.398809 
L 107.822453 232.07546 
L 102.353727 232.07546 
L 90.436155 232.07546 
L 89.35388 232.07546 
L 90.436155 228.97476 
L 93.008542 222.730275 
L 95.999047 214.594996 
L 98.239625 208.240315 
L 99.191901 205.078489 
L 102.901537 196.322742 
L 104.264566 186.316008 
L 104.724213 184.40517 
L 105.2438 181.515097 
L 107.822823 172.487597 
L 107.98755 166.203848 
L 108.63342 160.570025 
L 108.920142 156.630176 
L 109.382558 150.486236 
L 109.553327 146.268938 
L 109.598718 143.370942 
L 109.65968 139.657261 
L 109.647069 136.73488 
L 109.578903 133.84481 
L 109.468434 130.046705 
L 109.345951 127.200822 
L 109.075826 123.167563 
L 108.512378 116.594926 
L 108.155581 112.899735 
L 107.46648 107.786983 
L 104.458647 91.16951 
L 104.057266 89.06459 
L 103.784181 87.920227 
L 102.353727 83.024262 
L 99.829665 72.015724 
L 99.293679 69.996474 
L 98.888758 68.610487 
L 97.099628 62.564056 
L 96.442627 60.462416 
L 96.026073 59.196885 
L 95.334225 57.099288 
L 94.857485 55.695387 
L 94.294533 54.083548 
L 93.784063 52.642291 
L 93.168094 50.928358 
L 92.434959 48.944605 
L 92.152906 48.201493 
L 91.37891 46.161329 
L 90.449443 43.780472 
L 90.447447 43.775556 
L 90.436155 43.747313 
L 89.626581 41.3943 
L 90.436155 41.3943 
L 102.353727 41.3943 
M 199.571462 41.3943 
L 199.622738 41.779986 
L 199.810606 45.73807 
L 199.862711 46.161329 
L 199.912316 46.604931 
L 200.092987 50.448622 
L 200.145028 50.928358 
L 200.199098 51.429317 
L 200.398105 55.154628 
L 200.458231 55.695387 
L 200.526153 56.261756 
L 200.754989 59.85028 
L 200.832037 60.462416 
L 201.026563 61.795319 
L 201.569419 68.44643 
L 201.829285 69.996474 
L 202.459251 73.808429 
L 203.49776 84.421828 
L 204.162804 89.06459 
L 204.5834 95.953683 
L 204.680366 100.982163 
L 204.678557 105.915485 
L 204.381065 112.899735 
L 203.905408 116.626395 
L 203.073053 123.973575 
L 202.497003 127.200822 
L 202.108824 128.966629 
L 200.986293 135.418086 
L 200.66996 136.73488 
L 200.384102 137.810798 
L 198.7148 145.860741 
L 198.602481 146.268938 
L 198.464892 146.731289 
L 197.694307 150.092838 
L 195.374918 159.178391 
L 195.11799 160.570025 
L 194.518478 163.745854 
L 191.02625 177.737113 
L 189.988627 184.40517 
L 188.776206 193.323271 
L 188.050383 196.322742 
L 187.78841 198.334418 
L 186.91807 208.240315 
L 186.3362 219.598422 
L 186.242358 220.157887 
L 186.213809 220.594962 
L 186.197963 232.07546 
L 185.776735 232.07546 
L 173.859162 232.07546 
L 167.834513 232.07546 
L 165.753053 223.969351 
L 164.992806 217.106671 
L 163.21696 208.240315 
L 161.946278 196.327431 
L 161.945565 196.322742 
L 161.94678 196.317553 
L 161.94159 196.194793 
L 160.87872 184.40517 
L 161.50492 172.924267 
L 161.382191 171.928199 
L 161.94159 169.859243 
L 162.819461 160.570025 
L 163.597852 154.413239 
L 164.179499 152.076736 
L 165.11425 146.268938 
L 165.669964 142.993259 
L 166.516728 139.671854 
L 167.060393 136.73488 
L 167.532466 134.204202 
L 168.696427 129.265916 
L 169.097461 127.200822 
L 169.591322 124.640118 
L 171.519469 114.303551 
L 171.788705 112.899735 
L 172.122535 111.163108 
L 170.925877 100.982163 
L 174.251044 89.456472 
L 174.249272 89.06459 
L 174.240226 88.759739 
L 175.476427 71.290286 
L 175.451932 69.996474 
L 175.447995 69.360941 
L 176.346818 61.457479 
L 176.355025 60.462416 
L 176.368915 59.960466 
L 176.883273 56.300209 
L 176.904837 55.695387 
L 176.93287 55.080646 
L 177.489671 51.65446 
L 177.527668 50.928358 
L 177.57294 50.185603 
L 178.15677 47.020851 
L 178.214099 46.161329 
L 178.27984 45.277194 
L 178.873432 42.397154 
L 178.95238 41.3943 
L 185.776735 41.3943 
L 197.694307 41.3943 
M 424.128184 162.835985 
L 417.03916 165.398573 
L 412.210612 168.291958 
L 402.059103 174.253662 
L 400.293039 175.810528 
L 390.712724 184.40517 
L 389.497254 185.526957 
L 388.375467 187.027337 
L 379.252232 199.11708 
L 376.457894 204.51913 
L 374.534518 208.240315 
L 371.194192 214.894186 
L 369.360997 220.157887 
L 366.149295 230.466487 
L 365.516585 232.07546 
L 364.540322 232.07546 
L 356.237573 232.07546 
L 357.501122 225.03626 
L 359.021006 220.157887 
L 362.44011 210.340526 
L 362.964252 208.240315 
L 363.291392 206.991386 
L 367.910546 196.322742 
L 370.656866 190.521714 
L 375.046413 184.40517 
L 376.457894 182.43833 
L 380.59672 176.626423 
L 388.375467 169.676581 
L 393.234803 165.429361 
L 400.293039 161.71207 
L 402.523473 160.570025 
L 407.714841 157.872563 
L 412.210612 156.350868 
L 423.207147 152.86686 
L 424.128184 152.698209 
L 424.128184 153.419482 
L 424.128184 160.570025 
" clip-path="url(#pbff17a8425)" style="fill: #fddcc9"/>
   </g>
   <g id="PathCollection_12">
    <path d="M 178.95238 41.3943 
L 178.873432 42.397154 
L 178.27984 45.277194 
L 178.214099 46.161329 
L 178.15677 47.020851 
L 177.57294 50.185603 
L 177.527668 50.928358 
L 177.489671 51.65446 
L 176.93287 55.080646 
L 176.904837 55.695387 
L 176.883273 56.300209 
L 176.368915 59.960466 
L 176.355025 60.462416 
L 176.346818 61.457479 
L 175.447995 69.360941 
L 175.451932 69.996474 
L 175.476427 71.290286 
L 174.240226 88.759739 
L 174.249272 89.06459 
L 174.251044 89.456472 
L 170.925877 100.982163 
L 172.122535 111.163108 
L 171.788705 112.899735 
L 171.519469 114.303551 
L 169.591322 124.640118 
L 169.097461 127.200822 
L 168.696427 129.265916 
L 167.532466 134.204202 
L 167.060393 136.73488 
L 166.516728 139.671854 
L 165.669964 142.993259 
L 165.11425 146.268938 
L 164.179499 152.076736 
L 163.597852 154.413239 
L 162.819461 160.570025 
L 161.94159 169.859243 
L 161.382191 171.928199 
L 161.50492 172.924267 
L 160.87872 184.40517 
L 161.94159 196.194793 
L 161.94678 196.317553 
L 161.945565 196.322742 
L 161.946278 196.327431 
L 163.21696 208.240315 
L 164.992806 217.106671 
L 165.753053 223.969351 
L 167.834513 232.07546 
L 161.94159 232.07546 
L 150.024017 232.07546 
L 138.106445 232.07546 
L 126.188872 232.07546 
L 114.2713 232.07546 
L 107.822453 232.07546 
L 114.030378 220.398809 
L 114.194109 220.080697 
L 114.2713 219.892413 
L 121.396754 208.240315 
L 122.975573 205.027015 
L 130.386819 196.322742 
L 130.912819 189.129116 
L 132.719925 184.40517 
L 134.882023 175.712019 
L 136.49904 172.487597 
L 136.299656 170.680808 
L 137.4095 160.570025 
L 137.718458 153.652274 
L 137.752676 153.20722 
L 137.747366 146.268938 
L 137.595942 141.70611 
L 137.590017 141.295338 
L 137.329394 136.73488 
L 136.982602 132.417388 
L 136.908187 131.488548 
L 136.466829 127.200822 
L 135.717595 121.483588 
L 135.201508 118.307317 
L 134.289563 112.899735 
L 132.84922 106.239388 
L 127.766031 90.641749 
L 127.26364 89.06459 
L 127.002855 88.413404 
L 126.188872 87.029925 
L 121.835632 73.479067 
L 120.389242 69.996474 
L 119.05722 67.143813 
L 117.588333 63.902632 
L 115.788191 60.462416 
L 114.477205 58.120083 
L 114.437521 58.045658 
L 114.2713 57.765387 
L 113.419593 55.695387 
L 112.547071 53.656719 
L 112.207349 52.899083 
L 111.324503 50.928358 
L 110.558967 49.28731 
L 109.765879 47.64376 
L 109.04296 46.161329 
L 108.425269 44.947021 
L 107.072931 42.338141 
L 106.571922 41.3943 
L 114.2713 41.3943 
L 126.188872 41.3943 
L 138.106445 41.3943 
L 150.024017 41.3943 
L 161.94159 41.3943 
L 173.859162 41.3943 
M 424.128184 172.99419 
L 422.680392 173.935389 
L 412.210612 180.209138 
L 409.567063 181.761622 
L 406.568298 184.40517 
L 400.293039 190.096252 
L 397.055008 193.084711 
L 388.375467 204.693514 
L 386.850066 206.714914 
L 386.061016 208.240315 
L 383.724217 212.891565 
L 379.725866 220.157887 
L 378.53465 222.234643 
L 376.457894 227.426525 
L 374.629755 232.07546 
L 365.516585 232.07546 
L 366.149295 230.466487 
L 369.360997 220.157887 
L 371.194192 214.894186 
L 374.534518 208.240315 
L 376.457894 204.51913 
L 379.252232 199.11708 
L 388.375467 187.027337 
L 389.497254 185.526957 
L 390.712724 184.40517 
L 400.293039 175.810528 
L 402.059103 174.253662 
L 412.210612 168.291958 
L 417.03916 165.398573 
L 424.128184 162.835985 
L 424.128184 172.487597 
" clip-path="url(#pbff17a8425)" style="fill: #f8bb9e"/>
   </g>
   <g id="PathCollection_13">
    <path d="M 424.128184 183.398787 
L 422.580123 184.40517 
L 416.428669 188.623227 
L 412.210612 192.724471 
L 404.119961 200.149664 
L 400.293039 204.941991 
L 397.732403 208.240315 
L 393.747121 213.611969 
L 390.145178 220.157887 
L 385.155993 228.855986 
L 383.868202 232.07546 
L 376.457894 232.07546 
L 374.629755 232.07546 
L 376.457894 227.426525 
L 378.53465 222.234643 
L 379.725866 220.157887 
L 383.724217 212.891565 
L 386.061016 208.240315 
L 386.850066 206.714914 
L 388.375467 204.693514 
L 397.055008 193.084711 
L 400.293039 190.096252 
L 406.568298 184.40517 
L 409.567063 181.761622 
L 412.210612 180.209138 
L 422.680392 173.935389 
L 424.128184 172.99419 
" clip-path="url(#pbff17a8425)" style="fill: #ee9677"/>
   </g>
   <g id="PathCollection_14">
    <path d="M 424.128184 194.31816 
L 422.939015 195.133574 
L 412.210612 205.564869 
L 410.815515 206.845218 
L 409.701458 208.240315 
L 401.617554 218.833372 
L 400.582137 220.157887 
L 400.455642 220.32049 
L 400.293039 220.572797 
L 393.329131 232.07546 
L 388.375467 232.07546 
L 383.868202 232.07546 
L 385.155993 228.855986 
L 390.145178 220.157887 
L 393.747121 213.611969 
L 397.732403 208.240315 
L 400.293039 204.941991 
L 404.119961 200.149664 
L 412.210612 192.724471 
L 416.428669 188.623227 
L 422.580123 184.40517 
L 424.128184 183.398787 
L 424.128184 184.40517 
" clip-path="url(#pbff17a8425)" style="fill: #db6b55"/>
   </g>
   <g id="PathCollection_15">
    <path d="M 424.128184 205.941821 
L 421.769829 208.240315 
L 417.140932 213.170636 
L 411.678765 220.157887 
L 406.696947 226.561795 
L 403.143578 232.07546 
L 400.293039 232.07546 
L 393.329131 232.07546 
L 400.293039 220.572797 
L 400.455642 220.32049 
L 400.582137 220.157887 
L 401.617554 218.833372 
L 409.701458 208.240315 
L 410.815515 206.845218 
L 412.210612 205.564869 
L 422.939015 195.133574 
L 424.128184 194.31816 
L 424.128184 196.322742 
" clip-path="url(#pbff17a8425)" style="fill: #c53e3d"/>
   </g>
   <g id="PathCollection_16">
    <path d="M 424.128184 218.589935 
L 423.368928 219.398632 
L 422.775393 220.157887 
L 418.036343 226.249729 
L 413.454947 232.07546 
L 412.210612 232.07546 
L 403.143578 232.07546 
L 406.696947 226.561795 
L 411.678765 220.157887 
L 417.140932 213.170636 
L 421.769829 208.240315 
L 424.128184 205.941821 
L 424.128184 208.240315 
" clip-path="url(#pbff17a8425)" style="fill: #ab162a"/>
   </g>
   <g id="PathCollection_17">
    <path d="M 424.128184 232.07546 
L 413.454947 232.07546 
L 418.036343 226.249729 
L 422.775393 220.157887 
L 423.368928 219.398632 
L 424.128184 218.589935 
L 424.128184 220.157887 
" clip-path="url(#pbff17a8425)" style="fill: #7c0722"/>
   </g>
   <g id="PathCollection_18">
    <path d="M 424.128184 232.07546 
" clip-path="url(#pbff17a8425)" style="fill: #67001f"/>
   </g>
   <g id="PolyCollection_1">
    <path d="M 233.447024 60.462416 
L 233.447024 41.3943 
L 328.787604 41.3943 
L 328.787604 60.462416 
L 328.787604 60.462416 
L 233.447024 60.462416 
z
" clip-path="url(#pbff17a8425)" style="fill: url(#h765283ff66); fill-opacity: 0.3; stroke: #333333; stroke-opacity: 0.3"/>
   </g>
   <g id="PathCollection_19">
    <defs>
     <path id="mfe14a1dbc4" d="M -0 4.1833 
L 4.1833 0 
L 0 -4.1833 
L -4.1833 -0 
z
" style="stroke: #111827"/>
    </defs>
    <g clip-path="url(#pbff17a8425)">
     <use xlink:href="#mfe14a1dbc4" x="233.447024" y="136.73488" style="fill: #34d399; stroke: #111827"/>
    </g>
   </g>
   <g id="matplotlib.axis_1">
    <g id="xtick_1">
     <g id="line2d_1">
      <defs>
       <path id="mc618487750" d="M 0 0 
L 0 3.5 
" style="stroke: #000000; stroke-width: 0.8"/>
      </defs>
      <g>
       <use xlink:href="#mc618487750" x="42.765865" y="232.07546" style="stroke: #000000; stroke-width: 0.8"/>
      </g>
     </g>
     <g id="text_1">
      <!-- 0 -->
      <g transform="translate(39.584615 246.673897) scale(0.1 -0.1)">
       <defs>
        <path id="DejaVuSans-30" d="M 2034 4250 
Q 1547 4250 1301 3770 
Q 1056 3291 1056 2328 
Q 1056 1369 1301 889 
Q 1547 409 2034 409 
Q 2525 409 2770 889 
Q 3016 1369 3016 2328 
Q 3016 3291 2770 3770 
Q 2525 4250 2034 4250 
z
M 2034 4750 
Q 2819 4750 3233 4129 
Q 3647 3509 3647 2328 
Q 3647 1150 3233 529 
Q 2819 -91 2034 -91 
Q 1250 -91 836 529 
Q 422 1150 422 2328 
Q 422 3509 836 4129 
Q 1250 4750 2034 4750 
z
" transform="scale(0.015625)"/>
       </defs>
       <use xlink:href="#DejaVuSans-30"/>
      </g>
     </g>
    </g>
    <g id="xtick_2">
     <g id="line2d_2">
      <g>
       <use xlink:href="#mc618487750" x="90.436155" y="232.07546" style="stroke: #000000; stroke-width: 0.8"/>
      </g>
     </g>
     <g id="text_2">
      <!-- 50 -->
      <g transform="translate(84.073655 246.673897) scale(0.1 -0.1)">
       <defs>
        <path id="DejaVuSans-35" d="M 691 4666 
L 3169 4666 
L 3169 4134 
L 1269 4134 
L 1269 2991 
Q 1406 3038 1543 3061 
Q 1681 3084 1819 3084 
Q 2600 3084 3056 2656 
Q 3513 2228 3513 1497 
Q 3513 744 3044 326 
Q 2575 -91 1722 -91 
Q 1428 -91 1123 -41 
Q 819 9 494 109 
L 494 744 
Q 775 591 1075 516 
Q 1375 441 1709 441 
Q 2250 441 2565 725 
Q 2881 1009 2881 1497 
Q 2881 1984 2565 2268 
Q 2250 2553 1709 2553 
Q 1456 2553 1204 2497 
Q 953 2441 691 2322 
L 691 4666 
z
" transform="scale(0.015625)"/>
       </defs>
       <use xlink:href="#DejaVuSans-35"/>
       <use xlink:href="#DejaVuSans-30" x="63.623047"/>
      </g>
     </g>
    </g>
    <g id="xtick_3">
     <g id="line2d_3">
      <g>
       <use xlink:href="#mc618487750" x="138.106445" y="232.07546" style="stroke: #000000; stroke-width: 0.8"/>
      </g>
     </g>
     <g id="text_3">
      <!-- 100 -->
      <g transform="translate(128.562695 246.673897) scale(0.1 -0.1)">
       <defs>
        <path id="DejaVuSans-31" d="M 794 531 
L 1825 531 
L 1825 4091 
L 703 3866 
L 703 4441 
L 1819 4666 
L 2450 4666 
L 2450 531 
L 3481 531 
L 3481 0 
L 794 0 
L 794 531 
z
" transform="scale(0.015625)"/>
       </defs>
       <use xlink:href="#DejaVuSans-31"/>
       <use xlink:href="#DejaVuSans-30" x="63.623047"/>
       <use xlink:href="#DejaVuSans-30" x="127.246094"/>
      </g>
     </g>
    </g>
    <g id="xtick_4">
     <g id="line2d_4">
      <g>
       <use xlink:href="#mc618487750" x="185.776735" y="232.07546" style="stroke: #000000; stroke-width: 0.8"/>
      </g>
     </g>
     <g id="text_4">
      <!-- 150 -->
      <g transform="translate(176.232985 246.673897) scale(0.1 -0.1)">
       <use xlink:href="#DejaVuSans-31"/>
       <use xlink:href="#DejaVuSans-35" x="63.623047"/>
       <use xlink:href="#DejaVuSans-30" x="127.246094"/>
      </g>
     </g>
    </g>
    <g id="xtick_5">
     <g id="line2d_5">
      <g>
       <use xlink:href="#mc618487750" x="233.447024" y="232.07546" style="stroke: #000000; stroke-width: 0.8"/>
      </g>
     </g>
     <g id="text_5">
      <!-- 200 -->
      <g transform="translate(223.903274 246.673897) scale(0.1 -0.1)">
       <defs>
        <path id="DejaVuSans-32" d="M 1228 531 
L 3431 531 
L 3431 0 
L 469 0 
L 469 531 
Q 828 903 1448 1529 
Q 2069 2156 2228 2338 
Q 2531 2678 2651 2914 
Q 2772 3150 2772 3378 
Q 2772 3750 2511 3984 
Q 2250 4219 1831 4219 
Q 1534 4219 1204 4116 
Q 875 4013 500 3803 
L 500 4441 
Q 881 4594 1212 4672 
Q 1544 4750 1819 4750 
Q 2544 4750 2975 4387 
Q 3406 4025 3406 3419 
Q 3406 3131 3298 2873 
Q 3191 2616 2906 2266 
Q 2828 2175 2409 1742 
Q 1991 1309 1228 531 
z
" transform="scale(0.015625)"/>
       </defs>
       <use xlink:href="#DejaVuSans-32"/>
       <use xlink:href="#DejaVuSans-30" x="63.623047"/>
       <use xlink:href="#DejaVuSans-30" x="127.246094"/>
      </g>
     </g>
    </g>
    <g id="xtick_6">
     <g id="line2d_6">
      <g>
       <use xlink:href="#mc618487750" x="281.117314" y="232.07546" style="stroke: #000000; stroke-width: 0.8"/>
      </g>
     </g>
     <g id="text_6">
      <!-- 250 -->
      <g transform="translate(271.573564 246.673897) scale(0.1 -0.1)">
       <use xlink:href="#DejaVuSans-32"/>
       <use xlink:href="#DejaVuSans-35" x="63.623047"/>
       <use xlink:href="#DejaVuSans-30" x="127.246094"/>
      </g>
     </g>
    </g>
    <g id="xtick_7">
     <g id="line2d_7">
      <g>
       <use xlink:href="#mc618487750" x="328.787604" y="232.07546" style="stroke: #000000; stroke-width: 0.8"/>
      </g>
     </g>
     <g id="text_7">
      <!-- 300 -->
      <g transform="translate(319.243854 246.673897) scale(0.1 -0.1)">
       <defs>
        <path id="DejaVuSans-33" d="M 2597 2516 
Q 3050 2419 3304 2112 
Q 3559 1806 3559 1356 
Q 3559 666 3084 287 
Q 2609 -91 1734 -91 
Q 1441 -91 1130 -33 
Q 819 25 488 141 
L 488 750 
Q 750 597 1062 519 
Q 1375 441 1716 441 
Q 2309 441 2620 675 
Q 2931 909 2931 1356 
Q 2931 1769 2642 2001 
Q 2353 2234 1838 2234 
L 1294 2234 
L 1294 2753 
L 1863 2753 
Q 2328 2753 2575 2939 
Q 2822 3125 2822 3475 
Q 2822 3834 2567 4026 
Q 2313 4219 1838 4219 
Q 1578 4219 1281 4162 
Q 984 4106 628 3988 
L 628 4550 
Q 988 4650 1302 4700 
Q 1616 4750 1894 4750 
Q 2613 4750 3031 4423 
Q 3450 4097 3450 3541 
Q 3450 3153 3228 2886 
Q 3006 2619 2597 2516 
z
" transform="scale(0.015625)"/>
       </defs>
       <use xlink:href="#DejaVuSans-33"/>
       <use xlink:href="#DejaVuSans-30" x="63.623047"/>
       <use xlink:href="#DejaVuSans-30" x="127.246094"/>
      </g>
     </g>
    </g>
    <g id="xtick_8">
     <g id="line2d_8">
      <g>
       <use xlink:href="#mc618487750" x="376.457894" y="232.07546" style="stroke: #000000; stroke-width: 0.8"/>
      </g>
     </g>
     <g id="text_8">
      <!-- 350 -->
      <g transform="translate(366.914144 246.673897) scale(0.1 -0.1)">
       <use xlink:href="#DejaVuSans-33"/>
       <use xlink:href="#DejaVuSans-35" x="63.623047"/>
       <use xlink:href="#DejaVuSans-30" x="127.246094"/>
      </g>
     </g>
    </g>
    <g id="xtick_9">
     <g id="line2d_9">
      <g>
       <use xlink:href="#mc618487750" x="424.128184" y="232.07546" style="stroke: #000000; stroke-width: 0.8"/>
      </g>
     </g>
     <g id="text_9">
      <!-- 400 -->
      <g transform="translate(414.584434 246.673897) scale(0.1 -0.1)">
       <defs>
        <path id="DejaVuSans-34" d="M 2419 4116 
L 825 1625 
L 2419 1625 
L 2419 4116 
z
M 2253 4666 
L 3047 4666 
L 3047 1625 
L 3713 1625 
L 3713 1100 
L 3047 1100 
L 3047 0 
L 2419 0 
L 2419 1100 
L 313 1100 
L 313 1709 
L 2253 4666 
z
" transform="scale(0.015625)"/>
       </defs>
       <use xlink:href="#DejaVuSans-34"/>
       <use xlink:href="#DejaVuSans-30" x="63.623047"/>
       <use xlink:href="#DejaVuSans-30" x="127.246094"/>
      </g>
     </g>
    </g>
    <g id="text_10">
     <!-- x [mm] -->
     <g transform="translate(215.256399 260.352022) scale(0.1 -0.1)">
      <defs>
       <path id="DejaVuSans-78" d="M 3513 3500 
L 2247 1797 
L 3578 0 
L 2900 0 
L 1881 1375 
L 863 0 
L 184 0 
L 1544 1831 
L 300 3500 
L 978 3500 
L 1906 2253 
L 2834 3500 
L 3513 3500 
z
" transform="scale(0.015625)"/>
       <path id="DejaVuSans-20" transform="scale(0.015625)"/>
       <path id="DejaVuSans-5b" d="M 550 4863 
L 1875 4863 
L 1875 4416 
L 1125 4416 
L 1125 -397 
L 1875 -397 
L 1875 -844 
L 550 -844 
L 550 4863 
z
" transform="scale(0.015625)"/>
       <path id="DejaVuSans-6d" d="M 3328 2828 
Q 3544 3216 3844 3400 
Q 4144 3584 4550 3584 
Q 5097 3584 5394 3201 
Q 5691 2819 5691 2113 
L 5691 0 
L 5113 0 
L 5113 2094 
Q 5113 2597 4934 2840 
Q 4756 3084 4391 3084 
Q 3944 3084 3684 2787 
Q 3425 2491 3425 1978 
L 3425 0 
L 2847 0 
L 2847 2094 
Q 2847 2600 2669 2842 
Q 2491 3084 2119 3084 
Q 1678 3084 1418 2786 
Q 1159 2488 1159 1978 
L 1159 0 
L 581 0 
L 581 3500 
L 1159 3500 
L 1159 2956 
Q 1356 3278 1631 3431 
Q 1906 3584 2284 3584 
Q 2666 3584 2933 3390 
Q 3200 3197 3328 2828 
z
" transform="scale(0.015625)"/>
       <path id="DejaVuSans-5d" d="M 1947 4863 
L 1947 -844 
L 622 -844 
L 622 -397 
L 1369 -397 
L 1369 4416 
L 622 4416 
L 622 4863 
L 1947 4863 
z
" transform="scale(0.015625)"/>
      </defs>
      <use xlink:href="#DejaVuSans-78"/>
      <use xlink:href="#DejaVuSans-20" x="59.179688"/>
      <use xlink:href="#DejaVuSans-5b" x="90.966797"/>
      <use xlink:href="#DejaVuSans-6d" x="129.980469"/>
      <use xlink:href="#DejaVuSans-6d" x="227.392578"/>
      <use xlink:href="#DejaVuSans-5d" x="324.804688"/>
     </g>
    </g>
   </g>
   <g id="matplotlib.axis_2">
    <g id="ytick_1">
     <g id="line2d_10">
      <defs>
       <path id="m05414e4046" d="M 0 0 
L -3.5 0 
" style="stroke: #000000; stroke-width: 0.8"/>
      </defs>
      <g>
       <use xlink:href="#m05414e4046" x="42.765865" y="41.3943" style="stroke: #000000; stroke-width: 0.8"/>
      </g>
     </g>
     <g id="text_11">
      <!-- 0 -->
      <g transform="translate(29.403365 45.193519) scale(0.1 -0.1)">
       <use xlink:href="#DejaVuSans-30"/>
      </g>
     </g>
    </g>
    <g id="ytick_2">
     <g id="line2d_11">
      <g>
       <use xlink:href="#m05414e4046" x="42.765865" y="65.229445" style="stroke: #000000; stroke-width: 0.8"/>
      </g>
     </g>
     <g id="text_12">
      <!-- 25 -->
      <g transform="translate(23.040865 69.028664) scale(0.1 -0.1)">
       <use xlink:href="#DejaVuSans-32"/>
       <use xlink:href="#DejaVuSans-35" x="63.623047"/>
      </g>
     </g>
    </g>
    <g id="ytick_3">
     <g id="line2d_12">
      <g>
       <use xlink:href="#m05414e4046" x="42.765865" y="89.06459" style="stroke: #000000; stroke-width: 0.8"/>
      </g>
     </g>
     <g id="text_13">
      <!-- 50 -->
      <g transform="translate(23.040865 92.863809) scale(0.1 -0.1)">
       <use xlink:href="#DejaVuSans-35"/>
       <use xlink:href="#DejaVuSans-30" x="63.623047"/>
      </g>
     </g>
    </g>
    <g id="ytick_4">
     <g id="line2d_13">
      <g>
       <use xlink:href="#m05414e4046" x="42.765865" y="112.899735" style="stroke: #000000; stroke-width: 0.8"/>
      </g>
     </g>
     <g id="text_14">
      <!-- 75 -->
      <g transform="translate(23.040865 116.698954) scale(0.1 -0.1)">
       <defs>
        <path id="DejaVuSans-37" d="M 525 4666 
L 3525 4666 
L 3525 4397 
L 1831 0 
L 1172 0 
L 2766 4134 
L 525 4134 
L 525 4666 
z
" transform="scale(0.015625)"/>
       </defs>
       <use xlink:href="#DejaVuSans-37"/>
       <use xlink:href="#DejaVuSans-35" x="63.623047"/>
      </g>
     </g>
    </g>
    <g id="ytick_5">
     <g id="line2d_14">
      <g>
       <use xlink:href="#m05414e4046" x="42.765865" y="136.73488" style="stroke: #000000; stroke-width: 0.8"/>
      </g>
     </g>
     <g id="text_15">
      <!-- 100 -->
      <g transform="translate(16.678365 140.534099) scale(0.1 -0.1)">
       <use xlink:href="#DejaVuSans-31"/>
       <use xlink:href="#DejaVuSans-30" x="63.623047"/>
       <use xlink:href="#DejaVuSans-30" x="127.246094"/>
      </g>
     </g>
    </g>
    <g id="ytick_6">
     <g id="line2d_15">
      <g>
       <use xlink:href="#m05414e4046" x="42.765865" y="160.570025" style="stroke: #000000; stroke-width: 0.8"/>
      </g>
     </g>
     <g id="text_16">
      <!-- 125 -->
      <g transform="translate(16.678365 164.369244) scale(0.1 -0.1)">
       <use xlink:href="#DejaVuSans-31"/>
       <use xlink:href="#DejaVuSans-32" x="63.623047"/>
       <use xlink:href="#DejaVuSans-35" x="127.246094"/>
      </g>
     </g>
    </g>
    <g id="ytick_7">
     <g id="line2d_16">
      <g>
       <use xlink:href="#m05414e4046" x="42.765865" y="184.40517" style="stroke: #000000; stroke-width: 0.8"/>
      </g>
     </g>
     <g id="text_17">
      <!-- 150 -->
      <g transform="translate(16.678365 188.204389) scale(0.1 -0.1)">
       <use xlink:href="#DejaVuSans-31"/>
       <use xlink:href="#DejaVuSans-35" x="63.623047"/>
       <use xlink:href="#DejaVuSans-30" x="127.246094"/>
      </g>
     </g>
    </g>
    <g id="ytick_8">
     <g id="line2d_17">
      <g>
       <use xlink:href="#m05414e4046" x="42.765865" y="208.240315" style="stroke: #000000; stroke-width: 0.8"/>
      </g>
     </g>
     <g id="text_18">
      <!-- 175 -->
      <g transform="translate(16.678365 212.039534) scale(0.1 -0.1)">
       <use xlink:href="#DejaVuSans-31"/>
       <use xlink:href="#DejaVuSans-37" x="63.623047"/>
       <use xlink:href="#DejaVuSans-35" x="127.246094"/>
      </g>
     </g>
    </g>
    <g id="ytick_9">
     <g id="line2d_18">
      <g>
       <use xlink:href="#m05414e4046" x="42.765865" y="232.07546" style="stroke: #000000; stroke-width: 0.8"/>
      </g>
     </g>
     <g id="text_19">
      <!-- 200 -->
      <g transform="translate(16.678365 235.874679) scale(0.1 -0.1)">
       <use xlink:href="#DejaVuSans-32"/>
       <use xlink:href="#DejaVuSans-30" x="63.623047"/>
       <use xlink:href="#DejaVuSans-30" x="127.246094"/>
      </g>
     </g>
    </g>
    <g id="text_20">
     <!-- y [mm] -->
     <g transform="translate(10.598678 154.925505) rotate(-90) scale(0.1 -0.1)">
      <defs>
       <path id="DejaVuSans-79" d="M 2059 -325 
Q 1816 -950 1584 -1140 
Q 1353 -1331 966 -1331 
L 506 -1331 
L 506 -850 
L 844 -850 
Q 1081 -850 1212 -737 
Q 1344 -625 1503 -206 
L 1606 56 
L 191 3500 
L 800 3500 
L 1894 763 
L 2988 3500 
L 3597 3500 
L 2059 -325 
z
" transform="scale(0.015625)"/>
      </defs>
      <use xlink:href="#DejaVuSans-79"/>
      <use xlink:href="#DejaVuSans-20" x="59.179688"/>
      <use xlink:href="#DejaVuSans-5b" x="90.966797"/>
      <use xlink:href="#DejaVuSans-6d" x="129.980469"/>
      <use xlink:href="#DejaVuSans-6d" x="227.392578"/>
      <use xlink:href="#DejaVuSans-5d" x="324.804688"/>
     </g>
    </g>
   </g>
   <g id="PathCollection_20">
    <path d="M 328.787604 41.3943 
L 328.787604 43.777815 
L 328.787604 46.161329 
L 328.787604 48.544844 
L 328.787604 50.928358 
L 328.787604 53.311873 
L 328.787604 55.695387 
L 328.787604 58.078902 
L 328.787604 60.462416 
L 324.020575 60.462416 
L 319.253546 60.462416 
L 312.103003 60.462416 
L 304.952459 60.462416 
L 293.034887 60.462416 
L 281.117314 60.462416 
L 269.199742 60.462416 
L 257.282169 60.462416 
L 250.131626 60.462416 
L 242.981082 60.462416 
L 238.214053 60.462416 
L 241.944677 65.229445 
L 242.185324 66.025204 
L 241.947667 69.996474 
L 240.80402 75.176407 
L 241.972016 79.530532 
L 241.692463 82.10777 
L 240.314808 89.06459 
L 239.200049 91.52958 
L 237.52964 100.982163 
L 235.414911 105.90188 
L 233.588542 112.899735 
L 233.447024 113.271709 
L 231.890554 117.715573 
L 231.293918 120.050279 
L 228.711066 127.154217 
L 228.693535 127.200822 
L 228.68953 127.210357 
L 227.084386 131.967851 
L 226.155746 134.210631 
L 225.308136 136.73488 
L 223.912967 140.556055 
L 223.64199 141.321258 
L 223.500217 141.777075 
L 221.904207 146.268938 
L 220.488724 149.995239 
L 217.04258 160.289868 
L 216.939148 160.570025 
L 216.869747 160.748898 
L 213.112763 172.487597 
L 211.85578 176.227432 
L 209.634608 184.40517 
L 209.61188 184.489647 
L 207.049226 193.760088 
L 206.429105 196.322742 
L 205.952566 199.982056 
L 204.041965 208.240315 
L 202.887783 213.433791 
L 201.759914 220.157887 
L 201.211195 228.558572 
L 200.574267 232.07546 
" clip-path="url(#pbff17a8425)" style="fill: none; stroke: #263238; stroke-width: 0.55"/>
    <path d="M 346.688832 232.07546 
L 347.241378 229.12684 
L 348.31563 220.157887 
L 349.300074 214.620095 
L 350.975984 208.240315 
L 352.622749 202.267538 
L 353.856693 197.556686 
L 354.390948 196.322742 
L 355.980639 192.964853 
L 359.065897 184.40517 
L 360.465327 180.330176 
L 365.490211 172.487597 
L 369.780757 165.81046 
L 375.889881 160.570025 
L 376.457894 160.059357 
L 380.879728 156.072582 
L 388.375467 151.948203 
L 393.462023 149.320872 
L 400.293039 147.286931 
L 403.922143 146.268938 
L 408.737886 144.879848 
L 412.210612 144.287683 
L 419.945906 143.17482 
L 424.128184 142.395885 
" clip-path="url(#pbff17a8425)" style="fill: none; stroke: #263238; stroke-width: 0.55"/>
    <path d="M 74.991537 232.07546 
L 75.808616 229.365493 
L 78.518582 220.067373 
L 81.466529 211.188262 
L 82.357588 208.240315 
L 83.693791 203.065106 
L 85.710524 196.322742 
L 86.398422 192.285009 
L 88.041613 184.40517 
L 89.920308 173.003444 
L 90.029121 172.487597 
L 90.060334 172.111777 
L 90.436155 168.867799 
L 91.531246 160.570025 
L 92.09002 154.411801 
L 92.215277 152.352008 
L 92.568102 146.268938 
L 92.691428 142.404018 
L 92.715849 140.590032 
L 92.757052 136.73488 
L 92.718239 132.880685 
L 92.675033 131.0723 
L 92.555122 127.200822 
L 92.209775 121.114451 
L 92.067398 119.071532 
L 91.525249 112.899735 
L 90.436155 104.372585 
L 90.093076 101.325241 
L 90.068087 100.982163 
L 89.978135 100.524143 
L 88.172718 89.06459 
L 86.868057 82.38501 
L 85.326932 75.443154 
L 84.070568 69.996474 
L 83.558728 67.980416 
L 81.907992 61.81818 
L 81.539975 60.462416 
L 81.376605 59.890812 
L 80.270105 56.045692 
L 80.167086 55.695387 
L 80.073052 55.384493 
L 78.745908 50.973823 
L 78.73179 50.928358 
L 78.718991 50.888277 
L 78.518582 50.248194 
L 77.412933 46.382459 
L 77.351506 46.161329 
L 77.281849 45.913983 
L 76.086654 41.880686 
L 75.949049 41.3943 
" clip-path="url(#pbff17a8425)" style="fill: none; stroke: #263238; stroke-width: 0.55"/>
   </g>
   <g id="patch_3">
    <path d="M 42.765865 232.07546 
L 42.765865 41.3943 
" style="fill: none; stroke: #000000; stroke-width: 0.8; stroke-linejoin: miter; stroke-linecap: square"/>
   </g>
   <g id="patch_4">
    <path d="M 424.128184 232.07546 
L 424.128184 41.3943 
" style="fill: none; stroke: #000000; stroke-width: 0.8; stroke-linejoin: miter; stroke-linecap: square"/>
   </g>
   <g id="patch_5">
    <path d="M 42.765865 232.07546 
L 424.128184 232.07546 
" style="fill: none; stroke: #000000; stroke-width: 0.8; stroke-linejoin: miter; stroke-linecap: square"/>
   </g>
   <g id="patch_6">
    <path d="M 42.765865 41.3943 
L 424.128184 41.3943 
" style="fill: none; stroke: #000000; stroke-width: 0.8; stroke-linejoin: miter; stroke-linecap: square"/>
   </g>
   <g id="text_21">
    <!-- CalculiX C3D20R — Mode 6: 115.49 Hz -->
    <g transform="translate(116.652337 35.3943) scale(0.12 -0.12)">
     <defs>
      <path id="DejaVuSans-43" d="M 4122 4306 
L 4122 3641 
Q 3803 3938 3442 4084 
Q 3081 4231 2675 4231 
Q 1875 4231 1450 3742 
Q 1025 3253 1025 2328 
Q 1025 1406 1450 917 
Q 1875 428 2675 428 
Q 3081 428 3442 575 
Q 3803 722 4122 1019 
L 4122 359 
Q 3791 134 3420 21 
Q 3050 -91 2638 -91 
Q 1578 -91 968 557 
Q 359 1206 359 2328 
Q 359 3453 968 4101 
Q 1578 4750 2638 4750 
Q 3056 4750 3426 4639 
Q 3797 4528 4122 4306 
z
" transform="scale(0.015625)"/>
      <path id="DejaVuSans-61" d="M 2194 1759 
Q 1497 1759 1228 1600 
Q 959 1441 959 1056 
Q 959 750 1161 570 
Q 1363 391 1709 391 
Q 2188 391 2477 730 
Q 2766 1069 2766 1631 
L 2766 1759 
L 2194 1759 
z
M 3341 1997 
L 3341 0 
L 2766 0 
L 2766 531 
Q 2569 213 2275 61 
Q 1981 -91 1556 -91 
Q 1019 -91 701 211 
Q 384 513 384 1019 
Q 384 1609 779 1909 
Q 1175 2209 1959 2209 
L 2766 2209 
L 2766 2266 
Q 2766 2663 2505 2880 
Q 2244 3097 1772 3097 
Q 1472 3097 1187 3025 
Q 903 2953 641 2809 
L 641 3341 
Q 956 3463 1253 3523 
Q 1550 3584 1831 3584 
Q 2591 3584 2966 3190 
Q 3341 2797 3341 1997 
z
" transform="scale(0.015625)"/>
      <path id="DejaVuSans-6c" d="M 603 4863 
L 1178 4863 
L 1178 0 
L 603 0 
L 603 4863 
z
" transform="scale(0.015625)"/>
      <path id="DejaVuSans-63" d="M 3122 3366 
L 3122 2828 
Q 2878 2963 2633 3030 
Q 2388 3097 2138 3097 
Q 1578 3097 1268 2742 
Q 959 2388 959 1747 
Q 959 1106 1268 751 
Q 1578 397 2138 397 
Q 2388 397 2633 464 
Q 2878 531 3122 666 
L 3122 134 
Q 2881 22 2623 -34 
Q 2366 -91 2075 -91 
Q 1284 -91 818 406 
Q 353 903 353 1747 
Q 353 2603 823 3093 
Q 1294 3584 2113 3584 
Q 2378 3584 2631 3529 
Q 2884 3475 3122 3366 
z
" transform="scale(0.015625)"/>
      <path id="DejaVuSans-75" d="M 544 1381 
L 544 3500 
L 1119 3500 
L 1119 1403 
Q 1119 906 1312 657 
Q 1506 409 1894 409 
Q 2359 409 2629 706 
Q 2900 1003 2900 1516 
L 2900 3500 
L 3475 3500 
L 3475 0 
L 2900 0 
L 2900 538 
Q 2691 219 2414 64 
Q 2138 -91 1772 -91 
Q 1169 -91 856 284 
Q 544 659 544 1381 
z
M 1991 3584 
L 1991 3584 
z
" transform="scale(0.015625)"/>
      <path id="DejaVuSans-69" d="M 603 3500 
L 1178 3500 
L 1178 0 
L 603 0 
L 603 3500 
z
M 603 4863 
L 1178 4863 
L 1178 4134 
L 603 4134 
L 603 4863 
z
" transform="scale(0.015625)"/>
      <path id="DejaVuSans-58" d="M 403 4666 
L 1081 4666 
L 2241 2931 
L 3406 4666 
L 4084 4666 
L 2584 2425 
L 4184 0 
L 3506 0 
L 2194 1984 
L 872 0 
L 191 0 
L 1856 2491 
L 403 4666 
z
" transform="scale(0.015625)"/>
      <path id="DejaVuSans-44" d="M 1259 4147 
L 1259 519 
L 2022 519 
Q 2988 519 3436 956 
Q 3884 1394 3884 2338 
Q 3884 3275 3436 3711 
Q 2988 4147 2022 4147 
L 1259 4147 
z
M 628 4666 
L 1925 4666 
Q 3281 4666 3915 4102 
Q 4550 3538 4550 2338 
Q 4550 1131 3912 565 
Q 3275 0 1925 0 
L 628 0 
L 628 4666 
z
" transform="scale(0.015625)"/>
      <path id="DejaVuSans-52" d="M 2841 2188 
Q 3044 2119 3236 1894 
Q 3428 1669 3622 1275 
L 4263 0 
L 3584 0 
L 2988 1197 
Q 2756 1666 2539 1819 
Q 2322 1972 1947 1972 
L 1259 1972 
L 1259 0 
L 628 0 
L 628 4666 
L 2053 4666 
Q 2853 4666 3247 4331 
Q 3641 3997 3641 3322 
Q 3641 2881 3436 2590 
Q 3231 2300 2841 2188 
z
M 1259 4147 
L 1259 2491 
L 2053 2491 
Q 2509 2491 2742 2702 
Q 2975 2913 2975 3322 
Q 2975 3731 2742 3939 
Q 2509 4147 2053 4147 
L 1259 4147 
z
" transform="scale(0.015625)"/>
      <path id="DejaVuSans-2014" d="M 313 1978 
L 6088 1978 
L 6088 1528 
L 313 1528 
L 313 1978 
z
" transform="scale(0.015625)"/>
      <path id="DejaVuSans-4d" d="M 628 4666 
L 1569 4666 
L 2759 1491 
L 3956 4666 
L 4897 4666 
L 4897 0 
L 4281 0 
L 4281 4097 
L 3078 897 
L 2444 897 
L 1241 4097 
L 1241 0 
L 628 0 
L 628 4666 
z
" transform="scale(0.015625)"/>
      <path id="DejaVuSans-6f" d="M 1959 3097 
Q 1497 3097 1228 2736 
Q 959 2375 959 1747 
Q 959 1119 1226 758 
Q 1494 397 1959 397 
Q 2419 397 2687 759 
Q 2956 1122 2956 1747 
Q 2956 2369 2687 2733 
Q 2419 3097 1959 3097 
z
M 1959 3584 
Q 2709 3584 3137 3096 
Q 3566 2609 3566 1747 
Q 3566 888 3137 398 
Q 2709 -91 1959 -91 
Q 1206 -91 779 398 
Q 353 888 353 1747 
Q 353 2609 779 3096 
Q 1206 3584 1959 3584 
z
" transform="scale(0.015625)"/>
      <path id="DejaVuSans-64" d="M 2906 2969 
L 2906 4863 
L 3481 4863 
L 3481 0 
L 2906 0 
L 2906 525 
Q 2725 213 2448 61 
Q 2172 -91 1784 -91 
Q 1150 -91 751 415 
Q 353 922 353 1747 
Q 353 2572 751 3078 
Q 1150 3584 1784 3584 
Q 2172 3584 2448 3432 
Q 2725 3281 2906 2969 
z
M 947 1747 
Q 947 1113 1208 752 
Q 1469 391 1925 391 
Q 2381 391 2643 752 
Q 2906 1113 2906 1747 
Q 2906 2381 2643 2742 
Q 2381 3103 1925 3103 
Q 1469 3103 1208 2742 
Q 947 2381 947 1747 
z
" transform="scale(0.015625)"/>
      <path id="DejaVuSans-65" d="M 3597 1894 
L 3597 1613 
L 953 1613 
Q 991 1019 1311 708 
Q 1631 397 2203 397 
Q 2534 397 2845 478 
Q 3156 559 3463 722 
L 3463 178 
Q 3153 47 2828 -22 
Q 2503 -91 2169 -91 
Q 1331 -91 842 396 
Q 353 884 353 1716 
Q 353 2575 817 3079 
Q 1281 3584 2069 3584 
Q 2775 3584 3186 3129 
Q 3597 2675 3597 1894 
z
M 3022 2063 
Q 3016 2534 2758 2815 
Q 2500 3097 2075 3097 
Q 1594 3097 1305 2825 
Q 1016 2553 972 2059 
L 3022 2063 
z
" transform="scale(0.015625)"/>
      <path id="DejaVuSans-36" d="M 2113 2584 
Q 1688 2584 1439 2293 
Q 1191 2003 1191 1497 
Q 1191 994 1439 701 
Q 1688 409 2113 409 
Q 2538 409 2786 701 
Q 3034 994 3034 1497 
Q 3034 2003 2786 2293 
Q 2538 2584 2113 2584 
z
M 3366 4563 
L 3366 3988 
Q 3128 4100 2886 4159 
Q 2644 4219 2406 4219 
Q 1781 4219 1451 3797 
Q 1122 3375 1075 2522 
Q 1259 2794 1537 2939 
Q 1816 3084 2150 3084 
Q 2853 3084 3261 2657 
Q 3669 2231 3669 1497 
Q 3669 778 3244 343 
Q 2819 -91 2113 -91 
Q 1303 -91 875 529 
Q 447 1150 447 2328 
Q 447 3434 972 4092 
Q 1497 4750 2381 4750 
Q 2619 4750 2861 4703 
Q 3103 4656 3366 4563 
z
" transform="scale(0.015625)"/>
      <path id="DejaVuSans-3a" d="M 750 794 
L 1409 794 
L 1409 0 
L 750 0 
L 750 794 
z
M 750 3309 
L 1409 3309 
L 1409 2516 
L 750 2516 
L 750 3309 
z
" transform="scale(0.015625)"/>
      <path id="DejaVuSans-2e" d="M 684 794 
L 1344 794 
L 1344 0 
L 684 0 
L 684 794 
z
" transform="scale(0.015625)"/>
      <path id="DejaVuSans-39" d="M 703 97 
L 703 672 
Q 941 559 1184 500 
Q 1428 441 1663 441 
Q 2288 441 2617 861 
Q 2947 1281 2994 2138 
Q 2813 1869 2534 1725 
Q 2256 1581 1919 1581 
Q 1219 1581 811 2004 
Q 403 2428 403 3163 
Q 403 3881 828 4315 
Q 1253 4750 1959 4750 
Q 2769 4750 3195 4129 
Q 3622 3509 3622 2328 
Q 3622 1225 3098 567 
Q 2575 -91 1691 -91 
Q 1453 -91 1209 -44 
Q 966 3 703 97 
z
M 1959 2075 
Q 2384 2075 2632 2365 
Q 2881 2656 2881 3163 
Q 2881 3666 2632 3958 
Q 2384 4250 1959 4250 
Q 1534 4250 1286 3958 
Q 1038 3666 1038 3163 
Q 1038 2656 1286 2365 
Q 1534 2075 1959 2075 
z
" transform="scale(0.015625)"/>
      <path id="DejaVuSans-48" d="M 628 4666 
L 1259 4666 
L 1259 2753 
L 3553 2753 
L 3553 4666 
L 4184 4666 
L 4184 0 
L 3553 0 
L 3553 2222 
L 1259 2222 
L 1259 0 
L 628 0 
L 628 4666 
z
" transform="scale(0.015625)"/>
      <path id="DejaVuSans-7a" d="M 353 3500 
L 3084 3500 
L 3084 2975 
L 922 459 
L 3084 459 
L 3084 0 
L 275 0 
L 275 525 
L 2438 3041 
L 353 3041 
L 353 3500 
z
" transform="scale(0.015625)"/>
     </defs>
     <use xlink:href="#DejaVuSans-43"/>
     <use xlink:href="#DejaVuSans-61" x="69.824219"/>
     <use xlink:href="#DejaVuSans-6c" x="131.103516"/>
     <use xlink:href="#DejaVuSans-63" x="158.886719"/>
     <use xlink:href="#DejaVuSans-75" x="213.867188"/>
     <use xlink:href="#DejaVuSans-6c" x="277.246094"/>
     <use xlink:href="#DejaVuSans-69" x="305.029297"/>
     <use xlink:href="#DejaVuSans-58" x="332.8125"/>
     <use xlink:href="#DejaVuSans-20" x="401.318359"/>
     <use xlink:href="#DejaVuSans-43" x="433.105469"/>
     <use xlink:href="#DejaVuSans-33" x="502.929688"/>
     <use xlink:href="#DejaVuSans-44" x="566.552734"/>
     <use xlink:href="#DejaVuSans-32" x="643.554688"/>
     <use xlink:href="#DejaVuSans-30" x="707.177734"/>
     <use xlink:href="#DejaVuSans-52" x="770.800781"/>
     <use xlink:href="#DejaVuSans-20" x="840.283203"/>
     <use xlink:href="#DejaVuSans-2014" x="872.070312"/>
     <use xlink:href="#DejaVuSans-20" x="972.070312"/>
     <use xlink:href="#DejaVuSans-4d" x="1003.857422"/>
     <use xlink:href="#DejaVuSans-6f" x="1090.136719"/>
     <use xlink:href="#DejaVuSans-64" x="1151.318359"/>
     <use xlink:href="#DejaVuSans-65" x="1214.794922"/>
     <use xlink:href="#DejaVuSans-20" x="1276.318359"/>
     <use xlink:href="#DejaVuSans-36" x="1308.105469"/>
     <use xlink:href="#DejaVuSans-3a" x="1371.728516"/>
     <use xlink:href="#DejaVuSans-20" x="1405.419922"/>
     <use xlink:href="#DejaVuSans-31" x="1437.207031"/>
     <use xlink:href="#DejaVuSans-31" x="1500.830078"/>
     <use xlink:href="#DejaVuSans-35" x="1564.453125"/>
     <use xlink:href="#DejaVuSans-2e" x="1628.076172"/>
     <use xlink:href="#DejaVuSans-34" x="1659.863281"/>
     <use xlink:href="#DejaVuSans-39" x="1723.486328"/>
     <use xlink:href="#DejaVuSans-20" x="1787.109375"/>
     <use xlink:href="#DejaVuSans-48" x="1818.896484"/>
     <use xlink:href="#DejaVuSans-7a" x="1894.091797"/>
    </g>
   </g>
  </g>
  <g id="axes_2">
   <g id="patch_7">
    <path d="M 452.74005 231.564898 
L 463.171352 231.564898 
L 463.171352 41.904863 
L 452.74005 41.904863 
z
" style="fill: #ffffff"/>
   </g>
   <g id="patch_8">
    <path clip-path="url(#pac7363fa99)" style="fill: #ffffff; stroke: #ffffff; stroke-width: 0.01; stroke-linejoin: miter"/>
   </g>
   <g id="patch_9">
    <path d="M 452.74005 231.564898 
L 457.955701 241.047899 
L 463.171352 231.564898 
" style="fill: #053061"/>
   </g>
   <g id="patch_10">
    <path d="M 452.74005 41.904863 
L 457.955701 32.421861 
L 463.171352 41.904863 
" style="fill: #67001f"/>
   </g>
   <g id="QuadMesh_1">
    <path d="M 452.74005 231.564898 
L 463.171352 231.564898 
L 463.171352 219.711145 
L 452.74005 219.711145 
L 452.74005 231.564898 
" clip-path="url(#pac7363fa99)" style="fill: #0e4179"/>
    <path d="M 452.74005 219.711145 
L 463.171352 219.711145 
L 463.171352 207.857393 
L 452.74005 207.857393 
L 452.74005 219.711145 
" clip-path="url(#pac7363fa99)" style="fill: #1f63a8"/>
    <path d="M 452.74005 207.857393 
L 463.171352 207.857393 
L 463.171352 196.003641 
L 452.74005 196.003641 
L 452.74005 207.857393 
" clip-path="url(#pac7363fa99)" style="fill: #3480b9"/>
    <path d="M 452.74005 196.003641 
L 463.171352 196.003641 
L 463.171352 184.149889 
L 452.74005 184.149889 
L 452.74005 196.003641 
" clip-path="url(#pac7363fa99)" style="fill: #529dc8"/>
    <path d="M 452.74005 184.149889 
L 463.171352 184.149889 
L 463.171352 172.296137 
L 452.74005 172.296137 
L 452.74005 184.149889 
" clip-path="url(#pac7363fa99)" style="fill: #84bcd9"/>
    <path d="M 452.74005 172.296137 
L 463.171352 172.296137 
L 463.171352 160.442384 
L 452.74005 160.442384 
L 452.74005 172.296137 
" clip-path="url(#pac7363fa99)" style="fill: #aed3e6"/>
    <path d="M 452.74005 160.442384 
L 463.171352 160.442384 
L 463.171352 148.588632 
L 452.74005 148.588632 
L 452.74005 160.442384 
" clip-path="url(#pac7363fa99)" style="fill: #d4e6f1"/>
    <path d="M 452.74005 148.588632 
L 463.171352 148.588632 
L 463.171352 136.73488 
L 452.74005 136.73488 
L 452.74005 148.588632 
" clip-path="url(#pac7363fa99)" style="fill: #ecf2f5"/>
    <path d="M 452.74005 136.73488 
L 463.171352 136.73488 
L 463.171352 124.881128 
L 452.74005 124.881128 
L 452.74005 136.73488 
" clip-path="url(#pac7363fa99)" style="fill: #f9eee7"/>
    <path d="M 452.74005 124.881128 
L 463.171352 124.881128 
L 463.171352 113.027376 
L 452.74005 113.027376 
L 452.74005 124.881128 
" clip-path="url(#pac7363fa99)" style="fill: #fddcc9"/>
    <path d="M 452.74005 113.027376 
L 463.171352 113.027376 
L 463.171352 101.173624 
L 452.74005 101.173624 
L 452.74005 113.027376 
" clip-path="url(#pac7363fa99)" style="fill: #f8bb9e"/>
    <path d="M 452.74005 101.173624 
L 463.171352 101.173624 
L 463.171352 89.319871 
L 452.74005 89.319871 
L 452.74005 101.173624 
" clip-path="url(#pac7363fa99)" style="fill: #ee9677"/>
    <path d="M 452.74005 89.319871 
L 463.171352 89.319871 
L 463.171352 77.466119 
L 452.74005 77.466119 
L 452.74005 89.319871 
" clip-path="url(#pac7363fa99)" style="fill: #db6b55"/>
    <path d="M 452.74005 77.466119 
L 463.171352 77.466119 
L 463.171352 65.612367 
L 452.74005 65.612367 
L 452.74005 77.466119 
" clip-path="url(#pac7363fa99)" style="fill: #c53e3d"/>
    <path d="M 452.74005 65.612367 
L 463.171352 65.612367 
L 463.171352 53.758615 
L 452.74005 53.758615 
L 452.74005 65.612367 
" clip-path="url(#pac7363fa99)" style="fill: #ab162a"/>
    <path d="M 452.74005 53.758615 
L 463.171352 53.758615 
L 463.171352 41.904863 
L 452.74005 41.904863 
L 452.74005 53.758615 
" clip-path="url(#pac7363fa99)" style="fill: #7c0722"/>
   </g>
   <g id="matplotlib.axis_3"/>
   <g id="matplotlib.axis_4">
    <g id="ytick_10">
     <g id="line2d_19">
      <defs>
       <path id="m23d148a4e6" d="M 0 0 
L 3.5 0 
" style="stroke: #000000; stroke-width: 0.8"/>
      </defs>
      <g>
       <use xlink:href="#m23d148a4e6" x="463.171352" y="231.564898" style="stroke: #000000; stroke-width: 0.8"/>
      </g>
     </g>
     <g id="text_22">
      <!-- −1.00 -->
      <g transform="translate(470.171352 235.364116) scale(0.1 -0.1)">
       <defs>
        <path id="DejaVuSans-2212" d="M 678 2272 
L 4684 2272 
L 4684 1741 
L 678 1741 
L 678 2272 
z
" transform="scale(0.015625)"/>
       </defs>
       <use xlink:href="#DejaVuSans-2212"/>
       <use xlink:href="#DejaVuSans-31" x="83.789062"/>
       <use xlink:href="#DejaVuSans-2e" x="147.412109"/>
       <use xlink:href="#DejaVuSans-30" x="179.199219"/>
       <use xlink:href="#DejaVuSans-30" x="242.822266"/>
      </g>
     </g>
    </g>
    <g id="ytick_11">
     <g id="line2d_20">
      <g>
       <use xlink:href="#m23d148a4e6" x="463.171352" y="207.857393" style="stroke: #000000; stroke-width: 0.8"/>
      </g>
     </g>
     <g id="text_23">
      <!-- −0.75 -->
      <g transform="translate(470.171352 211.656612) scale(0.1 -0.1)">
       <use xlink:href="#DejaVuSans-2212"/>
       <use xlink:href="#DejaVuSans-30" x="83.789062"/>
       <use xlink:href="#DejaVuSans-2e" x="147.412109"/>
       <use xlink:href="#DejaVuSans-37" x="179.199219"/>
       <use xlink:href="#DejaVuSans-35" x="242.822266"/>
      </g>
     </g>
    </g>
    <g id="ytick_12">
     <g id="line2d_21">
      <g>
       <use xlink:href="#m23d148a4e6" x="463.171352" y="184.149889" style="stroke: #000000; stroke-width: 0.8"/>
      </g>
     </g>
     <g id="text_24">
      <!-- −0.50 -->
      <g transform="translate(470.171352 187.949108) scale(0.1 -0.1)">
       <use xlink:href="#DejaVuSans-2212"/>
       <use xlink:href="#DejaVuSans-30" x="83.789062"/>
       <use xlink:href="#DejaVuSans-2e" x="147.412109"/>
       <use xlink:href="#DejaVuSans-35" x="179.199219"/>
       <use xlink:href="#DejaVuSans-30" x="242.822266"/>
      </g>
     </g>
    </g>
    <g id="ytick_13">
     <g id="line2d_22">
      <g>
       <use xlink:href="#m23d148a4e6" x="463.171352" y="160.442384" style="stroke: #000000; stroke-width: 0.8"/>
      </g>
     </g>
     <g id="text_25">
      <!-- −0.25 -->
      <g transform="translate(470.171352 164.241603) scale(0.1 -0.1)">
       <use xlink:href="#DejaVuSans-2212"/>
       <use xlink:href="#DejaVuSans-30" x="83.789062"/>
       <use xlink:href="#DejaVuSans-2e" x="147.412109"/>
       <use xlink:href="#DejaVuSans-32" x="179.199219"/>
       <use xlink:href="#DejaVuSans-35" x="242.822266"/>
      </g>
     </g>
    </g>
    <g id="ytick_14">
     <g id="line2d_23">
      <g>
       <use xlink:href="#m23d148a4e6" x="463.171352" y="136.73488" style="stroke: #000000; stroke-width: 0.8"/>
      </g>
     </g>
     <g id="text_26">
      <!-- 0.00 -->
      <g transform="translate(470.171352 140.534099) scale(0.1 -0.1)">
       <use xlink:href="#DejaVuSans-30"/>
       <use xlink:href="#DejaVuSans-2e" x="63.623047"/>
       <use xlink:href="#DejaVuSans-30" x="95.410156"/>
       <use xlink:href="#DejaVuSans-30" x="159.033203"/>
      </g>
     </g>
    </g>
    <g id="ytick_15">
     <g id="line2d_24">
      <g>
       <use xlink:href="#m23d148a4e6" x="463.171352" y="113.027376" style="stroke: #000000; stroke-width: 0.8"/>
      </g>
     </g>
     <g id="text_27">
      <!-- 0.25 -->
      <g transform="translate(470.171352 116.826594) scale(0.1 -0.1)">
       <use xlink:href="#DejaVuSans-30"/>
       <use xlink:href="#DejaVuSans-2e" x="63.623047"/>
       <use xlink:href="#DejaVuSans-32" x="95.410156"/>
       <use xlink:href="#DejaVuSans-35" x="159.033203"/>
      </g>
     </g>
    </g>
    <g id="ytick_16">
     <g id="line2d_25">
      <g>
       <use xlink:href="#m23d148a4e6" x="463.171352" y="89.319871" style="stroke: #000000; stroke-width: 0.8"/>
      </g>
     </g>
     <g id="text_28">
      <!-- 0.50 -->
      <g transform="translate(470.171352 93.11909) scale(0.1 -0.1)">
       <use xlink:href="#DejaVuSans-30"/>
       <use xlink:href="#DejaVuSans-2e" x="63.623047"/>
       <use xlink:href="#DejaVuSans-35" x="95.410156"/>
       <use xlink:href="#DejaVuSans-30" x="159.033203"/>
      </g>
     </g>
    </g>
    <g id="ytick_17">
     <g id="line2d_26">
      <g>
       <use xlink:href="#m23d148a4e6" x="463.171352" y="65.612367" style="stroke: #000000; stroke-width: 0.8"/>
      </g>
     </g>
     <g id="text_29">
      <!-- 0.75 -->
      <g transform="translate(470.171352 69.411586) scale(0.1 -0.1)">
       <use xlink:href="#DejaVuSans-30"/>
       <use xlink:href="#DejaVuSans-2e" x="63.623047"/>
       <use xlink:href="#DejaVuSans-37" x="95.410156"/>
       <use xlink:href="#DejaVuSans-35" x="159.033203"/>
      </g>
     </g>
    </g>
    <g id="ytick_18">
     <g id="line2d_27">
      <g>
       <use xlink:href="#m23d148a4e6" x="463.171352" y="41.904863" style="stroke: #000000; stroke-width: 0.8"/>
      </g>
     </g>
     <g id="text_30">
      <!-- 1.00 -->
      <g transform="translate(470.171352 45.704081) scale(0.1 -0.1)">
       <use xlink:href="#DejaVuSans-31"/>
       <use xlink:href="#DejaVuSans-2e" x="63.623047"/>
       <use xlink:href="#DejaVuSans-30" x="95.410156"/>
       <use xlink:href="#DejaVuSans-30" x="159.033203"/>
      </g>
     </g>
    </g>
    <g id="text_31">
     <!-- normalized z displacement -->
     <g transform="translate(512.415102 204.017693) rotate(-90) scale(0.1 -0.1)">
      <defs>
       <path id="DejaVuSans-6e" d="M 3513 2113 
L 3513 0 
L 2938 0 
L 2938 2094 
Q 2938 2591 2744 2837 
Q 2550 3084 2163 3084 
Q 1697 3084 1428 2787 
Q 1159 2491 1159 1978 
L 1159 0 
L 581 0 
L 581 3500 
L 1159 3500 
L 1159 2956 
Q 1366 3272 1645 3428 
Q 1925 3584 2291 3584 
Q 2894 3584 3203 3211 
Q 3513 2838 3513 2113 
z
" transform="scale(0.015625)"/>
       <path id="DejaVuSans-72" d="M 2631 2963 
Q 2534 3019 2420 3045 
Q 2306 3072 2169 3072 
Q 1681 3072 1420 2755 
Q 1159 2438 1159 1844 
L 1159 0 
L 581 0 
L 581 3500 
L 1159 3500 
L 1159 2956 
Q 1341 3275 1631 3429 
Q 1922 3584 2338 3584 
Q 2397 3584 2469 3576 
Q 2541 3569 2628 3553 
L 2631 2963 
z
" transform="scale(0.015625)"/>
       <path id="DejaVuSans-73" d="M 2834 3397 
L 2834 2853 
Q 2591 2978 2328 3040 
Q 2066 3103 1784 3103 
Q 1356 3103 1142 2972 
Q 928 2841 928 2578 
Q 928 2378 1081 2264 
Q 1234 2150 1697 2047 
L 1894 2003 
Q 2506 1872 2764 1633 
Q 3022 1394 3022 966 
Q 3022 478 2636 193 
Q 2250 -91 1575 -91 
Q 1294 -91 989 -36 
Q 684 19 347 128 
L 347 722 
Q 666 556 975 473 
Q 1284 391 1588 391 
Q 1994 391 2212 530 
Q 2431 669 2431 922 
Q 2431 1156 2273 1281 
Q 2116 1406 1581 1522 
L 1381 1569 
Q 847 1681 609 1914 
Q 372 2147 372 2553 
Q 372 3047 722 3315 
Q 1072 3584 1716 3584 
Q 2034 3584 2315 3537 
Q 2597 3491 2834 3397 
z
" transform="scale(0.015625)"/>
       <path id="DejaVuSans-70" d="M 1159 525 
L 1159 -1331 
L 581 -1331 
L 581 3500 
L 1159 3500 
L 1159 2969 
Q 1341 3281 1617 3432 
Q 1894 3584 2278 3584 
Q 2916 3584 3314 3078 
Q 3713 2572 3713 1747 
Q 3713 922 3314 415 
Q 2916 -91 2278 -91 
Q 1894 -91 1617 61 
Q 1341 213 1159 525 
z
M 3116 1747 
Q 3116 2381 2855 2742 
Q 2594 3103 2138 3103 
Q 1681 3103 1420 2742 
Q 1159 2381 1159 1747 
Q 1159 1113 1420 752 
Q 1681 391 2138 391 
Q 2594 391 2855 752 
Q 3116 1113 3116 1747 
z
" transform="scale(0.015625)"/>
       <path id="DejaVuSans-74" d="M 1172 4494 
L 1172 3500 
L 2356 3500 
L 2356 3053 
L 1172 3053 
L 1172 1153 
Q 1172 725 1289 603 
Q 1406 481 1766 481 
L 2356 481 
L 2356 0 
L 1766 0 
Q 1100 0 847 248 
Q 594 497 594 1153 
L 594 3053 
L 172 3053 
L 172 3500 
L 594 3500 
L 594 4494 
L 1172 4494 
z
" transform="scale(0.015625)"/>
      </defs>
      <use xlink:href="#DejaVuSans-6e"/>
      <use xlink:href="#DejaVuSans-6f" x="63.378906"/>
      <use xlink:href="#DejaVuSans-72" x="124.560547"/>
      <use xlink:href="#DejaVuSans-6d" x="163.923828"/>
      <use xlink:href="#DejaVuSans-61" x="261.335938"/>
      <use xlink:href="#DejaVuSans-6c" x="322.615234"/>
      <use xlink:href="#DejaVuSans-69" x="350.398438"/>
      <use xlink:href="#DejaVuSans-7a" x="378.181641"/>
      <use xlink:href="#DejaVuSans-65" x="430.671875"/>
      <use xlink:href="#DejaVuSans-64" x="492.195312"/>
      <use xlink:href="#DejaVuSans-20" x="555.671875"/>
      <use xlink:href="#DejaVuSans-7a" x="587.458984"/>
      <use xlink:href="#DejaVuSans-20" x="639.949219"/>
      <use xlink:href="#DejaVuSans-64" x="671.736328"/>
      <use xlink:href="#DejaVuSans-69" x="735.212891"/>
      <use xlink:href="#DejaVuSans-73" x="762.996094"/>
      <use xlink:href="#DejaVuSans-70" x="815.095703"/>
      <use xlink:href="#DejaVuSans-6c" x="878.572266"/>
      <use xlink:href="#DejaVuSans-61" x="906.355469"/>
      <use xlink:href="#DejaVuSans-63" x="967.634766"/>
      <use xlink:href="#DejaVuSans-65" x="1022.615234"/>
      <use xlink:href="#DejaVuSans-6d" x="1084.138672"/>
      <use xlink:href="#DejaVuSans-65" x="1181.550781"/>
      <use xlink:href="#DejaVuSans-6e" x="1243.074219"/>
      <use xlink:href="#DejaVuSans-74" x="1306.453125"/>
     </g>
    </g>
   </g>
   <g id="LineCollection_1"/>
   <g id="patch_11">
    <path d="M 452.74005 231.564898 
L 457.955701 241.047899 
L 463.171352 231.564898 
L 463.171352 41.904863 
L 457.955701 32.421861 
L 452.74005 41.904863 
L 452.74005 231.564898 
z
" style="fill: none; stroke: #000000; stroke-width: 0.8; stroke-linejoin: miter; stroke-linecap: square"/>
   </g>
  </g>
 </g>
 <defs>
  <clipPath id="pbff17a8425">
   <rect x="42.765865" y="41.3943" width="381.362319" height="190.681159"/>
  </clipPath>
  <clipPath id="pac7363fa99">
   <rect x="452.74005" y="41.904863" width="10.431302" height="189.660035"/>
  </clipPath>
 </defs>
 <defs>
  <pattern id="h765283ff66" patternUnits="userSpaceOnUse" x="0" y="0" width="72" height="72">
   <rect x="0" y="0" width="73" height="73" fill="#333333"/>
   <path d="M -36 36 
L 36 -36 
M -33 39 
L 39 -33 
M -30 42 
L 42 -30 
M -27 45 
L 45 -27 
M -24 48 
L 48 -24 
M -21 51 
L 51 -21 
M -18 54 
L 54 -18 
M -15 57 
L 57 -15 
M -12 60 
L 60 -12 
M -9 63 
L 63 -9 
M -6 66 
L 66 -6 
M -3 69 
L 69 -3 
M 0 72 
L 72 0 
M 3 75 
L 75 3 
M 6 78 
L 78 6 
M 9 81 
L 81 9 
M 12 84 
L 84 12 
M 15 87 
L 87 15 
M 18 90 
L 90 18 
M 21 93 
L 93 21 
M 24 96 
L 96 24 
M 27 99 
L 99 27 
M 30 102 
L 102 30 
M 33 105 
L 105 33 
M 36 108 
L 108 36 
" style="fill: #333333; stroke: #333333; stroke-width: 1.0; stroke-linecap: butt; stroke-linejoin: miter; stroke-opacity: 0.3"/>
  </pattern>
 </defs>
</svg>
