<?xml version="1.0" encoding="utf-8" standalone="no"?>
<!DOCTYPE svg PUBLIC "-//W3C//DTD SVG 1.1//EN"
  "http://www.w3.org/Graphics/SVG/1.1/DTD/svg11.dtd">
<svg xmlns:xlink="http://www.w3.org/1999/xlink" width="518.4pt" height="273.6pt" viewBox="0 0 518.4 273.6" xmlns="http://www.w3.org/2000/svg" version="1.1">
 <metadata>
  <rdf:RDF xmlns:dc="http://purl.org/dc/elements/1.1/" xmlns:cc="http://creativecommons.org/ns#" xmlns:rdf="http://www.w3.org/1999/02/22-rdf-syntax-ns#">
   <cc:Work>
    <dc:type rdf:resource="http://purl.org/dc/dcmitype/StillImage"/>
    <dc:format>image/svg+xml</dc:format>
    <dc:creator>
     <cc:Agent>
      <dc:title>Matplotlib v3.6.3, https://matplotlib.org/</dc:title>
     </cc:Agent>
    </dc:creator>
   </cc:Work>
  </rdf:RDF>
 </metadata>
 <defs>
  <style type="text/css">*{stroke-linejoin: round; stroke-linecap: butt}</style>
 </defs>
 <g id="figure_1">
  <g id="patch_1">
   <path d="M 0 273.6 
L 518.4 273.6 
L 518.4 0 
L 0 0 
z
" style="fill: #ffffff"/>
  </g>
  <g id="axes_1">
   <g id="patch_2">
    <path d="M 42.765865 232.07546 
L 424.128184 232.07546 
L 424.128184 41.3943 
L 42.765865 41.3943 
z
" style="fill: #ffffff"/>
   </g>
   <g id="PathCollection_1">
    <path clip-path="url(#p8e00cb199f)" style="fill: #053061"/>
   </g>
   <g id="PathCollection_2">
    <path clip-path="url(#p8e00cb199f)" style="fill: #0e4179"/>
   </g>
   <g id="PathCollection_3">
    <path d="M 42.765865 84.139427 
L 44.26138 89.06459 
L 45.604729 98.143299 
L 46.395544 104.611842 
L 45.920449 112.899735 
L 44.286496 119.1379 
L 43.932157 120.750054 
L 42.765865 123.124535 
L 42.765865 120.050279 
L 42.765865 112.899735 
L 42.765865 100.982163 
L 42.765865 89.06459 
" clip-path="url(#p8e00cb199f)" style="fill: #1f63a8"/>
   </g>
   <g id="PathCollection_4">
    <path d="M 42.765865 123.124535 
L 43.932157 120.750054 
L 44.286496 119.1379 
L 45.920449 112.899735 
L 46.395544 104.611842 
L 45.604729 98.143299 
L 44.26138 89.06459 
L 42.765865 84.139427 
L 42.765865 79.530532 
L 42.765865 69.996474 
L 42.765865 66.078293 
L 44.521838 69.996474 
L 46.922858 76.204938 
L 50.462098 85.687519 
L 51.487538 89.06459 
L 51.899473 91.848555 
L 54.443801 112.660099 
L 54.430064 112.899735 
L 54.38282 113.080106 
L 51.675822 125.396253 
L 50.789459 127.200822 
L 49.436697 129.299518 
L 47.013715 133.666991 
L 44.294865 136.73488 
L 42.765865 138.233214 
L 42.765865 136.73488 
L 42.765865 131.967851 
L 42.765865 127.200822 
M 424.023616 232.07546 
L 424.128184 231.616556 
L 424.128184 232.07546 
" clip-path="url(#p8e00cb199f)" style="fill: #3480b9"/>
   </g>
   <g id="PathCollection_5">
    <path d="M 42.765865 138.233214 
L 44.294865 136.73488 
L 47.013715 133.666991 
L 49.436697 129.299518 
L 50.789459 127.200822 
L 51.675822 125.396253 
L 54.38282 113.080106 
L 54.430064 112.899735 
L 54.443801 112.660099 
L 51.899473 91.848555 
L 51.487538 89.06459 
L 50.462098 85.687519 
L 46.922858 76.204938 
L 44.521838 69.996474 
L 42.765865 66.078293 
L 42.765865 65.229445 
L 42.765865 60.462416 
L 42.765865 58.078902 
L 42.765865 55.695387 
L 42.765865 53.311873 
L 42.765865 52.537618 
L 43.124695 53.240107 
L 43.209385 53.400577 
L 44.373291 55.695387 
L 45.306179 57.570839 
L 45.890069 58.703743 
L 46.753378 60.462416 
L 48.007781 63.132679 
L 50.527247 68.333998 
L 51.272303 69.996474 
L 52.078298 72.080586 
L 54.683437 79.060458 
L 57.835245 86.543144 
L 58.928544 89.06459 
L 60.759302 95.140454 
L 62.358853 105.22432 
L 63.57393 112.899735 
L 63.450972 118.160256 
L 62.274462 122.646207 
L 61.385632 127.200822 
L 60.591072 129.563876 
L 56.45149 136.027659 
L 56.079924 136.73488 
L 55.790662 137.17777 
L 54.683437 138.201411 
L 49.259013 144.099168 
L 46.232053 146.268938 
L 42.765865 148.468941 
L 42.765865 146.268938 
L 42.765865 141.501909 
M 424.128184 231.616556 
L 424.023616 232.07546 
L 414.161544 232.07546 
L 414.737282 229.548789 
L 416.62142 220.157887 
L 418.011655 214.041358 
L 419.642618 208.240315 
L 423.575109 196.875817 
L 423.841785 196.036343 
L 424.128184 195.43195 
L 424.128184 196.322742 
L 424.128184 208.240315 
L 424.128184 220.157887 
" clip-path="url(#p8e00cb199f)" style="fill: #529dc8"/>
   </g>
   <g id="PathCollection_6">
    <path d="M 42.765865 148.468941 
L 46.232053 146.268938 
L 49.259013 144.099168 
L 54.683437 138.201411 
L 55.790662 137.17777 
L 56.079924 136.73488 
L 56.45149 136.027659 
L 60.591072 129.563876 
L 61.385632 127.200822 
L 62.274462 122.646207 
L 63.450972 118.160256 
L 63.57393 112.899735 
L 62.358853 105.22432 
L 60.759302 95.140454 
L 58.928544 89.06459 
L 57.835245 86.543144 
L 54.683437 79.060458 
L 52.078298 72.080586 
L 51.272303 69.996474 
L 50.527247 68.333998 
L 48.007781 63.132679 
L 46.753378 60.462416 
L 45.890069 58.703743 
L 45.306179 57.570839 
L 44.373291 55.695387 
L 43.209385 53.400577 
L 43.124695 53.240107 
L 42.765865 52.537618 
L 42.765865 50.928358 
L 42.765865 48.544844 
L 42.765865 46.161329 
L 42.765865 43.777815 
L 42.765865 41.3943 
L 43.444044 41.3943 
L 44.501232 43.430741 
L 44.91777 44.208196 
L 45.937023 46.161329 
L 46.758186 47.74638 
L 47.71408 49.534487 
L 48.435463 50.928358 
L 49.014591 52.062128 
L 50.489388 54.856577 
L 50.914824 55.695387 
L 51.255818 56.380911 
L 53.20723 60.167175 
L 53.35216 60.462416 
L 53.562746 60.910693 
L 54.683437 63.224309 
L 57.531334 68.857316 
L 58.139901 69.996474 
L 60.320451 74.506085 
L 63.486361 82.022252 
L 66.539918 89.06459 
L 66.60101 89.267341 
L 69.43975 98.143423 
L 70.885863 100.982163 
L 72.126255 106.507407 
L 73.217389 112.899735 
L 73.135996 116.129287 
L 73.525538 124.204995 
L 72.885758 127.200822 
L 71.913613 129.84281 
L 70.98277 133.720555 
L 69.224593 136.73488 
L 66.60101 140.353206 
L 66.006167 141.263972 
L 65.098895 142.102755 
L 61.108284 146.268938 
L 58.501925 148.56003 
L 54.683437 150.421519 
L 46.497006 155.658166 
L 42.765865 157.030825 
L 42.765865 153.419482 
M 424.128184 195.43195 
L 423.841785 196.036343 
L 423.575109 196.875817 
L 419.642618 208.240315 
L 418.011655 214.041358 
L 416.62142 220.157887 
L 414.737282 229.548789 
L 414.161544 232.07546 
L 412.210612 232.07546 
L 404.392342 232.07546 
L 405.389106 225.253954 
L 406.411552 220.157887 
L 408.211307 212.239619 
L 408.935881 208.240315 
L 409.523704 205.553408 
L 412.210612 197.644985 
L 415.402529 187.597088 
L 416.915057 184.40517 
L 422.379506 174.236276 
L 423.531822 171.891235 
L 424.128184 171.097192 
L 424.128184 172.487597 
L 424.128184 184.40517 
M 176.375476 232.07546 
L 183.555355 222.379267 
L 185.324116 219.705269 
L 185.776735 219.245044 
L 187.022666 218.911956 
L 209.228117 219.774124 
L 209.61188 219.934913 
L 209.697768 220.014739 
L 209.801017 220.157887 
L 218.760349 228.745584 
L 221.052787 232.07546 
L 216.762423 232.07546 
L 209.61188 232.07546 
L 197.694307 232.07546 
L 185.776735 232.07546 
" clip-path="url(#p8e00cb199f)" style="fill: #84bcd9"/>
   </g>
   <g id="PathCollection_7">
    <path d="M 42.765865 157.030825 
L 46.497006 155.658166 
L 54.683437 150.421519 
L 58.501925 148.56003 
L 61.108284 146.268938 
L 65.098895 142.102755 
L 66.006167 141.263972 
L 66.60101 140.353206 
L 69.224593 136.73488 
L 70.98277 133.720555 
L 71.913613 129.84281 
L 72.885758 127.200822 
L 73.525538 124.204995 
L 73.135996 116.129287 
L 73.217389 112.899735 
L 72.126255 106.507407 
L 70.885863 100.982163 
L 69.43975 98.143423 
L 66.60101 89.267341 
L 66.539918 89.06459 
L 63.486361 82.022252 
L 60.320451 74.506085 
L 58.139901 69.996474 
L 57.531334 68.857316 
L 54.683437 63.224309 
L 53.562746 60.910693 
L 53.35216 60.462416 
L 53.20723 60.167175 
L 51.255818 56.380911 
L 50.914824 55.695387 
L 50.489388 54.856577 
L 49.014591 52.062128 
L 48.435463 50.928358 
L 47.71408 49.534487 
L 46.758186 47.74638 
L 45.937023 46.161329 
L 44.91777 44.208196 
L 44.501232 43.430741 
L 43.444044 41.3943 
L 49.852313 41.3943 
L 50.306733 42.269641 
L 52.116757 45.647993 
L 52.384645 46.161329 
L 52.600468 46.577923 
L 54.683437 50.474352 
L 54.905727 50.8839 
L 54.931383 50.928358 
L 54.963358 50.984342 
L 57.229442 55.186186 
L 57.520758 55.695387 
L 57.881446 56.334989 
L 59.55197 59.48871 
L 60.099711 60.462416 
L 61.6089 63.232601 
L 63.288364 66.554503 
L 65.127152 69.996474 
L 66.60101 73.044571 
L 68.945572 77.654882 
L 72.340144 84.121839 
L 74.614924 89.06459 
L 75.56086 92.022313 
L 80.125193 100.982163 
L 82.015574 109.402744 
L 83.607999 112.899735 
L 84.626969 116.564767 
L 85.026766 123.295912 
L 85.689086 127.200822 
L 85.75635 130.095929 
L 84.540733 134.32602 
L 84.265642 136.73488 
L 83.734682 138.82132 
L 78.518582 146.122636 
L 78.449908 146.241468 
L 78.420064 146.268938 
L 78.08226 146.530732 
L 68.340449 154.463145 
L 66.60101 155.133959 
L 55.020693 160.570025 
L 54.780274 160.666862 
L 54.683437 160.677109 
L 54.540949 160.712514 
L 42.765865 164.59655 
L 42.765865 160.570025 
M 424.128184 171.097192 
L 423.531822 171.891235 
L 422.379506 174.236276 
L 416.915057 184.40517 
L 415.402529 187.597088 
L 412.210612 197.644985 
L 409.523704 205.553408 
L 408.935881 208.240315 
L 408.211307 212.239619 
L 406.411552 220.157887 
L 405.389106 225.253954 
L 404.392342 232.07546 
L 400.293039 232.07546 
L 394.682783 232.07546 
L 395.753913 224.697013 
L 396.038035 220.157887 
L 396.559669 216.424518 
L 398.072521 208.240315 
L 400.293039 198.292266 
L 400.646574 196.676278 
L 401.010421 195.60536 
L 404.331196 184.40517 
L 406.300965 178.495523 
L 412.210612 167.101851 
L 414.362731 162.722144 
L 415.979069 160.570025 
L 419.290086 156.32234 
L 422.110752 152.209022 
L 424.128184 150.152423 
L 424.128184 153.419482 
L 424.128184 160.570025 
M 221.052787 232.07546 
L 218.760349 228.745584 
L 209.801017 220.157887 
L 209.697768 220.014739 
L 209.61188 219.934913 
L 209.228117 219.774124 
L 187.022666 218.911956 
L 185.776735 219.245044 
L 185.324116 219.705269 
L 183.555355 222.379267 
L 176.375476 232.07546 
L 173.859162 232.07546 
L 161.94159 232.07546 
L 160.126029 232.07546 
L 161.712726 220.386751 
L 161.7222 220.157887 
L 161.687853 219.90415 
L 161.94159 218.255945 
L 163.978328 208.240315 
L 165.853594 200.234747 
L 169.671615 196.322742 
L 175.557228 186.103236 
L 178.709502 184.40517 
L 185.776735 181.061735 
L 193.921061 180.631924 
L 197.694307 180.703862 
L 200.595295 181.504182 
L 207.799935 184.40517 
L 209.61188 185.170736 
L 214.110271 188.825423 
L 220.248472 196.322742 
L 222.535425 198.618645 
L 223.912967 200.65316 
L 228.175409 208.240315 
L 228.476335 208.749466 
L 231.875294 216.22856 
L 233.447024 219.672047 
L 233.54617 219.910023 
L 233.624847 220.157887 
L 238.219967 232.060675 
L 238.224141 232.07546 
L 238.214053 232.07546 
L 233.447024 232.07546 
L 228.679996 232.07546 
L 223.912967 232.07546 
" clip-path="url(#p8e00cb199f)" style="fill: #aed3e6"/>
   </g>
   <g id="PathCollection_8">
    <path d="M 42.765865 164.59655 
L 54.540949 160.712514 
L 54.683437 160.677109 
L 54.780274 160.666862 
L 55.020693 160.570025 
L 66.60101 155.133959 
L 68.340449 154.463145 
L 78.08226 146.530732 
L 78.420064 146.268938 
L 78.449908 146.241468 
L 78.518582 146.122636 
L 83.734682 138.82132 
L 84.265642 136.73488 
L 84.540733 134.32602 
L 85.75635 130.095929 
L 85.689086 127.200822 
L 85.026766 123.295912 
L 84.626969 116.564767 
L 83.607999 112.899735 
L 82.015574 109.402744 
L 80.125193 100.982163 
L 75.56086 92.022313 
L 74.614924 89.06459 
L 72.340144 84.121839 
L 68.945572 77.654882 
L 66.60101 73.044571 
L 65.127152 69.996474 
L 63.288364 66.554503 
L 61.6089 63.232601 
L 60.099711 60.462416 
L 59.55197 59.48871 
L 57.881446 56.334989 
L 57.520758 55.695387 
L 57.229442 55.186186 
L 54.963358 50.984342 
L 54.931383 50.928358 
L 54.905727 50.8839 
L 54.683437 50.474352 
L 52.600468 46.577923 
L 52.384645 46.161329 
L 52.116757 45.647993 
L 50.306733 42.269641 
L 49.852313 41.3943 
L 54.683437 41.3943 
L 56.265772 41.3943 
L 56.470109 41.751635 
L 58.444413 45.409134 
L 58.879053 46.161329 
L 59.422852 47.109212 
L 60.82867 49.699312 
L 61.537942 50.928358 
L 62.421908 52.476052 
L 63.235663 53.984942 
L 64.214216 55.695387 
L 65.425796 57.843859 
L 65.650948 58.268914 
L 66.60101 59.95782 
L 66.89723 60.462416 
L 69.050429 64.249678 
L 70.625743 66.839339 
L 72.399615 69.996474 
L 74.169135 73.476032 
L 78.518582 81.76211 
L 81.538318 86.648802 
L 83.109613 89.06459 
L 88.251733 98.79774 
L 89.364523 100.982163 
L 89.560992 101.857325 
L 90.436155 103.779197 
L 95.267036 112.899735 
L 96.418642 116.460786 
L 100.592693 126.144202 
L 100.804453 127.200822 
L 100.821281 127.813801 
L 102.353727 134.914124 
L 102.833339 136.543036 
L 102.944982 136.73488 
L 103.057745 137.016487 
L 102.353727 144.18588 
L 102.216668 146.214114 
L 102.181366 146.268938 
L 101.971663 146.498177 
L 94.964039 156.136212 
L 90.436155 157.683894 
L 85.068738 160.570025 
L 80.443866 162.495308 
L 76.075869 163.012738 
L 66.60101 166.147991 
L 62.081704 167.968292 
L 54.683437 168.7512 
L 43.797395 171.456067 
L 42.765865 171.79632 
M 424.128184 150.152423 
L 422.110752 152.209022 
L 419.290086 156.32234 
L 415.979069 160.570025 
L 414.362731 162.722144 
L 412.210612 167.101851 
L 406.300965 178.495523 
L 404.331196 184.40517 
L 401.010421 195.60536 
L 400.646574 196.676278 
L 400.293039 198.292266 
L 398.072521 208.240315 
L 396.559669 216.424518 
L 396.038035 220.157887 
L 395.753913 224.697013 
L 394.682783 232.07546 
L 388.375467 232.07546 
L 384.851379 232.07546 
L 384.891868 228.591861 
L 385.419783 220.157887 
L 386.875331 209.740451 
L 386.949086 208.240315 
L 387.056907 206.921756 
L 388.375467 200.045298 
L 390.694305 186.724008 
L 391.402251 184.40517 
L 392.98397 179.796667 
L 396.093237 168.287796 
L 399.736975 160.570025 
L 400.293039 159.420134 
L 402.486909 154.735803 
L 405.630652 150.216914 
L 407.920024 146.268938 
L 408.720226 144.872784 
L 412.210612 140.730106 
L 414.720821 137.738964 
L 415.896216 136.73488 
L 419.068887 133.99157 
L 421.95926 131.100282 
L 424.128184 129.57736 
L 424.128184 131.967851 
L 424.128184 136.73488 
L 424.128184 141.501909 
L 424.128184 146.268938 
M 238.224141 232.07546 
L 238.219967 232.060675 
L 233.624847 220.157887 
L 233.54617 219.910023 
L 233.447024 219.672047 
L 231.875294 216.22856 
L 228.476335 208.749466 
L 228.175409 208.240315 
L 223.912967 200.65316 
L 222.535425 198.618645 
L 220.248472 196.322742 
L 214.110271 188.825423 
L 209.61188 185.170736 
L 207.799935 184.40517 
L 200.595295 181.504182 
L 197.694307 180.703862 
L 193.921061 180.631924 
L 185.776735 181.061735 
L 178.709502 184.40517 
L 175.557228 186.103236 
L 169.671615 196.322742 
L 165.853594 200.234747 
L 163.978328 208.240315 
L 161.94159 218.255945 
L 161.687853 219.90415 
L 161.7222 220.157887 
L 161.712726 220.386751 
L 160.126029 232.07546 
L 150.024017 232.07546 
L 148.298648 232.07546 
L 147.870032 229.921475 
L 148.274227 220.157887 
L 147.061948 211.202385 
L 146.180616 208.240315 
L 144.870983 203.087281 
L 144.990715 189.438472 
L 143.53644 184.40517 
L 143.11047 177.491622 
L 150.024017 168.436618 
L 152.799542 163.34555 
L 158.066805 160.570025 
L 161.94159 158.926495 
L 167.547964 156.783306 
L 173.859162 155.210658 
L 184.524491 152.668135 
L 185.776735 152.397864 
L 187.881526 152.156607 
L 197.694307 151.541036 
L 208.713074 152.880198 
L 209.61188 152.928372 
L 210.004124 153.027237 
L 216.762423 155.826081 
L 219.715918 157.61653 
L 223.225457 160.570025 
L 223.912967 161.142571 
L 227.140875 164.417827 
L 232.483901 172.487597 
L 233.101951 173.350282 
L 233.447024 174.018346 
L 237.435674 182.45922 
L 238.285393 184.226822 
L 238.346058 184.40517 
L 239.365109 187.282809 
L 242.597873 196.322742 
L 242.78861 196.803924 
L 242.981082 197.452022 
L 245.99589 208.240315 
L 247.355285 212.86755 
L 248.760632 220.157887 
L 251.155032 230.369783 
L 251.381286 232.07546 
L 250.131626 232.07546 
L 242.981082 232.07546 
" clip-path="url(#p8e00cb199f)" style="fill: #d4e6f1"/>
   </g>
   <g id="PathCollection_9">
    <path d="M 42.765865 171.79632 
L 43.797395 171.456067 
L 54.683437 168.7512 
L 62.081704 167.968292 
L 66.60101 166.147991 
L 76.075869 163.012738 
L 80.443866 162.495308 
L 85.068738 160.570025 
L 90.436155 157.683894 
L 94.964039 156.136212 
L 101.971663 146.498177 
L 102.181366 146.268938 
L 102.216668 146.214114 
L 102.353727 144.18588 
L 103.057745 137.016487 
L 102.944982 136.73488 
L 102.833339 136.543036 
L 102.353727 134.914124 
L 100.821281 127.813801 
L 100.804453 127.200822 
L 100.592693 126.144202 
L 96.418642 116.460786 
L 95.267036 112.899735 
L 90.436155 103.779197 
L 89.560992 101.857325 
L 89.364523 100.982163 
L 88.251733 98.79774 
L 83.109613 89.06459 
L 81.538318 86.648802 
L 78.518582 81.76211 
L 74.169135 73.476032 
L 72.399615 69.996474 
L 70.625743 66.839339 
L 69.050429 64.249678 
L 66.89723 60.462416 
L 66.60101 59.95782 
L 65.650948 58.268914 
L 65.425796 57.843859 
L 64.214216 55.695387 
L 63.235663 53.984942 
L 62.421908 52.476052 
L 61.537942 50.928358 
L 60.82867 49.699312 
L 59.422852 47.109212 
L 58.879053 46.161329 
L 58.444413 45.409134 
L 56.470109 41.751635 
L 56.265772 41.3943 
L 62.695127 41.3943 
L 63.729725 43.203558 
L 64.28928 44.240161 
L 65.399385 46.161329 
L 66.60101 48.255854 
L 66.75393 48.51426 
L 66.798729 48.584388 
L 68.200419 50.928358 
L 69.292498 52.773575 
L 70.07608 54.006887 
L 71.080943 55.695387 
L 71.861922 57.026719 
L 73.374033 59.433506 
L 73.978048 60.462416 
L 74.819317 61.942123 
L 78.518582 68.023351 
L 79.564924 69.577938 
L 79.864361 69.996474 
L 81.408355 72.308293 
L 87.381465 81.974284 
L 90.436155 86.670721 
L 92.236711 89.06459 
L 96.073521 95.344797 
L 102.353727 105.479404 
L 105.952003 109.301459 
L 109.420144 112.899735 
L 114.2713 119.227766 
L 114.803655 119.730865 
L 117.524235 122.00204 
L 123.178725 127.200822 
L 123.936777 128.10166 
L 126.188872 130.04576 
L 134.093992 133.572832 
L 138.106445 134.911887 
L 147.450536 135.705488 
L 150.024017 136.045972 
L 152.226373 135.853938 
L 161.94159 134.998449 
L 167.104417 134.032982 
L 173.859162 132.76391 
L 182.380695 130.609435 
L 185.776735 129.563223 
L 193.749541 127.200822 
L 196.407861 126.428955 
L 197.694307 125.804849 
L 204.163088 123.319553 
L 209.61188 121.564945 
L 210.935538 121.373937 
L 215.697233 120.050279 
L 221.676542 117.813854 
L 223.912967 116.381205 
L 227.109419 115.2556 
L 230.43014 115.524952 
L 233.447024 114.82621 
L 236.606804 115.31061 
L 240.459074 120.050279 
L 242.162519 121.278124 
L 242.981082 123.05548 
L 244.54232 127.200822 
L 245.892681 130.026785 
L 246.838833 134.539685 
L 247.725377 136.73488 
L 248.289066 137.963254 
L 250.131626 145.320805 
L 250.315472 146.146374 
L 250.325376 146.268938 
L 250.352596 146.489908 
L 253.085021 157.61663 
L 253.480073 160.570025 
L 254.859258 168.449412 
L 255.784837 172.487597 
L 256.269701 174.175045 
L 257.282169 180.426742 
L 257.923357 184.40517 
L 259.642217 193.962695 
L 259.95537 198.995943 
L 261.390877 208.240315 
L 262.462293 214.977763 
L 262.885664 225.761382 
L 263.720103 232.07546 
L 257.282169 232.07546 
L 251.381286 232.07546 
L 251.155032 230.369783 
L 248.760632 220.157887 
L 247.355285 212.86755 
L 245.99589 208.240315 
L 242.981082 197.452022 
L 242.78861 196.803924 
L 242.597873 196.322742 
L 239.365109 187.282809 
L 238.346058 184.40517 
L 238.285393 184.226822 
L 237.435674 182.45922 
L 233.447024 174.018346 
L 233.101951 173.350282 
L 232.483901 172.487597 
L 227.140875 164.417827 
L 223.912967 161.142571 
L 223.225457 160.570025 
L 219.715918 157.61653 
L 216.762423 155.826081 
L 210.004124 153.027237 
L 209.61188 152.928372 
L 208.713074 152.880198 
L 197.694307 151.541036 
L 187.881526 152.156607 
L 185.776735 152.397864 
L 184.524491 152.668135 
L 173.859162 155.210658 
L 167.547964 156.783306 
L 161.94159 158.926495 
L 158.066805 160.570025 
L 152.799542 163.34555 
L 150.024017 168.436618 
L 143.11047 177.491622 
L 143.53644 184.40517 
L 144.990715 189.438472 
L 144.870983 203.087281 
L 146.180616 208.240315 
L 147.061948 211.202385 
L 148.274227 220.157887 
L 147.870032 229.921475 
L 148.298648 232.07546 
L 138.106445 232.07546 
L 137.967077 232.07546 
L 136.145413 222.118919 
L 133.279284 215.330726 
L 131.315204 208.240315 
L 130.334349 204.094839 
L 125.428337 196.322742 
L 121.741633 188.852409 
L 116.147768 184.40517 
L 114.2713 182.499309 
L 108.876961 177.881937 
L 93.908987 175.96043 
L 90.436155 174.872441 
L 88.447122 174.47663 
L 70.267243 176.15383 
L 66.60101 175.930162 
L 63.160373 175.928234 
L 54.683437 176.82529 
L 48.612108 178.33384 
L 42.765865 178.488967 
L 42.765865 172.487597 
M 424.128184 129.57736 
L 421.95926 131.100282 
L 419.068887 133.99157 
L 415.896216 136.73488 
L 414.720821 137.738964 
L 412.210612 140.730106 
L 408.720226 144.872784 
L 407.920024 146.268938 
L 405.630652 150.216914 
L 402.486909 154.735803 
L 400.293039 159.420134 
L 399.736975 160.570025 
L 396.093237 168.287796 
L 392.98397 179.796667 
L 391.402251 184.40517 
L 390.694305 186.724008 
L 388.375467 200.045298 
L 387.056907 206.921756 
L 386.949086 208.240315 
L 386.875331 209.740451 
L 385.419783 220.157887 
L 384.891868 228.591861 
L 384.851379 232.07546 
L 376.457894 232.07546 
L 374.559914 232.07546 
L 374.690439 221.925342 
L 374.382555 220.157887 
L 374.514137 218.214131 
L 375.063463 208.240315 
L 376.124618 196.656018 
L 376.095774 196.322742 
L 376.139482 196.00433 
L 376.457894 193.766587 
L 377.637034 184.40517 
L 378.991324 175.021027 
L 381.108836 167.836655 
L 382.509665 160.570025 
L 383.100304 157.404927 
L 387.068394 147.053182 
L 387.239709 146.268938 
L 387.324612 145.848596 
L 388.375467 143.506265 
L 390.784717 137.69858 
L 391.460449 136.73488 
L 392.626413 135.034501 
L 395.062272 129.875544 
L 397.30332 127.200822 
L 400.293039 123.478828 
L 402.097504 121.132958 
L 412.210612 113.120137 
L 412.372433 112.996828 
L 412.575705 112.899735 
L 424.128184 106.937453 
L 424.128184 112.899735 
L 424.128184 120.050279 
L 424.128184 127.200822 
M 256.150256 65.984054 
L 254.329292 69.996474 
L 251.009055 71.16638 
L 249.245405 71.178102 
L 243.394792 69.996474 
L 242.981082 69.732608 
L 241.950544 66.259983 
L 241.857129 65.229445 
L 238.214053 60.462416 
L 242.981082 60.462416 
L 250.131626 60.462416 
" clip-path="url(#p8e00cb199f)" style="fill: #ecf2f5"/>
   </g>
   <g id="PathCollection_10">
    <path d="M 42.765865 178.488967 
L 48.612108 178.33384 
L 54.683437 176.82529 
L 63.160373 175.928234 
L 66.60101 175.930162 
L 70.267243 176.15383 
L 88.447122 174.47663 
L 90.436155 174.872441 
L 93.908987 175.96043 
L 108.876961 177.881937 
L 114.2713 182.499309 
L 116.147768 184.40517 
L 121.741633 188.852409 
L 125.428337 196.322742 
L 130.334349 204.094839 
L 131.315204 208.240315 
L 133.279284 215.330726 
L 136.145413 222.118919 
L 137.967077 232.07546 
L 128.456368 232.07546 
L 128.105668 230.158664 
L 126.188872 225.61889 
L 121.049018 213.380169 
L 117.068744 208.240315 
L 114.2713 204.367481 
L 110.786354 199.807688 
L 105.132077 196.322742 
L 96.756574 190.002323 
L 90.436155 188.251102 
L 80.640535 186.527122 
L 77.380076 185.543676 
L 66.60101 184.928632 
L 55.200925 184.922658 
L 54.683437 184.851891 
L 54.278086 184.810521 
L 42.765865 185.107379 
L 42.765865 184.40517 
M 69.190917 41.3943 
L 70.170768 43.063863 
L 71.216936 44.701 
L 72.087351 46.161329 
L 72.76797 47.311452 
L 74.574631 50.139568 
L 75.046326 50.928358 
L 75.413831 51.549309 
L 77.979538 55.587578 
L 78.043698 55.695387 
L 78.093562 55.780391 
L 78.518582 56.456885 
L 80.942585 59.977616 
L 81.298982 60.462416 
L 82.414654 62.020845 
L 85.817677 67.076837 
L 87.906499 69.996474 
L 90.436155 73.784121 
L 93.185537 77.331027 
L 102.353727 88.884418 
L 102.457835 88.981304 
L 102.54807 89.06459 
L 106.422112 93.132975 
L 114.034587 101.218875 
L 114.2713 101.46447 
L 116.213495 102.924358 
L 126.188872 110.824365 
L 127.730245 111.358362 
L 131.590164 112.899735 
L 138.106445 115.860346 
L 143.537069 116.791904 
L 150.024017 117.999834 
L 157.509654 117.391117 
L 161.94159 117.075148 
L 170.694098 114.798774 
L 173.859162 114.097115 
L 175.130906 113.662781 
L 176.746597 112.899735 
L 185.776735 108.654824 
L 190.876233 106.081661 
L 196.563554 100.982163 
L 202.925523 94.295806 
L 205.244485 89.06459 
L 208.16654 80.686804 
L 209.023704 79.059992 
L 209.61188 75.810505 
L 210.852065 69.996474 
L 211.522119 66.502938 
L 211.62563 63.886945 
L 212.169513 60.462416 
L 212.409428 59.011418 
L 212.50096 57.115875 
L 212.715424 55.695387 
L 212.912517 54.412085 
L 213.027357 52.17338 
L 213.201206 50.928358 
L 213.354379 49.792344 
L 213.443203 47.267736 
L 213.57278 46.161329 
L 213.678632 45.133399 
L 213.659523 42.4286 
L 213.743838 41.3943 
L 216.762423 41.3943 
L 223.912967 41.3943 
L 228.679996 41.3943 
L 233.447024 41.3943 
L 238.214053 41.3943 
L 242.981082 41.3943 
L 250.131626 41.3943 
L 257.282169 41.3943 
L 269.199742 41.3943 
L 281.117314 41.3943 
L 293.034887 41.3943 
L 304.952459 41.3943 
L 312.103003 41.3943 
L 319.253546 41.3943 
L 324.020575 41.3943 
L 328.787604 41.3943 
L 333.554633 41.3943 
L 338.321662 41.3943 
L 345.472206 41.3943 
L 352.622749 41.3943 
L 364.540322 41.3943 
L 376.457894 41.3943 
L 381.64381 41.3943 
L 381.846849 42.700024 
L 382.687074 45.023651 
L 382.872643 46.161329 
L 383.042209 47.227981 
L 384.115654 50.076396 
L 384.256955 50.928358 
L 384.383975 51.726657 
L 385.762532 55.1728 
L 385.849147 55.695387 
L 385.925767 56.185327 
L 387.724365 60.332196 
L 387.745489 60.462416 
L 387.777224 60.701713 
L 388.375467 61.82825 
L 392.568035 68.319447 
L 394.867905 69.996474 
L 400.293039 73.658459 
L 404.708608 75.998077 
L 412.210612 76.585184 
L 422.580801 78.292626 
L 424.128184 78.716538 
L 424.128184 79.530532 
L 424.128184 89.06459 
L 424.128184 100.982163 
L 424.128184 106.937453 
L 412.575705 112.899735 
L 412.372433 112.996828 
L 412.210612 113.120137 
L 402.097504 121.132958 
L 400.293039 123.478828 
L 397.30332 127.200822 
L 395.062272 129.875544 
L 392.626413 135.034501 
L 391.460449 136.73488 
L 390.784717 137.69858 
L 388.375467 143.506265 
L 387.324612 145.848596 
L 387.239709 146.268938 
L 387.068394 147.053182 
L 383.100304 157.404927 
L 382.509665 160.570025 
L 381.108836 167.836655 
L 378.991324 175.021027 
L 377.637034 184.40517 
L 376.457894 193.766587 
L 376.139482 196.00433 
L 376.095774 196.322742 
L 376.124618 196.656018 
L 375.063463 208.240315 
L 374.514137 218.214131 
L 374.382555 220.157887 
L 374.690439 221.925342 
L 374.559914 232.07546 
L 364.540322 232.07546 
L 363.139127 232.07546 
L 362.862074 230.397212 
L 361.078421 220.157887 
L 361.692388 211.088249 
L 361.355097 208.240315 
L 361.104639 204.804632 
L 360.370543 196.322742 
L 361.603289 187.342202 
L 361.426321 184.40517 
L 361.241845 181.106693 
L 360.891514 172.487597 
L 362.465717 162.644629 
L 362.268595 160.570025 
L 362.082683 159.095442 
L 362.616979 147.422944 
L 362.384593 146.268938 
L 362.157974 145.315999 
L 362.102756 137.709906 
L 361.775506 136.73488 
L 361.287934 135.433925 
L 360.692949 128.739771 
L 359.838497 127.200822 
L 357.07243 122.720087 
L 355.751021 118.173315 
L 352.622749 115.957847 
L 345.671727 113.099256 
L 345.405272 112.966669 
L 344.870427 112.899735 
L 338.321662 112.126351 
L 333.880056 112.086178 
L 333.271361 112.191554 
L 328.787604 112.492165 
L 325.717901 112.899735 
L 324.162941 113.113284 
L 323.849413 113.156478 
L 319.253546 114.084127 
L 314.62379 115.420522 
L 312.103003 116.241192 
L 306.397965 118.604773 
L 304.952459 119.185757 
L 304.186072 119.590446 
L 297.253169 124.669853 
L 293.723221 127.200822 
L 293.483716 127.380354 
L 293.034887 127.818975 
L 287.606816 134.563652 
L 286.473338 136.73488 
L 284.914024 139.983225 
L 283.427308 142.425907 
L 281.985548 146.268938 
L 281.117314 148.935521 
L 280.04105 152.773723 
L 279.958645 154.114683 
L 278.75432 160.570025 
L 277.608986 168.97927 
L 277.765664 172.487597 
L 277.820343 175.784569 
L 277.259013 184.40517 
L 276.933946 192.139374 
L 277.457334 199.982722 
L 277.196834 208.240315 
L 276.826653 215.867226 
L 277.181946 224.093256 
L 276.579073 232.07546 
L 269.199742 232.07546 
L 263.720103 232.07546 
L 262.885664 225.761382 
L 262.462293 214.977763 
L 261.390877 208.240315 
L 259.95537 198.995943 
L 259.642217 193.962695 
L 257.923357 184.40517 
L 257.282169 180.426742 
L 256.269701 174.175045 
L 255.784837 172.487597 
L 254.859258 168.449412 
L 253.480073 160.570025 
L 253.085021 157.61663 
L 250.352596 146.489908 
L 250.325376 146.268938 
L 250.315472 146.146374 
L 250.131626 145.320805 
L 248.289066 137.963254 
L 247.725377 136.73488 
L 246.838833 134.539685 
L 245.892681 130.026785 
L 244.54232 127.200822 
L 242.981082 123.05548 
L 242.162519 121.278124 
L 240.459074 120.050279 
L 236.606804 115.31061 
L 233.447024 114.82621 
L 230.43014 115.524952 
L 227.109419 115.2556 
L 223.912967 116.381205 
L 221.676542 117.813854 
L 215.697233 120.050279 
L 210.935538 121.373937 
L 209.61188 121.564945 
L 204.163088 123.319553 
L 197.694307 125.804849 
L 196.407861 126.428955 
L 193.749541 127.200822 
L 185.776735 129.563223 
L 182.380695 130.609435 
L 173.859162 132.76391 
L 167.104417 134.032982 
L 161.94159 134.998449 
L 152.226373 135.853938 
L 150.024017 136.045972 
L 147.450536 135.705488 
L 138.106445 134.911887 
L 134.093992 133.572832 
L 126.188872 130.04576 
L 123.936777 128.10166 
L 123.178725 127.200822 
L 117.524235 122.00204 
L 114.803655 119.730865 
L 114.2713 119.227766 
L 109.420144 112.899735 
L 105.952003 109.301459 
L 102.353727 105.479404 
L 96.073521 95.344797 
L 92.236711 89.06459 
L 90.436155 86.670721 
L 87.381465 81.974284 
L 81.408355 72.308293 
L 79.864361 69.996474 
L 79.564924 69.577938 
L 78.518582 68.023351 
L 74.819317 61.942123 
L 73.978048 60.462416 
L 73.374033 59.433506 
L 71.861922 57.026719 
L 71.080943 55.695387 
L 70.07608 54.006887 
L 69.292498 52.773575 
L 68.200419 50.928358 
L 66.798729 48.584388 
L 66.75393 48.51426 
L 66.60101 48.255854 
L 65.399385 46.161329 
L 64.28928 44.240161 
L 63.729725 43.203558 
L 62.695127 41.3943 
L 66.60101 41.3943 
M 250.131626 60.462416 
L 242.981082 60.462416 
L 238.214053 60.462416 
L 241.857129 65.229445 
L 241.950544 66.259983 
L 242.981082 69.732608 
L 243.394792 69.996474 
L 249.245405 71.178102 
L 251.009055 71.16638 
L 254.329292 69.996474 
L 256.150256 65.984054 
" clip-path="url(#p8e00cb199f)" style="fill: #f9eee7"/>
   </g>
   <g id="PathCollection_11">
    <path d="M 42.765865 185.107379 
L 54.278086 184.810521 
L 54.683437 184.851891 
L 55.200925 184.922658 
L 66.60101 184.928632 
L 77.380076 185.543676 
L 80.640535 186.527122 
L 90.436155 188.251102 
L 96.756574 190.002323 
L 105.132077 196.322742 
L 110.786354 199.807688 
L 114.2713 204.367481 
L 117.068744 208.240315 
L 121.049018 213.380169 
L 126.188872 225.61889 
L 128.105668 230.158664 
L 128.456368 232.07546 
L 126.188872 232.07546 
L 119.112115 232.07546 
L 114.2713 222.874154 
L 113.314286 221.114902 
L 102.353727 208.383373 
L 102.283142 208.3109 
L 102.17602 208.240315 
L 90.436155 200.228605 
L 87.96005 198.798848 
L 78.620271 196.322742 
L 69.38625 193.537502 
L 66.60101 193.378579 
L 63.655302 193.377035 
L 54.683437 192.150122 
L 47.655722 191.432886 
L 42.765865 191.558977 
M 75.789538 41.3943 
L 76.076218 41.882773 
L 78.518582 45.704803 
L 78.797162 46.105613 
L 78.83914 46.161329 
L 78.895146 46.236642 
L 81.718657 50.288343 
L 82.197999 50.928358 
L 82.836353 51.791912 
L 84.690696 54.460965 
L 85.608024 55.695387 
L 86.825187 57.356708 
L 87.699278 58.626277 
L 89.049101 60.462416 
L 90.436155 62.399926 
L 92.199876 64.523957 
L 94.089039 66.690599 
L 96.834104 69.996474 
L 98.946804 72.722013 
L 102.353727 77.015284 
L 109.316125 83.494672 
L 114.2713 88.068322 
L 115.790355 89.06459 
L 121.745289 93.508174 
L 126.188872 97.027273 
L 137.977315 101.111292 
L 138.106445 101.162857 
L 138.319219 101.194937 
L 150.024017 103.350958 
L 161.395203 101.528549 
L 161.94159 101.492139 
L 162.351836 101.392409 
L 163.140829 100.982163 
L 178.975144 94.180573 
L 184.451699 89.06459 
L 185.776735 87.807156 
L 190.247299 83.106983 
L 195.969888 71.376009 
L 196.822771 69.996474 
L 196.995246 69.71685 
L 197.694307 67.740559 
L 200.037599 61.399733 
L 200.164115 60.462416 
L 200.235534 59.954171 
L 201.382794 56.433085 
L 201.477103 55.695387 
L 201.578119 54.918625 
L 202.493085 51.888114 
L 202.605662 50.928358 
L 202.719496 49.923321 
L 203.449114 47.312291 
L 203.561292 46.161329 
L 203.663604 44.96747 
L 204.242218 42.703883 
L 204.330562 41.3943 
L 209.61188 41.3943 
L 213.743838 41.3943 
L 213.659523 42.4286 
L 213.678632 45.133399 
L 213.57278 46.161329 
L 213.443203 47.267736 
L 213.354379 49.792344 
L 213.201206 50.928358 
L 213.027357 52.17338 
L 212.912517 54.412085 
L 212.715424 55.695387 
L 212.50096 57.115875 
L 212.409428 59.011418 
L 212.169513 60.462416 
L 211.62563 63.886945 
L 211.522119 66.502938 
L 210.852065 69.996474 
L 209.61188 75.810505 
L 209.023704 79.059992 
L 208.16654 80.686804 
L 205.244485 89.06459 
L 202.925523 94.295806 
L 196.563554 100.982163 
L 190.876233 106.081661 
L 185.776735 108.654824 
L 176.746597 112.899735 
L 175.130906 113.662781 
L 173.859162 114.097115 
L 170.694098 114.798774 
L 161.94159 117.075148 
L 157.509654 117.391117 
L 150.024017 117.999834 
L 143.537069 116.791904 
L 138.106445 115.860346 
L 131.590164 112.899735 
L 127.730245 111.358362 
L 126.188872 110.824365 
L 116.213495 102.924358 
L 114.2713 101.46447 
L 114.034587 101.218875 
L 106.422112 93.132975 
L 102.54807 89.06459 
L 102.457835 88.981304 
L 102.353727 88.884418 
L 93.185537 77.331027 
L 90.436155 73.784121 
L 87.906499 69.996474 
L 85.817677 67.076837 
L 82.414654 62.020845 
L 81.298982 60.462416 
L 80.942585 59.977616 
L 78.518582 56.456885 
L 78.093562 55.780391 
L 78.043698 55.695387 
L 77.979538 55.587578 
L 75.413831 51.549309 
L 75.046326 50.928358 
L 74.574631 50.139568 
L 72.76797 47.311452 
L 72.087351 46.161329 
L 71.216936 44.701 
L 70.170768 43.063863 
L 69.190917 41.3943 
M 424.128184 78.716538 
L 422.580801 78.292626 
L 412.210612 76.585184 
L 404.708608 75.998077 
L 400.293039 73.658459 
L 394.867905 69.996474 
L 392.568035 68.319447 
L 388.375467 61.82825 
L 387.777224 60.701713 
L 387.745489 60.462416 
L 387.724365 60.332196 
L 385.925767 56.185327 
L 385.849147 55.695387 
L 385.762532 55.1728 
L 384.383975 51.726657 
L 384.256955 50.928358 
L 384.115654 50.076396 
L 383.042209 47.227981 
L 382.872643 46.161329 
L 382.687074 45.023651 
L 381.846849 42.700024 
L 381.64381 41.3943 
L 388.375467 41.3943 
L 400.293039 41.3943 
L 412.210612 41.3943 
L 424.128184 41.3943 
L 424.128184 43.777815 
L 424.128184 46.161329 
L 424.128184 48.544844 
L 424.128184 50.928358 
L 424.128184 53.311873 
L 424.128184 55.695387 
L 424.128184 58.078902 
L 424.128184 60.462416 
L 424.128184 65.229445 
L 424.128184 69.996474 
M 348.899083 232.07546 
L 348.012271 227.842018 
L 344.937228 220.157887 
L 343.732507 211.139813 
L 342.810635 208.240315 
L 341.009866 200.803082 
L 339.851315 196.322742 
L 339.696183 194.031875 
L 338.321662 188.712041 
L 336.79159 184.40517 
L 335.23997 180.191829 
L 330.186787 172.487597 
L 329.350256 171.080969 
L 328.787604 170.586016 
L 327.866758 170.185483 
L 321.09681 167.879438 
L 319.253546 167.900997 
L 317.15039 168.982336 
L 313.856354 172.487597 
L 307.854132 177.323719 
L 304.952459 182.037162 
L 304.099049 184.40517 
L 301.370536 192.740819 
L 301.401973 196.322742 
L 299.503811 201.771391 
L 297.679707 208.240315 
L 296.490309 211.695737 
L 296.498873 220.157887 
L 291.828331 230.868904 
L 291.717994 232.07546 
L 281.117314 232.07546 
L 276.579073 232.07546 
L 277.181946 224.093256 
L 276.826653 215.867226 
L 277.196834 208.240315 
L 277.457334 199.982722 
L 276.933946 192.139374 
L 277.259013 184.40517 
L 277.820343 175.784569 
L 277.765664 172.487597 
L 277.608986 168.97927 
L 278.75432 160.570025 
L 279.958645 154.114683 
L 280.04105 152.773723 
L 281.117314 148.935521 
L 281.985548 146.268938 
L 283.427308 142.425907 
L 284.914024 139.983225 
L 286.473338 136.73488 
L 287.606816 134.563652 
L 293.034887 127.818975 
L 293.483716 127.380354 
L 293.723221 127.200822 
L 297.253169 124.669853 
L 304.186072 119.590446 
L 304.952459 119.185757 
L 306.397965 118.604773 
L 312.103003 116.241192 
L 314.62379 115.420522 
L 319.253546 114.084127 
L 323.849413 113.156478 
L 324.162941 113.113284 
L 325.717901 112.899735 
L 328.787604 112.492165 
L 333.271361 112.191554 
L 333.880056 112.086178 
L 338.321662 112.126351 
L 344.870427 112.899735 
L 345.405272 112.966669 
L 345.671727 113.099256 
L 352.622749 115.957847 
L 355.751021 118.173315 
L 357.07243 122.720087 
L 359.838497 127.200822 
L 360.692949 128.739771 
L 361.287934 135.433925 
L 361.775506 136.73488 
L 362.102756 137.709906 
L 362.157974 145.315999 
L 362.384593 146.268938 
L 362.616979 147.422944 
L 362.082683 159.095442 
L 362.268595 160.570025 
L 362.465717 162.644629 
L 360.891514 172.487597 
L 361.241845 181.106693 
L 361.426321 184.40517 
L 361.603289 187.342202 
L 360.370543 196.322742 
L 361.104639 204.804632 
L 361.355097 208.240315 
L 361.692388 211.088249 
L 361.078421 220.157887 
L 362.862074 230.397212 
L 363.139127 232.07546 
L 352.622749 232.07546 
" clip-path="url(#p8e00cb199f)" style="fill: #fddcc9"/>
   </g>
   <g id="PathCollection_12">
    <path d="M 42.765865 191.558977 
L 47.655722 191.432886 
L 54.683437 192.150122 
L 63.655302 193.377035 
L 66.60101 193.378579 
L 69.38625 193.537502 
L 78.620271 196.322742 
L 87.96005 198.798848 
L 90.436155 200.228605 
L 102.17602 208.240315 
L 102.283142 208.3109 
L 102.353727 208.383373 
L 113.314286 221.114902 
L 114.2713 222.874154 
L 119.112115 232.07546 
L 114.2713 232.07546 
L 109.668616 232.07546 
L 107.091383 227.337805 
L 102.353727 221.834655 
L 95.646262 214.94778 
L 90.436155 211.514758 
L 84.562933 208.240315 
L 80.731142 206.027755 
L 74.709638 204.431371 
L 66.60101 201.655769 
L 62.417726 200.506026 
L 54.683437 199.448354 
L 44.892199 198.449076 
L 42.765865 198.026756 
L 42.765865 196.322742 
M 82.715824 41.3943 
L 83.452492 42.381082 
L 85.157107 44.833624 
L 86.157443 46.161329 
L 87.492065 47.956026 
L 88.212337 48.989607 
L 89.664375 50.928358 
L 90.436155 51.972409 
L 91.418216 53.115461 
L 91.852197 53.595081 
L 93.664614 55.695387 
L 94.928106 57.180511 
L 96.883832 59.368437 
L 97.816657 60.462416 
L 98.947891 61.824751 
L 102.353727 65.730834 
L 105.661819 68.673238 
L 107.175031 69.996474 
L 114.2713 76.520612 
L 116.381644 77.842257 
L 126.188872 84.355867 
L 130.425789 85.675057 
L 138.106445 88.500199 
L 144.838113 89.06459 
L 149.591787 89.49682 
L 150.024017 89.576437 
L 150.465164 89.505737 
L 152.558901 89.06459 
L 161.94159 87.168384 
L 168.048745 84.416257 
L 173.859162 80.501549 
L 179.988625 74.900045 
L 183.35263 69.996474 
L 185.776735 66.454763 
L 186.382953 65.471933 
L 186.582773 64.90703 
L 188.906599 60.462416 
L 189.748672 58.873289 
L 190.278235 57.178602 
L 191.008763 55.695387 
L 191.613145 54.479155 
L 192.327623 52.001695 
L 192.825578 50.928358 
L 193.242514 50.038 
L 194.079476 46.884296 
L 194.396795 46.161329 
L 194.665566 45.555581 
L 195.568118 41.819538 
L 195.745521 41.3943 
L 197.694307 41.3943 
L 204.330562 41.3943 
L 204.242218 42.703883 
L 203.663604 44.96747 
L 203.561292 46.161329 
L 203.449114 47.312291 
L 202.719496 49.923321 
L 202.605662 50.928358 
L 202.493085 51.888114 
L 201.578119 54.918625 
L 201.477103 55.695387 
L 201.382794 56.433085 
L 200.235534 59.954171 
L 200.164115 60.462416 
L 200.037599 61.399733 
L 197.694307 67.740559 
L 196.995246 69.71685 
L 196.822771 69.996474 
L 195.969888 71.376009 
L 190.247299 83.106983 
L 185.776735 87.807156 
L 184.451699 89.06459 
L 178.975144 94.180573 
L 163.140829 100.982163 
L 162.351836 101.392409 
L 161.94159 101.492139 
L 161.395203 101.528549 
L 150.024017 103.350958 
L 138.319219 101.194937 
L 138.106445 101.162857 
L 137.977315 101.111292 
L 126.188872 97.027273 
L 121.745289 93.508174 
L 115.790355 89.06459 
L 114.2713 88.068322 
L 109.316125 83.494672 
L 102.353727 77.015284 
L 98.946804 72.722013 
L 96.834104 69.996474 
L 94.089039 66.690599 
L 92.199876 64.523957 
L 90.436155 62.399926 
L 89.049101 60.462416 
L 87.699278 58.626277 
L 86.825187 57.356708 
L 85.608024 55.695387 
L 84.690696 54.460965 
L 82.836353 51.791912 
L 82.197999 50.928358 
L 81.718657 50.288343 
L 78.895146 46.236642 
L 78.83914 46.161329 
L 78.797162 46.105613 
L 78.518582 45.704803 
L 76.076218 41.882773 
L 75.789538 41.3943 
L 78.518582 41.3943 
M 291.717994 232.07546 
L 291.828331 230.868904 
L 296.498873 220.157887 
L 296.490309 211.695737 
L 297.679707 208.240315 
L 299.503811 201.771391 
L 301.401973 196.322742 
L 301.370536 192.740819 
L 304.099049 184.40517 
L 304.952459 182.037162 
L 307.854132 177.323719 
L 313.856354 172.487597 
L 317.15039 168.982336 
L 319.253546 167.900997 
L 321.09681 167.879438 
L 327.866758 170.185483 
L 328.787604 170.586016 
L 329.350256 171.080969 
L 330.186787 172.487597 
L 335.23997 180.191829 
L 336.79159 184.40517 
L 338.321662 188.712041 
L 339.696183 194.031875 
L 339.851315 196.322742 
L 341.009866 200.803082 
L 342.810635 208.240315 
L 343.732507 211.139813 
L 344.937228 220.157887 
L 348.012271 227.842018 
L 348.899083 232.07546 
L 345.472206 232.07546 
L 338.321662 232.07546 
L 333.554633 232.07546 
L 328.787604 232.07546 
L 324.020575 232.07546 
L 319.253546 232.07546 
L 312.103003 232.07546 
L 304.952459 232.07546 
L 293.034887 232.07546 
" clip-path="url(#p8e00cb199f)" style="fill: #f8bb9e"/>
   </g>
   <g id="PathCollection_13">
    <path d="M 42.765865 198.026756 
L 44.892199 198.449076 
L 54.683437 199.448354 
L 62.417726 200.506026 
L 66.60101 201.655769 
L 74.709638 204.431371 
L 80.731142 206.027755 
L 84.562933 208.240315 
L 90.436155 211.514758 
L 95.646262 214.94778 
L 102.353727 221.834655 
L 107.091383 227.337805 
L 109.668616 232.07546 
L 102.353727 232.07546 
L 99.868031 232.07546 
L 90.436155 222.444126 
L 89.226775 221.367267 
L 78.518582 214.608203 
L 74.292251 212.466646 
L 66.60101 209.838061 
L 60.778523 208.240315 
L 55.997471 206.926281 
L 54.683437 206.746585 
L 53.019933 206.576811 
L 42.765865 204.540205 
M 89.873198 41.3943 
L 90.436155 42.148392 
L 91.64213 43.53662 
L 92.189943 44.128572 
L 93.97106 46.161329 
L 95.207169 47.590641 
L 97.34497 49.926607 
L 98.216971 50.928358 
L 98.823564 51.634391 
L 102.353727 55.535809 
L 102.504976 55.665138 
L 102.541269 55.695387 
L 102.599321 55.744506 
L 106.96526 59.54011 
L 108.052707 60.462416 
L 112.916356 64.687468 
L 113.756986 65.435171 
L 114.2713 65.884916 
L 121.173698 69.996474 
L 123.986727 71.75819 
L 126.188872 73.220776 
L 132.787342 75.27525 
L 138.106445 76.953406 
L 141.393936 76.900539 
L 150.024017 77.41214 
L 156.921395 75.514376 
L 161.94159 73.581356 
L 167.089851 69.996474 
L 169.594499 68.290609 
L 173.859162 64.438362 
L 176.378703 61.470233 
L 176.957463 60.462416 
L 177.365631 59.761123 
L 179.596267 56.842808 
L 180.215354 55.695387 
L 180.991919 54.268836 
L 182.199021 52.59633 
L 183.044843 50.928358 
L 184.092413 48.881708 
L 184.499457 48.289388 
L 185.518305 46.161329 
L 185.776735 45.627373 
L 186.530496 43.928567 
L 186.607032 43.611755 
L 187.53212 41.3943 
L 195.745521 41.3943 
L 195.568118 41.819538 
L 194.665566 45.555581 
L 194.396795 46.161329 
L 194.079476 46.884296 
L 193.242514 50.038 
L 192.825578 50.928358 
L 192.327623 52.001695 
L 191.613145 54.479155 
L 191.008763 55.695387 
L 190.278235 57.178602 
L 189.748672 58.873289 
L 188.906599 60.462416 
L 186.582773 64.90703 
L 186.382953 65.471933 
L 185.776735 66.454763 
L 183.35263 69.996474 
L 179.988625 74.900045 
L 173.859162 80.501549 
L 168.048745 84.416257 
L 161.94159 87.168384 
L 152.558901 89.06459 
L 150.465164 89.505737 
L 150.024017 89.576437 
L 149.591787 89.49682 
L 144.838113 89.06459 
L 138.106445 88.500199 
L 130.425789 85.675057 
L 126.188872 84.355867 
L 116.381644 77.842257 
L 114.2713 76.520612 
L 107.175031 69.996474 
L 105.661819 68.673238 
L 102.353727 65.730834 
L 98.947891 61.824751 
L 97.816657 60.462416 
L 96.883832 59.368437 
L 94.928106 57.180511 
L 93.664614 55.695387 
L 91.852197 53.595081 
L 91.418216 53.115461 
L 90.436155 51.972409 
L 89.664375 50.928358 
L 88.212337 48.989607 
L 87.492065 47.956026 
L 86.157443 46.161329 
L 85.157107 44.833624 
L 83.452492 42.381082 
L 82.715824 41.3943 
" clip-path="url(#p8e00cb199f)" style="fill: #ee9677"/>
   </g>
   <g id="PathCollection_14">
    <path d="M 42.765865 204.540205 
L 53.019933 206.576811 
L 54.683437 206.746585 
L 55.997471 206.926281 
L 60.778523 208.240315 
L 66.60101 209.838061 
L 74.292251 212.466646 
L 78.518582 214.608203 
L 89.226775 221.367267 
L 90.436155 222.444126 
L 99.868031 232.07546 
L 90.436155 232.07546 
L 89.309164 232.07546 
L 83.601135 226.992907 
L 78.518582 223.784774 
L 68.201812 218.557086 
L 66.60101 218.00999 
L 63.640804 217.197681 
L 54.683437 214.142119 
L 50.187686 212.736067 
L 42.765865 211.190359 
L 42.765865 208.240315 
M 98.109825 41.3943 
L 98.738028 42.11744 
L 102.353727 46.024471 
L 102.486745 46.134726 
L 102.51994 46.161329 
L 102.573886 46.205361 
L 107.0657 49.985964 
L 108.217633 50.928358 
L 110.074639 52.472541 
L 111.66568 53.832997 
L 113.900163 55.695387 
L 114.2713 56.009415 
L 117.008093 57.531543 
L 120.019874 59.228617 
L 122.201479 60.462416 
L 123.830222 61.405876 
L 126.188872 62.80233 
L 136.928346 65.700685 
L 138.106445 66.059047 
L 140.103057 66.02809 
L 150.024017 65.614165 
L 156.631209 63.105293 
L 161.94159 60.548192 
L 162.047566 60.462416 
L 164.422615 58.575107 
L 165.636777 57.339864 
L 167.550168 55.695387 
L 168.753738 54.674302 
L 171.827745 51.334642 
L 172.273658 50.928358 
L 172.562845 50.669095 
L 173.859162 49.179252 
L 175.682489 46.525995 
L 175.857079 46.161329 
L 176.0712 45.718922 
L 178.3343 42.289328 
L 178.741089 41.3943 
L 185.776735 41.3943 
L 187.53212 41.3943 
L 186.607032 43.611755 
L 186.530496 43.928567 
L 185.776735 45.627373 
L 185.518305 46.161329 
L 184.499457 48.289388 
L 184.092413 48.881708 
L 183.044843 50.928358 
L 182.199021 52.59633 
L 180.991919 54.268836 
L 180.215354 55.695387 
L 179.596267 56.842808 
L 177.365631 59.761123 
L 176.957463 60.462416 
L 176.378703 61.470233 
L 173.859162 64.438362 
L 169.594499 68.290609 
L 167.089851 69.996474 
L 161.94159 73.581356 
L 156.921395 75.514376 
L 150.024017 77.41214 
L 141.393936 76.900539 
L 138.106445 76.953406 
L 132.787342 75.27525 
L 126.188872 73.220776 
L 123.986727 71.75819 
L 121.173698 69.996474 
L 114.2713 65.884916 
L 113.756986 65.435171 
L 112.916356 64.687468 
L 108.052707 60.462416 
L 106.96526 59.54011 
L 102.599321 55.744506 
L 102.541269 55.695387 
L 102.504976 55.665138 
L 102.353727 55.535809 
L 98.823564 51.634391 
L 98.216971 50.928358 
L 97.34497 49.926607 
L 95.207169 47.590641 
L 93.97106 46.161329 
L 92.189943 44.128572 
L 91.64213 43.53662 
L 90.436155 42.148392 
L 89.873198 41.3943 
L 90.436155 41.3943 
" clip-path="url(#p8e00cb199f)" style="fill: #db6b55"/>
   </g>
   <g id="PathCollection_15">
    <path d="M 42.765865 211.190359 
L 50.187686 212.736067 
L 54.683437 214.142119 
L 63.640804 217.197681 
L 66.60101 218.00999 
L 68.201812 218.557086 
L 78.518582 223.784774 
L 83.601135 226.992907 
L 89.309164 232.07546 
L 78.518582 232.07546 
L 77.148567 232.07546 
L 66.60101 226.092247 
L 62.522218 224.236679 
L 54.683437 221.562692 
L 44.534998 218.388754 
L 42.765865 218.020305 
M 107.668653 41.3943 
L 109.440441 42.811643 
L 111.318555 44.368364 
L 113.555752 46.161329 
L 114.2713 46.745374 
L 116.767631 48.045578 
L 119.822189 49.655022 
L 122.225048 50.928358 
L 123.298332 51.506466 
L 126.188872 53.08355 
L 132.420017 54.449158 
L 137.641515 55.695387 
L 138.106445 55.808041 
L 139.231862 55.695387 
L 146.460369 54.982658 
L 150.024017 54.550057 
L 155.394488 52.002453 
L 157.288326 50.928358 
L 161.34588 48.663986 
L 161.682108 48.492947 
L 161.94159 48.335636 
L 164.21442 46.161329 
L 165.910093 44.571516 
L 167.491072 42.667918 
L 168.771991 41.3943 
L 173.859162 41.3943 
L 178.741089 41.3943 
L 178.3343 42.289328 
L 176.0712 45.718922 
L 175.857079 46.161329 
L 175.682489 46.525995 
L 173.859162 49.179252 
L 172.562845 50.669095 
L 172.273658 50.928358 
L 171.827745 51.334642 
L 168.753738 54.674302 
L 167.550168 55.695387 
L 165.636777 57.339864 
L 164.422615 58.575107 
L 162.047566 60.462416 
L 161.94159 60.548192 
L 156.631209 63.105293 
L 150.024017 65.614165 
L 140.103057 66.02809 
L 138.106445 66.059047 
L 136.928346 65.700685 
L 126.188872 62.80233 
L 123.830222 61.405876 
L 122.201479 60.462416 
L 120.019874 59.228617 
L 117.008093 57.531543 
L 114.2713 56.009415 
L 113.900163 55.695387 
L 111.66568 53.832997 
L 110.074639 52.472541 
L 108.217633 50.928358 
L 107.0657 49.985964 
L 102.573886 46.205361 
L 102.51994 46.161329 
L 102.486745 46.134726 
L 102.353727 46.024471 
L 98.738028 42.11744 
L 98.109825 41.3943 
L 102.353727 41.3943 
" clip-path="url(#p8e00cb199f)" style="fill: #c53e3d"/>
   </g>
   <g id="PathCollection_16">
    <path d="M 42.765865 218.020305 
L 44.534998 218.388754 
L 54.683437 221.562692 
L 62.522218 224.236679 
L 66.60101 226.092247 
L 77.148567 232.07546 
L 66.60101 232.07546 
L 62.057304 232.07546 
L 56.989113 229.769784 
L 54.683437 228.983266 
L 50.184056 227.576078 
L 42.765865 225.011219 
L 42.765865 220.157887 
M 121.009283 41.3943 
L 122.483504 42.135374 
L 126.188872 44.014658 
L 131.904889 45.018126 
L 137.827026 46.161329 
L 138.106445 46.216405 
L 138.462277 46.161329 
L 145.039213 45.164368 
L 150.024017 44.281167 
L 153.932216 42.17594 
L 155.154629 41.3943 
L 161.94159 41.3943 
L 168.771991 41.3943 
L 167.491072 42.667918 
L 165.910093 44.571516 
L 164.21442 46.161329 
L 161.94159 48.335636 
L 161.682108 48.492947 
L 161.34588 48.663986 
L 157.288326 50.928358 
L 155.394488 52.002453 
L 150.024017 54.550057 
L 146.460369 54.982658 
L 139.231862 55.695387 
L 138.106445 55.808041 
L 137.641515 55.695387 
L 132.420017 54.449158 
L 126.188872 53.08355 
L 123.298332 51.506466 
L 122.225048 50.928358 
L 119.822189 49.655022 
L 116.767631 48.045578 
L 114.2713 46.745374 
L 113.555752 46.161329 
L 111.318555 44.368364 
L 109.440441 42.811643 
L 107.668653 41.3943 
L 114.2713 41.3943 
" clip-path="url(#p8e00cb199f)" style="fill: #ab162a"/>
   </g>
   <g id="PathCollection_17">
    <path d="M 42.765865 225.011219 
L 50.184056 227.576078 
L 54.683437 228.983266 
L 56.989113 229.769784 
L 62.057304 232.07546 
L 54.683437 232.07546 
L 42.765865 232.07546 
M 155.154629 41.3943 
L 153.932216 42.17594 
L 150.024017 44.281167 
L 145.039213 45.164368 
L 138.462277 46.161329 
L 138.106445 46.216405 
L 137.827026 46.161329 
L 131.904889 45.018126 
L 126.188872 44.014658 
L 122.483504 42.135374 
L 121.009283 41.3943 
L 126.188872 41.3943 
L 138.106445 41.3943 
L 150.024017 41.3943 
" clip-path="url(#p8e00cb199f)" style="fill: #7c0722"/>
   </g>
   <g id="PathCollection_18">
    <path d="M 42.765865 232.07546 
" clip-path="url(#p8e00cb199f)" style="fill: #67001f"/>
   </g>
   <g id="PolyCollection_1">
    <path d="M 233.447024 60.462416 
L 233.447024 41.3943 
L 328.787604 41.3943 
L 328.787604 60.462416 
L 328.787604 60.462416 
L 233.447024 60.462416 
z
" clip-path="url(#p8e00cb199f)" style="fill: url(#h62cc8ddaff); fill-opacity: 0.3; stroke: #333333; stroke-opacity: 0.3"/>
   </g>
   <g id="PathCollection_19">
    <defs>
     <path id="ma666bd55fa" d="M -0 4.1833 
L 4.1833 0 
L 0 -4.1833 
L -4.1833 -0 
z
" style="stroke: #111827"/>
    </defs>
    <g clip-path="url(#p8e00cb199f)">
     <use xlink:href="#ma666bd55fa" x="233.447024" y="136.73488" style="fill: #34d399; stroke: #111827"/>
    </g>
   </g>
   <g id="matplotlib.axis_1">
    <g id="xtick_1">
     <g id="line2d_1">
      <defs>
       <path id="mc0fca7828b" d="M 0 0 
L 0 3.5 
" style="stroke: #000000; stroke-width: 0.8"/>
      </defs>
      <g>
       <use xlink:href="#mc0fca7828b" x="42.765865" y="232.07546" style="stroke: #000000; stroke-width: 0.8"/>
      </g>
     </g>
     <g id="text_1">
      <!-- 0 -->
      <g transform="translate(39.584615 246.673897) scale(0.1 -0.1)">
       <defs>
        <path id="DejaVuSans-30" d="M 2034 4250 
Q 1547 4250 1301 3770 
Q 1056 3291 1056 2328 
Q 1056 1369 1301 889 
Q 1547 409 2034 409 
Q 2525 409 2770 889 
Q 3016 1369 3016 2328 
Q 3016 3291 2770 3770 
Q 2525 4250 2034 4250 
z
M 2034 4750 
Q 2819 4750 3233 4129 
Q 3647 3509 3647 2328 
Q 3647 1150 3233 529 
Q 2819 -91 2034 -91 
Q 1250 -91 836 529 
Q 422 1150 422 2328 
Q 422 3509 836 4129 
Q 1250 4750 2034 4750 
z
" transform="scale(0.015625)"/>
       </defs>
       <use xlink:href="#DejaVuSans-30"/>
      </g>
     </g>
    </g>
    <g id="xtick_2">
     <g id="line2d_2">
      <g>
       <use xlink:href="#mc0fca7828b" x="90.436155" y="232.07546" style="stroke: #000000; stroke-width: 0.8"/>
      </g>
     </g>
     <g id="text_2">
      <!-- 50 -->
      <g transform="translate(84.073655 246.673897) scale(0.1 -0.1)">
       <defs>
        <path id="DejaVuSans-35" d="M 691 4666 
L 3169 4666 
L 3169 4134 
L 1269 4134 
L 1269 2991 
Q 1406 3038 1543 3061 
Q 1681 3084 1819 3084 
Q 2600 3084 3056 2656 
Q 3513 2228 3513 1497 
Q 3513 744 3044 326 
Q 2575 -91 1722 -91 
Q 1428 -91 1123 -41 
Q 819 9 494 109 
L 494 744 
Q 775 591 1075 516 
Q 1375 441 1709 441 
Q 2250 441 2565 725 
Q 2881 1009 2881 1497 
Q 2881 1984 2565 2268 
Q 2250 2553 1709 2553 
Q 1456 2553 1204 2497 
Q 953 2441 691 2322 
L 691 4666 
z
" transform="scale(0.015625)"/>
       </defs>
       <use xlink:href="#DejaVuSans-35"/>
       <use xlink:href="#DejaVuSans-30" x="63.623047"/>
      </g>
     </g>
    </g>
    <g id="xtick_3">
     <g id="line2d_3">
      <g>
       <use xlink:href="#mc0fca7828b" x="138.106445" y="232.07546" style="stroke: #000000; stroke-width: 0.8"/>
      </g>
     </g>
     <g id="text_3">
      <!-- 100 -->
      <g transform="translate(128.562695 246.673897) scale(0.1 -0.1)">
       <defs>
        <path id="DejaVuSans-31" d="M 794 531 
L 1825 531 
L 1825 4091 
L 703 3866 
L 703 4441 
L 1819 4666 
L 2450 4666 
L 2450 531 
L 3481 531 
L 3481 0 
L 794 0 
L 794 531 
z
" transform="scale(0.015625)"/>
       </defs>
       <use xlink:href="#DejaVuSans-31"/>
       <use xlink:href="#DejaVuSans-30" x="63.623047"/>
       <use xlink:href="#DejaVuSans-30" x="127.246094"/>
      </g>
     </g>
    </g>
    <g id="xtick_4">
     <g id="line2d_4">
      <g>
       <use xlink:href="#mc0fca7828b" x="185.776735" y="232.07546" style="stroke: #000000; stroke-width: 0.8"/>
      </g>
     </g>
     <g id="text_4">
      <!-- 150 -->
      <g transform="translate(176.232985 246.673897) scale(0.1 -0.1)">
       <use xlink:href="#DejaVuSans-31"/>
       <use xlink:href="#DejaVuSans-35" x="63.623047"/>
       <use xlink:href="#DejaVuSans-30" x="127.246094"/>
      </g>
     </g>
    </g>
    <g id="xtick_5">
     <g id="line2d_5">
      <g>
       <use xlink:href="#mc0fca7828b" x="233.447024" y="232.07546" style="stroke: #000000; stroke-width: 0.8"/>
      </g>
     </g>
     <g id="text_5">
      <!-- 200 -->
      <g transform="translate(223.903274 246.673897) scale(0.1 -0.1)">
       <defs>
        <path id="DejaVuSans-32" d="M 1228 531 
L 3431 531 
L 3431 0 
L 469 0 
L 469 531 
Q 828 903 1448 1529 
Q 2069 2156 2228 2338 
Q 2531 2678 2651 2914 
Q 2772 3150 2772 3378 
Q 2772 3750 2511 3984 
Q 2250 4219 1831 4219 
Q 1534 4219 1204 4116 
Q 875 4013 500 3803 
L 500 4441 
Q 881 4594 1212 4672 
Q 1544 4750 1819 4750 
Q 2544 4750 2975 4387 
Q 3406 4025 3406 3419 
Q 3406 3131 3298 2873 
Q 3191 2616 2906 2266 
Q 2828 2175 2409 1742 
Q 1991 1309 1228 531 
z
" transform="scale(0.015625)"/>
       </defs>
       <use xlink:href="#DejaVuSans-32"/>
       <use xlink:href="#DejaVuSans-30" x="63.623047"/>
       <use xlink:href="#DejaVuSans-30" x="127.246094"/>
      </g>
     </g>
    </g>
    <g id="xtick_6">
     <g id="line2d_6">
      <g>
       <use xlink:href="#mc0fca7828b" x="281.117314" y="232.07546" style="stroke: #000000; stroke-width: 0.8"/>
      </g>
     </g>
     <g id="text_6">
      <!-- 250 -->
      <g transform="translate(271.573564 246.673897) scale(0.1 -0.1)">
       <use xlink:href="#DejaVuSans-32"/>
       <use xlink:href="#DejaVuSans-35" x="63.623047"/>
       <use xlink:href="#DejaVuSans-30" x="127.246094"/>
      </g>
     </g>
    </g>
    <g id="xtick_7">
     <g id="line2d_7">
      <g>
       <use xlink:href="#mc0fca7828b" x="328.787604" y="232.07546" style="stroke: #000000; stroke-width: 0.8"/>
      </g>
     </g>
     <g id="text_7">
      <!-- 300 -->
      <g transform="translate(319.243854 246.673897) scale(0.1 -0.1)">
       <defs>
        <path id="DejaVuSans-33" d="M 2597 2516 
Q 3050 2419 3304 2112 
Q 3559 1806 3559 1356 
Q 3559 666 3084 287 
Q 2609 -91 1734 -91 
Q 1441 -91 1130 -33 
Q 819 25 488 141 
L 488 750 
Q 750 597 1062 519 
Q 1375 441 1716 441 
Q 2309 441 2620 675 
Q 2931 909 2931 1356 
Q 2931 1769 2642 2001 
Q 2353 2234 1838 2234 
L 1294 2234 
L 1294 2753 
L 1863 2753 
Q 2328 2753 2575 2939 
Q 2822 3125 2822 3475 
Q 2822 3834 2567 4026 
Q 2313 4219 1838 4219 
Q 1578 4219 1281 4162 
Q 984 4106 628 3988 
L 628 4550 
Q 988 4650 1302 4700 
Q 1616 4750 1894 4750 
Q 2613 4750 3031 4423 
Q 3450 4097 3450 3541 
Q 3450 3153 3228 2886 
Q 3006 2619 2597 2516 
z
" transform="scale(0.015625)"/>
       </defs>
       <use xlink:href="#DejaVuSans-33"/>
       <use xlink:href="#DejaVuSans-30" x="63.623047"/>
       <use xlink:href="#DejaVuSans-30" x="127.246094"/>
      </g>
     </g>
    </g>
    <g id="xtick_8">
     <g id="line2d_8">
      <g>
       <use xlink:href="#mc0fca7828b" x="376.457894" y="232.07546" style="stroke: #000000; stroke-width: 0.8"/>
      </g>
     </g>
     <g id="text_8">
      <!-- 350 -->
      <g transform="translate(366.914144 246.673897) scale(0.1 -0.1)">
       <use xlink:href="#DejaVuSans-33"/>
       <use xlink:href="#DejaVuSans-35" x="63.623047"/>
       <use xlink:href="#DejaVuSans-30" x="127.246094"/>
      </g>
     </g>
    </g>
    <g id="xtick_9">
     <g id="line2d_9">
      <g>
       <use xlink:href="#mc0fca7828b" x="424.128184" y="232.07546" style="stroke: #000000; stroke-width: 0.8"/>
      </g>
     </g>
     <g id="text_9">
      <!-- 400 -->
      <g transform="translate(414.584434 246.673897) scale(0.1 -0.1)">
       <defs>
        <path id="DejaVuSans-34" d="M 2419 4116 
L 825 1625 
L 2419 1625 
L 2419 4116 
z
M 2253 4666 
L 3047 4666 
L 3047 1625 
L 3713 1625 
L 3713 1100 
L 3047 1100 
L 3047 0 
L 2419 0 
L 2419 1100 
L 313 1100 
L 313 1709 
L 2253 4666 
z
" transform="scale(0.015625)"/>
       </defs>
       <use xlink:href="#DejaVuSans-34"/>
       <use xlink:href="#DejaVuSans-30" x="63.623047"/>
       <use xlink:href="#DejaVuSans-30" x="127.246094"/>
      </g>
     </g>
    </g>
    <g id="text_10">
     <!-- x [mm] -->
     <g transform="translate(215.256399 260.352022) scale(0.1 -0.1)">
      <defs>
       <path id="DejaVuSans-78" d="M 3513 3500 
L 2247 1797 
L 3578 0 
L 2900 0 
L 1881 1375 
L 863 0 
L 184 0 
L 1544 1831 
L 300 3500 
L 978 3500 
L 1906 2253 
L 2834 3500 
L 3513 3500 
z
" transform="scale(0.015625)"/>
       <path id="DejaVuSans-20" transform="scale(0.015625)"/>
       <path id="DejaVuSans-5b" d="M 550 4863 
L 1875 4863 
L 1875 4416 
L 1125 4416 
L 1125 -397 
L 1875 -397 
L 1875 -844 
L 550 -844 
L 550 4863 
z
" transform="scale(0.015625)"/>
       <path id="DejaVuSans-6d" d="M 3328 2828 
Q 3544 3216 3844 3400 
Q 4144 3584 4550 3584 
Q 5097 3584 5394 3201 
Q 5691 2819 5691 2113 
L 5691 0 
L 5113 0 
L 5113 2094 
Q 5113 2597 4934 2840 
Q 4756 3084 4391 3084 
Q 3944 3084 3684 2787 
Q 3425 2491 3425 1978 
L 3425 0 
L 2847 0 
L 2847 2094 
Q 2847 2600 2669 2842 
Q 2491 3084 2119 3084 
Q 1678 3084 1418 2786 
Q 1159 2488 1159 1978 
L 1159 0 
L 581 0 
L 581 3500 
L 1159 3500 
L 1159 2956 
Q 1356 3278 1631 3431 
Q 1906 3584 2284 3584 
Q 2666 3584 2933 3390 
Q 3200 3197 3328 2828 
z
" transform="scale(0.015625)"/>
       <path id="DejaVuSans-5d" d="M 1947 4863 
L 1947 -844 
L 622 -844 
L 622 -397 
L 1369 -397 
L 1369 4416 
L 622 4416 
L 622 4863 
L 1947 4863 
z
" transform="scale(0.015625)"/>
      </defs>
      <use xlink:href="#DejaVuSans-78"/>
      <use xlink:href="#DejaVuSans-20" x="59.179688"/>
      <use xlink:href="#DejaVuSans-5b" x="90.966797"/>
      <use xlink:href="#DejaVuSans-6d" x="129.980469"/>
      <use xlink:href="#DejaVuSans-6d" x="227.392578"/>
      <use xlink:href="#DejaVuSans-5d" x="324.804688"/>
     </g>
    </g>
   </g>
   <g id="matplotlib.axis_2">
    <g id="ytick_1">
     <g id="line2d_10">
      <defs>
       <path id="md27810d2c0" d="M 0 0 
L -3.5 0 
" style="stroke: #000000; stroke-width: 0.8"/>
      </defs>
      <g>
       <use xlink:href="#md27810d2c0" x="42.765865" y="41.3943" style="stroke: #000000; stroke-width: 0.8"/>
      </g>
     </g>
     <g id="text_11">
      <!-- 0 -->
      <g transform="translate(29.403365 45.193519) scale(0.1 -0.1)">
       <use xlink:href="#DejaVuSans-30"/>
      </g>
     </g>
    </g>
    <g id="ytick_2">
     <g id="line2d_11">
      <g>
       <use xlink:href="#md27810d2c0" x="42.765865" y="65.229445" style="stroke: #000000; stroke-width: 0.8"/>
      </g>
     </g>
     <g id="text_12">
      <!-- 25 -->
      <g transform="translate(23.040865 69.028664) scale(0.1 -0.1)">
       <use xlink:href="#DejaVuSans-32"/>
       <use xlink:href="#DejaVuSans-35" x="63.623047"/>
      </g>
     </g>
    </g>
    <g id="ytick_3">
     <g id="line2d_12">
      <g>
       <use xlink:href="#md27810d2c0" x="42.765865" y="89.06459" style="stroke: #000000; stroke-width: 0.8"/>
      </g>
     </g>
     <g id="text_13">
      <!-- 50 -->
      <g transform="translate(23.040865 92.863809) scale(0.1 -0.1)">
       <use xlink:href="#DejaVuSans-35"/>
       <use xlink:href="#DejaVuSans-30" x="63.623047"/>
      </g>
     </g>
    </g>
    <g id="ytick_4">
     <g id="line2d_13">
      <g>
       <use xlink:href="#md27810d2c0" x="42.765865" y="112.899735" style="stroke: #000000; stroke-width: 0.8"/>
      </g>
     </g>
     <g id="text_14">
      <!-- 75 -->
      <g transform="translate(23.040865 116.698954) scale(0.1 -0.1)">
       <defs>
        <path id="DejaVuSans-37" d="M 525 4666 
L 3525 4666 
L 3525 4397 
L 1831 0 
L 1172 0 
L 2766 4134 
L 525 4134 
L 525 4666 
z
" transform="scale(0.015625)"/>
       </defs>
       <use xlink:href="#DejaVuSans-37"/>
       <use xlink:href="#DejaVuSans-35" x="63.623047"/>
      </g>
     </g>
    </g>
    <g id="ytick_5">
     <g id="line2d_14">
      <g>
       <use xlink:href="#md27810d2c0" x="42.765865" y="136.73488" style="stroke: #000000; stroke-width: 0.8"/>
      </g>
     </g>
     <g id="text_15">
      <!-- 100 -->
      <g transform="translate(16.678365 140.534099) scale(0.1 -0.1)">
       <use xlink:href="#DejaVuSans-31"/>
       <use xlink:href="#DejaVuSans-30" x="63.623047"/>
       <use xlink:href="#DejaVuSans-30" x="127.246094"/>
      </g>
     </g>
    </g>
    <g id="ytick_6">
     <g id="line2d_15">
      <g>
       <use xlink:href="#md27810d2c0" x="42.765865" y="160.570025" style="stroke: #000000; stroke-width: 0.8"/>
      </g>
     </g>
     <g id="text_16">
      <!-- 125 -->
      <g transform="translate(16.678365 164.369244) scale(0.1 -0.1)">
       <use xlink:href="#DejaVuSans-31"/>
       <use xlink:href="#DejaVuSans-32" x="63.623047"/>
       <use xlink:href="#DejaVuSans-35" x="127.246094"/>
      </g>
     </g>
    </g>
    <g id="ytick_7">
     <g id="line2d_16">
      <g>
       <use xlink:href="#md27810d2c0" x="42.765865" y="184.40517" style="stroke: #000000; stroke-width: 0.8"/>
      </g>
     </g>
     <g id="text_17">
      <!-- 150 -->
      <g transform="translate(16.678365 188.204389) scale(0.1 -0.1)">
       <use xlink:href="#DejaVuSans-31"/>
       <use xlink:href="#DejaVuSans-35" x="63.623047"/>
       <use xlink:href="#DejaVuSans-30" x="127.246094"/>
      </g>
     </g>
    </g>
    <g id="ytick_8">
     <g id="line2d_17">
      <g>
       <use xlink:href="#md27810d2c0" x="42.765865" y="208.240315" style="stroke: #000000; stroke-width: 0.8"/>
      </g>
     </g>
     <g id="text_18">
      <!-- 175 -->
      <g transform="translate(16.678365 212.039534) scale(0.1 -0.1)">
       <use xlink:href="#DejaVuSans-31"/>
       <use xlink:href="#DejaVuSans-37" x="63.623047"/>
       <use xlink:href="#DejaVuSans-35" x="127.246094"/>
      </g>
     </g>
    </g>
    <g id="ytick_9">
     <g id="line2d_18">
      <g>
       <use xlink:href="#md27810d2c0" x="42.765865" y="232.07546" style="stroke: #000000; stroke-width: 0.8"/>
      </g>
     </g>
     <g id="text_19">
      <!-- 200 -->
      <g transform="translate(16.678365 235.874679) scale(0.1 -0.1)">
       <use xlink:href="#DejaVuSans-32"/>
       <use xlink:href="#DejaVuSans-30" x="63.623047"/>
       <use xlink:href="#DejaVuSans-30" x="127.246094"/>
      </g>
     </g>
    </g>
    <g id="text_20">
     <!-- y [mm] -->
     <g transform="translate(10.598678 154.925505) rotate(-90) scale(0.1 -0.1)">
      <defs>
       <path id="DejaVuSans-79" d="M 2059 -325 
Q 1816 -950 1584 -1140 
Q 1353 -1331 966 -1331 
L 506 -1331 
L 506 -850 
L 844 -850 
Q 1081 -850 1212 -737 
Q 1344 -625 1503 -206 
L 1606 56 
L 191 3500 
L 800 3500 
L 1894 763 
L 2988 3500 
L 3597 3500 
L 2059 -325 
z
" transform="scale(0.015625)"/>
      </defs>
      <use xlink:href="#DejaVuSans-79"/>
      <use xlink:href="#DejaVuSans-20" x="59.179688"/>
      <use xlink:href="#DejaVuSans-5b" x="90.966797"/>
      <use xlink:href="#DejaVuSans-6d" x="129.980469"/>
      <use xlink:href="#DejaVuSans-6d" x="227.392578"/>
      <use xlink:href="#DejaVuSans-5d" x="324.804688"/>
     </g>
    </g>
   </g>
   <g id="PathCollection_20">
    <path d="M 42.765865 178.488967 
L 48.612108 178.33384 
L 54.683437 176.82529 
L 63.160373 175.928234 
L 66.60101 175.930162 
L 70.267243 176.15383 
L 88.447122 174.47663 
L 90.436155 174.872441 
L 93.908987 175.96043 
L 108.876961 177.881937 
L 114.2713 182.499309 
L 116.147768 184.40517 
L 121.741633 188.852409 
L 125.428337 196.322742 
L 130.334349 204.094839 
L 131.315204 208.240315 
L 133.279284 215.330726 
L 136.145413 222.118919 
L 137.967077 232.07546 
" clip-path="url(#p8e00cb199f)" style="fill: none; stroke: #263238; stroke-width: 0.55"/>
    <path d="M 424.128184 106.937453 
L 412.575705 112.899735 
L 412.372433 112.996828 
L 412.210612 113.120137 
L 402.097504 121.132958 
L 400.293039 123.478828 
L 397.30332 127.200822 
L 395.062272 129.875544 
L 392.626413 135.034501 
L 391.460449 136.73488 
L 390.784717 137.69858 
L 388.375467 143.506265 
L 387.324612 145.848596 
L 387.239709 146.268938 
L 387.068394 147.053182 
L 383.100304 157.404927 
L 382.509665 160.570025 
L 381.108836 167.836655 
L 378.991324 175.021027 
L 377.637034 184.40517 
L 376.457894 193.766587 
L 376.139482 196.00433 
L 376.095774 196.322742 
L 376.124618 196.656018 
L 375.063463 208.240315 
L 374.514137 218.214131 
L 374.382555 220.157887 
L 374.690439 221.925342 
L 374.559914 232.07546 
" clip-path="url(#p8e00cb199f)" style="fill: none; stroke: #263238; stroke-width: 0.55"/>
    <path d="M 263.720103 232.07546 
L 262.885664 225.761382 
L 262.462293 214.977763 
L 261.390877 208.240315 
L 259.95537 198.995943 
L 259.642217 193.962695 
L 257.923357 184.40517 
L 257.282169 180.426742 
L 256.269701 174.175045 
L 255.784837 172.487597 
L 254.859258 168.449412 
L 253.480073 160.570025 
L 253.085021 157.61663 
L 250.352596 146.489908 
L 250.325376 146.268938 
L 250.315472 146.146374 
L 250.131626 145.320805 
L 248.289066 137.963254 
L 247.725377 136.73488 
L 246.838833 134.539685 
L 245.892681 130.026785 
L 244.54232 127.200822 
L 242.981082 123.05548 
L 242.162519 121.278124 
L 240.459074 120.050279 
L 236.606804 115.31061 
L 233.447024 114.82621 
L 230.43014 115.524952 
L 227.109419 115.2556 
L 223.912967 116.381205 
L 221.676542 117.813854 
L 215.697233 120.050279 
L 210.935538 121.373937 
L 209.61188 121.564945 
L 204.163088 123.319553 
L 197.694307 125.804849 
L 196.407861 126.428955 
L 193.749541 127.200822 
L 185.776735 129.563223 
L 182.380695 130.609435 
L 173.859162 132.76391 
L 167.104417 134.032982 
L 161.94159 134.998449 
L 152.226373 135.853938 
L 150.024017 136.045972 
L 147.450536 135.705488 
L 138.106445 134.911887 
L 134.093992 133.572832 
L 126.188872 130.04576 
L 123.936777 128.10166 
L 123.178725 127.200822 
L 117.524235 122.00204 
L 114.803655 119.730865 
L 114.2713 119.227766 
L 109.420144 112.899735 
L 105.952003 109.301459 
L 102.353727 105.479404 
L 96.073521 95.344797 
L 92.236711 89.06459 
L 90.436155 86.670721 
L 87.381465 81.974284 
L 81.408355 72.308293 
L 79.864361 69.996474 
L 79.564924 69.577938 
L 78.518582 68.023351 
L 74.819317 61.942123 
L 73.978048 60.462416 
L 73.374033 59.433506 
L 71.861922 57.026719 
L 71.080943 55.695387 
L 70.07608 54.006887 
L 69.292498 52.773575 
L 68.200419 50.928358 
L 66.798729 48.584388 
L 66.75393 48.51426 
L 66.60101 48.255854 
L 65.399385 46.161329 
L 64.28928 44.240161 
L 63.729725 43.203558 
L 62.695127 41.3943 
" clip-path="url(#p8e00cb199f)" style="fill: none; stroke: #263238; stroke-width: 0.55"/>
    <path d="M 250.131626 60.462416 
L 242.981082 60.462416 
L 238.214053 60.462416 
L 241.857129 65.229445 
L 241.950544 66.259983 
L 242.981082 69.732608 
L 243.394792 69.996474 
L 249.245405 71.178102 
L 251.009055 71.16638 
L 254.329292 69.996474 
L 256.150256 65.984054 
L 250.131626 60.462416 
z
" clip-path="url(#p8e00cb199f)" style="fill: none; stroke: #263238; stroke-width: 0.55"/>
   </g>
   <g id="patch_3">
    <path d="M 42.765865 232.07546 
L 42.765865 41.3943 
" style="fill: none; stroke: #000000; stroke-width: 0.8; stroke-linejoin: miter; stroke-linecap: square"/>
   </g>
   <g id="patch_4">
    <path d="M 424.128184 232.07546 
L 424.128184 41.3943 
" style="fill: none; stroke: #000000; stroke-width: 0.8; stroke-linejoin: miter; stroke-linecap: square"/>
   </g>
   <g id="patch_5">
    <path d="M 42.765865 232.07546 
L 424.128184 232.07546 
" style="fill: none; stroke: #000000; stroke-width: 0.8; stroke-linejoin: miter; stroke-linecap: square"/>
   </g>
   <g id="patch_6">
    <path d="M 42.765865 41.3943 
L 424.128184 41.3943 
" style="fill: none; stroke: #000000; stroke-width: 0.8; stroke-linejoin: miter; stroke-linecap: square"/>
   </g>
   <g id="text_21">
    <!-- CalculiX C3D20R — Mode 8: 156.10 Hz -->
    <g transform="translate(116.652337 35.3943) scale(0.12 -0.12)">
     <defs>
      <path id="DejaVuSans-43" d="M 4122 4306 
L 4122 3641 
Q 3803 3938 3442 4084 
Q 3081 4231 2675 4231 
Q 1875 4231 1450 3742 
Q 1025 3253 1025 2328 
Q 1025 1406 1450 917 
Q 1875 428 2675 428 
Q 3081 428 3442 575 
Q 3803 722 4122 1019 
L 4122 359 
Q 3791 134 3420 21 
Q 3050 -91 2638 -91 
Q 1578 -91 968 557 
Q 359 1206 359 2328 
Q 359 3453 968 4101 
Q 1578 4750 2638 4750 
Q 3056 4750 3426 4639 
Q 3797 4528 4122 4306 
z
" transform="scale(0.015625)"/>
      <path id="DejaVuSans-61" d="M 2194 1759 
Q 1497 1759 1228 1600 
Q 959 1441 959 1056 
Q 959 750 1161 570 
Q 1363 391 1709 391 
Q 2188 391 2477 730 
Q 2766 1069 2766 1631 
L 2766 1759 
L 2194 1759 
z
M 3341 1997 
L 3341 0 
L 2766 0 
L 2766 531 
Q 2569 213 2275 61 
Q 1981 -91 1556 -91 
Q 1019 -91 701 211 
Q 384 513 384 1019 
Q 384 1609 779 1909 
Q 1175 2209 1959 2209 
L 2766 2209 
L 2766 2266 
Q 2766 2663 2505 2880 
Q 2244 3097 1772 3097 
Q 1472 3097 1187 3025 
Q 903 2953 641 2809 
L 641 3341 
Q 956 3463 1253 3523 
Q 1550 3584 1831 3584 
Q 2591 3584 2966 3190 
Q 3341 2797 3341 1997 
z
" transform="scale(0.015625)"/>
      <path id="DejaVuSans-6c" d="M 603 4863 
L 1178 4863 
L 1178 0 
L 603 0 
L 603 4863 
z
" transform="scale(0.015625)"/>
      <path id="DejaVuSans-63" d="M 3122 3366 
L 3122 2828 
Q 2878 2963 2633 3030 
Q 2388 3097 2138 3097 
Q 1578 3097 1268 2742 
Q 959 2388 959 1747 
Q 959 1106 1268 751 
Q 1578 397 2138 397 
Q 2388 397 2633 464 
Q 2878 531 3122 666 
L 3122 134 
Q 2881 22 2623 -34 
Q 2366 -91 2075 -91 
Q 1284 -91 818 406 
Q 353 903 353 1747 
Q 353 2603 823 3093 
Q 1294 3584 2113 3584 
Q 2378 3584 2631 3529 
Q 2884 3475 3122 3366 
z
" transform="scale(0.015625)"/>
      <path id="DejaVuSans-75" d="M 544 1381 
L 544 3500 
L 1119 3500 
L 1119 1403 
Q 1119 906 1312 657 
Q 1506 409 1894 409 
Q 2359 409 2629 706 
Q 2900 1003 2900 1516 
L 2900 3500 
L 3475 3500 
L 3475 0 
L 2900 0 
L 2900 538 
Q 2691 219 2414 64 
Q 2138 -91 1772 -91 
Q 1169 -91 856 284 
Q 544 659 544 1381 
z
M 1991 3584 
L 1991 3584 
z
" transform="scale(0.015625)"/>
      <path id="DejaVuSans-69" d="M 603 3500 
L 1178 3500 
L 1178 0 
L 603 0 
L 603 3500 
z
M 603 4863 
L 1178 4863 
L 1178 4134 
L 603 4134 
L 603 4863 
z
" transform="scale(0.015625)"/>
      <path id="DejaVuSans-58" d="M 403 4666 
L 1081 4666 
L 2241 2931 
L 3406 4666 
L 4084 4666 
L 2584 2425 
L 4184 0 
L 3506 0 
L 2194 1984 
L 872 0 
L 191 0 
L 1856 2491 
L 403 4666 
z
" transform="scale(0.015625)"/>
      <path id="DejaVuSans-44" d="M 1259 4147 
L 1259 519 
L 2022 519 
Q 2988 519 3436 956 
Q 3884 1394 3884 2338 
Q 3884 3275 3436 3711 
Q 2988 4147 2022 4147 
L 1259 4147 
z
M 628 4666 
L 1925 4666 
Q 3281 4666 3915 4102 
Q 4550 3538 4550 2338 
Q 4550 1131 3912 565 
Q 3275 0 1925 0 
L 628 0 
L 628 4666 
z
" transform="scale(0.015625)"/>
      <path id="DejaVuSans-52" d="M 2841 2188 
Q 3044 2119 3236 1894 
Q 3428 1669 3622 1275 
L 4263 0 
L 3584 0 
L 2988 1197 
Q 2756 1666 2539 1819 
Q 2322 1972 1947 1972 
L 1259 1972 
L 1259 0 
L 628 0 
L 628 4666 
L 2053 4666 
Q 2853 4666 3247 4331 
Q 3641 3997 3641 3322 
Q 3641 2881 3436 2590 
Q 3231 2300 2841 2188 
z
M 1259 4147 
L 1259 2491 
L 2053 2491 
Q 2509 2491 2742 2702 
Q 2975 2913 2975 3322 
Q 2975 3731 2742 3939 
Q 2509 4147 2053 4147 
L 1259 4147 
z
" transform="scale(0.015625)"/>
      <path id="DejaVuSans-2014" d="M 313 1978 
L 6088 1978 
L 6088 1528 
L 313 1528 
L 313 1978 
z
" transform="scale(0.015625)"/>
      <path id="DejaVuSans-4d" d="M 628 4666 
L 1569 4666 
L 2759 1491 
L 3956 4666 
L 4897 4666 
L 4897 0 
L 4281 0 
L 4281 4097 
L 3078 897 
L 2444 897 
L 1241 4097 
L 1241 0 
L 628 0 
L 628 4666 
z
" transform="scale(0.015625)"/>
      <path id="DejaVuSans-6f" d="M 1959 3097 
Q 1497 3097 1228 2736 
Q 959 2375 959 1747 
Q 959 1119 1226 758 
Q 1494 397 1959 397 
Q 2419 397 2687 759 
Q 2956 1122 2956 1747 
Q 2956 2369 2687 2733 
Q 2419 3097 1959 3097 
z
M 1959 3584 
Q 2709 3584 3137 3096 
Q 3566 2609 3566 1747 
Q 3566 888 3137 398 
Q 2709 -91 1959 -91 
Q 1206 -91 779 398 
Q 353 888 353 1747 
Q 353 2609 779 3096 
Q 1206 3584 1959 3584 
z
" transform="scale(0.015625)"/>
      <path id="DejaVuSans-64" d="M 2906 2969 
L 2906 4863 
L 3481 4863 
L 3481 0 
L 2906 0 
L 2906 525 
Q 2725 213 2448 61 
Q 2172 -91 1784 -91 
Q 1150 -91 751 415 
Q 353 922 353 1747 
Q 353 2572 751 3078 
Q 1150 3584 1784 3584 
Q 2172 3584 2448 3432 
Q 2725 3281 2906 2969 
z
M 947 1747 
Q 947 1113 1208 752 
Q 1469 391 1925 391 
Q 2381 391 2643 752 
Q 2906 1113 2906 1747 
Q 2906 2381 2643 2742 
Q 2381 3103 1925 3103 
Q 1469 3103 1208 2742 
Q 947 2381 947 1747 
z
" transform="scale(0.015625)"/>
      <path id="DejaVuSans-65" d="M 3597 1894 
L 3597 1613 
L 953 1613 
Q 991 1019 1311 708 
Q 1631 397 2203 397 
Q 2534 397 2845 478 
Q 3156 559 3463 722 
L 3463 178 
Q 3153 47 2828 -22 
Q 2503 -91 2169 -91 
Q 1331 -91 842 396 
Q 353 884 353 1716 
Q 353 2575 817 3079 
Q 1281 3584 2069 3584 
Q 2775 3584 3186 3129 
Q 3597 2675 3597 1894 
z
M 3022 2063 
Q 3016 2534 2758 2815 
Q 2500 3097 2075 3097 
Q 1594 3097 1305 2825 
Q 1016 2553 972 2059 
L 3022 2063 
z
" transform="scale(0.015625)"/>
      <path id="DejaVuSans-38" d="M 2034 2216 
Q 1584 2216 1326 1975 
Q 1069 1734 1069 1313 
Q 1069 891 1326 650 
Q 1584 409 2034 409 
Q 2484 409 2743 651 
Q 3003 894 3003 1313 
Q 3003 1734 2745 1975 
Q 2488 2216 2034 2216 
z
M 1403 2484 
Q 997 2584 770 2862 
Q 544 3141 544 3541 
Q 544 4100 942 4425 
Q 1341 4750 2034 4750 
Q 2731 4750 3128 4425 
Q 3525 4100 3525 3541 
Q 3525 3141 3298 2862 
Q 3072 2584 2669 2484 
Q 3125 2378 3379 2068 
Q 3634 1759 3634 1313 
Q 3634 634 3220 271 
Q 2806 -91 2034 -91 
Q 1263 -91 848 271 
Q 434 634 434 1313 
Q 434 1759 690 2068 
Q 947 2378 1403 2484 
z
M 1172 3481 
Q 1172 3119 1398 2916 
Q 1625 2713 2034 2713 
Q 2441 2713 2670 2916 
Q 2900 3119 2900 3481 
Q 2900 3844 2670 4047 
Q 2441 4250 2034 4250 
Q 1625 4250 1398 4047 
Q 1172 3844 1172 3481 
z
" transform="scale(0.015625)"/>
      <path id="DejaVuSans-3a" d="M 750 794 
L 1409 794 
L 1409 0 
L 750 0 
L 750 794 
z
M 750 3309 
L 1409 3309 
L 1409 2516 
L 750 2516 
L 750 3309 
z
" transform="scale(0.015625)"/>
      <path id="DejaVuSans-36" d="M 2113 2584 
Q 1688 2584 1439 2293 
Q 1191 2003 1191 1497 
Q 1191 994 1439 701 
Q 1688 409 2113 409 
Q 2538 409 2786 701 
Q 3034 994 3034 1497 
Q 3034 2003 2786 2293 
Q 2538 2584 2113 2584 
z
M 3366 4563 
L 3366 3988 
Q 3128 4100 2886 4159 
Q 2644 4219 2406 4219 
Q 1781 4219 1451 3797 
Q 1122 3375 1075 2522 
Q 1259 2794 1537 2939 
Q 1816 3084 2150 3084 
Q 2853 3084 3261 2657 
Q 3669 2231 3669 1497 
Q 3669 778 3244 343 
Q 2819 -91 2113 -91 
Q 1303 -91 875 529 
Q 447 1150 447 2328 
Q 447 3434 972 4092 
Q 1497 4750 2381 4750 
Q 2619 4750 2861 4703 
Q 3103 4656 3366 4563 
z
" transform="scale(0.015625)"/>
      <path id="DejaVuSans-2e" d="M 684 794 
L 1344 794 
L 1344 0 
L 684 0 
L 684 794 
z
" transform="scale(0.015625)"/>
      <path id="DejaVuSans-48" d="M 628 4666 
L 1259 4666 
L 1259 2753 
L 3553 2753 
L 3553 4666 
L 4184 4666 
L 4184 0 
L 3553 0 
L 3553 2222 
L 1259 2222 
L 1259 0 
L 628 0 
L 628 4666 
z
" transform="scale(0.015625)"/>
      <path id="DejaVuSans-7a" d="M 353 3500 
L 3084 3500 
L 3084 2975 
L 922 459 
L 3084 459 
L 3084 0 
L 275 0 
L 275 525 
L 2438 3041 
L 353 3041 
L 353 3500 
z
" transform="scale(0.015625)"/>
     </defs>
     <use xlink:href="#DejaVuSans-43"/>
     <use xlink:href="#DejaVuSans-61" x="69.824219"/>
     <use xlink:href="#DejaVuSans-6c" x="131.103516"/>
     <use xlink:href="#DejaVuSans-63" x="158.886719"/>
     <use xlink:href="#DejaVuSans-75" x="213.867188"/>
     <use xlink:href="#DejaVuSans-6c" x="277.246094"/>
     <use xlink:href="#DejaVuSans-69" x="305.029297"/>
     <use xlink:href="#DejaVuSans-58" x="332.8125"/>
     <use xlink:href="#DejaVuSans-20" x="401.318359"/>
     <use xlink:href="#DejaVuSans-43" x="433.105469"/>
     <use xlink:href="#DejaVuSans-33" x="502.929688"/>
     <use xlink:href="#DejaVuSans-44" x="566.552734"/>
     <use xlink:href="#DejaVuSans-32" x="643.554688"/>
     <use xlink:href="#DejaVuSans-30" x="707.177734"/>
     <use xlink:href="#DejaVuSans-52" x="770.800781"/>
     <use xlink:href="#DejaVuSans-20" x="840.283203"/>
     <use xlink:href="#DejaVuSans-2014" x="872.070312"/>
     <use xlink:href="#DejaVuSans-20" x="972.070312"/>
     <use xlink:href="#DejaVuSans-4d" x="1003.857422"/>
     <use xlink:href="#DejaVuSans-6f" x="1090.136719"/>
     <use xlink:href="#DejaVuSans-64" x="1151.318359"/>
     <use xlink:href="#DejaVuSans-65" x="1214.794922"/>
     <use xlink:href="#DejaVuSans-20" x="1276.318359"/>
     <use xlink:href="#DejaVuSans-38" x="1308.105469"/>
     <use xlink:href="#DejaVuSans-3a" x="1371.728516"/>
     <use xlink:href="#DejaVuSans-20" x="1405.419922"/>
     <use xlink:href="#DejaVuSans-31" x="1437.207031"/>
     <use xlink:href="#DejaVuSans-35" x="1500.830078"/>
     <use xlink:href="#DejaVuSans-36" x="1564.453125"/>
     <use xlink:href="#DejaVuSans-2e" x="1628.076172"/>
     <use xlink:href="#DejaVuSans-31" x="1659.863281"/>
     <use xlink:href="#DejaVuSans-30" x="1723.486328"/>
     <use xlink:href="#DejaVuSans-20" x="1787.109375"/>
     <use xlink:href="#DejaVuSans-48" x="1818.896484"/>
     <use xlink:href="#DejaVuSans-7a" x="1894.091797"/>
    </g>
   </g>
  </g>
  <g id="axes_2">
   <g id="patch_7">
    <path d="M 452.74005 231.564898 
L 463.171352 231.564898 
L 463.171352 41.904863 
L 452.74005 41.904863 
z
" style="fill: #ffffff"/>
   </g>
   <g id="patch_8">
    <path clip-path="url(#p9dc97812af)" style="fill: #ffffff; stroke: #ffffff; stroke-width: 0.01; stroke-linejoin: miter"/>
   </g>
   <g id="patch_9">
    <path d="M 452.74005 231.564898 
L 457.955701 241.047899 
L 463.171352 231.564898 
" style="fill: #053061"/>
   </g>
   <g id="patch_10">
    <path d="M 452.74005 41.904863 
L 457.955701 32.421861 
L 463.171352 41.904863 
" style="fill: #67001f"/>
   </g>
   <g id="QuadMesh_1">
    <path d="M 452.74005 231.564898 
L 463.171352 231.564898 
L 463.171352 219.711145 
L 452.74005 219.711145 
L 452.74005 231.564898 
" clip-path="url(#p9dc97812af)" style="fill: #0e4179"/>
    <path d="M 452.74005 219.711145 
L 463.171352 219.711145 
L 463.171352 207.857393 
L 452.74005 207.857393 
L 452.74005 219.711145 
" clip-path="url(#p9dc97812af)" style="fill: #1f63a8"/>
    <path d="M 452.74005 207.857393 
L 463.171352 207.857393 
L 463.171352 196.003641 
L 452.74005 196.003641 
L 452.74005 207.857393 
" clip-path="url(#p9dc97812af)" style="fill: #3480b9"/>
    <path d="M 452.74005 196.003641 
L 463.171352 196.003641 
L 463.171352 184.149889 
L 452.74005 184.149889 
L 452.74005 196.003641 
" clip-path="url(#p9dc97812af)" style="fill: #529dc8"/>
    <path d="M 452.74005 184.149889 
L 463.171352 184.149889 
L 463.171352 172.296137 
L 452.74005 172.296137 
L 452.74005 184.149889 
" clip-path="url(#p9dc97812af)" style="fill: #84bcd9"/>
    <path d="M 452.74005 172.296137 
L 463.171352 172.296137 
L 463.171352 160.442384 
L 452.74005 160.442384 
L 452.74005 172.296137 
" clip-path="url(#p9dc97812af)" style="fill: #aed3e6"/>
    <path d="M 452.74005 160.442384 
L 463.171352 160.442384 
L 463.171352 148.588632 
L 452.74005 148.588632 
L 452.74005 160.442384 
" clip-path="url(#p9dc97812af)" style="fill: #d4e6f1"/>
    <path d="M 452.74005 148.588632 
L 463.171352 148.588632 
L 463.171352 136.73488 
L 452.74005 136.73488 
L 452.74005 148.588632 
" clip-path="url(#p9dc97812af)" style="fill: #ecf2f5"/>
    <path d="M 452.74005 136.73488 
L 463.171352 136.73488 
L 463.171352 124.881128 
L 452.74005 124.881128 
L 452.74005 136.73488 
" clip-path="url(#p9dc97812af)" style="fill: #f9eee7"/>
    <path d="M 452.74005 124.881128 
L 463.171352 124.881128 
L 463.171352 113.027376 
L 452.74005 113.027376 
L 452.74005 124.881128 
" clip-path="url(#p9dc97812af)" style="fill: #fddcc9"/>
    <path d="M 452.74005 113.027376 
L 463.171352 113.027376 
L 463.171352 101.173624 
L 452.74005 101.173624 
L 452.74005 113.027376 
" clip-path="url(#p9dc97812af)" style="fill: #f8bb9e"/>
    <path d="M 452.74005 101.173624 
L 463.171352 101.173624 
L 463.171352 89.319871 
L 452.74005 89.319871 
L 452.74005 101.173624 
" clip-path="url(#p9dc97812af)" style="fill: #ee9677"/>
    <path d="M 452.74005 89.319871 
L 463.171352 89.319871 
L 463.171352 77.466119 
L 452.74005 77.466119 
L 452.74005 89.319871 
" clip-path="url(#p9dc97812af)" style="fill: #db6b55"/>
    <path d="M 452.74005 77.466119 
L 463.171352 77.466119 
L 463.171352 65.612367 
L 452.74005 65.612367 
L 452.74005 77.466119 
" clip-path="url(#p9dc97812af)" style="fill: #c53e3d"/>
    <path d="M 452.74005 65.612367 
L 463.171352 65.612367 
L 463.171352 53.758615 
L 452.74005 53.758615 
L 452.74005 65.612367 
" clip-path="url(#p9dc97812af)" style="fill: #ab162a"/>
    <path d="M 452.74005 53.758615 
L 463.171352 53.758615 
L 463.171352 41.904863 
L 452.74005 41.904863 
L 452.74005 53.758615 
" clip-path="url(#p9dc97812af)" style="fill: #7c0722"/>
   </g>
   <g id="matplotlib.axis_3"/>
   <g id="matplotlib.axis_4">
    <g id="ytick_10">
     <g id="line2d_19">
      <defs>
       <path id="me7904df1d5" d="M 0 0 
L 3.5 0 
" style="stroke: #000000; stroke-width: 0.8"/>
      </defs>
      <g>
       <use xlink:href="#me7904df1d5" x="463.171352" y="231.564898" style="stroke: #000000; stroke-width: 0.8"/>
      </g>
     </g>
     <g id="text_22">
      <!-- −1.00 -->
      <g transform="translate(470.171352 235.364116) scale(0.1 -0.1)">
       <defs>
        <path id="DejaVuSans-2212" d="M 678 2272 
L 4684 2272 
L 4684 1741 
L 678 1741 
L 678 2272 
z
" transform="scale(0.015625)"/>
       </defs>
       <use xlink:href="#DejaVuSans-2212"/>
       <use xlink:href="#DejaVuSans-31" x="83.789062"/>
       <use xlink:href="#DejaVuSans-2e" x="147.412109"/>
       <use xlink:href="#DejaVuSans-30" x="179.199219"/>
       <use xlink:href="#DejaVuSans-30" x="242.822266"/>
      </g>
     </g>
    </g>
    <g id="ytick_11">
     <g id="line2d_20">
      <g>
       <use xlink:href="#me7904df1d5" x="463.171352" y="207.857393" style="stroke: #000000; stroke-width: 0.8"/>
      </g>
     </g>
     <g id="text_23">
      <!-- −0.75 -->
      <g transform="translate(470.171352 211.656612) scale(0.1 -0.1)">
       <use xlink:href="#DejaVuSans-2212"/>
       <use xlink:href="#DejaVuSans-30" x="83.789062"/>
       <use xlink:href="#DejaVuSans-2e" x="147.412109"/>
       <use xlink:href="#DejaVuSans-37" x="179.199219"/>
       <use xlink:href="#DejaVuSans-35" x="242.822266"/>
      </g>
     </g>
    </g>
    <g id="ytick_12">
     <g id="line2d_21">
      <g>
       <use xlink:href="#me7904df1d5" x="463.171352" y="184.149889" style="stroke: #000000; stroke-width: 0.8"/>
      </g>
     </g>
     <g id="text_24">
      <!-- −0.50 -->
      <g transform="translate(470.171352 187.949108) scale(0.1 -0.1)">
       <use xlink:href="#DejaVuSans-2212"/>
       <use xlink:href="#DejaVuSans-30" x="83.789062"/>
       <use xlink:href="#DejaVuSans-2e" x="147.412109"/>
       <use xlink:href="#DejaVuSans-35" x="179.199219"/>
       <use xlink:href="#DejaVuSans-30" x="242.822266"/>
      </g>
     </g>
    </g>
    <g id="ytick_13">
     <g id="line2d_22">
      <g>
       <use xlink:href="#me7904df1d5" x="463.171352" y="160.442384" style="stroke: #000000; stroke-width: 0.8"/>
      </g>
     </g>
     <g id="text_25">
      <!-- −0.25 -->
      <g transform="translate(470.171352 164.241603) scale(0.1 -0.1)">
       <use xlink:href="#DejaVuSans-2212"/>
       <use xlink:href="#DejaVuSans-30" x="83.789062"/>
       <use xlink:href="#DejaVuSans-2e" x="147.412109"/>
       <use xlink:href="#DejaVuSans-32" x="179.199219"/>
       <use xlink:href="#DejaVuSans-35" x="242.822266"/>
      </g>
     </g>
    </g>
    <g id="ytick_14">
     <g id="line2d_23">
      <g>
       <use xlink:href="#me7904df1d5" x="463.171352" y="136.73488" style="stroke: #000000; stroke-width: 0.8"/>
      </g>
     </g>
     <g id="text_26">
      <!-- 0.00 -->
      <g transform="translate(470.171352 140.534099) scale(0.1 -0.1)">
       <use xlink:href="#DejaVuSans-30"/>
       <use xlink:href="#DejaVuSans-2e" x="63.623047"/>
       <use xlink:href="#DejaVuSans-30" x="95.410156"/>
       <use xlink:href="#DejaVuSans-30" x="159.033203"/>
      </g>
     </g>
    </g>
    <g id="ytick_15">
     <g id="line2d_24">
      <g>
       <use xlink:href="#me7904df1d5" x="463.171352" y="113.027376" style="stroke: #000000; stroke-width: 0.8"/>
      </g>
     </g>
     <g id="text_27">
      <!-- 0.25 -->
      <g transform="translate(470.171352 116.826594) scale(0.1 -0.1)">
       <use xlink:href="#DejaVuSans-30"/>
       <use xlink:href="#DejaVuSans-2e" x="63.623047"/>
       <use xlink:href="#DejaVuSans-32" x="95.410156"/>
       <use xlink:href="#DejaVuSans-35" x="159.033203"/>
      </g>
     </g>
    </g>
    <g id="ytick_16">
     <g id="line2d_25">
      <g>
       <use xlink:href="#me7904df1d5" x="463.171352" y="89.319871" style="stroke: #000000; stroke-width: 0.8"/>
      </g>
     </g>
     <g id="text_28">
      <!-- 0.50 -->
      <g transform="translate(470.171352 93.11909) scale(0.1 -0.1)">
       <use xlink:href="#DejaVuSans-30"/>
       <use xlink:href="#DejaVuSans-2e" x="63.623047"/>
       <use xlink:href="#DejaVuSans-35" x="95.410156"/>
       <use xlink:href="#DejaVuSans-30" x="159.033203"/>
      </g>
     </g>
    </g>
    <g id="ytick_17">
     <g id="line2d_26">
      <g>
       <use xlink:href="#me7904df1d5" x="463.171352" y="65.612367" style="stroke: #000000; stroke-width: 0.8"/>
      </g>
     </g>
     <g id="text_29">
      <!-- 0.75 -->
      <g transform="translate(470.171352 69.411586) scale(0.1 -0.1)">
       <use xlink:href="#DejaVuSans-30"/>
       <use xlink:href="#DejaVuSans-2e" x="63.623047"/>
       <use xlink:href="#DejaVuSans-37" x="95.410156"/>
       <use xlink:href="#DejaVuSans-35" x="159.033203"/>
      </g>
     </g>
    </g>
    <g id="ytick_18">
     <g id="line2d_27">
      <g>
       <use xlink:href="#me7904df1d5" x="463.171352" y="41.904863" style="stroke: #000000; stroke-width: 0.8"/>
      </g>
     </g>
     <g id="text_30">
      <!-- 1.00 -->
      <g transform="translate(470.171352 45.704081) scale(0.1 -0.1)">
       <use xlink:href="#DejaVuSans-31"/>
       <use xlink:href="#DejaVuSans-2e" x="63.623047"/>
       <use xlink:href="#DejaVuSans-30" x="95.410156"/>
       <use xlink:href="#DejaVuSans-30" x="159.033203"/>
      </g>
     </g>
    </g>
    <g id="text_31">
     <!-- normalized z displacement -->
     <g transform="translate(512.415102 204.017693) rotate(-90) scale(0.1 -0.1)">
      <defs>
       <path id="DejaVuSans-6e" d="M 3513 2113 
L 3513 0 
L 2938 0 
L 2938 2094 
Q 2938 2591 2744 2837 
Q 2550 3084 2163 3084 
Q 1697 3084 1428 2787 
Q 1159 2491 1159 1978 
L 1159 0 
L 581 0 
L 581 3500 
L 1159 3500 
L 1159 2956 
Q 1366 3272 1645 3428 
Q 1925 3584 2291 3584 
Q 2894 3584 3203 3211 
Q 3513 2838 3513 2113 
z
" transform="scale(0.015625)"/>
       <path id="DejaVuSans-72" d="M 2631 2963 
Q 2534 3019 2420 3045 
Q 2306 3072 2169 3072 
Q 1681 3072 1420 2755 
Q 1159 2438 1159 1844 
L 1159 0 
L 581 0 
L 581 3500 
L 1159 3500 
L 1159 2956 
Q 1341 3275 1631 3429 
Q 1922 3584 2338 3584 
Q 2397 3584 2469 3576 
Q 2541 3569 2628 3553 
L 2631 2963 
z
" transform="scale(0.015625)"/>
       <path id="DejaVuSans-73" d="M 2834 3397 
L 2834 2853 
Q 2591 2978 2328 3040 
Q 2066 3103 1784 3103 
Q 1356 3103 1142 2972 
Q 928 2841 928 2578 
Q 928 2378 1081 2264 
Q 1234 2150 1697 2047 
L 1894 2003 
Q 2506 1872 2764 1633 
Q 3022 1394 3022 966 
Q 3022 478 2636 193 
Q 2250 -91 1575 -91 
Q 1294 -91 989 -36 
Q 684 19 347 128 
L 347 722 
Q 666 556 975 473 
Q 1284 391 1588 391 
Q 1994 391 2212 530 
Q 2431 669 2431 922 
Q 2431 1156 2273 1281 
Q 2116 1406 1581 1522 
L 1381 1569 
Q 847 1681 609 1914 
Q 372 2147 372 2553 
Q 372 3047 722 3315 
Q 1072 3584 1716 3584 
Q 2034 3584 2315 3537 
Q 2597 3491 2834 3397 
z
" transform="scale(0.015625)"/>
       <path id="DejaVuSans-70" d="M 1159 525 
L 1159 -1331 
L 581 -1331 
L 581 3500 
L 1159 3500 
L 1159 2969 
Q 1341 3281 1617 3432 
Q 1894 3584 2278 3584 
Q 2916 3584 3314 3078 
Q 3713 2572 3713 1747 
Q 3713 922 3314 415 
Q 2916 -91 2278 -91 
Q 1894 -91 1617 61 
Q 1341 213 1159 525 
z
M 3116 1747 
Q 3116 2381 2855 2742 
Q 2594 3103 2138 3103 
Q 1681 3103 1420 2742 
Q 1159 2381 1159 1747 
Q 1159 1113 1420 752 
Q 1681 391 2138 391 
Q 2594 391 2855 752 
Q 3116 1113 3116 1747 
z
" transform="scale(0.015625)"/>
       <path id="DejaVuSans-74" d="M 1172 4494 
L 1172 3500 
L 2356 3500 
L 2356 3053 
L 1172 3053 
L 1172 1153 
Q 1172 725 1289 603 
Q 1406 481 1766 481 
L 2356 481 
L 2356 0 
L 1766 0 
Q 1100 0 847 248 
Q 594 497 594 1153 
L 594 3053 
L 172 3053 
L 172 3500 
L 594 3500 
L 594 4494 
L 1172 4494 
z
" transform="scale(0.015625)"/>
      </defs>
      <use xlink:href="#DejaVuSans-6e"/>
      <use xlink:href="#DejaVuSans-6f" x="63.378906"/>
      <use xlink:href="#DejaVuSans-72" x="124.560547"/>
      <use xlink:href="#DejaVuSans-6d" x="163.923828"/>
      <use xlink:href="#DejaVuSans-61" x="261.335938"/>
      <use xlink:href="#DejaVuSans-6c" x="322.615234"/>
      <use xlink:href="#DejaVuSans-69" x="350.398438"/>
      <use xlink:href="#DejaVuSans-7a" x="378.181641"/>
      <use xlink:href="#DejaVuSans-65" x="430.671875"/>
      <use xlink:href="#DejaVuSans-64" x="492.195312"/>
      <use xlink:href="#DejaVuSans-20" x="555.671875"/>
      <use xlink:href="#DejaVuSans-7a" x="587.458984"/>
      <use xlink:href="#DejaVuSans-20" x="639.949219"/>
      <use xlink:href="#DejaVuSans-64" x="671.736328"/>
      <use xlink:href="#DejaVuSans-69" x="735.212891"/>
      <use xlink:href="#DejaVuSans-73" x="762.996094"/>
      <use xlink:href="#DejaVuSans-70" x="815.095703"/>
      <use xlink:href="#DejaVuSans-6c" x="878.572266"/>
      <use xlink:href="#DejaVuSans-61" x="906.355469"/>
      <use xlink:href="#DejaVuSans-63" x="967.634766"/>
      <use xlink:href="#DejaVuSans-65" x="1022.615234"/>
      <use xlink:href="#DejaVuSans-6d" x="1084.138672"/>
      <use xlink:href="#DejaVuSans-65" x="1181.550781"/>
      <use xlink:href="#DejaVuSans-6e" x="1243.074219"/>
      <use xlink:href="#DejaVuSans-74" x="1306.453125"/>
     </g>
    </g>
   </g>
   <g id="LineCollection_1"/>
   <g id="patch_11">
    <path d="M 452.74005 231.564898 
L 457.955701 241.047899 
L 463.171352 231.564898 
L 463.171352 41.904863 
L 457.955701 32.421861 
L 452.74005 41.904863 
L 452.74005 231.564898 
z
" style="fill: none; stroke: #000000; stroke-width: 0.8; stroke-linejoin: miter; stroke-linecap: square"/>
   </g>
  </g>
 </g>
 <defs>
  <clipPath id="p8e00cb199f">
   <rect x="42.765865" y="41.3943" width="381.362319" height="190.681159"/>
  </clipPath>
  <clipPath id="p9dc97812af">
   <rect x="452.74005" y="41.904863" width="10.431302" height="189.660035"/>
  </clipPath>
 </defs>
 <defs>
  <pattern id="h62cc8ddaff" patternUnits="userSpaceOnUse" x="0" y="0" width="72" height="72">
   <rect x="0" y="0" width="73" height="73" fill="#333333"/>
   <path d="M -36 36 
L 36 -36 
M -33 39 
L 39 -33 
M -30 42 
L 42 -30 
M -27 45 
L 45 -27 
M -24 48 
L 48 -24 
M -21 51 
L 51 -21 
M -18 54 
L 54 -18 
M -15 57 
L 57 -15 
M -12 60 
L 60 -12 
M -9 63 
L 63 -9 
M -6 66 
L 66 -6 
M -3 69 
L 69 -3 
M 0 72 
L 72 0 
M 3 75 
L 75 3 
M 6 78 
L 78 6 
M 9 81 
L 81 9 
M 12 84 
L 84 12 
M 15 87 
L 87 15 
M 18 90 
L 90 18 
M 21 93 
L 93 21 
M 24 96 
L 96 24 
M 27 99 
L 99 27 
M 30 102 
L 102 30 
M 33 105 
L 105 33 
M 36 108 
L 108 36 
" style="fill: #333333; stroke: #333333; stroke-width: 1.0; stroke-linecap: butt; stroke-linejoin: miter; stroke-opacity: 0.3"/>
  </pattern>
 </defs>
</svg>
