<?xml version="1.0" encoding="utf-8" standalone="no"?>
<!DOCTYPE svg PUBLIC "-//W3C//DTD SVG 1.1//EN"
  "http://www.w3.org/Graphics/SVG/1.1/DTD/svg11.dtd">
<svg xmlns:xlink="http://www.w3.org/1999/xlink" width="518.4pt" height="273.6pt" viewBox="0 0 518.4 273.6" xmlns="http://www.w3.org/2000/svg" version="1.1">
 <metadata>
  <rdf:RDF xmlns:dc="http://purl.org/dc/elements/1.1/" xmlns:cc="http://creativecommons.org/ns#" xmlns:rdf="http://www.w3.org/1999/02/22-rdf-syntax-ns#">
   <cc:Work>
    <dc:type rdf:resource="http://purl.org/dc/dcmitype/StillImage"/>
    <dc:format>image/svg+xml</dc:format>
    <dc:creator>
     <cc:Agent>
      <dc:title>Matplotlib v3.6.3, https://matplotlib.org/</dc:title>
     </cc:Agent>
    </dc:creator>
   </cc:Work>
  </rdf:RDF>
 </metadata>
 <defs>
  <style type="text/css">*{stroke-linejoin: round; stroke-linecap: butt}</style>
 </defs>
 <g id="figure_1">
  <g id="patch_1">
   <path d="M 0 273.6 
L 518.4 273.6 
L 518.4 0 
L 0 0 
z
" style="fill: #ffffff"/>
  </g>
  <g id="axes_1">
   <g id="patch_2">
    <path d="M 42.765865 232.07546 
L 424.128184 232.07546 
L 424.128184 41.3943 
L 42.765865 41.3943 
z
" style="fill: #ffffff"/>
   </g>
   <g id="PathCollection_1">
    <path clip-path="url(#p20043bc569)" style="fill: #053061"/>
   </g>
   <g id="PathCollection_2">
    <path d="M 64.081158 41.3943 
L 62.540977 42.965808 
L 60.490744 44.999868 
L 59.34317 46.161329 
L 58.574301 46.939502 
L 54.683437 50.758637 
L 54.538656 50.899402 
L 54.508297 50.928358 
L 54.461605 50.972725 
L 50.43644 54.845988 
L 49.532389 55.695387 
L 48.130128 57.006049 
L 46.261997 58.778128 
L 44.43537 60.462416 
L 42.765865 61.988482 
L 42.765865 60.462416 
L 42.765865 58.078902 
L 42.765865 55.695387 
L 42.765865 53.311873 
L 42.765865 50.928358 
L 42.765865 48.544844 
L 42.765865 46.161329 
L 42.765865 43.777815 
L 42.765865 41.3943 
L 54.683437 41.3943 
M 417.995691 232.07546 
L 421.881784 222.404288 
L 422.770503 220.157887 
L 423.159353 219.189057 
L 424.128184 216.929326 
L 424.128184 220.157887 
L 424.128184 232.07546 
" clip-path="url(#p20043bc569)" style="fill: #0e4179"/>
   </g>
   <g id="PathCollection_3">
    <path d="M 42.765865 61.988482 
L 44.43537 60.462416 
L 46.261997 58.778128 
L 48.130128 57.006049 
L 49.532389 55.695387 
L 50.43644 54.845988 
L 54.461605 50.972725 
L 54.508297 50.928358 
L 54.538656 50.899402 
L 54.683437 50.758637 
L 58.574301 46.939502 
L 59.34317 46.161329 
L 60.490744 44.999868 
L 62.540977 42.965808 
L 64.081158 41.3943 
L 66.60101 41.3943 
L 78.518582 41.3943 
L 84.618439 41.3943 
L 83.726671 42.435918 
L 80.749218 45.715202 
L 80.360771 46.161329 
L 80.087626 46.475138 
L 78.518582 48.173866 
L 76.338677 50.492377 
L 75.909787 50.928358 
L 75.27007 51.578061 
L 72.488378 54.489346 
L 71.281312 55.695387 
L 69.463888 57.506326 
L 68.530449 58.46479 
L 66.60101 60.354173 
L 66.4896 60.462416 
L 63.032911 63.802205 
L 57.526693 68.859172 
L 56.307662 69.996474 
L 55.551415 70.690856 
L 54.683437 71.420199 
L 44.09584 80.594513 
L 42.765865 81.649814 
L 42.765865 79.530532 
L 42.765865 69.996474 
L 42.765865 65.229445 
M 424.128184 216.929326 
L 423.159353 219.189057 
L 422.770503 220.157887 
L 421.881784 222.404288 
L 417.995691 232.07546 
L 412.210612 232.07546 
L 400.293039 232.07546 
L 399.972423 232.07546 
L 400.293039 231.183248 
L 403.248253 223.113101 
L 404.417393 220.157887 
L 407.18258 213.268346 
L 409.13453 208.240315 
L 410.023566 206.053269 
L 412.210612 201.362165 
L 417.480633 189.675192 
L 420.19512 184.40517 
L 424.128184 177.268946 
L 424.128184 184.40517 
L 424.128184 196.322742 
L 424.128184 208.240315 
" clip-path="url(#p20043bc569)" style="fill: #1f63a8"/>
   </g>
   <g id="PathCollection_4">
    <path d="M 42.765865 81.649814 
L 44.09584 80.594513 
L 54.683437 71.420199 
L 55.551415 70.690856 
L 56.307662 69.996474 
L 57.526693 68.859172 
L 63.032911 63.802205 
L 66.4896 60.462416 
L 66.60101 60.354173 
L 68.530449 58.46479 
L 69.463888 57.506326 
L 71.281312 55.695387 
L 72.488378 54.489346 
L 75.27007 51.578061 
L 75.909787 50.928358 
L 76.338677 50.492377 
L 78.518582 48.173866 
L 80.087626 46.475138 
L 80.360771 46.161329 
L 80.749218 45.715202 
L 83.726671 42.435918 
L 84.618439 41.3943 
L 90.436155 41.3943 
L 102.353727 41.3943 
L 104.473592 41.3943 
L 104.207741 41.765103 
L 102.353727 44.120698 
L 100.953644 45.881313 
L 100.713509 46.161329 
L 100.374084 46.557258 
L 97.595103 49.976634 
L 96.761126 50.928358 
L 95.571278 52.284848 
L 94.104544 54.045551 
L 92.62377 55.695387 
L 90.489921 58.068148 
L 90.474211 58.086513 
L 90.436155 58.127789 
L 88.272351 60.462416 
L 85.625768 63.30529 
L 79.178015 69.732701 
L 78.920692 69.996474 
L 78.74291 70.175937 
L 78.518582 70.378736 
L 67.682292 80.395558 
L 66.60101 81.29986 
L 57.37104 89.06459 
L 55.892521 90.273674 
L 54.683437 91.148561 
L 45.869039 97.878989 
L 42.765865 100.262733 
L 42.765865 89.06459 
M 424.128184 177.268946 
L 420.19512 184.40517 
L 417.480633 189.675192 
L 412.210612 201.362165 
L 410.023566 206.053269 
L 409.13453 208.240315 
L 407.18258 213.268346 
L 404.417393 220.157887 
L 403.248253 223.113101 
L 400.293039 231.183248 
L 399.972423 232.07546 
L 388.375467 232.07546 
L 382.440994 232.07546 
L 383.779529 227.479523 
L 386.29878 220.157887 
L 389.846893 209.711742 
L 390.415956 208.240315 
L 391.804629 204.811152 
L 396.582253 192.611957 
L 400.293039 184.523539 
L 400.347049 184.40517 
L 404.225987 176.420545 
L 412.210612 162.294929 
L 412.817186 161.176599 
L 413.198744 160.570025 
L 413.838543 159.593266 
L 419.510745 150.649018 
L 422.606348 146.268938 
L 424.128184 144.151392 
L 424.128184 146.268938 
L 424.128184 153.419482 
L 424.128184 160.570025 
L 424.128184 172.487597 
" clip-path="url(#p20043bc569)" style="fill: #3480b9"/>
   </g>
   <g id="PathCollection_5">
    <path d="M 42.765865 100.262733 
L 45.869039 97.878989 
L 54.683437 91.148561 
L 55.892521 90.273674 
L 57.37104 89.06459 
L 66.60101 81.29986 
L 67.682292 80.395558 
L 78.518582 70.378736 
L 78.74291 70.175937 
L 78.920692 69.996474 
L 79.178015 69.732701 
L 85.625768 63.30529 
L 88.272351 60.462416 
L 90.436155 58.127789 
L 90.474211 58.086513 
L 90.489921 58.068148 
L 92.62377 55.695387 
L 94.104544 54.045551 
L 95.571278 52.284848 
L 96.761126 50.928358 
L 97.595103 49.976634 
L 100.374084 46.557258 
L 100.713509 46.161329 
L 100.953644 45.881313 
L 102.353727 44.120698 
L 104.207741 41.765103 
L 104.473592 41.3943 
L 114.2713 41.3943 
L 123.999168 41.3943 
L 123.633304 41.905414 
L 121.460245 45.215604 
L 120.763955 46.161329 
L 119.825933 47.433917 
L 118.499223 49.390429 
L 117.332256 50.928358 
L 115.743432 53.017446 
L 115.380914 53.533796 
L 114.2713 54.948099 
L 113.689696 55.695387 
L 112.158311 57.656304 
L 111.286294 58.675903 
L 109.850674 60.462416 
L 108.017942 62.728102 
L 102.353727 69.020319 
L 101.711212 69.739468 
L 101.460458 69.996474 
L 98.046611 73.442167 
L 91.354297 80.265046 
L 90.436155 81.08902 
L 81.653139 89.06459 
L 79.988187 90.534195 
L 66.990721 100.982163 
L 66.77076 101.151913 
L 66.60101 101.272034 
L 65.576381 102.006792 
L 54.683437 109.888874 
L 52.976186 111.192484 
L 50.443557 112.899735 
L 42.765865 117.953595 
L 42.765865 112.899735 
L 42.765865 100.982163 
M 424.128184 144.151392 
L 422.606348 146.268938 
L 419.510745 150.649018 
L 413.838543 159.593266 
L 413.198744 160.570025 
L 412.817186 161.176599 
L 412.210612 162.294929 
L 404.225987 176.420545 
L 400.347049 184.40517 
L 400.293039 184.523539 
L 396.582253 192.611957 
L 391.804629 204.811152 
L 390.415956 208.240315 
L 389.846893 209.711742 
L 386.29878 220.157887 
L 383.779529 227.479523 
L 382.440994 232.07546 
L 376.457894 232.07546 
L 365.259223 232.07546 
L 365.548825 231.066957 
L 368.349782 220.157887 
L 370.031212 213.731206 
L 371.776795 208.240315 
L 375.392469 197.388168 
L 375.71054 196.322742 
L 375.896558 195.761406 
L 376.457894 194.314083 
L 380.257091 184.40517 
L 382.619753 178.649456 
L 388.375467 167.041387 
L 390.46103 162.655588 
L 391.631351 160.570025 
L 393.393688 157.559092 
L 396.872249 151.367008 
L 400.101465 146.268938 
L 400.293039 145.972265 
L 402.562707 142.409776 
L 404.320305 139.891003 
L 406.429559 136.73488 
L 407.658937 134.91421 
L 412.210612 128.729756 
L 413.073278 127.545889 
L 413.346929 127.200822 
L 414.385894 125.895653 
L 420.549156 117.902862 
L 424.128184 113.651728 
L 424.128184 120.050279 
L 424.128184 127.200822 
L 424.128184 131.967851 
L 424.128184 136.73488 
L 424.128184 141.501909 
" clip-path="url(#p20043bc569)" style="fill: #529dc8"/>
   </g>
   <g id="PathCollection_6">
    <path d="M 42.765865 117.953595 
L 50.443557 112.899735 
L 52.976186 111.192484 
L 54.683437 109.888874 
L 65.576381 102.006792 
L 66.60101 101.272034 
L 66.77076 101.151913 
L 66.990721 100.982163 
L 79.988187 90.534195 
L 81.653139 89.06459 
L 90.436155 81.08902 
L 91.354297 80.265046 
L 98.046611 73.442167 
L 101.460458 69.996474 
L 101.711212 69.739468 
L 102.353727 69.020319 
L 108.017942 62.728102 
L 109.850674 60.462416 
L 111.286294 58.675903 
L 112.158311 57.656304 
L 113.689696 55.695387 
L 114.2713 54.948099 
L 115.380914 53.533796 
L 115.743432 53.017446 
L 117.332256 50.928358 
L 118.499223 49.390429 
L 119.825933 47.433917 
L 120.763955 46.161329 
L 121.460245 45.215604 
L 123.633304 41.905414 
L 123.999168 41.3943 
L 126.188872 41.3943 
L 138.106445 41.3943 
L 143.812738 41.3943 
L 142.979586 42.803187 
L 142.066487 44.569823 
L 141.089362 46.161329 
L 139.833073 48.199518 
L 139.495327 48.82262 
L 138.145682 50.928358 
L 138.106445 50.989259 
L 136.817018 53.053987 
L 136.386851 53.655792 
L 135.065008 55.695387 
L 134.04084 57.265781 
L 132.618169 59.176557 
L 131.746661 60.462416 
L 130.551457 62.20745 
L 126.188872 67.685531 
L 124.824895 69.450883 
L 124.347378 69.996474 
L 119.765313 75.135322 
L 115.244941 80.309445 
L 114.2713 81.250707 
L 106.433833 89.06459 
L 104.356827 91.06769 
L 102.353727 92.690304 
L 91.530513 102.076521 
L 90.436155 102.88693 
L 82.518677 108.899641 
L 78.003203 112.384356 
L 77.274893 112.899735 
L 69.11441 118.542238 
L 66.784657 120.160467 
L 66.60101 120.276627 
L 55.83748 127.200822 
L 55.391807 127.48417 
L 54.683437 127.90422 
L 45.891545 133.218123 
L 42.765865 134.98118 
L 42.765865 131.967851 
L 42.765865 127.200822 
L 42.765865 120.050279 
M 424.128184 113.651728 
L 420.549156 117.902862 
L 414.385894 125.895653 
L 413.346929 127.200822 
L 413.073278 127.545889 
L 412.210612 128.729756 
L 407.658937 134.91421 
L 406.429559 136.73488 
L 404.320305 139.891003 
L 402.562707 142.409776 
L 400.293039 145.972265 
L 400.101465 146.268938 
L 396.872249 151.367008 
L 393.393688 157.559092 
L 391.631351 160.570025 
L 390.46103 162.655588 
L 388.375467 167.041387 
L 382.619753 178.649456 
L 380.257091 184.40517 
L 376.457894 194.314083 
L 375.896558 195.761406 
L 375.71054 196.322742 
L 375.392469 197.388168 
L 371.776795 208.240315 
L 370.031212 213.731206 
L 368.349782 220.157887 
L 365.548825 231.066957 
L 365.259223 232.07546 
L 364.540322 232.07546 
L 352.622749 232.07546 
L 348.28867 232.07546 
L 349.656484 225.101662 
L 350.510965 220.157887 
L 351.009246 217.468716 
L 352.622749 210.35117 
L 353.097326 208.240315 
L 355.316693 199.016686 
L 356.12094 196.322742 
L 357.854743 191.090749 
L 359.795659 184.40517 
L 360.938519 180.803367 
L 364.076894 172.487597 
L 367.81591 163.845613 
L 369.425459 160.570025 
L 371.616886 156.324086 
L 373.796473 151.822629 
L 376.457894 147.151833 
L 376.944935 146.268938 
L 379.052657 142.539814 
L 380.808268 139.761759 
L 382.618462 136.73488 
L 383.743177 134.881964 
L 388.375467 128.001594 
L 388.790549 127.366855 
L 388.909481 127.200822 
L 389.316658 126.636107 
L 395.782591 117.34401 
L 399.176272 112.899735 
L 400.293039 111.428433 
L 404.760898 105.450021 
L 412.210612 96.256382 
L 415.457984 92.311963 
L 418.351566 89.06459 
L 424.128184 82.35954 
L 424.128184 89.06459 
L 424.128184 100.982163 
L 424.128184 112.899735 
" clip-path="url(#p20043bc569)" style="fill: #84bcd9"/>
   </g>
   <g id="PathCollection_7">
    <path d="M 42.765865 134.98118 
L 45.891545 133.218123 
L 54.683437 127.90422 
L 55.391807 127.48417 
L 55.83748 127.200822 
L 66.60101 120.276627 
L 66.784657 120.160467 
L 69.11441 118.542238 
L 77.274893 112.899735 
L 78.003203 112.384356 
L 82.518677 108.899641 
L 90.436155 102.88693 
L 91.530513 102.076521 
L 102.353727 92.690304 
L 104.356827 91.06769 
L 106.433833 89.06459 
L 114.2713 81.250707 
L 115.244941 80.309445 
L 119.765313 75.135322 
L 124.347378 69.996474 
L 124.824895 69.450883 
L 126.188872 67.685531 
L 130.551457 62.20745 
L 131.746661 60.462416 
L 132.618169 59.176557 
L 134.04084 57.265781 
L 135.065008 55.695387 
L 136.386851 53.655792 
L 136.817018 53.053987 
L 138.106445 50.989259 
L 138.145682 50.928358 
L 139.495327 48.82262 
L 139.833073 48.199518 
L 141.089362 46.161329 
L 142.066487 44.569823 
L 142.979586 42.803187 
L 143.812738 41.3943 
L 150.024017 41.3943 
L 161.94159 41.3943 
L 164.733159 41.3943 
L 163.80408 43.405317 
L 163.548464 44.09919 
L 162.544947 46.161329 
L 161.94159 47.388014 
L 161.45386 48.447298 
L 161.328907 48.66738 
L 160.235425 50.928358 
L 159.325236 52.788602 
L 158.612655 53.97766 
L 157.728502 55.695387 
L 157.001498 57.090883 
L 155.565996 59.35402 
L 154.957531 60.462416 
L 154.055168 62.074876 
L 150.024017 67.867221 
L 148.923623 69.556317 
L 148.581523 69.996474 
L 146.031874 73.190189 
L 139.991357 81.038462 
L 138.106445 82.98741 
L 132.586954 89.06459 
L 129.470611 92.346329 
L 126.188872 95.103193 
L 116.975007 103.68587 
L 114.2713 105.747373 
L 105.344985 112.899735 
L 104.042811 113.913185 
L 102.353727 115.074459 
L 93.221863 121.721703 
L 90.436155 123.535001 
L 84.98988 127.200822 
L 82.557546 128.816408 
L 78.518582 131.29445 
L 73.253827 134.628978 
L 69.674914 136.73488 
L 66.60101 138.529628 
L 63.613666 140.306971 
L 54.683437 145.269003 
L 53.647961 145.854747 
L 52.864353 146.268938 
L 42.765865 151.576437 
L 42.765865 146.268938 
L 42.765865 141.501909 
L 42.765865 136.73488 
M 424.128184 82.35954 
L 418.351566 89.06459 
L 415.457984 92.311963 
L 412.210612 96.256382 
L 404.760898 105.450021 
L 400.293039 111.428433 
L 399.176272 112.899735 
L 395.782591 117.34401 
L 389.316658 126.636107 
L 388.909481 127.200822 
L 388.790549 127.366855 
L 388.375467 128.001594 
L 383.743177 134.881964 
L 382.618462 136.73488 
L 380.808268 139.761759 
L 379.052657 142.539814 
L 376.944935 146.268938 
L 376.457894 147.151833 
L 373.796473 151.822629 
L 371.616886 156.324086 
L 369.425459 160.570025 
L 367.81591 163.845613 
L 364.076894 172.487597 
L 360.938519 180.803367 
L 359.795659 184.40517 
L 357.854743 191.090749 
L 356.12094 196.322742 
L 355.316693 199.016686 
L 353.097326 208.240315 
L 352.622749 210.35117 
L 351.009246 217.468716 
L 350.510965 220.157887 
L 349.656484 225.101662 
L 348.28867 232.07546 
L 345.472206 232.07546 
L 338.321662 232.07546 
L 333.554633 232.07546 
L 331.263838 232.07546 
L 331.670744 227.365737 
L 332.504098 220.157887 
L 333.930215 209.179269 
L 334.081159 208.240315 
L 334.503939 205.867051 
L 336.048805 196.322742 
L 336.781203 192.471595 
L 338.321662 185.701404 
L 338.611672 184.40517 
L 340.6381 176.348326 
L 341.803538 172.487597 
L 345.767822 161.062719 
L 345.966272 160.570025 
L 346.338385 159.703845 
L 349.994251 150.790983 
L 352.216022 146.268938 
L 352.622749 145.468395 
L 354.235061 142.146834 
L 355.197124 140.472159 
L 357.161666 136.73488 
L 358.46735 134.305691 
L 362.401353 128.05641 
L 362.897948 127.200822 
L 363.328706 126.473852 
L 364.540322 124.733693 
L 370.039283 116.199112 
L 372.445584 112.899735 
L 376.457894 107.399397 
L 379.081861 103.60613 
L 388.375467 91.412974 
L 389.379013 90.068136 
L 390.196183 89.06459 
L 393.325219 85.104788 
L 398.627106 78.197786 
L 400.293039 76.198119 
L 405.321923 69.996474 
L 406.982579 67.905261 
L 412.210612 61.704195 
L 412.992216 60.775058 
L 413.267846 60.462416 
L 413.490367 60.206465 
L 416.559929 56.565251 
L 417.319711 55.695387 
L 418.391541 54.459201 
L 420.050819 52.4964 
L 421.415994 50.928358 
L 423.346319 48.701217 
L 423.573322 48.433871 
L 424.128184 47.796528 
L 424.128184 48.544844 
L 424.128184 50.928358 
L 424.128184 53.311873 
L 424.128184 55.695387 
L 424.128184 58.078902 
L 424.128184 60.462416 
L 424.128184 65.229445 
L 424.128184 69.996474 
L 424.128184 79.530532 
" clip-path="url(#p20043bc569)" style="fill: #aed3e6"/>
   </g>
   <g id="PathCollection_8">
    <path d="M 42.765865 151.576437 
L 52.864353 146.268938 
L 53.647961 145.854747 
L 54.683437 145.269003 
L 63.613666 140.306971 
L 66.60101 138.529628 
L 69.674914 136.73488 
L 73.253827 134.628978 
L 78.518582 131.29445 
L 82.557546 128.816408 
L 84.98988 127.200822 
L 90.436155 123.535001 
L 93.221863 121.721703 
L 102.353727 115.074459 
L 104.042811 113.913185 
L 105.344985 112.899735 
L 114.2713 105.747373 
L 116.975007 103.68587 
L 126.188872 95.103193 
L 129.470611 92.346329 
L 132.586954 89.06459 
L 138.106445 82.98741 
L 139.991357 81.038462 
L 146.031874 73.190189 
L 148.581523 69.996474 
L 148.923623 69.556317 
L 150.024017 67.867221 
L 154.055168 62.074876 
L 154.957531 60.462416 
L 155.565996 59.35402 
L 157.001498 57.090883 
L 157.728502 55.695387 
L 158.612655 53.97766 
L 159.325236 52.788602 
L 160.235425 50.928358 
L 161.328907 48.66738 
L 161.45386 48.447298 
L 161.94159 47.388014 
L 162.544947 46.161329 
L 163.548464 44.09919 
L 163.80408 43.405317 
L 164.733159 41.3943 
L 173.859162 41.3943 
L 185.776735 41.3943 
L 188.658861 41.3943 
L 188.054297 43.322302 
L 187.885821 44.199632 
L 187.21657 46.161329 
L 186.424589 48.415273 
L 186.367973 48.663091 
L 185.776735 50.210224 
L 185.539083 50.928358 
L 184.795006 53.115527 
L 184.587933 53.549633 
L 183.799127 55.695387 
L 183.102211 57.543997 
L 182.481058 58.738037 
L 181.777669 60.462416 
L 180.627167 63.169618 
L 177.391243 68.583642 
L 176.684912 69.996474 
L 175.826408 71.570271 
L 173.859162 74.000683 
L 167.278509 83.800068 
L 162.40707 89.06459 
L 161.94159 89.534914 
L 156.577666 95.618239 
L 150.024017 101.109509 
L 144.093554 106.969272 
L 138.106445 111.513944 
L 136.436802 112.899735 
L 132.042201 116.411732 
L 126.188872 120.398596 
L 121.145169 124.1746 
L 116.487969 127.200822 
L 114.2713 128.618086 
L 111.171662 130.727996 
L 102.353727 136.16831 
L 101.815772 136.519698 
L 101.456049 136.73488 
L 99.592484 137.839378 
L 92.274859 142.237391 
L 90.436155 143.251145 
L 85.203582 146.268938 
L 81.778795 148.225065 
L 78.518582 149.919617 
L 69.204758 154.98173 
L 66.60101 156.278761 
L 58.189432 160.570025 
L 55.862481 161.749068 
L 54.683437 162.288468 
L 51.47247 163.780993 
L 42.765865 167.969717 
L 42.765865 160.570025 
L 42.765865 153.419482 
M 424.128184 47.796528 
L 423.573322 48.433871 
L 423.346319 48.701217 
L 421.415994 50.928358 
L 420.050819 52.4964 
L 418.391541 54.459201 
L 417.319711 55.695387 
L 416.559929 56.565251 
L 413.490367 60.206465 
L 413.267846 60.462416 
L 412.992216 60.775058 
L 412.210612 61.704195 
L 406.982579 67.905261 
L 405.321923 69.996474 
L 400.293039 76.198119 
L 398.627106 78.197786 
L 393.325219 85.104788 
L 390.196183 89.06459 
L 389.379013 90.068136 
L 388.375467 91.412974 
L 379.081861 103.60613 
L 376.457894 107.399397 
L 372.445584 112.899735 
L 370.039283 116.199112 
L 364.540322 124.733693 
L 363.328706 126.473852 
L 362.897948 127.200822 
L 362.401353 128.05641 
L 358.46735 134.305691 
L 357.161666 136.73488 
L 355.197124 140.472159 
L 354.235061 142.146834 
L 352.622749 145.468395 
L 352.216022 146.268938 
L 349.994251 150.790983 
L 346.338385 159.703845 
L 345.966272 160.570025 
L 345.767822 161.062719 
L 341.803538 172.487597 
L 340.6381 176.348326 
L 338.611672 184.40517 
L 338.321662 185.701404 
L 336.781203 192.471595 
L 336.048805 196.322742 
L 334.503939 205.867051 
L 334.081159 208.240315 
L 333.930215 209.179269 
L 332.504098 220.157887 
L 331.670744 227.365737 
L 331.263838 232.07546 
L 328.787604 232.07546 
L 324.020575 232.07546 
L 319.253546 232.07546 
L 313.859881 232.07546 
L 313.979986 228.947155 
L 313.914478 220.157887 
L 314.091229 211.554025 
L 314.287239 208.240315 
L 314.616142 204.05175 
L 314.845357 196.322742 
L 315.313756 189.756425 
L 315.946863 184.40517 
L 317.196001 175.91684 
L 317.520653 172.487597 
L 317.867662 170.177791 
L 319.253546 163.714028 
L 319.903997 160.570025 
L 320.97552 156.002442 
L 321.693329 153.419482 
L 323.964742 146.352688 
L 323.989097 146.268938 
L 323.996524 146.244887 
L 324.020575 146.182527 
L 326.54632 139.260625 
L 327.673457 136.73488 
L 328.787604 134.295106 
L 329.496264 132.676511 
L 329.834579 131.967851 
L 331.042946 129.71251 
L 332.303715 127.200822 
L 332.84842 126.141503 
L 336.383322 120.050279 
L 337.331022 118.564318 
L 338.321662 117.156395 
L 341.093802 112.899735 
L 343.396805 109.440734 
L 349.719277 100.982163 
L 351.383268 98.916361 
L 352.622749 97.475297 
L 358.972643 89.06459 
L 361.003907 86.235459 
L 364.540322 81.8001 
L 370.010383 74.372524 
L 373.628176 69.996474 
L 376.457894 66.44522 
L 377.144723 65.504177 
L 377.813388 64.687248 
L 381.037648 60.462416 
L 381.994178 59.186158 
L 384.260803 56.51832 
L 384.897406 55.695387 
L 385.361814 55.092657 
L 388.375467 51.662406 
L 388.88453 51.030171 
L 388.973137 50.928358 
L 389.099281 50.783595 
L 392.27268 46.940772 
L 392.968518 46.161329 
L 393.96956 45.042511 
L 395.813846 42.881976 
L 397.179009 41.3943 
L 400.293039 41.3943 
L 412.210612 41.3943 
L 424.128184 41.3943 
L 424.128184 43.777815 
L 424.128184 46.161329 
" clip-path="url(#p20043bc569)" style="fill: #d4e6f1"/>
   </g>
   <g id="PathCollection_9">
    <path d="M 42.765865 167.969717 
L 51.47247 163.780993 
L 54.683437 162.288468 
L 55.862481 161.749068 
L 58.189432 160.570025 
L 66.60101 156.278761 
L 69.204758 154.98173 
L 78.518582 149.919617 
L 81.778795 148.225065 
L 85.203582 146.268938 
L 90.436155 143.251145 
L 92.274859 142.237391 
L 99.592484 137.839378 
L 101.456049 136.73488 
L 101.815772 136.519698 
L 102.353727 136.16831 
L 111.171662 130.727996 
L 114.2713 128.618086 
L 116.487969 127.200822 
L 121.145169 124.1746 
L 126.188872 120.398596 
L 132.042201 116.411732 
L 136.436802 112.899735 
L 138.106445 111.513944 
L 144.093554 106.969272 
L 150.024017 101.109509 
L 156.577666 95.618239 
L 161.94159 89.534914 
L 162.40707 89.06459 
L 167.278509 83.800068 
L 173.859162 74.000683 
L 175.826408 71.570271 
L 176.684912 69.996474 
L 177.391243 68.583642 
L 180.627167 63.169618 
L 181.777669 60.462416 
L 182.481058 58.738037 
L 183.102211 57.543997 
L 183.799127 55.695387 
L 184.587933 53.549633 
L 184.795006 53.115527 
L 185.539083 50.928358 
L 185.776735 50.210224 
L 186.367973 48.663091 
L 186.424589 48.415273 
L 187.21657 46.161329 
L 187.885821 44.199632 
L 188.054297 43.322302 
L 188.658861 41.3943 
L 197.694307 41.3943 
L 209.61188 41.3943 
L 216.762423 41.3943 
L 223.912967 41.3943 
L 228.679996 41.3943 
L 233.447024 41.3943 
L 233.447024 43.777815 
L 233.447024 46.161329 
L 233.447024 48.544844 
L 233.447024 50.928358 
L 233.447024 53.311873 
L 233.447024 55.695387 
L 233.447024 58.078902 
L 233.447024 60.462416 
L 232.191484 63.973905 
L 232.389795 65.229445 
L 228.065569 69.382048 
L 227.688334 69.996474 
L 223.912967 73.558832 
L 221.90426 76.852257 
L 220.345988 79.530532 
L 213.821095 85.142819 
L 209.61188 88.650314 
L 209.272816 89.06459 
L 203.440723 94.811006 
L 196.656975 100.982163 
L 189.884103 105.089531 
L 185.776735 107.356149 
L 178.294318 112.899735 
L 176.225383 114.319467 
L 173.859162 115.531815 
L 164.710347 121.711533 
L 161.94159 123.165502 
L 155.593635 127.200822 
L 153.405093 128.553253 
L 150.024017 130.32025 
L 143.718236 134.212568 
L 138.988123 136.73488 
L 138.106445 137.197993 
L 133.782141 139.772187 
L 126.188872 143.761137 
L 123.648033 145.252602 
L 121.715383 146.268938 
L 114.2713 150.134326 
L 111.449182 151.726211 
L 102.353727 156.282094 
L 98.605168 158.320889 
L 94.0075 160.570025 
L 90.436155 162.297631 
L 83.693097 165.744539 
L 69.401579 172.487597 
L 67.481326 173.367913 
L 66.60101 173.7451 
L 64.347165 174.741442 
L 54.683437 179.162493 
L 51.104381 180.826114 
L 42.765865 184.345709 
L 42.765865 172.487597 
M 397.179009 41.3943 
L 395.813846 42.881976 
L 393.96956 45.042511 
L 392.968518 46.161329 
L 392.27268 46.940772 
L 389.099281 50.783595 
L 388.973137 50.928358 
L 388.88453 51.030171 
L 388.375467 51.662406 
L 385.361814 55.092657 
L 384.897406 55.695387 
L 384.260803 56.51832 
L 381.994178 59.186158 
L 381.037648 60.462416 
L 377.813388 64.687248 
L 377.144723 65.504177 
L 376.457894 66.44522 
L 373.628176 69.996474 
L 370.010383 74.372524 
L 364.540322 81.8001 
L 361.003907 86.235459 
L 358.972643 89.06459 
L 352.622749 97.475297 
L 351.383268 98.916361 
L 349.719277 100.982163 
L 343.396805 109.440734 
L 341.093802 112.899735 
L 338.321662 117.156395 
L 337.331022 118.564318 
L 336.383322 120.050279 
L 332.84842 126.141503 
L 332.303715 127.200822 
L 331.042946 129.71251 
L 329.834579 131.967851 
L 329.496264 132.676511 
L 328.787604 134.295106 
L 327.673457 136.73488 
L 326.54632 139.260625 
L 324.020575 146.182527 
L 323.996524 146.244887 
L 323.989097 146.268938 
L 323.964742 146.352688 
L 321.693329 153.419482 
L 320.97552 156.002442 
L 319.903997 160.570025 
L 319.253546 163.714028 
L 317.867662 170.177791 
L 317.520653 172.487597 
L 317.196001 175.91684 
L 315.946863 184.40517 
L 315.313756 189.756425 
L 314.845357 196.322742 
L 314.616142 204.05175 
L 314.287239 208.240315 
L 314.091229 211.554025 
L 313.914478 220.157887 
L 313.979986 228.947155 
L 313.859881 232.07546 
L 312.103003 232.07546 
L 304.952459 232.07546 
L 295.662776 232.07546 
L 295.553347 229.557 
L 294.105876 220.157887 
L 293.136602 208.34203 
L 293.133347 208.240315 
L 293.132334 208.142868 
L 291.529455 196.322742 
L 291.089345 186.350711 
L 290.711479 184.40517 
L 290.256355 181.626638 
L 289.32168 172.487597 
L 289.43071 164.174202 
L 288.809573 160.570025 
L 288.410816 157.795583 
L 288.471716 149.00684 
L 288.05894 146.268938 
L 287.780604 144.167225 
L 288.047941 138.729658 
L 287.76854 136.73488 
L 287.489493 134.516723 
L 287.955392 129.23262 
L 287.674212 127.200822 
L 287.245566 123.72723 
L 288.397254 115.682315 
L 287.951437 112.899735 
L 287.071811 106.936659 
L 287.879233 100.982163 
L 290.85497 91.244507 
L 289.987527 89.06459 
L 288.493132 85.431186 
L 293.034887 70.601857 
L 293.177725 70.110745 
L 293.644594 69.996474 
L 295.026192 69.199952 
L 293.034887 60.462416 
L 304.952459 60.462416 
L 312.103003 60.462416 
L 319.253546 60.462416 
L 324.020575 60.462416 
L 328.787604 60.462416 
L 328.787604 58.078902 
L 328.787604 55.695387 
L 328.787604 53.311873 
L 328.787604 50.928358 
L 328.787604 48.544844 
L 333.554633 46.551162 
L 333.700038 46.234032 
L 333.933166 46.161329 
L 338.321662 44.902975 
L 339.090033 44.033938 
L 345.472206 41.747502 
L 345.757138 41.489278 
L 345.942686 41.3943 
L 352.622749 41.3943 
L 364.540322 41.3943 
L 376.457894 41.3943 
L 388.375467 41.3943 
" clip-path="url(#p20043bc569)" style="fill: #ecf2f5"/>
   </g>
   <g id="PathCollection_10">
    <path d="M 42.765865 184.345709 
L 51.104381 180.826114 
L 54.683437 179.162493 
L 64.347165 174.741442 
L 66.60101 173.7451 
L 67.481326 173.367913 
L 69.401579 172.487597 
L 83.693097 165.744539 
L 90.436155 162.297631 
L 94.0075 160.570025 
L 98.605168 158.320889 
L 102.353727 156.282094 
L 111.449182 151.726211 
L 114.2713 150.134326 
L 121.715383 146.268938 
L 123.648033 145.252602 
L 126.188872 143.761137 
L 133.782141 139.772187 
L 138.106445 137.197993 
L 138.988123 136.73488 
L 143.718236 134.212568 
L 150.024017 130.32025 
L 153.405093 128.553253 
L 155.593635 127.200822 
L 161.94159 123.165502 
L 164.710347 121.711533 
L 173.859162 115.531815 
L 176.225383 114.319467 
L 178.294318 112.899735 
L 185.776735 107.356149 
L 189.884103 105.089531 
L 196.656975 100.982163 
L 203.440723 94.811006 
L 209.272816 89.06459 
L 209.61188 88.650314 
L 213.821095 85.142819 
L 220.345988 79.530532 
L 221.90426 76.852257 
L 223.912967 73.558832 
L 227.688334 69.996474 
L 228.065569 69.382048 
L 232.389795 65.229445 
L 232.191484 63.973905 
L 233.447024 60.462416 
L 233.447024 58.078902 
L 233.447024 55.695387 
L 233.447024 53.311873 
L 233.447024 50.928358 
L 233.447024 48.544844 
L 233.447024 46.161329 
L 233.447024 43.777815 
L 233.447024 41.3943 
L 238.214053 41.3943 
L 242.981082 41.3943 
L 250.131626 41.3943 
L 257.282169 41.3943 
L 269.199742 41.3943 
L 281.117314 41.3943 
L 293.034887 41.3943 
L 304.952459 41.3943 
L 312.103003 41.3943 
L 319.253546 41.3943 
L 324.020575 41.3943 
L 328.787604 41.3943 
L 333.554633 41.3943 
L 338.321662 41.3943 
L 345.472206 41.3943 
L 345.942686 41.3943 
L 345.757138 41.489278 
L 345.472206 41.747502 
L 339.090033 44.033938 
L 338.321662 44.902975 
L 333.933166 46.161329 
L 333.700038 46.234032 
L 333.554633 46.551162 
L 328.787604 48.544844 
L 328.787604 50.928358 
L 328.787604 53.311873 
L 328.787604 55.695387 
L 328.787604 58.078902 
L 328.787604 60.462416 
L 324.020575 60.462416 
L 319.253546 60.462416 
L 312.103003 60.462416 
L 304.952459 60.462416 
L 293.034887 60.462416 
L 295.026192 69.199952 
L 293.644594 69.996474 
L 293.177725 70.110745 
L 293.034887 70.601857 
L 288.493132 85.431186 
L 289.987527 89.06459 
L 290.85497 91.244507 
L 287.879233 100.982163 
L 287.071811 106.936659 
L 287.951437 112.899735 
L 288.397254 115.682315 
L 287.245566 123.72723 
L 287.674212 127.200822 
L 287.955392 129.23262 
L 287.489493 134.516723 
L 287.76854 136.73488 
L 288.047941 138.729658 
L 287.780604 144.167225 
L 288.05894 146.268938 
L 288.471716 149.00684 
L 288.410816 157.795583 
L 288.809573 160.570025 
L 289.43071 164.174202 
L 289.32168 172.487597 
L 290.256355 181.626638 
L 290.711479 184.40517 
L 291.089345 186.350711 
L 291.529455 196.322742 
L 293.132334 208.142868 
L 293.133347 208.240315 
L 293.136602 208.34203 
L 294.105876 220.157887 
L 295.553347 229.557 
L 295.662776 232.07546 
L 293.034887 232.07546 
L 281.117314 232.07546 
L 276.100475 232.07546 
L 274.902155 226.373047 
L 269.545328 208.585901 
L 269.467629 208.240315 
L 269.423286 208.016771 
L 269.199742 207.28089 
L 263.343036 190.261876 
L 260.473179 184.40517 
L 257.282169 177.362471 
L 255.953473 174.702092 
L 254.329864 172.487597 
L 248.524883 163.247929 
L 245.985658 160.570025 
L 242.981082 157.219551 
L 241.463813 155.695386 
L 238.408886 153.419482 
L 235.202205 150.78671 
L 233.447024 149.750134 
L 229.740382 147.859517 
L 228.189557 147.004596 
L 226.22081 146.268938 
L 223.912967 145.3756 
L 219.860444 144.203591 
L 216.762423 143.519241 
L 212.005317 143.097534 
L 209.61188 142.757879 
L 206.484234 142.752967 
L 197.694307 143.105564 
L 192.507055 144.194037 
L 185.776735 145.127502 
L 181.675129 146.268938 
L 176.288648 147.726629 
L 173.859162 148.162431 
L 167.264915 150.225486 
L 161.94159 151.998825 
L 160.568271 152.595491 
L 150.024017 156.247927 
L 145.887125 158.08789 
L 139.112887 160.570025 
L 138.106445 160.930785 
L 130.022978 164.404131 
L 117.379941 169.378956 
L 114.2713 170.75117 
L 113.104907 171.321205 
L 110.521126 172.487597 
L 96.454792 178.506235 
L 90.436155 180.925716 
L 82.420367 184.40517 
L 79.692824 185.579412 
L 75.747703 187.176049 
L 66.60101 191.089737 
L 62.970651 192.692383 
L 54.683437 196.075552 
L 46.052381 199.609259 
L 42.765865 200.873934 
L 42.765865 196.322742 
L 42.765865 184.40517 
" clip-path="url(#p20043bc569)" style="fill: #f9eee7"/>
   </g>
   <g id="PathCollection_11">
    <path d="M 42.765865 200.873934 
L 46.052381 199.609259 
L 54.683437 196.075552 
L 62.970651 192.692383 
L 66.60101 191.089737 
L 75.747703 187.176049 
L 79.692824 185.579412 
L 82.420367 184.40517 
L 90.436155 180.925716 
L 96.454792 178.506235 
L 110.521126 172.487597 
L 113.104907 171.321205 
L 114.2713 170.75117 
L 117.379941 169.378956 
L 130.022978 164.404131 
L 138.106445 160.930785 
L 139.112887 160.570025 
L 145.887125 158.08789 
L 150.024017 156.247927 
L 160.568271 152.595491 
L 161.94159 151.998825 
L 167.264915 150.225486 
L 173.859162 148.162431 
L 176.288648 147.726629 
L 181.675129 146.268938 
L 185.776735 145.127502 
L 192.507055 144.194037 
L 197.694307 143.105564 
L 206.484234 142.752967 
L 209.61188 142.757879 
L 212.005317 143.097534 
L 216.762423 143.519241 
L 219.860444 144.203591 
L 223.912967 145.3756 
L 226.22081 146.268938 
L 228.189557 147.004596 
L 229.740382 147.859517 
L 233.447024 149.750134 
L 235.202205 150.78671 
L 238.408886 153.419482 
L 241.463813 155.695386 
L 242.981082 157.219551 
L 245.985658 160.570025 
L 248.524883 163.247929 
L 254.329864 172.487597 
L 255.953473 174.702092 
L 257.282169 177.362471 
L 260.473179 184.40517 
L 263.343036 190.261876 
L 269.199742 207.28089 
L 269.423286 208.016771 
L 269.467629 208.240315 
L 269.545328 208.585901 
L 274.902155 226.373047 
L 276.100475 232.07546 
L 269.199742 232.07546 
L 257.282169 232.07546 
L 254.278175 232.07546 
L 252.548 228.048169 
L 248.052552 220.157887 
L 245.754314 215.535835 
L 242.981082 211.364043 
L 240.767533 208.240315 
L 239.170409 205.849426 
L 235.564948 201.61755 
L 233.447024 198.995509 
L 232.717771 198.145876 
L 230.706132 196.322742 
L 225.826349 191.539287 
L 223.912967 190.126526 
L 217.791984 186.121105 
L 216.344077 185.102414 
L 214.874741 184.40517 
L 209.61188 181.794905 
L 202.820907 179.27857 
L 197.694307 177.973393 
L 190.787379 177.498242 
L 185.776735 176.629736 
L 181.814294 176.450038 
L 167.224899 177.770907 
L 161.94159 178.12381 
L 155.165749 179.263438 
L 150.024017 180.3505 
L 146.965647 181.3468 
L 138.106445 183.392646 
L 134.809403 184.40517 
L 128.181133 186.39743 
L 122.649632 187.94441 
L 114.2713 190.740049 
L 110.242976 192.294418 
L 99.158906 196.322742 
L 92.668114 198.554702 
L 90.436155 199.29476 
L 85.724396 201.034501 
L 75.381514 205.103247 
L 67.066134 208.240315 
L 66.60101 208.415822 
L 58.181083 211.73796 
L 54.683437 213.042533 
L 46.933298 215.990454 
L 42.765865 217.611929 
L 42.765865 208.240315 
" clip-path="url(#p20043bc569)" style="fill: #fddcc9"/>
   </g>
   <g id="PathCollection_12">
    <path d="M 42.765865 217.611929 
L 46.933298 215.990454 
L 54.683437 213.042533 
L 58.181083 211.73796 
L 66.60101 208.415822 
L 67.066134 208.240315 
L 75.381514 205.103247 
L 85.724396 201.034501 
L 90.436155 199.29476 
L 92.668114 198.554702 
L 99.158906 196.322742 
L 110.242976 192.294418 
L 114.2713 190.740049 
L 122.649632 187.94441 
L 128.181133 186.39743 
L 134.809403 184.40517 
L 138.106445 183.392646 
L 146.965647 181.3468 
L 150.024017 180.3505 
L 155.165749 179.263438 
L 161.94159 178.12381 
L 167.224899 177.770907 
L 181.814294 176.450038 
L 185.776735 176.629736 
L 190.787379 177.498242 
L 197.694307 177.973393 
L 202.820907 179.27857 
L 209.61188 181.794905 
L 214.874741 184.40517 
L 216.344077 185.102414 
L 217.791984 186.121105 
L 223.912967 190.126526 
L 225.826349 191.539287 
L 230.706132 196.322742 
L 232.717771 198.145876 
L 233.447024 198.995509 
L 235.564948 201.61755 
L 239.170409 205.849426 
L 240.767533 208.240315 
L 242.981082 211.364043 
L 245.754314 215.535835 
L 248.052552 220.157887 
L 252.548 228.048169 
L 254.278175 232.07546 
L 250.131626 232.07546 
L 242.981082 232.07546 
L 238.214053 232.07546 
L 233.447024 232.07546 
L 228.679996 232.07546 
L 227.805159 232.07546 
L 223.912967 227.683054 
L 221.139395 224.780506 
L 215.318323 220.157887 
L 211.585737 216.868125 
L 209.61188 215.587013 
L 199.838487 210.384495 
L 197.06273 208.871892 
L 195.093747 208.240315 
L 185.776735 205.145258 
L 178.457385 203.642092 
L 168.707177 203.088329 
L 161.94159 202.61018 
L 155.44149 202.822842 
L 150.024017 203.246209 
L 145.830836 204.047134 
L 138.106445 204.942258 
L 127.379208 207.049979 
L 125.485713 207.537155 
L 122.631949 208.240315 
L 114.2713 210.270805 
L 106.669706 212.556293 
L 102.353727 213.636132 
L 94.473361 216.120681 
L 90.436155 217.449119 
L 88.453775 218.175507 
L 78.518582 221.452102 
L 70.750119 224.306997 
L 66.60101 225.722704 
L 57.830454 228.928443 
L 54.683437 230.102236 
L 53.253949 230.645971 
L 49.392516 232.07546 
L 42.765865 232.07546 
L 42.765865 220.157887 
" clip-path="url(#p20043bc569)" style="fill: #f8bb9e"/>
   </g>
   <g id="PathCollection_13">
    <path d="M 187.186618 232.07546 
L 185.776735 231.418721 
L 177.362819 228.571803 
L 173.859162 227.629426 
L 168.805496 227.021794 
L 161.94159 225.737848 
L 156.777099 225.322378 
L 143.536915 225.588358 
L 138.106445 225.688099 
L 131.933785 226.330547 
L 126.188872 227.075969 
L 122.09876 227.985348 
L 114.2713 229.307953 
L 102.432311 232.07546 
L 102.353727 232.07546 
L 90.436155 232.07546 
L 78.518582 232.07546 
L 66.60101 232.07546 
L 54.683437 232.07546 
L 49.392516 232.07546 
L 53.253949 230.645971 
L 54.683437 230.102236 
L 57.830454 228.928443 
L 66.60101 225.722704 
L 70.750119 224.306997 
L 78.518582 221.452102 
L 88.453775 218.175507 
L 90.436155 217.449119 
L 94.473361 216.120681 
L 102.353727 213.636132 
L 106.669706 212.556293 
L 114.2713 210.270805 
L 122.631949 208.240315 
L 125.485713 207.537155 
L 127.379208 207.049979 
L 138.106445 204.942258 
L 145.830836 204.047134 
L 150.024017 203.246209 
L 155.44149 202.822842 
L 161.94159 202.61018 
L 168.707177 203.088329 
L 178.457385 203.642092 
L 185.776735 205.145258 
L 195.093747 208.240315 
L 197.06273 208.871892 
L 199.838487 210.384495 
L 209.61188 215.587013 
L 211.585737 216.868125 
L 215.318323 220.157887 
L 221.139395 224.780506 
L 223.912967 227.683054 
L 227.805159 232.07546 
L 223.912967 232.07546 
L 216.762423 232.07546 
L 209.61188 232.07546 
L 197.694307 232.07546 
" clip-path="url(#p20043bc569)" style="fill: #ee9677"/>
   </g>
   <g id="PathCollection_14">
    <path d="M 102.432311 232.07546 
L 114.2713 229.307953 
L 122.09876 227.985348 
L 126.188872 227.075969 
L 131.933785 226.330547 
L 138.106445 225.688099 
L 143.536915 225.588358 
L 156.777099 225.322378 
L 161.94159 225.737848 
L 168.805496 227.021794 
L 173.859162 227.629426 
L 177.362819 228.571803 
L 185.776735 231.418721 
L 187.186618 232.07546 
L 185.776735 232.07546 
L 173.859162 232.07546 
L 161.94159 232.07546 
L 150.024017 232.07546 
L 138.106445 232.07546 
L 126.188872 232.07546 
L 114.2713 232.07546 
" clip-path="url(#p20043bc569)" style="fill: #db6b55"/>
   </g>
   <g id="PathCollection_15">
    <path clip-path="url(#p20043bc569)" style="fill: #c53e3d"/>
   </g>
   <g id="PathCollection_16">
    <path clip-path="url(#p20043bc569)" style="fill: #ab162a"/>
   </g>
   <g id="PathCollection_17">
    <path clip-path="url(#p20043bc569)" style="fill: #7c0722"/>
   </g>
   <g id="PathCollection_18">
    <path clip-path="url(#p20043bc569)" style="fill: #67001f"/>
   </g>
   <g id="PolyCollection_1">
    <path d="M 233.447024 60.462416 
L 233.447024 41.3943 
L 328.787604 41.3943 
L 328.787604 60.462416 
L 328.787604 60.462416 
L 233.447024 60.462416 
z
" clip-path="url(#p20043bc569)" style="fill: url(#ha791406d13); fill-opacity: 0.3; stroke: #333333; stroke-opacity: 0.3"/>
   </g>
   <g id="PathCollection_19">
    <defs>
     <path id="m2da75d56d4" d="M -0 4.1833 
L 4.1833 0 
L 0 -4.1833 
L -4.1833 -0 
z
" style="stroke: #111827"/>
    </defs>
    <g clip-path="url(#p20043bc569)">
     <use xlink:href="#m2da75d56d4" x="233.447024" y="136.73488" style="fill: #34d399; stroke: #111827"/>
    </g>
   </g>
   <g id="matplotlib.axis_1">
    <g id="xtick_1">
     <g id="line2d_1">
      <defs>
       <path id="m6740d5eb10" d="M 0 0 
L 0 3.5 
" style="stroke: #000000; stroke-width: 0.8"/>
      </defs>
      <g>
       <use xlink:href="#m6740d5eb10" x="42.765865" y="232.07546" style="stroke: #000000; stroke-width: 0.8"/>
      </g>
     </g>
     <g id="text_1">
      <!-- 0 -->
      <g transform="translate(39.584615 246.673897) scale(0.1 -0.1)">
       <defs>
        <path id="DejaVuSans-30" d="M 2034 4250 
Q 1547 4250 1301 3770 
Q 1056 3291 1056 2328 
Q 1056 1369 1301 889 
Q 1547 409 2034 409 
Q 2525 409 2770 889 
Q 3016 1369 3016 2328 
Q 3016 3291 2770 3770 
Q 2525 4250 2034 4250 
z
M 2034 4750 
Q 2819 4750 3233 4129 
Q 3647 3509 3647 2328 
Q 3647 1150 3233 529 
Q 2819 -91 2034 -91 
Q 1250 -91 836 529 
Q 422 1150 422 2328 
Q 422 3509 836 4129 
Q 1250 4750 2034 4750 
z
" transform="scale(0.015625)"/>
       </defs>
       <use xlink:href="#DejaVuSans-30"/>
      </g>
     </g>
    </g>
    <g id="xtick_2">
     <g id="line2d_2">
      <g>
       <use xlink:href="#m6740d5eb10" x="90.436155" y="232.07546" style="stroke: #000000; stroke-width: 0.8"/>
      </g>
     </g>
     <g id="text_2">
      <!-- 50 -->
      <g transform="translate(84.073655 246.673897) scale(0.1 -0.1)">
       <defs>
        <path id="DejaVuSans-35" d="M 691 4666 
L 3169 4666 
L 3169 4134 
L 1269 4134 
L 1269 2991 
Q 1406 3038 1543 3061 
Q 1681 3084 1819 3084 
Q 2600 3084 3056 2656 
Q 3513 2228 3513 1497 
Q 3513 744 3044 326 
Q 2575 -91 1722 -91 
Q 1428 -91 1123 -41 
Q 819 9 494 109 
L 494 744 
Q 775 591 1075 516 
Q 1375 441 1709 441 
Q 2250 441 2565 725 
Q 2881 1009 2881 1497 
Q 2881 1984 2565 2268 
Q 2250 2553 1709 2553 
Q 1456 2553 1204 2497 
Q 953 2441 691 2322 
L 691 4666 
z
" transform="scale(0.015625)"/>
       </defs>
       <use xlink:href="#DejaVuSans-35"/>
       <use xlink:href="#DejaVuSans-30" x="63.623047"/>
      </g>
     </g>
    </g>
    <g id="xtick_3">
     <g id="line2d_3">
      <g>
       <use xlink:href="#m6740d5eb10" x="138.106445" y="232.07546" style="stroke: #000000; stroke-width: 0.8"/>
      </g>
     </g>
     <g id="text_3">
      <!-- 100 -->
      <g transform="translate(128.562695 246.673897) scale(0.1 -0.1)">
       <defs>
        <path id="DejaVuSans-31" d="M 794 531 
L 1825 531 
L 1825 4091 
L 703 3866 
L 703 4441 
L 1819 4666 
L 2450 4666 
L 2450 531 
L 3481 531 
L 3481 0 
L 794 0 
L 794 531 
z
" transform="scale(0.015625)"/>
       </defs>
       <use xlink:href="#DejaVuSans-31"/>
       <use xlink:href="#DejaVuSans-30" x="63.623047"/>
       <use xlink:href="#DejaVuSans-30" x="127.246094"/>
      </g>
     </g>
    </g>
    <g id="xtick_4">
     <g id="line2d_4">
      <g>
       <use xlink:href="#m6740d5eb10" x="185.776735" y="232.07546" style="stroke: #000000; stroke-width: 0.8"/>
      </g>
     </g>
     <g id="text_4">
      <!-- 150 -->
      <g transform="translate(176.232985 246.673897) scale(0.1 -0.1)">
       <use xlink:href="#DejaVuSans-31"/>
       <use xlink:href="#DejaVuSans-35" x="63.623047"/>
       <use xlink:href="#DejaVuSans-30" x="127.246094"/>
      </g>
     </g>
    </g>
    <g id="xtick_5">
     <g id="line2d_5">
      <g>
       <use xlink:href="#m6740d5eb10" x="233.447024" y="232.07546" style="stroke: #000000; stroke-width: 0.8"/>
      </g>
     </g>
     <g id="text_5">
      <!-- 200 -->
      <g transform="translate(223.903274 246.673897) scale(0.1 -0.1)">
       <defs>
        <path id="DejaVuSans-32" d="M 1228 531 
L 3431 531 
L 3431 0 
L 469 0 
L 469 531 
Q 828 903 1448 1529 
Q 2069 2156 2228 2338 
Q 2531 2678 2651 2914 
Q 2772 3150 2772 3378 
Q 2772 3750 2511 3984 
Q 2250 4219 1831 4219 
Q 1534 4219 1204 4116 
Q 875 4013 500 3803 
L 500 4441 
Q 881 4594 1212 4672 
Q 1544 4750 1819 4750 
Q 2544 4750 2975 4387 
Q 3406 4025 3406 3419 
Q 3406 3131 3298 2873 
Q 3191 2616 2906 2266 
Q 2828 2175 2409 1742 
Q 1991 1309 1228 531 
z
" transform="scale(0.015625)"/>
       </defs>
       <use xlink:href="#DejaVuSans-32"/>
       <use xlink:href="#DejaVuSans-30" x="63.623047"/>
       <use xlink:href="#DejaVuSans-30" x="127.246094"/>
      </g>
     </g>
    </g>
    <g id="xtick_6">
     <g id="line2d_6">
      <g>
       <use xlink:href="#m6740d5eb10" x="281.117314" y="232.07546" style="stroke: #000000; stroke-width: 0.8"/>
      </g>
     </g>
     <g id="text_6">
      <!-- 250 -->
      <g transform="translate(271.573564 246.673897) scale(0.1 -0.1)">
       <use xlink:href="#DejaVuSans-32"/>
       <use xlink:href="#DejaVuSans-35" x="63.623047"/>
       <use xlink:href="#DejaVuSans-30" x="127.246094"/>
      </g>
     </g>
    </g>
    <g id="xtick_7">
     <g id="line2d_7">
      <g>
       <use xlink:href="#m6740d5eb10" x="328.787604" y="232.07546" style="stroke: #000000; stroke-width: 0.8"/>
      </g>
     </g>
     <g id="text_7">
      <!-- 300 -->
      <g transform="translate(319.243854 246.673897) scale(0.1 -0.1)">
       <defs>
        <path id="DejaVuSans-33" d="M 2597 2516 
Q 3050 2419 3304 2112 
Q 3559 1806 3559 1356 
Q 3559 666 3084 287 
Q 2609 -91 1734 -91 
Q 1441 -91 1130 -33 
Q 819 25 488 141 
L 488 750 
Q 750 597 1062 519 
Q 1375 441 1716 441 
Q 2309 441 2620 675 
Q 2931 909 2931 1356 
Q 2931 1769 2642 2001 
Q 2353 2234 1838 2234 
L 1294 2234 
L 1294 2753 
L 1863 2753 
Q 2328 2753 2575 2939 
Q 2822 3125 2822 3475 
Q 2822 3834 2567 4026 
Q 2313 4219 1838 4219 
Q 1578 4219 1281 4162 
Q 984 4106 628 3988 
L 628 4550 
Q 988 4650 1302 4700 
Q 1616 4750 1894 4750 
Q 2613 4750 3031 4423 
Q 3450 4097 3450 3541 
Q 3450 3153 3228 2886 
Q 3006 2619 2597 2516 
z
" transform="scale(0.015625)"/>
       </defs>
       <use xlink:href="#DejaVuSans-33"/>
       <use xlink:href="#DejaVuSans-30" x="63.623047"/>
       <use xlink:href="#DejaVuSans-30" x="127.246094"/>
      </g>
     </g>
    </g>
    <g id="xtick_8">
     <g id="line2d_8">
      <g>
       <use xlink:href="#m6740d5eb10" x="376.457894" y="232.07546" style="stroke: #000000; stroke-width: 0.8"/>
      </g>
     </g>
     <g id="text_8">
      <!-- 350 -->
      <g transform="translate(366.914144 246.673897) scale(0.1 -0.1)">
       <use xlink:href="#DejaVuSans-33"/>
       <use xlink:href="#DejaVuSans-35" x="63.623047"/>
       <use xlink:href="#DejaVuSans-30" x="127.246094"/>
      </g>
     </g>
    </g>
    <g id="xtick_9">
     <g id="line2d_9">
      <g>
       <use xlink:href="#m6740d5eb10" x="424.128184" y="232.07546" style="stroke: #000000; stroke-width: 0.8"/>
      </g>
     </g>
     <g id="text_9">
      <!-- 400 -->
      <g transform="translate(414.584434 246.673897) scale(0.1 -0.1)">
       <defs>
        <path id="DejaVuSans-34" d="M 2419 4116 
L 825 1625 
L 2419 1625 
L 2419 4116 
z
M 2253 4666 
L 3047 4666 
L 3047 1625 
L 3713 1625 
L 3713 1100 
L 3047 1100 
L 3047 0 
L 2419 0 
L 2419 1100 
L 313 1100 
L 313 1709 
L 2253 4666 
z
" transform="scale(0.015625)"/>
       </defs>
       <use xlink:href="#DejaVuSans-34"/>
       <use xlink:href="#DejaVuSans-30" x="63.623047"/>
       <use xlink:href="#DejaVuSans-30" x="127.246094"/>
      </g>
     </g>
    </g>
    <g id="text_10">
     <!-- x [mm] -->
     <g transform="translate(215.256399 260.352022) scale(0.1 -0.1)">
      <defs>
       <path id="DejaVuSans-78" d="M 3513 3500 
L 2247 1797 
L 3578 0 
L 2900 0 
L 1881 1375 
L 863 0 
L 184 0 
L 1544 1831 
L 300 3500 
L 978 3500 
L 1906 2253 
L 2834 3500 
L 3513 3500 
z
" transform="scale(0.015625)"/>
       <path id="DejaVuSans-20" transform="scale(0.015625)"/>
       <path id="DejaVuSans-5b" d="M 550 4863 
L 1875 4863 
L 1875 4416 
L 1125 4416 
L 1125 -397 
L 1875 -397 
L 1875 -844 
L 550 -844 
L 550 4863 
z
" transform="scale(0.015625)"/>
       <path id="DejaVuSans-6d" d="M 3328 2828 
Q 3544 3216 3844 3400 
Q 4144 3584 4550 3584 
Q 5097 3584 5394 3201 
Q 5691 2819 5691 2113 
L 5691 0 
L 5113 0 
L 5113 2094 
Q 5113 2597 4934 2840 
Q 4756 3084 4391 3084 
Q 3944 3084 3684 2787 
Q 3425 2491 3425 1978 
L 3425 0 
L 2847 0 
L 2847 2094 
Q 2847 2600 2669 2842 
Q 2491 3084 2119 3084 
Q 1678 3084 1418 2786 
Q 1159 2488 1159 1978 
L 1159 0 
L 581 0 
L 581 3500 
L 1159 3500 
L 1159 2956 
Q 1356 3278 1631 3431 
Q 1906 3584 2284 3584 
Q 2666 3584 2933 3390 
Q 3200 3197 3328 2828 
z
" transform="scale(0.015625)"/>
       <path id="DejaVuSans-5d" d="M 1947 4863 
L 1947 -844 
L 622 -844 
L 622 -397 
L 1369 -397 
L 1369 4416 
L 622 4416 
L 622 4863 
L 1947 4863 
z
" transform="scale(0.015625)"/>
      </defs>
      <use xlink:href="#DejaVuSans-78"/>
      <use xlink:href="#DejaVuSans-20" x="59.179688"/>
      <use xlink:href="#DejaVuSans-5b" x="90.966797"/>
      <use xlink:href="#DejaVuSans-6d" x="129.980469"/>
      <use xlink:href="#DejaVuSans-6d" x="227.392578"/>
      <use xlink:href="#DejaVuSans-5d" x="324.804688"/>
     </g>
    </g>
   </g>
   <g id="matplotlib.axis_2">
    <g id="ytick_1">
     <g id="line2d_10">
      <defs>
       <path id="m563e2f0dd9" d="M 0 0 
L -3.5 0 
" style="stroke: #000000; stroke-width: 0.8"/>
      </defs>
      <g>
       <use xlink:href="#m563e2f0dd9" x="42.765865" y="41.3943" style="stroke: #000000; stroke-width: 0.8"/>
      </g>
     </g>
     <g id="text_11">
      <!-- 0 -->
      <g transform="translate(29.403365 45.193519) scale(0.1 -0.1)">
       <use xlink:href="#DejaVuSans-30"/>
      </g>
     </g>
    </g>
    <g id="ytick_2">
     <g id="line2d_11">
      <g>
       <use xlink:href="#m563e2f0dd9" x="42.765865" y="65.229445" style="stroke: #000000; stroke-width: 0.8"/>
      </g>
     </g>
     <g id="text_12">
      <!-- 25 -->
      <g transform="translate(23.040865 69.028664) scale(0.1 -0.1)">
       <use xlink:href="#DejaVuSans-32"/>
       <use xlink:href="#DejaVuSans-35" x="63.623047"/>
      </g>
     </g>
    </g>
    <g id="ytick_3">
     <g id="line2d_12">
      <g>
       <use xlink:href="#m563e2f0dd9" x="42.765865" y="89.06459" style="stroke: #000000; stroke-width: 0.8"/>
      </g>
     </g>
     <g id="text_13">
      <!-- 50 -->
      <g transform="translate(23.040865 92.863809) scale(0.1 -0.1)">
       <use xlink:href="#DejaVuSans-35"/>
       <use xlink:href="#DejaVuSans-30" x="63.623047"/>
      </g>
     </g>
    </g>
    <g id="ytick_4">
     <g id="line2d_13">
      <g>
       <use xlink:href="#m563e2f0dd9" x="42.765865" y="112.899735" style="stroke: #000000; stroke-width: 0.8"/>
      </g>
     </g>
     <g id="text_14">
      <!-- 75 -->
      <g transform="translate(23.040865 116.698954) scale(0.1 -0.1)">
       <defs>
        <path id="DejaVuSans-37" d="M 525 4666 
L 3525 4666 
L 3525 4397 
L 1831 0 
L 1172 0 
L 2766 4134 
L 525 4134 
L 525 4666 
z
" transform="scale(0.015625)"/>
       </defs>
       <use xlink:href="#DejaVuSans-37"/>
       <use xlink:href="#DejaVuSans-35" x="63.623047"/>
      </g>
     </g>
    </g>
    <g id="ytick_5">
     <g id="line2d_14">
      <g>
       <use xlink:href="#m563e2f0dd9" x="42.765865" y="136.73488" style="stroke: #000000; stroke-width: 0.8"/>
      </g>
     </g>
     <g id="text_15">
      <!-- 100 -->
      <g transform="translate(16.678365 140.534099) scale(0.1 -0.1)">
       <use xlink:href="#DejaVuSans-31"/>
       <use xlink:href="#DejaVuSans-30" x="63.623047"/>
       <use xlink:href="#DejaVuSans-30" x="127.246094"/>
      </g>
     </g>
    </g>
    <g id="ytick_6">
     <g id="line2d_15">
      <g>
       <use xlink:href="#m563e2f0dd9" x="42.765865" y="160.570025" style="stroke: #000000; stroke-width: 0.8"/>
      </g>
     </g>
     <g id="text_16">
      <!-- 125 -->
      <g transform="translate(16.678365 164.369244) scale(0.1 -0.1)">
       <use xlink:href="#DejaVuSans-31"/>
       <use xlink:href="#DejaVuSans-32" x="63.623047"/>
       <use xlink:href="#DejaVuSans-35" x="127.246094"/>
      </g>
     </g>
    </g>
    <g id="ytick_7">
     <g id="line2d_16">
      <g>
       <use xlink:href="#m563e2f0dd9" x="42.765865" y="184.40517" style="stroke: #000000; stroke-width: 0.8"/>
      </g>
     </g>
     <g id="text_17">
      <!-- 150 -->
      <g transform="translate(16.678365 188.204389) scale(0.1 -0.1)">
       <use xlink:href="#DejaVuSans-31"/>
       <use xlink:href="#DejaVuSans-35" x="63.623047"/>
       <use xlink:href="#DejaVuSans-30" x="127.246094"/>
      </g>
     </g>
    </g>
    <g id="ytick_8">
     <g id="line2d_17">
      <g>
       <use xlink:href="#m563e2f0dd9" x="42.765865" y="208.240315" style="stroke: #000000; stroke-width: 0.8"/>
      </g>
     </g>
     <g id="text_18">
      <!-- 175 -->
      <g transform="translate(16.678365 212.039534) scale(0.1 -0.1)">
       <use xlink:href="#DejaVuSans-31"/>
       <use xlink:href="#DejaVuSans-37" x="63.623047"/>
       <use xlink:href="#DejaVuSans-35" x="127.246094"/>
      </g>
     </g>
    </g>
    <g id="ytick_9">
     <g id="line2d_18">
      <g>
       <use xlink:href="#m563e2f0dd9" x="42.765865" y="232.07546" style="stroke: #000000; stroke-width: 0.8"/>
      </g>
     </g>
     <g id="text_19">
      <!-- 200 -->
      <g transform="translate(16.678365 235.874679) scale(0.1 -0.1)">
       <use xlink:href="#DejaVuSans-32"/>
       <use xlink:href="#DejaVuSans-30" x="63.623047"/>
       <use xlink:href="#DejaVuSans-30" x="127.246094"/>
      </g>
     </g>
    </g>
    <g id="text_20">
     <!-- y [mm] -->
     <g transform="translate(10.598678 154.925505) rotate(-90) scale(0.1 -0.1)">
      <defs>
       <path id="DejaVuSans-79" d="M 2059 -325 
Q 1816 -950 1584 -1140 
Q 1353 -1331 966 -1331 
L 506 -1331 
L 506 -850 
L 844 -850 
Q 1081 -850 1212 -737 
Q 1344 -625 1503 -206 
L 1606 56 
L 191 3500 
L 800 3500 
L 1894 763 
L 2988 3500 
L 3597 3500 
L 2059 -325 
z
" transform="scale(0.015625)"/>
      </defs>
      <use xlink:href="#DejaVuSans-79"/>
      <use xlink:href="#DejaVuSans-20" x="59.179688"/>
      <use xlink:href="#DejaVuSans-5b" x="90.966797"/>
      <use xlink:href="#DejaVuSans-6d" x="129.980469"/>
      <use xlink:href="#DejaVuSans-6d" x="227.392578"/>
      <use xlink:href="#DejaVuSans-5d" x="324.804688"/>
     </g>
    </g>
   </g>
   <g id="PathCollection_20">
    <path d="M 42.765865 184.345709 
L 51.104381 180.826114 
L 54.683437 179.162493 
L 64.347165 174.741442 
L 66.60101 173.7451 
L 67.481326 173.367913 
L 69.401579 172.487597 
L 83.693097 165.744539 
L 90.436155 162.297631 
L 94.0075 160.570025 
L 98.605168 158.320889 
L 102.353727 156.282094 
L 111.449182 151.726211 
L 114.2713 150.134326 
L 121.715383 146.268938 
L 123.648033 145.252602 
L 126.188872 143.761137 
L 133.782141 139.772187 
L 138.106445 137.197993 
L 138.988123 136.73488 
L 143.718236 134.212568 
L 150.024017 130.32025 
L 153.405093 128.553253 
L 155.593635 127.200822 
L 161.94159 123.165502 
L 164.710347 121.711533 
L 173.859162 115.531815 
L 176.225383 114.319467 
L 178.294318 112.899735 
L 185.776735 107.356149 
L 189.884103 105.089531 
L 196.656975 100.982163 
L 203.440723 94.811006 
L 209.272816 89.06459 
L 209.61188 88.650314 
L 213.821095 85.142819 
L 220.345988 79.530532 
L 221.90426 76.852257 
L 223.912967 73.558832 
L 227.688334 69.996474 
L 228.065569 69.382048 
L 232.389795 65.229445 
L 232.191484 63.973905 
L 233.447024 60.462416 
L 233.447024 58.078902 
L 233.447024 55.695387 
L 233.447024 53.311873 
L 233.447024 50.928358 
L 233.447024 48.544844 
L 233.447024 46.161329 
L 233.447024 43.777815 
L 233.447024 41.3943 
" clip-path="url(#p20043bc569)" style="fill: none; stroke: #263238; stroke-width: 0.55"/>
    <path d="M 345.942686 41.3943 
L 345.757138 41.489278 
L 345.472206 41.747502 
L 339.090033 44.033938 
L 338.321662 44.902975 
L 333.933166 46.161329 
L 333.700038 46.234032 
L 333.554633 46.551162 
L 328.787604 48.544844 
L 328.787604 50.928358 
L 328.787604 53.311873 
L 328.787604 55.695387 
L 328.787604 58.078902 
L 328.787604 60.462416 
L 324.020575 60.462416 
L 319.253546 60.462416 
L 312.103003 60.462416 
L 304.952459 60.462416 
L 293.034887 60.462416 
L 295.026192 69.199952 
L 293.644594 69.996474 
L 293.177725 70.110745 
L 293.034887 70.601857 
L 288.493132 85.431186 
L 289.987527 89.06459 
L 290.85497 91.244507 
L 287.879233 100.982163 
L 287.071811 106.936659 
L 287.951437 112.899735 
L 288.397254 115.682315 
L 287.245566 123.72723 
L 287.674212 127.200822 
L 287.955392 129.23262 
L 287.489493 134.516723 
L 287.76854 136.73488 
L 288.047941 138.729658 
L 287.780604 144.167225 
L 288.05894 146.268938 
L 288.471716 149.00684 
L 288.410816 157.795583 
L 288.809573 160.570025 
L 289.43071 164.174202 
L 289.32168 172.487597 
L 290.256355 181.626638 
L 290.711479 184.40517 
L 291.089345 186.350711 
L 291.529455 196.322742 
L 293.132334 208.142868 
L 293.133347 208.240315 
L 293.136602 208.34203 
L 294.105876 220.157887 
L 295.553347 229.557 
L 295.662776 232.07546 
" clip-path="url(#p20043bc569)" style="fill: none; stroke: #263238; stroke-width: 0.55"/>
   </g>
   <g id="patch_3">
    <path d="M 42.765865 232.07546 
L 42.765865 41.3943 
" style="fill: none; stroke: #000000; stroke-width: 0.8; stroke-linejoin: miter; stroke-linecap: square"/>
   </g>
   <g id="patch_4">
    <path d="M 424.128184 232.07546 
L 424.128184 41.3943 
" style="fill: none; stroke: #000000; stroke-width: 0.8; stroke-linejoin: miter; stroke-linecap: square"/>
   </g>
   <g id="patch_5">
    <path d="M 42.765865 232.07546 
L 424.128184 232.07546 
" style="fill: none; stroke: #000000; stroke-width: 0.8; stroke-linejoin: miter; stroke-linecap: square"/>
   </g>
   <g id="patch_6">
    <path d="M 42.765865 41.3943 
L 424.128184 41.3943 
" style="fill: none; stroke: #000000; stroke-width: 0.8; stroke-linejoin: miter; stroke-linecap: square"/>
   </g>
   <g id="text_21">
    <!-- CalculiX C3D20R — Mode 3: 23.32 Hz -->
    <g transform="translate(120.469837 35.3943) scale(0.12 -0.12)">
     <defs>
      <path id="DejaVuSans-43" d="M 4122 4306 
L 4122 3641 
Q 3803 3938 3442 4084 
Q 3081 4231 2675 4231 
Q 1875 4231 1450 3742 
Q 1025 3253 1025 2328 
Q 1025 1406 1450 917 
Q 1875 428 2675 428 
Q 3081 428 3442 575 
Q 3803 722 4122 1019 
L 4122 359 
Q 3791 134 3420 21 
Q 3050 -91 2638 -91 
Q 1578 -91 968 557 
Q 359 1206 359 2328 
Q 359 3453 968 4101 
Q 1578 4750 2638 4750 
Q 3056 4750 3426 4639 
Q 3797 4528 4122 4306 
z
" transform="scale(0.015625)"/>
      <path id="DejaVuSans-61" d="M 2194 1759 
Q 1497 1759 1228 1600 
Q 959 1441 959 1056 
Q 959 750 1161 570 
Q 1363 391 1709 391 
Q 2188 391 2477 730 
Q 2766 1069 2766 1631 
L 2766 1759 
L 2194 1759 
z
M 3341 1997 
L 3341 0 
L 2766 0 
L 2766 531 
Q 2569 213 2275 61 
Q 1981 -91 1556 -91 
Q 1019 -91 701 211 
Q 384 513 384 1019 
Q 384 1609 779 1909 
Q 1175 2209 1959 2209 
L 2766 2209 
L 2766 2266 
Q 2766 2663 2505 2880 
Q 2244 3097 1772 3097 
Q 1472 3097 1187 3025 
Q 903 2953 641 2809 
L 641 3341 
Q 956 3463 1253 3523 
Q 1550 3584 1831 3584 
Q 2591 3584 2966 3190 
Q 3341 2797 3341 1997 
z
" transform="scale(0.015625)"/>
      <path id="DejaVuSans-6c" d="M 603 4863 
L 1178 4863 
L 1178 0 
L 603 0 
L 603 4863 
z
" transform="scale(0.015625)"/>
      <path id="DejaVuSans-63" d="M 3122 3366 
L 3122 2828 
Q 2878 2963 2633 3030 
Q 2388 3097 2138 3097 
Q 1578 3097 1268 2742 
Q 959 2388 959 1747 
Q 959 1106 1268 751 
Q 1578 397 2138 397 
Q 2388 397 2633 464 
Q 2878 531 3122 666 
L 3122 134 
Q 2881 22 2623 -34 
Q 2366 -91 2075 -91 
Q 1284 -91 818 406 
Q 353 903 353 1747 
Q 353 2603 823 3093 
Q 1294 3584 2113 3584 
Q 2378 3584 2631 3529 
Q 2884 3475 3122 3366 
z
" transform="scale(0.015625)"/>
      <path id="DejaVuSans-75" d="M 544 1381 
L 544 3500 
L 1119 3500 
L 1119 1403 
Q 1119 906 1312 657 
Q 1506 409 1894 409 
Q 2359 409 2629 706 
Q 2900 1003 2900 1516 
L 2900 3500 
L 3475 3500 
L 3475 0 
L 2900 0 
L 2900 538 
Q 2691 219 2414 64 
Q 2138 -91 1772 -91 
Q 1169 -91 856 284 
Q 544 659 544 1381 
z
M 1991 3584 
L 1991 3584 
z
" transform="scale(0.015625)"/>
      <path id="DejaVuSans-69" d="M 603 3500 
L 1178 3500 
L 1178 0 
L 603 0 
L 603 3500 
z
M 603 4863 
L 1178 4863 
L 1178 4134 
L 603 4134 
L 603 4863 
z
" transform="scale(0.015625)"/>
      <path id="DejaVuSans-58" d="M 403 4666 
L 1081 4666 
L 2241 2931 
L 3406 4666 
L 4084 4666 
L 2584 2425 
L 4184 0 
L 3506 0 
L 2194 1984 
L 872 0 
L 191 0 
L 1856 2491 
L 403 4666 
z
" transform="scale(0.015625)"/>
      <path id="DejaVuSans-44" d="M 1259 4147 
L 1259 519 
L 2022 519 
Q 2988 519 3436 956 
Q 3884 1394 3884 2338 
Q 3884 3275 3436 3711 
Q 2988 4147 2022 4147 
L 1259 4147 
z
M 628 4666 
L 1925 4666 
Q 3281 4666 3915 4102 
Q 4550 3538 4550 2338 
Q 4550 1131 3912 565 
Q 3275 0 1925 0 
L 628 0 
L 628 4666 
z
" transform="scale(0.015625)"/>
      <path id="DejaVuSans-52" d="M 2841 2188 
Q 3044 2119 3236 1894 
Q 3428 1669 3622 1275 
L 4263 0 
L 3584 0 
L 2988 1197 
Q 2756 1666 2539 1819 
Q 2322 1972 1947 1972 
L 1259 1972 
L 1259 0 
L 628 0 
L 628 4666 
L 2053 4666 
Q 2853 4666 3247 4331 
Q 3641 3997 3641 3322 
Q 3641 2881 3436 2590 
Q 3231 2300 2841 2188 
z
M 1259 4147 
L 1259 2491 
L 2053 2491 
Q 2509 2491 2742 2702 
Q 2975 2913 2975 3322 
Q 2975 3731 2742 3939 
Q 2509 4147 2053 4147 
L 1259 4147 
z
" transform="scale(0.015625)"/>
      <path id="DejaVuSans-2014" d="M 313 1978 
L 6088 1978 
L 6088 1528 
L 313 1528 
L 313 1978 
z
" transform="scale(0.015625)"/>
      <path id="DejaVuSans-4d" d="M 628 4666 
L 1569 4666 
L 2759 1491 
L 3956 4666 
L 4897 4666 
L 4897 0 
L 4281 0 
L 4281 4097 
L 3078 897 
L 2444 897 
L 1241 4097 
L 1241 0 
L 628 0 
L 628 4666 
z
" transform="scale(0.015625)"/>
      <path id="DejaVuSans-6f" d="M 1959 3097 
Q 1497 3097 1228 2736 
Q 959 2375 959 1747 
Q 959 1119 1226 758 
Q 1494 397 1959 397 
Q 2419 397 2687 759 
Q 2956 1122 2956 1747 
Q 2956 2369 2687 2733 
Q 2419 3097 1959 3097 
z
M 1959 3584 
Q 2709 3584 3137 3096 
Q 3566 2609 3566 1747 
Q 3566 888 3137 398 
Q 2709 -91 1959 -91 
Q 1206 -91 779 398 
Q 353 888 353 1747 
Q 353 2609 779 3096 
Q 1206 3584 1959 3584 
z
" transform="scale(0.015625)"/>
      <path id="DejaVuSans-64" d="M 2906 2969 
L 2906 4863 
L 3481 4863 
L 3481 0 
L 2906 0 
L 2906 525 
Q 2725 213 2448 61 
Q 2172 -91 1784 -91 
Q 1150 -91 751 415 
Q 353 922 353 1747 
Q 353 2572 751 3078 
Q 1150 3584 1784 3584 
Q 2172 3584 2448 3432 
Q 2725 3281 2906 2969 
z
M 947 1747 
Q 947 1113 1208 752 
Q 1469 391 1925 391 
Q 2381 391 2643 752 
Q 2906 1113 2906 1747 
Q 2906 2381 2643 2742 
Q 2381 3103 1925 3103 
Q 1469 3103 1208 2742 
Q 947 2381 947 1747 
z
" transform="scale(0.015625)"/>
      <path id="DejaVuSans-65" d="M 3597 1894 
L 3597 1613 
L 953 1613 
Q 991 1019 1311 708 
Q 1631 397 2203 397 
Q 2534 397 2845 478 
Q 3156 559 3463 722 
L 3463 178 
Q 3153 47 2828 -22 
Q 2503 -91 2169 -91 
Q 1331 -91 842 396 
Q 353 884 353 1716 
Q 353 2575 817 3079 
Q 1281 3584 2069 3584 
Q 2775 3584 3186 3129 
Q 3597 2675 3597 1894 
z
M 3022 2063 
Q 3016 2534 2758 2815 
Q 2500 3097 2075 3097 
Q 1594 3097 1305 2825 
Q 1016 2553 972 2059 
L 3022 2063 
z
" transform="scale(0.015625)"/>
      <path id="DejaVuSans-3a" d="M 750 794 
L 1409 794 
L 1409 0 
L 750 0 
L 750 794 
z
M 750 3309 
L 1409 3309 
L 1409 2516 
L 750 2516 
L 750 3309 
z
" transform="scale(0.015625)"/>
      <path id="DejaVuSans-2e" d="M 684 794 
L 1344 794 
L 1344 0 
L 684 0 
L 684 794 
z
" transform="scale(0.015625)"/>
      <path id="DejaVuSans-48" d="M 628 4666 
L 1259 4666 
L 1259 2753 
L 3553 2753 
L 3553 4666 
L 4184 4666 
L 4184 0 
L 3553 0 
L 3553 2222 
L 1259 2222 
L 1259 0 
L 628 0 
L 628 4666 
z
" transform="scale(0.015625)"/>
      <path id="DejaVuSans-7a" d="M 353 3500 
L 3084 3500 
L 3084 2975 
L 922 459 
L 3084 459 
L 3084 0 
L 275 0 
L 275 525 
L 2438 3041 
L 353 3041 
L 353 3500 
z
" transform="scale(0.015625)"/>
     </defs>
     <use xlink:href="#DejaVuSans-43"/>
     <use xlink:href="#DejaVuSans-61" x="69.824219"/>
     <use xlink:href="#DejaVuSans-6c" x="131.103516"/>
     <use xlink:href="#DejaVuSans-63" x="158.886719"/>
     <use xlink:href="#DejaVuSans-75" x="213.867188"/>
     <use xlink:href="#DejaVuSans-6c" x="277.246094"/>
     <use xlink:href="#DejaVuSans-69" x="305.029297"/>
     <use xlink:href="#DejaVuSans-58" x="332.8125"/>
     <use xlink:href="#DejaVuSans-20" x="401.318359"/>
     <use xlink:href="#DejaVuSans-43" x="433.105469"/>
     <use xlink:href="#DejaVuSans-33" x="502.929688"/>
     <use xlink:href="#DejaVuSans-44" x="566.552734"/>
     <use xlink:href="#DejaVuSans-32" x="643.554688"/>
     <use xlink:href="#DejaVuSans-30" x="707.177734"/>
     <use xlink:href="#DejaVuSans-52" x="770.800781"/>
     <use xlink:href="#DejaVuSans-20" x="840.283203"/>
     <use xlink:href="#DejaVuSans-2014" x="872.070312"/>
     <use xlink:href="#DejaVuSans-20" x="972.070312"/>
     <use xlink:href="#DejaVuSans-4d" x="1003.857422"/>
     <use xlink:href="#DejaVuSans-6f" x="1090.136719"/>
     <use xlink:href="#DejaVuSans-64" x="1151.318359"/>
     <use xlink:href="#DejaVuSans-65" x="1214.794922"/>
     <use xlink:href="#DejaVuSans-20" x="1276.318359"/>
     <use xlink:href="#DejaVuSans-33" x="1308.105469"/>
     <use xlink:href="#DejaVuSans-3a" x="1371.728516"/>
     <use xlink:href="#DejaVuSans-20" x="1405.419922"/>
     <use xlink:href="#DejaVuSans-32" x="1437.207031"/>
     <use xlink:href="#DejaVuSans-33" x="1500.830078"/>
     <use xlink:href="#DejaVuSans-2e" x="1564.453125"/>
     <use xlink:href="#DejaVuSans-33" x="1596.240234"/>
     <use xlink:href="#DejaVuSans-32" x="1659.863281"/>
     <use xlink:href="#DejaVuSans-20" x="1723.486328"/>
     <use xlink:href="#DejaVuSans-48" x="1755.273438"/>
     <use xlink:href="#DejaVuSans-7a" x="1830.46875"/>
    </g>
   </g>
  </g>
  <g id="axes_2">
   <g id="patch_7">
    <path d="M 452.74005 231.564898 
L 463.171352 231.564898 
L 463.171352 41.904863 
L 452.74005 41.904863 
z
" style="fill: #ffffff"/>
   </g>
   <g id="patch_8">
    <path clip-path="url(#pac3aa1bbbc)" style="fill: #ffffff; stroke: #ffffff; stroke-width: 0.01; stroke-linejoin: miter"/>
   </g>
   <g id="patch_9">
    <path d="M 452.74005 231.564898 
L 457.955701 241.047899 
L 463.171352 231.564898 
" style="fill: #053061"/>
   </g>
   <g id="patch_10">
    <path d="M 452.74005 41.904863 
L 457.955701 32.421861 
L 463.171352 41.904863 
" style="fill: #67001f"/>
   </g>
   <g id="QuadMesh_1">
    <path d="M 452.74005 231.564898 
L 463.171352 231.564898 
L 463.171352 219.711145 
L 452.74005 219.711145 
L 452.74005 231.564898 
" clip-path="url(#pac3aa1bbbc)" style="fill: #0e4179"/>
    <path d="M 452.74005 219.711145 
L 463.171352 219.711145 
L 463.171352 207.857393 
L 452.74005 207.857393 
L 452.74005 219.711145 
" clip-path="url(#pac3aa1bbbc)" style="fill: #1f63a8"/>
    <path d="M 452.74005 207.857393 
L 463.171352 207.857393 
L 463.171352 196.003641 
L 452.74005 196.003641 
L 452.74005 207.857393 
" clip-path="url(#pac3aa1bbbc)" style="fill: #3480b9"/>
    <path d="M 452.74005 196.003641 
L 463.171352 196.003641 
L 463.171352 184.149889 
L 452.74005 184.149889 
L 452.74005 196.003641 
" clip-path="url(#pac3aa1bbbc)" style="fill: #529dc8"/>
    <path d="M 452.74005 184.149889 
L 463.171352 184.149889 
L 463.171352 172.296137 
L 452.74005 172.296137 
L 452.74005 184.149889 
" clip-path="url(#pac3aa1bbbc)" style="fill: #84bcd9"/>
    <path d="M 452.74005 172.296137 
L 463.171352 172.296137 
L 463.171352 160.442384 
L 452.74005 160.442384 
L 452.74005 172.296137 
" clip-path="url(#pac3aa1bbbc)" style="fill: #aed3e6"/>
    <path d="M 452.74005 160.442384 
L 463.171352 160.442384 
L 463.171352 148.588632 
L 452.74005 148.588632 
L 452.74005 160.442384 
" clip-path="url(#pac3aa1bbbc)" style="fill: #d4e6f1"/>
    <path d="M 452.74005 148.588632 
L 463.171352 148.588632 
L 463.171352 136.73488 
L 452.74005 136.73488 
L 452.74005 148.588632 
" clip-path="url(#pac3aa1bbbc)" style="fill: #ecf2f5"/>
    <path d="M 452.74005 136.73488 
L 463.171352 136.73488 
L 463.171352 124.881128 
L 452.74005 124.881128 
L 452.74005 136.73488 
" clip-path="url(#pac3aa1bbbc)" style="fill: #f9eee7"/>
    <path d="M 452.74005 124.881128 
L 463.171352 124.881128 
L 463.171352 113.027376 
L 452.74005 113.027376 
L 452.74005 124.881128 
" clip-path="url(#pac3aa1bbbc)" style="fill: #fddcc9"/>
    <path d="M 452.74005 113.027376 
L 463.171352 113.027376 
L 463.171352 101.173624 
L 452.74005 101.173624 
L 452.74005 113.027376 
" clip-path="url(#pac3aa1bbbc)" style="fill: #f8bb9e"/>
    <path d="M 452.74005 101.173624 
L 463.171352 101.173624 
L 463.171352 89.319871 
L 452.74005 89.319871 
L 452.74005 101.173624 
" clip-path="url(#pac3aa1bbbc)" style="fill: #ee9677"/>
    <path d="M 452.74005 89.319871 
L 463.171352 89.319871 
L 463.171352 77.466119 
L 452.74005 77.466119 
L 452.74005 89.319871 
" clip-path="url(#pac3aa1bbbc)" style="fill: #db6b55"/>
    <path d="M 452.74005 77.466119 
L 463.171352 77.466119 
L 463.171352 65.612367 
L 452.74005 65.612367 
L 452.74005 77.466119 
" clip-path="url(#pac3aa1bbbc)" style="fill: #c53e3d"/>
    <path d="M 452.74005 65.612367 
L 463.171352 65.612367 
L 463.171352 53.758615 
L 452.74005 53.758615 
L 452.74005 65.612367 
" clip-path="url(#pac3aa1bbbc)" style="fill: #ab162a"/>
    <path d="M 452.74005 53.758615 
L 463.171352 53.758615 
L 463.171352 41.904863 
L 452.74005 41.904863 
L 452.74005 53.758615 
" clip-path="url(#pac3aa1bbbc)" style="fill: #7c0722"/>
   </g>
   <g id="matplotlib.axis_3"/>
   <g id="matplotlib.axis_4">
    <g id="ytick_10">
     <g id="line2d_19">
      <defs>
       <path id="m005c00a35f" d="M 0 0 
L 3.5 0 
" style="stroke: #000000; stroke-width: 0.8"/>
      </defs>
      <g>
       <use xlink:href="#m005c00a35f" x="463.171352" y="231.564898" style="stroke: #000000; stroke-width: 0.8"/>
      </g>
     </g>
     <g id="text_22">
      <!-- −1.00 -->
      <g transform="translate(470.171352 235.364116) scale(0.1 -0.1)">
       <defs>
        <path id="DejaVuSans-2212" d="M 678 2272 
L 4684 2272 
L 4684 1741 
L 678 1741 
L 678 2272 
z
" transform="scale(0.015625)"/>
       </defs>
       <use xlink:href="#DejaVuSans-2212"/>
       <use xlink:href="#DejaVuSans-31" x="83.789062"/>
       <use xlink:href="#DejaVuSans-2e" x="147.412109"/>
       <use xlink:href="#DejaVuSans-30" x="179.199219"/>
       <use xlink:href="#DejaVuSans-30" x="242.822266"/>
      </g>
     </g>
    </g>
    <g id="ytick_11">
     <g id="line2d_20">
      <g>
       <use xlink:href="#m005c00a35f" x="463.171352" y="207.857393" style="stroke: #000000; stroke-width: 0.8"/>
      </g>
     </g>
     <g id="text_23">
      <!-- −0.75 -->
      <g transform="translate(470.171352 211.656612) scale(0.1 -0.1)">
       <use xlink:href="#DejaVuSans-2212"/>
       <use xlink:href="#DejaVuSans-30" x="83.789062"/>
       <use xlink:href="#DejaVuSans-2e" x="147.412109"/>
       <use xlink:href="#DejaVuSans-37" x="179.199219"/>
       <use xlink:href="#DejaVuSans-35" x="242.822266"/>
      </g>
     </g>
    </g>
    <g id="ytick_12">
     <g id="line2d_21">
      <g>
       <use xlink:href="#m005c00a35f" x="463.171352" y="184.149889" style="stroke: #000000; stroke-width: 0.8"/>
      </g>
     </g>
     <g id="text_24">
      <!-- −0.50 -->
      <g transform="translate(470.171352 187.949108) scale(0.1 -0.1)">
       <use xlink:href="#DejaVuSans-2212"/>
       <use xlink:href="#DejaVuSans-30" x="83.789062"/>
       <use xlink:href="#DejaVuSans-2e" x="147.412109"/>
       <use xlink:href="#DejaVuSans-35" x="179.199219"/>
       <use xlink:href="#DejaVuSans-30" x="242.822266"/>
      </g>
     </g>
    </g>
    <g id="ytick_13">
     <g id="line2d_22">
      <g>
       <use xlink:href="#m005c00a35f" x="463.171352" y="160.442384" style="stroke: #000000; stroke-width: 0.8"/>
      </g>
     </g>
     <g id="text_25">
      <!-- −0.25 -->
      <g transform="translate(470.171352 164.241603) scale(0.1 -0.1)">
       <use xlink:href="#DejaVuSans-2212"/>
       <use xlink:href="#DejaVuSans-30" x="83.789062"/>
       <use xlink:href="#DejaVuSans-2e" x="147.412109"/>
       <use xlink:href="#DejaVuSans-32" x="179.199219"/>
       <use xlink:href="#DejaVuSans-35" x="242.822266"/>
      </g>
     </g>
    </g>
    <g id="ytick_14">
     <g id="line2d_23">
      <g>
       <use xlink:href="#m005c00a35f" x="463.171352" y="136.73488" style="stroke: #000000; stroke-width: 0.8"/>
      </g>
     </g>
     <g id="text_26">
      <!-- 0.00 -->
      <g transform="translate(470.171352 140.534099) scale(0.1 -0.1)">
       <use xlink:href="#DejaVuSans-30"/>
       <use xlink:href="#DejaVuSans-2e" x="63.623047"/>
       <use xlink:href="#DejaVuSans-30" x="95.410156"/>
       <use xlink:href="#DejaVuSans-30" x="159.033203"/>
      </g>
     </g>
    </g>
    <g id="ytick_15">
     <g id="line2d_24">
      <g>
       <use xlink:href="#m005c00a35f" x="463.171352" y="113.027376" style="stroke: #000000; stroke-width: 0.8"/>
      </g>
     </g>
     <g id="text_27">
      <!-- 0.25 -->
      <g transform="translate(470.171352 116.826594) scale(0.1 -0.1)">
       <use xlink:href="#DejaVuSans-30"/>
       <use xlink:href="#DejaVuSans-2e" x="63.623047"/>
       <use xlink:href="#DejaVuSans-32" x="95.410156"/>
       <use xlink:href="#DejaVuSans-35" x="159.033203"/>
      </g>
     </g>
    </g>
    <g id="ytick_16">
     <g id="line2d_25">
      <g>
       <use xlink:href="#m005c00a35f" x="463.171352" y="89.319871" style="stroke: #000000; stroke-width: 0.8"/>
      </g>
     </g>
     <g id="text_28">
      <!-- 0.50 -->
      <g transform="translate(470.171352 93.11909) scale(0.1 -0.1)">
       <use xlink:href="#DejaVuSans-30"/>
       <use xlink:href="#DejaVuSans-2e" x="63.623047"/>
       <use xlink:href="#DejaVuSans-35" x="95.410156"/>
       <use xlink:href="#DejaVuSans-30" x="159.033203"/>
      </g>
     </g>
    </g>
    <g id="ytick_17">
     <g id="line2d_26">
      <g>
       <use xlink:href="#m005c00a35f" x="463.171352" y="65.612367" style="stroke: #000000; stroke-width: 0.8"/>
      </g>
     </g>
     <g id="text_29">
      <!-- 0.75 -->
      <g transform="translate(470.171352 69.411586) scale(0.1 -0.1)">
       <use xlink:href="#DejaVuSans-30"/>
       <use xlink:href="#DejaVuSans-2e" x="63.623047"/>
       <use xlink:href="#DejaVuSans-37" x="95.410156"/>
       <use xlink:href="#DejaVuSans-35" x="159.033203"/>
      </g>
     </g>
    </g>
    <g id="ytick_18">
     <g id="line2d_27">
      <g>
       <use xlink:href="#m005c00a35f" x="463.171352" y="41.904863" style="stroke: #000000; stroke-width: 0.8"/>
      </g>
     </g>
     <g id="text_30">
      <!-- 1.00 -->
      <g transform="translate(470.171352 45.704081) scale(0.1 -0.1)">
       <use xlink:href="#DejaVuSans-31"/>
       <use xlink:href="#DejaVuSans-2e" x="63.623047"/>
       <use xlink:href="#DejaVuSans-30" x="95.410156"/>
       <use xlink:href="#DejaVuSans-30" x="159.033203"/>
      </g>
     </g>
    </g>
    <g id="text_31">
     <!-- normalized z displacement -->
     <g transform="translate(512.415102 204.017693) rotate(-90) scale(0.1 -0.1)">
      <defs>
       <path id="DejaVuSans-6e" d="M 3513 2113 
L 3513 0 
L 2938 0 
L 2938 2094 
Q 2938 2591 2744 2837 
Q 2550 3084 2163 3084 
Q 1697 3084 1428 2787 
Q 1159 2491 1159 1978 
L 1159 0 
L 581 0 
L 581 3500 
L 1159 3500 
L 1159 2956 
Q 1366 3272 1645 3428 
Q 1925 3584 2291 3584 
Q 2894 3584 3203 3211 
Q 3513 2838 3513 2113 
z
" transform="scale(0.015625)"/>
       <path id="DejaVuSans-72" d="M 2631 2963 
Q 2534 3019 2420 3045 
Q 2306 3072 2169 3072 
Q 1681 3072 1420 2755 
Q 1159 2438 1159 1844 
L 1159 0 
L 581 0 
L 581 3500 
L 1159 3500 
L 1159 2956 
Q 1341 3275 1631 3429 
Q 1922 3584 2338 3584 
Q 2397 3584 2469 3576 
Q 2541 3569 2628 3553 
L 2631 2963 
z
" transform="scale(0.015625)"/>
       <path id="DejaVuSans-73" d="M 2834 3397 
L 2834 2853 
Q 2591 2978 2328 3040 
Q 2066 3103 1784 3103 
Q 1356 3103 1142 2972 
Q 928 2841 928 2578 
Q 928 2378 1081 2264 
Q 1234 2150 1697 2047 
L 1894 2003 
Q 2506 1872 2764 1633 
Q 3022 1394 3022 966 
Q 3022 478 2636 193 
Q 2250 -91 1575 -91 
Q 1294 -91 989 -36 
Q 684 19 347 128 
L 347 722 
Q 666 556 975 473 
Q 1284 391 1588 391 
Q 1994 391 2212 530 
Q 2431 669 2431 922 
Q 2431 1156 2273 1281 
Q 2116 1406 1581 1522 
L 1381 1569 
Q 847 1681 609 1914 
Q 372 2147 372 2553 
Q 372 3047 722 3315 
Q 1072 3584 1716 3584 
Q 2034 3584 2315 3537 
Q 2597 3491 2834 3397 
z
" transform="scale(0.015625)"/>
       <path id="DejaVuSans-70" d="M 1159 525 
L 1159 -1331 
L 581 -1331 
L 581 3500 
L 1159 3500 
L 1159 2969 
Q 1341 3281 1617 3432 
Q 1894 3584 2278 3584 
Q 2916 3584 3314 3078 
Q 3713 2572 3713 1747 
Q 3713 922 3314 415 
Q 2916 -91 2278 -91 
Q 1894 -91 1617 61 
Q 1341 213 1159 525 
z
M 3116 1747 
Q 3116 2381 2855 2742 
Q 2594 3103 2138 3103 
Q 1681 3103 1420 2742 
Q 1159 2381 1159 1747 
Q 1159 1113 1420 752 
Q 1681 391 2138 391 
Q 2594 391 2855 752 
Q 3116 1113 3116 1747 
z
" transform="scale(0.015625)"/>
       <path id="DejaVuSans-74" d="M 1172 4494 
L 1172 3500 
L 2356 3500 
L 2356 3053 
L 1172 3053 
L 1172 1153 
Q 1172 725 1289 603 
Q 1406 481 1766 481 
L 2356 481 
L 2356 0 
L 1766 0 
Q 1100 0 847 248 
Q 594 497 594 1153 
L 594 3053 
L 172 3053 
L 172 3500 
L 594 3500 
L 594 4494 
L 1172 4494 
z
" transform="scale(0.015625)"/>
      </defs>
      <use xlink:href="#DejaVuSans-6e"/>
      <use xlink:href="#DejaVuSans-6f" x="63.378906"/>
      <use xlink:href="#DejaVuSans-72" x="124.560547"/>
      <use xlink:href="#DejaVuSans-6d" x="163.923828"/>
      <use xlink:href="#DejaVuSans-61" x="261.335938"/>
      <use xlink:href="#DejaVuSans-6c" x="322.615234"/>
      <use xlink:href="#DejaVuSans-69" x="350.398438"/>
      <use xlink:href="#DejaVuSans-7a" x="378.181641"/>
      <use xlink:href="#DejaVuSans-65" x="430.671875"/>
      <use xlink:href="#DejaVuSans-64" x="492.195312"/>
      <use xlink:href="#DejaVuSans-20" x="555.671875"/>
      <use xlink:href="#DejaVuSans-7a" x="587.458984"/>
      <use xlink:href="#DejaVuSans-20" x="639.949219"/>
      <use xlink:href="#DejaVuSans-64" x="671.736328"/>
      <use xlink:href="#DejaVuSans-69" x="735.212891"/>
      <use xlink:href="#DejaVuSans-73" x="762.996094"/>
      <use xlink:href="#DejaVuSans-70" x="815.095703"/>
      <use xlink:href="#DejaVuSans-6c" x="878.572266"/>
      <use xlink:href="#DejaVuSans-61" x="906.355469"/>
      <use xlink:href="#DejaVuSans-63" x="967.634766"/>
      <use xlink:href="#DejaVuSans-65" x="1022.615234"/>
      <use xlink:href="#DejaVuSans-6d" x="1084.138672"/>
      <use xlink:href="#DejaVuSans-65" x="1181.550781"/>
      <use xlink:href="#DejaVuSans-6e" x="1243.074219"/>
      <use xlink:href="#DejaVuSans-74" x="1306.453125"/>
     </g>
    </g>
   </g>
   <g id="LineCollection_1"/>
   <g id="patch_11">
    <path d="M 452.74005 231.564898 
L 457.955701 241.047899 
L 463.171352 231.564898 
L 463.171352 41.904863 
L 457.955701 32.421861 
L 452.74005 41.904863 
L 452.74005 231.564898 
z
" style="fill: none; stroke: #000000; stroke-width: 0.8; stroke-linejoin: miter; stroke-linecap: square"/>
   </g>
  </g>
 </g>
 <defs>
  <clipPath id="p20043bc569">
   <rect x="42.765865" y="41.3943" width="381.362319" height="190.681159"/>
  </clipPath>
  <clipPath id="pac3aa1bbbc">
   <rect x="452.74005" y="41.904863" width="10.431302" height="189.660035"/>
  </clipPath>
 </defs>
 <defs>
  <pattern id="ha791406d13" patternUnits="userSpaceOnUse" x="0" y="0" width="72" height="72">
   <rect x="0" y="0" width="73" height="73" fill="#333333"/>
   <path d="M -36 36 
L 36 -36 
M -33 39 
L 39 -33 
M -30 42 
L 42 -30 
M -27 45 
L 45 -27 
M -24 48 
L 48 -24 
M -21 51 
L 51 -21 
M -18 54 
L 54 -18 
M -15 57 
L 57 -15 
M -12 60 
L 60 -12 
M -9 63 
L 63 -9 
M -6 66 
L 66 -6 
M -3 69 
L 69 -3 
M 0 72 
L 72 0 
M 3 75 
L 75 3 
M 6 78 
L 78 6 
M 9 81 
L 81 9 
M 12 84 
L 84 12 
M 15 87 
L 87 15 
M 18 90 
L 90 18 
M 21 93 
L 93 21 
M 24 96 
L 96 24 
M 27 99 
L 99 27 
M 30 102 
L 102 30 
M 33 105 
L 105 33 
M 36 108 
L 108 36 
" style="fill: #333333; stroke: #333333; stroke-width: 1.0; stroke-linecap: butt; stroke-linejoin: miter; stroke-opacity: 0.3"/>
  </pattern>
 </defs>
</svg>
