<?xml version="1.0" encoding="utf-8" standalone="no"?>
<!DOCTYPE svg PUBLIC "-//W3C//DTD SVG 1.1//EN"
  "http://www.w3.org/Graphics/SVG/1.1/DTD/svg11.dtd">
<svg xmlns:xlink="http://www.w3.org/1999/xlink" width="518.4pt" height="273.6pt" viewBox="0 0 518.4 273.6" xmlns="http://www.w3.org/2000/svg" version="1.1">
 <metadata>
  <rdf:RDF xmlns:dc="http://purl.org/dc/elements/1.1/" xmlns:cc="http://creativecommons.org/ns#" xmlns:rdf="http://www.w3.org/1999/02/22-rdf-syntax-ns#">
   <cc:Work>
    <dc:type rdf:resource="http://purl.org/dc/dcmitype/StillImage"/>
    <dc:format>image/svg+xml</dc:format>
    <dc:creator>
     <cc:Agent>
      <dc:title>Matplotlib v3.6.3, https://matplotlib.org/</dc:title>
     </cc:Agent>
    </dc:creator>
   </cc:Work>
  </rdf:RDF>
 </metadata>
 <defs>
  <style type="text/css">*{stroke-linejoin: round; stroke-linecap: butt}</style>
 </defs>
 <g id="figure_1">
  <g id="patch_1">
   <path d="M 0 273.6 
L 518.4 273.6 
L 518.4 0 
L 0 0 
z
" style="fill: #ffffff"/>
  </g>
  <g id="axes_1">
   <g id="patch_2">
    <path d="M 42.765865 232.07546 
L 424.128184 232.07546 
L 424.128184 41.3943 
L 42.765865 41.3943 
z
" style="fill: #ffffff"/>
   </g>
   <g id="PathCollection_1">
    <path clip-path="url(#p901c692ec5)" style="fill: #053061"/>
   </g>
   <g id="PathCollection_2">
    <path d="M 346.90182 232.07546 
L 352.622749 230.489761 
L 360.738706 228.273844 
L 371.006275 225.609507 
L 376.457894 224.176691 
L 379.658179 223.358173 
L 392.729123 220.157887 
L 398.795842 218.66069 
L 400.293039 218.306238 
L 402.703014 217.747912 
L 418.107411 214.137114 
L 424.128184 212.770027 
L 424.128184 220.157887 
L 424.128184 232.07546 
L 412.210612 232.07546 
L 400.293039 232.07546 
L 388.375467 232.07546 
L 376.457894 232.07546 
L 364.540322 232.07546 
L 352.622749 232.07546 
" clip-path="url(#p901c692ec5)" style="fill: #0e4179"/>
   </g>
   <g id="PathCollection_3">
    <path d="M 424.128184 212.770027 
L 418.107411 214.137114 
L 402.703014 217.747912 
L 400.293039 218.306238 
L 398.795842 218.66069 
L 392.729123 220.157887 
L 379.658179 223.358173 
L 376.457894 224.176691 
L 371.006275 225.609507 
L 360.738706 228.273844 
L 352.622749 230.489761 
L 346.90182 232.07546 
L 345.472206 232.07546 
L 338.321662 232.07546 
L 333.554633 232.07546 
L 328.787604 232.07546 
L 324.020575 232.07546 
L 319.253546 232.07546 
L 312.103003 232.07546 
L 304.952459 232.07546 
L 293.034887 232.07546 
L 281.117314 232.07546 
L 277.824813 232.07546 
L 281.117314 231.000491 
L 289.329923 228.370496 
L 299.865236 225.24511 
L 304.952459 223.68962 
L 306.745512 223.146308 
L 317.192148 220.157887 
L 318.951245 219.654051 
L 319.253546 219.57235 
L 319.516117 219.501461 
L 327.61529 217.227103 
L 328.787604 216.914095 
L 330.240702 216.525142 
L 336.208731 214.875559 
L 338.321662 214.315563 
L 342.48626 213.216891 
L 347.622522 211.824176 
L 352.622749 210.525772 
L 361.501478 208.240315 
L 363.916957 207.61695 
L 365.572188 207.208449 
L 376.457894 204.481353 
L 383.009693 202.874541 
L 388.375467 201.575089 
L 397.032671 199.583111 
L 400.293039 198.8095 
L 402.311192 198.340895 
L 412.210612 196.083367 
L 421.788195 193.982753 
L 424.128184 193.486356 
L 424.128184 196.322742 
L 424.128184 208.240315 
" clip-path="url(#p901c692ec5)" style="fill: #1f63a8"/>
   </g>
   <g id="PathCollection_4">
    <path d="M 424.128184 193.486356 
L 421.788195 193.982753 
L 412.210612 196.083367 
L 402.311192 198.340895 
L 400.293039 198.8095 
L 397.032671 199.583111 
L 388.375467 201.575089 
L 383.009693 202.874541 
L 376.457894 204.481353 
L 365.572188 207.208449 
L 363.916957 207.61695 
L 361.501478 208.240315 
L 352.622749 210.525772 
L 347.622522 211.824176 
L 342.48626 213.216891 
L 338.321662 214.315563 
L 336.208731 214.875559 
L 330.240702 216.525142 
L 328.787604 216.914095 
L 327.61529 217.227103 
L 319.516117 219.501461 
L 319.253546 219.57235 
L 318.951245 219.654051 
L 317.192148 220.157887 
L 306.745512 223.146308 
L 304.952459 223.68962 
L 299.865236 225.24511 
L 289.329923 228.370496 
L 281.117314 231.000491 
L 277.824813 232.07546 
L 269.199742 232.07546 
L 257.282169 232.07546 
L 250.131626 232.07546 
L 242.981082 232.07546 
L 238.214053 232.07546 
L 233.447024 232.07546 
L 228.679996 232.07546 
L 223.912967 232.07546 
L 216.968001 232.07546 
L 223.912967 229.117638 
L 226.986785 227.842434 
L 230.997482 226.281744 
L 233.447024 225.300132 
L 235.224324 224.601137 
L 242.235904 222.020834 
L 242.981082 221.737223 
L 243.755461 221.448518 
L 247.495007 220.157887 
L 255.587525 217.33348 
L 257.282169 216.791032 
L 262.170146 215.26991 
L 269.199742 212.980489 
L 272.808299 211.848872 
L 281.117314 209.423905 
L 285.235106 208.240315 
L 291.286541 206.491969 
L 296.043172 205.23203 
L 304.952459 202.768244 
L 308.270303 201.852481 
L 317.34762 199.499287 
L 319.253546 198.982958 
L 320.213697 198.723119 
L 328.701747 196.537385 
L 328.787604 196.514395 
L 328.856832 196.495811 
L 329.533819 196.322742 
L 337.502466 194.274751 
L 338.321662 194.072399 
L 339.907298 193.680016 
L 349.559776 191.217787 
L 352.622749 190.465592 
L 360.38194 188.563551 
L 367.039485 186.904333 
L 376.457894 184.648065 
L 377.49162 184.40517 
L 386.284461 182.314165 
L 388.375467 181.807168 
L 391.690475 181.090161 
L 400.293039 179.118001 
L 405.715203 177.909761 
L 412.210612 176.454815 
L 422.131481 174.4843 
L 424.128184 174.056995 
L 424.128184 184.40517 
" clip-path="url(#p901c692ec5)" style="fill: #3480b9"/>
   </g>
   <g id="PathCollection_5">
    <path d="M 424.128184 174.056995 
L 422.131481 174.4843 
L 412.210612 176.454815 
L 405.715203 177.909761 
L 400.293039 179.118001 
L 391.690475 181.090161 
L 388.375467 181.807168 
L 386.284461 182.314165 
L 377.49162 184.40517 
L 376.457894 184.648065 
L 367.039485 186.904333 
L 360.38194 188.563551 
L 352.622749 190.465592 
L 349.559776 191.217787 
L 339.907298 193.680016 
L 338.321662 194.072399 
L 337.502466 194.274751 
L 329.533819 196.322742 
L 328.856832 196.495811 
L 328.787604 196.514395 
L 328.701747 196.537385 
L 320.213697 198.723119 
L 319.253546 198.982958 
L 317.34762 199.499287 
L 308.270303 201.852481 
L 304.952459 202.768244 
L 296.043172 205.23203 
L 291.286541 206.491969 
L 285.235106 208.240315 
L 281.117314 209.423905 
L 272.808299 211.848872 
L 269.199742 212.980489 
L 262.170146 215.26991 
L 257.282169 216.791032 
L 255.587525 217.33348 
L 247.495007 220.157887 
L 243.755461 221.448518 
L 242.981082 221.737223 
L 242.235904 222.020834 
L 235.224324 224.601137 
L 233.447024 225.300132 
L 230.997482 226.281744 
L 226.986785 227.842434 
L 223.912967 229.117638 
L 216.968001 232.07546 
L 216.762423 232.07546 
L 209.61188 232.07546 
L 197.694307 232.07546 
L 185.776735 232.07546 
L 173.859162 232.07546 
L 168.693045 232.07546 
L 171.941599 230.157897 
L 173.859162 229.043668 
L 180.370977 225.563645 
L 185.776735 222.621481 
L 187.40381 221.784963 
L 190.871209 220.157887 
L 203.451702 213.99771 
L 209.61188 211.277609 
L 216.724604 208.303347 
L 216.784828 208.277656 
L 216.87982 208.240315 
L 223.912967 205.436564 
L 227.070741 204.217179 
L 230.823777 202.88086 
L 233.447024 201.908318 
L 235.398414 201.201215 
L 241.894299 199.0397 
L 242.981082 198.660923 
L 244.146154 198.264528 
L 250.441544 196.322742 
L 256.19567 194.511909 
L 257.282169 194.206896 
L 260.189755 193.415157 
L 269.199742 190.772787 
L 274.193704 189.399132 
L 281.117314 187.640107 
L 292.73381 184.706247 
L 293.209048 184.579331 
L 293.9215 184.40517 
L 304.952459 181.674408 
L 309.744649 180.47458 
L 315.230553 179.192587 
L 319.253546 178.195612 
L 321.329399 177.67723 
L 327.27555 176.267734 
L 328.787604 175.891744 
L 330.025154 175.581471 
L 337.830981 173.714301 
L 338.321662 173.59178 
L 338.897713 173.447683 
L 342.878986 172.487597 
L 351.371925 170.40289 
L 352.622749 170.10516 
L 355.756467 169.35388 
L 369.881622 165.911325 
L 376.457894 164.36209 
L 387.01491 161.930581 
L 388.375467 161.600693 
L 389.222853 161.417411 
L 393.083397 160.570025 
L 400.293039 158.953566 
L 407.090727 157.498095 
L 412.210612 156.401246 
L 422.391777 154.461326 
L 424.128184 154.114585 
L 424.128184 160.570025 
L 424.128184 172.487597 
" clip-path="url(#p901c692ec5)" style="fill: #529dc8"/>
   </g>
   <g id="PathCollection_6">
    <path d="M 424.128184 154.114585 
L 422.391777 154.461326 
L 412.210612 156.401246 
L 407.090727 157.498095 
L 400.293039 158.953566 
L 393.083397 160.570025 
L 389.222853 161.417411 
L 388.375467 161.600693 
L 387.01491 161.930581 
L 376.457894 164.36209 
L 369.881622 165.911325 
L 355.756467 169.35388 
L 352.622749 170.10516 
L 351.371925 170.40289 
L 342.878986 172.487597 
L 338.897713 173.447683 
L 338.321662 173.59178 
L 337.830981 173.714301 
L 330.025154 175.581471 
L 328.787604 175.891744 
L 327.27555 176.267734 
L 321.329399 177.67723 
L 319.253546 178.195612 
L 315.230553 179.192587 
L 309.744649 180.47458 
L 304.952459 181.674408 
L 293.9215 184.40517 
L 293.209048 184.579331 
L 292.73381 184.706247 
L 281.117314 187.640107 
L 274.193704 189.399132 
L 269.199742 190.772787 
L 260.189755 193.415157 
L 257.282169 194.206896 
L 256.19567 194.511909 
L 250.441544 196.322742 
L 244.146154 198.264528 
L 242.981082 198.660923 
L 241.894299 199.0397 
L 235.398414 201.201215 
L 233.447024 201.908318 
L 230.823777 202.88086 
L 227.070741 204.217179 
L 223.912967 205.436564 
L 216.87982 208.240315 
L 216.784828 208.277656 
L 216.724604 208.303347 
L 209.61188 211.277609 
L 203.451702 213.99771 
L 190.871209 220.157887 
L 187.40381 221.784963 
L 185.776735 222.621481 
L 180.370977 225.563645 
L 173.859162 229.043668 
L 171.941599 230.157897 
L 168.693045 232.07546 
L 161.94159 232.07546 
L 150.024017 232.07546 
L 138.106445 232.07546 
L 128.764129 232.07546 
L 138.106445 225.610008 
L 141.382346 223.433789 
L 146.643738 220.157887 
L 155.908315 214.124613 
L 161.94159 210.459007 
L 165.816236 208.240315 
L 170.896412 205.277565 
L 183.621384 198.478093 
L 185.776735 197.330181 
L 186.449308 196.995315 
L 187.952065 196.322742 
L 202.638375 189.349238 
L 209.61188 186.423745 
L 214.770647 184.40517 
L 216.374147 183.758043 
L 217.365388 183.400229 
L 223.912967 180.959631 
L 226.87744 179.898782 
L 231.014647 178.568541 
L 233.447024 177.74172 
L 235.303356 177.128427 
L 241.901946 175.185438 
L 242.981082 174.845783 
L 244.176806 174.480469 
L 251.623087 172.487597 
L 256.473388 171.139629 
L 257.282169 170.948044 
L 259.278564 170.491203 
L 275.159285 166.529568 
L 281.117314 165.263039 
L 290.326506 163.278406 
L 294.709605 162.244744 
L 302.578618 160.570025 
L 304.952459 160.052828 
L 310.363639 158.830662 
L 312.103003 158.439625 
L 314.804442 157.868586 
L 319.253546 156.857416 
L 321.238096 156.396305 
L 327.788722 154.917805 
L 328.787604 154.684176 
L 329.515095 154.510718 
L 334.215475 153.419482 
L 337.762962 152.581432 
L 338.321662 152.451439 
L 339.591117 152.150027 
L 345.472206 150.684129 
L 349.055699 149.852431 
L 352.622749 148.996689 
L 363.845556 146.268938 
L 364.274295 146.162528 
L 364.540322 146.09582 
L 365.636408 145.830504 
L 376.457894 143.185529 
L 379.097577 142.557782 
L 388.375467 140.334538 
L 394.175924 139.055063 
L 400.293039 137.704468 
L 405.022567 136.73488 
L 409.742134 135.747489 
L 412.210612 135.233672 
L 419.0701 133.991085 
L 424.128184 133.046463 
L 424.128184 136.73488 
L 424.128184 141.501909 
L 424.128184 146.268938 
L 424.128184 153.419482 
" clip-path="url(#p901c692ec5)" style="fill: #84bcd9"/>
   </g>
   <g id="PathCollection_7">
    <path d="M 424.128184 133.046463 
L 419.0701 133.991085 
L 412.210612 135.233672 
L 409.742134 135.747489 
L 405.022567 136.73488 
L 400.293039 137.704468 
L 394.175924 139.055063 
L 388.375467 140.334538 
L 379.097577 142.557782 
L 376.457894 143.185529 
L 365.636408 145.830504 
L 364.540322 146.09582 
L 364.274295 146.162528 
L 363.845556 146.268938 
L 352.622749 148.996689 
L 349.055699 149.852431 
L 345.472206 150.684129 
L 339.591117 152.150027 
L 338.321662 152.451439 
L 337.762962 152.581432 
L 334.215475 153.419482 
L 329.515095 154.510718 
L 328.787604 154.684176 
L 327.788722 154.917805 
L 321.238096 156.396305 
L 319.253546 156.857416 
L 314.804442 157.868586 
L 312.103003 158.439625 
L 310.363639 158.830662 
L 304.952459 160.052828 
L 302.578618 160.570025 
L 294.709605 162.244744 
L 290.326506 163.278406 
L 281.117314 165.263039 
L 275.159285 166.529568 
L 259.278564 170.491203 
L 257.282169 170.948044 
L 256.473388 171.139629 
L 251.623087 172.487597 
L 244.176806 174.480469 
L 242.981082 174.845783 
L 241.901946 175.185438 
L 235.303356 177.128427 
L 233.447024 177.74172 
L 231.014647 178.568541 
L 226.87744 179.898782 
L 223.912967 180.959631 
L 217.365388 183.400229 
L 216.374147 183.758043 
L 214.770647 184.40517 
L 209.61188 186.423745 
L 202.638375 189.349238 
L 187.952065 196.322742 
L 186.449308 196.995315 
L 185.776735 197.330181 
L 183.621384 198.478093 
L 170.896412 205.277565 
L 165.816236 208.240315 
L 161.94159 210.459007 
L 155.908315 214.124613 
L 146.643738 220.157887 
L 141.382346 223.433789 
L 138.106445 225.610008 
L 128.764129 232.07546 
L 126.188872 232.07546 
L 114.2713 232.07546 
L 102.353727 232.07546 
L 93.216484 232.07546 
L 98.36471 228.086443 
L 102.353727 224.994592 
L 111.944509 217.831097 
L 114.2713 216.09227 
L 125.138603 208.240315 
L 125.744737 207.79618 
L 128.698483 205.730704 
L 138.106445 199.177505 
L 139.821462 198.03776 
L 150.024017 191.196506 
L 154.241517 188.622669 
L 161.105331 184.40517 
L 161.94159 183.874845 
L 169.099258 179.645266 
L 182.423888 172.487597 
L 184.535268 171.246131 
L 185.776735 170.590715 
L 189.38429 168.880042 
L 197.694307 164.766527 
L 200.675636 163.551354 
L 208.014821 160.570025 
L 209.61188 159.89307 
L 214.284758 158.09236 
L 216.762423 157.128256 
L 221.843541 155.488907 
L 223.912967 154.770006 
L 224.651754 154.527663 
L 228.387682 153.419482 
L 232.578882 152.117268 
L 233.447024 151.877451 
L 234.692809 151.550805 
L 240.643195 149.912651 
L 242.981082 149.345283 
L 248.27529 148.125274 
L 250.131626 147.64413 
L 251.261601 147.398914 
L 256.646229 146.268938 
L 257.282169 146.13128 
L 264.895146 144.5471 
L 269.199742 143.716014 
L 280.90376 141.587331 
L 281.117314 141.546361 
L 281.191584 141.531617 
L 293.034887 139.317415 
L 297.39563 138.479177 
L 304.952459 137.096906 
L 306.776039 136.73488 
L 310.856593 135.903941 
L 312.103003 135.65158 
L 314.421114 135.189473 
L 319.253546 134.170878 
L 321.057725 133.77203 
L 324.020575 133.097519 
L 328.64297 132.112486 
L 328.787604 132.079726 
L 328.878194 132.058441 
L 329.268298 131.967851 
L 336.592668 130.238857 
L 338.321662 129.8301 
L 343.388853 128.589724 
L 345.472206 128.063843 
L 346.42108 127.833405 
L 348.947917 127.200822 
L 352.622749 126.247381 
L 359.787652 124.349221 
L 364.540322 123.016771 
L 376.455803 120.051533 
L 376.457894 120.05099 
L 376.458731 120.050781 
L 388.375467 116.952171 
L 393.33877 115.877717 
L 400.293039 114.330337 
L 407.446919 112.899735 
L 411.373826 112.06295 
L 412.210612 111.864039 
L 413.399123 111.711223 
L 424.128184 109.786884 
L 424.128184 112.899735 
L 424.128184 120.050279 
L 424.128184 127.200822 
L 424.128184 131.967851 
" clip-path="url(#p901c692ec5)" style="fill: #aed3e6"/>
   </g>
   <g id="PathCollection_8">
    <path d="M 424.128184 109.786884 
L 413.399123 111.711223 
L 412.210612 111.864039 
L 411.373826 112.06295 
L 407.446919 112.899735 
L 400.293039 114.330337 
L 393.33877 115.877717 
L 388.375467 116.952171 
L 376.458731 120.050781 
L 376.457894 120.05099 
L 376.455803 120.051533 
L 364.540322 123.016771 
L 359.787652 124.349221 
L 352.622749 126.247381 
L 348.947917 127.200822 
L 346.42108 127.833405 
L 345.472206 128.063843 
L 343.388853 128.589724 
L 338.321662 129.8301 
L 336.592668 130.238857 
L 329.268298 131.967851 
L 328.878194 132.058441 
L 328.787604 132.079726 
L 328.64297 132.112486 
L 324.020575 133.097519 
L 321.057725 133.77203 
L 319.253546 134.170878 
L 314.421114 135.189473 
L 312.103003 135.65158 
L 310.856593 135.903941 
L 306.776039 136.73488 
L 304.952459 137.096906 
L 297.39563 138.479177 
L 293.034887 139.317415 
L 281.191584 141.531617 
L 281.117314 141.546361 
L 280.90376 141.587331 
L 269.199742 143.716014 
L 264.895146 144.5471 
L 257.282169 146.13128 
L 256.646229 146.268938 
L 251.261601 147.398914 
L 250.131626 147.64413 
L 248.27529 148.125274 
L 242.981082 149.345283 
L 240.643195 149.912651 
L 234.692809 151.550805 
L 233.447024 151.877451 
L 232.578882 152.117268 
L 228.387682 153.419482 
L 224.651754 154.527663 
L 223.912967 154.770006 
L 221.843541 155.488907 
L 216.762423 157.128256 
L 214.284758 158.09236 
L 209.61188 159.89307 
L 208.014821 160.570025 
L 200.675636 163.551354 
L 197.694307 164.766527 
L 189.38429 168.880042 
L 185.776735 170.590715 
L 184.535268 171.246131 
L 182.423888 172.487597 
L 169.099258 179.645266 
L 161.94159 183.874845 
L 161.105331 184.40517 
L 154.241517 188.622669 
L 150.024017 191.196506 
L 139.821462 198.03776 
L 138.106445 199.177505 
L 128.698483 205.730704 
L 125.744737 207.79618 
L 125.138603 208.240315 
L 114.2713 216.09227 
L 111.944509 217.831097 
L 102.353727 224.994592 
L 98.36471 228.086443 
L 93.216484 232.07546 
L 90.436155 232.07546 
L 78.518582 232.07546 
L 66.60101 232.07546 
L 59.602836 232.07546 
L 66.60101 226.420968 
L 70.076413 223.633291 
L 78.518582 216.842768 
L 83.331751 213.053484 
L 89.42468 208.240315 
L 90.436155 207.43259 
L 96.671169 202.557756 
L 104.876266 196.322742 
L 110.123492 192.174935 
L 114.2713 188.987232 
L 120.466484 184.40517 
L 123.722518 181.938816 
L 136.744613 172.487597 
L 137.510704 171.891856 
L 138.106445 171.447758 
L 141.581637 169.012405 
L 150.024017 163.043142 
L 151.546604 162.092612 
L 153.900136 160.570025 
L 161.94159 155.16108 
L 163.371538 154.277451 
L 173.859162 147.653984 
L 175.0642 146.991961 
L 176.358365 146.268938 
L 181.939005 143.037001 
L 185.061205 141.215697 
L 185.776735 140.791847 
L 193.650276 136.73488 
L 195.383023 135.810366 
L 197.694307 134.559809 
L 206.432017 130.695906 
L 209.61188 129.290912 
L 215.186223 127.200822 
L 216.313833 126.752232 
L 217.670188 126.293057 
L 223.912967 124.193221 
L 226.212952 123.500256 
L 232.163045 121.976248 
L 233.447024 121.633458 
L 234.353711 121.410309 
L 241.0579 120.050279 
L 242.733004 119.678161 
L 242.981082 119.634975 
L 243.472157 119.559204 
L 250.131626 118.156621 
L 254.819807 117.587916 
L 257.282169 117.271846 
L 263.069917 116.57763 
L 269.199742 115.605802 
L 272.959566 115.15563 
L 281.117314 114.233312 
L 291.450828 112.899735 
L 292.834408 112.699256 
L 293.284904 112.649718 
L 304.952459 110.769074 
L 310.224379 109.768696 
L 314.387845 109.091665 
L 319.253546 108.084887 
L 321.857663 107.492456 
L 326.575791 106.511697 
L 328.787604 105.984774 
L 330.602825 105.520216 
L 337.135881 103.946615 
L 338.321662 103.632653 
L 339.684959 103.254325 
L 348.062927 100.982163 
L 351.906274 99.788038 
L 352.622749 99.577404 
L 354.614548 98.990364 
L 369.758643 94.282912 
L 376.457894 92.498027 
L 387.727568 89.712489 
L 388.375467 89.515064 
L 388.755716 89.44484 
L 390.570604 89.06459 
L 400.293039 86.842677 
L 407.593764 85.371112 
L 412.210612 84.452919 
L 418.997299 83.63524 
L 424.128184 82.817843 
L 424.128184 89.06459 
L 424.128184 100.982163 
" clip-path="url(#p901c692ec5)" style="fill: #d4e6f1"/>
   </g>
   <g id="PathCollection_9">
    <path d="M 42.765865 218.885881 
L 49.615629 213.308124 
L 54.683437 209.18187 
L 55.204325 208.761203 
L 55.845793 208.240315 
L 66.60101 199.440629 
L 68.323786 198.045518 
L 70.477372 196.322742 
L 81.432958 187.319546 
L 85.019534 184.40517 
L 90.436155 179.917196 
L 94.544083 176.595526 
L 99.743088 172.487597 
L 107.667493 165.88379 
L 114.178758 160.570025 
L 114.2713 160.492386 
L 119.307912 156.441449 
L 126.188872 150.730444 
L 129.439927 148.219571 
L 131.881824 146.268938 
L 137.307247 141.821588 
L 137.831275 141.391841 
L 138.106445 141.159022 
L 143.698694 136.73488 
L 145.790036 135.041287 
L 150.024017 131.479088 
L 153.700755 128.671517 
L 155.551858 127.200822 
L 161.94159 121.906668 
L 163.31985 120.877235 
L 171.307831 114.430534 
L 173.199643 112.899735 
L 173.551088 112.591661 
L 177.21161 109.547287 
L 185.776735 102.557897 
L 186.711277 101.916705 
L 188.293134 100.982163 
L 199.809851 91.180134 
L 202.743019 89.06459 
L 209.61188 82.545859 
L 211.093981 81.506668 
L 214.427083 79.530532 
L 219.65567 73.854137 
L 223.912967 70.042428 
L 224.002415 69.996474 
L 226.447705 67.764184 
L 230.975846 65.229445 
L 231.290046 63.072467 
L 233.447024 60.462416 
L 238.214053 60.462416 
L 242.981082 60.462416 
L 250.131626 60.462416 
L 257.282169 60.462416 
L 269.199742 60.462416 
L 281.117314 60.462416 
L 293.034887 60.462416 
L 304.952459 60.462416 
L 312.103003 60.462416 
L 319.253546 60.462416 
L 324.020575 60.462416 
L 328.787604 60.462416 
L 328.787604 58.078902 
L 333.554633 56.066547 
L 333.915174 55.875657 
L 338.239848 55.695387 
L 338.321662 55.691333 
L 344.345227 55.319728 
L 345.472206 55.475758 
L 345.935345 55.541007 
L 352.622749 55.357858 
L 360.47345 54.882013 
L 364.540322 54.958252 
L 368.918379 54.819776 
L 376.457894 54.336599 
L 379.893713 53.999037 
L 388.375467 53.469787 
L 397.108181 52.674901 
L 400.293039 52.454299 
L 408.155984 51.739284 
L 412.210612 51.347705 
L 413.621034 51.210443 
L 416.729176 50.928358 
L 424.128184 50.252532 
L 424.128184 50.928358 
L 424.128184 53.311873 
L 424.128184 55.695387 
L 424.128184 58.078902 
L 424.128184 60.462416 
L 424.128184 65.229445 
L 424.128184 69.996474 
L 424.128184 79.530532 
L 424.128184 82.817843 
L 418.997299 83.63524 
L 412.210612 84.452919 
L 407.593764 85.371112 
L 400.293039 86.842677 
L 390.570604 89.06459 
L 388.755716 89.44484 
L 388.375467 89.515064 
L 387.727568 89.712489 
L 376.457894 92.498027 
L 369.758643 94.282912 
L 354.614548 98.990364 
L 352.622749 99.577404 
L 351.906274 99.788038 
L 348.062927 100.982163 
L 339.684959 103.254325 
L 338.321662 103.632653 
L 337.135881 103.946615 
L 330.602825 105.520216 
L 328.787604 105.984774 
L 326.575791 106.511697 
L 321.857663 107.492456 
L 319.253546 108.084887 
L 314.387845 109.091665 
L 310.224379 109.768696 
L 304.952459 110.769074 
L 293.284904 112.649718 
L 292.834408 112.699256 
L 291.450828 112.899735 
L 281.117314 114.233312 
L 272.959566 115.15563 
L 269.199742 115.605802 
L 263.069917 116.57763 
L 257.282169 117.271846 
L 254.819807 117.587916 
L 250.131626 118.156621 
L 243.472157 119.559204 
L 242.981082 119.634975 
L 242.733004 119.678161 
L 241.0579 120.050279 
L 234.353711 121.410309 
L 233.447024 121.633458 
L 232.163045 121.976248 
L 226.212952 123.500256 
L 223.912967 124.193221 
L 217.670188 126.293057 
L 216.313833 126.752232 
L 215.186223 127.200822 
L 209.61188 129.290912 
L 206.432017 130.695906 
L 197.694307 134.559809 
L 195.383023 135.810366 
L 193.650276 136.73488 
L 185.776735 140.791847 
L 185.061205 141.215697 
L 181.939005 143.037001 
L 176.358365 146.268938 
L 175.0642 146.991961 
L 173.859162 147.653984 
L 163.371538 154.277451 
L 161.94159 155.16108 
L 153.900136 160.570025 
L 151.546604 162.092612 
L 150.024017 163.043142 
L 141.581637 169.012405 
L 138.106445 171.447758 
L 137.510704 171.891856 
L 136.744613 172.487597 
L 123.722518 181.938816 
L 120.466484 184.40517 
L 114.2713 188.987232 
L 110.123492 192.174935 
L 104.876266 196.322742 
L 96.671169 202.557756 
L 90.436155 207.43259 
L 89.42468 208.240315 
L 83.331751 213.053484 
L 78.518582 216.842768 
L 70.076413 223.633291 
L 66.60101 226.420968 
L 59.602836 232.07546 
L 54.683437 232.07546 
L 42.765865 232.07546 
L 42.765865 220.157887 
" clip-path="url(#p901c692ec5)" style="fill: #ecf2f5"/>
   </g>
   <g id="PathCollection_10">
    <path d="M 42.765865 191.922142 
L 51.784923 184.40517 
L 53.35735 183.079082 
L 54.683437 181.920679 
L 66.242787 172.129375 
L 66.60101 171.814591 
L 71.601734 167.486874 
L 79.026081 161.077523 
L 79.616803 160.570025 
L 81.979658 158.493379 
L 88.841196 152.462506 
L 90.436155 151.016246 
L 95.816178 146.268938 
L 97.831515 144.460053 
L 102.353727 140.287511 
L 105.118776 137.840899 
L 106.33195 136.73488 
L 109.341694 133.939693 
L 112.317157 131.186194 
L 114.2713 129.31165 
L 116.568921 127.200822 
L 120.312473 123.674983 
L 126.188872 117.790866 
L 129.389526 114.820127 
L 131.31779 112.899735 
L 138.106445 105.738995 
L 140.50045 103.376168 
L 150.024017 92.419084 
L 151.722196 90.762769 
L 153.15584 89.06459 
L 158.052393 82.64189 
L 161.03114 78.802172 
L 161.94159 77.365078 
L 167.01492 69.996474 
L 168.420527 67.82102 
L 171.89424 61.248385 
L 172.352266 60.462416 
L 172.506003 60.191784 
L 173.859162 57.301549 
L 174.611845 55.845924 
L 174.67145 55.695387 
L 174.739049 55.51941 
L 176.652166 51.486959 
L 176.851599 50.928358 
L 177.074521 50.285286 
L 178.476567 47.08481 
L 178.775244 46.161329 
L 179.105507 45.11206 
L 180.109928 42.644453 
L 180.478146 41.3943 
L 185.776735 41.3943 
L 197.694307 41.3943 
L 209.61188 41.3943 
L 216.762423 41.3943 
L 223.912967 41.3943 
L 228.679996 41.3943 
L 233.447024 41.3943 
L 238.214053 41.3943 
L 242.981082 41.3943 
L 250.131626 41.3943 
L 257.282169 41.3943 
L 269.199742 41.3943 
L 281.117314 41.3943 
L 293.034887 41.3943 
L 304.952459 41.3943 
L 312.103003 41.3943 
L 319.253546 41.3943 
L 324.020575 41.3943 
L 328.787604 41.3943 
L 333.554633 41.3943 
L 338.321662 41.3943 
L 345.472206 41.3943 
L 352.622749 41.3943 
L 364.540322 41.3943 
L 376.457894 41.3943 
L 388.375467 41.3943 
L 400.293039 41.3943 
L 412.210612 41.3943 
L 424.128184 41.3943 
L 424.128184 43.777815 
L 424.128184 46.161329 
L 424.128184 48.544844 
L 424.128184 50.252532 
L 416.729176 50.928358 
L 413.621034 51.210443 
L 412.210612 51.347705 
L 408.155984 51.739284 
L 400.293039 52.454299 
L 397.108181 52.674901 
L 388.375467 53.469787 
L 379.893713 53.999037 
L 376.457894 54.336599 
L 368.918379 54.819776 
L 364.540322 54.958252 
L 360.47345 54.882013 
L 352.622749 55.357858 
L 345.935345 55.541007 
L 345.472206 55.475758 
L 344.345227 55.319728 
L 338.321662 55.691333 
L 338.239848 55.695387 
L 333.915174 55.875657 
L 333.554633 56.066547 
L 328.787604 58.078902 
L 328.787604 60.462416 
L 324.020575 60.462416 
L 319.253546 60.462416 
L 312.103003 60.462416 
L 304.952459 60.462416 
L 293.034887 60.462416 
L 281.117314 60.462416 
L 269.199742 60.462416 
L 257.282169 60.462416 
L 250.131626 60.462416 
L 242.981082 60.462416 
L 238.214053 60.462416 
L 233.447024 60.462416 
L 231.290046 63.072467 
L 230.975846 65.229445 
L 226.447705 67.764184 
L 224.002415 69.996474 
L 223.912967 70.042428 
L 219.65567 73.854137 
L 214.427083 79.530532 
L 211.093981 81.506668 
L 209.61188 82.545859 
L 202.743019 89.06459 
L 199.809851 91.180134 
L 188.293134 100.982163 
L 186.711277 101.916705 
L 185.776735 102.557897 
L 177.21161 109.547287 
L 173.551088 112.591661 
L 173.199643 112.899735 
L 171.307831 114.430534 
L 163.31985 120.877235 
L 161.94159 121.906668 
L 155.551858 127.200822 
L 153.700755 128.671517 
L 150.024017 131.479088 
L 145.790036 135.041287 
L 143.698694 136.73488 
L 138.106445 141.159022 
L 137.831275 141.391841 
L 137.307247 141.821588 
L 131.881824 146.268938 
L 129.439927 148.219571 
L 126.188872 150.730444 
L 119.307912 156.441449 
L 114.2713 160.492386 
L 114.178758 160.570025 
L 107.667493 165.88379 
L 99.743088 172.487597 
L 94.544083 176.595526 
L 90.436155 179.917196 
L 85.019534 184.40517 
L 81.432958 187.319546 
L 70.477372 196.322742 
L 68.323786 198.045518 
L 66.60101 199.440629 
L 55.845793 208.240315 
L 55.204325 208.761203 
L 54.683437 209.18187 
L 49.615629 213.308124 
L 42.765865 218.885881 
L 42.765865 208.240315 
L 42.765865 196.322742 
" clip-path="url(#p901c692ec5)" style="fill: #f9eee7"/>
   </g>
   <g id="PathCollection_11">
    <path d="M 42.765865 164.375275 
L 47.121791 160.570025 
L 50.171545 157.86289 
L 54.683437 153.736871 
L 59.679263 149.266433 
L 62.929362 146.268938 
L 66.60101 142.833535 
L 67.609207 141.905188 
L 69.08963 140.506461 
L 73.095169 136.73488 
L 74.697731 135.20654 
L 78.518582 131.455745 
L 81.656928 128.45616 
L 82.929757 127.200822 
L 89.445914 120.644423 
L 90.18679 119.90066 
L 90.436155 119.638154 
L 96.992358 112.899735 
L 99.591147 110.137155 
L 102.353727 106.925833 
L 110.922102 97.632964 
L 114.2713 93.588335 
L 118.14154 89.06459 
L 121.323085 85.17196 
L 126.188872 78.510535 
L 130.277531 73.267401 
L 132.495137 69.996474 
L 134.7257 66.581743 
L 136.18158 64.459499 
L 138.106445 61.324726 
L 138.657288 60.462416 
L 139.928968 58.443406 
L 140.387278 57.622735 
L 141.561902 55.695387 
L 142.474809 54.185546 
L 143.518084 52.229545 
L 144.280257 50.928358 
L 144.879126 49.89938 
L 146.421647 46.881803 
L 146.828466 46.161329 
L 147.15139 45.586804 
L 149.124471 41.57421 
L 149.222724 41.3943 
L 150.024017 41.3943 
L 161.94159 41.3943 
L 173.859162 41.3943 
L 180.478146 41.3943 
L 180.109928 42.644453 
L 179.105507 45.11206 
L 178.775244 46.161329 
L 178.476567 47.08481 
L 177.074521 50.285286 
L 176.851599 50.928358 
L 176.652166 51.486959 
L 174.739049 55.51941 
L 174.67145 55.695387 
L 174.611845 55.845924 
L 173.859162 57.301549 
L 172.506003 60.191784 
L 172.352266 60.462416 
L 171.89424 61.248385 
L 168.420527 67.82102 
L 167.01492 69.996474 
L 161.94159 77.365078 
L 161.03114 78.802172 
L 158.052393 82.64189 
L 153.15584 89.06459 
L 151.722196 90.762769 
L 150.024017 92.419084 
L 140.50045 103.376168 
L 138.106445 105.738995 
L 131.31779 112.899735 
L 129.389526 114.820127 
L 126.188872 117.790866 
L 120.312473 123.674983 
L 116.568921 127.200822 
L 114.2713 129.31165 
L 112.317157 131.186194 
L 109.341694 133.939693 
L 106.33195 136.73488 
L 105.118776 137.840899 
L 102.353727 140.287511 
L 97.831515 144.460053 
L 95.816178 146.268938 
L 90.436155 151.016246 
L 88.841196 152.462506 
L 81.979658 158.493379 
L 79.616803 160.570025 
L 79.026081 161.077523 
L 71.601734 167.486874 
L 66.60101 171.814591 
L 66.242787 172.129375 
L 54.683437 181.920679 
L 53.35735 183.079082 
L 51.784923 184.40517 
L 42.765865 191.922142 
L 42.765865 184.40517 
L 42.765865 172.487597 
" clip-path="url(#p901c692ec5)" style="fill: #fddcc9"/>
   </g>
   <g id="PathCollection_12">
    <path d="M 42.765865 135.58435 
L 45.433391 133.034861 
L 49.096512 129.435592 
L 51.381452 127.200822 
L 52.624822 125.965653 
L 54.683437 123.838892 
L 61.486138 116.981356 
L 65.373416 112.899735 
L 66.60101 111.572922 
L 71.728642 106.109794 
L 76.449808 100.982163 
L 82.959884 93.505892 
L 86.717833 89.06459 
L 90.436155 84.513137 
L 92.923913 81.520738 
L 100.833448 71.212698 
L 101.774689 69.996474 
L 101.909693 69.818861 
L 102.353727 69.199688 
L 107.286358 62.435468 
L 108.62182 60.462416 
L 109.593376 59.014487 
L 110.74492 57.373626 
L 111.848699 55.695387 
L 113.279438 53.510245 
L 113.518884 53.16139 
L 114.2713 51.990218 
L 114.962736 50.928358 
L 116.252604 48.941105 
L 116.790105 48.041083 
L 117.985174 46.161329 
L 118.909114 44.705378 
L 120.132874 42.6055 
L 120.886614 41.3943 
L 126.188872 41.3943 
L 138.106445 41.3943 
L 149.222724 41.3943 
L 149.124471 41.57421 
L 147.15139 45.586804 
L 146.828466 46.161329 
L 146.421647 46.881803 
L 144.879126 49.89938 
L 144.280257 50.928358 
L 143.518084 52.229545 
L 142.474809 54.185546 
L 141.561902 55.695387 
L 140.387278 57.622735 
L 139.928968 58.443406 
L 138.657288 60.462416 
L 138.106445 61.324726 
L 136.18158 64.459499 
L 134.7257 66.581743 
L 132.495137 69.996474 
L 130.277531 73.267401 
L 126.188872 78.510535 
L 121.323085 85.17196 
L 118.14154 89.06459 
L 114.2713 93.588335 
L 110.922102 97.632964 
L 102.353727 106.925833 
L 99.591147 110.137155 
L 96.992358 112.899735 
L 90.436155 119.638154 
L 90.18679 119.90066 
L 89.445914 120.644423 
L 82.929757 127.200822 
L 81.656928 128.45616 
L 78.518582 131.455745 
L 74.697731 135.20654 
L 73.095169 136.73488 
L 69.08963 140.506461 
L 67.609207 141.905188 
L 66.60101 142.833535 
L 62.929362 146.268938 
L 59.679263 149.266433 
L 54.683437 153.736871 
L 50.171545 157.86289 
L 47.121791 160.570025 
L 42.765865 164.375275 
L 42.765865 160.570025 
L 42.765865 153.419482 
L 42.765865 146.268938 
L 42.765865 141.501909 
L 42.765865 136.73488 
" clip-path="url(#p901c692ec5)" style="fill: #f8bb9e"/>
   </g>
   <g id="PathCollection_13">
    <path d="M 42.765865 104.601744 
L 44.523699 102.739997 
L 54.683437 91.286421 
L 55.751213 90.132365 
L 56.675364 89.06459 
L 60.750727 84.210759 
L 65.458776 78.616745 
L 66.60101 77.189021 
L 72.380291 69.996474 
L 73.855687 68.131316 
L 78.518582 62.013535 
L 79.429505 60.826785 
L 79.695862 60.462416 
L 79.896065 60.18692 
L 82.636502 56.518971 
L 83.227006 55.695387 
L 84.012688 54.596566 
L 85.660844 52.356811 
L 86.669682 50.928358 
L 88.007826 49.03051 
L 88.623721 48.182357 
L 90.033423 46.161329 
L 90.436155 45.58315 
L 91.53886 43.998356 
L 91.874053 43.490235 
L 93.314845 41.3943 
L 102.353727 41.3943 
L 114.2713 41.3943 
L 120.886614 41.3943 
L 120.132874 42.6055 
L 118.909114 44.705378 
L 117.985174 46.161329 
L 116.790105 48.041083 
L 116.252604 48.941105 
L 114.962736 50.928358 
L 114.2713 51.990218 
L 113.518884 53.16139 
L 113.279438 53.510245 
L 111.848699 55.695387 
L 110.74492 57.373626 
L 109.593376 59.014487 
L 108.62182 60.462416 
L 107.286358 62.435468 
L 102.353727 69.199688 
L 101.909693 69.818861 
L 101.774689 69.996474 
L 100.833448 71.212698 
L 92.923913 81.520738 
L 90.436155 84.513137 
L 86.717833 89.06459 
L 82.959884 93.505892 
L 76.449808 100.982163 
L 71.728642 106.109794 
L 66.60101 111.572922 
L 65.373416 112.899735 
L 61.486138 116.981356 
L 54.683437 123.838892 
L 52.624822 125.965653 
L 51.381452 127.200822 
L 49.096512 129.435592 
L 45.433391 133.034861 
L 42.765865 135.58435 
L 42.765865 131.967851 
L 42.765865 127.200822 
L 42.765865 120.050279 
L 42.765865 112.899735 
" clip-path="url(#p901c692ec5)" style="fill: #ee9677"/>
   </g>
   <g id="PathCollection_14">
    <path d="M 42.765865 70.788054 
L 43.417457 69.996474 
L 46.173071 66.592328 
L 49.325432 62.605619 
L 51.030114 60.462416 
L 51.528565 59.831442 
L 54.683437 55.776267 
L 54.73795 55.70629 
L 54.74626 55.695387 
L 54.757518 55.680571 
L 57.92123 51.575917 
L 58.410045 50.928358 
L 59.07125 50.050796 
L 61.067662 47.438174 
L 62.02488 46.161329 
L 63.31788 44.434441 
L 64.18385 43.294383 
L 65.601311 41.3943 
L 66.60101 41.3943 
L 78.518582 41.3943 
L 90.436155 41.3943 
L 93.314845 41.3943 
L 91.874053 43.490235 
L 91.53886 43.998356 
L 90.436155 45.58315 
L 90.033423 46.161329 
L 88.623721 48.182357 
L 88.007826 49.03051 
L 86.669682 50.928358 
L 85.660844 52.356811 
L 84.012688 54.596566 
L 83.227006 55.695387 
L 82.636502 56.518971 
L 79.896065 60.18692 
L 79.695862 60.462416 
L 79.429505 60.826785 
L 78.518582 62.013535 
L 73.855687 68.131316 
L 72.380291 69.996474 
L 66.60101 77.189021 
L 65.458776 78.616745 
L 60.750727 84.210759 
L 56.675364 89.06459 
L 55.751213 90.132365 
L 54.683437 91.286421 
L 44.523699 102.739997 
L 42.765865 104.601744 
L 42.765865 100.982163 
L 42.765865 89.06459 
L 42.765865 79.530532 
" clip-path="url(#p901c692ec5)" style="fill: #db6b55"/>
   </g>
   <g id="PathCollection_15">
    <path d="M 65.601311 41.3943 
L 64.18385 43.294383 
L 63.31788 44.434441 
L 62.02488 46.161329 
L 61.067662 47.438174 
L 59.07125 50.050796 
L 58.410045 50.928358 
L 57.92123 51.575917 
L 54.757518 55.680571 
L 54.74626 55.695387 
L 54.73795 55.70629 
L 54.683437 55.776267 
L 51.528565 59.831442 
L 51.030114 60.462416 
L 49.325432 62.605619 
L 46.173071 66.592328 
L 43.417457 69.996474 
L 42.765865 70.788054 
L 42.765865 69.996474 
L 42.765865 65.229445 
L 42.765865 60.462416 
L 42.765865 58.078902 
L 42.765865 55.695387 
L 42.765865 53.311873 
L 42.765865 50.928358 
L 42.765865 48.544844 
L 42.765865 46.161329 
L 42.765865 43.777815 
L 42.765865 41.3943 
L 54.683437 41.3943 
" clip-path="url(#p901c692ec5)" style="fill: #c53e3d"/>
   </g>
   <g id="PathCollection_16">
    <path clip-path="url(#p901c692ec5)" style="fill: #ab162a"/>
   </g>
   <g id="PathCollection_17">
    <path clip-path="url(#p901c692ec5)" style="fill: #7c0722"/>
   </g>
   <g id="PathCollection_18">
    <path clip-path="url(#p901c692ec5)" style="fill: #67001f"/>
   </g>
   <g id="PolyCollection_1">
    <path d="M 233.447024 60.462416 
L 233.447024 41.3943 
L 328.787604 41.3943 
L 328.787604 60.462416 
L 328.787604 60.462416 
L 233.447024 60.462416 
z
" clip-path="url(#p901c692ec5)" style="fill: url(#h1fac6b4416); fill-opacity: 0.3; stroke: #333333; stroke-opacity: 0.3"/>
   </g>
   <g id="PathCollection_19">
    <defs>
     <path id="m18095335db" d="M -0 4.1833 
L 4.1833 0 
L 0 -4.1833 
L -4.1833 -0 
z
" style="stroke: #111827"/>
    </defs>
    <g clip-path="url(#p901c692ec5)">
     <use xlink:href="#m18095335db" x="233.447024" y="136.73488" style="fill: #34d399; stroke: #111827"/>
    </g>
   </g>
   <g id="matplotlib.axis_1">
    <g id="xtick_1">
     <g id="line2d_1">
      <defs>
       <path id="m8a59d3acc4" d="M 0 0 
L 0 3.5 
" style="stroke: #000000; stroke-width: 0.8"/>
      </defs>
      <g>
       <use xlink:href="#m8a59d3acc4" x="42.765865" y="232.07546" style="stroke: #000000; stroke-width: 0.8"/>
      </g>
     </g>
     <g id="text_1">
      <!-- 0 -->
      <g transform="translate(39.584615 246.673897) scale(0.1 -0.1)">
       <defs>
        <path id="DejaVuSans-30" d="M 2034 4250 
Q 1547 4250 1301 3770 
Q 1056 3291 1056 2328 
Q 1056 1369 1301 889 
Q 1547 409 2034 409 
Q 2525 409 2770 889 
Q 3016 1369 3016 2328 
Q 3016 3291 2770 3770 
Q 2525 4250 2034 4250 
z
M 2034 4750 
Q 2819 4750 3233 4129 
Q 3647 3509 3647 2328 
Q 3647 1150 3233 529 
Q 2819 -91 2034 -91 
Q 1250 -91 836 529 
Q 422 1150 422 2328 
Q 422 3509 836 4129 
Q 1250 4750 2034 4750 
z
" transform="scale(0.015625)"/>
       </defs>
       <use xlink:href="#DejaVuSans-30"/>
      </g>
     </g>
    </g>
    <g id="xtick_2">
     <g id="line2d_2">
      <g>
       <use xlink:href="#m8a59d3acc4" x="90.436155" y="232.07546" style="stroke: #000000; stroke-width: 0.8"/>
      </g>
     </g>
     <g id="text_2">
      <!-- 50 -->
      <g transform="translate(84.073655 246.673897) scale(0.1 -0.1)">
       <defs>
        <path id="DejaVuSans-35" d="M 691 4666 
L 3169 4666 
L 3169 4134 
L 1269 4134 
L 1269 2991 
Q 1406 3038 1543 3061 
Q 1681 3084 1819 3084 
Q 2600 3084 3056 2656 
Q 3513 2228 3513 1497 
Q 3513 744 3044 326 
Q 2575 -91 1722 -91 
Q 1428 -91 1123 -41 
Q 819 9 494 109 
L 494 744 
Q 775 591 1075 516 
Q 1375 441 1709 441 
Q 2250 441 2565 725 
Q 2881 1009 2881 1497 
Q 2881 1984 2565 2268 
Q 2250 2553 1709 2553 
Q 1456 2553 1204 2497 
Q 953 2441 691 2322 
L 691 4666 
z
" transform="scale(0.015625)"/>
       </defs>
       <use xlink:href="#DejaVuSans-35"/>
       <use xlink:href="#DejaVuSans-30" x="63.623047"/>
      </g>
     </g>
    </g>
    <g id="xtick_3">
     <g id="line2d_3">
      <g>
       <use xlink:href="#m8a59d3acc4" x="138.106445" y="232.07546" style="stroke: #000000; stroke-width: 0.8"/>
      </g>
     </g>
     <g id="text_3">
      <!-- 100 -->
      <g transform="translate(128.562695 246.673897) scale(0.1 -0.1)">
       <defs>
        <path id="DejaVuSans-31" d="M 794 531 
L 1825 531 
L 1825 4091 
L 703 3866 
L 703 4441 
L 1819 4666 
L 2450 4666 
L 2450 531 
L 3481 531 
L 3481 0 
L 794 0 
L 794 531 
z
" transform="scale(0.015625)"/>
       </defs>
       <use xlink:href="#DejaVuSans-31"/>
       <use xlink:href="#DejaVuSans-30" x="63.623047"/>
       <use xlink:href="#DejaVuSans-30" x="127.246094"/>
      </g>
     </g>
    </g>
    <g id="xtick_4">
     <g id="line2d_4">
      <g>
       <use xlink:href="#m8a59d3acc4" x="185.776735" y="232.07546" style="stroke: #000000; stroke-width: 0.8"/>
      </g>
     </g>
     <g id="text_4">
      <!-- 150 -->
      <g transform="translate(176.232985 246.673897) scale(0.1 -0.1)">
       <use xlink:href="#DejaVuSans-31"/>
       <use xlink:href="#DejaVuSans-35" x="63.623047"/>
       <use xlink:href="#DejaVuSans-30" x="127.246094"/>
      </g>
     </g>
    </g>
    <g id="xtick_5">
     <g id="line2d_5">
      <g>
       <use xlink:href="#m8a59d3acc4" x="233.447024" y="232.07546" style="stroke: #000000; stroke-width: 0.8"/>
      </g>
     </g>
     <g id="text_5">
      <!-- 200 -->
      <g transform="translate(223.903274 246.673897) scale(0.1 -0.1)">
       <defs>
        <path id="DejaVuSans-32" d="M 1228 531 
L 3431 531 
L 3431 0 
L 469 0 
L 469 531 
Q 828 903 1448 1529 
Q 2069 2156 2228 2338 
Q 2531 2678 2651 2914 
Q 2772 3150 2772 3378 
Q 2772 3750 2511 3984 
Q 2250 4219 1831 4219 
Q 1534 4219 1204 4116 
Q 875 4013 500 3803 
L 500 4441 
Q 881 4594 1212 4672 
Q 1544 4750 1819 4750 
Q 2544 4750 2975 4387 
Q 3406 4025 3406 3419 
Q 3406 3131 3298 2873 
Q 3191 2616 2906 2266 
Q 2828 2175 2409 1742 
Q 1991 1309 1228 531 
z
" transform="scale(0.015625)"/>
       </defs>
       <use xlink:href="#DejaVuSans-32"/>
       <use xlink:href="#DejaVuSans-30" x="63.623047"/>
       <use xlink:href="#DejaVuSans-30" x="127.246094"/>
      </g>
     </g>
    </g>
    <g id="xtick_6">
     <g id="line2d_6">
      <g>
       <use xlink:href="#m8a59d3acc4" x="281.117314" y="232.07546" style="stroke: #000000; stroke-width: 0.8"/>
      </g>
     </g>
     <g id="text_6">
      <!-- 250 -->
      <g transform="translate(271.573564 246.673897) scale(0.1 -0.1)">
       <use xlink:href="#DejaVuSans-32"/>
       <use xlink:href="#DejaVuSans-35" x="63.623047"/>
       <use xlink:href="#DejaVuSans-30" x="127.246094"/>
      </g>
     </g>
    </g>
    <g id="xtick_7">
     <g id="line2d_7">
      <g>
       <use xlink:href="#m8a59d3acc4" x="328.787604" y="232.07546" style="stroke: #000000; stroke-width: 0.8"/>
      </g>
     </g>
     <g id="text_7">
      <!-- 300 -->
      <g transform="translate(319.243854 246.673897) scale(0.1 -0.1)">
       <defs>
        <path id="DejaVuSans-33" d="M 2597 2516 
Q 3050 2419 3304 2112 
Q 3559 1806 3559 1356 
Q 3559 666 3084 287 
Q 2609 -91 1734 -91 
Q 1441 -91 1130 -33 
Q 819 25 488 141 
L 488 750 
Q 750 597 1062 519 
Q 1375 441 1716 441 
Q 2309 441 2620 675 
Q 2931 909 2931 1356 
Q 2931 1769 2642 2001 
Q 2353 2234 1838 2234 
L 1294 2234 
L 1294 2753 
L 1863 2753 
Q 2328 2753 2575 2939 
Q 2822 3125 2822 3475 
Q 2822 3834 2567 4026 
Q 2313 4219 1838 4219 
Q 1578 4219 1281 4162 
Q 984 4106 628 3988 
L 628 4550 
Q 988 4650 1302 4700 
Q 1616 4750 1894 4750 
Q 2613 4750 3031 4423 
Q 3450 4097 3450 3541 
Q 3450 3153 3228 2886 
Q 3006 2619 2597 2516 
z
" transform="scale(0.015625)"/>
       </defs>
       <use xlink:href="#DejaVuSans-33"/>
       <use xlink:href="#DejaVuSans-30" x="63.623047"/>
       <use xlink:href="#DejaVuSans-30" x="127.246094"/>
      </g>
     </g>
    </g>
    <g id="xtick_8">
     <g id="line2d_8">
      <g>
       <use xlink:href="#m8a59d3acc4" x="376.457894" y="232.07546" style="stroke: #000000; stroke-width: 0.8"/>
      </g>
     </g>
     <g id="text_8">
      <!-- 350 -->
      <g transform="translate(366.914144 246.673897) scale(0.1 -0.1)">
       <use xlink:href="#DejaVuSans-33"/>
       <use xlink:href="#DejaVuSans-35" x="63.623047"/>
       <use xlink:href="#DejaVuSans-30" x="127.246094"/>
      </g>
     </g>
    </g>
    <g id="xtick_9">
     <g id="line2d_9">
      <g>
       <use xlink:href="#m8a59d3acc4" x="424.128184" y="232.07546" style="stroke: #000000; stroke-width: 0.8"/>
      </g>
     </g>
     <g id="text_9">
      <!-- 400 -->
      <g transform="translate(414.584434 246.673897) scale(0.1 -0.1)">
       <defs>
        <path id="DejaVuSans-34" d="M 2419 4116 
L 825 1625 
L 2419 1625 
L 2419 4116 
z
M 2253 4666 
L 3047 4666 
L 3047 1625 
L 3713 1625 
L 3713 1100 
L 3047 1100 
L 3047 0 
L 2419 0 
L 2419 1100 
L 313 1100 
L 313 1709 
L 2253 4666 
z
" transform="scale(0.015625)"/>
       </defs>
       <use xlink:href="#DejaVuSans-34"/>
       <use xlink:href="#DejaVuSans-30" x="63.623047"/>
       <use xlink:href="#DejaVuSans-30" x="127.246094"/>
      </g>
     </g>
    </g>
    <g id="text_10">
     <!-- x [mm] -->
     <g transform="translate(215.256399 260.352022) scale(0.1 -0.1)">
      <defs>
       <path id="DejaVuSans-78" d="M 3513 3500 
L 2247 1797 
L 3578 0 
L 2900 0 
L 1881 1375 
L 863 0 
L 184 0 
L 1544 1831 
L 300 3500 
L 978 3500 
L 1906 2253 
L 2834 3500 
L 3513 3500 
z
" transform="scale(0.015625)"/>
       <path id="DejaVuSans-20" transform="scale(0.015625)"/>
       <path id="DejaVuSans-5b" d="M 550 4863 
L 1875 4863 
L 1875 4416 
L 1125 4416 
L 1125 -397 
L 1875 -397 
L 1875 -844 
L 550 -844 
L 550 4863 
z
" transform="scale(0.015625)"/>
       <path id="DejaVuSans-6d" d="M 3328 2828 
Q 3544 3216 3844 3400 
Q 4144 3584 4550 3584 
Q 5097 3584 5394 3201 
Q 5691 2819 5691 2113 
L 5691 0 
L 5113 0 
L 5113 2094 
Q 5113 2597 4934 2840 
Q 4756 3084 4391 3084 
Q 3944 3084 3684 2787 
Q 3425 2491 3425 1978 
L 3425 0 
L 2847 0 
L 2847 2094 
Q 2847 2600 2669 2842 
Q 2491 3084 2119 3084 
Q 1678 3084 1418 2786 
Q 1159 2488 1159 1978 
L 1159 0 
L 581 0 
L 581 3500 
L 1159 3500 
L 1159 2956 
Q 1356 3278 1631 3431 
Q 1906 3584 2284 3584 
Q 2666 3584 2933 3390 
Q 3200 3197 3328 2828 
z
" transform="scale(0.015625)"/>
       <path id="DejaVuSans-5d" d="M 1947 4863 
L 1947 -844 
L 622 -844 
L 622 -397 
L 1369 -397 
L 1369 4416 
L 622 4416 
L 622 4863 
L 1947 4863 
z
" transform="scale(0.015625)"/>
      </defs>
      <use xlink:href="#DejaVuSans-78"/>
      <use xlink:href="#DejaVuSans-20" x="59.179688"/>
      <use xlink:href="#DejaVuSans-5b" x="90.966797"/>
      <use xlink:href="#DejaVuSans-6d" x="129.980469"/>
      <use xlink:href="#DejaVuSans-6d" x="227.392578"/>
      <use xlink:href="#DejaVuSans-5d" x="324.804688"/>
     </g>
    </g>
   </g>
   <g id="matplotlib.axis_2">
    <g id="ytick_1">
     <g id="line2d_10">
      <defs>
       <path id="mb762282d3c" d="M 0 0 
L -3.5 0 
" style="stroke: #000000; stroke-width: 0.8"/>
      </defs>
      <g>
       <use xlink:href="#mb762282d3c" x="42.765865" y="41.3943" style="stroke: #000000; stroke-width: 0.8"/>
      </g>
     </g>
     <g id="text_11">
      <!-- 0 -->
      <g transform="translate(29.403365 45.193519) scale(0.1 -0.1)">
       <use xlink:href="#DejaVuSans-30"/>
      </g>
     </g>
    </g>
    <g id="ytick_2">
     <g id="line2d_11">
      <g>
       <use xlink:href="#mb762282d3c" x="42.765865" y="65.229445" style="stroke: #000000; stroke-width: 0.8"/>
      </g>
     </g>
     <g id="text_12">
      <!-- 25 -->
      <g transform="translate(23.040865 69.028664) scale(0.1 -0.1)">
       <use xlink:href="#DejaVuSans-32"/>
       <use xlink:href="#DejaVuSans-35" x="63.623047"/>
      </g>
     </g>
    </g>
    <g id="ytick_3">
     <g id="line2d_12">
      <g>
       <use xlink:href="#mb762282d3c" x="42.765865" y="89.06459" style="stroke: #000000; stroke-width: 0.8"/>
      </g>
     </g>
     <g id="text_13">
      <!-- 50 -->
      <g transform="translate(23.040865 92.863809) scale(0.1 -0.1)">
       <use xlink:href="#DejaVuSans-35"/>
       <use xlink:href="#DejaVuSans-30" x="63.623047"/>
      </g>
     </g>
    </g>
    <g id="ytick_4">
     <g id="line2d_13">
      <g>
       <use xlink:href="#mb762282d3c" x="42.765865" y="112.899735" style="stroke: #000000; stroke-width: 0.8"/>
      </g>
     </g>
     <g id="text_14">
      <!-- 75 -->
      <g transform="translate(23.040865 116.698954) scale(0.1 -0.1)">
       <defs>
        <path id="DejaVuSans-37" d="M 525 4666 
L 3525 4666 
L 3525 4397 
L 1831 0 
L 1172 0 
L 2766 4134 
L 525 4134 
L 525 4666 
z
" transform="scale(0.015625)"/>
       </defs>
       <use xlink:href="#DejaVuSans-37"/>
       <use xlink:href="#DejaVuSans-35" x="63.623047"/>
      </g>
     </g>
    </g>
    <g id="ytick_5">
     <g id="line2d_14">
      <g>
       <use xlink:href="#mb762282d3c" x="42.765865" y="136.73488" style="stroke: #000000; stroke-width: 0.8"/>
      </g>
     </g>
     <g id="text_15">
      <!-- 100 -->
      <g transform="translate(16.678365 140.534099) scale(0.1 -0.1)">
       <use xlink:href="#DejaVuSans-31"/>
       <use xlink:href="#DejaVuSans-30" x="63.623047"/>
       <use xlink:href="#DejaVuSans-30" x="127.246094"/>
      </g>
     </g>
    </g>
    <g id="ytick_6">
     <g id="line2d_15">
      <g>
       <use xlink:href="#mb762282d3c" x="42.765865" y="160.570025" style="stroke: #000000; stroke-width: 0.8"/>
      </g>
     </g>
     <g id="text_16">
      <!-- 125 -->
      <g transform="translate(16.678365 164.369244) scale(0.1 -0.1)">
       <use xlink:href="#DejaVuSans-31"/>
       <use xlink:href="#DejaVuSans-32" x="63.623047"/>
       <use xlink:href="#DejaVuSans-35" x="127.246094"/>
      </g>
     </g>
    </g>
    <g id="ytick_7">
     <g id="line2d_16">
      <g>
       <use xlink:href="#mb762282d3c" x="42.765865" y="184.40517" style="stroke: #000000; stroke-width: 0.8"/>
      </g>
     </g>
     <g id="text_17">
      <!-- 150 -->
      <g transform="translate(16.678365 188.204389) scale(0.1 -0.1)">
       <use xlink:href="#DejaVuSans-31"/>
       <use xlink:href="#DejaVuSans-35" x="63.623047"/>
       <use xlink:href="#DejaVuSans-30" x="127.246094"/>
      </g>
     </g>
    </g>
    <g id="ytick_8">
     <g id="line2d_17">
      <g>
       <use xlink:href="#mb762282d3c" x="42.765865" y="208.240315" style="stroke: #000000; stroke-width: 0.8"/>
      </g>
     </g>
     <g id="text_18">
      <!-- 175 -->
      <g transform="translate(16.678365 212.039534) scale(0.1 -0.1)">
       <use xlink:href="#DejaVuSans-31"/>
       <use xlink:href="#DejaVuSans-37" x="63.623047"/>
       <use xlink:href="#DejaVuSans-35" x="127.246094"/>
      </g>
     </g>
    </g>
    <g id="ytick_9">
     <g id="line2d_18">
      <g>
       <use xlink:href="#mb762282d3c" x="42.765865" y="232.07546" style="stroke: #000000; stroke-width: 0.8"/>
      </g>
     </g>
     <g id="text_19">
      <!-- 200 -->
      <g transform="translate(16.678365 235.874679) scale(0.1 -0.1)">
       <use xlink:href="#DejaVuSans-32"/>
       <use xlink:href="#DejaVuSans-30" x="63.623047"/>
       <use xlink:href="#DejaVuSans-30" x="127.246094"/>
      </g>
     </g>
    </g>
    <g id="text_20">
     <!-- y [mm] -->
     <g transform="translate(10.598678 154.925505) rotate(-90) scale(0.1 -0.1)">
      <defs>
       <path id="DejaVuSans-79" d="M 2059 -325 
Q 1816 -950 1584 -1140 
Q 1353 -1331 966 -1331 
L 506 -1331 
L 506 -850 
L 844 -850 
Q 1081 -850 1212 -737 
Q 1344 -625 1503 -206 
L 1606 56 
L 191 3500 
L 800 3500 
L 1894 763 
L 2988 3500 
L 3597 3500 
L 2059 -325 
z
" transform="scale(0.015625)"/>
      </defs>
      <use xlink:href="#DejaVuSans-79"/>
      <use xlink:href="#DejaVuSans-20" x="59.179688"/>
      <use xlink:href="#DejaVuSans-5b" x="90.966797"/>
      <use xlink:href="#DejaVuSans-6d" x="129.980469"/>
      <use xlink:href="#DejaVuSans-6d" x="227.392578"/>
      <use xlink:href="#DejaVuSans-5d" x="324.804688"/>
     </g>
    </g>
   </g>
   <g id="PathCollection_20">
    <path d="M 424.128184 50.252532 
L 416.729176 50.928358 
L 413.621034 51.210443 
L 412.210612 51.347705 
L 408.155984 51.739284 
L 400.293039 52.454299 
L 397.108181 52.674901 
L 388.375467 53.469787 
L 379.893713 53.999037 
L 376.457894 54.336599 
L 368.918379 54.819776 
L 364.540322 54.958252 
L 360.47345 54.882013 
L 352.622749 55.357858 
L 345.935345 55.541007 
L 345.472206 55.475758 
L 344.345227 55.319728 
L 338.321662 55.691333 
L 338.239848 55.695387 
L 333.915174 55.875657 
L 333.554633 56.066547 
L 328.787604 58.078902 
L 328.787604 60.462416 
L 324.020575 60.462416 
L 319.253546 60.462416 
L 312.103003 60.462416 
L 304.952459 60.462416 
L 293.034887 60.462416 
L 281.117314 60.462416 
L 269.199742 60.462416 
L 257.282169 60.462416 
L 250.131626 60.462416 
L 242.981082 60.462416 
L 238.214053 60.462416 
L 233.447024 60.462416 
L 231.290046 63.072467 
L 230.975846 65.229445 
L 226.447705 67.764184 
L 224.002415 69.996474 
L 223.912967 70.042428 
L 219.65567 73.854137 
L 214.427083 79.530532 
L 211.093981 81.506668 
L 209.61188 82.545859 
L 202.743019 89.06459 
L 199.809851 91.180134 
L 188.293134 100.982163 
L 186.711277 101.916705 
L 185.776735 102.557897 
L 177.21161 109.547287 
L 173.551088 112.591661 
L 173.199643 112.899735 
L 171.307831 114.430534 
L 163.31985 120.877235 
L 161.94159 121.906668 
L 155.551858 127.200822 
L 153.700755 128.671517 
L 150.024017 131.479088 
L 145.790036 135.041287 
L 143.698694 136.73488 
L 138.106445 141.159022 
L 137.831275 141.391841 
L 137.307247 141.821588 
L 131.881824 146.268938 
L 129.439927 148.219571 
L 126.188872 150.730444 
L 119.307912 156.441449 
L 114.2713 160.492386 
L 114.178758 160.570025 
L 107.667493 165.88379 
L 99.743088 172.487597 
L 94.544083 176.595526 
L 90.436155 179.917196 
L 85.019534 184.40517 
L 81.432958 187.319546 
L 70.477372 196.322742 
L 68.323786 198.045518 
L 66.60101 199.440629 
L 55.845793 208.240315 
L 55.204325 208.761203 
L 54.683437 209.18187 
L 49.615629 213.308124 
L 42.765865 218.885881 
" clip-path="url(#p901c692ec5)" style="fill: none; stroke: #263238; stroke-width: 0.55"/>
   </g>
   <g id="patch_3">
    <path d="M 42.765865 232.07546 
L 42.765865 41.3943 
" style="fill: none; stroke: #000000; stroke-width: 0.8; stroke-linejoin: miter; stroke-linecap: square"/>
   </g>
   <g id="patch_4">
    <path d="M 424.128184 232.07546 
L 424.128184 41.3943 
" style="fill: none; stroke: #000000; stroke-width: 0.8; stroke-linejoin: miter; stroke-linecap: square"/>
   </g>
   <g id="patch_5">
    <path d="M 42.765865 232.07546 
L 424.128184 232.07546 
" style="fill: none; stroke: #000000; stroke-width: 0.8; stroke-linejoin: miter; stroke-linecap: square"/>
   </g>
   <g id="patch_6">
    <path d="M 42.765865 41.3943 
L 424.128184 41.3943 
" style="fill: none; stroke: #000000; stroke-width: 0.8; stroke-linejoin: miter; stroke-linecap: square"/>
   </g>
   <g id="text_21">
    <!-- CalculiX C3D20R — Mode 2: 14.75 Hz -->
    <g transform="translate(120.469837 35.3943) scale(0.12 -0.12)">
     <defs>
      <path id="DejaVuSans-43" d="M 4122 4306 
L 4122 3641 
Q 3803 3938 3442 4084 
Q 3081 4231 2675 4231 
Q 1875 4231 1450 3742 
Q 1025 3253 1025 2328 
Q 1025 1406 1450 917 
Q 1875 428 2675 428 
Q 3081 428 3442 575 
Q 3803 722 4122 1019 
L 4122 359 
Q 3791 134 3420 21 
Q 3050 -91 2638 -91 
Q 1578 -91 968 557 
Q 359 1206 359 2328 
Q 359 3453 968 4101 
Q 1578 4750 2638 4750 
Q 3056 4750 3426 4639 
Q 3797 4528 4122 4306 
z
" transform="scale(0.015625)"/>
      <path id="DejaVuSans-61" d="M 2194 1759 
Q 1497 1759 1228 1600 
Q 959 1441 959 1056 
Q 959 750 1161 570 
Q 1363 391 1709 391 
Q 2188 391 2477 730 
Q 2766 1069 2766 1631 
L 2766 1759 
L 2194 1759 
z
M 3341 1997 
L 3341 0 
L 2766 0 
L 2766 531 
Q 2569 213 2275 61 
Q 1981 -91 1556 -91 
Q 1019 -91 701 211 
Q 384 513 384 1019 
Q 384 1609 779 1909 
Q 1175 2209 1959 2209 
L 2766 2209 
L 2766 2266 
Q 2766 2663 2505 2880 
Q 2244 3097 1772 3097 
Q 1472 3097 1187 3025 
Q 903 2953 641 2809 
L 641 3341 
Q 956 3463 1253 3523 
Q 1550 3584 1831 3584 
Q 2591 3584 2966 3190 
Q 3341 2797 3341 1997 
z
" transform="scale(0.015625)"/>
      <path id="DejaVuSans-6c" d="M 603 4863 
L 1178 4863 
L 1178 0 
L 603 0 
L 603 4863 
z
" transform="scale(0.015625)"/>
      <path id="DejaVuSans-63" d="M 3122 3366 
L 3122 2828 
Q 2878 2963 2633 3030 
Q 2388 3097 2138 3097 
Q 1578 3097 1268 2742 
Q 959 2388 959 1747 
Q 959 1106 1268 751 
Q 1578 397 2138 397 
Q 2388 397 2633 464 
Q 2878 531 3122 666 
L 3122 134 
Q 2881 22 2623 -34 
Q 2366 -91 2075 -91 
Q 1284 -91 818 406 
Q 353 903 353 1747 
Q 353 2603 823 3093 
Q 1294 3584 2113 3584 
Q 2378 3584 2631 3529 
Q 2884 3475 3122 3366 
z
" transform="scale(0.015625)"/>
      <path id="DejaVuSans-75" d="M 544 1381 
L 544 3500 
L 1119 3500 
L 1119 1403 
Q 1119 906 1312 657 
Q 1506 409 1894 409 
Q 2359 409 2629 706 
Q 2900 1003 2900 1516 
L 2900 3500 
L 3475 3500 
L 3475 0 
L 2900 0 
L 2900 538 
Q 2691 219 2414 64 
Q 2138 -91 1772 -91 
Q 1169 -91 856 284 
Q 544 659 544 1381 
z
M 1991 3584 
L 1991 3584 
z
" transform="scale(0.015625)"/>
      <path id="DejaVuSans-69" d="M 603 3500 
L 1178 3500 
L 1178 0 
L 603 0 
L 603 3500 
z
M 603 4863 
L 1178 4863 
L 1178 4134 
L 603 4134 
L 603 4863 
z
" transform="scale(0.015625)"/>
      <path id="DejaVuSans-58" d="M 403 4666 
L 1081 4666 
L 2241 2931 
L 3406 4666 
L 4084 4666 
L 2584 2425 
L 4184 0 
L 3506 0 
L 2194 1984 
L 872 0 
L 191 0 
L 1856 2491 
L 403 4666 
z
" transform="scale(0.015625)"/>
      <path id="DejaVuSans-44" d="M 1259 4147 
L 1259 519 
L 2022 519 
Q 2988 519 3436 956 
Q 3884 1394 3884 2338 
Q 3884 3275 3436 3711 
Q 2988 4147 2022 4147 
L 1259 4147 
z
M 628 4666 
L 1925 4666 
Q 3281 4666 3915 4102 
Q 4550 3538 4550 2338 
Q 4550 1131 3912 565 
Q 3275 0 1925 0 
L 628 0 
L 628 4666 
z
" transform="scale(0.015625)"/>
      <path id="DejaVuSans-52" d="M 2841 2188 
Q 3044 2119 3236 1894 
Q 3428 1669 3622 1275 
L 4263 0 
L 3584 0 
L 2988 1197 
Q 2756 1666 2539 1819 
Q 2322 1972 1947 1972 
L 1259 1972 
L 1259 0 
L 628 0 
L 628 4666 
L 2053 4666 
Q 2853 4666 3247 4331 
Q 3641 3997 3641 3322 
Q 3641 2881 3436 2590 
Q 3231 2300 2841 2188 
z
M 1259 4147 
L 1259 2491 
L 2053 2491 
Q 2509 2491 2742 2702 
Q 2975 2913 2975 3322 
Q 2975 3731 2742 3939 
Q 2509 4147 2053 4147 
L 1259 4147 
z
" transform="scale(0.015625)"/>
      <path id="DejaVuSans-2014" d="M 313 1978 
L 6088 1978 
L 6088 1528 
L 313 1528 
L 313 1978 
z
" transform="scale(0.015625)"/>
      <path id="DejaVuSans-4d" d="M 628 4666 
L 1569 4666 
L 2759 1491 
L 3956 4666 
L 4897 4666 
L 4897 0 
L 4281 0 
L 4281 4097 
L 3078 897 
L 2444 897 
L 1241 4097 
L 1241 0 
L 628 0 
L 628 4666 
z
" transform="scale(0.015625)"/>
      <path id="DejaVuSans-6f" d="M 1959 3097 
Q 1497 3097 1228 2736 
Q 959 2375 959 1747 
Q 959 1119 1226 758 
Q 1494 397 1959 397 
Q 2419 397 2687 759 
Q 2956 1122 2956 1747 
Q 2956 2369 2687 2733 
Q 2419 3097 1959 3097 
z
M 1959 3584 
Q 2709 3584 3137 3096 
Q 3566 2609 3566 1747 
Q 3566 888 3137 398 
Q 2709 -91 1959 -91 
Q 1206 -91 779 398 
Q 353 888 353 1747 
Q 353 2609 779 3096 
Q 1206 3584 1959 3584 
z
" transform="scale(0.015625)"/>
      <path id="DejaVuSans-64" d="M 2906 2969 
L 2906 4863 
L 3481 4863 
L 3481 0 
L 2906 0 
L 2906 525 
Q 2725 213 2448 61 
Q 2172 -91 1784 -91 
Q 1150 -91 751 415 
Q 353 922 353 1747 
Q 353 2572 751 3078 
Q 1150 3584 1784 3584 
Q 2172 3584 2448 3432 
Q 2725 3281 2906 2969 
z
M 947 1747 
Q 947 1113 1208 752 
Q 1469 391 1925 391 
Q 2381 391 2643 752 
Q 2906 1113 2906 1747 
Q 2906 2381 2643 2742 
Q 2381 3103 1925 3103 
Q 1469 3103 1208 2742 
Q 947 2381 947 1747 
z
" transform="scale(0.015625)"/>
      <path id="DejaVuSans-65" d="M 3597 1894 
L 3597 1613 
L 953 1613 
Q 991 1019 1311 708 
Q 1631 397 2203 397 
Q 2534 397 2845 478 
Q 3156 559 3463 722 
L 3463 178 
Q 3153 47 2828 -22 
Q 2503 -91 2169 -91 
Q 1331 -91 842 396 
Q 353 884 353 1716 
Q 353 2575 817 3079 
Q 1281 3584 2069 3584 
Q 2775 3584 3186 3129 
Q 3597 2675 3597 1894 
z
M 3022 2063 
Q 3016 2534 2758 2815 
Q 2500 3097 2075 3097 
Q 1594 3097 1305 2825 
Q 1016 2553 972 2059 
L 3022 2063 
z
" transform="scale(0.015625)"/>
      <path id="DejaVuSans-3a" d="M 750 794 
L 1409 794 
L 1409 0 
L 750 0 
L 750 794 
z
M 750 3309 
L 1409 3309 
L 1409 2516 
L 750 2516 
L 750 3309 
z
" transform="scale(0.015625)"/>
      <path id="DejaVuSans-2e" d="M 684 794 
L 1344 794 
L 1344 0 
L 684 0 
L 684 794 
z
" transform="scale(0.015625)"/>
      <path id="DejaVuSans-48" d="M 628 4666 
L 1259 4666 
L 1259 2753 
L 3553 2753 
L 3553 4666 
L 4184 4666 
L 4184 0 
L 3553 0 
L 3553 2222 
L 1259 2222 
L 1259 0 
L 628 0 
L 628 4666 
z
" transform="scale(0.015625)"/>
      <path id="DejaVuSans-7a" d="M 353 3500 
L 3084 3500 
L 3084 2975 
L 922 459 
L 3084 459 
L 3084 0 
L 275 0 
L 275 525 
L 2438 3041 
L 353 3041 
L 353 3500 
z
" transform="scale(0.015625)"/>
     </defs>
     <use xlink:href="#DejaVuSans-43"/>
     <use xlink:href="#DejaVuSans-61" x="69.824219"/>
     <use xlink:href="#DejaVuSans-6c" x="131.103516"/>
     <use xlink:href="#DejaVuSans-63" x="158.886719"/>
     <use xlink:href="#DejaVuSans-75" x="213.867188"/>
     <use xlink:href="#DejaVuSans-6c" x="277.246094"/>
     <use xlink:href="#DejaVuSans-69" x="305.029297"/>
     <use xlink:href="#DejaVuSans-58" x="332.8125"/>
     <use xlink:href="#DejaVuSans-20" x="401.318359"/>
     <use xlink:href="#DejaVuSans-43" x="433.105469"/>
     <use xlink:href="#DejaVuSans-33" x="502.929688"/>
     <use xlink:href="#DejaVuSans-44" x="566.552734"/>
     <use xlink:href="#DejaVuSans-32" x="643.554688"/>
     <use xlink:href="#DejaVuSans-30" x="707.177734"/>
     <use xlink:href="#DejaVuSans-52" x="770.800781"/>
     <use xlink:href="#DejaVuSans-20" x="840.283203"/>
     <use xlink:href="#DejaVuSans-2014" x="872.070312"/>
     <use xlink:href="#DejaVuSans-20" x="972.070312"/>
     <use xlink:href="#DejaVuSans-4d" x="1003.857422"/>
     <use xlink:href="#DejaVuSans-6f" x="1090.136719"/>
     <use xlink:href="#DejaVuSans-64" x="1151.318359"/>
     <use xlink:href="#DejaVuSans-65" x="1214.794922"/>
     <use xlink:href="#DejaVuSans-20" x="1276.318359"/>
     <use xlink:href="#DejaVuSans-32" x="1308.105469"/>
     <use xlink:href="#DejaVuSans-3a" x="1371.728516"/>
     <use xlink:href="#DejaVuSans-20" x="1405.419922"/>
     <use xlink:href="#DejaVuSans-31" x="1437.207031"/>
     <use xlink:href="#DejaVuSans-34" x="1500.830078"/>
     <use xlink:href="#DejaVuSans-2e" x="1564.453125"/>
     <use xlink:href="#DejaVuSans-37" x="1596.240234"/>
     <use xlink:href="#DejaVuSans-35" x="1659.863281"/>
     <use xlink:href="#DejaVuSans-20" x="1723.486328"/>
     <use xlink:href="#DejaVuSans-48" x="1755.273438"/>
     <use xlink:href="#DejaVuSans-7a" x="1830.46875"/>
    </g>
   </g>
  </g>
  <g id="axes_2">
   <g id="patch_7">
    <path d="M 452.74005 231.564898 
L 463.171352 231.564898 
L 463.171352 41.904863 
L 452.74005 41.904863 
z
" style="fill: #ffffff"/>
   </g>
   <g id="patch_8">
    <path clip-path="url(#pfd5926f333)" style="fill: #ffffff; stroke: #ffffff; stroke-width: 0.01; stroke-linejoin: miter"/>
   </g>
   <g id="patch_9">
    <path d="M 452.74005 231.564898 
L 457.955701 241.047899 
L 463.171352 231.564898 
" style="fill: #053061"/>
   </g>
   <g id="patch_10">
    <path d="M 452.74005 41.904863 
L 457.955701 32.421861 
L 463.171352 41.904863 
" style="fill: #67001f"/>
   </g>
   <g id="QuadMesh_1">
    <path d="M 452.74005 231.564898 
L 463.171352 231.564898 
L 463.171352 219.711145 
L 452.74005 219.711145 
L 452.74005 231.564898 
" clip-path="url(#pfd5926f333)" style="fill: #0e4179"/>
    <path d="M 452.74005 219.711145 
L 463.171352 219.711145 
L 463.171352 207.857393 
L 452.74005 207.857393 
L 452.74005 219.711145 
" clip-path="url(#pfd5926f333)" style="fill: #1f63a8"/>
    <path d="M 452.74005 207.857393 
L 463.171352 207.857393 
L 463.171352 196.003641 
L 452.74005 196.003641 
L 452.74005 207.857393 
" clip-path="url(#pfd5926f333)" style="fill: #3480b9"/>
    <path d="M 452.74005 196.003641 
L 463.171352 196.003641 
L 463.171352 184.149889 
L 452.74005 184.149889 
L 452.74005 196.003641 
" clip-path="url(#pfd5926f333)" style="fill: #529dc8"/>
    <path d="M 452.74005 184.149889 
L 463.171352 184.149889 
L 463.171352 172.296137 
L 452.74005 172.296137 
L 452.74005 184.149889 
" clip-path="url(#pfd5926f333)" style="fill: #84bcd9"/>
    <path d="M 452.74005 172.296137 
L 463.171352 172.296137 
L 463.171352 160.442384 
L 452.74005 160.442384 
L 452.74005 172.296137 
" clip-path="url(#pfd5926f333)" style="fill: #aed3e6"/>
    <path d="M 452.74005 160.442384 
L 463.171352 160.442384 
L 463.171352 148.588632 
L 452.74005 148.588632 
L 452.74005 160.442384 
" clip-path="url(#pfd5926f333)" style="fill: #d4e6f1"/>
    <path d="M 452.74005 148.588632 
L 463.171352 148.588632 
L 463.171352 136.73488 
L 452.74005 136.73488 
L 452.74005 148.588632 
" clip-path="url(#pfd5926f333)" style="fill: #ecf2f5"/>
    <path d="M 452.74005 136.73488 
L 463.171352 136.73488 
L 463.171352 124.881128 
L 452.74005 124.881128 
L 452.74005 136.73488 
" clip-path="url(#pfd5926f333)" style="fill: #f9eee7"/>
    <path d="M 452.74005 124.881128 
L 463.171352 124.881128 
L 463.171352 113.027376 
L 452.74005 113.027376 
L 452.74005 124.881128 
" clip-path="url(#pfd5926f333)" style="fill: #fddcc9"/>
    <path d="M 452.74005 113.027376 
L 463.171352 113.027376 
L 463.171352 101.173624 
L 452.74005 101.173624 
L 452.74005 113.027376 
" clip-path="url(#pfd5926f333)" style="fill: #f8bb9e"/>
    <path d="M 452.74005 101.173624 
L 463.171352 101.173624 
L 463.171352 89.319871 
L 452.74005 89.319871 
L 452.74005 101.173624 
" clip-path="url(#pfd5926f333)" style="fill: #ee9677"/>
    <path d="M 452.74005 89.319871 
L 463.171352 89.319871 
L 463.171352 77.466119 
L 452.74005 77.466119 
L 452.74005 89.319871 
" clip-path="url(#pfd5926f333)" style="fill: #db6b55"/>
    <path d="M 452.74005 77.466119 
L 463.171352 77.466119 
L 463.171352 65.612367 
L 452.74005 65.612367 
L 452.74005 77.466119 
" clip-path="url(#pfd5926f333)" style="fill: #c53e3d"/>
    <path d="M 452.74005 65.612367 
L 463.171352 65.612367 
L 463.171352 53.758615 
L 452.74005 53.758615 
L 452.74005 65.612367 
" clip-path="url(#pfd5926f333)" style="fill: #ab162a"/>
    <path d="M 452.74005 53.758615 
L 463.171352 53.758615 
L 463.171352 41.904863 
L 452.74005 41.904863 
L 452.74005 53.758615 
" clip-path="url(#pfd5926f333)" style="fill: #7c0722"/>
   </g>
   <g id="matplotlib.axis_3"/>
   <g id="matplotlib.axis_4">
    <g id="ytick_10">
     <g id="line2d_19">
      <defs>
       <path id="mdf009413db" d="M 0 0 
L 3.5 0 
" style="stroke: #000000; stroke-width: 0.8"/>
      </defs>
      <g>
       <use xlink:href="#mdf009413db" x="463.171352" y="231.564898" style="stroke: #000000; stroke-width: 0.8"/>
      </g>
     </g>
     <g id="text_22">
      <!-- −1.00 -->
      <g transform="translate(470.171352 235.364116) scale(0.1 -0.1)">
       <defs>
        <path id="DejaVuSans-2212" d="M 678 2272 
L 4684 2272 
L 4684 1741 
L 678 1741 
L 678 2272 
z
" transform="scale(0.015625)"/>
       </defs>
       <use xlink:href="#DejaVuSans-2212"/>
       <use xlink:href="#DejaVuSans-31" x="83.789062"/>
       <use xlink:href="#DejaVuSans-2e" x="147.412109"/>
       <use xlink:href="#DejaVuSans-30" x="179.199219"/>
       <use xlink:href="#DejaVuSans-30" x="242.822266"/>
      </g>
     </g>
    </g>
    <g id="ytick_11">
     <g id="line2d_20">
      <g>
       <use xlink:href="#mdf009413db" x="463.171352" y="207.857393" style="stroke: #000000; stroke-width: 0.8"/>
      </g>
     </g>
     <g id="text_23">
      <!-- −0.75 -->
      <g transform="translate(470.171352 211.656612) scale(0.1 -0.1)">
       <use xlink:href="#DejaVuSans-2212"/>
       <use xlink:href="#DejaVuSans-30" x="83.789062"/>
       <use xlink:href="#DejaVuSans-2e" x="147.412109"/>
       <use xlink:href="#DejaVuSans-37" x="179.199219"/>
       <use xlink:href="#DejaVuSans-35" x="242.822266"/>
      </g>
     </g>
    </g>
    <g id="ytick_12">
     <g id="line2d_21">
      <g>
       <use xlink:href="#mdf009413db" x="463.171352" y="184.149889" style="stroke: #000000; stroke-width: 0.8"/>
      </g>
     </g>
     <g id="text_24">
      <!-- −0.50 -->
      <g transform="translate(470.171352 187.949108) scale(0.1 -0.1)">
       <use xlink:href="#DejaVuSans-2212"/>
       <use xlink:href="#DejaVuSans-30" x="83.789062"/>
       <use xlink:href="#DejaVuSans-2e" x="147.412109"/>
       <use xlink:href="#DejaVuSans-35" x="179.199219"/>
       <use xlink:href="#DejaVuSans-30" x="242.822266"/>
      </g>
     </g>
    </g>
    <g id="ytick_13">
     <g id="line2d_22">
      <g>
       <use xlink:href="#mdf009413db" x="463.171352" y="160.442384" style="stroke: #000000; stroke-width: 0.8"/>
      </g>
     </g>
     <g id="text_25">
      <!-- −0.25 -->
      <g transform="translate(470.171352 164.241603) scale(0.1 -0.1)">
       <use xlink:href="#DejaVuSans-2212"/>
       <use xlink:href="#DejaVuSans-30" x="83.789062"/>
       <use xlink:href="#DejaVuSans-2e" x="147.412109"/>
       <use xlink:href="#DejaVuSans-32" x="179.199219"/>
       <use xlink:href="#DejaVuSans-35" x="242.822266"/>
      </g>
     </g>
    </g>
    <g id="ytick_14">
     <g id="line2d_23">
      <g>
       <use xlink:href="#mdf009413db" x="463.171352" y="136.73488" style="stroke: #000000; stroke-width: 0.8"/>
      </g>
     </g>
     <g id="text_26">
      <!-- 0.00 -->
      <g transform="translate(470.171352 140.534099) scale(0.1 -0.1)">
       <use xlink:href="#DejaVuSans-30"/>
       <use xlink:href="#DejaVuSans-2e" x="63.623047"/>
       <use xlink:href="#DejaVuSans-30" x="95.410156"/>
       <use xlink:href="#DejaVuSans-30" x="159.033203"/>
      </g>
     </g>
    </g>
    <g id="ytick_15">
     <g id="line2d_24">
      <g>
       <use xlink:href="#mdf009413db" x="463.171352" y="113.027376" style="stroke: #000000; stroke-width: 0.8"/>
      </g>
     </g>
     <g id="text_27">
      <!-- 0.25 -->
      <g transform="translate(470.171352 116.826594) scale(0.1 -0.1)">
       <use xlink:href="#DejaVuSans-30"/>
       <use xlink:href="#DejaVuSans-2e" x="63.623047"/>
       <use xlink:href="#DejaVuSans-32" x="95.410156"/>
       <use xlink:href="#DejaVuSans-35" x="159.033203"/>
      </g>
     </g>
    </g>
    <g id="ytick_16">
     <g id="line2d_25">
      <g>
       <use xlink:href="#mdf009413db" x="463.171352" y="89.319871" style="stroke: #000000; stroke-width: 0.8"/>
      </g>
     </g>
     <g id="text_28">
      <!-- 0.50 -->
      <g transform="translate(470.171352 93.11909) scale(0.1 -0.1)">
       <use xlink:href="#DejaVuSans-30"/>
       <use xlink:href="#DejaVuSans-2e" x="63.623047"/>
       <use xlink:href="#DejaVuSans-35" x="95.410156"/>
       <use xlink:href="#DejaVuSans-30" x="159.033203"/>
      </g>
     </g>
    </g>
    <g id="ytick_17">
     <g id="line2d_26">
      <g>
       <use xlink:href="#mdf009413db" x="463.171352" y="65.612367" style="stroke: #000000; stroke-width: 0.8"/>
      </g>
     </g>
     <g id="text_29">
      <!-- 0.75 -->
      <g transform="translate(470.171352 69.411586) scale(0.1 -0.1)">
       <use xlink:href="#DejaVuSans-30"/>
       <use xlink:href="#DejaVuSans-2e" x="63.623047"/>
       <use xlink:href="#DejaVuSans-37" x="95.410156"/>
       <use xlink:href="#DejaVuSans-35" x="159.033203"/>
      </g>
     </g>
    </g>
    <g id="ytick_18">
     <g id="line2d_27">
      <g>
       <use xlink:href="#mdf009413db" x="463.171352" y="41.904863" style="stroke: #000000; stroke-width: 0.8"/>
      </g>
     </g>
     <g id="text_30">
      <!-- 1.00 -->
      <g transform="translate(470.171352 45.704081) scale(0.1 -0.1)">
       <use xlink:href="#DejaVuSans-31"/>
       <use xlink:href="#DejaVuSans-2e" x="63.623047"/>
       <use xlink:href="#DejaVuSans-30" x="95.410156"/>
       <use xlink:href="#DejaVuSans-30" x="159.033203"/>
      </g>
     </g>
    </g>
    <g id="text_31">
     <!-- normalized z displacement -->
     <g transform="translate(512.415102 204.017693) rotate(-90) scale(0.1 -0.1)">
      <defs>
       <path id="DejaVuSans-6e" d="M 3513 2113 
L 3513 0 
L 2938 0 
L 2938 2094 
Q 2938 2591 2744 2837 
Q 2550 3084 2163 3084 
Q 1697 3084 1428 2787 
Q 1159 2491 1159 1978 
L 1159 0 
L 581 0 
L 581 3500 
L 1159 3500 
L 1159 2956 
Q 1366 3272 1645 3428 
Q 1925 3584 2291 3584 
Q 2894 3584 3203 3211 
Q 3513 2838 3513 2113 
z
" transform="scale(0.015625)"/>
       <path id="DejaVuSans-72" d="M 2631 2963 
Q 2534 3019 2420 3045 
Q 2306 3072 2169 3072 
Q 1681 3072 1420 2755 
Q 1159 2438 1159 1844 
L 1159 0 
L 581 0 
L 581 3500 
L 1159 3500 
L 1159 2956 
Q 1341 3275 1631 3429 
Q 1922 3584 2338 3584 
Q 2397 3584 2469 3576 
Q 2541 3569 2628 3553 
L 2631 2963 
z
" transform="scale(0.015625)"/>
       <path id="DejaVuSans-73" d="M 2834 3397 
L 2834 2853 
Q 2591 2978 2328 3040 
Q 2066 3103 1784 3103 
Q 1356 3103 1142 2972 
Q 928 2841 928 2578 
Q 928 2378 1081 2264 
Q 1234 2150 1697 2047 
L 1894 2003 
Q 2506 1872 2764 1633 
Q 3022 1394 3022 966 
Q 3022 478 2636 193 
Q 2250 -91 1575 -91 
Q 1294 -91 989 -36 
Q 684 19 347 128 
L 347 722 
Q 666 556 975 473 
Q 1284 391 1588 391 
Q 1994 391 2212 530 
Q 2431 669 2431 922 
Q 2431 1156 2273 1281 
Q 2116 1406 1581 1522 
L 1381 1569 
Q 847 1681 609 1914 
Q 372 2147 372 2553 
Q 372 3047 722 3315 
Q 1072 3584 1716 3584 
Q 2034 3584 2315 3537 
Q 2597 3491 2834 3397 
z
" transform="scale(0.015625)"/>
       <path id="DejaVuSans-70" d="M 1159 525 
L 1159 -1331 
L 581 -1331 
L 581 3500 
L 1159 3500 
L 1159 2969 
Q 1341 3281 1617 3432 
Q 1894 3584 2278 3584 
Q 2916 3584 3314 3078 
Q 3713 2572 3713 1747 
Q 3713 922 3314 415 
Q 2916 -91 2278 -91 
Q 1894 -91 1617 61 
Q 1341 213 1159 525 
z
M 3116 1747 
Q 3116 2381 2855 2742 
Q 2594 3103 2138 3103 
Q 1681 3103 1420 2742 
Q 1159 2381 1159 1747 
Q 1159 1113 1420 752 
Q 1681 391 2138 391 
Q 2594 391 2855 752 
Q 3116 1113 3116 1747 
z
" transform="scale(0.015625)"/>
       <path id="DejaVuSans-74" d="M 1172 4494 
L 1172 3500 
L 2356 3500 
L 2356 3053 
L 1172 3053 
L 1172 1153 
Q 1172 725 1289 603 
Q 1406 481 1766 481 
L 2356 481 
L 2356 0 
L 1766 0 
Q 1100 0 847 248 
Q 594 497 594 1153 
L 594 3053 
L 172 3053 
L 172 3500 
L 594 3500 
L 594 4494 
L 1172 4494 
z
" transform="scale(0.015625)"/>
      </defs>
      <use xlink:href="#DejaVuSans-6e"/>
      <use xlink:href="#DejaVuSans-6f" x="63.378906"/>
      <use xlink:href="#DejaVuSans-72" x="124.560547"/>
      <use xlink:href="#DejaVuSans-6d" x="163.923828"/>
      <use xlink:href="#DejaVuSans-61" x="261.335938"/>
      <use xlink:href="#DejaVuSans-6c" x="322.615234"/>
      <use xlink:href="#DejaVuSans-69" x="350.398438"/>
      <use xlink:href="#DejaVuSans-7a" x="378.181641"/>
      <use xlink:href="#DejaVuSans-65" x="430.671875"/>
      <use xlink:href="#DejaVuSans-64" x="492.195312"/>
      <use xlink:href="#DejaVuSans-20" x="555.671875"/>
      <use xlink:href="#DejaVuSans-7a" x="587.458984"/>
      <use xlink:href="#DejaVuSans-20" x="639.949219"/>
      <use xlink:href="#DejaVuSans-64" x="671.736328"/>
      <use xlink:href="#DejaVuSans-69" x="735.212891"/>
      <use xlink:href="#DejaVuSans-73" x="762.996094"/>
      <use xlink:href="#DejaVuSans-70" x="815.095703"/>
      <use xlink:href="#DejaVuSans-6c" x="878.572266"/>
      <use xlink:href="#DejaVuSans-61" x="906.355469"/>
      <use xlink:href="#DejaVuSans-63" x="967.634766"/>
      <use xlink:href="#DejaVuSans-65" x="1022.615234"/>
      <use xlink:href="#DejaVuSans-6d" x="1084.138672"/>
      <use xlink:href="#DejaVuSans-65" x="1181.550781"/>
      <use xlink:href="#DejaVuSans-6e" x="1243.074219"/>
      <use xlink:href="#DejaVuSans-74" x="1306.453125"/>
     </g>
    </g>
   </g>
   <g id="LineCollection_1"/>
   <g id="patch_11">
    <path d="M 452.74005 231.564898 
L 457.955701 241.047899 
L 463.171352 231.564898 
L 463.171352 41.904863 
L 457.955701 32.421861 
L 452.74005 41.904863 
L 452.74005 231.564898 
z
" style="fill: none; stroke: #000000; stroke-width: 0.8; stroke-linejoin: miter; stroke-linecap: square"/>
   </g>
  </g>
 </g>
 <defs>
  <clipPath id="p901c692ec5">
   <rect x="42.765865" y="41.3943" width="381.362319" height="190.681159"/>
  </clipPath>
  <clipPath id="pfd5926f333">
   <rect x="452.74005" y="41.904863" width="10.431302" height="189.660035"/>
  </clipPath>
 </defs>
 <defs>
  <pattern id="h1fac6b4416" patternUnits="userSpaceOnUse" x="0" y="0" width="72" height="72">
   <rect x="0" y="0" width="73" height="73" fill="#333333"/>
   <path d="M -36 36 
L 36 -36 
M -33 39 
L 39 -33 
M -30 42 
L 42 -30 
M -27 45 
L 45 -27 
M -24 48 
L 48 -24 
M -21 51 
L 51 -21 
M -18 54 
L 54 -18 
M -15 57 
L 57 -15 
M -12 60 
L 60 -12 
M -9 63 
L 63 -9 
M -6 66 
L 66 -6 
M -3 69 
L 69 -3 
M 0 72 
L 72 0 
M 3 75 
L 75 3 
M 6 78 
L 78 6 
M 9 81 
L 81 9 
M 12 84 
L 84 12 
M 15 87 
L 87 15 
M 18 90 
L 90 18 
M 21 93 
L 93 21 
M 24 96 
L 96 24 
M 27 99 
L 99 27 
M 30 102 
L 102 30 
M 33 105 
L 105 33 
M 36 108 
L 108 36 
" style="fill: #333333; stroke: #333333; stroke-width: 1.0; stroke-linecap: butt; stroke-linejoin: miter; stroke-opacity: 0.3"/>
  </pattern>
 </defs>
</svg>
