<?xml version="1.0" encoding="utf-8" standalone="no"?>
<!DOCTYPE svg PUBLIC "-//W3C//DTD SVG 1.1//EN"
  "http://www.w3.org/Graphics/SVG/1.1/DTD/svg11.dtd">
<svg xmlns:xlink="http://www.w3.org/1999/xlink" width="518.4pt" height="273.6pt" viewBox="0 0 518.4 273.6" xmlns="http://www.w3.org/2000/svg" version="1.1">
 <metadata>
  <rdf:RDF xmlns:dc="http://purl.org/dc/elements/1.1/" xmlns:cc="http://creativecommons.org/ns#" xmlns:rdf="http://www.w3.org/1999/02/22-rdf-syntax-ns#">
   <cc:Work>
    <dc:type rdf:resource="http://purl.org/dc/dcmitype/StillImage"/>
    <dc:format>image/svg+xml</dc:format>
    <dc:creator>
     <cc:Agent>
      <dc:title>Matplotlib v3.6.3, https://matplotlib.org/</dc:title>
     </cc:Agent>
    </dc:creator>
   </cc:Work>
  </rdf:RDF>
 </metadata>
 <defs>
  <style type="text/css">*{stroke-linejoin: round; stroke-linecap: butt}</style>
 </defs>
 <g id="figure_1">
  <g id="patch_1">
   <path d="M 0 273.6 
L 518.4 273.6 
L 518.4 0 
L 0 0 
z
" style="fill: #ffffff"/>
  </g>
  <g id="axes_1">
   <g id="patch_2">
    <path d="M 42.765865 232.07546 
L 424.128184 232.07546 
L 424.128184 41.3943 
L 42.765865 41.3943 
z
" style="fill: #ffffff"/>
   </g>
   <g id="PathCollection_1">
    <path clip-path="url(#p14503a19d0)" style="fill: #053061"/>
   </g>
   <g id="PathCollection_2">
    <path d="M 60.442954 41.3943 
L 58.741981 42.206009 
L 54.683437 44.034025 
L 51.247835 45.474209 
L 49.55328 46.161329 
L 44.515577 48.194901 
L 43.367398 48.66515 
L 42.765865 48.900079 
L 42.765865 48.544844 
L 42.765865 46.161329 
L 42.765865 43.777815 
L 42.765865 41.3943 
L 54.683437 41.3943 
" clip-path="url(#p14503a19d0)" style="fill: #0e4179"/>
   </g>
   <g id="PathCollection_3">
    <path d="M 42.765865 48.900079 
L 43.367398 48.66515 
L 44.515577 48.194901 
L 49.55328 46.161329 
L 51.247835 45.474209 
L 54.683437 44.034025 
L 58.741981 42.206009 
L 60.442954 41.3943 
L 66.60101 41.3943 
L 76.200094 41.3943 
L 74.785208 42.140975 
L 70.411509 44.539915 
L 67.209008 46.161329 
L 66.60101 46.469491 
L 63.466594 47.917961 
L 58.111111 50.242823 
L 56.570654 50.928358 
L 55.985834 51.188838 
L 54.683437 51.730122 
L 48.023128 54.363325 
L 44.440838 55.695387 
L 42.765865 56.314905 
L 42.765865 55.695387 
L 42.765865 53.311873 
L 42.765865 50.928358 
" clip-path="url(#p14503a19d0)" style="fill: #1f63a8"/>
   </g>
   <g id="PathCollection_4">
    <path d="M 42.765865 56.314905 
L 44.440838 55.695387 
L 48.023128 54.363325 
L 54.683437 51.730122 
L 55.985834 51.188838 
L 56.570654 50.928358 
L 58.111111 50.242823 
L 63.466594 47.917961 
L 66.60101 46.469491 
L 67.209008 46.161329 
L 70.411509 44.539915 
L 74.785208 42.140975 
L 76.200094 41.3943 
L 78.518582 41.3943 
L 90.436155 41.3943 
L 90.471537 41.3943 
L 90.436155 41.41815 
L 87.664651 43.223514 
L 84.810107 44.903024 
L 82.78063 46.161329 
L 81.741683 46.805949 
L 78.518582 48.615419 
L 75.333796 50.291401 
L 74.01955 50.928358 
L 70.863123 52.45945 
L 68.438732 53.679417 
L 66.60101 54.529249 
L 63.866693 55.695387 
L 60.937809 56.946262 
L 54.683437 59.419518 
L 52.877844 60.101298 
L 51.847815 60.462416 
L 42.765865 63.625767 
L 42.765865 60.462416 
L 42.765865 58.078902 
M 136.532729 232.07546 
L 138.106445 231.991244 
L 149.965742 232.017184 
L 150.080447 232.01903 
L 151.013995 232.07546 
L 150.024017 232.07546 
L 138.106445 232.07546 
" clip-path="url(#p14503a19d0)" style="fill: #3480b9"/>
   </g>
   <g id="PathCollection_5">
    <path d="M 42.765865 63.625767 
L 51.847815 60.462416 
L 52.877844 60.101298 
L 54.683437 59.419518 
L 60.937809 56.946262 
L 63.866693 55.695387 
L 66.60101 54.529249 
L 68.438732 53.679417 
L 70.863123 52.45945 
L 74.01955 50.928358 
L 75.333796 50.291401 
L 78.518582 48.615419 
L 81.741683 46.805949 
L 82.78063 46.161329 
L 84.810107 44.903024 
L 87.664651 43.223514 
L 90.436155 41.41815 
L 90.471537 41.3943 
L 102.353727 41.3943 
L 104.128996 41.3943 
L 103.779023 41.679359 
L 102.353727 42.692015 
L 98.583499 45.407284 
L 97.40493 46.161329 
L 95.156767 47.600721 
L 93.014605 49.060534 
L 90.436155 50.625326 
L 89.922411 50.928358 
L 87.0377 52.632182 
L 82.974764 54.804151 
L 81.385512 55.695387 
L 80.633279 56.118327 
L 78.518582 57.193103 
L 73.71184 59.501068 
L 71.528822 60.462416 
L 66.60101 62.637875 
L 63.391104 63.945483 
L 54.683437 67.126852 
L 50.832822 68.456228 
L 45.737929 69.996474 
L 42.765865 70.901312 
L 42.765865 69.996474 
L 42.765865 65.229445 
M 151.013995 232.07546 
L 150.080447 232.01903 
L 149.965742 232.017184 
L 138.106445 231.991244 
L 136.532729 232.07546 
L 126.188872 232.07546 
L 114.2713 232.07546 
L 102.353727 232.07546 
L 90.436155 232.07546 
L 78.518582 232.07546 
L 77.677832 232.07546 
L 78.342771 231.899649 
L 78.518582 231.853431 
L 78.798813 231.795229 
L 90.436155 229.09842 
L 97.89546 227.617193 
L 102.353727 226.74925 
L 108.485865 225.943322 
L 114.2713 225.05791 
L 118.702051 224.588638 
L 126.188872 223.755079 
L 134.881896 223.382436 
L 138.106445 223.209877 
L 141.165125 223.216568 
L 158.602293 223.497184 
L 161.94159 223.699033 
L 165.957986 224.174283 
L 173.859162 224.820484 
L 180.17046 225.764162 
L 185.776735 226.802306 
L 194.496595 228.877748 
L 199.774055 229.995712 
L 206.336289 232.07546 
L 197.694307 232.07546 
L 185.776735 232.07546 
L 173.859162 232.07546 
L 161.94159 232.07546 
" clip-path="url(#p14503a19d0)" style="fill: #529dc8"/>
   </g>
   <g id="PathCollection_6">
    <path d="M 42.765865 70.901312 
L 45.737929 69.996474 
L 50.832822 68.456228 
L 54.683437 67.126852 
L 63.391104 63.945483 
L 66.60101 62.637875 
L 71.528822 60.462416 
L 73.71184 59.501068 
L 78.518582 57.193103 
L 80.633279 56.118327 
L 81.385512 55.695387 
L 82.974764 54.804151 
L 87.0377 52.632182 
L 89.922411 50.928358 
L 90.436155 50.625326 
L 93.014605 49.060534 
L 95.156767 47.600721 
L 97.40493 46.161329 
L 98.583499 45.407284 
L 102.353727 42.692015 
L 103.779023 41.679359 
L 104.128996 41.3943 
L 114.2713 41.3943 
L 118.169975 41.3943 
L 115.325178 43.567039 
L 114.916993 43.906953 
L 114.2713 44.369892 
L 111.935191 46.161329 
L 109.948433 47.68027 
L 106.270991 50.144906 
L 105.182771 50.928358 
L 104.567054 51.371024 
L 102.353727 52.770718 
L 98.89212 55.003066 
L 97.689521 55.695387 
L 95.216341 57.122865 
L 92.85861 58.563393 
L 90.436155 59.887737 
L 89.357589 60.462416 
L 84.723001 62.944184 
L 78.518582 65.884937 
L 73.650197 68.04912 
L 68.70694 69.996474 
L 66.60101 70.845095 
L 59.186515 73.598936 
L 54.683437 75.036892 
L 45.411713 77.413854 
L 42.765865 78.219376 
M 206.336289 232.07546 
L 199.774055 229.995712 
L 194.496595 228.877748 
L 185.776735 226.802306 
L 180.17046 225.764162 
L 173.859162 224.820484 
L 165.957986 224.174283 
L 161.94159 223.699033 
L 158.602293 223.497184 
L 141.165125 223.216568 
L 138.106445 223.209877 
L 134.881896 223.382436 
L 126.188872 223.755079 
L 118.702051 224.588638 
L 114.2713 225.05791 
L 108.485865 225.943322 
L 102.353727 226.74925 
L 97.89546 227.617193 
L 90.436155 229.09842 
L 78.798813 231.795229 
L 78.518582 231.853431 
L 78.342771 231.899649 
L 77.677832 232.07546 
L 66.60101 232.07546 
L 54.683437 232.07546 
L 43.78267 232.07546 
L 52.239768 229.63179 
L 54.683437 228.882133 
L 59.01491 227.743987 
L 66.60101 225.616508 
L 70.918166 224.475043 
L 78.518582 222.477022 
L 90.306936 220.028668 
L 90.436155 220.002457 
L 90.623446 219.970596 
L 102.353727 217.686924 
L 110.703016 216.589603 
L 114.2713 216.123875 
L 118.723037 215.706151 
L 126.188872 214.874928 
L 132.550771 214.602213 
L 138.106445 214.296626 
L 144.064338 214.199994 
L 156.193092 214.40939 
L 161.94159 214.541727 
L 167.23247 214.867007 
L 173.859162 215.408973 
L 182.288138 216.66929 
L 185.776735 217.034306 
L 188.517714 217.416908 
L 200.713087 220.157887 
L 208.056309 221.713458 
L 209.61188 222.206459 
L 211.166927 222.749634 
L 220.668944 225.564591 
L 223.912967 226.871897 
L 227.132939 228.207819 
L 229.851283 229.147241 
L 233.447024 230.772822 
L 236.292192 232.07546 
L 233.447024 232.07546 
L 228.679996 232.07546 
L 223.912967 232.07546 
L 216.762423 232.07546 
L 209.61188 232.07546 
" clip-path="url(#p14503a19d0)" style="fill: #84bcd9"/>
   </g>
   <g id="PathCollection_7">
    <path d="M 42.765865 222.882091 
L 44.879373 222.271395 
L 54.683437 219.263752 
L 63.413061 216.969939 
L 66.60101 216.113545 
L 71.924922 214.833975 
L 78.518582 213.100613 
L 82.543032 212.264765 
L 90.436155 210.66366 
L 101.876545 208.717497 
L 102.353727 208.624599 
L 102.693373 208.57996 
L 105.295642 208.240315 
L 114.2713 207.011514 
L 124.002305 206.053748 
L 128.700522 205.728665 
L 138.106445 205.189436 
L 146.825743 205.042041 
L 150.024017 204.836366 
L 153.279222 204.98511 
L 161.94159 205.192315 
L 171.416418 205.79757 
L 176.07216 206.027317 
L 185.776735 207.082436 
L 193.759571 208.240315 
L 197.212348 208.722274 
L 198.455721 209.001729 
L 209.61188 211.121079 
L 214.422265 212.140579 
L 220.150442 213.887013 
L 223.912967 214.811783 
L 225.854253 215.30467 
L 232.43456 217.626725 
L 233.447024 217.907745 
L 234.255802 218.135942 
L 239.486014 220.157887 
L 242.520223 221.310036 
L 242.981082 221.53882 
L 244.158143 222.119655 
L 253.718925 226.096629 
L 257.282169 228.053193 
L 264.995147 232.07546 
L 257.282169 232.07546 
L 250.131626 232.07546 
L 242.981082 232.07546 
L 238.214053 232.07546 
L 236.292192 232.07546 
L 233.447024 230.772822 
L 229.851283 229.147241 
L 227.132939 228.207819 
L 223.912967 226.871897 
L 220.668944 225.564591 
L 211.166927 222.749634 
L 209.61188 222.206459 
L 208.056309 221.713458 
L 200.713087 220.157887 
L 188.517714 217.416908 
L 185.776735 217.034306 
L 182.288138 216.66929 
L 173.859162 215.408973 
L 167.23247 214.867007 
L 161.94159 214.541727 
L 156.193092 214.40939 
L 144.064338 214.199994 
L 138.106445 214.296626 
L 132.550771 214.602213 
L 126.188872 214.874928 
L 118.723037 215.706151 
L 114.2713 216.123875 
L 110.703016 216.589603 
L 102.353727 217.686924 
L 90.623446 219.970596 
L 90.436155 220.002457 
L 90.306936 220.028668 
L 78.518582 222.477022 
L 70.918166 224.475043 
L 66.60101 225.616508 
L 59.01491 227.743987 
L 54.683437 228.882133 
L 52.239768 229.63179 
L 43.78267 232.07546 
L 42.765865 232.07546 
M 42.765865 78.219376 
L 45.411713 77.413854 
L 54.683437 75.036892 
L 59.186515 73.598936 
L 66.60101 70.845095 
L 68.70694 69.996474 
L 73.650197 68.04912 
L 78.518582 65.884937 
L 84.723001 62.944184 
L 89.357589 60.462416 
L 90.436155 59.887737 
L 92.85861 58.563393 
L 95.216341 57.122865 
L 97.689521 55.695387 
L 98.89212 55.003066 
L 102.353727 52.770718 
L 104.567054 51.371024 
L 105.182771 50.928358 
L 106.270991 50.144906 
L 109.948433 47.68027 
L 111.935191 46.161329 
L 114.2713 44.369892 
L 114.916993 43.906953 
L 115.325178 43.567039 
L 118.169975 41.3943 
L 126.188872 41.3943 
L 133.737779 41.3943 
L 132.323784 42.621283 
L 128.005458 45.798012 
L 127.554184 46.161329 
L 127.280611 46.379677 
L 126.188872 47.12349 
L 122.286674 50.147919 
L 121.123262 50.928358 
L 118.967179 52.372697 
L 116.932189 53.844051 
L 114.2713 55.517094 
L 114.007967 55.695387 
L 111.352484 57.495139 
L 108.412426 59.250677 
L 106.513382 60.462416 
L 104.914393 61.486683 
L 102.353727 62.904388 
L 94.996083 67.053416 
L 90.436155 69.289978 
L 88.965013 69.996474 
L 82.514084 73.192875 
L 78.518582 74.927617 
L 67.315727 78.958758 
L 66.60101 79.246766 
L 66.358767 79.336738 
L 54.683437 83.064991 
L 49.003971 84.521017 
L 42.765865 85.754044 
L 42.765865 79.530532 
" clip-path="url(#p14503a19d0)" style="fill: #aed3e6"/>
   </g>
   <g id="PathCollection_8">
    <path d="M 42.765865 213.207101 
L 52.656599 210.267153 
L 54.683437 209.64537 
L 55.796121 209.352999 
L 59.938118 208.240315 
L 66.60101 206.326344 
L 74.559286 204.281018 
L 84.582008 202.176889 
L 90.436155 200.919837 
L 94.331745 200.218332 
L 112.891664 197.702378 
L 114.2713 197.513501 
L 115.35536 197.406803 
L 131.022593 196.322742 
L 137.593665 195.809963 
L 138.106445 195.783793 
L 138.661691 195.767496 
L 150.024017 195.036808 
L 161.164719 195.545871 
L 161.94159 195.538691 
L 162.718515 195.545817 
L 176.880816 196.322742 
L 185.358392 196.741085 
L 185.776735 196.786569 
L 186.319251 196.865259 
L 206.834006 199.100616 
L 209.61188 199.650355 
L 211.913317 200.158472 
L 220.764797 201.569692 
L 223.912967 202.377925 
L 226.62247 203.0965 
L 230.447129 203.822482 
L 233.447024 204.692148 
L 237.242147 205.810549 
L 239.035093 206.187715 
L 242.981082 207.449601 
L 245.468281 208.240315 
L 249.413039 209.43796 
L 251.33414 210.244505 
L 257.282169 212.242634 
L 263.292636 214.14742 
L 269.199742 216.877098 
L 279.897294 221.377908 
L 281.117314 222.098557 
L 285.006197 224.04677 
L 296.409405 228.700942 
L 303.170177 232.07546 
L 293.034887 232.07546 
L 281.117314 232.07546 
L 269.199742 232.07546 
L 264.995147 232.07546 
L 257.282169 228.053193 
L 253.718925 226.096629 
L 244.158143 222.119655 
L 242.981082 221.53882 
L 242.520223 221.310036 
L 239.486014 220.157887 
L 234.255802 218.135942 
L 233.447024 217.907745 
L 232.43456 217.626725 
L 225.854253 215.30467 
L 223.912967 214.811783 
L 220.150442 213.887013 
L 214.422265 212.140579 
L 209.61188 211.121079 
L 198.455721 209.001729 
L 197.212348 208.722274 
L 193.759571 208.240315 
L 185.776735 207.082436 
L 176.07216 206.027317 
L 171.416418 205.79757 
L 161.94159 205.192315 
L 153.279222 204.98511 
L 150.024017 204.836366 
L 146.825743 205.042041 
L 138.106445 205.189436 
L 128.700522 205.728665 
L 124.002305 206.053748 
L 114.2713 207.011514 
L 105.295642 208.240315 
L 102.693373 208.57996 
L 102.353727 208.624599 
L 101.876545 208.717497 
L 90.436155 210.66366 
L 82.543032 212.264765 
L 78.518582 213.100613 
L 71.924922 214.833975 
L 66.60101 216.113545 
L 63.413061 216.969939 
L 54.683437 219.263752 
L 44.879373 222.271395 
L 42.765865 222.882091 
L 42.765865 220.157887 
M 42.765865 85.754044 
L 49.003971 84.521017 
L 54.683437 83.064991 
L 66.358767 79.336738 
L 66.60101 79.246766 
L 67.315727 78.958758 
L 78.518582 74.927617 
L 82.514084 73.192875 
L 88.965013 69.996474 
L 90.436155 69.289978 
L 94.996083 67.053416 
L 102.353727 62.904388 
L 104.914393 61.486683 
L 106.513382 60.462416 
L 108.412426 59.250677 
L 111.352484 57.495139 
L 114.007967 55.695387 
L 114.2713 55.517094 
L 116.932189 53.844051 
L 118.967179 52.372697 
L 121.123262 50.928358 
L 122.286674 50.147919 
L 126.188872 47.12349 
L 127.280611 46.379677 
L 127.554184 46.161329 
L 128.005458 45.798012 
L 132.323784 42.621283 
L 133.737779 41.3943 
L 138.106445 41.3943 
L 150.024017 41.3943 
L 153.848733 41.3943 
L 153.010739 41.991645 
L 150.024017 43.753327 
L 147.578664 45.672259 
L 146.836636 46.161329 
L 145.430648 47.080003 
L 142.219287 49.367412 
L 139.62339 50.928358 
L 138.106445 51.8353 
L 136.530168 52.996617 
L 135.071 53.918962 
L 132.474728 55.695387 
L 131.050691 56.667751 
L 126.188872 59.524729 
L 125.119276 60.248497 
L 124.757403 60.462416 
L 121.797603 62.218924 
L 115.870825 65.869255 
L 114.2713 66.704597 
L 108.494631 69.996474 
L 104.961312 72.082542 
L 102.353727 73.414457 
L 92.088675 78.208516 
L 90.436155 79.044799 
L 90.061215 79.23058 
L 78.518582 84.242088 
L 74.36065 85.738244 
L 66.60101 88.105015 
L 63.029402 89.06459 
L 56.600614 90.981767 
L 54.683437 91.537954 
L 52.039841 91.708187 
L 42.765865 93.695624 
L 42.765865 89.06459 
M 424.128184 67.293123 
L 422.428938 65.909144 
L 419.615771 63.42448 
L 416.178372 60.462416 
L 415.438096 59.816919 
L 412.210612 56.823451 
L 411.204245 55.896661 
L 411.002156 55.695387 
L 410.70124 55.393513 
L 407.099622 51.950556 
L 406.111538 50.928358 
L 404.659613 49.418159 
L 403.191058 47.96524 
L 401.504308 46.161329 
L 400.293039 44.860582 
L 399.449391 43.946544 
L 399.122246 43.543656 
L 397.210208 41.3943 
L 400.293039 41.3943 
L 412.210612 41.3943 
L 424.128184 41.3943 
L 424.128184 43.777815 
L 424.128184 46.161329 
L 424.128184 48.544844 
L 424.128184 50.928358 
L 424.128184 53.311873 
L 424.128184 55.695387 
L 424.128184 58.078902 
L 424.128184 60.462416 
L 424.128184 65.229445 
M 378.164965 232.07546 
L 384.810689 228.510682 
L 399.176652 220.157887 
L 399.89002 219.754868 
L 400.293039 219.511217 
L 401.920988 218.529938 
L 414.754349 210.784052 
L 419.151982 208.240315 
L 424.128184 205.233265 
L 424.128184 208.240315 
L 424.128184 220.157887 
L 424.128184 232.07546 
L 412.210612 232.07546 
L 400.293039 232.07546 
L 388.375467 232.07546 
" clip-path="url(#p14503a19d0)" style="fill: #d4e6f1"/>
   </g>
   <g id="PathCollection_9">
    <path d="M 42.765865 203.101529 
L 47.90405 201.460927 
L 54.683437 198.665016 
L 66.309548 196.031281 
L 66.60101 195.947193 
L 67.093688 195.830064 
L 85.432788 191.319375 
L 90.436155 190.414405 
L 97.342759 189.416139 
L 106.016879 188.068321 
L 114.2713 187.199493 
L 124.162813 186.431229 
L 127.92161 186.137908 
L 138.106445 185.618113 
L 149.134751 185.294436 
L 150.024017 185.237249 
L 150.895938 185.277091 
L 161.94159 185.175005 
L 172.988017 185.276315 
L 174.831435 185.377443 
L 185.776735 185.693044 
L 195.936869 186.162608 
L 199.936164 186.647027 
L 209.61188 187.330268 
L 214.749 187.760875 
L 219.248631 188.54885 
L 223.912967 189.02284 
L 226.712721 189.323355 
L 231.00571 190.219455 
L 233.447024 190.512751 
L 235.660368 190.789384 
L 241.290777 192.096979 
L 242.981082 192.32971 
L 245.19344 192.635479 
L 256.858204 195.616134 
L 257.282169 195.681775 
L 257.842104 195.762807 
L 269.199742 198.177182 
L 277.003488 200.436569 
L 281.117314 201.94605 
L 289.140124 204.345552 
L 295.717915 205.557287 
L 304.952459 208.064036 
L 305.935898 208.240315 
L 311.530678 209.194189 
L 312.869216 209.517336 
L 319.253546 210.256088 
L 323.136614 210.450219 
L 324.989491 210.662604 
L 328.787604 210.655681 
L 332.676214 210.436364 
L 334.428084 210.423941 
L 338.321662 209.9699 
L 345.199275 208.6952 
L 345.696103 208.613478 
L 347.025826 208.240315 
L 352.622749 206.588694 
L 359.9867 203.686693 
L 374.081362 196.322742 
L 375.623017 195.487866 
L 376.457894 194.93716 
L 381.155609 191.625028 
L 388.375467 186.438841 
L 389.632348 185.662051 
L 391.369666 184.40517 
L 400.293039 176.474158 
L 402.440775 174.635334 
L 412.210612 163.685689 
L 414.037614 162.397028 
L 415.96086 160.570025 
L 418.539204 156.77287 
L 421.362173 151.759875 
L 423.56496 146.268938 
L 424.128184 142.285882 
L 424.128184 146.268938 
L 424.128184 153.419482 
L 424.128184 160.570025 
L 424.128184 172.487597 
L 424.128184 184.40517 
L 424.128184 196.322742 
L 424.128184 205.233265 
L 419.151982 208.240315 
L 414.754349 210.784052 
L 401.920988 218.529938 
L 400.293039 219.511217 
L 399.89002 219.754868 
L 399.176652 220.157887 
L 384.810689 228.510682 
L 378.164965 232.07546 
L 376.457894 232.07546 
L 364.540322 232.07546 
L 352.622749 232.07546 
L 345.472206 232.07546 
L 338.321662 232.07546 
L 333.554633 232.07546 
L 328.787604 232.07546 
L 324.020575 232.07546 
L 319.253546 232.07546 
L 312.103003 232.07546 
L 304.952459 232.07546 
L 303.170177 232.07546 
L 296.409405 228.700942 
L 285.006197 224.04677 
L 281.117314 222.098557 
L 279.897294 221.377908 
L 269.199742 216.877098 
L 263.292636 214.14742 
L 257.282169 212.242634 
L 251.33414 210.244505 
L 249.413039 209.43796 
L 245.468281 208.240315 
L 242.981082 207.449601 
L 239.035093 206.187715 
L 237.242147 205.810549 
L 233.447024 204.692148 
L 230.447129 203.822482 
L 226.62247 203.0965 
L 223.912967 202.377925 
L 220.764797 201.569692 
L 211.913317 200.158472 
L 209.61188 199.650355 
L 206.834006 199.100616 
L 186.319251 196.865259 
L 185.776735 196.786569 
L 185.358392 196.741085 
L 176.880816 196.322742 
L 162.718515 195.545817 
L 161.94159 195.538691 
L 161.164719 195.545871 
L 150.024017 195.036808 
L 138.661691 195.767496 
L 138.106445 195.783793 
L 137.593665 195.809963 
L 131.022593 196.322742 
L 115.35536 197.406803 
L 114.2713 197.513501 
L 112.891664 197.702378 
L 94.331745 200.218332 
L 90.436155 200.919837 
L 84.582008 202.176889 
L 74.559286 204.281018 
L 66.60101 206.326344 
L 59.938118 208.240315 
L 55.796121 209.352999 
L 54.683437 209.64537 
L 52.656599 210.267153 
L 42.765865 213.207101 
L 42.765865 208.240315 
M 42.765865 93.695624 
L 52.039841 91.708187 
L 54.683437 91.537954 
L 56.600614 90.981767 
L 63.029402 89.06459 
L 66.60101 88.105015 
L 74.36065 85.738244 
L 78.518582 84.242088 
L 90.061215 79.23058 
L 90.436155 79.044799 
L 92.088675 78.208516 
L 102.353727 73.414457 
L 104.961312 72.082542 
L 108.494631 69.996474 
L 114.2713 66.704597 
L 115.870825 65.869255 
L 121.797603 62.218924 
L 124.757403 60.462416 
L 125.119276 60.248497 
L 126.188872 59.524729 
L 131.050691 56.667751 
L 132.474728 55.695387 
L 135.071 53.918962 
L 136.530168 52.996617 
L 138.106445 51.8353 
L 139.62339 50.928358 
L 142.219287 49.367412 
L 145.430648 47.080003 
L 146.836636 46.161329 
L 147.578664 45.672259 
L 150.024017 43.753327 
L 153.010739 41.991645 
L 153.848733 41.3943 
L 161.94159 41.3943 
L 173.859162 41.3943 
L 185.776735 41.3943 
L 197.694307 41.3943 
L 209.61188 41.3943 
L 216.762423 41.3943 
L 223.912967 41.3943 
L 228.679996 41.3943 
L 233.447024 41.3943 
L 233.447024 43.777815 
L 233.447024 46.161329 
L 233.447024 48.544844 
L 228.679996 50.42971 
L 227.909962 50.543342 
L 223.912967 49.311699 
L 223.19421 48.784429 
L 216.762423 47.894812 
L 213.763897 47.160838 
L 209.61188 46.93385 
L 198.169541 46.256376 
L 197.694307 46.206993 
L 197.405177 46.219155 
L 185.776735 47.051913 
L 182.69974 47.929445 
L 173.859162 49.782492 
L 172.068192 50.570164 
L 171.053834 50.928358 
L 167.302338 52.239723 
L 163.541152 53.631785 
L 161.94159 54.106165 
L 158.798311 55.695387 
L 156.300645 56.950713 
L 150.024017 59.580215 
L 148.90878 60.239369 
L 148.466641 60.462416 
L 142.51586 63.465679 
L 138.672463 65.455852 
L 138.106445 65.695765 
L 130.280597 69.996474 
L 127.889827 71.357238 
L 126.188872 72.177805 
L 118.890579 75.835109 
L 114.2713 78.334458 
L 113.411062 78.842342 
L 102.353727 84.490262 
L 98.743443 86.176363 
L 91.507165 89.06459 
L 90.436155 89.550278 
L 82.503892 93.0499 
L 71.336771 96.246402 
L 66.60101 97.849729 
L 64.188137 98.56929 
L 54.683437 101.326675 
L 43.810531 102.026829 
L 42.765865 102.073726 
L 42.765865 100.982163 
M 397.210208 41.3943 
L 399.122246 43.543656 
L 399.449391 43.946544 
L 400.293039 44.860582 
L 401.504308 46.161329 
L 403.191058 47.96524 
L 404.659613 49.418159 
L 406.111538 50.928358 
L 407.099622 51.950556 
L 410.70124 55.393513 
L 411.002156 55.695387 
L 411.204245 55.896661 
L 412.210612 56.823451 
L 415.438096 59.816919 
L 416.178372 60.462416 
L 419.615771 63.42448 
L 422.428938 65.909144 
L 424.128184 67.293123 
L 424.128184 69.996474 
L 424.128184 79.530532 
L 424.128184 89.06459 
L 424.128184 100.982163 
L 424.128184 112.899735 
L 424.128184 120.050279 
L 424.128184 127.200822 
L 424.128184 131.967851 
L 424.128184 136.73488 
L 424.128184 139.653598 
L 423.951381 136.73488 
L 422.835025 132.485115 
L 422.388977 131.272168 
L 420.548716 127.200822 
L 418.137977 123.644403 
L 412.210612 116.411987 
L 410.551841 113.894997 
L 409.751904 112.899735 
L 400.293039 103.578362 
L 398.996031 102.279171 
L 388.375467 93.367797 
L 386.130739 91.309318 
L 383.216206 89.06459 
L 376.457894 83.882566 
L 373.439852 81.944966 
L 364.540322 75.483865 
L 360.138631 73.517827 
L 354.142439 69.996474 
L 352.622749 68.885681 
L 349.328048 67.425913 
L 345.472206 64.646303 
L 340.847793 63.545358 
L 338.321662 61.767248 
L 333.580166 60.487949 
L 333.554633 60.478287 
L 333.52748 60.48957 
L 328.787604 60.462416 
L 328.787604 58.078902 
L 328.787604 55.695387 
L 328.787604 53.311873 
L 328.787604 50.928358 
L 328.787604 48.544844 
L 328.787604 46.161329 
L 328.787604 43.777815 
L 328.787604 41.3943 
L 333.554633 41.3943 
L 338.321662 41.3943 
L 345.472206 41.3943 
L 352.622749 41.3943 
L 364.540322 41.3943 
L 376.457894 41.3943 
L 388.375467 41.3943 
" clip-path="url(#p14503a19d0)" style="fill: #ecf2f5"/>
   </g>
   <g id="PathCollection_10">
    <path d="M 42.765865 192.035725 
L 49.498668 189.58994 
L 54.683437 187.45167 
L 57.167262 186.888994 
L 65.776641 184.40517 
L 66.60101 184.106575 
L 75.549162 181.43575 
L 82.967023 179.956729 
L 90.436155 178.325391 
L 95.406455 177.457897 
L 110.885116 175.873781 
L 114.2713 175.456112 
L 116.992169 175.208467 
L 136.379715 174.214327 
L 138.106445 174.113017 
L 139.678812 174.059964 
L 150.024017 172.61834 
L 160.949666 173.479521 
L 161.94159 173.469071 
L 162.933433 173.47944 
L 185.121201 173.143131 
L 185.776735 173.164716 
L 186.49158 173.202443 
L 197.694307 171.916728 
L 208.939313 173.160164 
L 209.61188 173.215017 
L 210.075247 173.259877 
L 223.328043 173.462469 
L 223.912967 173.531905 
L 224.352747 173.587048 
L 232.905173 173.842227 
L 233.447024 173.918764 
L 234.055242 174.008141 
L 242.23975 174.34093 
L 242.981082 174.46221 
L 244.295348 174.67804 
L 255.609848 175.2748 
L 257.282169 175.586997 
L 261.036732 176.24216 
L 276.55039 177.054522 
L 281.117314 177.912876 
L 287.355802 178.726086 
L 298.951473 178.488584 
L 304.952459 178.918254 
L 308.770088 178.850312 
L 316.186981 177.598539 
L 319.253546 177.287347 
L 321.050055 176.978869 
L 327.807648 174.937489 
L 328.787604 174.697638 
L 329.575828 174.458157 
L 334.19552 172.487597 
L 337.489775 170.407881 
L 338.321662 169.773828 
L 341.617258 166.994938 
L 346.737827 162.679393 
L 348.882676 160.570025 
L 352.622749 153.894075 
L 352.806296 153.52961 
L 352.899821 153.253239 
L 354.25234 146.268938 
L 353.929588 142.024644 
L 353.809394 141.027251 
L 352.622749 137.019492 
L 352.52969 136.73488 
L 350.617731 133.30453 
L 345.832076 127.440736 
L 345.630926 127.200822 
L 345.547806 127.125222 
L 345.032204 126.76082 
L 338.321662 121.953238 
L 337.440002 121.37277 
L 334.994179 120.050279 
L 330.225532 117.893387 
L 328.787604 117.392015 
L 326.522445 116.65254 
L 322.494549 115.188775 
L 319.253546 114.266156 
L 314.205741 112.899735 
L 312.36226 112.46764 
L 311.795875 112.387856 
L 304.952459 110.961114 
L 296.730796 109.203826 
L 287.950739 107.815587 
L 281.117314 106.328243 
L 276.889022 105.210455 
L 259.757191 100.982163 
L 257.719632 100.544701 
L 257.282169 100.471977 
L 256.926949 100.390128 
L 245.55972 96.684434 
L 242.981082 95.951572 
L 240.632289 95.11018 
L 236.497515 93.355936 
L 233.447024 92.105682 
L 229.056975 90.007038 
L 228.428058 89.694435 
L 227.239292 89.06459 
L 223.912967 87.371003 
L 219.758957 85.069212 
L 210.021103 79.530532 
L 209.741789 79.35732 
L 209.61188 79.284603 
L 208.864089 78.9323 
L 197.694307 73.388629 
L 194.726804 72.370477 
L 185.776735 70.18348 
L 181.040231 69.996474 
L 174.510356 69.735997 
L 173.859162 69.742058 
L 173.452033 69.833623 
L 172.406351 69.996474 
L 161.94159 71.668342 
L 155.151973 74.098839 
L 150.024017 75.565446 
L 138.589109 79.916664 
L 138.106445 80.065576 
L 136.66023 80.687504 
L 126.188872 85.739053 
L 123.632964 87.019864 
L 118.783994 89.06459 
L 114.2713 91.279114 
L 107.98717 94.698033 
L 102.353727 97.823354 
L 90.891378 101.437386 
L 90.436155 101.584242 
L 89.5767 101.841617 
L 73.383762 107.764915 
L 66.60101 109.103427 
L 57.196972 110.386201 
L 54.683437 111.115396 
L 53.007048 111.223346 
L 42.765865 111.683097 
L 42.765865 102.073726 
L 43.810531 102.026829 
L 54.683437 101.326675 
L 64.188137 98.56929 
L 66.60101 97.849729 
L 71.336771 96.246402 
L 82.503892 93.0499 
L 90.436155 89.550278 
L 91.507165 89.06459 
L 98.743443 86.176363 
L 102.353727 84.490262 
L 113.411062 78.842342 
L 114.2713 78.334458 
L 118.890579 75.835109 
L 126.188872 72.177805 
L 127.889827 71.357238 
L 130.280597 69.996474 
L 138.106445 65.695765 
L 138.672463 65.455852 
L 142.51586 63.465679 
L 148.466641 60.462416 
L 148.90878 60.239369 
L 150.024017 59.580215 
L 156.300645 56.950713 
L 158.798311 55.695387 
L 161.94159 54.106165 
L 163.541152 53.631785 
L 167.302338 52.239723 
L 171.053834 50.928358 
L 172.068192 50.570164 
L 173.859162 49.782492 
L 182.69974 47.929445 
L 185.776735 47.051913 
L 197.405177 46.219155 
L 197.694307 46.206993 
L 198.169541 46.256376 
L 209.61188 46.93385 
L 213.763897 47.160838 
L 216.762423 47.894812 
L 223.19421 48.784429 
L 223.912967 49.311699 
L 227.909962 50.543342 
L 228.679996 50.42971 
L 233.447024 48.544844 
L 233.447024 46.161329 
L 233.447024 43.777815 
L 233.447024 41.3943 
L 238.214053 41.3943 
L 242.981082 41.3943 
L 250.131626 41.3943 
L 257.282169 41.3943 
L 269.199742 41.3943 
L 281.117314 41.3943 
L 293.034887 41.3943 
L 304.952459 41.3943 
L 312.103003 41.3943 
L 319.253546 41.3943 
L 324.020575 41.3943 
L 328.787604 41.3943 
L 328.787604 43.777815 
L 328.787604 46.161329 
L 328.787604 48.544844 
L 328.787604 50.928358 
L 328.787604 53.311873 
L 328.787604 55.695387 
L 328.787604 58.078902 
L 328.787604 60.462416 
L 333.52748 60.48957 
L 333.554633 60.478287 
L 333.580166 60.487949 
L 338.321662 61.767248 
L 340.847793 63.545358 
L 345.472206 64.646303 
L 349.328048 67.425913 
L 352.622749 68.885681 
L 354.142439 69.996474 
L 360.138631 73.517827 
L 364.540322 75.483865 
L 373.439852 81.944966 
L 376.457894 83.882566 
L 383.216206 89.06459 
L 386.130739 91.309318 
L 388.375467 93.367797 
L 398.996031 102.279171 
L 400.293039 103.578362 
L 409.751904 112.899735 
L 410.551841 113.894997 
L 412.210612 116.411987 
L 418.137977 123.644403 
L 420.548716 127.200822 
L 422.388977 131.272168 
L 422.835025 132.485115 
L 423.951381 136.73488 
L 424.128184 139.653598 
L 424.128184 141.501909 
L 424.128184 142.285882 
L 423.56496 146.268938 
L 421.362173 151.759875 
L 418.539204 156.77287 
L 415.96086 160.570025 
L 414.037614 162.397028 
L 412.210612 163.685689 
L 402.440775 174.635334 
L 400.293039 176.474158 
L 391.369666 184.40517 
L 389.632348 185.662051 
L 388.375467 186.438841 
L 381.155609 191.625028 
L 376.457894 194.93716 
L 375.623017 195.487866 
L 374.081362 196.322742 
L 359.9867 203.686693 
L 352.622749 206.588694 
L 347.025826 208.240315 
L 345.696103 208.613478 
L 345.199275 208.6952 
L 338.321662 209.9699 
L 334.428084 210.423941 
L 332.676214 210.436364 
L 328.787604 210.655681 
L 324.989491 210.662604 
L 323.136614 210.450219 
L 319.253546 210.256088 
L 312.869216 209.517336 
L 311.530678 209.194189 
L 305.935898 208.240315 
L 304.952459 208.064036 
L 295.717915 205.557287 
L 289.140124 204.345552 
L 281.117314 201.94605 
L 277.003488 200.436569 
L 269.199742 198.177182 
L 257.842104 195.762807 
L 257.282169 195.681775 
L 256.858204 195.616134 
L 245.19344 192.635479 
L 242.981082 192.32971 
L 241.290777 192.096979 
L 235.660368 190.789384 
L 233.447024 190.512751 
L 231.00571 190.219455 
L 226.712721 189.323355 
L 223.912967 189.02284 
L 219.248631 188.54885 
L 214.749 187.760875 
L 209.61188 187.330268 
L 199.936164 186.647027 
L 195.936869 186.162608 
L 185.776735 185.693044 
L 174.831435 185.377443 
L 172.988017 185.276315 
L 161.94159 185.175005 
L 150.895938 185.277091 
L 150.024017 185.237249 
L 149.134751 185.294436 
L 138.106445 185.618113 
L 127.92161 186.137908 
L 124.162813 186.431229 
L 114.2713 187.199493 
L 106.016879 188.068321 
L 97.342759 189.416139 
L 90.436155 190.414405 
L 85.432788 191.319375 
L 67.093688 195.830064 
L 66.60101 195.947193 
L 66.309548 196.031281 
L 54.683437 198.665016 
L 47.90405 201.460927 
L 42.765865 203.101529 
L 42.765865 196.322742 
" clip-path="url(#p14503a19d0)" style="fill: #f9eee7"/>
   </g>
   <g id="PathCollection_11">
    <path d="M 42.765865 178.498719 
L 46.842272 176.564005 
L 54.683437 170.707598 
L 63.209978 169.096565 
L 66.60101 167.798509 
L 72.966287 166.122321 
L 81.492879 163.544321 
L 90.436155 162.270032 
L 101.656484 161.267269 
L 102.879417 161.095715 
L 114.2034 160.570025 
L 114.2713 160.565695 
L 125.412187 160.104014 
L 126.188872 160.037488 
L 126.955968 160.109768 
L 138.106445 159.774089 
L 148.0964 159.413455 
L 150.024017 159.217254 
L 152.186927 159.272279 
L 161.94159 158.813294 
L 170.073919 158.298879 
L 173.859162 157.664622 
L 179.132093 157.406267 
L 185.776735 156.849971 
L 190.71553 156.382759 
L 197.694307 154.594884 
L 209.479708 153.340179 
L 209.61188 153.295976 
L 209.800043 153.231318 
L 216.762423 150.496309 
L 220.72007 150.226585 
L 223.912967 148.897851 
L 228.046429 147.219287 
L 229.098086 146.896073 
L 230.4486 146.268938 
L 233.447024 143.970343 
L 234.877887 142.932772 
L 238.114968 136.833965 
L 238.160001 136.73488 
L 238.156189 136.677016 
L 237.516938 131.967851 
L 235.865326 129.549549 
L 234.64734 127.200822 
L 233.447024 126.028417 
L 231.086316 123.591341 
L 228.247038 120.050279 
L 225.356883 117.884404 
L 223.912967 116.624889 
L 219.796676 112.899735 
L 217.591576 111.517813 
L 214.675289 109.421179 
L 209.61188 105.952047 
L 206.592721 104.001321 
L 201.749494 100.982163 
L 191.288482 95.470416 
L 185.776735 93.156876 
L 175.846932 91.05236 
L 172.440276 90.483476 
L 161.94159 90.73474 
L 153.709028 92.749601 
L 150.024017 93.963192 
L 144.16776 94.920847 
L 138.106445 97.142795 
L 135.565434 98.441151 
L 126.188872 103.593856 
L 119.236075 105.946938 
L 114.2713 107.768498 
L 102.702096 112.551366 
L 102.353727 112.744634 
L 102.235807 112.781814 
L 101.870277 112.899735 
L 90.436155 117.842133 
L 88.230754 118.727038 
L 78.518582 122.449149 
L 72.099955 123.349646 
L 66.60101 124.046245 
L 59.741052 124.166253 
L 54.683437 124.958881 
L 50.308195 124.575676 
L 42.765865 123.818892 
L 42.765865 120.050279 
L 42.765865 112.899735 
L 42.765865 111.683097 
L 53.007048 111.223346 
L 54.683437 111.115396 
L 57.196972 110.386201 
L 66.60101 109.103427 
L 73.383762 107.764915 
L 89.5767 101.841617 
L 90.436155 101.584242 
L 90.891378 101.437386 
L 102.353727 97.823354 
L 107.98717 94.698033 
L 114.2713 91.279114 
L 118.783994 89.06459 
L 123.632964 87.019864 
L 126.188872 85.739053 
L 136.66023 80.687504 
L 138.106445 80.065576 
L 138.589109 79.916664 
L 150.024017 75.565446 
L 155.151973 74.098839 
L 161.94159 71.668342 
L 172.406351 69.996474 
L 173.452033 69.833623 
L 173.859162 69.742058 
L 174.510356 69.735997 
L 181.040231 69.996474 
L 185.776735 70.18348 
L 194.726804 72.370477 
L 197.694307 73.388629 
L 208.864089 78.9323 
L 209.61188 79.284603 
L 209.741789 79.35732 
L 210.021103 79.530532 
L 219.758957 85.069212 
L 223.912967 87.371003 
L 227.239292 89.06459 
L 228.428058 89.694435 
L 229.056975 90.007038 
L 233.447024 92.105682 
L 236.497515 93.355936 
L 240.632289 95.11018 
L 242.981082 95.951572 
L 245.55972 96.684434 
L 256.926949 100.390128 
L 257.282169 100.471977 
L 257.719632 100.544701 
L 259.757191 100.982163 
L 276.889022 105.210455 
L 281.117314 106.328243 
L 287.950739 107.815587 
L 296.730796 109.203826 
L 304.952459 110.961114 
L 311.795875 112.387856 
L 312.36226 112.46764 
L 314.205741 112.899735 
L 319.253546 114.266156 
L 322.494549 115.188775 
L 326.522445 116.65254 
L 328.787604 117.392015 
L 330.225532 117.893387 
L 334.994179 120.050279 
L 337.440002 121.37277 
L 338.321662 121.953238 
L 345.032204 126.76082 
L 345.547806 127.125222 
L 345.630926 127.200822 
L 345.832076 127.440736 
L 350.617731 133.30453 
L 352.52969 136.73488 
L 352.622749 137.019492 
L 353.809394 141.027251 
L 353.929588 142.024644 
L 354.25234 146.268938 
L 352.899821 153.253239 
L 352.806296 153.52961 
L 352.622749 153.894075 
L 348.882676 160.570025 
L 346.737827 162.679393 
L 341.617258 166.994938 
L 338.321662 169.773828 
L 337.489775 170.407881 
L 334.19552 172.487597 
L 329.575828 174.458157 
L 328.787604 174.697638 
L 327.807648 174.937489 
L 321.050055 176.978869 
L 319.253546 177.287347 
L 316.186981 177.598539 
L 308.770088 178.850312 
L 304.952459 178.918254 
L 298.951473 178.488584 
L 287.355802 178.726086 
L 281.117314 177.912876 
L 276.55039 177.054522 
L 261.036732 176.24216 
L 257.282169 175.586997 
L 255.609848 175.2748 
L 244.295348 174.67804 
L 242.981082 174.46221 
L 242.23975 174.34093 
L 234.055242 174.008141 
L 233.447024 173.918764 
L 232.905173 173.842227 
L 224.352747 173.587048 
L 223.912967 173.531905 
L 223.328043 173.462469 
L 210.075247 173.259877 
L 209.61188 173.215017 
L 208.939313 173.160164 
L 197.694307 171.916728 
L 186.49158 173.202443 
L 185.776735 173.164716 
L 185.121201 173.143131 
L 162.933433 173.47944 
L 161.94159 173.469071 
L 160.949666 173.479521 
L 150.024017 172.61834 
L 139.678812 174.059964 
L 138.106445 174.113017 
L 136.379715 174.214327 
L 116.992169 175.208467 
L 114.2713 175.456112 
L 110.885116 175.873781 
L 95.406455 177.457897 
L 90.436155 178.325391 
L 82.967023 179.956729 
L 75.549162 181.43575 
L 66.60101 184.106575 
L 65.776641 184.40517 
L 57.167262 186.888994 
L 54.683437 187.45167 
L 49.498668 189.58994 
L 42.765865 192.035725 
L 42.765865 184.40517 
" clip-path="url(#p14503a19d0)" style="fill: #fddcc9"/>
   </g>
   <g id="PathCollection_12">
    <path d="M 42.765865 123.818892 
L 50.308195 124.575676 
L 54.683437 124.958881 
L 59.741052 124.166253 
L 66.60101 124.046245 
L 72.099955 123.349646 
L 78.518582 122.449149 
L 88.230754 118.727038 
L 90.436155 117.842133 
L 101.870277 112.899735 
L 102.235807 112.781814 
L 102.353727 112.744634 
L 102.702096 112.551366 
L 114.2713 107.768498 
L 119.236075 105.946938 
L 126.188872 103.593856 
L 135.565434 98.441151 
L 138.106445 97.142795 
L 144.16776 94.920847 
L 150.024017 93.963192 
L 153.709028 92.749601 
L 161.94159 90.73474 
L 172.440276 90.483476 
L 175.846932 91.05236 
L 185.776735 93.156876 
L 191.288482 95.470416 
L 201.749494 100.982163 
L 206.592721 104.001321 
L 209.61188 105.952047 
L 214.675289 109.421179 
L 217.591576 111.517813 
L 219.796676 112.899735 
L 223.912967 116.624889 
L 225.356883 117.884404 
L 228.247038 120.050279 
L 231.086316 123.591341 
L 233.447024 126.028417 
L 234.64734 127.200822 
L 235.865326 129.549549 
L 237.516938 131.967851 
L 238.156189 136.677016 
L 238.160001 136.73488 
L 238.114968 136.833965 
L 234.877887 142.932772 
L 233.447024 143.970343 
L 230.4486 146.268938 
L 229.098086 146.896073 
L 228.046429 147.219287 
L 223.912967 148.897851 
L 220.72007 150.226585 
L 216.762423 150.496309 
L 209.800043 153.231318 
L 209.61188 153.295976 
L 209.479708 153.340179 
L 197.694307 154.594884 
L 190.71553 156.382759 
L 185.776735 156.849971 
L 179.132093 157.406267 
L 173.859162 157.664622 
L 170.073919 158.298879 
L 161.94159 158.813294 
L 152.186927 159.272279 
L 150.024017 159.217254 
L 148.0964 159.413455 
L 138.106445 159.774089 
L 126.955968 160.109768 
L 126.188872 160.037488 
L 125.412187 160.104014 
L 114.2713 160.565695 
L 114.2034 160.570025 
L 102.879417 161.095715 
L 101.656484 161.267269 
L 90.436155 162.270032 
L 81.492879 163.544321 
L 72.966287 166.122321 
L 66.60101 167.798509 
L 63.209978 169.096565 
L 54.683437 170.707598 
L 46.842272 176.564005 
L 42.765865 178.498719 
L 42.765865 172.487597 
L 42.765865 160.570025 
L 42.765865 153.419482 
L 42.765865 146.268938 
L 42.765865 141.501909 
L 42.765865 136.73488 
L 42.765865 131.967851 
L 42.765865 127.200822 
" clip-path="url(#p14503a19d0)" style="fill: #f8bb9e"/>
   </g>
   <g id="PathCollection_13">
    <path clip-path="url(#p14503a19d0)" style="fill: #ee9677"/>
   </g>
   <g id="PathCollection_14">
    <path clip-path="url(#p14503a19d0)" style="fill: #db6b55"/>
   </g>
   <g id="PathCollection_15">
    <path clip-path="url(#p14503a19d0)" style="fill: #c53e3d"/>
   </g>
   <g id="PathCollection_16">
    <path clip-path="url(#p14503a19d0)" style="fill: #ab162a"/>
   </g>
   <g id="PathCollection_17">
    <path clip-path="url(#p14503a19d0)" style="fill: #7c0722"/>
   </g>
   <g id="PathCollection_18">
    <path clip-path="url(#p14503a19d0)" style="fill: #67001f"/>
   </g>
   <g id="PolyCollection_1">
    <path d="M 233.447024 60.462416 
L 233.447024 41.3943 
L 328.787604 41.3943 
L 328.787604 60.462416 
L 328.787604 60.462416 
L 233.447024 60.462416 
z
" clip-path="url(#p14503a19d0)" style="fill: url(#h5f4fdad40d); fill-opacity: 0.3; stroke: #333333; stroke-opacity: 0.3"/>
   </g>
   <g id="PathCollection_19">
    <defs>
     <path id="mdb553ec2de" d="M -0 4.1833 
L 4.1833 0 
L 0 -4.1833 
L -4.1833 -0 
z
" style="stroke: #111827"/>
    </defs>
    <g clip-path="url(#p14503a19d0)">
     <use xlink:href="#mdb553ec2de" x="233.447024" y="136.73488" style="fill: #34d399; stroke: #111827"/>
    </g>
   </g>
   <g id="matplotlib.axis_1">
    <g id="xtick_1">
     <g id="line2d_1">
      <defs>
       <path id="mf716d3c3bb" d="M 0 0 
L 0 3.5 
" style="stroke: #000000; stroke-width: 0.8"/>
      </defs>
      <g>
       <use xlink:href="#mf716d3c3bb" x="42.765865" y="232.07546" style="stroke: #000000; stroke-width: 0.8"/>
      </g>
     </g>
     <g id="text_1">
      <!-- 0 -->
      <g transform="translate(39.584615 246.673897) scale(0.1 -0.1)">
       <defs>
        <path id="DejaVuSans-30" d="M 2034 4250 
Q 1547 4250 1301 3770 
Q 1056 3291 1056 2328 
Q 1056 1369 1301 889 
Q 1547 409 2034 409 
Q 2525 409 2770 889 
Q 3016 1369 3016 2328 
Q 3016 3291 2770 3770 
Q 2525 4250 2034 4250 
z
M 2034 4750 
Q 2819 4750 3233 4129 
Q 3647 3509 3647 2328 
Q 3647 1150 3233 529 
Q 2819 -91 2034 -91 
Q 1250 -91 836 529 
Q 422 1150 422 2328 
Q 422 3509 836 4129 
Q 1250 4750 2034 4750 
z
" transform="scale(0.015625)"/>
       </defs>
       <use xlink:href="#DejaVuSans-30"/>
      </g>
     </g>
    </g>
    <g id="xtick_2">
     <g id="line2d_2">
      <g>
       <use xlink:href="#mf716d3c3bb" x="90.436155" y="232.07546" style="stroke: #000000; stroke-width: 0.8"/>
      </g>
     </g>
     <g id="text_2">
      <!-- 50 -->
      <g transform="translate(84.073655 246.673897) scale(0.1 -0.1)">
       <defs>
        <path id="DejaVuSans-35" d="M 691 4666 
L 3169 4666 
L 3169 4134 
L 1269 4134 
L 1269 2991 
Q 1406 3038 1543 3061 
Q 1681 3084 1819 3084 
Q 2600 3084 3056 2656 
Q 3513 2228 3513 1497 
Q 3513 744 3044 326 
Q 2575 -91 1722 -91 
Q 1428 -91 1123 -41 
Q 819 9 494 109 
L 494 744 
Q 775 591 1075 516 
Q 1375 441 1709 441 
Q 2250 441 2565 725 
Q 2881 1009 2881 1497 
Q 2881 1984 2565 2268 
Q 2250 2553 1709 2553 
Q 1456 2553 1204 2497 
Q 953 2441 691 2322 
L 691 4666 
z
" transform="scale(0.015625)"/>
       </defs>
       <use xlink:href="#DejaVuSans-35"/>
       <use xlink:href="#DejaVuSans-30" x="63.623047"/>
      </g>
     </g>
    </g>
    <g id="xtick_3">
     <g id="line2d_3">
      <g>
       <use xlink:href="#mf716d3c3bb" x="138.106445" y="232.07546" style="stroke: #000000; stroke-width: 0.8"/>
      </g>
     </g>
     <g id="text_3">
      <!-- 100 -->
      <g transform="translate(128.562695 246.673897) scale(0.1 -0.1)">
       <defs>
        <path id="DejaVuSans-31" d="M 794 531 
L 1825 531 
L 1825 4091 
L 703 3866 
L 703 4441 
L 1819 4666 
L 2450 4666 
L 2450 531 
L 3481 531 
L 3481 0 
L 794 0 
L 794 531 
z
" transform="scale(0.015625)"/>
       </defs>
       <use xlink:href="#DejaVuSans-31"/>
       <use xlink:href="#DejaVuSans-30" x="63.623047"/>
       <use xlink:href="#DejaVuSans-30" x="127.246094"/>
      </g>
     </g>
    </g>
    <g id="xtick_4">
     <g id="line2d_4">
      <g>
       <use xlink:href="#mf716d3c3bb" x="185.776735" y="232.07546" style="stroke: #000000; stroke-width: 0.8"/>
      </g>
     </g>
     <g id="text_4">
      <!-- 150 -->
      <g transform="translate(176.232985 246.673897) scale(0.1 -0.1)">
       <use xlink:href="#DejaVuSans-31"/>
       <use xlink:href="#DejaVuSans-35" x="63.623047"/>
       <use xlink:href="#DejaVuSans-30" x="127.246094"/>
      </g>
     </g>
    </g>
    <g id="xtick_5">
     <g id="line2d_5">
      <g>
       <use xlink:href="#mf716d3c3bb" x="233.447024" y="232.07546" style="stroke: #000000; stroke-width: 0.8"/>
      </g>
     </g>
     <g id="text_5">
      <!-- 200 -->
      <g transform="translate(223.903274 246.673897) scale(0.1 -0.1)">
       <defs>
        <path id="DejaVuSans-32" d="M 1228 531 
L 3431 531 
L 3431 0 
L 469 0 
L 469 531 
Q 828 903 1448 1529 
Q 2069 2156 2228 2338 
Q 2531 2678 2651 2914 
Q 2772 3150 2772 3378 
Q 2772 3750 2511 3984 
Q 2250 4219 1831 4219 
Q 1534 4219 1204 4116 
Q 875 4013 500 3803 
L 500 4441 
Q 881 4594 1212 4672 
Q 1544 4750 1819 4750 
Q 2544 4750 2975 4387 
Q 3406 4025 3406 3419 
Q 3406 3131 3298 2873 
Q 3191 2616 2906 2266 
Q 2828 2175 2409 1742 
Q 1991 1309 1228 531 
z
" transform="scale(0.015625)"/>
       </defs>
       <use xlink:href="#DejaVuSans-32"/>
       <use xlink:href="#DejaVuSans-30" x="63.623047"/>
       <use xlink:href="#DejaVuSans-30" x="127.246094"/>
      </g>
     </g>
    </g>
    <g id="xtick_6">
     <g id="line2d_6">
      <g>
       <use xlink:href="#mf716d3c3bb" x="281.117314" y="232.07546" style="stroke: #000000; stroke-width: 0.8"/>
      </g>
     </g>
     <g id="text_6">
      <!-- 250 -->
      <g transform="translate(271.573564 246.673897) scale(0.1 -0.1)">
       <use xlink:href="#DejaVuSans-32"/>
       <use xlink:href="#DejaVuSans-35" x="63.623047"/>
       <use xlink:href="#DejaVuSans-30" x="127.246094"/>
      </g>
     </g>
    </g>
    <g id="xtick_7">
     <g id="line2d_7">
      <g>
       <use xlink:href="#mf716d3c3bb" x="328.787604" y="232.07546" style="stroke: #000000; stroke-width: 0.8"/>
      </g>
     </g>
     <g id="text_7">
      <!-- 300 -->
      <g transform="translate(319.243854 246.673897) scale(0.1 -0.1)">
       <defs>
        <path id="DejaVuSans-33" d="M 2597 2516 
Q 3050 2419 3304 2112 
Q 3559 1806 3559 1356 
Q 3559 666 3084 287 
Q 2609 -91 1734 -91 
Q 1441 -91 1130 -33 
Q 819 25 488 141 
L 488 750 
Q 750 597 1062 519 
Q 1375 441 1716 441 
Q 2309 441 2620 675 
Q 2931 909 2931 1356 
Q 2931 1769 2642 2001 
Q 2353 2234 1838 2234 
L 1294 2234 
L 1294 2753 
L 1863 2753 
Q 2328 2753 2575 2939 
Q 2822 3125 2822 3475 
Q 2822 3834 2567 4026 
Q 2313 4219 1838 4219 
Q 1578 4219 1281 4162 
Q 984 4106 628 3988 
L 628 4550 
Q 988 4650 1302 4700 
Q 1616 4750 1894 4750 
Q 2613 4750 3031 4423 
Q 3450 4097 3450 3541 
Q 3450 3153 3228 2886 
Q 3006 2619 2597 2516 
z
" transform="scale(0.015625)"/>
       </defs>
       <use xlink:href="#DejaVuSans-33"/>
       <use xlink:href="#DejaVuSans-30" x="63.623047"/>
       <use xlink:href="#DejaVuSans-30" x="127.246094"/>
      </g>
     </g>
    </g>
    <g id="xtick_8">
     <g id="line2d_8">
      <g>
       <use xlink:href="#mf716d3c3bb" x="376.457894" y="232.07546" style="stroke: #000000; stroke-width: 0.8"/>
      </g>
     </g>
     <g id="text_8">
      <!-- 350 -->
      <g transform="translate(366.914144 246.673897) scale(0.1 -0.1)">
       <use xlink:href="#DejaVuSans-33"/>
       <use xlink:href="#DejaVuSans-35" x="63.623047"/>
       <use xlink:href="#DejaVuSans-30" x="127.246094"/>
      </g>
     </g>
    </g>
    <g id="xtick_9">
     <g id="line2d_9">
      <g>
       <use xlink:href="#mf716d3c3bb" x="424.128184" y="232.07546" style="stroke: #000000; stroke-width: 0.8"/>
      </g>
     </g>
     <g id="text_9">
      <!-- 400 -->
      <g transform="translate(414.584434 246.673897) scale(0.1 -0.1)">
       <defs>
        <path id="DejaVuSans-34" d="M 2419 4116 
L 825 1625 
L 2419 1625 
L 2419 4116 
z
M 2253 4666 
L 3047 4666 
L 3047 1625 
L 3713 1625 
L 3713 1100 
L 3047 1100 
L 3047 0 
L 2419 0 
L 2419 1100 
L 313 1100 
L 313 1709 
L 2253 4666 
z
" transform="scale(0.015625)"/>
       </defs>
       <use xlink:href="#DejaVuSans-34"/>
       <use xlink:href="#DejaVuSans-30" x="63.623047"/>
       <use xlink:href="#DejaVuSans-30" x="127.246094"/>
      </g>
     </g>
    </g>
    <g id="text_10">
     <!-- x [mm] -->
     <g transform="translate(215.256399 260.352022) scale(0.1 -0.1)">
      <defs>
       <path id="DejaVuSans-78" d="M 3513 3500 
L 2247 1797 
L 3578 0 
L 2900 0 
L 1881 1375 
L 863 0 
L 184 0 
L 1544 1831 
L 300 3500 
L 978 3500 
L 1906 2253 
L 2834 3500 
L 3513 3500 
z
" transform="scale(0.015625)"/>
       <path id="DejaVuSans-20" transform="scale(0.015625)"/>
       <path id="DejaVuSans-5b" d="M 550 4863 
L 1875 4863 
L 1875 4416 
L 1125 4416 
L 1125 -397 
L 1875 -397 
L 1875 -844 
L 550 -844 
L 550 4863 
z
" transform="scale(0.015625)"/>
       <path id="DejaVuSans-6d" d="M 3328 2828 
Q 3544 3216 3844 3400 
Q 4144 3584 4550 3584 
Q 5097 3584 5394 3201 
Q 5691 2819 5691 2113 
L 5691 0 
L 5113 0 
L 5113 2094 
Q 5113 2597 4934 2840 
Q 4756 3084 4391 3084 
Q 3944 3084 3684 2787 
Q 3425 2491 3425 1978 
L 3425 0 
L 2847 0 
L 2847 2094 
Q 2847 2600 2669 2842 
Q 2491 3084 2119 3084 
Q 1678 3084 1418 2786 
Q 1159 2488 1159 1978 
L 1159 0 
L 581 0 
L 581 3500 
L 1159 3500 
L 1159 2956 
Q 1356 3278 1631 3431 
Q 1906 3584 2284 3584 
Q 2666 3584 2933 3390 
Q 3200 3197 3328 2828 
z
" transform="scale(0.015625)"/>
       <path id="DejaVuSans-5d" d="M 1947 4863 
L 1947 -844 
L 622 -844 
L 622 -397 
L 1369 -397 
L 1369 4416 
L 622 4416 
L 622 4863 
L 1947 4863 
z
" transform="scale(0.015625)"/>
      </defs>
      <use xlink:href="#DejaVuSans-78"/>
      <use xlink:href="#DejaVuSans-20" x="59.179688"/>
      <use xlink:href="#DejaVuSans-5b" x="90.966797"/>
      <use xlink:href="#DejaVuSans-6d" x="129.980469"/>
      <use xlink:href="#DejaVuSans-6d" x="227.392578"/>
      <use xlink:href="#DejaVuSans-5d" x="324.804688"/>
     </g>
    </g>
   </g>
   <g id="matplotlib.axis_2">
    <g id="ytick_1">
     <g id="line2d_10">
      <defs>
       <path id="m072ac70574" d="M 0 0 
L -3.5 0 
" style="stroke: #000000; stroke-width: 0.8"/>
      </defs>
      <g>
       <use xlink:href="#m072ac70574" x="42.765865" y="41.3943" style="stroke: #000000; stroke-width: 0.8"/>
      </g>
     </g>
     <g id="text_11">
      <!-- 0 -->
      <g transform="translate(29.403365 45.193519) scale(0.1 -0.1)">
       <use xlink:href="#DejaVuSans-30"/>
      </g>
     </g>
    </g>
    <g id="ytick_2">
     <g id="line2d_11">
      <g>
       <use xlink:href="#m072ac70574" x="42.765865" y="65.229445" style="stroke: #000000; stroke-width: 0.8"/>
      </g>
     </g>
     <g id="text_12">
      <!-- 25 -->
      <g transform="translate(23.040865 69.028664) scale(0.1 -0.1)">
       <use xlink:href="#DejaVuSans-32"/>
       <use xlink:href="#DejaVuSans-35" x="63.623047"/>
      </g>
     </g>
    </g>
    <g id="ytick_3">
     <g id="line2d_12">
      <g>
       <use xlink:href="#m072ac70574" x="42.765865" y="89.06459" style="stroke: #000000; stroke-width: 0.8"/>
      </g>
     </g>
     <g id="text_13">
      <!-- 50 -->
      <g transform="translate(23.040865 92.863809) scale(0.1 -0.1)">
       <use xlink:href="#DejaVuSans-35"/>
       <use xlink:href="#DejaVuSans-30" x="63.623047"/>
      </g>
     </g>
    </g>
    <g id="ytick_4">
     <g id="line2d_13">
      <g>
       <use xlink:href="#m072ac70574" x="42.765865" y="112.899735" style="stroke: #000000; stroke-width: 0.8"/>
      </g>
     </g>
     <g id="text_14">
      <!-- 75 -->
      <g transform="translate(23.040865 116.698954) scale(0.1 -0.1)">
       <defs>
        <path id="DejaVuSans-37" d="M 525 4666 
L 3525 4666 
L 3525 4397 
L 1831 0 
L 1172 0 
L 2766 4134 
L 525 4134 
L 525 4666 
z
" transform="scale(0.015625)"/>
       </defs>
       <use xlink:href="#DejaVuSans-37"/>
       <use xlink:href="#DejaVuSans-35" x="63.623047"/>
      </g>
     </g>
    </g>
    <g id="ytick_5">
     <g id="line2d_14">
      <g>
       <use xlink:href="#m072ac70574" x="42.765865" y="136.73488" style="stroke: #000000; stroke-width: 0.8"/>
      </g>
     </g>
     <g id="text_15">
      <!-- 100 -->
      <g transform="translate(16.678365 140.534099) scale(0.1 -0.1)">
       <use xlink:href="#DejaVuSans-31"/>
       <use xlink:href="#DejaVuSans-30" x="63.623047"/>
       <use xlink:href="#DejaVuSans-30" x="127.246094"/>
      </g>
     </g>
    </g>
    <g id="ytick_6">
     <g id="line2d_15">
      <g>
       <use xlink:href="#m072ac70574" x="42.765865" y="160.570025" style="stroke: #000000; stroke-width: 0.8"/>
      </g>
     </g>
     <g id="text_16">
      <!-- 125 -->
      <g transform="translate(16.678365 164.369244) scale(0.1 -0.1)">
       <use xlink:href="#DejaVuSans-31"/>
       <use xlink:href="#DejaVuSans-32" x="63.623047"/>
       <use xlink:href="#DejaVuSans-35" x="127.246094"/>
      </g>
     </g>
    </g>
    <g id="ytick_7">
     <g id="line2d_16">
      <g>
       <use xlink:href="#m072ac70574" x="42.765865" y="184.40517" style="stroke: #000000; stroke-width: 0.8"/>
      </g>
     </g>
     <g id="text_17">
      <!-- 150 -->
      <g transform="translate(16.678365 188.204389) scale(0.1 -0.1)">
       <use xlink:href="#DejaVuSans-31"/>
       <use xlink:href="#DejaVuSans-35" x="63.623047"/>
       <use xlink:href="#DejaVuSans-30" x="127.246094"/>
      </g>
     </g>
    </g>
    <g id="ytick_8">
     <g id="line2d_17">
      <g>
       <use xlink:href="#m072ac70574" x="42.765865" y="208.240315" style="stroke: #000000; stroke-width: 0.8"/>
      </g>
     </g>
     <g id="text_18">
      <!-- 175 -->
      <g transform="translate(16.678365 212.039534) scale(0.1 -0.1)">
       <use xlink:href="#DejaVuSans-31"/>
       <use xlink:href="#DejaVuSans-37" x="63.623047"/>
       <use xlink:href="#DejaVuSans-35" x="127.246094"/>
      </g>
     </g>
    </g>
    <g id="ytick_9">
     <g id="line2d_18">
      <g>
       <use xlink:href="#m072ac70574" x="42.765865" y="232.07546" style="stroke: #000000; stroke-width: 0.8"/>
      </g>
     </g>
     <g id="text_19">
      <!-- 200 -->
      <g transform="translate(16.678365 235.874679) scale(0.1 -0.1)">
       <use xlink:href="#DejaVuSans-32"/>
       <use xlink:href="#DejaVuSans-30" x="63.623047"/>
       <use xlink:href="#DejaVuSans-30" x="127.246094"/>
      </g>
     </g>
    </g>
    <g id="text_20">
     <!-- y [mm] -->
     <g transform="translate(10.598678 154.925505) rotate(-90) scale(0.1 -0.1)">
      <defs>
       <path id="DejaVuSans-79" d="M 2059 -325 
Q 1816 -950 1584 -1140 
Q 1353 -1331 966 -1331 
L 506 -1331 
L 506 -850 
L 844 -850 
Q 1081 -850 1212 -737 
Q 1344 -625 1503 -206 
L 1606 56 
L 191 3500 
L 800 3500 
L 1894 763 
L 2988 3500 
L 3597 3500 
L 2059 -325 
z
" transform="scale(0.015625)"/>
      </defs>
      <use xlink:href="#DejaVuSans-79"/>
      <use xlink:href="#DejaVuSans-20" x="59.179688"/>
      <use xlink:href="#DejaVuSans-5b" x="90.966797"/>
      <use xlink:href="#DejaVuSans-6d" x="129.980469"/>
      <use xlink:href="#DejaVuSans-6d" x="227.392578"/>
      <use xlink:href="#DejaVuSans-5d" x="324.804688"/>
     </g>
    </g>
   </g>
   <g id="PathCollection_20">
    <path d="M 42.765865 102.073726 
L 43.810531 102.026829 
L 54.683437 101.326675 
L 64.188137 98.56929 
L 66.60101 97.849729 
L 71.336771 96.246402 
L 82.503892 93.0499 
L 90.436155 89.550278 
L 91.507165 89.06459 
L 98.743443 86.176363 
L 102.353727 84.490262 
L 113.411062 78.842342 
L 114.2713 78.334458 
L 118.890579 75.835109 
L 126.188872 72.177805 
L 127.889827 71.357238 
L 130.280597 69.996474 
L 138.106445 65.695765 
L 138.672463 65.455852 
L 142.51586 63.465679 
L 148.466641 60.462416 
L 148.90878 60.239369 
L 150.024017 59.580215 
L 156.300645 56.950713 
L 158.798311 55.695387 
L 161.94159 54.106165 
L 163.541152 53.631785 
L 167.302338 52.239723 
L 171.053834 50.928358 
L 172.068192 50.570164 
L 173.859162 49.782492 
L 182.69974 47.929445 
L 185.776735 47.051913 
L 197.405177 46.219155 
L 197.694307 46.206993 
L 198.169541 46.256376 
L 209.61188 46.93385 
L 213.763897 47.160838 
L 216.762423 47.894812 
L 223.19421 48.784429 
L 223.912967 49.311699 
L 227.909962 50.543342 
L 228.679996 50.42971 
L 233.447024 48.544844 
L 233.447024 46.161329 
L 233.447024 43.777815 
L 233.447024 41.3943 
" clip-path="url(#p14503a19d0)" style="fill: none; stroke: #263238; stroke-width: 0.55"/>
    <path d="M 328.787604 41.3943 
L 328.787604 43.777815 
L 328.787604 46.161329 
L 328.787604 48.544844 
L 328.787604 50.928358 
L 328.787604 53.311873 
L 328.787604 55.695387 
L 328.787604 58.078902 
L 328.787604 60.462416 
L 333.52748 60.48957 
L 333.554633 60.478287 
L 333.580166 60.487949 
L 338.321662 61.767248 
L 340.847793 63.545358 
L 345.472206 64.646303 
L 349.328048 67.425913 
L 352.622749 68.885681 
L 354.142439 69.996474 
L 360.138631 73.517827 
L 364.540322 75.483865 
L 373.439852 81.944966 
L 376.457894 83.882566 
L 383.216206 89.06459 
L 386.130739 91.309318 
L 388.375467 93.367797 
L 398.996031 102.279171 
L 400.293039 103.578362 
L 409.751904 112.899735 
L 410.551841 113.894997 
L 412.210612 116.411987 
L 418.137977 123.644403 
L 420.548716 127.200822 
L 422.388977 131.272168 
L 422.835025 132.485115 
L 423.951381 136.73488 
L 424.128184 139.653598 
" clip-path="url(#p14503a19d0)" style="fill: none; stroke: #263238; stroke-width: 0.55"/>
    <path d="M 424.128184 142.285882 
L 423.56496 146.268938 
L 421.362173 151.759875 
L 418.539204 156.77287 
L 415.96086 160.570025 
L 414.037614 162.397028 
L 412.210612 163.685689 
L 402.440775 174.635334 
L 400.293039 176.474158 
L 391.369666 184.40517 
L 389.632348 185.662051 
L 388.375467 186.438841 
L 381.155609 191.625028 
L 376.457894 194.93716 
L 375.623017 195.487866 
L 374.081362 196.322742 
L 359.9867 203.686693 
L 352.622749 206.588694 
L 347.025826 208.240315 
L 345.696103 208.613478 
L 345.199275 208.6952 
L 338.321662 209.9699 
L 334.428084 210.423941 
L 332.676214 210.436364 
L 328.787604 210.655681 
L 324.989491 210.662604 
L 323.136614 210.450219 
L 319.253546 210.256088 
L 312.869216 209.517336 
L 311.530678 209.194189 
L 305.935898 208.240315 
L 304.952459 208.064036 
L 295.717915 205.557287 
L 289.140124 204.345552 
L 281.117314 201.94605 
L 277.003488 200.436569 
L 269.199742 198.177182 
L 257.842104 195.762807 
L 257.282169 195.681775 
L 256.858204 195.616134 
L 245.19344 192.635479 
L 242.981082 192.32971 
L 241.290777 192.096979 
L 235.660368 190.789384 
L 233.447024 190.512751 
L 231.00571 190.219455 
L 226.712721 189.323355 
L 223.912967 189.02284 
L 219.248631 188.54885 
L 214.749 187.760875 
L 209.61188 187.330268 
L 199.936164 186.647027 
L 195.936869 186.162608 
L 185.776735 185.693044 
L 174.831435 185.377443 
L 172.988017 185.276315 
L 161.94159 185.175005 
L 150.895938 185.277091 
L 150.024017 185.237249 
L 149.134751 185.294436 
L 138.106445 185.618113 
L 127.92161 186.137908 
L 124.162813 186.431229 
L 114.2713 187.199493 
L 106.016879 188.068321 
L 97.342759 189.416139 
L 90.436155 190.414405 
L 85.432788 191.319375 
L 67.093688 195.830064 
L 66.60101 195.947193 
L 66.309548 196.031281 
L 54.683437 198.665016 
L 47.90405 201.460927 
L 42.765865 203.101529 
" clip-path="url(#p14503a19d0)" style="fill: none; stroke: #263238; stroke-width: 0.55"/>
   </g>
   <g id="patch_3">
    <path d="M 42.765865 232.07546 
L 42.765865 41.3943 
" style="fill: none; stroke: #000000; stroke-width: 0.8; stroke-linejoin: miter; stroke-linecap: square"/>
   </g>
   <g id="patch_4">
    <path d="M 424.128184 232.07546 
L 424.128184 41.3943 
" style="fill: none; stroke: #000000; stroke-width: 0.8; stroke-linejoin: miter; stroke-linecap: square"/>
   </g>
   <g id="patch_5">
    <path d="M 42.765865 232.07546 
L 424.128184 232.07546 
" style="fill: none; stroke: #000000; stroke-width: 0.8; stroke-linejoin: miter; stroke-linecap: square"/>
   </g>
   <g id="patch_6">
    <path d="M 42.765865 41.3943 
L 424.128184 41.3943 
" style="fill: none; stroke: #000000; stroke-width: 0.8; stroke-linejoin: miter; stroke-linecap: square"/>
   </g>
   <g id="text_21">
    <!-- CalculiX C3D20R — Mode 7: 95.83 Hz -->
    <g transform="translate(120.469837 35.3943) scale(0.12 -0.12)">
     <defs>
      <path id="DejaVuSans-43" d="M 4122 4306 
L 4122 3641 
Q 3803 3938 3442 4084 
Q 3081 4231 2675 4231 
Q 1875 4231 1450 3742 
Q 1025 3253 1025 2328 
Q 1025 1406 1450 917 
Q 1875 428 2675 428 
Q 3081 428 3442 575 
Q 3803 722 4122 1019 
L 4122 359 
Q 3791 134 3420 21 
Q 3050 -91 2638 -91 
Q 1578 -91 968 557 
Q 359 1206 359 2328 
Q 359 3453 968 4101 
Q 1578 4750 2638 4750 
Q 3056 4750 3426 4639 
Q 3797 4528 4122 4306 
z
" transform="scale(0.015625)"/>
      <path id="DejaVuSans-61" d="M 2194 1759 
Q 1497 1759 1228 1600 
Q 959 1441 959 1056 
Q 959 750 1161 570 
Q 1363 391 1709 391 
Q 2188 391 2477 730 
Q 2766 1069 2766 1631 
L 2766 1759 
L 2194 1759 
z
M 3341 1997 
L 3341 0 
L 2766 0 
L 2766 531 
Q 2569 213 2275 61 
Q 1981 -91 1556 -91 
Q 1019 -91 701 211 
Q 384 513 384 1019 
Q 384 1609 779 1909 
Q 1175 2209 1959 2209 
L 2766 2209 
L 2766 2266 
Q 2766 2663 2505 2880 
Q 2244 3097 1772 3097 
Q 1472 3097 1187 3025 
Q 903 2953 641 2809 
L 641 3341 
Q 956 3463 1253 3523 
Q 1550 3584 1831 3584 
Q 2591 3584 2966 3190 
Q 3341 2797 3341 1997 
z
" transform="scale(0.015625)"/>
      <path id="DejaVuSans-6c" d="M 603 4863 
L 1178 4863 
L 1178 0 
L 603 0 
L 603 4863 
z
" transform="scale(0.015625)"/>
      <path id="DejaVuSans-63" d="M 3122 3366 
L 3122 2828 
Q 2878 2963 2633 3030 
Q 2388 3097 2138 3097 
Q 1578 3097 1268 2742 
Q 959 2388 959 1747 
Q 959 1106 1268 751 
Q 1578 397 2138 397 
Q 2388 397 2633 464 
Q 2878 531 3122 666 
L 3122 134 
Q 2881 22 2623 -34 
Q 2366 -91 2075 -91 
Q 1284 -91 818 406 
Q 353 903 353 1747 
Q 353 2603 823 3093 
Q 1294 3584 2113 3584 
Q 2378 3584 2631 3529 
Q 2884 3475 3122 3366 
z
" transform="scale(0.015625)"/>
      <path id="DejaVuSans-75" d="M 544 1381 
L 544 3500 
L 1119 3500 
L 1119 1403 
Q 1119 906 1312 657 
Q 1506 409 1894 409 
Q 2359 409 2629 706 
Q 2900 1003 2900 1516 
L 2900 3500 
L 3475 3500 
L 3475 0 
L 2900 0 
L 2900 538 
Q 2691 219 2414 64 
Q 2138 -91 1772 -91 
Q 1169 -91 856 284 
Q 544 659 544 1381 
z
M 1991 3584 
L 1991 3584 
z
" transform="scale(0.015625)"/>
      <path id="DejaVuSans-69" d="M 603 3500 
L 1178 3500 
L 1178 0 
L 603 0 
L 603 3500 
z
M 603 4863 
L 1178 4863 
L 1178 4134 
L 603 4134 
L 603 4863 
z
" transform="scale(0.015625)"/>
      <path id="DejaVuSans-58" d="M 403 4666 
L 1081 4666 
L 2241 2931 
L 3406 4666 
L 4084 4666 
L 2584 2425 
L 4184 0 
L 3506 0 
L 2194 1984 
L 872 0 
L 191 0 
L 1856 2491 
L 403 4666 
z
" transform="scale(0.015625)"/>
      <path id="DejaVuSans-44" d="M 1259 4147 
L 1259 519 
L 2022 519 
Q 2988 519 3436 956 
Q 3884 1394 3884 2338 
Q 3884 3275 3436 3711 
Q 2988 4147 2022 4147 
L 1259 4147 
z
M 628 4666 
L 1925 4666 
Q 3281 4666 3915 4102 
Q 4550 3538 4550 2338 
Q 4550 1131 3912 565 
Q 3275 0 1925 0 
L 628 0 
L 628 4666 
z
" transform="scale(0.015625)"/>
      <path id="DejaVuSans-52" d="M 2841 2188 
Q 3044 2119 3236 1894 
Q 3428 1669 3622 1275 
L 4263 0 
L 3584 0 
L 2988 1197 
Q 2756 1666 2539 1819 
Q 2322 1972 1947 1972 
L 1259 1972 
L 1259 0 
L 628 0 
L 628 4666 
L 2053 4666 
Q 2853 4666 3247 4331 
Q 3641 3997 3641 3322 
Q 3641 2881 3436 2590 
Q 3231 2300 2841 2188 
z
M 1259 4147 
L 1259 2491 
L 2053 2491 
Q 2509 2491 2742 2702 
Q 2975 2913 2975 3322 
Q 2975 3731 2742 3939 
Q 2509 4147 2053 4147 
L 1259 4147 
z
" transform="scale(0.015625)"/>
      <path id="DejaVuSans-2014" d="M 313 1978 
L 6088 1978 
L 6088 1528 
L 313 1528 
L 313 1978 
z
" transform="scale(0.015625)"/>
      <path id="DejaVuSans-4d" d="M 628 4666 
L 1569 4666 
L 2759 1491 
L 3956 4666 
L 4897 4666 
L 4897 0 
L 4281 0 
L 4281 4097 
L 3078 897 
L 2444 897 
L 1241 4097 
L 1241 0 
L 628 0 
L 628 4666 
z
" transform="scale(0.015625)"/>
      <path id="DejaVuSans-6f" d="M 1959 3097 
Q 1497 3097 1228 2736 
Q 959 2375 959 1747 
Q 959 1119 1226 758 
Q 1494 397 1959 397 
Q 2419 397 2687 759 
Q 2956 1122 2956 1747 
Q 2956 2369 2687 2733 
Q 2419 3097 1959 3097 
z
M 1959 3584 
Q 2709 3584 3137 3096 
Q 3566 2609 3566 1747 
Q 3566 888 3137 398 
Q 2709 -91 1959 -91 
Q 1206 -91 779 398 
Q 353 888 353 1747 
Q 353 2609 779 3096 
Q 1206 3584 1959 3584 
z
" transform="scale(0.015625)"/>
      <path id="DejaVuSans-64" d="M 2906 2969 
L 2906 4863 
L 3481 4863 
L 3481 0 
L 2906 0 
L 2906 525 
Q 2725 213 2448 61 
Q 2172 -91 1784 -91 
Q 1150 -91 751 415 
Q 353 922 353 1747 
Q 353 2572 751 3078 
Q 1150 3584 1784 3584 
Q 2172 3584 2448 3432 
Q 2725 3281 2906 2969 
z
M 947 1747 
Q 947 1113 1208 752 
Q 1469 391 1925 391 
Q 2381 391 2643 752 
Q 2906 1113 2906 1747 
Q 2906 2381 2643 2742 
Q 2381 3103 1925 3103 
Q 1469 3103 1208 2742 
Q 947 2381 947 1747 
z
" transform="scale(0.015625)"/>
      <path id="DejaVuSans-65" d="M 3597 1894 
L 3597 1613 
L 953 1613 
Q 991 1019 1311 708 
Q 1631 397 2203 397 
Q 2534 397 2845 478 
Q 3156 559 3463 722 
L 3463 178 
Q 3153 47 2828 -22 
Q 2503 -91 2169 -91 
Q 1331 -91 842 396 
Q 353 884 353 1716 
Q 353 2575 817 3079 
Q 1281 3584 2069 3584 
Q 2775 3584 3186 3129 
Q 3597 2675 3597 1894 
z
M 3022 2063 
Q 3016 2534 2758 2815 
Q 2500 3097 2075 3097 
Q 1594 3097 1305 2825 
Q 1016 2553 972 2059 
L 3022 2063 
z
" transform="scale(0.015625)"/>
      <path id="DejaVuSans-3a" d="M 750 794 
L 1409 794 
L 1409 0 
L 750 0 
L 750 794 
z
M 750 3309 
L 1409 3309 
L 1409 2516 
L 750 2516 
L 750 3309 
z
" transform="scale(0.015625)"/>
      <path id="DejaVuSans-39" d="M 703 97 
L 703 672 
Q 941 559 1184 500 
Q 1428 441 1663 441 
Q 2288 441 2617 861 
Q 2947 1281 2994 2138 
Q 2813 1869 2534 1725 
Q 2256 1581 1919 1581 
Q 1219 1581 811 2004 
Q 403 2428 403 3163 
Q 403 3881 828 4315 
Q 1253 4750 1959 4750 
Q 2769 4750 3195 4129 
Q 3622 3509 3622 2328 
Q 3622 1225 3098 567 
Q 2575 -91 1691 -91 
Q 1453 -91 1209 -44 
Q 966 3 703 97 
z
M 1959 2075 
Q 2384 2075 2632 2365 
Q 2881 2656 2881 3163 
Q 2881 3666 2632 3958 
Q 2384 4250 1959 4250 
Q 1534 4250 1286 3958 
Q 1038 3666 1038 3163 
Q 1038 2656 1286 2365 
Q 1534 2075 1959 2075 
z
" transform="scale(0.015625)"/>
      <path id="DejaVuSans-2e" d="M 684 794 
L 1344 794 
L 1344 0 
L 684 0 
L 684 794 
z
" transform="scale(0.015625)"/>
      <path id="DejaVuSans-38" d="M 2034 2216 
Q 1584 2216 1326 1975 
Q 1069 1734 1069 1313 
Q 1069 891 1326 650 
Q 1584 409 2034 409 
Q 2484 409 2743 651 
Q 3003 894 3003 1313 
Q 3003 1734 2745 1975 
Q 2488 2216 2034 2216 
z
M 1403 2484 
Q 997 2584 770 2862 
Q 544 3141 544 3541 
Q 544 4100 942 4425 
Q 1341 4750 2034 4750 
Q 2731 4750 3128 4425 
Q 3525 4100 3525 3541 
Q 3525 3141 3298 2862 
Q 3072 2584 2669 2484 
Q 3125 2378 3379 2068 
Q 3634 1759 3634 1313 
Q 3634 634 3220 271 
Q 2806 -91 2034 -91 
Q 1263 -91 848 271 
Q 434 634 434 1313 
Q 434 1759 690 2068 
Q 947 2378 1403 2484 
z
M 1172 3481 
Q 1172 3119 1398 2916 
Q 1625 2713 2034 2713 
Q 2441 2713 2670 2916 
Q 2900 3119 2900 3481 
Q 2900 3844 2670 4047 
Q 2441 4250 2034 4250 
Q 1625 4250 1398 4047 
Q 1172 3844 1172 3481 
z
" transform="scale(0.015625)"/>
      <path id="DejaVuSans-48" d="M 628 4666 
L 1259 4666 
L 1259 2753 
L 3553 2753 
L 3553 4666 
L 4184 4666 
L 4184 0 
L 3553 0 
L 3553 2222 
L 1259 2222 
L 1259 0 
L 628 0 
L 628 4666 
z
" transform="scale(0.015625)"/>
      <path id="DejaVuSans-7a" d="M 353 3500 
L 3084 3500 
L 3084 2975 
L 922 459 
L 3084 459 
L 3084 0 
L 275 0 
L 275 525 
L 2438 3041 
L 353 3041 
L 353 3500 
z
" transform="scale(0.015625)"/>
     </defs>
     <use xlink:href="#DejaVuSans-43"/>
     <use xlink:href="#DejaVuSans-61" x="69.824219"/>
     <use xlink:href="#DejaVuSans-6c" x="131.103516"/>
     <use xlink:href="#DejaVuSans-63" x="158.886719"/>
     <use xlink:href="#DejaVuSans-75" x="213.867188"/>
     <use xlink:href="#DejaVuSans-6c" x="277.246094"/>
     <use xlink:href="#DejaVuSans-69" x="305.029297"/>
     <use xlink:href="#DejaVuSans-58" x="332.8125"/>
     <use xlink:href="#DejaVuSans-20" x="401.318359"/>
     <use xlink:href="#DejaVuSans-43" x="433.105469"/>
     <use xlink:href="#DejaVuSans-33" x="502.929688"/>
     <use xlink:href="#DejaVuSans-44" x="566.552734"/>
     <use xlink:href="#DejaVuSans-32" x="643.554688"/>
     <use xlink:href="#DejaVuSans-30" x="707.177734"/>
     <use xlink:href="#DejaVuSans-52" x="770.800781"/>
     <use xlink:href="#DejaVuSans-20" x="840.283203"/>
     <use xlink:href="#DejaVuSans-2014" x="872.070312"/>
     <use xlink:href="#DejaVuSans-20" x="972.070312"/>
     <use xlink:href="#DejaVuSans-4d" x="1003.857422"/>
     <use xlink:href="#DejaVuSans-6f" x="1090.136719"/>
     <use xlink:href="#DejaVuSans-64" x="1151.318359"/>
     <use xlink:href="#DejaVuSans-65" x="1214.794922"/>
     <use xlink:href="#DejaVuSans-20" x="1276.318359"/>
     <use xlink:href="#DejaVuSans-37" x="1308.105469"/>
     <use xlink:href="#DejaVuSans-3a" x="1371.728516"/>
     <use xlink:href="#DejaVuSans-20" x="1405.419922"/>
     <use xlink:href="#DejaVuSans-39" x="1437.207031"/>
     <use xlink:href="#DejaVuSans-35" x="1500.830078"/>
     <use xlink:href="#DejaVuSans-2e" x="1564.453125"/>
     <use xlink:href="#DejaVuSans-38" x="1596.240234"/>
     <use xlink:href="#DejaVuSans-33" x="1659.863281"/>
     <use xlink:href="#DejaVuSans-20" x="1723.486328"/>
     <use xlink:href="#DejaVuSans-48" x="1755.273438"/>
     <use xlink:href="#DejaVuSans-7a" x="1830.46875"/>
    </g>
   </g>
  </g>
  <g id="axes_2">
   <g id="patch_7">
    <path d="M 452.74005 231.564898 
L 463.171352 231.564898 
L 463.171352 41.904863 
L 452.74005 41.904863 
z
" style="fill: #ffffff"/>
   </g>
   <g id="patch_8">
    <path clip-path="url(#pc8d5057061)" style="fill: #ffffff; stroke: #ffffff; stroke-width: 0.01; stroke-linejoin: miter"/>
   </g>
   <g id="patch_9">
    <path d="M 452.74005 231.564898 
L 457.955701 241.047899 
L 463.171352 231.564898 
" style="fill: #053061"/>
   </g>
   <g id="patch_10">
    <path d="M 452.74005 41.904863 
L 457.955701 32.421861 
L 463.171352 41.904863 
" style="fill: #67001f"/>
   </g>
   <g id="QuadMesh_1">
    <path d="M 452.74005 231.564898 
L 463.171352 231.564898 
L 463.171352 219.711145 
L 452.74005 219.711145 
L 452.74005 231.564898 
" clip-path="url(#pc8d5057061)" style="fill: #0e4179"/>
    <path d="M 452.74005 219.711145 
L 463.171352 219.711145 
L 463.171352 207.857393 
L 452.74005 207.857393 
L 452.74005 219.711145 
" clip-path="url(#pc8d5057061)" style="fill: #1f63a8"/>
    <path d="M 452.74005 207.857393 
L 463.171352 207.857393 
L 463.171352 196.003641 
L 452.74005 196.003641 
L 452.74005 207.857393 
" clip-path="url(#pc8d5057061)" style="fill: #3480b9"/>
    <path d="M 452.74005 196.003641 
L 463.171352 196.003641 
L 463.171352 184.149889 
L 452.74005 184.149889 
L 452.74005 196.003641 
" clip-path="url(#pc8d5057061)" style="fill: #529dc8"/>
    <path d="M 452.74005 184.149889 
L 463.171352 184.149889 
L 463.171352 172.296137 
L 452.74005 172.296137 
L 452.74005 184.149889 
" clip-path="url(#pc8d5057061)" style="fill: #84bcd9"/>
    <path d="M 452.74005 172.296137 
L 463.171352 172.296137 
L 463.171352 160.442384 
L 452.74005 160.442384 
L 452.74005 172.296137 
" clip-path="url(#pc8d5057061)" style="fill: #aed3e6"/>
    <path d="M 452.74005 160.442384 
L 463.171352 160.442384 
L 463.171352 148.588632 
L 452.74005 148.588632 
L 452.74005 160.442384 
" clip-path="url(#pc8d5057061)" style="fill: #d4e6f1"/>
    <path d="M 452.74005 148.588632 
L 463.171352 148.588632 
L 463.171352 136.73488 
L 452.74005 136.73488 
L 452.74005 148.588632 
" clip-path="url(#pc8d5057061)" style="fill: #ecf2f5"/>
    <path d="M 452.74005 136.73488 
L 463.171352 136.73488 
L 463.171352 124.881128 
L 452.74005 124.881128 
L 452.74005 136.73488 
" clip-path="url(#pc8d5057061)" style="fill: #f9eee7"/>
    <path d="M 452.74005 124.881128 
L 463.171352 124.881128 
L 463.171352 113.027376 
L 452.74005 113.027376 
L 452.74005 124.881128 
" clip-path="url(#pc8d5057061)" style="fill: #fddcc9"/>
    <path d="M 452.74005 113.027376 
L 463.171352 113.027376 
L 463.171352 101.173624 
L 452.74005 101.173624 
L 452.74005 113.027376 
" clip-path="url(#pc8d5057061)" style="fill: #f8bb9e"/>
    <path d="M 452.74005 101.173624 
L 463.171352 101.173624 
L 463.171352 89.319871 
L 452.74005 89.319871 
L 452.74005 101.173624 
" clip-path="url(#pc8d5057061)" style="fill: #ee9677"/>
    <path d="M 452.74005 89.319871 
L 463.171352 89.319871 
L 463.171352 77.466119 
L 452.74005 77.466119 
L 452.74005 89.319871 
" clip-path="url(#pc8d5057061)" style="fill: #db6b55"/>
    <path d="M 452.74005 77.466119 
L 463.171352 77.466119 
L 463.171352 65.612367 
L 452.74005 65.612367 
L 452.74005 77.466119 
" clip-path="url(#pc8d5057061)" style="fill: #c53e3d"/>
    <path d="M 452.74005 65.612367 
L 463.171352 65.612367 
L 463.171352 53.758615 
L 452.74005 53.758615 
L 452.74005 65.612367 
" clip-path="url(#pc8d5057061)" style="fill: #ab162a"/>
    <path d="M 452.74005 53.758615 
L 463.171352 53.758615 
L 463.171352 41.904863 
L 452.74005 41.904863 
L 452.74005 53.758615 
" clip-path="url(#pc8d5057061)" style="fill: #7c0722"/>
   </g>
   <g id="matplotlib.axis_3"/>
   <g id="matplotlib.axis_4">
    <g id="ytick_10">
     <g id="line2d_19">
      <defs>
       <path id="m679d7aab82" d="M 0 0 
L 3.5 0 
" style="stroke: #000000; stroke-width: 0.8"/>
      </defs>
      <g>
       <use xlink:href="#m679d7aab82" x="463.171352" y="231.564898" style="stroke: #000000; stroke-width: 0.8"/>
      </g>
     </g>
     <g id="text_22">
      <!-- −1.00 -->
      <g transform="translate(470.171352 235.364116) scale(0.1 -0.1)">
       <defs>
        <path id="DejaVuSans-2212" d="M 678 2272 
L 4684 2272 
L 4684 1741 
L 678 1741 
L 678 2272 
z
" transform="scale(0.015625)"/>
       </defs>
       <use xlink:href="#DejaVuSans-2212"/>
       <use xlink:href="#DejaVuSans-31" x="83.789062"/>
       <use xlink:href="#DejaVuSans-2e" x="147.412109"/>
       <use xlink:href="#DejaVuSans-30" x="179.199219"/>
       <use xlink:href="#DejaVuSans-30" x="242.822266"/>
      </g>
     </g>
    </g>
    <g id="ytick_11">
     <g id="line2d_20">
      <g>
       <use xlink:href="#m679d7aab82" x="463.171352" y="207.857393" style="stroke: #000000; stroke-width: 0.8"/>
      </g>
     </g>
     <g id="text_23">
      <!-- −0.75 -->
      <g transform="translate(470.171352 211.656612) scale(0.1 -0.1)">
       <use xlink:href="#DejaVuSans-2212"/>
       <use xlink:href="#DejaVuSans-30" x="83.789062"/>
       <use xlink:href="#DejaVuSans-2e" x="147.412109"/>
       <use xlink:href="#DejaVuSans-37" x="179.199219"/>
       <use xlink:href="#DejaVuSans-35" x="242.822266"/>
      </g>
     </g>
    </g>
    <g id="ytick_12">
     <g id="line2d_21">
      <g>
       <use xlink:href="#m679d7aab82" x="463.171352" y="184.149889" style="stroke: #000000; stroke-width: 0.8"/>
      </g>
     </g>
     <g id="text_24">
      <!-- −0.50 -->
      <g transform="translate(470.171352 187.949108) scale(0.1 -0.1)">
       <use xlink:href="#DejaVuSans-2212"/>
       <use xlink:href="#DejaVuSans-30" x="83.789062"/>
       <use xlink:href="#DejaVuSans-2e" x="147.412109"/>
       <use xlink:href="#DejaVuSans-35" x="179.199219"/>
       <use xlink:href="#DejaVuSans-30" x="242.822266"/>
      </g>
     </g>
    </g>
    <g id="ytick_13">
     <g id="line2d_22">
      <g>
       <use xlink:href="#m679d7aab82" x="463.171352" y="160.442384" style="stroke: #000000; stroke-width: 0.8"/>
      </g>
     </g>
     <g id="text_25">
      <!-- −0.25 -->
      <g transform="translate(470.171352 164.241603) scale(0.1 -0.1)">
       <use xlink:href="#DejaVuSans-2212"/>
       <use xlink:href="#DejaVuSans-30" x="83.789062"/>
       <use xlink:href="#DejaVuSans-2e" x="147.412109"/>
       <use xlink:href="#DejaVuSans-32" x="179.199219"/>
       <use xlink:href="#DejaVuSans-35" x="242.822266"/>
      </g>
     </g>
    </g>
    <g id="ytick_14">
     <g id="line2d_23">
      <g>
       <use xlink:href="#m679d7aab82" x="463.171352" y="136.73488" style="stroke: #000000; stroke-width: 0.8"/>
      </g>
     </g>
     <g id="text_26">
      <!-- 0.00 -->
      <g transform="translate(470.171352 140.534099) scale(0.1 -0.1)">
       <use xlink:href="#DejaVuSans-30"/>
       <use xlink:href="#DejaVuSans-2e" x="63.623047"/>
       <use xlink:href="#DejaVuSans-30" x="95.410156"/>
       <use xlink:href="#DejaVuSans-30" x="159.033203"/>
      </g>
     </g>
    </g>
    <g id="ytick_15">
     <g id="line2d_24">
      <g>
       <use xlink:href="#m679d7aab82" x="463.171352" y="113.027376" style="stroke: #000000; stroke-width: 0.8"/>
      </g>
     </g>
     <g id="text_27">
      <!-- 0.25 -->
      <g transform="translate(470.171352 116.826594) scale(0.1 -0.1)">
       <use xlink:href="#DejaVuSans-30"/>
       <use xlink:href="#DejaVuSans-2e" x="63.623047"/>
       <use xlink:href="#DejaVuSans-32" x="95.410156"/>
       <use xlink:href="#DejaVuSans-35" x="159.033203"/>
      </g>
     </g>
    </g>
    <g id="ytick_16">
     <g id="line2d_25">
      <g>
       <use xlink:href="#m679d7aab82" x="463.171352" y="89.319871" style="stroke: #000000; stroke-width: 0.8"/>
      </g>
     </g>
     <g id="text_28">
      <!-- 0.50 -->
      <g transform="translate(470.171352 93.11909) scale(0.1 -0.1)">
       <use xlink:href="#DejaVuSans-30"/>
       <use xlink:href="#DejaVuSans-2e" x="63.623047"/>
       <use xlink:href="#DejaVuSans-35" x="95.410156"/>
       <use xlink:href="#DejaVuSans-30" x="159.033203"/>
      </g>
     </g>
    </g>
    <g id="ytick_17">
     <g id="line2d_26">
      <g>
       <use xlink:href="#m679d7aab82" x="463.171352" y="65.612367" style="stroke: #000000; stroke-width: 0.8"/>
      </g>
     </g>
     <g id="text_29">
      <!-- 0.75 -->
      <g transform="translate(470.171352 69.411586) scale(0.1 -0.1)">
       <use xlink:href="#DejaVuSans-30"/>
       <use xlink:href="#DejaVuSans-2e" x="63.623047"/>
       <use xlink:href="#DejaVuSans-37" x="95.410156"/>
       <use xlink:href="#DejaVuSans-35" x="159.033203"/>
      </g>
     </g>
    </g>
    <g id="ytick_18">
     <g id="line2d_27">
      <g>
       <use xlink:href="#m679d7aab82" x="463.171352" y="41.904863" style="stroke: #000000; stroke-width: 0.8"/>
      </g>
     </g>
     <g id="text_30">
      <!-- 1.00 -->
      <g transform="translate(470.171352 45.704081) scale(0.1 -0.1)">
       <use xlink:href="#DejaVuSans-31"/>
       <use xlink:href="#DejaVuSans-2e" x="63.623047"/>
       <use xlink:href="#DejaVuSans-30" x="95.410156"/>
       <use xlink:href="#DejaVuSans-30" x="159.033203"/>
      </g>
     </g>
    </g>
    <g id="text_31">
     <!-- normalized z displacement -->
     <g transform="translate(512.415102 204.017693) rotate(-90) scale(0.1 -0.1)">
      <defs>
       <path id="DejaVuSans-6e" d="M 3513 2113 
L 3513 0 
L 2938 0 
L 2938 2094 
Q 2938 2591 2744 2837 
Q 2550 3084 2163 3084 
Q 1697 3084 1428 2787 
Q 1159 2491 1159 1978 
L 1159 0 
L 581 0 
L 581 3500 
L 1159 3500 
L 1159 2956 
Q 1366 3272 1645 3428 
Q 1925 3584 2291 3584 
Q 2894 3584 3203 3211 
Q 3513 2838 3513 2113 
z
" transform="scale(0.015625)"/>
       <path id="DejaVuSans-72" d="M 2631 2963 
Q 2534 3019 2420 3045 
Q 2306 3072 2169 3072 
Q 1681 3072 1420 2755 
Q 1159 2438 1159 1844 
L 1159 0 
L 581 0 
L 581 3500 
L 1159 3500 
L 1159 2956 
Q 1341 3275 1631 3429 
Q 1922 3584 2338 3584 
Q 2397 3584 2469 3576 
Q 2541 3569 2628 3553 
L 2631 2963 
z
" transform="scale(0.015625)"/>
       <path id="DejaVuSans-73" d="M 2834 3397 
L 2834 2853 
Q 2591 2978 2328 3040 
Q 2066 3103 1784 3103 
Q 1356 3103 1142 2972 
Q 928 2841 928 2578 
Q 928 2378 1081 2264 
Q 1234 2150 1697 2047 
L 1894 2003 
Q 2506 1872 2764 1633 
Q 3022 1394 3022 966 
Q 3022 478 2636 193 
Q 2250 -91 1575 -91 
Q 1294 -91 989 -36 
Q 684 19 347 128 
L 347 722 
Q 666 556 975 473 
Q 1284 391 1588 391 
Q 1994 391 2212 530 
Q 2431 669 2431 922 
Q 2431 1156 2273 1281 
Q 2116 1406 1581 1522 
L 1381 1569 
Q 847 1681 609 1914 
Q 372 2147 372 2553 
Q 372 3047 722 3315 
Q 1072 3584 1716 3584 
Q 2034 3584 2315 3537 
Q 2597 3491 2834 3397 
z
" transform="scale(0.015625)"/>
       <path id="DejaVuSans-70" d="M 1159 525 
L 1159 -1331 
L 581 -1331 
L 581 3500 
L 1159 3500 
L 1159 2969 
Q 1341 3281 1617 3432 
Q 1894 3584 2278 3584 
Q 2916 3584 3314 3078 
Q 3713 2572 3713 1747 
Q 3713 922 3314 415 
Q 2916 -91 2278 -91 
Q 1894 -91 1617 61 
Q 1341 213 1159 525 
z
M 3116 1747 
Q 3116 2381 2855 2742 
Q 2594 3103 2138 3103 
Q 1681 3103 1420 2742 
Q 1159 2381 1159 1747 
Q 1159 1113 1420 752 
Q 1681 391 2138 391 
Q 2594 391 2855 752 
Q 3116 1113 3116 1747 
z
" transform="scale(0.015625)"/>
       <path id="DejaVuSans-74" d="M 1172 4494 
L 1172 3500 
L 2356 3500 
L 2356 3053 
L 1172 3053 
L 1172 1153 
Q 1172 725 1289 603 
Q 1406 481 1766 481 
L 2356 481 
L 2356 0 
L 1766 0 
Q 1100 0 847 248 
Q 594 497 594 1153 
L 594 3053 
L 172 3053 
L 172 3500 
L 594 3500 
L 594 4494 
L 1172 4494 
z
" transform="scale(0.015625)"/>
      </defs>
      <use xlink:href="#DejaVuSans-6e"/>
      <use xlink:href="#DejaVuSans-6f" x="63.378906"/>
      <use xlink:href="#DejaVuSans-72" x="124.560547"/>
      <use xlink:href="#DejaVuSans-6d" x="163.923828"/>
      <use xlink:href="#DejaVuSans-61" x="261.335938"/>
      <use xlink:href="#DejaVuSans-6c" x="322.615234"/>
      <use xlink:href="#DejaVuSans-69" x="350.398438"/>
      <use xlink:href="#DejaVuSans-7a" x="378.181641"/>
      <use xlink:href="#DejaVuSans-65" x="430.671875"/>
      <use xlink:href="#DejaVuSans-64" x="492.195312"/>
      <use xlink:href="#DejaVuSans-20" x="555.671875"/>
      <use xlink:href="#DejaVuSans-7a" x="587.458984"/>
      <use xlink:href="#DejaVuSans-20" x="639.949219"/>
      <use xlink:href="#DejaVuSans-64" x="671.736328"/>
      <use xlink:href="#DejaVuSans-69" x="735.212891"/>
      <use xlink:href="#DejaVuSans-73" x="762.996094"/>
      <use xlink:href="#DejaVuSans-70" x="815.095703"/>
      <use xlink:href="#DejaVuSans-6c" x="878.572266"/>
      <use xlink:href="#DejaVuSans-61" x="906.355469"/>
      <use xlink:href="#DejaVuSans-63" x="967.634766"/>
      <use xlink:href="#DejaVuSans-65" x="1022.615234"/>
      <use xlink:href="#DejaVuSans-6d" x="1084.138672"/>
      <use xlink:href="#DejaVuSans-65" x="1181.550781"/>
      <use xlink:href="#DejaVuSans-6e" x="1243.074219"/>
      <use xlink:href="#DejaVuSans-74" x="1306.453125"/>
     </g>
    </g>
   </g>
   <g id="LineCollection_1"/>
   <g id="patch_11">
    <path d="M 452.74005 231.564898 
L 457.955701 241.047899 
L 463.171352 231.564898 
L 463.171352 41.904863 
L 457.955701 32.421861 
L 452.74005 41.904863 
L 452.74005 231.564898 
z
" style="fill: none; stroke: #000000; stroke-width: 0.8; stroke-linejoin: miter; stroke-linecap: square"/>
   </g>
  </g>
 </g>
 <defs>
  <clipPath id="p14503a19d0">
   <rect x="42.765865" y="41.3943" width="381.362319" height="190.681159"/>
  </clipPath>
  <clipPath id="pc8d5057061">
   <rect x="452.74005" y="41.904863" width="10.431302" height="189.660035"/>
  </clipPath>
 </defs>
 <defs>
  <pattern id="h5f4fdad40d" patternUnits="userSpaceOnUse" x="0" y="0" width="72" height="72">
   <rect x="0" y="0" width="73" height="73" fill="#333333"/>
   <path d="M -36 36 
L 36 -36 
M -33 39 
L 39 -33 
M -30 42 
L 42 -30 
M -27 45 
L 45 -27 
M -24 48 
L 48 -24 
M -21 51 
L 51 -21 
M -18 54 
L 54 -18 
M -15 57 
L 57 -15 
M -12 60 
L 60 -12 
M -9 63 
L 63 -9 
M -6 66 
L 66 -6 
M -3 69 
L 69 -3 
M 0 72 
L 72 0 
M 3 75 
L 75 3 
M 6 78 
L 78 6 
M 9 81 
L 81 9 
M 12 84 
L 84 12 
M 15 87 
L 87 15 
M 18 90 
L 90 18 
M 21 93 
L 93 21 
M 24 96 
L 96 24 
M 27 99 
L 99 27 
M 30 102 
L 102 30 
M 33 105 
L 105 33 
M 36 108 
L 108 36 
" style="fill: #333333; stroke: #333333; stroke-width: 1.0; stroke-linecap: butt; stroke-linejoin: miter; stroke-opacity: 0.3"/>
  </pattern>
 </defs>
</svg>
