<?xml version="1.0" encoding="utf-8" standalone="no"?>
<!DOCTYPE svg PUBLIC "-//W3C//DTD SVG 1.1//EN"
  "http://www.w3.org/Graphics/SVG/1.1/DTD/svg11.dtd">
<svg xmlns:xlink="http://www.w3.org/1999/xlink" width="518.4pt" height="273.6pt" viewBox="0 0 518.4 273.6" xmlns="http://www.w3.org/2000/svg" version="1.1">
 <metadata>
  <rdf:RDF xmlns:dc="http://purl.org/dc/elements/1.1/" xmlns:cc="http://creativecommons.org/ns#" xmlns:rdf="http://www.w3.org/1999/02/22-rdf-syntax-ns#">
   <cc:Work>
    <dc:type rdf:resource="http://purl.org/dc/dcmitype/StillImage"/>
    <dc:format>image/svg+xml</dc:format>
    <dc:creator>
     <cc:Agent>
      <dc:title>Matplotlib v3.6.3, https://matplotlib.org/</dc:title>
     </cc:Agent>
    </dc:creator>
   </cc:Work>
  </rdf:RDF>
 </metadata>
 <defs>
  <style type="text/css">*{stroke-linejoin: round; stroke-linecap: butt}</style>
 </defs>
 <g id="figure_1">
  <g id="patch_1">
   <path d="M 0 273.6 
L 518.4 273.6 
L 518.4 0 
L 0 0 
z
" style="fill: #ffffff"/>
  </g>
  <g id="axes_1">
   <g id="patch_2">
    <path d="M 42.765865 232.07546 
L 424.128184 232.07546 
L 424.128184 41.3943 
L 42.765865 41.3943 
z
" style="fill: #ffffff"/>
   </g>
   <g id="PathCollection_1">
    <path clip-path="url(#pe69098f568)" style="fill: #053061"/>
   </g>
   <g id="PathCollection_2">
    <path clip-path="url(#pe69098f568)" style="fill: #0e4179"/>
   </g>
   <g id="PathCollection_3">
    <path clip-path="url(#pe69098f568)" style="fill: #1f63a8"/>
   </g>
   <g id="PathCollection_4">
    <path clip-path="url(#pe69098f568)" style="fill: #3480b9"/>
   </g>
   <g id="PathCollection_5">
    <path clip-path="url(#pe69098f568)" style="fill: #529dc8"/>
   </g>
   <g id="PathCollection_6">
    <path clip-path="url(#pe69098f568)" style="fill: #84bcd9"/>
   </g>
   <g id="PathCollection_7">
    <path clip-path="url(#pe69098f568)" style="fill: #aed3e6"/>
   </g>
   <g id="PathCollection_8">
    <path clip-path="url(#pe69098f568)" style="fill: #d4e6f1"/>
   </g>
   <g id="PathCollection_9">
    <path d="M 233.447024 41.3943 
L 233.447024 43.777815 
L 233.447024 46.161329 
L 233.447024 48.544844 
L 228.679996 48.193727 
L 227.561116 46.720769 
L 223.912967 46.424673 
L 223.604153 46.161329 
L 221.580255 44.555385 
L 216.762423 43.604703 
L 214.638399 42.102308 
L 212.741943 41.3943 
L 216.762423 41.3943 
L 223.912967 41.3943 
L 228.679996 41.3943 
M 396.480065 232.07546 
L 394.270493 226.180433 
L 391.910337 220.157887 
L 387.303802 209.311979 
L 386.809259 208.240315 
L 385.511584 205.376432 
L 380.166743 192.613894 
L 376.457894 184.846146 
L 376.251234 184.40517 
L 372.720052 176.22544 
L 370.776602 172.487597 
L 365.311609 161.341312 
L 364.96955 160.570025 
L 364.888275 160.361253 
L 364.540322 159.608226 
L 359.597015 149.234922 
L 357.878409 146.268938 
L 356.082599 142.885849 
L 355.071733 140.522315 
L 353.054181 136.73488 
L 352.622749 135.844698 
L 351.18345 132.927384 
L 349.44778 129.851205 
L 348.142263 127.200822 
L 347.354534 125.318494 
L 344.340737 120.050279 
L 342.543739 115.828202 
L 340.749528 112.899735 
L 338.321662 107.267812 
L 336.988613 104.314786 
L 334.652438 100.982163 
L 331.910088 93.175953 
L 329.256162 89.06459 
L 328.787604 87.151773 
L 327.407197 82.291347 
L 325.12574 79.530532 
L 323.86406 70.309506 
L 323.369775 69.996474 
L 322.445671 68.42157 
L 321.256768 65.229445 
L 324.020575 60.462416 
L 328.787604 60.462416 
L 328.787604 58.078902 
L 328.787604 55.695387 
L 328.787604 53.311873 
L 328.787604 50.928358 
L 328.787604 48.544844 
L 328.787604 46.161329 
L 328.787604 43.777815 
L 328.787604 41.3943 
L 333.554633 41.3943 
L 338.321662 41.3943 
L 345.472206 41.3943 
L 352.622749 41.3943 
L 364.540322 41.3943 
L 376.457894 41.3943 
L 388.375467 41.3943 
L 400.293039 41.3943 
L 412.210612 41.3943 
L 424.128184 41.3943 
L 424.128184 43.777815 
L 424.128184 46.161329 
L 424.128184 48.544844 
L 424.128184 50.928358 
L 424.128184 53.311873 
L 424.128184 55.695387 
L 424.128184 58.078902 
L 424.128184 60.462416 
L 424.128184 65.229445 
L 424.128184 69.996474 
L 424.128184 79.530532 
L 424.128184 89.06459 
L 424.128184 100.982163 
L 424.128184 112.899735 
L 424.128184 120.050279 
L 424.128184 127.200822 
L 424.128184 131.967851 
L 424.128184 136.73488 
L 424.128184 141.501909 
L 424.128184 146.268938 
L 424.128184 153.419482 
L 424.128184 160.570025 
L 424.128184 172.487597 
L 424.128184 184.40517 
L 424.128184 196.322742 
L 424.128184 208.240315 
L 424.128184 220.157887 
L 424.128184 232.07546 
L 412.210612 232.07546 
L 400.293039 232.07546 
" clip-path="url(#pe69098f568)" style="fill: #ecf2f5"/>
   </g>
   <g id="PathCollection_10">
    <path d="M 212.741943 41.3943 
L 214.638399 42.102308 
L 216.762423 43.604703 
L 221.580255 44.555385 
L 223.604153 46.161329 
L 223.912967 46.424673 
L 227.561116 46.720769 
L 228.679996 48.193727 
L 233.447024 48.544844 
L 233.447024 46.161329 
L 233.447024 43.777815 
L 233.447024 41.3943 
L 238.214053 41.3943 
L 242.981082 41.3943 
L 250.131626 41.3943 
L 257.282169 41.3943 
L 269.199742 41.3943 
L 281.117314 41.3943 
L 293.034887 41.3943 
L 304.952459 41.3943 
L 312.103003 41.3943 
L 319.253546 41.3943 
L 324.020575 41.3943 
L 328.787604 41.3943 
L 328.787604 43.777815 
L 328.787604 46.161329 
L 328.787604 48.544844 
L 328.787604 50.928358 
L 328.787604 53.311873 
L 328.787604 55.695387 
L 328.787604 58.078902 
L 328.787604 60.462416 
L 324.020575 60.462416 
L 321.256768 65.229445 
L 322.445671 68.42157 
L 323.369775 69.996474 
L 323.86406 70.309506 
L 325.12574 79.530532 
L 327.407197 82.291347 
L 328.787604 87.151773 
L 329.256162 89.06459 
L 331.910088 93.175953 
L 334.652438 100.982163 
L 336.988613 104.314786 
L 338.321662 107.267812 
L 340.749528 112.899735 
L 342.543739 115.828202 
L 344.340737 120.050279 
L 347.354534 125.318494 
L 348.142263 127.200822 
L 349.44778 129.851205 
L 351.18345 132.927384 
L 352.622749 135.844698 
L 353.054181 136.73488 
L 355.071733 140.522315 
L 356.082599 142.885849 
L 357.878409 146.268938 
L 359.597015 149.234922 
L 364.540322 159.608226 
L 364.888275 160.361253 
L 364.96955 160.570025 
L 365.311609 161.341312 
L 370.776602 172.487597 
L 372.720052 176.22544 
L 376.251234 184.40517 
L 376.457894 184.846146 
L 380.166743 192.613894 
L 385.511584 205.376432 
L 386.809259 208.240315 
L 387.303802 209.311979 
L 391.910337 220.157887 
L 394.270493 226.180433 
L 396.480065 232.07546 
L 388.375467 232.07546 
L 376.457894 232.07546 
L 364.540322 232.07546 
L 352.622749 232.07546 
L 345.472206 232.07546 
L 338.321662 232.07546 
L 333.554633 232.07546 
L 328.787604 232.07546 
L 324.020575 232.07546 
L 319.253546 232.07546 
L 312.103003 232.07546 
L 304.952459 232.07546 
L 298.543995 232.07546 
L 296.740269 228.370077 
L 292.643864 220.157887 
L 288.241432 213.03377 
L 285.158885 208.240315 
L 281.117314 202.205287 
L 278.892265 198.547792 
L 269.199742 185.397454 
L 268.808757 184.796155 
L 268.501767 184.40517 
L 265.561998 180.767426 
L 259.10214 172.487597 
L 258.235301 171.534466 
L 257.282169 170.560398 
L 253.646231 166.427699 
L 249.52811 161.575885 
L 248.616427 160.570025 
L 242.981082 154.434797 
L 242.59939 153.99202 
L 242.091544 153.419482 
L 237.050844 148.013753 
L 235.369899 146.268938 
L 233.447024 144.270014 
L 232.130824 142.818109 
L 230.935052 141.501909 
L 227.474359 137.940517 
L 226.313221 136.73488 
L 223.912967 134.249919 
L 222.629928 132.82321 
L 218.137513 128.117549 
L 217.274945 127.200822 
L 217.026786 126.936459 
L 210.726686 120.050279 
L 210.167791 119.494367 
L 209.61188 118.922429 
L 204.438992 112.899735 
L 201.356909 109.237133 
L 194.867346 100.982163 
L 190.601235 96.157662 
L 185.776735 90.356752 
L 184.813327 89.06459 
L 180.834039 83.484689 
L 173.859162 74.361205 
L 171.888846 71.572728 
L 170.691593 69.996474 
L 169.318214 68.180095 
L 166.019418 63.598314 
L 163.545929 60.462416 
L 161.94159 58.424278 
L 161.725805 58.122059 
L 161.648389 58.020262 
L 159.956705 55.695387 
L 158.689306 53.96233 
L 157.490602 52.421675 
L 156.375839 50.928358 
L 155.545988 49.823964 
L 153.114838 46.779493 
L 152.63972 46.161329 
L 152.288686 45.708396 
L 150.024017 42.953493 
L 149.00796 41.597512 
L 148.850046 41.3943 
L 150.024017 41.3943 
L 161.94159 41.3943 
L 173.859162 41.3943 
L 185.776735 41.3943 
L 197.694307 41.3943 
L 209.61188 41.3943 
" clip-path="url(#pe69098f568)" style="fill: #f9eee7"/>
   </g>
   <g id="PathCollection_11">
    <path d="M 148.850046 41.3943 
L 149.00796 41.597512 
L 150.024017 42.953493 
L 152.288686 45.708396 
L 152.63972 46.161329 
L 153.114838 46.779493 
L 155.545988 49.823964 
L 156.375839 50.928358 
L 157.490602 52.421675 
L 158.689306 53.96233 
L 159.956705 55.695387 
L 161.648389 58.020262 
L 161.725805 58.122059 
L 161.94159 58.424278 
L 163.545929 60.462416 
L 166.019418 63.598314 
L 169.318214 68.180095 
L 170.691593 69.996474 
L 171.888846 71.572728 
L 173.859162 74.361205 
L 180.834039 83.484689 
L 184.813327 89.06459 
L 185.776735 90.356752 
L 190.601235 96.157662 
L 194.867346 100.982163 
L 201.356909 109.237133 
L 204.438992 112.899735 
L 209.61188 118.922429 
L 210.167791 119.494367 
L 210.726686 120.050279 
L 217.026786 126.936459 
L 217.274945 127.200822 
L 218.137513 128.117549 
L 222.629928 132.82321 
L 223.912967 134.249919 
L 226.313221 136.73488 
L 227.474359 137.940517 
L 230.935052 141.501909 
L 232.130824 142.818109 
L 233.447024 144.270014 
L 235.369899 146.268938 
L 237.050844 148.013753 
L 242.091544 153.419482 
L 242.59939 153.99202 
L 242.981082 154.434797 
L 248.616427 160.570025 
L 249.52811 161.575885 
L 253.646231 166.427699 
L 257.282169 170.560398 
L 258.235301 171.534466 
L 259.10214 172.487597 
L 265.561998 180.767426 
L 268.501767 184.40517 
L 268.808757 184.796155 
L 269.199742 185.397454 
L 278.892265 198.547792 
L 281.117314 202.205287 
L 285.158885 208.240315 
L 288.241432 213.03377 
L 292.643864 220.157887 
L 296.740269 228.370077 
L 298.543995 232.07546 
L 293.034887 232.07546 
L 281.117314 232.07546 
L 269.199742 232.07546 
L 257.282169 232.07546 
L 250.131626 232.07546 
L 242.981082 232.07546 
L 240.310031 232.07546 
L 239.13074 229.783744 
L 233.975874 220.157887 
L 233.663381 219.616997 
L 233.447024 219.258242 
L 232.297168 217.283247 
L 228.037422 209.846749 
L 227.084914 208.240315 
L 223.912967 203.128254 
L 221.876102 199.717517 
L 219.799898 196.322742 
L 214.441994 188.272552 
L 211.812843 184.40517 
L 209.61188 181.276906 
L 206.118422 175.981055 
L 197.694307 164.418539 
L 196.162181 162.102151 
L 195.06172 160.570025 
L 193.006856 157.757554 
L 188.64807 151.696681 
L 185.776735 147.917407 
L 184.619391 146.268938 
L 182.24829 142.913287 
L 179.330173 138.923284 
L 177.755805 136.73488 
L 176.883555 135.525123 
L 173.859162 131.462692 
L 171.54325 128.127187 
L 170.882898 127.200822 
L 168.661133 124.082004 
L 164.674565 118.410493 
L 161.94159 114.63226 
L 160.76146 112.899735 
L 156.433895 106.489857 
L 150.024017 97.272814 
L 146.743028 92.34558 
L 144.486452 89.06459 
L 138.106445 79.73722 
L 138.017583 79.601621 
L 137.805992 79.29017 
L 131.562034 69.996474 
L 130.421401 68.303463 
L 126.188872 62.215055 
L 125.265555 60.831743 
L 125.011858 60.462416 
L 124.824566 60.189555 
L 122.304635 56.472235 
L 121.768092 55.695387 
L 121.057085 54.66903 
L 119.423344 52.281464 
L 118.479466 50.928358 
L 117.225168 49.135618 
L 116.507018 48.0977 
L 115.142709 46.161329 
L 114.2713 44.928435 
L 113.580864 43.915902 
L 113.35937 43.595429 
L 111.848844 41.3943 
L 114.2713 41.3943 
L 126.188872 41.3943 
L 138.106445 41.3943 
" clip-path="url(#pe69098f568)" style="fill: #fddcc9"/>
   </g>
   <g id="PathCollection_12">
    <path d="M 111.848844 41.3943 
L 113.35937 43.595429 
L 113.580864 43.915902 
L 114.2713 44.928435 
L 115.142709 46.161329 
L 116.507018 48.0977 
L 117.225168 49.135618 
L 118.479466 50.928358 
L 119.423344 52.281464 
L 121.057085 54.66903 
L 121.768092 55.695387 
L 122.304635 56.472235 
L 124.824566 60.189555 
L 125.011858 60.462416 
L 125.265555 60.831743 
L 126.188872 62.215055 
L 130.421401 68.303463 
L 131.562034 69.996474 
L 137.805992 79.29017 
L 138.017583 79.601621 
L 138.106445 79.73722 
L 144.486452 89.06459 
L 146.743028 92.34558 
L 150.024017 97.272814 
L 156.433895 106.489857 
L 160.76146 112.899735 
L 161.94159 114.63226 
L 164.674565 118.410493 
L 168.661133 124.082004 
L 170.882898 127.200822 
L 171.54325 128.127187 
L 173.859162 131.462692 
L 176.883555 135.525123 
L 177.755805 136.73488 
L 179.330173 138.923284 
L 182.24829 142.913287 
L 184.619391 146.268938 
L 185.776735 147.917407 
L 188.64807 151.696681 
L 193.006856 157.757554 
L 195.06172 160.570025 
L 196.162181 162.102151 
L 197.694307 164.418539 
L 206.118422 175.981055 
L 209.61188 181.276906 
L 211.812843 184.40517 
L 214.441994 188.272552 
L 219.799898 196.322742 
L 221.876102 199.717517 
L 223.912967 203.128254 
L 227.084914 208.240315 
L 228.037422 209.846749 
L 232.297168 217.283247 
L 233.447024 219.258242 
L 233.663381 219.616997 
L 233.975874 220.157887 
L 239.13074 229.783744 
L 240.310031 232.07546 
L 238.214053 232.07546 
L 233.447024 232.07546 
L 228.679996 232.07546 
L 223.912967 232.07546 
L 216.762423 232.07546 
L 209.61188 232.07546 
L 198.450186 232.07546 
L 198.198015 231.571752 
L 192.490509 220.157887 
L 190.026745 215.907877 
L 185.776735 208.511445 
L 185.629197 208.240315 
L 181.387067 200.71241 
L 178.937016 196.322742 
L 172.399586 185.864746 
L 171.503873 184.40517 
L 167.511193 178.057201 
L 164.10072 172.487597 
L 163.223944 171.205243 
L 161.94159 169.270678 
L 156.452111 160.570025 
L 154.668958 157.783061 
L 150.024017 150.740801 
L 147.976736 147.497307 
L 147.181191 146.268938 
L 146.18121 144.731815 
L 142.872251 139.595586 
L 140.991823 136.73488 
L 138.106445 132.354356 
L 137.91037 132.046281 
L 137.773307 131.834596 
L 134.800395 127.200822 
L 132.405785 123.470674 
L 126.188872 113.971393 
L 125.695403 113.195817 
L 125.503562 112.899735 
L 124.242123 110.952986 
L 116.426848 98.826615 
L 114.2713 95.565244 
L 110.081561 89.06459 
L 107.453608 84.984686 
L 102.353727 77.251369 
L 99.264237 72.468066 
L 97.638655 69.996474 
L 95.94747 67.433971 
L 93.661375 63.939357 
L 91.347192 60.462416 
L 90.436155 59.091357 
L 89.85177 58.195779 
L 89.674069 57.926485 
L 88.213031 55.695387 
L 87.08846 53.981412 
L 86.066298 52.437901 
L 85.072448 50.928358 
L 84.3087 49.770335 
L 82.430091 46.943631 
L 81.912478 46.161329 
L 81.515302 45.561985 
L 78.76816 41.444216 
L 78.73498 41.3943 
L 90.436155 41.3943 
L 102.353727 41.3943 
" clip-path="url(#pe69098f568)" style="fill: #f8bb9e"/>
   </g>
   <g id="PathCollection_13">
    <path d="M 78.73498 41.3943 
L 78.76816 41.444216 
L 81.515302 45.561985 
L 81.912478 46.161329 
L 82.430091 46.943631 
L 84.3087 49.770335 
L 85.072448 50.928358 
L 86.066298 52.437901 
L 87.08846 53.981412 
L 88.213031 55.695387 
L 89.674069 57.926485 
L 89.85177 58.195779 
L 90.436155 59.091357 
L 91.347192 60.462416 
L 93.661375 63.939357 
L 95.94747 67.433971 
L 97.638655 69.996474 
L 99.264237 72.468066 
L 102.353727 77.251369 
L 107.453608 84.984686 
L 110.081561 89.06459 
L 114.2713 95.565244 
L 116.426848 98.826615 
L 124.242123 110.952986 
L 125.503562 112.899735 
L 125.695403 113.195817 
L 126.188872 113.971393 
L 132.405785 123.470674 
L 134.800395 127.200822 
L 137.773307 131.834596 
L 137.91037 132.046281 
L 138.106445 132.354356 
L 140.991823 136.73488 
L 142.872251 139.595586 
L 146.18121 144.731815 
L 147.181191 146.268938 
L 147.976736 147.497307 
L 150.024017 150.740801 
L 154.668958 157.783061 
L 156.452111 160.570025 
L 161.94159 169.270678 
L 163.223944 171.205243 
L 164.10072 172.487597 
L 167.511193 178.057201 
L 171.503873 184.40517 
L 172.399586 185.864746 
L 178.937016 196.322742 
L 181.387067 200.71241 
L 185.629197 208.240315 
L 185.776735 208.511445 
L 190.026745 215.907877 
L 192.490509 220.157887 
L 198.198015 231.571752 
L 198.450186 232.07546 
L 197.694307 232.07546 
L 185.776735 232.07546 
L 173.859162 232.07546 
L 163.59037 232.07546 
L 161.94159 228.93359 
L 158.989149 223.110328 
L 157.473944 220.157887 
L 151.91567 210.131967 
L 150.894676 208.240315 
L 150.584058 207.680274 
L 150.024017 206.731924 
L 141.978367 192.45082 
L 138.106445 185.927376 
L 137.228374 184.40517 
L 133.140759 177.453283 
L 130.236758 172.487597 
L 124.143733 162.615165 
L 122.894153 160.570025 
L 120.959007 157.432106 
L 117.361393 151.565426 
L 114.2713 146.627212 
L 114.051379 146.268938 
L 111.737802 142.515308 
L 110.04724 139.812285 
L 108.135526 136.73488 
L 106.98271 134.883287 
L 102.353727 127.553652 
L 102.177973 127.271124 
L 102.13365 127.200822 
L 101.999335 126.988187 
L 95.66922 116.910439 
L 93.111595 112.899735 
L 90.436155 108.710493 
L 87.443578 103.974739 
L 85.541068 100.982163 
L 78.122269 89.460904 
L 77.865855 89.06459 
L 77.165174 87.981863 
L 69.974331 76.831875 
L 66.60101 71.661375 
L 65.519824 69.996474 
L 63.281509 66.557246 
L 60.932586 62.962076 
L 59.302538 60.462416 
L 58.770876 59.644929 
L 56.408664 56.040433 
L 56.183774 55.695387 
L 56.010586 55.429958 
L 54.683437 53.407394 
L 53.247885 51.215469 
L 53.059598 50.928358 
L 52.814438 50.554558 
L 50.486059 47.000805 
L 49.935425 46.161329 
L 49.218879 45.068418 
L 47.722746 42.786439 
L 46.810205 41.3943 
L 54.683437 41.3943 
L 66.60101 41.3943 
L 78.518582 41.3943 
" clip-path="url(#pe69098f568)" style="fill: #ee9677"/>
   </g>
   <g id="PathCollection_14">
    <path d="M 46.810205 41.3943 
L 47.722746 42.786439 
L 49.218879 45.068418 
L 49.935425 46.161329 
L 50.486059 47.000805 
L 52.814438 50.554558 
L 53.059598 50.928358 
L 53.247885 51.215469 
L 54.683437 53.407394 
L 56.010586 55.429958 
L 56.183774 55.695387 
L 56.408664 56.040433 
L 58.770876 59.644929 
L 59.302538 60.462416 
L 60.932586 62.962076 
L 63.281509 66.557246 
L 65.519824 69.996474 
L 66.60101 71.661375 
L 69.974331 76.831875 
L 77.165174 87.981863 
L 77.865855 89.06459 
L 78.122269 89.460904 
L 85.541068 100.982163 
L 87.443578 103.974739 
L 90.436155 108.710493 
L 93.111595 112.899735 
L 95.66922 116.910439 
L 101.999335 126.988187 
L 102.13365 127.200822 
L 102.177973 127.271124 
L 102.353727 127.553652 
L 106.98271 134.883287 
L 108.135526 136.73488 
L 110.04724 139.812285 
L 111.737802 142.515308 
L 114.051379 146.268938 
L 114.2713 146.627212 
L 117.361393 151.565426 
L 120.959007 157.432106 
L 122.894153 160.570025 
L 124.143733 162.615165 
L 130.236758 172.487597 
L 133.140759 177.453283 
L 137.228374 184.40517 
L 138.106445 185.927376 
L 141.978367 192.45082 
L 150.024017 206.731924 
L 150.584058 207.680274 
L 150.894676 208.240315 
L 151.91567 210.131967 
L 157.473944 220.157887 
L 158.989149 223.110328 
L 161.94159 228.93359 
L 163.59037 232.07546 
L 161.94159 232.07546 
L 150.024017 232.07546 
L 138.106445 232.07546 
L 132.047824 232.07546 
L 130.050314 228.214018 
L 126.188872 221.143826 
L 121.704453 212.724734 
L 119.207712 208.240315 
L 114.2713 199.495267 
L 113.136567 197.457475 
L 112.497945 196.322742 
L 110.041843 192.093285 
L 105.621443 184.40517 
L 104.417297 182.341601 
L 98.648251 172.487597 
L 95.55227 167.371482 
L 91.43705 160.570025 
L 90.436155 158.92919 
L 87.991933 154.886015 
L 85.137068 150.240029 
L 82.707052 146.268938 
L 81.880938 144.923996 
L 78.518582 139.519808 
L 77.138837 137.286778 
L 76.793463 136.73488 
L 76.215678 135.813718 
L 72.376392 129.657698 
L 70.82501 127.200822 
L 66.60101 120.523653 
L 66.384488 120.180192 
L 66.115361 119.758889 
L 61.754648 112.899735 
L 59.003282 108.57989 
L 54.683437 101.891829 
L 49.655342 94.092686 
L 46.370099 89.06459 
L 42.765865 83.541336 
L 42.765865 79.530532 
L 42.765865 69.996474 
L 42.765865 65.229445 
L 42.765865 60.462416 
L 42.765865 58.078902 
L 42.765865 55.695387 
L 42.765865 53.311873 
L 42.765865 50.928358 
L 42.765865 48.544844 
L 42.765865 46.161329 
L 42.765865 43.777815 
L 42.765865 41.3943 
" clip-path="url(#pe69098f568)" style="fill: #db6b55"/>
   </g>
   <g id="PathCollection_15">
    <path d="M 42.765865 83.541336 
L 46.370099 89.06459 
L 49.655342 94.092686 
L 54.683437 101.891829 
L 59.003282 108.57989 
L 61.754648 112.899735 
L 66.115361 119.758889 
L 66.384488 120.180192 
L 66.60101 120.523653 
L 70.82501 127.200822 
L 72.376392 129.657698 
L 76.215678 135.813718 
L 76.793463 136.73488 
L 77.138837 137.286778 
L 78.518582 139.519808 
L 81.880938 144.923996 
L 82.707052 146.268938 
L 85.137068 150.240029 
L 87.991933 154.886015 
L 90.436155 158.92919 
L 91.43705 160.570025 
L 95.55227 167.371482 
L 98.648251 172.487597 
L 104.417297 182.341601 
L 105.621443 184.40517 
L 110.041843 192.093285 
L 112.497945 196.322742 
L 113.136567 197.457475 
L 114.2713 199.495267 
L 119.207712 208.240315 
L 121.704453 212.724734 
L 126.188872 221.143826 
L 130.050314 228.214018 
L 132.047824 232.07546 
L 126.188872 232.07546 
L 114.2713 232.07546 
L 102.353727 232.07546 
L 101.976652 232.07546 
L 101.516573 231.238305 
L 93.688997 216.905045 
L 90.436155 211.129153 
L 88.81816 208.240315 
L 85.097845 201.661053 
L 82.041161 196.322742 
L 76.356468 186.567284 
L 75.085167 184.40517 
L 70.050703 175.93729 
L 68.011275 172.487597 
L 67.480761 171.607846 
L 66.60101 170.159282 
L 60.797072 160.570025 
L 59.159101 157.884627 
L 54.683437 150.65782 
L 52.707645 147.454414 
L 51.96472 146.268938 
L 51.050597 144.815802 
L 47.734429 139.514483 
L 45.974258 136.73488 
L 43.009146 132.065164 
L 42.911075 131.909767 
L 42.765865 131.682667 
L 42.765865 127.200822 
L 42.765865 120.050279 
L 42.765865 112.899735 
L 42.765865 100.982163 
L 42.765865 89.06459 
" clip-path="url(#pe69098f568)" style="fill: #c53e3d"/>
   </g>
   <g id="PathCollection_16">
    <path d="M 42.765865 131.682667 
L 42.911075 131.909767 
L 43.009146 132.065164 
L 45.974258 136.73488 
L 47.734429 139.514483 
L 51.050597 144.815802 
L 51.96472 146.268938 
L 52.707645 147.454414 
L 54.683437 150.65782 
L 59.159101 157.884627 
L 60.797072 160.570025 
L 66.60101 170.159282 
L 67.480761 171.607846 
L 68.011275 172.487597 
L 70.050703 175.93729 
L 75.085167 184.40517 
L 76.356468 186.567284 
L 82.041161 196.322742 
L 85.097845 201.661053 
L 88.81816 208.240315 
L 90.436155 211.129153 
L 93.688997 216.905045 
L 101.516573 231.238305 
L 101.976652 232.07546 
L 90.436155 232.07546 
L 78.518582 232.07546 
L 72.397251 232.07546 
L 66.60101 221.772042 
L 66.019056 220.739841 
L 64.464309 218.021186 
L 58.884119 208.240315 
L 57.350193 205.57356 
L 54.683437 201.031683 
L 48.563396 190.525211 
L 44.926142 184.40517 
L 42.765865 180.813714 
L 42.765865 172.487597 
L 42.765865 160.570025 
L 42.765865 153.419482 
L 42.765865 146.268938 
L 42.765865 141.501909 
L 42.765865 136.73488 
L 42.765865 131.967851 
" clip-path="url(#pe69098f568)" style="fill: #ab162a"/>
   </g>
   <g id="PathCollection_17">
    <path d="M 42.765865 180.813714 
L 44.926142 184.40517 
L 48.563396 190.525211 
L 54.683437 201.031683 
L 57.350193 205.57356 
L 58.884119 208.240315 
L 64.464309 218.021186 
L 66.019056 220.739841 
L 66.60101 221.772042 
L 72.397251 232.07546 
L 66.60101 232.07546 
L 54.683437 232.07546 
L 42.765865 232.07546 
L 42.765865 220.157887 
L 42.765865 208.240315 
L 42.765865 196.322742 
L 42.765865 184.40517 
" clip-path="url(#pe69098f568)" style="fill: #7c0722"/>
   </g>
   <g id="PathCollection_18">
    <path d="M 42.765865 232.07546 
" clip-path="url(#pe69098f568)" style="fill: #67001f"/>
   </g>
   <g id="PolyCollection_1">
    <path d="M 233.447024 60.462416 
L 233.447024 41.3943 
L 328.787604 41.3943 
L 328.787604 60.462416 
L 328.787604 60.462416 
L 233.447024 60.462416 
z
" clip-path="url(#pe69098f568)" style="fill: url(#hc1395a4735); fill-opacity: 0.3; stroke: #333333; stroke-opacity: 0.3"/>
   </g>
   <g id="PathCollection_19">
    <defs>
     <path id="me497a6fb02" d="M -0 4.1833 
L 4.1833 0 
L 0 -4.1833 
L -4.1833 -0 
z
" style="stroke: #111827"/>
    </defs>
    <g clip-path="url(#pe69098f568)">
     <use xlink:href="#me497a6fb02" x="233.447024" y="136.73488" style="fill: #34d399; stroke: #111827"/>
    </g>
   </g>
   <g id="matplotlib.axis_1">
    <g id="xtick_1">
     <g id="line2d_1">
      <defs>
       <path id="m01cbc0ccd6" d="M 0 0 
L 0 3.5 
" style="stroke: #000000; stroke-width: 0.8"/>
      </defs>
      <g>
       <use xlink:href="#m01cbc0ccd6" x="42.765865" y="232.07546" style="stroke: #000000; stroke-width: 0.8"/>
      </g>
     </g>
     <g id="text_1">
      <!-- 0 -->
      <g transform="translate(39.584615 246.673897) scale(0.1 -0.1)">
       <defs>
        <path id="DejaVuSans-30" d="M 2034 4250 
Q 1547 4250 1301 3770 
Q 1056 3291 1056 2328 
Q 1056 1369 1301 889 
Q 1547 409 2034 409 
Q 2525 409 2770 889 
Q 3016 1369 3016 2328 
Q 3016 3291 2770 3770 
Q 2525 4250 2034 4250 
z
M 2034 4750 
Q 2819 4750 3233 4129 
Q 3647 3509 3647 2328 
Q 3647 1150 3233 529 
Q 2819 -91 2034 -91 
Q 1250 -91 836 529 
Q 422 1150 422 2328 
Q 422 3509 836 4129 
Q 1250 4750 2034 4750 
z
" transform="scale(0.015625)"/>
       </defs>
       <use xlink:href="#DejaVuSans-30"/>
      </g>
     </g>
    </g>
    <g id="xtick_2">
     <g id="line2d_2">
      <g>
       <use xlink:href="#m01cbc0ccd6" x="90.436155" y="232.07546" style="stroke: #000000; stroke-width: 0.8"/>
      </g>
     </g>
     <g id="text_2">
      <!-- 50 -->
      <g transform="translate(84.073655 246.673897) scale(0.1 -0.1)">
       <defs>
        <path id="DejaVuSans-35" d="M 691 4666 
L 3169 4666 
L 3169 4134 
L 1269 4134 
L 1269 2991 
Q 1406 3038 1543 3061 
Q 1681 3084 1819 3084 
Q 2600 3084 3056 2656 
Q 3513 2228 3513 1497 
Q 3513 744 3044 326 
Q 2575 -91 1722 -91 
Q 1428 -91 1123 -41 
Q 819 9 494 109 
L 494 744 
Q 775 591 1075 516 
Q 1375 441 1709 441 
Q 2250 441 2565 725 
Q 2881 1009 2881 1497 
Q 2881 1984 2565 2268 
Q 2250 2553 1709 2553 
Q 1456 2553 1204 2497 
Q 953 2441 691 2322 
L 691 4666 
z
" transform="scale(0.015625)"/>
       </defs>
       <use xlink:href="#DejaVuSans-35"/>
       <use xlink:href="#DejaVuSans-30" x="63.623047"/>
      </g>
     </g>
    </g>
    <g id="xtick_3">
     <g id="line2d_3">
      <g>
       <use xlink:href="#m01cbc0ccd6" x="138.106445" y="232.07546" style="stroke: #000000; stroke-width: 0.8"/>
      </g>
     </g>
     <g id="text_3">
      <!-- 100 -->
      <g transform="translate(128.562695 246.673897) scale(0.1 -0.1)">
       <defs>
        <path id="DejaVuSans-31" d="M 794 531 
L 1825 531 
L 1825 4091 
L 703 3866 
L 703 4441 
L 1819 4666 
L 2450 4666 
L 2450 531 
L 3481 531 
L 3481 0 
L 794 0 
L 794 531 
z
" transform="scale(0.015625)"/>
       </defs>
       <use xlink:href="#DejaVuSans-31"/>
       <use xlink:href="#DejaVuSans-30" x="63.623047"/>
       <use xlink:href="#DejaVuSans-30" x="127.246094"/>
      </g>
     </g>
    </g>
    <g id="xtick_4">
     <g id="line2d_4">
      <g>
       <use xlink:href="#m01cbc0ccd6" x="185.776735" y="232.07546" style="stroke: #000000; stroke-width: 0.8"/>
      </g>
     </g>
     <g id="text_4">
      <!-- 150 -->
      <g transform="translate(176.232985 246.673897) scale(0.1 -0.1)">
       <use xlink:href="#DejaVuSans-31"/>
       <use xlink:href="#DejaVuSans-35" x="63.623047"/>
       <use xlink:href="#DejaVuSans-30" x="127.246094"/>
      </g>
     </g>
    </g>
    <g id="xtick_5">
     <g id="line2d_5">
      <g>
       <use xlink:href="#m01cbc0ccd6" x="233.447024" y="232.07546" style="stroke: #000000; stroke-width: 0.8"/>
      </g>
     </g>
     <g id="text_5">
      <!-- 200 -->
      <g transform="translate(223.903274 246.673897) scale(0.1 -0.1)">
       <defs>
        <path id="DejaVuSans-32" d="M 1228 531 
L 3431 531 
L 3431 0 
L 469 0 
L 469 531 
Q 828 903 1448 1529 
Q 2069 2156 2228 2338 
Q 2531 2678 2651 2914 
Q 2772 3150 2772 3378 
Q 2772 3750 2511 3984 
Q 2250 4219 1831 4219 
Q 1534 4219 1204 4116 
Q 875 4013 500 3803 
L 500 4441 
Q 881 4594 1212 4672 
Q 1544 4750 1819 4750 
Q 2544 4750 2975 4387 
Q 3406 4025 3406 3419 
Q 3406 3131 3298 2873 
Q 3191 2616 2906 2266 
Q 2828 2175 2409 1742 
Q 1991 1309 1228 531 
z
" transform="scale(0.015625)"/>
       </defs>
       <use xlink:href="#DejaVuSans-32"/>
       <use xlink:href="#DejaVuSans-30" x="63.623047"/>
       <use xlink:href="#DejaVuSans-30" x="127.246094"/>
      </g>
     </g>
    </g>
    <g id="xtick_6">
     <g id="line2d_6">
      <g>
       <use xlink:href="#m01cbc0ccd6" x="281.117314" y="232.07546" style="stroke: #000000; stroke-width: 0.8"/>
      </g>
     </g>
     <g id="text_6">
      <!-- 250 -->
      <g transform="translate(271.573564 246.673897) scale(0.1 -0.1)">
       <use xlink:href="#DejaVuSans-32"/>
       <use xlink:href="#DejaVuSans-35" x="63.623047"/>
       <use xlink:href="#DejaVuSans-30" x="127.246094"/>
      </g>
     </g>
    </g>
    <g id="xtick_7">
     <g id="line2d_7">
      <g>
       <use xlink:href="#m01cbc0ccd6" x="328.787604" y="232.07546" style="stroke: #000000; stroke-width: 0.8"/>
      </g>
     </g>
     <g id="text_7">
      <!-- 300 -->
      <g transform="translate(319.243854 246.673897) scale(0.1 -0.1)">
       <defs>
        <path id="DejaVuSans-33" d="M 2597 2516 
Q 3050 2419 3304 2112 
Q 3559 1806 3559 1356 
Q 3559 666 3084 287 
Q 2609 -91 1734 -91 
Q 1441 -91 1130 -33 
Q 819 25 488 141 
L 488 750 
Q 750 597 1062 519 
Q 1375 441 1716 441 
Q 2309 441 2620 675 
Q 2931 909 2931 1356 
Q 2931 1769 2642 2001 
Q 2353 2234 1838 2234 
L 1294 2234 
L 1294 2753 
L 1863 2753 
Q 2328 2753 2575 2939 
Q 2822 3125 2822 3475 
Q 2822 3834 2567 4026 
Q 2313 4219 1838 4219 
Q 1578 4219 1281 4162 
Q 984 4106 628 3988 
L 628 4550 
Q 988 4650 1302 4700 
Q 1616 4750 1894 4750 
Q 2613 4750 3031 4423 
Q 3450 4097 3450 3541 
Q 3450 3153 3228 2886 
Q 3006 2619 2597 2516 
z
" transform="scale(0.015625)"/>
       </defs>
       <use xlink:href="#DejaVuSans-33"/>
       <use xlink:href="#DejaVuSans-30" x="63.623047"/>
       <use xlink:href="#DejaVuSans-30" x="127.246094"/>
      </g>
     </g>
    </g>
    <g id="xtick_8">
     <g id="line2d_8">
      <g>
       <use xlink:href="#m01cbc0ccd6" x="376.457894" y="232.07546" style="stroke: #000000; stroke-width: 0.8"/>
      </g>
     </g>
     <g id="text_8">
      <!-- 350 -->
      <g transform="translate(366.914144 246.673897) scale(0.1 -0.1)">
       <use xlink:href="#DejaVuSans-33"/>
       <use xlink:href="#DejaVuSans-35" x="63.623047"/>
       <use xlink:href="#DejaVuSans-30" x="127.246094"/>
      </g>
     </g>
    </g>
    <g id="xtick_9">
     <g id="line2d_9">
      <g>
       <use xlink:href="#m01cbc0ccd6" x="424.128184" y="232.07546" style="stroke: #000000; stroke-width: 0.8"/>
      </g>
     </g>
     <g id="text_9">
      <!-- 400 -->
      <g transform="translate(414.584434 246.673897) scale(0.1 -0.1)">
       <defs>
        <path id="DejaVuSans-34" d="M 2419 4116 
L 825 1625 
L 2419 1625 
L 2419 4116 
z
M 2253 4666 
L 3047 4666 
L 3047 1625 
L 3713 1625 
L 3713 1100 
L 3047 1100 
L 3047 0 
L 2419 0 
L 2419 1100 
L 313 1100 
L 313 1709 
L 2253 4666 
z
" transform="scale(0.015625)"/>
       </defs>
       <use xlink:href="#DejaVuSans-34"/>
       <use xlink:href="#DejaVuSans-30" x="63.623047"/>
       <use xlink:href="#DejaVuSans-30" x="127.246094"/>
      </g>
     </g>
    </g>
    <g id="text_10">
     <!-- x [mm] -->
     <g transform="translate(215.256399 260.352022) scale(0.1 -0.1)">
      <defs>
       <path id="DejaVuSans-78" d="M 3513 3500 
L 2247 1797 
L 3578 0 
L 2900 0 
L 1881 1375 
L 863 0 
L 184 0 
L 1544 1831 
L 300 3500 
L 978 3500 
L 1906 2253 
L 2834 3500 
L 3513 3500 
z
" transform="scale(0.015625)"/>
       <path id="DejaVuSans-20" transform="scale(0.015625)"/>
       <path id="DejaVuSans-5b" d="M 550 4863 
L 1875 4863 
L 1875 4416 
L 1125 4416 
L 1125 -397 
L 1875 -397 
L 1875 -844 
L 550 -844 
L 550 4863 
z
" transform="scale(0.015625)"/>
       <path id="DejaVuSans-6d" d="M 3328 2828 
Q 3544 3216 3844 3400 
Q 4144 3584 4550 3584 
Q 5097 3584 5394 3201 
Q 5691 2819 5691 2113 
L 5691 0 
L 5113 0 
L 5113 2094 
Q 5113 2597 4934 2840 
Q 4756 3084 4391 3084 
Q 3944 3084 3684 2787 
Q 3425 2491 3425 1978 
L 3425 0 
L 2847 0 
L 2847 2094 
Q 2847 2600 2669 2842 
Q 2491 3084 2119 3084 
Q 1678 3084 1418 2786 
Q 1159 2488 1159 1978 
L 1159 0 
L 581 0 
L 581 3500 
L 1159 3500 
L 1159 2956 
Q 1356 3278 1631 3431 
Q 1906 3584 2284 3584 
Q 2666 3584 2933 3390 
Q 3200 3197 3328 2828 
z
" transform="scale(0.015625)"/>
       <path id="DejaVuSans-5d" d="M 1947 4863 
L 1947 -844 
L 622 -844 
L 622 -397 
L 1369 -397 
L 1369 4416 
L 622 4416 
L 622 4863 
L 1947 4863 
z
" transform="scale(0.015625)"/>
      </defs>
      <use xlink:href="#DejaVuSans-78"/>
      <use xlink:href="#DejaVuSans-20" x="59.179688"/>
      <use xlink:href="#DejaVuSans-5b" x="90.966797"/>
      <use xlink:href="#DejaVuSans-6d" x="129.980469"/>
      <use xlink:href="#DejaVuSans-6d" x="227.392578"/>
      <use xlink:href="#DejaVuSans-5d" x="324.804688"/>
     </g>
    </g>
   </g>
   <g id="matplotlib.axis_2">
    <g id="ytick_1">
     <g id="line2d_10">
      <defs>
       <path id="mf97d6bf44c" d="M 0 0 
L -3.5 0 
" style="stroke: #000000; stroke-width: 0.8"/>
      </defs>
      <g>
       <use xlink:href="#mf97d6bf44c" x="42.765865" y="41.3943" style="stroke: #000000; stroke-width: 0.8"/>
      </g>
     </g>
     <g id="text_11">
      <!-- 0 -->
      <g transform="translate(29.403365 45.193519) scale(0.1 -0.1)">
       <use xlink:href="#DejaVuSans-30"/>
      </g>
     </g>
    </g>
    <g id="ytick_2">
     <g id="line2d_11">
      <g>
       <use xlink:href="#mf97d6bf44c" x="42.765865" y="65.229445" style="stroke: #000000; stroke-width: 0.8"/>
      </g>
     </g>
     <g id="text_12">
      <!-- 25 -->
      <g transform="translate(23.040865 69.028664) scale(0.1 -0.1)">
       <use xlink:href="#DejaVuSans-32"/>
       <use xlink:href="#DejaVuSans-35" x="63.623047"/>
      </g>
     </g>
    </g>
    <g id="ytick_3">
     <g id="line2d_12">
      <g>
       <use xlink:href="#mf97d6bf44c" x="42.765865" y="89.06459" style="stroke: #000000; stroke-width: 0.8"/>
      </g>
     </g>
     <g id="text_13">
      <!-- 50 -->
      <g transform="translate(23.040865 92.863809) scale(0.1 -0.1)">
       <use xlink:href="#DejaVuSans-35"/>
       <use xlink:href="#DejaVuSans-30" x="63.623047"/>
      </g>
     </g>
    </g>
    <g id="ytick_4">
     <g id="line2d_13">
      <g>
       <use xlink:href="#mf97d6bf44c" x="42.765865" y="112.899735" style="stroke: #000000; stroke-width: 0.8"/>
      </g>
     </g>
     <g id="text_14">
      <!-- 75 -->
      <g transform="translate(23.040865 116.698954) scale(0.1 -0.1)">
       <defs>
        <path id="DejaVuSans-37" d="M 525 4666 
L 3525 4666 
L 3525 4397 
L 1831 0 
L 1172 0 
L 2766 4134 
L 525 4134 
L 525 4666 
z
" transform="scale(0.015625)"/>
       </defs>
       <use xlink:href="#DejaVuSans-37"/>
       <use xlink:href="#DejaVuSans-35" x="63.623047"/>
      </g>
     </g>
    </g>
    <g id="ytick_5">
     <g id="line2d_14">
      <g>
       <use xlink:href="#mf97d6bf44c" x="42.765865" y="136.73488" style="stroke: #000000; stroke-width: 0.8"/>
      </g>
     </g>
     <g id="text_15">
      <!-- 100 -->
      <g transform="translate(16.678365 140.534099) scale(0.1 -0.1)">
       <use xlink:href="#DejaVuSans-31"/>
       <use xlink:href="#DejaVuSans-30" x="63.623047"/>
       <use xlink:href="#DejaVuSans-30" x="127.246094"/>
      </g>
     </g>
    </g>
    <g id="ytick_6">
     <g id="line2d_15">
      <g>
       <use xlink:href="#mf97d6bf44c" x="42.765865" y="160.570025" style="stroke: #000000; stroke-width: 0.8"/>
      </g>
     </g>
     <g id="text_16">
      <!-- 125 -->
      <g transform="translate(16.678365 164.369244) scale(0.1 -0.1)">
       <use xlink:href="#DejaVuSans-31"/>
       <use xlink:href="#DejaVuSans-32" x="63.623047"/>
       <use xlink:href="#DejaVuSans-35" x="127.246094"/>
      </g>
     </g>
    </g>
    <g id="ytick_7">
     <g id="line2d_16">
      <g>
       <use xlink:href="#mf97d6bf44c" x="42.765865" y="184.40517" style="stroke: #000000; stroke-width: 0.8"/>
      </g>
     </g>
     <g id="text_17">
      <!-- 150 -->
      <g transform="translate(16.678365 188.204389) scale(0.1 -0.1)">
       <use xlink:href="#DejaVuSans-31"/>
       <use xlink:href="#DejaVuSans-35" x="63.623047"/>
       <use xlink:href="#DejaVuSans-30" x="127.246094"/>
      </g>
     </g>
    </g>
    <g id="ytick_8">
     <g id="line2d_17">
      <g>
       <use xlink:href="#mf97d6bf44c" x="42.765865" y="208.240315" style="stroke: #000000; stroke-width: 0.8"/>
      </g>
     </g>
     <g id="text_18">
      <!-- 175 -->
      <g transform="translate(16.678365 212.039534) scale(0.1 -0.1)">
       <use xlink:href="#DejaVuSans-31"/>
       <use xlink:href="#DejaVuSans-37" x="63.623047"/>
       <use xlink:href="#DejaVuSans-35" x="127.246094"/>
      </g>
     </g>
    </g>
    <g id="ytick_9">
     <g id="line2d_18">
      <g>
       <use xlink:href="#mf97d6bf44c" x="42.765865" y="232.07546" style="stroke: #000000; stroke-width: 0.8"/>
      </g>
     </g>
     <g id="text_19">
      <!-- 200 -->
      <g transform="translate(16.678365 235.874679) scale(0.1 -0.1)">
       <use xlink:href="#DejaVuSans-32"/>
       <use xlink:href="#DejaVuSans-30" x="63.623047"/>
       <use xlink:href="#DejaVuSans-30" x="127.246094"/>
      </g>
     </g>
    </g>
    <g id="text_20">
     <!-- y [mm] -->
     <g transform="translate(10.598678 154.925505) rotate(-90) scale(0.1 -0.1)">
      <defs>
       <path id="DejaVuSans-79" d="M 2059 -325 
Q 1816 -950 1584 -1140 
Q 1353 -1331 966 -1331 
L 506 -1331 
L 506 -850 
L 844 -850 
Q 1081 -850 1212 -737 
Q 1344 -625 1503 -206 
L 1606 56 
L 191 3500 
L 800 3500 
L 1894 763 
L 2988 3500 
L 3597 3500 
L 2059 -325 
z
" transform="scale(0.015625)"/>
      </defs>
      <use xlink:href="#DejaVuSans-79"/>
      <use xlink:href="#DejaVuSans-20" x="59.179688"/>
      <use xlink:href="#DejaVuSans-5b" x="90.966797"/>
      <use xlink:href="#DejaVuSans-6d" x="129.980469"/>
      <use xlink:href="#DejaVuSans-6d" x="227.392578"/>
      <use xlink:href="#DejaVuSans-5d" x="324.804688"/>
     </g>
    </g>
   </g>
   <g id="PathCollection_20">
    <path d="M 212.741943 41.3943 
L 214.638399 42.102308 
L 216.762423 43.604703 
L 221.580255 44.555385 
L 223.604153 46.161329 
L 223.912967 46.424673 
L 227.561116 46.720769 
L 228.679996 48.193727 
L 233.447024 48.544844 
L 233.447024 46.161329 
L 233.447024 43.777815 
L 233.447024 41.3943 
" clip-path="url(#pe69098f568)" style="fill: none; stroke: #263238; stroke-width: 0.55"/>
    <path d="M 328.787604 41.3943 
L 328.787604 43.777815 
L 328.787604 46.161329 
L 328.787604 48.544844 
L 328.787604 50.928358 
L 328.787604 53.311873 
L 328.787604 55.695387 
L 328.787604 58.078902 
L 328.787604 60.462416 
L 324.020575 60.462416 
L 321.256768 65.229445 
L 322.445671 68.42157 
L 323.369775 69.996474 
L 323.86406 70.309506 
L 325.12574 79.530532 
L 327.407197 82.291347 
L 328.787604 87.151773 
L 329.256162 89.06459 
L 331.910088 93.175953 
L 334.652438 100.982163 
L 336.988613 104.314786 
L 338.321662 107.267812 
L 340.749528 112.899735 
L 342.543739 115.828202 
L 344.340737 120.050279 
L 347.354534 125.318494 
L 348.142263 127.200822 
L 349.44778 129.851205 
L 351.18345 132.927384 
L 352.622749 135.844698 
L 353.054181 136.73488 
L 355.071733 140.522315 
L 356.082599 142.885849 
L 357.878409 146.268938 
L 359.597015 149.234922 
L 364.540322 159.608226 
L 364.888275 160.361253 
L 364.96955 160.570025 
L 365.311609 161.341312 
L 370.776602 172.487597 
L 372.720052 176.22544 
L 376.251234 184.40517 
L 376.457894 184.846146 
L 380.166743 192.613894 
L 385.511584 205.376432 
L 386.809259 208.240315 
L 387.303802 209.311979 
L 391.910337 220.157887 
L 394.270493 226.180433 
L 396.480065 232.07546 
" clip-path="url(#pe69098f568)" style="fill: none; stroke: #263238; stroke-width: 0.55"/>
   </g>
   <g id="patch_3">
    <path d="M 42.765865 232.07546 
L 42.765865 41.3943 
" style="fill: none; stroke: #000000; stroke-width: 0.8; stroke-linejoin: miter; stroke-linecap: square"/>
   </g>
   <g id="patch_4">
    <path d="M 424.128184 232.07546 
L 424.128184 41.3943 
" style="fill: none; stroke: #000000; stroke-width: 0.8; stroke-linejoin: miter; stroke-linecap: square"/>
   </g>
   <g id="patch_5">
    <path d="M 42.765865 232.07546 
L 424.128184 232.07546 
" style="fill: none; stroke: #000000; stroke-width: 0.8; stroke-linejoin: miter; stroke-linecap: square"/>
   </g>
   <g id="patch_6">
    <path d="M 42.765865 41.3943 
L 424.128184 41.3943 
" style="fill: none; stroke: #000000; stroke-width: 0.8; stroke-linejoin: miter; stroke-linecap: square"/>
   </g>
   <g id="text_21">
    <!-- CalculiX C3D20R — Mode 1: 13.35 Hz -->
    <g transform="translate(120.469837 35.3943) scale(0.12 -0.12)">
     <defs>
      <path id="DejaVuSans-43" d="M 4122 4306 
L 4122 3641 
Q 3803 3938 3442 4084 
Q 3081 4231 2675 4231 
Q 1875 4231 1450 3742 
Q 1025 3253 1025 2328 
Q 1025 1406 1450 917 
Q 1875 428 2675 428 
Q 3081 428 3442 575 
Q 3803 722 4122 1019 
L 4122 359 
Q 3791 134 3420 21 
Q 3050 -91 2638 -91 
Q 1578 -91 968 557 
Q 359 1206 359 2328 
Q 359 3453 968 4101 
Q 1578 4750 2638 4750 
Q 3056 4750 3426 4639 
Q 3797 4528 4122 4306 
z
" transform="scale(0.015625)"/>
      <path id="DejaVuSans-61" d="M 2194 1759 
Q 1497 1759 1228 1600 
Q 959 1441 959 1056 
Q 959 750 1161 570 
Q 1363 391 1709 391 
Q 2188 391 2477 730 
Q 2766 1069 2766 1631 
L 2766 1759 
L 2194 1759 
z
M 3341 1997 
L 3341 0 
L 2766 0 
L 2766 531 
Q 2569 213 2275 61 
Q 1981 -91 1556 -91 
Q 1019 -91 701 211 
Q 384 513 384 1019 
Q 384 1609 779 1909 
Q 1175 2209 1959 2209 
L 2766 2209 
L 2766 2266 
Q 2766 2663 2505 2880 
Q 2244 3097 1772 3097 
Q 1472 3097 1187 3025 
Q 903 2953 641 2809 
L 641 3341 
Q 956 3463 1253 3523 
Q 1550 3584 1831 3584 
Q 2591 3584 2966 3190 
Q 3341 2797 3341 1997 
z
" transform="scale(0.015625)"/>
      <path id="DejaVuSans-6c" d="M 603 4863 
L 1178 4863 
L 1178 0 
L 603 0 
L 603 4863 
z
" transform="scale(0.015625)"/>
      <path id="DejaVuSans-63" d="M 3122 3366 
L 3122 2828 
Q 2878 2963 2633 3030 
Q 2388 3097 2138 3097 
Q 1578 3097 1268 2742 
Q 959 2388 959 1747 
Q 959 1106 1268 751 
Q 1578 397 2138 397 
Q 2388 397 2633 464 
Q 2878 531 3122 666 
L 3122 134 
Q 2881 22 2623 -34 
Q 2366 -91 2075 -91 
Q 1284 -91 818 406 
Q 353 903 353 1747 
Q 353 2603 823 3093 
Q 1294 3584 2113 3584 
Q 2378 3584 2631 3529 
Q 2884 3475 3122 3366 
z
" transform="scale(0.015625)"/>
      <path id="DejaVuSans-75" d="M 544 1381 
L 544 3500 
L 1119 3500 
L 1119 1403 
Q 1119 906 1312 657 
Q 1506 409 1894 409 
Q 2359 409 2629 706 
Q 2900 1003 2900 1516 
L 2900 3500 
L 3475 3500 
L 3475 0 
L 2900 0 
L 2900 538 
Q 2691 219 2414 64 
Q 2138 -91 1772 -91 
Q 1169 -91 856 284 
Q 544 659 544 1381 
z
M 1991 3584 
L 1991 3584 
z
" transform="scale(0.015625)"/>
      <path id="DejaVuSans-69" d="M 603 3500 
L 1178 3500 
L 1178 0 
L 603 0 
L 603 3500 
z
M 603 4863 
L 1178 4863 
L 1178 4134 
L 603 4134 
L 603 4863 
z
" transform="scale(0.015625)"/>
      <path id="DejaVuSans-58" d="M 403 4666 
L 1081 4666 
L 2241 2931 
L 3406 4666 
L 4084 4666 
L 2584 2425 
L 4184 0 
L 3506 0 
L 2194 1984 
L 872 0 
L 191 0 
L 1856 2491 
L 403 4666 
z
" transform="scale(0.015625)"/>
      <path id="DejaVuSans-44" d="M 1259 4147 
L 1259 519 
L 2022 519 
Q 2988 519 3436 956 
Q 3884 1394 3884 2338 
Q 3884 3275 3436 3711 
Q 2988 4147 2022 4147 
L 1259 4147 
z
M 628 4666 
L 1925 4666 
Q 3281 4666 3915 4102 
Q 4550 3538 4550 2338 
Q 4550 1131 3912 565 
Q 3275 0 1925 0 
L 628 0 
L 628 4666 
z
" transform="scale(0.015625)"/>
      <path id="DejaVuSans-52" d="M 2841 2188 
Q 3044 2119 3236 1894 
Q 3428 1669 3622 1275 
L 4263 0 
L 3584 0 
L 2988 1197 
Q 2756 1666 2539 1819 
Q 2322 1972 1947 1972 
L 1259 1972 
L 1259 0 
L 628 0 
L 628 4666 
L 2053 4666 
Q 2853 4666 3247 4331 
Q 3641 3997 3641 3322 
Q 3641 2881 3436 2590 
Q 3231 2300 2841 2188 
z
M 1259 4147 
L 1259 2491 
L 2053 2491 
Q 2509 2491 2742 2702 
Q 2975 2913 2975 3322 
Q 2975 3731 2742 3939 
Q 2509 4147 2053 4147 
L 1259 4147 
z
" transform="scale(0.015625)"/>
      <path id="DejaVuSans-2014" d="M 313 1978 
L 6088 1978 
L 6088 1528 
L 313 1528 
L 313 1978 
z
" transform="scale(0.015625)"/>
      <path id="DejaVuSans-4d" d="M 628 4666 
L 1569 4666 
L 2759 1491 
L 3956 4666 
L 4897 4666 
L 4897 0 
L 4281 0 
L 4281 4097 
L 3078 897 
L 2444 897 
L 1241 4097 
L 1241 0 
L 628 0 
L 628 4666 
z
" transform="scale(0.015625)"/>
      <path id="DejaVuSans-6f" d="M 1959 3097 
Q 1497 3097 1228 2736 
Q 959 2375 959 1747 
Q 959 1119 1226 758 
Q 1494 397 1959 397 
Q 2419 397 2687 759 
Q 2956 1122 2956 1747 
Q 2956 2369 2687 2733 
Q 2419 3097 1959 3097 
z
M 1959 3584 
Q 2709 3584 3137 3096 
Q 3566 2609 3566 1747 
Q 3566 888 3137 398 
Q 2709 -91 1959 -91 
Q 1206 -91 779 398 
Q 353 888 353 1747 
Q 353 2609 779 3096 
Q 1206 3584 1959 3584 
z
" transform="scale(0.015625)"/>
      <path id="DejaVuSans-64" d="M 2906 2969 
L 2906 4863 
L 3481 4863 
L 3481 0 
L 2906 0 
L 2906 525 
Q 2725 213 2448 61 
Q 2172 -91 1784 -91 
Q 1150 -91 751 415 
Q 353 922 353 1747 
Q 353 2572 751 3078 
Q 1150 3584 1784 3584 
Q 2172 3584 2448 3432 
Q 2725 3281 2906 2969 
z
M 947 1747 
Q 947 1113 1208 752 
Q 1469 391 1925 391 
Q 2381 391 2643 752 
Q 2906 1113 2906 1747 
Q 2906 2381 2643 2742 
Q 2381 3103 1925 3103 
Q 1469 3103 1208 2742 
Q 947 2381 947 1747 
z
" transform="scale(0.015625)"/>
      <path id="DejaVuSans-65" d="M 3597 1894 
L 3597 1613 
L 953 1613 
Q 991 1019 1311 708 
Q 1631 397 2203 397 
Q 2534 397 2845 478 
Q 3156 559 3463 722 
L 3463 178 
Q 3153 47 2828 -22 
Q 2503 -91 2169 -91 
Q 1331 -91 842 396 
Q 353 884 353 1716 
Q 353 2575 817 3079 
Q 1281 3584 2069 3584 
Q 2775 3584 3186 3129 
Q 3597 2675 3597 1894 
z
M 3022 2063 
Q 3016 2534 2758 2815 
Q 2500 3097 2075 3097 
Q 1594 3097 1305 2825 
Q 1016 2553 972 2059 
L 3022 2063 
z
" transform="scale(0.015625)"/>
      <path id="DejaVuSans-3a" d="M 750 794 
L 1409 794 
L 1409 0 
L 750 0 
L 750 794 
z
M 750 3309 
L 1409 3309 
L 1409 2516 
L 750 2516 
L 750 3309 
z
" transform="scale(0.015625)"/>
      <path id="DejaVuSans-2e" d="M 684 794 
L 1344 794 
L 1344 0 
L 684 0 
L 684 794 
z
" transform="scale(0.015625)"/>
      <path id="DejaVuSans-48" d="M 628 4666 
L 1259 4666 
L 1259 2753 
L 3553 2753 
L 3553 4666 
L 4184 4666 
L 4184 0 
L 3553 0 
L 3553 2222 
L 1259 2222 
L 1259 0 
L 628 0 
L 628 4666 
z
" transform="scale(0.015625)"/>
      <path id="DejaVuSans-7a" d="M 353 3500 
L 3084 3500 
L 3084 2975 
L 922 459 
L 3084 459 
L 3084 0 
L 275 0 
L 275 525 
L 2438 3041 
L 353 3041 
L 353 3500 
z
" transform="scale(0.015625)"/>
     </defs>
     <use xlink:href="#DejaVuSans-43"/>
     <use xlink:href="#DejaVuSans-61" x="69.824219"/>
     <use xlink:href="#DejaVuSans-6c" x="131.103516"/>
     <use xlink:href="#DejaVuSans-63" x="158.886719"/>
     <use xlink:href="#DejaVuSans-75" x="213.867188"/>
     <use xlink:href="#DejaVuSans-6c" x="277.246094"/>
     <use xlink:href="#DejaVuSans-69" x="305.029297"/>
     <use xlink:href="#DejaVuSans-58" x="332.8125"/>
     <use xlink:href="#DejaVuSans-20" x="401.318359"/>
     <use xlink:href="#DejaVuSans-43" x="433.105469"/>
     <use xlink:href="#DejaVuSans-33" x="502.929688"/>
     <use xlink:href="#DejaVuSans-44" x="566.552734"/>
     <use xlink:href="#DejaVuSans-32" x="643.554688"/>
     <use xlink:href="#DejaVuSans-30" x="707.177734"/>
     <use xlink:href="#DejaVuSans-52" x="770.800781"/>
     <use xlink:href="#DejaVuSans-20" x="840.283203"/>
     <use xlink:href="#DejaVuSans-2014" x="872.070312"/>
     <use xlink:href="#DejaVuSans-20" x="972.070312"/>
     <use xlink:href="#DejaVuSans-4d" x="1003.857422"/>
     <use xlink:href="#DejaVuSans-6f" x="1090.136719"/>
     <use xlink:href="#DejaVuSans-64" x="1151.318359"/>
     <use xlink:href="#DejaVuSans-65" x="1214.794922"/>
     <use xlink:href="#DejaVuSans-20" x="1276.318359"/>
     <use xlink:href="#DejaVuSans-31" x="1308.105469"/>
     <use xlink:href="#DejaVuSans-3a" x="1371.728516"/>
     <use xlink:href="#DejaVuSans-20" x="1405.419922"/>
     <use xlink:href="#DejaVuSans-31" x="1437.207031"/>
     <use xlink:href="#DejaVuSans-33" x="1500.830078"/>
     <use xlink:href="#DejaVuSans-2e" x="1564.453125"/>
     <use xlink:href="#DejaVuSans-33" x="1596.240234"/>
     <use xlink:href="#DejaVuSans-35" x="1659.863281"/>
     <use xlink:href="#DejaVuSans-20" x="1723.486328"/>
     <use xlink:href="#DejaVuSans-48" x="1755.273438"/>
     <use xlink:href="#DejaVuSans-7a" x="1830.46875"/>
    </g>
   </g>
  </g>
  <g id="axes_2">
   <g id="patch_7">
    <path d="M 452.74005 231.564898 
L 463.171352 231.564898 
L 463.171352 41.904863 
L 452.74005 41.904863 
z
" style="fill: #ffffff"/>
   </g>
   <g id="patch_8">
    <path clip-path="url(#pdadf8e7c21)" style="fill: #ffffff; stroke: #ffffff; stroke-width: 0.01; stroke-linejoin: miter"/>
   </g>
   <g id="patch_9">
    <path d="M 452.74005 231.564898 
L 457.955701 241.047899 
L 463.171352 231.564898 
" style="fill: #053061"/>
   </g>
   <g id="patch_10">
    <path d="M 452.74005 41.904863 
L 457.955701 32.421861 
L 463.171352 41.904863 
" style="fill: #67001f"/>
   </g>
   <g id="QuadMesh_1">
    <path d="M 452.74005 231.564898 
L 463.171352 231.564898 
L 463.171352 219.711145 
L 452.74005 219.711145 
L 452.74005 231.564898 
" clip-path="url(#pdadf8e7c21)" style="fill: #0e4179"/>
    <path d="M 452.74005 219.711145 
L 463.171352 219.711145 
L 463.171352 207.857393 
L 452.74005 207.857393 
L 452.74005 219.711145 
" clip-path="url(#pdadf8e7c21)" style="fill: #1f63a8"/>
    <path d="M 452.74005 207.857393 
L 463.171352 207.857393 
L 463.171352 196.003641 
L 452.74005 196.003641 
L 452.74005 207.857393 
" clip-path="url(#pdadf8e7c21)" style="fill: #3480b9"/>
    <path d="M 452.74005 196.003641 
L 463.171352 196.003641 
L 463.171352 184.149889 
L 452.74005 184.149889 
L 452.74005 196.003641 
" clip-path="url(#pdadf8e7c21)" style="fill: #529dc8"/>
    <path d="M 452.74005 184.149889 
L 463.171352 184.149889 
L 463.171352 172.296137 
L 452.74005 172.296137 
L 452.74005 184.149889 
" clip-path="url(#pdadf8e7c21)" style="fill: #84bcd9"/>
    <path d="M 452.74005 172.296137 
L 463.171352 172.296137 
L 463.171352 160.442384 
L 452.74005 160.442384 
L 452.74005 172.296137 
" clip-path="url(#pdadf8e7c21)" style="fill: #aed3e6"/>
    <path d="M 452.74005 160.442384 
L 463.171352 160.442384 
L 463.171352 148.588632 
L 452.74005 148.588632 
L 452.74005 160.442384 
" clip-path="url(#pdadf8e7c21)" style="fill: #d4e6f1"/>
    <path d="M 452.74005 148.588632 
L 463.171352 148.588632 
L 463.171352 136.73488 
L 452.74005 136.73488 
L 452.74005 148.588632 
" clip-path="url(#pdadf8e7c21)" style="fill: #ecf2f5"/>
    <path d="M 452.74005 136.73488 
L 463.171352 136.73488 
L 463.171352 124.881128 
L 452.74005 124.881128 
L 452.74005 136.73488 
" clip-path="url(#pdadf8e7c21)" style="fill: #f9eee7"/>
    <path d="M 452.74005 124.881128 
L 463.171352 124.881128 
L 463.171352 113.027376 
L 452.74005 113.027376 
L 452.74005 124.881128 
" clip-path="url(#pdadf8e7c21)" style="fill: #fddcc9"/>
    <path d="M 452.74005 113.027376 
L 463.171352 113.027376 
L 463.171352 101.173624 
L 452.74005 101.173624 
L 452.74005 113.027376 
" clip-path="url(#pdadf8e7c21)" style="fill: #f8bb9e"/>
    <path d="M 452.74005 101.173624 
L 463.171352 101.173624 
L 463.171352 89.319871 
L 452.74005 89.319871 
L 452.74005 101.173624 
" clip-path="url(#pdadf8e7c21)" style="fill: #ee9677"/>
    <path d="M 452.74005 89.319871 
L 463.171352 89.319871 
L 463.171352 77.466119 
L 452.74005 77.466119 
L 452.74005 89.319871 
" clip-path="url(#pdadf8e7c21)" style="fill: #db6b55"/>
    <path d="M 452.74005 77.466119 
L 463.171352 77.466119 
L 463.171352 65.612367 
L 452.74005 65.612367 
L 452.74005 77.466119 
" clip-path="url(#pdadf8e7c21)" style="fill: #c53e3d"/>
    <path d="M 452.74005 65.612367 
L 463.171352 65.612367 
L 463.171352 53.758615 
L 452.74005 53.758615 
L 452.74005 65.612367 
" clip-path="url(#pdadf8e7c21)" style="fill: #ab162a"/>
    <path d="M 452.74005 53.758615 
L 463.171352 53.758615 
L 463.171352 41.904863 
L 452.74005 41.904863 
L 452.74005 53.758615 
" clip-path="url(#pdadf8e7c21)" style="fill: #7c0722"/>
   </g>
   <g id="matplotlib.axis_3"/>
   <g id="matplotlib.axis_4">
    <g id="ytick_10">
     <g id="line2d_19">
      <defs>
       <path id="ma3b2ff7733" d="M 0 0 
L 3.5 0 
" style="stroke: #000000; stroke-width: 0.8"/>
      </defs>
      <g>
       <use xlink:href="#ma3b2ff7733" x="463.171352" y="231.564898" style="stroke: #000000; stroke-width: 0.8"/>
      </g>
     </g>
     <g id="text_22">
      <!-- −1.00 -->
      <g transform="translate(470.171352 235.364116) scale(0.1 -0.1)">
       <defs>
        <path id="DejaVuSans-2212" d="M 678 2272 
L 4684 2272 
L 4684 1741 
L 678 1741 
L 678 2272 
z
" transform="scale(0.015625)"/>
       </defs>
       <use xlink:href="#DejaVuSans-2212"/>
       <use xlink:href="#DejaVuSans-31" x="83.789062"/>
       <use xlink:href="#DejaVuSans-2e" x="147.412109"/>
       <use xlink:href="#DejaVuSans-30" x="179.199219"/>
       <use xlink:href="#DejaVuSans-30" x="242.822266"/>
      </g>
     </g>
    </g>
    <g id="ytick_11">
     <g id="line2d_20">
      <g>
       <use xlink:href="#ma3b2ff7733" x="463.171352" y="207.857393" style="stroke: #000000; stroke-width: 0.8"/>
      </g>
     </g>
     <g id="text_23">
      <!-- −0.75 -->
      <g transform="translate(470.171352 211.656612) scale(0.1 -0.1)">
       <use xlink:href="#DejaVuSans-2212"/>
       <use xlink:href="#DejaVuSans-30" x="83.789062"/>
       <use xlink:href="#DejaVuSans-2e" x="147.412109"/>
       <use xlink:href="#DejaVuSans-37" x="179.199219"/>
       <use xlink:href="#DejaVuSans-35" x="242.822266"/>
      </g>
     </g>
    </g>
    <g id="ytick_12">
     <g id="line2d_21">
      <g>
       <use xlink:href="#ma3b2ff7733" x="463.171352" y="184.149889" style="stroke: #000000; stroke-width: 0.8"/>
      </g>
     </g>
     <g id="text_24">
      <!-- −0.50 -->
      <g transform="translate(470.171352 187.949108) scale(0.1 -0.1)">
       <use xlink:href="#DejaVuSans-2212"/>
       <use xlink:href="#DejaVuSans-30" x="83.789062"/>
       <use xlink:href="#DejaVuSans-2e" x="147.412109"/>
       <use xlink:href="#DejaVuSans-35" x="179.199219"/>
       <use xlink:href="#DejaVuSans-30" x="242.822266"/>
      </g>
     </g>
    </g>
    <g id="ytick_13">
     <g id="line2d_22">
      <g>
       <use xlink:href="#ma3b2ff7733" x="463.171352" y="160.442384" style="stroke: #000000; stroke-width: 0.8"/>
      </g>
     </g>
     <g id="text_25">
      <!-- −0.25 -->
      <g transform="translate(470.171352 164.241603) scale(0.1 -0.1)">
       <use xlink:href="#DejaVuSans-2212"/>
       <use xlink:href="#DejaVuSans-30" x="83.789062"/>
       <use xlink:href="#DejaVuSans-2e" x="147.412109"/>
       <use xlink:href="#DejaVuSans-32" x="179.199219"/>
       <use xlink:href="#DejaVuSans-35" x="242.822266"/>
      </g>
     </g>
    </g>
    <g id="ytick_14">
     <g id="line2d_23">
      <g>
       <use xlink:href="#ma3b2ff7733" x="463.171352" y="136.73488" style="stroke: #000000; stroke-width: 0.8"/>
      </g>
     </g>
     <g id="text_26">
      <!-- 0.00 -->
      <g transform="translate(470.171352 140.534099) scale(0.1 -0.1)">
       <use xlink:href="#DejaVuSans-30"/>
       <use xlink:href="#DejaVuSans-2e" x="63.623047"/>
       <use xlink:href="#DejaVuSans-30" x="95.410156"/>
       <use xlink:href="#DejaVuSans-30" x="159.033203"/>
      </g>
     </g>
    </g>
    <g id="ytick_15">
     <g id="line2d_24">
      <g>
       <use xlink:href="#ma3b2ff7733" x="463.171352" y="113.027376" style="stroke: #000000; stroke-width: 0.8"/>
      </g>
     </g>
     <g id="text_27">
      <!-- 0.25 -->
      <g transform="translate(470.171352 116.826594) scale(0.1 -0.1)">
       <use xlink:href="#DejaVuSans-30"/>
       <use xlink:href="#DejaVuSans-2e" x="63.623047"/>
       <use xlink:href="#DejaVuSans-32" x="95.410156"/>
       <use xlink:href="#DejaVuSans-35" x="159.033203"/>
      </g>
     </g>
    </g>
    <g id="ytick_16">
     <g id="line2d_25">
      <g>
       <use xlink:href="#ma3b2ff7733" x="463.171352" y="89.319871" style="stroke: #000000; stroke-width: 0.8"/>
      </g>
     </g>
     <g id="text_28">
      <!-- 0.50 -->
      <g transform="translate(470.171352 93.11909) scale(0.1 -0.1)">
       <use xlink:href="#DejaVuSans-30"/>
       <use xlink:href="#DejaVuSans-2e" x="63.623047"/>
       <use xlink:href="#DejaVuSans-35" x="95.410156"/>
       <use xlink:href="#DejaVuSans-30" x="159.033203"/>
      </g>
     </g>
    </g>
    <g id="ytick_17">
     <g id="line2d_26">
      <g>
       <use xlink:href="#ma3b2ff7733" x="463.171352" y="65.612367" style="stroke: #000000; stroke-width: 0.8"/>
      </g>
     </g>
     <g id="text_29">
      <!-- 0.75 -->
      <g transform="translate(470.171352 69.411586) scale(0.1 -0.1)">
       <use xlink:href="#DejaVuSans-30"/>
       <use xlink:href="#DejaVuSans-2e" x="63.623047"/>
       <use xlink:href="#DejaVuSans-37" x="95.410156"/>
       <use xlink:href="#DejaVuSans-35" x="159.033203"/>
      </g>
     </g>
    </g>
    <g id="ytick_18">
     <g id="line2d_27">
      <g>
       <use xlink:href="#ma3b2ff7733" x="463.171352" y="41.904863" style="stroke: #000000; stroke-width: 0.8"/>
      </g>
     </g>
     <g id="text_30">
      <!-- 1.00 -->
      <g transform="translate(470.171352 45.704081) scale(0.1 -0.1)">
       <use xlink:href="#DejaVuSans-31"/>
       <use xlink:href="#DejaVuSans-2e" x="63.623047"/>
       <use xlink:href="#DejaVuSans-30" x="95.410156"/>
       <use xlink:href="#DejaVuSans-30" x="159.033203"/>
      </g>
     </g>
    </g>
    <g id="text_31">
     <!-- normalized z displacement -->
     <g transform="translate(512.415102 204.017693) rotate(-90) scale(0.1 -0.1)">
      <defs>
       <path id="DejaVuSans-6e" d="M 3513 2113 
L 3513 0 
L 2938 0 
L 2938 2094 
Q 2938 2591 2744 2837 
Q 2550 3084 2163 3084 
Q 1697 3084 1428 2787 
Q 1159 2491 1159 1978 
L 1159 0 
L 581 0 
L 581 3500 
L 1159 3500 
L 1159 2956 
Q 1366 3272 1645 3428 
Q 1925 3584 2291 3584 
Q 2894 3584 3203 3211 
Q 3513 2838 3513 2113 
z
" transform="scale(0.015625)"/>
       <path id="DejaVuSans-72" d="M 2631 2963 
Q 2534 3019 2420 3045 
Q 2306 3072 2169 3072 
Q 1681 3072 1420 2755 
Q 1159 2438 1159 1844 
L 1159 0 
L 581 0 
L 581 3500 
L 1159 3500 
L 1159 2956 
Q 1341 3275 1631 3429 
Q 1922 3584 2338 3584 
Q 2397 3584 2469 3576 
Q 2541 3569 2628 3553 
L 2631 2963 
z
" transform="scale(0.015625)"/>
       <path id="DejaVuSans-73" d="M 2834 3397 
L 2834 2853 
Q 2591 2978 2328 3040 
Q 2066 3103 1784 3103 
Q 1356 3103 1142 2972 
Q 928 2841 928 2578 
Q 928 2378 1081 2264 
Q 1234 2150 1697 2047 
L 1894 2003 
Q 2506 1872 2764 1633 
Q 3022 1394 3022 966 
Q 3022 478 2636 193 
Q 2250 -91 1575 -91 
Q 1294 -91 989 -36 
Q 684 19 347 128 
L 347 722 
Q 666 556 975 473 
Q 1284 391 1588 391 
Q 1994 391 2212 530 
Q 2431 669 2431 922 
Q 2431 1156 2273 1281 
Q 2116 1406 1581 1522 
L 1381 1569 
Q 847 1681 609 1914 
Q 372 2147 372 2553 
Q 372 3047 722 3315 
Q 1072 3584 1716 3584 
Q 2034 3584 2315 3537 
Q 2597 3491 2834 3397 
z
" transform="scale(0.015625)"/>
       <path id="DejaVuSans-70" d="M 1159 525 
L 1159 -1331 
L 581 -1331 
L 581 3500 
L 1159 3500 
L 1159 2969 
Q 1341 3281 1617 3432 
Q 1894 3584 2278 3584 
Q 2916 3584 3314 3078 
Q 3713 2572 3713 1747 
Q 3713 922 3314 415 
Q 2916 -91 2278 -91 
Q 1894 -91 1617 61 
Q 1341 213 1159 525 
z
M 3116 1747 
Q 3116 2381 2855 2742 
Q 2594 3103 2138 3103 
Q 1681 3103 1420 2742 
Q 1159 2381 1159 1747 
Q 1159 1113 1420 752 
Q 1681 391 2138 391 
Q 2594 391 2855 752 
Q 3116 1113 3116 1747 
z
" transform="scale(0.015625)"/>
       <path id="DejaVuSans-74" d="M 1172 4494 
L 1172 3500 
L 2356 3500 
L 2356 3053 
L 1172 3053 
L 1172 1153 
Q 1172 725 1289 603 
Q 1406 481 1766 481 
L 2356 481 
L 2356 0 
L 1766 0 
Q 1100 0 847 248 
Q 594 497 594 1153 
L 594 3053 
L 172 3053 
L 172 3500 
L 594 3500 
L 594 4494 
L 1172 4494 
z
" transform="scale(0.015625)"/>
      </defs>
      <use xlink:href="#DejaVuSans-6e"/>
      <use xlink:href="#DejaVuSans-6f" x="63.378906"/>
      <use xlink:href="#DejaVuSans-72" x="124.560547"/>
      <use xlink:href="#DejaVuSans-6d" x="163.923828"/>
      <use xlink:href="#DejaVuSans-61" x="261.335938"/>
      <use xlink:href="#DejaVuSans-6c" x="322.615234"/>
      <use xlink:href="#DejaVuSans-69" x="350.398438"/>
      <use xlink:href="#DejaVuSans-7a" x="378.181641"/>
      <use xlink:href="#DejaVuSans-65" x="430.671875"/>
      <use xlink:href="#DejaVuSans-64" x="492.195312"/>
      <use xlink:href="#DejaVuSans-20" x="555.671875"/>
      <use xlink:href="#DejaVuSans-7a" x="587.458984"/>
      <use xlink:href="#DejaVuSans-20" x="639.949219"/>
      <use xlink:href="#DejaVuSans-64" x="671.736328"/>
      <use xlink:href="#DejaVuSans-69" x="735.212891"/>
      <use xlink:href="#DejaVuSans-73" x="762.996094"/>
      <use xlink:href="#DejaVuSans-70" x="815.095703"/>
      <use xlink:href="#DejaVuSans-6c" x="878.572266"/>
      <use xlink:href="#DejaVuSans-61" x="906.355469"/>
      <use xlink:href="#DejaVuSans-63" x="967.634766"/>
      <use xlink:href="#DejaVuSans-65" x="1022.615234"/>
      <use xlink:href="#DejaVuSans-6d" x="1084.138672"/>
      <use xlink:href="#DejaVuSans-65" x="1181.550781"/>
      <use xlink:href="#DejaVuSans-6e" x="1243.074219"/>
      <use xlink:href="#DejaVuSans-74" x="1306.453125"/>
     </g>
    </g>
   </g>
   <g id="LineCollection_1"/>
   <g id="patch_11">
    <path d="M 452.74005 231.564898 
L 457.955701 241.047899 
L 463.171352 231.564898 
L 463.171352 41.904863 
L 457.955701 32.421861 
L 452.74005 41.904863 
L 452.74005 231.564898 
z
" style="fill: none; stroke: #000000; stroke-width: 0.8; stroke-linejoin: miter; stroke-linecap: square"/>
   </g>
  </g>
 </g>
 <defs>
  <clipPath id="pe69098f568">
   <rect x="42.765865" y="41.3943" width="381.362319" height="190.681159"/>
  </clipPath>
  <clipPath id="pdadf8e7c21">
   <rect x="452.74005" y="41.904863" width="10.431302" height="189.660035"/>
  </clipPath>
 </defs>
 <defs>
  <pattern id="hc1395a4735" patternUnits="userSpaceOnUse" x="0" y="0" width="72" height="72">
   <rect x="0" y="0" width="73" height="73" fill="#333333"/>
   <path d="M -36 36 
L 36 -36 
M -33 39 
L 39 -33 
M -30 42 
L 42 -30 
M -27 45 
L 45 -27 
M -24 48 
L 48 -24 
M -21 51 
L 51 -21 
M -18 54 
L 54 -18 
M -15 57 
L 57 -15 
M -12 60 
L 60 -12 
M -9 63 
L 63 -9 
M -6 66 
L 66 -6 
M -3 69 
L 69 -3 
M 0 72 
L 72 0 
M 3 75 
L 75 3 
M 6 78 
L 78 6 
M 9 81 
L 81 9 
M 12 84 
L 84 12 
M 15 87 
L 87 15 
M 18 90 
L 90 18 
M 21 93 
L 93 21 
M 24 96 
L 96 24 
M 27 99 
L 99 27 
M 30 102 
L 102 30 
M 33 105 
L 105 33 
M 36 108 
L 108 36 
" style="fill: #333333; stroke: #333333; stroke-width: 1.0; stroke-linecap: butt; stroke-linejoin: miter; stroke-opacity: 0.3"/>
  </pattern>
 </defs>
</svg>
