<?xml version="1.0" encoding="utf-8" standalone="no"?>
<!DOCTYPE svg PUBLIC "-//W3C//DTD SVG 1.1//EN"
  "http://www.w3.org/Graphics/SVG/1.1/DTD/svg11.dtd">
<svg xmlns:xlink="http://www.w3.org/1999/xlink" width="518.4pt" height="273.6pt" viewBox="0 0 518.4 273.6" xmlns="http://www.w3.org/2000/svg" version="1.1">
 <metadata>
  <rdf:RDF xmlns:dc="http://purl.org/dc/elements/1.1/" xmlns:cc="http://creativecommons.org/ns#" xmlns:rdf="http://www.w3.org/1999/02/22-rdf-syntax-ns#">
   <cc:Work>
    <dc:type rdf:resource="http://purl.org/dc/dcmitype/StillImage"/>
    <dc:format>image/svg+xml</dc:format>
    <dc:creator>
     <cc:Agent>
      <dc:title>Matplotlib v3.6.3, https://matplotlib.org/</dc:title>
     </cc:Agent>
    </dc:creator>
   </cc:Work>
  </rdf:RDF>
 </metadata>
 <defs>
  <style type="text/css">*{stroke-linejoin: round; stroke-linecap: butt}</style>
 </defs>
 <g id="figure_1">
  <g id="patch_1">
   <path d="M 0 273.6 
L 518.4 273.6 
L 518.4 0 
L 0 0 
z
" style="fill: #ffffff"/>
  </g>
  <g id="axes_1">
   <g id="patch_2">
    <path d="M 42.765865 232.07546 
L 424.128184 232.07546 
L 424.128184 41.3943 
L 42.765865 41.3943 
z
" style="fill: #ffffff"/>
   </g>
   <g id="PathCollection_1">
    <path clip-path="url(#pbb34c329df)" style="fill: #053061"/>
   </g>
   <g id="PathCollection_2">
    <path d="M 347.921139 232.07546 
L 352.622749 230.750911 
L 360.914396 228.449534 
L 370.767993 225.847788 
L 376.457894 224.32596 
L 379.764658 223.464651 
L 393.020949 220.157887 
L 398.832163 218.697011 
L 400.293039 218.344446 
L 402.667829 217.783098 
L 418.070173 214.099876 
L 424.128184 212.696277 
L 424.128184 220.157887 
L 424.128184 232.07546 
L 412.210612 232.07546 
L 400.293039 232.07546 
L 388.375467 232.07546 
L 376.457894 232.07546 
L 364.540322 232.07546 
L 352.622749 232.07546 
" clip-path="url(#pbb34c329df)" style="fill: #0e4179"/>
   </g>
   <g id="PathCollection_3">
    <path d="M 424.128184 212.696277 
L 418.070173 214.099876 
L 402.667829 217.783098 
L 400.293039 218.344446 
L 398.832163 218.697011 
L 393.020949 220.157887 
L 379.764658 223.464651 
L 376.457894 224.32596 
L 370.767993 225.847788 
L 360.914396 228.449534 
L 352.622749 230.750911 
L 347.921139 232.07546 
L 345.472206 232.07546 
L 338.321662 232.07546 
L 333.554633 232.07546 
L 328.787604 232.07546 
L 324.020575 232.07546 
L 319.253546 232.07546 
L 312.103003 232.07546 
L 304.952459 232.07546 
L 293.034887 232.07546 
L 281.117314 232.07546 
L 279.358519 232.07546 
L 281.117314 231.495332 
L 289.680346 228.720919 
L 299.270266 225.840081 
L 304.952459 224.080369 
L 306.939686 223.469931 
L 318.358222 220.157887 
L 319.120722 219.936514 
L 319.253546 219.900103 
L 319.369348 219.868383 
L 327.719645 217.48799 
L 328.787604 217.198372 
L 330.115817 216.837355 
L 336.299649 215.102853 
L 338.321662 214.55844 
L 342.325521 213.48479 
L 347.726046 211.996715 
L 352.622749 210.704326 
L 362.03252 208.240315 
L 364.018875 207.718869 
L 365.41156 207.369076 
L 376.457894 204.553015 
L 383.043059 202.907908 
L 388.375467 201.593018 
L 397.061512 199.554269 
L 400.293039 198.772654 
L 402.273725 198.303429 
L 412.210612 195.991907 
L 421.676525 193.871084 
L 424.128184 193.339856 
L 424.128184 196.322742 
L 424.128184 208.240315 
" clip-path="url(#pbb34c329df)" style="fill: #1f63a8"/>
   </g>
   <g id="PathCollection_4">
    <path d="M 424.128184 193.339856 
L 421.676525 193.871084 
L 412.210612 195.991907 
L 402.273725 198.303429 
L 400.293039 198.772654 
L 397.061512 199.554269 
L 388.375467 201.593018 
L 383.043059 202.907908 
L 376.457894 204.553015 
L 365.41156 207.369076 
L 364.018875 207.718869 
L 362.03252 208.240315 
L 352.622749 210.704326 
L 347.726046 211.996715 
L 342.325521 213.48479 
L 338.321662 214.55844 
L 336.299649 215.102853 
L 330.115817 216.837355 
L 328.787604 217.198372 
L 327.719645 217.48799 
L 319.369348 219.868383 
L 319.253546 219.900103 
L 319.120722 219.936514 
L 318.358222 220.157887 
L 306.939686 223.469931 
L 304.952459 224.080369 
L 299.270266 225.840081 
L 289.680346 228.720919 
L 281.117314 231.495332 
L 279.358519 232.07546 
L 269.199742 232.07546 
L 257.282169 232.07546 
L 250.131626 232.07546 
L 242.981082 232.07546 
L 238.214053 232.07546 
L 233.447024 232.07546 
L 228.679996 232.07546 
L 223.912967 232.07546 
L 218.37719 232.07546 
L 223.912967 229.705939 
L 227.185926 228.340285 
L 230.728574 226.954014 
L 233.447024 225.858378 
L 235.415583 225.079285 
L 241.986109 222.645321 
L 242.981082 222.264001 
L 244.012333 221.876638 
L 248.951576 220.157887 
L 255.830353 217.738193 
L 257.282169 217.269786 
L 261.492799 215.947258 
L 269.199742 213.415414 
L 273.129119 212.169691 
L 281.117314 209.813872 
L 286.528043 208.240315 
L 291.563086 206.768514 
L 295.586124 205.689077 
L 304.952459 203.065289 
L 308.416419 202.096009 
L 317.171006 199.793643 
L 319.253546 199.221383 
L 320.298259 198.934525 
L 328.612398 196.760758 
L 328.787604 196.713103 
L 328.928396 196.674721 
L 330.28355 196.322742 
L 337.561636 194.422677 
L 338.321662 194.231863 
L 339.799251 193.860095 
L 349.617678 191.314291 
L 352.622749 190.563976 
L 360.295414 188.650077 
L 367.067836 186.932685 
L 376.457894 184.642371 
L 377.44869 184.40517 
L 386.244736 182.274439 
L 388.375467 181.748645 
L 391.785074 180.995563 
L 400.293039 179.007018 
L 405.604338 177.798896 
L 412.210612 176.289763 
L 422.397244 174.218537 
L 424.128184 173.840223 
L 424.128184 184.40517 
" clip-path="url(#pbb34c329df)" style="fill: #3480b9"/>
   </g>
   <g id="PathCollection_5">
    <path d="M 424.128184 173.840223 
L 422.397244 174.218537 
L 412.210612 176.289763 
L 405.604338 177.798896 
L 400.293039 179.007018 
L 391.785074 180.995563 
L 388.375467 181.748645 
L 386.244736 182.274439 
L 377.44869 184.40517 
L 376.457894 184.642371 
L 367.067836 186.932685 
L 360.295414 188.650077 
L 352.622749 190.563976 
L 349.617678 191.314291 
L 339.799251 193.860095 
L 338.321662 194.231863 
L 337.561636 194.422677 
L 330.28355 196.322742 
L 328.928396 196.674721 
L 328.787604 196.713103 
L 328.612398 196.760758 
L 320.298259 198.934525 
L 319.253546 199.221383 
L 317.171006 199.793643 
L 308.416419 202.096009 
L 304.952459 203.065289 
L 295.586124 205.689077 
L 291.563086 206.768514 
L 286.528043 208.240315 
L 281.117314 209.813872 
L 273.129119 212.169691 
L 269.199742 213.415414 
L 261.492799 215.947258 
L 257.282169 217.269786 
L 255.830353 217.738193 
L 248.951576 220.157887 
L 244.012333 221.876638 
L 242.981082 222.264001 
L 241.986109 222.645321 
L 235.415583 225.079285 
L 233.447024 225.858378 
L 230.728574 226.954014 
L 227.185926 228.340285 
L 223.912967 229.705939 
L 218.37719 232.07546 
L 216.762423 232.07546 
L 209.61188 232.07546 
L 197.694307 232.07546 
L 185.776735 232.07546 
L 173.859162 232.07546 
L 169.665846 232.07546 
L 172.301238 230.517536 
L 173.859162 229.611247 
L 179.164898 226.769724 
L 185.776735 223.163726 
L 187.759996 222.141149 
L 191.973073 220.157887 
L 203.803294 214.349301 
L 209.61188 211.776201 
L 216.334552 208.953432 
L 217.015278 208.661739 
L 218.082376 208.240315 
L 223.912967 205.905533 
L 227.230954 204.617712 
L 230.613311 203.407025 
L 233.447024 202.351038 
L 235.551431 201.583759 
L 241.700362 199.524543 
L 242.981082 199.075202 
L 244.350884 198.605745 
L 251.69441 196.322742 
L 256.389068 194.83424 
L 257.282169 194.581505 
L 259.683469 193.921443 
L 269.199742 191.106888 
L 274.442778 189.648206 
L 281.117314 187.933905 
L 292.388473 185.051584 
L 293.406162 184.776445 
L 294.904704 184.40517 
L 304.952459 181.88444 
L 309.84525 180.642248 
L 315.110191 179.39319 
L 319.253546 178.351073 
L 321.38303 177.811307 
L 327.220505 176.405345 
L 328.787604 176.009622 
L 330.066066 175.683752 
L 337.794529 173.805431 
L 338.321662 173.671678 
L 338.938065 173.514936 
L 343.12666 172.487597 
L 351.385807 170.426028 
L 352.622749 170.12656 
L 355.745591 169.364756 
L 369.839892 165.869595 
L 376.457894 164.282338 
L 387.179096 161.766395 
L 388.375467 161.47117 
L 389.113584 161.308142 
L 392.410307 160.570025 
L 400.293039 158.767567 
L 406.825176 157.338764 
L 412.210612 156.161122 
L 423.1025 154.034892 
L 424.128184 153.825437 
L 424.128184 160.570025 
L 424.128184 172.487597 
" clip-path="url(#pbb34c329df)" style="fill: #529dc8"/>
   </g>
   <g id="PathCollection_6">
    <path d="M 424.128184 153.825437 
L 423.1025 154.034892 
L 412.210612 156.161122 
L 406.825176 157.338764 
L 400.293039 158.767567 
L 392.410307 160.570025 
L 389.113584 161.308142 
L 388.375467 161.47117 
L 387.179096 161.766395 
L 376.457894 164.282338 
L 369.839892 165.869595 
L 355.745591 169.364756 
L 352.622749 170.12656 
L 351.385807 170.426028 
L 343.12666 172.487597 
L 338.938065 173.514936 
L 338.321662 173.671678 
L 337.794529 173.805431 
L 330.066066 175.683752 
L 328.787604 176.009622 
L 327.220505 176.405345 
L 321.38303 177.811307 
L 319.253546 178.351073 
L 315.110191 179.39319 
L 309.84525 180.642248 
L 304.952459 181.88444 
L 294.904704 184.40517 
L 293.406162 184.776445 
L 292.388473 185.051584 
L 281.117314 187.933905 
L 274.442778 189.648206 
L 269.199742 191.106888 
L 259.683469 193.921443 
L 257.282169 194.581505 
L 256.389068 194.83424 
L 251.69441 196.322742 
L 244.350884 198.605745 
L 242.981082 199.075202 
L 241.700362 199.524543 
L 235.551431 201.583759 
L 233.447024 202.351038 
L 230.613311 203.407025 
L 227.230954 204.617712 
L 223.912967 205.905533 
L 218.082376 208.240315 
L 217.015278 208.661739 
L 216.334552 208.953432 
L 209.61188 211.776201 
L 203.803294 214.349301 
L 191.973073 220.157887 
L 187.759996 222.141149 
L 185.776735 223.163726 
L 179.164898 226.769724 
L 173.859162 229.611247 
L 172.301238 230.517536 
L 169.665846 232.07546 
L 161.94159 232.07546 
L 150.024017 232.07546 
L 138.106445 232.07546 
L 129.40603 232.07546 
L 138.106445 226.053409 
L 141.648044 223.699487 
L 147.331583 220.157887 
L 156.178217 214.394515 
L 161.94159 210.890715 
L 166.564612 208.240315 
L 171.170247 205.5514 
L 182.736716 199.362761 
L 185.776735 197.741195 
L 186.722971 197.268979 
L 188.831445 196.322742 
L 202.911387 189.622249 
L 209.61188 186.8036 
L 215.719461 184.40517 
L 216.558539 184.065364 
L 217.079581 183.876573 
L 223.912967 181.318975 
L 227.001381 180.208633 
L 230.856979 178.962711 
L 233.447024 178.077798 
L 235.420779 177.421983 
L 241.758398 175.544308 
L 242.981082 175.157056 
L 244.333135 174.741019 
L 252.687666 172.487597 
L 256.621378 171.386278 
L 257.282169 171.228456 
L 258.919757 170.85001 
L 275.341761 166.712044 
L 281.117314 165.469816 
L 290.096294 163.508618 
L 294.840174 162.375312 
L 303.202078 160.570025 
L 304.952459 160.183175 
L 310.454593 158.921615 
L 312.103003 158.54594 
L 314.682107 157.990921 
L 319.253546 156.93572 
L 321.278929 156.457556 
L 327.752743 154.971773 
L 328.787604 154.725773 
L 329.53726 154.543966 
L 334.301838 153.419482 
L 337.767097 152.587634 
L 338.321662 152.456321 
L 339.591447 152.149697 
L 345.472206 150.660433 
L 349.024283 149.821015 
L 352.622749 148.942943 
L 363.436343 146.268938 
L 364.113137 146.098064 
L 364.540322 145.98916 
L 366.361584 145.540433 
L 376.457894 143.029676 
L 378.836815 142.453478 
L 388.375467 140.127037 
L 393.802069 138.905521 
L 400.293039 137.443744 
L 403.675162 136.73488 
L 409.237145 135.545493 
L 412.210612 134.913142 
L 420.720866 133.330778 
L 424.128184 132.678597 
L 424.128184 136.73488 
L 424.128184 141.501909 
L 424.128184 146.268938 
L 424.128184 153.419482 
" clip-path="url(#pbb34c329df)" style="fill: #84bcd9"/>
   </g>
   <g id="PathCollection_7">
    <path d="M 424.128184 132.678597 
L 420.720866 133.330778 
L 412.210612 134.913142 
L 409.237145 135.545493 
L 403.675162 136.73488 
L 400.293039 137.443744 
L 393.802069 138.905521 
L 388.375467 140.127037 
L 378.836815 142.453478 
L 376.457894 143.029676 
L 366.361584 145.540433 
L 364.540322 145.98916 
L 364.113137 146.098064 
L 363.436343 146.268938 
L 352.622749 148.942943 
L 349.024283 149.821015 
L 345.472206 150.660433 
L 339.591447 152.149697 
L 338.321662 152.456321 
L 337.767097 152.587634 
L 334.301838 153.419482 
L 329.53726 154.543966 
L 328.787604 154.725773 
L 327.752743 154.971773 
L 321.278929 156.457556 
L 319.253546 156.93572 
L 314.682107 157.990921 
L 312.103003 158.54594 
L 310.454593 158.921615 
L 304.952459 160.183175 
L 303.202078 160.570025 
L 294.840174 162.375312 
L 290.096294 163.508618 
L 281.117314 165.469816 
L 275.341761 166.712044 
L 258.919757 170.85001 
L 257.282169 171.228456 
L 256.621378 171.386278 
L 252.687666 172.487597 
L 244.333135 174.741019 
L 242.981082 175.157056 
L 241.758398 175.544308 
L 235.420779 177.421983 
L 233.447024 178.077798 
L 230.856979 178.962711 
L 227.001381 180.208633 
L 223.912967 181.318975 
L 217.079581 183.876573 
L 216.558539 184.065364 
L 215.719461 184.40517 
L 209.61188 186.8036 
L 202.911387 189.622249 
L 188.831445 196.322742 
L 186.722971 197.268979 
L 185.776735 197.741195 
L 182.736716 199.362761 
L 171.170247 205.5514 
L 166.564612 208.240315 
L 161.94159 210.890715 
L 156.178217 214.394515 
L 147.331583 220.157887 
L 141.648044 223.699487 
L 138.106445 226.053409 
L 129.40603 232.07546 
L 126.188872 232.07546 
L 114.2713 232.07546 
L 102.353727 232.07546 
L 93.577835 232.07546 
L 98.523738 228.245471 
L 102.353727 225.279031 
L 112.108938 217.995526 
L 114.2713 216.380434 
L 125.54079 208.240315 
L 125.914879 207.966322 
L 127.736111 206.693076 
L 138.106445 199.470795 
L 139.997518 198.213816 
L 150.024017 191.491196 
L 154.423646 188.804799 
L 161.582601 184.40517 
L 161.94159 184.1775 
L 169.287915 179.833923 
L 182.952605 172.487597 
L 184.730775 171.441638 
L 185.776735 170.88904 
L 188.821058 169.443274 
L 197.694307 165.044684 
L 200.870687 163.746405 
L 208.672951 160.570025 
L 209.61188 160.171192 
L 214.4813 158.288902 
L 216.762423 157.398969 
L 221.452584 155.879864 
L 223.912967 155.022039 
L 224.788949 154.733455 
L 229.197758 153.419482 
L 232.715136 152.321649 
L 233.447024 152.118534 
L 234.499221 151.841187 
L 240.771097 150.104503 
L 242.981082 149.564925 
L 248.000697 148.399867 
L 250.131626 147.844233 
L 251.423776 147.561088 
L 257.282169 146.321475 
L 257.539939 146.268938 
L 265.182251 144.661942 
L 269.199742 143.878881 
L 280.287698 141.833756 
L 281.117314 141.672564 
L 281.401076 141.615414 
L 293.034887 139.410669 
L 297.528693 138.532403 
L 304.952459 137.153129 
L 307.0256 136.73488 
L 310.899841 135.932772 
L 312.103003 135.685604 
L 314.367447 135.22525 
L 319.253546 134.177552 
L 321.057598 133.771903 
L 324.020575 133.088607 
L 328.682017 132.073438 
L 328.787604 132.049105 
L 328.853163 132.03341 
L 329.130618 131.967851 
L 336.542984 130.189172 
L 338.321662 129.760312 
L 343.608617 128.443214 
L 345.472206 127.964901 
L 346.308405 127.758288 
L 348.499241 127.200822 
L 352.622749 126.113675 
L 359.598687 124.235842 
L 364.540322 122.831702 
L 376.180421 119.883795 
L 376.457894 119.810103 
L 377.149067 119.635575 
L 388.375467 116.668782 
L 392.965444 115.653722 
L 400.293039 113.990881 
L 405.625589 112.899735 
L 411.032612 111.721736 
L 412.210612 111.437288 
L 413.899457 111.21089 
L 424.128184 109.327331 
L 424.128184 112.899735 
L 424.128184 120.050279 
L 424.128184 127.200822 
L 424.128184 131.967851 
" clip-path="url(#pbb34c329df)" style="fill: #aed3e6"/>
   </g>
   <g id="PathCollection_8">
    <path d="M 424.128184 109.327331 
L 413.899457 111.21089 
L 412.210612 111.437288 
L 411.032612 111.721736 
L 405.625589 112.899735 
L 400.293039 113.990881 
L 392.965444 115.653722 
L 388.375467 116.668782 
L 377.149067 119.635575 
L 376.457894 119.810103 
L 376.180421 119.883795 
L 364.540322 122.831702 
L 359.598687 124.235842 
L 352.622749 126.113675 
L 348.499241 127.200822 
L 346.308405 127.758288 
L 345.472206 127.964901 
L 343.608617 128.443214 
L 338.321662 129.760312 
L 336.542984 130.189172 
L 329.130618 131.967851 
L 328.853163 132.03341 
L 328.787604 132.049105 
L 328.682017 132.073438 
L 324.020575 133.088607 
L 321.057598 133.771903 
L 319.253546 134.177552 
L 314.367447 135.22525 
L 312.103003 135.685604 
L 310.899841 135.932772 
L 307.0256 136.73488 
L 304.952459 137.153129 
L 297.528693 138.532403 
L 293.034887 139.410669 
L 281.401076 141.615414 
L 281.117314 141.672564 
L 280.287698 141.833756 
L 269.199742 143.878881 
L 265.182251 144.661942 
L 257.539939 146.268938 
L 257.282169 146.321475 
L 251.423776 147.561088 
L 250.131626 147.844233 
L 248.000697 148.399867 
L 242.981082 149.564925 
L 240.771097 150.104503 
L 234.499221 151.841187 
L 233.447024 152.118534 
L 232.715136 152.321649 
L 229.197758 153.419482 
L 224.788949 154.733455 
L 223.912967 155.022039 
L 221.452584 155.879864 
L 216.762423 157.398969 
L 214.4813 158.288902 
L 209.61188 160.171192 
L 208.672951 160.570025 
L 200.870687 163.746405 
L 197.694307 165.044684 
L 188.821058 169.443274 
L 185.776735 170.88904 
L 184.730775 171.441638 
L 182.952605 172.487597 
L 169.287915 179.833923 
L 161.94159 184.1775 
L 161.582601 184.40517 
L 154.423646 188.804799 
L 150.024017 191.491196 
L 139.997518 198.213816 
L 138.106445 199.470795 
L 127.736111 206.693076 
L 125.914879 207.966322 
L 125.54079 208.240315 
L 114.2713 216.380434 
L 112.108938 217.995526 
L 102.353727 225.279031 
L 98.523738 228.245471 
L 93.577835 232.07546 
L 90.436155 232.07546 
L 78.518582 232.07546 
L 66.60101 232.07546 
L 59.713543 232.07546 
L 66.60101 226.516301 
L 70.130819 223.687696 
L 78.518582 216.947764 
L 83.392102 213.113834 
L 89.566927 208.240315 
L 90.436155 207.546857 
L 96.737489 202.624077 
L 105.035433 196.322742 
L 110.195895 192.247338 
L 114.2713 189.117794 
L 120.646754 184.40517 
L 123.801171 182.017469 
L 136.93906 172.487597 
L 137.596032 171.977185 
L 138.106445 171.596992 
L 141.079371 169.514671 
L 150.024017 163.193452 
L 151.639104 162.185112 
L 154.136224 160.570025 
L 161.94159 155.321757 
L 163.503368 154.356549 
L 173.859162 147.816968 
L 175.205598 147.076799 
L 176.651055 146.268938 
L 182.879139 142.660947 
L 185.236051 141.285636 
L 185.776735 140.965331 
L 193.979715 136.73488 
L 195.570571 135.885386 
L 197.694307 134.735707 
L 206.632339 130.776035 
L 209.61188 129.45719 
L 215.611579 127.200822 
L 216.43421 126.872609 
L 217.428277 126.534969 
L 223.912967 124.346946 
L 226.297042 123.626393 
L 232.049199 122.147017 
L 233.447024 121.77227 
L 234.432499 121.52849 
L 241.677053 120.050279 
L 242.8121 119.796806 
L 242.981082 119.767213 
L 243.316292 119.715069 
L 250.131626 118.27241 
L 254.914817 117.682926 
L 257.282169 117.376325 
L 262.867754 116.698928 
L 269.199742 115.686916 
L 273.05994 115.215854 
L 281.117314 114.292546 
L 291.730525 112.899735 
L 292.867354 112.732203 
L 293.244887 112.689735 
L 304.952459 110.764511 
L 310.210448 109.745478 
L 314.41735 109.04249 
L 319.253546 108.022754 
L 321.831034 107.425881 
L 326.61778 106.406722 
L 328.787604 105.879824 
L 330.561189 105.416126 
L 337.197754 103.791932 
L 338.321662 103.488324 
L 339.607803 103.125731 
L 347.393295 100.982163 
L 351.791144 99.596155 
L 352.622749 99.348424 
L 354.953419 98.651493 
L 369.532828 94.057096 
L 376.457894 92.184663 
L 388.211983 89.228074 
L 388.375467 89.177638 
L 388.470479 89.159602 
L 388.915567 89.06459 
L 400.293039 86.419189 
L 407.139462 85.007671 
L 412.210612 83.978507 
L 419.757353 83.027197 
L 424.128184 82.309764 
L 424.128184 89.06459 
L 424.128184 100.982163 
" clip-path="url(#pbb34c329df)" style="fill: #d4e6f1"/>
   </g>
   <g id="PathCollection_9">
    <path d="M 42.765865 218.792083 
L 50.081324 212.842428 
L 54.683437 209.099972 
L 55.159241 208.716118 
L 55.745843 208.240315 
L 66.60101 199.369621 
L 68.285378 198.007111 
L 70.39301 196.322742 
L 81.400819 187.287406 
L 84.951685 184.40517 
L 90.436155 179.866446 
L 94.517974 176.569417 
L 99.68874 172.487597 
L 107.647276 165.863574 
L 114.141074 160.570025 
L 114.2713 160.460907 
L 119.288565 156.429841 
L 126.188872 150.709603 
L 129.426418 148.211466 
L 131.860729 146.268938 
L 137.278188 141.833212 
L 137.821688 141.388006 
L 138.106445 141.147377 
L 143.689545 136.73488 
L 145.785423 135.039442 
L 150.024017 131.477585 
L 153.701471 128.671804 
L 155.554664 127.200822 
L 161.94159 121.914626 
L 163.326287 120.881097 
L 171.379461 114.387556 
L 173.219824 112.899735 
L 173.560702 112.601275 
L 177.09129 109.667607 
L 185.776735 102.586684 
L 186.728434 101.933862 
L 188.33828 100.982163 
L 199.831421 91.201704 
L 202.793243 89.06459 
L 209.61188 82.593781 
L 211.116734 81.537004 
L 214.494479 79.530532 
L 219.685175 73.893477 
L 223.912967 70.089763 
L 224.092662 69.996474 
L 226.481455 67.797934 
L 230.956471 65.229445 
L 231.307851 63.090272 
L 233.447024 60.462416 
L 238.214053 60.462416 
L 242.981082 60.462416 
L 250.131626 60.462416 
L 257.282169 60.462416 
L 269.199742 60.462416 
L 281.117314 60.462416 
L 293.034887 60.462416 
L 304.952459 60.462416 
L 312.103003 60.462416 
L 319.253546 60.462416 
L 324.020575 60.462416 
L 328.787604 60.462416 
L 328.787604 58.078902 
L 333.554633 55.901709 
L 333.75702 55.796581 
L 335.144862 55.695387 
L 338.321662 55.423777 
L 343.347239 54.987065 
L 345.472206 55.244478 
L 346.467861 55.363502 
L 352.622749 55.136784 
L 359.418986 54.67112 
L 364.540322 54.732329 
L 370.545679 54.494316 
L 376.457894 54.08089 
L 378.983953 53.817085 
L 388.375467 53.176313 
L 395.933262 52.439917 
L 400.293039 52.110166 
L 411.952507 50.979979 
L 412.210612 50.953582 
L 412.293759 50.944988 
L 412.465237 50.928358 
L 424.128184 49.790685 
L 424.128184 50.928358 
L 424.128184 53.311873 
L 424.128184 55.695387 
L 424.128184 58.078902 
L 424.128184 60.462416 
L 424.128184 65.229445 
L 424.128184 69.996474 
L 424.128184 79.530532 
L 424.128184 82.309764 
L 419.757353 83.027197 
L 412.210612 83.978507 
L 407.139462 85.007671 
L 400.293039 86.419189 
L 388.915567 89.06459 
L 388.470479 89.159602 
L 388.375467 89.177638 
L 388.211983 89.228074 
L 376.457894 92.184663 
L 369.532828 94.057096 
L 354.953419 98.651493 
L 352.622749 99.348424 
L 351.791144 99.596155 
L 347.393295 100.982163 
L 339.607803 103.125731 
L 338.321662 103.488324 
L 337.197754 103.791932 
L 330.561189 105.416126 
L 328.787604 105.879824 
L 326.61778 106.406722 
L 321.831034 107.425881 
L 319.253546 108.022754 
L 314.41735 109.04249 
L 310.210448 109.745478 
L 304.952459 110.764511 
L 293.244887 112.689735 
L 292.867354 112.732203 
L 291.730525 112.899735 
L 281.117314 114.292546 
L 273.05994 115.215854 
L 269.199742 115.686916 
L 262.867754 116.698928 
L 257.282169 117.376325 
L 254.914817 117.682926 
L 250.131626 118.27241 
L 243.316292 119.715069 
L 242.981082 119.767213 
L 242.8121 119.796806 
L 241.677053 120.050279 
L 234.432499 121.52849 
L 233.447024 121.77227 
L 232.049199 122.147017 
L 226.297042 123.626393 
L 223.912967 124.346946 
L 217.428277 126.534969 
L 216.43421 126.872609 
L 215.611579 127.200822 
L 209.61188 129.45719 
L 206.632339 130.776035 
L 197.694307 134.735707 
L 195.570571 135.885386 
L 193.979715 136.73488 
L 185.776735 140.965331 
L 185.236051 141.285636 
L 182.879139 142.660947 
L 176.651055 146.268938 
L 175.205598 147.076799 
L 173.859162 147.816968 
L 163.503368 154.356549 
L 161.94159 155.321757 
L 154.136224 160.570025 
L 151.639104 162.185112 
L 150.024017 163.193452 
L 141.079371 169.514671 
L 138.106445 171.596992 
L 137.596032 171.977185 
L 136.93906 172.487597 
L 123.801171 182.017469 
L 120.646754 184.40517 
L 114.2713 189.117794 
L 110.195895 192.247338 
L 105.035433 196.322742 
L 96.737489 202.624077 
L 90.436155 207.546857 
L 89.566927 208.240315 
L 83.392102 213.113834 
L 78.518582 216.947764 
L 70.130819 223.687696 
L 66.60101 226.516301 
L 59.713543 232.07546 
L 54.683437 232.07546 
L 42.765865 232.07546 
L 42.765865 220.157887 
" clip-path="url(#pbb34c329df)" style="fill: #ecf2f5"/>
   </g>
   <g id="PathCollection_10">
    <path d="M 42.765865 191.66088 
L 51.483874 184.40517 
L 53.220849 182.942581 
L 54.683437 181.66702 
L 66.112853 171.999441 
L 66.60101 171.571136 
L 73.348102 165.740505 
L 78.901697 160.953139 
L 79.348246 160.570025 
L 81.141638 158.996192 
L 88.689827 152.371685 
L 90.436155 150.790703 
L 95.568162 146.268938 
L 97.662188 144.392322 
L 102.353727 140.070507 
L 104.952479 137.774381 
L 106.094481 136.73488 
L 108.932692 134.103294 
L 112.158743 131.122828 
L 114.2713 129.099828 
L 116.341618 127.200822 
L 120.177608 123.594063 
L 126.188872 117.585878 
L 129.258288 114.741384 
L 131.11067 112.899735 
L 138.106445 105.535386 
L 140.39996 103.275678 
L 150.024017 92.228844 
L 151.627126 90.667699 
L 152.983538 89.06459 
L 157.645323 82.967546 
L 160.941407 78.730386 
L 161.94159 77.156265 
L 166.88384 69.996474 
L 168.319533 67.780623 
L 171.756811 61.303357 
L 172.248538 60.462416 
L 172.413383 60.17326 
L 173.859162 57.099298 
L 174.519108 55.827377 
L 174.571572 55.695387 
L 174.631134 55.540993 
L 176.569943 51.470514 
L 176.764412 50.928358 
L 176.982079 50.303775 
L 178.404806 47.070458 
L 178.700474 46.161329 
L 179.027884 45.127585 
L 180.048767 42.632221 
L 180.415861 41.3943 
L 185.776735 41.3943 
L 197.694307 41.3943 
L 209.61188 41.3943 
L 216.762423 41.3943 
L 223.912967 41.3943 
L 228.679996 41.3943 
L 233.447024 41.3943 
L 238.214053 41.3943 
L 242.981082 41.3943 
L 250.131626 41.3943 
L 257.282169 41.3943 
L 269.199742 41.3943 
L 281.117314 41.3943 
L 293.034887 41.3943 
L 304.952459 41.3943 
L 312.103003 41.3943 
L 319.253546 41.3943 
L 324.020575 41.3943 
L 328.787604 41.3943 
L 333.554633 41.3943 
L 338.321662 41.3943 
L 345.472206 41.3943 
L 352.622749 41.3943 
L 364.540322 41.3943 
L 376.457894 41.3943 
L 388.375467 41.3943 
L 400.293039 41.3943 
L 412.210612 41.3943 
L 424.128184 41.3943 
L 424.128184 43.777815 
L 424.128184 46.161329 
L 424.128184 48.544844 
L 424.128184 49.790685 
L 412.465237 50.928358 
L 412.293759 50.944988 
L 412.210612 50.953582 
L 411.952507 50.979979 
L 400.293039 52.110166 
L 395.933262 52.439917 
L 388.375467 53.176313 
L 378.983953 53.817085 
L 376.457894 54.08089 
L 370.545679 54.494316 
L 364.540322 54.732329 
L 359.418986 54.67112 
L 352.622749 55.136784 
L 346.467861 55.363502 
L 345.472206 55.244478 
L 343.347239 54.987065 
L 338.321662 55.423777 
L 335.144862 55.695387 
L 333.75702 55.796581 
L 333.554633 55.901709 
L 328.787604 58.078902 
L 328.787604 60.462416 
L 324.020575 60.462416 
L 319.253546 60.462416 
L 312.103003 60.462416 
L 304.952459 60.462416 
L 293.034887 60.462416 
L 281.117314 60.462416 
L 269.199742 60.462416 
L 257.282169 60.462416 
L 250.131626 60.462416 
L 242.981082 60.462416 
L 238.214053 60.462416 
L 233.447024 60.462416 
L 231.307851 63.090272 
L 230.956471 65.229445 
L 226.481455 67.797934 
L 224.092662 69.996474 
L 223.912967 70.089763 
L 219.685175 73.893477 
L 214.494479 79.530532 
L 211.116734 81.537004 
L 209.61188 82.593781 
L 202.793243 89.06459 
L 199.831421 91.201704 
L 188.33828 100.982163 
L 186.728434 101.933862 
L 185.776735 102.586684 
L 177.09129 109.667607 
L 173.560702 112.601275 
L 173.219824 112.899735 
L 171.379461 114.387556 
L 163.326287 120.881097 
L 161.94159 121.914626 
L 155.554664 127.200822 
L 153.701471 128.671804 
L 150.024017 131.477585 
L 145.785423 135.039442 
L 143.689545 136.73488 
L 138.106445 141.147377 
L 137.821688 141.388006 
L 137.278188 141.833212 
L 131.860729 146.268938 
L 129.426418 148.211466 
L 126.188872 150.709603 
L 119.288565 156.429841 
L 114.2713 160.460907 
L 114.141074 160.570025 
L 107.647276 165.863574 
L 99.68874 172.487597 
L 94.517974 176.569417 
L 90.436155 179.866446 
L 84.951685 184.40517 
L 81.400819 187.287406 
L 70.39301 196.322742 
L 68.285378 198.007111 
L 66.60101 199.369621 
L 55.745843 208.240315 
L 55.159241 208.716118 
L 54.683437 209.099972 
L 50.081324 212.842428 
L 42.765865 218.792083 
L 42.765865 208.240315 
L 42.765865 196.322742 
" clip-path="url(#pbb34c329df)" style="fill: #f9eee7"/>
   </g>
   <g id="PathCollection_11">
    <path d="M 42.765865 163.942836 
L 46.633035 160.570025 
L 49.883255 157.689916 
L 54.683437 153.308189 
L 59.3972 149.097196 
L 62.469196 146.268938 
L 66.60101 142.410196 
L 67.289541 141.777322 
L 68.303752 140.820812 
L 72.651069 136.73488 
L 74.387178 135.082318 
L 78.518582 131.034622 
L 81.34999 128.333385 
L 82.500556 127.200822 
L 88.412791 121.264297 
L 89.928594 119.745742 
L 90.436155 119.212592 
L 96.591153 112.899735 
L 99.387776 109.933784 
L 102.353727 106.495018 
L 110.725337 97.4362 
L 114.2713 93.165103 
L 117.788192 89.06459 
L 121.115199 85.005652 
L 126.188872 78.081669 
L 130.078525 73.108197 
L 132.19501 69.996474 
L 134.328842 66.740486 
L 135.960041 64.370884 
L 138.106445 60.887037 
L 138.378616 60.462416 
L 139.685371 58.394687 
L 140.084498 57.683291 
L 141.300445 55.695387 
L 142.245117 54.139607 
L 143.238874 52.285387 
L 144.037185 50.928358 
L 144.66406 49.856367 
L 146.16591 46.932951 
L 146.603669 46.161329 
L 146.950854 45.546697 
L 148.891381 41.620828 
L 149.015721 41.3943 
L 150.024017 41.3943 
L 161.94159 41.3943 
L 173.859162 41.3943 
L 180.415861 41.3943 
L 180.048767 42.632221 
L 179.027884 45.127585 
L 178.700474 46.161329 
L 178.404806 47.070458 
L 176.982079 50.303775 
L 176.764412 50.928358 
L 176.569943 51.470514 
L 174.631134 55.540993 
L 174.571572 55.695387 
L 174.519108 55.827377 
L 173.859162 57.099298 
L 172.413383 60.17326 
L 172.248538 60.462416 
L 171.756811 61.303357 
L 168.319533 67.780623 
L 166.88384 69.996474 
L 161.94159 77.156265 
L 160.941407 78.730386 
L 157.645323 82.967546 
L 152.983538 89.06459 
L 151.627126 90.667699 
L 150.024017 92.228844 
L 140.39996 103.275678 
L 138.106445 105.535386 
L 131.11067 112.899735 
L 129.258288 114.741384 
L 126.188872 117.585878 
L 120.177608 123.594063 
L 116.341618 127.200822 
L 114.2713 129.099828 
L 112.158743 131.122828 
L 108.932692 134.103294 
L 106.094481 136.73488 
L 104.952479 137.774381 
L 102.353727 140.070507 
L 97.662188 144.392322 
L 95.568162 146.268938 
L 90.436155 150.790703 
L 88.689827 152.371685 
L 81.141638 158.996192 
L 79.348246 160.570025 
L 78.901697 160.953139 
L 73.348102 165.740505 
L 66.60101 171.571136 
L 66.112853 171.999441 
L 54.683437 181.66702 
L 53.220849 182.942581 
L 51.483874 184.40517 
L 42.765865 191.66088 
L 42.765865 184.40517 
L 42.765865 172.487597 
" clip-path="url(#pbb34c329df)" style="fill: #fddcc9"/>
   </g>
   <g id="PathCollection_12">
    <path d="M 42.765865 134.958519 
L 44.975078 132.851536 
L 48.019686 129.866323 
L 50.750834 127.200822 
L 52.233757 125.731014 
L 54.683437 123.20634 
L 61.101797 116.750751 
L 64.777958 112.899735 
L 66.60101 110.934295 
L 71.425515 105.806668 
L 75.878003 100.982163 
L 82.66432 93.210328 
L 86.181571 89.06459 
L 90.436155 83.872455 
L 92.607877 81.26791 
L 99.57048 72.223072 
L 101.299209 69.996474 
L 101.545682 69.673256 
L 102.353727 68.550766 
L 106.932505 62.293927 
L 108.176348 60.462416 
L 109.082295 59.116703 
L 110.363839 57.29741 
L 111.421061 55.695387 
L 112.793197 53.607493 
L 113.151144 53.087842 
L 114.2713 51.350866 
L 114.547583 50.928358 
L 115.890472 48.868678 
L 116.332043 48.132695 
L 117.591056 46.161329 
L 118.563321 44.636219 
L 119.701898 42.691695 
L 120.513053 41.3943 
L 126.188872 41.3943 
L 138.106445 41.3943 
L 149.015721 41.3943 
L 148.891381 41.620828 
L 146.950854 45.546697 
L 146.603669 46.161329 
L 146.16591 46.932951 
L 144.66406 49.856367 
L 144.037185 50.928358 
L 143.238874 52.285387 
L 142.245117 54.139607 
L 141.300445 55.695387 
L 140.084498 57.683291 
L 139.685371 58.394687 
L 138.378616 60.462416 
L 138.106445 60.887037 
L 135.960041 64.370884 
L 134.328842 66.740486 
L 132.19501 69.996474 
L 130.078525 73.108197 
L 126.188872 78.081669 
L 121.115199 85.005652 
L 117.788192 89.06459 
L 114.2713 93.165103 
L 110.725337 97.4362 
L 102.353727 106.495018 
L 99.387776 109.933784 
L 96.591153 112.899735 
L 90.436155 119.212592 
L 89.928594 119.745742 
L 88.412791 121.264297 
L 82.500556 127.200822 
L 81.34999 128.333385 
L 78.518582 131.034622 
L 74.387178 135.082318 
L 72.651069 136.73488 
L 68.303752 140.820812 
L 67.289541 141.777322 
L 66.60101 142.410196 
L 62.469196 146.268938 
L 59.3972 149.097196 
L 54.683437 153.308189 
L 49.883255 157.689916 
L 46.633035 160.570025 
L 42.765865 163.942836 
L 42.765865 160.570025 
L 42.765865 153.419482 
L 42.765865 146.268938 
L 42.765865 141.501909 
L 42.765865 136.73488 
" clip-path="url(#pbb34c329df)" style="fill: #f8bb9e"/>
   </g>
   <g id="PathCollection_13">
    <path d="M 42.765865 103.770199 
L 44.121705 102.338003 
L 54.683437 90.464946 
L 55.35731 89.738463 
L 55.942124 89.06459 
L 58.540716 85.978767 
L 65.038888 78.280834 
L 66.60101 76.334994 
L 71.711035 69.996474 
L 73.351384 67.929595 
L 78.518582 61.176276 
L 78.938966 60.63057 
L 79.062298 60.462416 
L 79.15511 60.335111 
L 82.097244 56.41112 
L 82.612163 55.695387 
L 83.298167 54.73947 
L 85.135296 52.251701 
L 86.073458 50.928358 
L 87.319266 49.168222 
L 88.112442 48.080101 
L 89.455604 46.161329 
L 90.436155 44.759885 
L 91.038634 43.898311 
L 91.222729 43.6205 
L 92.759585 41.3943 
L 102.353727 41.3943 
L 114.2713 41.3943 
L 120.513053 41.3943 
L 119.701898 42.691695 
L 118.563321 44.636219 
L 117.591056 46.161329 
L 116.332043 48.132695 
L 115.890472 48.868678 
L 114.547583 50.928358 
L 114.2713 51.350866 
L 113.151144 53.087842 
L 112.793197 53.607493 
L 111.421061 55.695387 
L 110.363839 57.29741 
L 109.082295 59.116703 
L 108.176348 60.462416 
L 106.932505 62.293927 
L 102.353727 68.550766 
L 101.545682 69.673256 
L 101.299209 69.996474 
L 99.57048 72.223072 
L 92.607877 81.26791 
L 90.436155 83.872455 
L 86.181571 89.06459 
L 82.66432 93.210328 
L 75.878003 100.982163 
L 71.425515 105.806668 
L 66.60101 110.934295 
L 64.777958 112.899735 
L 61.101797 116.750751 
L 54.683437 123.20634 
L 52.233757 125.731014 
L 50.750834 127.200822 
L 48.019686 129.866323 
L 44.975078 132.851536 
L 42.765865 134.958519 
L 42.765865 131.967851 
L 42.765865 127.200822 
L 42.765865 120.050279 
L 42.765865 112.899735 
" clip-path="url(#pbb34c329df)" style="fill: #ee9677"/>
   </g>
   <g id="PathCollection_14">
    <path d="M 42.765865 69.732974 
L 45.52637 66.333647 
L 48.094043 63.098174 
L 50.197757 60.462416 
L 50.811748 59.688078 
L 53.791418 55.873791 
L 53.931873 55.695387 
L 54.033918 55.565483 
L 54.683437 54.72689 
L 57.228214 51.437314 
L 57.61373 50.928358 
L 58.136157 50.237814 
L 60.38828 47.302298 
L 61.246551 46.161329 
L 62.409008 44.616215 
L 63.518411 43.161295 
L 64.841446 41.3943 
L 66.60101 41.3943 
L 78.518582 41.3943 
L 90.436155 41.3943 
L 92.759585 41.3943 
L 91.222729 43.6205 
L 91.038634 43.898311 
L 90.436155 44.759885 
L 89.455604 46.161329 
L 88.112442 48.080101 
L 87.319266 49.168222 
L 86.073458 50.928358 
L 85.135296 52.251701 
L 83.298167 54.73947 
L 82.612163 55.695387 
L 82.097244 56.41112 
L 79.15511 60.335111 
L 79.062298 60.462416 
L 78.938966 60.63057 
L 78.518582 61.176276 
L 73.351384 67.929595 
L 71.711035 69.996474 
L 66.60101 76.334994 
L 65.038888 78.280834 
L 58.540716 85.978767 
L 55.942124 89.06459 
L 55.35731 89.738463 
L 54.683437 90.464946 
L 44.121705 102.338003 
L 42.765865 103.770199 
L 42.765865 100.982163 
L 42.765865 89.06459 
L 42.765865 79.530532 
L 42.765865 69.996474 
" clip-path="url(#pbb34c329df)" style="fill: #db6b55"/>
   </g>
   <g id="PathCollection_15">
    <path d="M 64.841446 41.3943 
L 63.518411 43.161295 
L 62.409008 44.616215 
L 61.246551 46.161329 
L 60.38828 47.302298 
L 58.136157 50.237814 
L 57.61373 50.928358 
L 57.228214 51.437314 
L 54.683437 54.72689 
L 54.033918 55.565483 
L 53.931873 55.695387 
L 53.791418 55.873791 
L 50.811748 59.688078 
L 50.197757 60.462416 
L 48.094043 63.098174 
L 45.52637 66.333647 
L 42.765865 69.732974 
L 42.765865 65.229445 
L 42.765865 60.462416 
L 42.765865 58.078902 
L 42.765865 55.695387 
L 42.765865 53.311873 
L 42.765865 50.928358 
L 42.765865 48.544844 
L 42.765865 46.161329 
L 42.765865 43.777815 
L 42.765865 41.3943 
L 54.683437 41.3943 
" clip-path="url(#pbb34c329df)" style="fill: #c53e3d"/>
   </g>
   <g id="PathCollection_16">
    <path clip-path="url(#pbb34c329df)" style="fill: #ab162a"/>
   </g>
   <g id="PathCollection_17">
    <path clip-path="url(#pbb34c329df)" style="fill: #7c0722"/>
   </g>
   <g id="PathCollection_18">
    <path clip-path="url(#pbb34c329df)" style="fill: #67001f"/>
   </g>
   <g id="PolyCollection_1">
    <path d="M 233.447024 60.462416 
L 233.447024 41.3943 
L 328.787604 41.3943 
L 328.787604 60.462416 
L 328.787604 60.462416 
L 233.447024 60.462416 
z
" clip-path="url(#pbb34c329df)" style="fill: url(#hd8f23c1688); fill-opacity: 0.3; stroke: #333333; stroke-opacity: 0.3"/>
   </g>
   <g id="PathCollection_19">
    <defs>
     <path id="m5e348d95a6" d="M -0 4.1833 
L 4.1833 0 
L 0 -4.1833 
L -4.1833 -0 
z
" style="stroke: #111827"/>
    </defs>
    <g clip-path="url(#pbb34c329df)">
     <use xlink:href="#m5e348d95a6" x="233.447024" y="136.73488" style="fill: #34d399; stroke: #111827"/>
    </g>
   </g>
   <g id="matplotlib.axis_1">
    <g id="xtick_1">
     <g id="line2d_1">
      <defs>
       <path id="me4cd32a4b5" d="M 0 0 
L 0 3.5 
" style="stroke: #000000; stroke-width: 0.8"/>
      </defs>
      <g>
       <use xlink:href="#me4cd32a4b5" x="42.765865" y="232.07546" style="stroke: #000000; stroke-width: 0.8"/>
      </g>
     </g>
     <g id="text_1">
      <!-- 0 -->
      <g transform="translate(39.584615 246.673897) scale(0.1 -0.1)">
       <defs>
        <path id="DejaVuSans-30" d="M 2034 4250 
Q 1547 4250 1301 3770 
Q 1056 3291 1056 2328 
Q 1056 1369 1301 889 
Q 1547 409 2034 409 
Q 2525 409 2770 889 
Q 3016 1369 3016 2328 
Q 3016 3291 2770 3770 
Q 2525 4250 2034 4250 
z
M 2034 4750 
Q 2819 4750 3233 4129 
Q 3647 3509 3647 2328 
Q 3647 1150 3233 529 
Q 2819 -91 2034 -91 
Q 1250 -91 836 529 
Q 422 1150 422 2328 
Q 422 3509 836 4129 
Q 1250 4750 2034 4750 
z
" transform="scale(0.015625)"/>
       </defs>
       <use xlink:href="#DejaVuSans-30"/>
      </g>
     </g>
    </g>
    <g id="xtick_2">
     <g id="line2d_2">
      <g>
       <use xlink:href="#me4cd32a4b5" x="90.436155" y="232.07546" style="stroke: #000000; stroke-width: 0.8"/>
      </g>
     </g>
     <g id="text_2">
      <!-- 50 -->
      <g transform="translate(84.073655 246.673897) scale(0.1 -0.1)">
       <defs>
        <path id="DejaVuSans-35" d="M 691 4666 
L 3169 4666 
L 3169 4134 
L 1269 4134 
L 1269 2991 
Q 1406 3038 1543 3061 
Q 1681 3084 1819 3084 
Q 2600 3084 3056 2656 
Q 3513 2228 3513 1497 
Q 3513 744 3044 326 
Q 2575 -91 1722 -91 
Q 1428 -91 1123 -41 
Q 819 9 494 109 
L 494 744 
Q 775 591 1075 516 
Q 1375 441 1709 441 
Q 2250 441 2565 725 
Q 2881 1009 2881 1497 
Q 2881 1984 2565 2268 
Q 2250 2553 1709 2553 
Q 1456 2553 1204 2497 
Q 953 2441 691 2322 
L 691 4666 
z
" transform="scale(0.015625)"/>
       </defs>
       <use xlink:href="#DejaVuSans-35"/>
       <use xlink:href="#DejaVuSans-30" x="63.623047"/>
      </g>
     </g>
    </g>
    <g id="xtick_3">
     <g id="line2d_3">
      <g>
       <use xlink:href="#me4cd32a4b5" x="138.106445" y="232.07546" style="stroke: #000000; stroke-width: 0.8"/>
      </g>
     </g>
     <g id="text_3">
      <!-- 100 -->
      <g transform="translate(128.562695 246.673897) scale(0.1 -0.1)">
       <defs>
        <path id="DejaVuSans-31" d="M 794 531 
L 1825 531 
L 1825 4091 
L 703 3866 
L 703 4441 
L 1819 4666 
L 2450 4666 
L 2450 531 
L 3481 531 
L 3481 0 
L 794 0 
L 794 531 
z
" transform="scale(0.015625)"/>
       </defs>
       <use xlink:href="#DejaVuSans-31"/>
       <use xlink:href="#DejaVuSans-30" x="63.623047"/>
       <use xlink:href="#DejaVuSans-30" x="127.246094"/>
      </g>
     </g>
    </g>
    <g id="xtick_4">
     <g id="line2d_4">
      <g>
       <use xlink:href="#me4cd32a4b5" x="185.776735" y="232.07546" style="stroke: #000000; stroke-width: 0.8"/>
      </g>
     </g>
     <g id="text_4">
      <!-- 150 -->
      <g transform="translate(176.232985 246.673897) scale(0.1 -0.1)">
       <use xlink:href="#DejaVuSans-31"/>
       <use xlink:href="#DejaVuSans-35" x="63.623047"/>
       <use xlink:href="#DejaVuSans-30" x="127.246094"/>
      </g>
     </g>
    </g>
    <g id="xtick_5">
     <g id="line2d_5">
      <g>
       <use xlink:href="#me4cd32a4b5" x="233.447024" y="232.07546" style="stroke: #000000; stroke-width: 0.8"/>
      </g>
     </g>
     <g id="text_5">
      <!-- 200 -->
      <g transform="translate(223.903274 246.673897) scale(0.1 -0.1)">
       <defs>
        <path id="DejaVuSans-32" d="M 1228 531 
L 3431 531 
L 3431 0 
L 469 0 
L 469 531 
Q 828 903 1448 1529 
Q 2069 2156 2228 2338 
Q 2531 2678 2651 2914 
Q 2772 3150 2772 3378 
Q 2772 3750 2511 3984 
Q 2250 4219 1831 4219 
Q 1534 4219 1204 4116 
Q 875 4013 500 3803 
L 500 4441 
Q 881 4594 1212 4672 
Q 1544 4750 1819 4750 
Q 2544 4750 2975 4387 
Q 3406 4025 3406 3419 
Q 3406 3131 3298 2873 
Q 3191 2616 2906 2266 
Q 2828 2175 2409 1742 
Q 1991 1309 1228 531 
z
" transform="scale(0.015625)"/>
       </defs>
       <use xlink:href="#DejaVuSans-32"/>
       <use xlink:href="#DejaVuSans-30" x="63.623047"/>
       <use xlink:href="#DejaVuSans-30" x="127.246094"/>
      </g>
     </g>
    </g>
    <g id="xtick_6">
     <g id="line2d_6">
      <g>
       <use xlink:href="#me4cd32a4b5" x="281.117314" y="232.07546" style="stroke: #000000; stroke-width: 0.8"/>
      </g>
     </g>
     <g id="text_6">
      <!-- 250 -->
      <g transform="translate(271.573564 246.673897) scale(0.1 -0.1)">
       <use xlink:href="#DejaVuSans-32"/>
       <use xlink:href="#DejaVuSans-35" x="63.623047"/>
       <use xlink:href="#DejaVuSans-30" x="127.246094"/>
      </g>
     </g>
    </g>
    <g id="xtick_7">
     <g id="line2d_7">
      <g>
       <use xlink:href="#me4cd32a4b5" x="328.787604" y="232.07546" style="stroke: #000000; stroke-width: 0.8"/>
      </g>
     </g>
     <g id="text_7">
      <!-- 300 -->
      <g transform="translate(319.243854 246.673897) scale(0.1 -0.1)">
       <defs>
        <path id="DejaVuSans-33" d="M 2597 2516 
Q 3050 2419 3304 2112 
Q 3559 1806 3559 1356 
Q 3559 666 3084 287 
Q 2609 -91 1734 -91 
Q 1441 -91 1130 -33 
Q 819 25 488 141 
L 488 750 
Q 750 597 1062 519 
Q 1375 441 1716 441 
Q 2309 441 2620 675 
Q 2931 909 2931 1356 
Q 2931 1769 2642 2001 
Q 2353 2234 1838 2234 
L 1294 2234 
L 1294 2753 
L 1863 2753 
Q 2328 2753 2575 2939 
Q 2822 3125 2822 3475 
Q 2822 3834 2567 4026 
Q 2313 4219 1838 4219 
Q 1578 4219 1281 4162 
Q 984 4106 628 3988 
L 628 4550 
Q 988 4650 1302 4700 
Q 1616 4750 1894 4750 
Q 2613 4750 3031 4423 
Q 3450 4097 3450 3541 
Q 3450 3153 3228 2886 
Q 3006 2619 2597 2516 
z
" transform="scale(0.015625)"/>
       </defs>
       <use xlink:href="#DejaVuSans-33"/>
       <use xlink:href="#DejaVuSans-30" x="63.623047"/>
       <use xlink:href="#DejaVuSans-30" x="127.246094"/>
      </g>
     </g>
    </g>
    <g id="xtick_8">
     <g id="line2d_8">
      <g>
       <use xlink:href="#me4cd32a4b5" x="376.457894" y="232.07546" style="stroke: #000000; stroke-width: 0.8"/>
      </g>
     </g>
     <g id="text_8">
      <!-- 350 -->
      <g transform="translate(366.914144 246.673897) scale(0.1 -0.1)">
       <use xlink:href="#DejaVuSans-33"/>
       <use xlink:href="#DejaVuSans-35" x="63.623047"/>
       <use xlink:href="#DejaVuSans-30" x="127.246094"/>
      </g>
     </g>
    </g>
    <g id="xtick_9">
     <g id="line2d_9">
      <g>
       <use xlink:href="#me4cd32a4b5" x="424.128184" y="232.07546" style="stroke: #000000; stroke-width: 0.8"/>
      </g>
     </g>
     <g id="text_9">
      <!-- 400 -->
      <g transform="translate(414.584434 246.673897) scale(0.1 -0.1)">
       <defs>
        <path id="DejaVuSans-34" d="M 2419 4116 
L 825 1625 
L 2419 1625 
L 2419 4116 
z
M 2253 4666 
L 3047 4666 
L 3047 1625 
L 3713 1625 
L 3713 1100 
L 3047 1100 
L 3047 0 
L 2419 0 
L 2419 1100 
L 313 1100 
L 313 1709 
L 2253 4666 
z
" transform="scale(0.015625)"/>
       </defs>
       <use xlink:href="#DejaVuSans-34"/>
       <use xlink:href="#DejaVuSans-30" x="63.623047"/>
       <use xlink:href="#DejaVuSans-30" x="127.246094"/>
      </g>
     </g>
    </g>
    <g id="text_10">
     <!-- x [mm] -->
     <g transform="translate(215.256399 260.352022) scale(0.1 -0.1)">
      <defs>
       <path id="DejaVuSans-78" d="M 3513 3500 
L 2247 1797 
L 3578 0 
L 2900 0 
L 1881 1375 
L 863 0 
L 184 0 
L 1544 1831 
L 300 3500 
L 978 3500 
L 1906 2253 
L 2834 3500 
L 3513 3500 
z
" transform="scale(0.015625)"/>
       <path id="DejaVuSans-20" transform="scale(0.015625)"/>
       <path id="DejaVuSans-5b" d="M 550 4863 
L 1875 4863 
L 1875 4416 
L 1125 4416 
L 1125 -397 
L 1875 -397 
L 1875 -844 
L 550 -844 
L 550 4863 
z
" transform="scale(0.015625)"/>
       <path id="DejaVuSans-6d" d="M 3328 2828 
Q 3544 3216 3844 3400 
Q 4144 3584 4550 3584 
Q 5097 3584 5394 3201 
Q 5691 2819 5691 2113 
L 5691 0 
L 5113 0 
L 5113 2094 
Q 5113 2597 4934 2840 
Q 4756 3084 4391 3084 
Q 3944 3084 3684 2787 
Q 3425 2491 3425 1978 
L 3425 0 
L 2847 0 
L 2847 2094 
Q 2847 2600 2669 2842 
Q 2491 3084 2119 3084 
Q 1678 3084 1418 2786 
Q 1159 2488 1159 1978 
L 1159 0 
L 581 0 
L 581 3500 
L 1159 3500 
L 1159 2956 
Q 1356 3278 1631 3431 
Q 1906 3584 2284 3584 
Q 2666 3584 2933 3390 
Q 3200 3197 3328 2828 
z
" transform="scale(0.015625)"/>
       <path id="DejaVuSans-5d" d="M 1947 4863 
L 1947 -844 
L 622 -844 
L 622 -397 
L 1369 -397 
L 1369 4416 
L 622 4416 
L 622 4863 
L 1947 4863 
z
" transform="scale(0.015625)"/>
      </defs>
      <use xlink:href="#DejaVuSans-78"/>
      <use xlink:href="#DejaVuSans-20" x="59.179688"/>
      <use xlink:href="#DejaVuSans-5b" x="90.966797"/>
      <use xlink:href="#DejaVuSans-6d" x="129.980469"/>
      <use xlink:href="#DejaVuSans-6d" x="227.392578"/>
      <use xlink:href="#DejaVuSans-5d" x="324.804688"/>
     </g>
    </g>
   </g>
   <g id="matplotlib.axis_2">
    <g id="ytick_1">
     <g id="line2d_10">
      <defs>
       <path id="mc35877825b" d="M 0 0 
L -3.5 0 
" style="stroke: #000000; stroke-width: 0.8"/>
      </defs>
      <g>
       <use xlink:href="#mc35877825b" x="42.765865" y="41.3943" style="stroke: #000000; stroke-width: 0.8"/>
      </g>
     </g>
     <g id="text_11">
      <!-- 0 -->
      <g transform="translate(29.403365 45.193519) scale(0.1 -0.1)">
       <use xlink:href="#DejaVuSans-30"/>
      </g>
     </g>
    </g>
    <g id="ytick_2">
     <g id="line2d_11">
      <g>
       <use xlink:href="#mc35877825b" x="42.765865" y="65.229445" style="stroke: #000000; stroke-width: 0.8"/>
      </g>
     </g>
     <g id="text_12">
      <!-- 25 -->
      <g transform="translate(23.040865 69.028664) scale(0.1 -0.1)">
       <use xlink:href="#DejaVuSans-32"/>
       <use xlink:href="#DejaVuSans-35" x="63.623047"/>
      </g>
     </g>
    </g>
    <g id="ytick_3">
     <g id="line2d_12">
      <g>
       <use xlink:href="#mc35877825b" x="42.765865" y="89.06459" style="stroke: #000000; stroke-width: 0.8"/>
      </g>
     </g>
     <g id="text_13">
      <!-- 50 -->
      <g transform="translate(23.040865 92.863809) scale(0.1 -0.1)">
       <use xlink:href="#DejaVuSans-35"/>
       <use xlink:href="#DejaVuSans-30" x="63.623047"/>
      </g>
     </g>
    </g>
    <g id="ytick_4">
     <g id="line2d_13">
      <g>
       <use xlink:href="#mc35877825b" x="42.765865" y="112.899735" style="stroke: #000000; stroke-width: 0.8"/>
      </g>
     </g>
     <g id="text_14">
      <!-- 75 -->
      <g transform="translate(23.040865 116.698954) scale(0.1 -0.1)">
       <defs>
        <path id="DejaVuSans-37" d="M 525 4666 
L 3525 4666 
L 3525 4397 
L 1831 0 
L 1172 0 
L 2766 4134 
L 525 4134 
L 525 4666 
z
" transform="scale(0.015625)"/>
       </defs>
       <use xlink:href="#DejaVuSans-37"/>
       <use xlink:href="#DejaVuSans-35" x="63.623047"/>
      </g>
     </g>
    </g>
    <g id="ytick_5">
     <g id="line2d_14">
      <g>
       <use xlink:href="#mc35877825b" x="42.765865" y="136.73488" style="stroke: #000000; stroke-width: 0.8"/>
      </g>
     </g>
     <g id="text_15">
      <!-- 100 -->
      <g transform="translate(16.678365 140.534099) scale(0.1 -0.1)">
       <use xlink:href="#DejaVuSans-31"/>
       <use xlink:href="#DejaVuSans-30" x="63.623047"/>
       <use xlink:href="#DejaVuSans-30" x="127.246094"/>
      </g>
     </g>
    </g>
    <g id="ytick_6">
     <g id="line2d_15">
      <g>
       <use xlink:href="#mc35877825b" x="42.765865" y="160.570025" style="stroke: #000000; stroke-width: 0.8"/>
      </g>
     </g>
     <g id="text_16">
      <!-- 125 -->
      <g transform="translate(16.678365 164.369244) scale(0.1 -0.1)">
       <use xlink:href="#DejaVuSans-31"/>
       <use xlink:href="#DejaVuSans-32" x="63.623047"/>
       <use xlink:href="#DejaVuSans-35" x="127.246094"/>
      </g>
     </g>
    </g>
    <g id="ytick_7">
     <g id="line2d_16">
      <g>
       <use xlink:href="#mc35877825b" x="42.765865" y="184.40517" style="stroke: #000000; stroke-width: 0.8"/>
      </g>
     </g>
     <g id="text_17">
      <!-- 150 -->
      <g transform="translate(16.678365 188.204389) scale(0.1 -0.1)">
       <use xlink:href="#DejaVuSans-31"/>
       <use xlink:href="#DejaVuSans-35" x="63.623047"/>
       <use xlink:href="#DejaVuSans-30" x="127.246094"/>
      </g>
     </g>
    </g>
    <g id="ytick_8">
     <g id="line2d_17">
      <g>
       <use xlink:href="#mc35877825b" x="42.765865" y="208.240315" style="stroke: #000000; stroke-width: 0.8"/>
      </g>
     </g>
     <g id="text_18">
      <!-- 175 -->
      <g transform="translate(16.678365 212.039534) scale(0.1 -0.1)">
       <use xlink:href="#DejaVuSans-31"/>
       <use xlink:href="#DejaVuSans-37" x="63.623047"/>
       <use xlink:href="#DejaVuSans-35" x="127.246094"/>
      </g>
     </g>
    </g>
    <g id="ytick_9">
     <g id="line2d_18">
      <g>
       <use xlink:href="#mc35877825b" x="42.765865" y="232.07546" style="stroke: #000000; stroke-width: 0.8"/>
      </g>
     </g>
     <g id="text_19">
      <!-- 200 -->
      <g transform="translate(16.678365 235.874679) scale(0.1 -0.1)">
       <use xlink:href="#DejaVuSans-32"/>
       <use xlink:href="#DejaVuSans-30" x="63.623047"/>
       <use xlink:href="#DejaVuSans-30" x="127.246094"/>
      </g>
     </g>
    </g>
    <g id="text_20">
     <!-- y [mm] -->
     <g transform="translate(10.598678 154.925505) rotate(-90) scale(0.1 -0.1)">
      <defs>
       <path id="DejaVuSans-79" d="M 2059 -325 
Q 1816 -950 1584 -1140 
Q 1353 -1331 966 -1331 
L 506 -1331 
L 506 -850 
L 844 -850 
Q 1081 -850 1212 -737 
Q 1344 -625 1503 -206 
L 1606 56 
L 191 3500 
L 800 3500 
L 1894 763 
L 2988 3500 
L 3597 3500 
L 2059 -325 
z
" transform="scale(0.015625)"/>
      </defs>
      <use xlink:href="#DejaVuSans-79"/>
      <use xlink:href="#DejaVuSans-20" x="59.179688"/>
      <use xlink:href="#DejaVuSans-5b" x="90.966797"/>
      <use xlink:href="#DejaVuSans-6d" x="129.980469"/>
      <use xlink:href="#DejaVuSans-6d" x="227.392578"/>
      <use xlink:href="#DejaVuSans-5d" x="324.804688"/>
     </g>
    </g>
   </g>
   <g id="PathCollection_20">
    <path d="M 424.128184 49.790685 
L 412.465237 50.928358 
L 412.293759 50.944988 
L 412.210612 50.953582 
L 411.952507 50.979979 
L 400.293039 52.110166 
L 395.933262 52.439917 
L 388.375467 53.176313 
L 378.983953 53.817085 
L 376.457894 54.08089 
L 370.545679 54.494316 
L 364.540322 54.732329 
L 359.418986 54.67112 
L 352.622749 55.136784 
L 346.467861 55.363502 
L 345.472206 55.244478 
L 343.347239 54.987065 
L 338.321662 55.423777 
L 335.144862 55.695387 
L 333.75702 55.796581 
L 333.554633 55.901709 
L 328.787604 58.078902 
L 328.787604 60.462416 
L 324.020575 60.462416 
L 319.253546 60.462416 
L 312.103003 60.462416 
L 304.952459 60.462416 
L 293.034887 60.462416 
L 281.117314 60.462416 
L 269.199742 60.462416 
L 257.282169 60.462416 
L 250.131626 60.462416 
L 242.981082 60.462416 
L 238.214053 60.462416 
L 233.447024 60.462416 
L 231.307851 63.090272 
L 230.956471 65.229445 
L 226.481455 67.797934 
L 224.092662 69.996474 
L 223.912967 70.089763 
L 219.685175 73.893477 
L 214.494479 79.530532 
L 211.116734 81.537004 
L 209.61188 82.593781 
L 202.793243 89.06459 
L 199.831421 91.201704 
L 188.33828 100.982163 
L 186.728434 101.933862 
L 185.776735 102.586684 
L 177.09129 109.667607 
L 173.560702 112.601275 
L 173.219824 112.899735 
L 171.379461 114.387556 
L 163.326287 120.881097 
L 161.94159 121.914626 
L 155.554664 127.200822 
L 153.701471 128.671804 
L 150.024017 131.477585 
L 145.785423 135.039442 
L 143.689545 136.73488 
L 138.106445 141.147377 
L 137.821688 141.388006 
L 137.278188 141.833212 
L 131.860729 146.268938 
L 129.426418 148.211466 
L 126.188872 150.709603 
L 119.288565 156.429841 
L 114.2713 160.460907 
L 114.141074 160.570025 
L 107.647276 165.863574 
L 99.68874 172.487597 
L 94.517974 176.569417 
L 90.436155 179.866446 
L 84.951685 184.40517 
L 81.400819 187.287406 
L 70.39301 196.322742 
L 68.285378 198.007111 
L 66.60101 199.369621 
L 55.745843 208.240315 
L 55.159241 208.716118 
L 54.683437 209.099972 
L 50.081324 212.842428 
L 42.765865 218.792083 
" clip-path="url(#pbb34c329df)" style="fill: none; stroke: #263238; stroke-width: 0.55"/>
   </g>
   <g id="patch_3">
    <path d="M 42.765865 232.07546 
L 42.765865 41.3943 
" style="fill: none; stroke: #000000; stroke-width: 0.8; stroke-linejoin: miter; stroke-linecap: square"/>
   </g>
   <g id="patch_4">
    <path d="M 424.128184 232.07546 
L 424.128184 41.3943 
" style="fill: none; stroke: #000000; stroke-width: 0.8; stroke-linejoin: miter; stroke-linecap: square"/>
   </g>
   <g id="patch_5">
    <path d="M 42.765865 232.07546 
L 424.128184 232.07546 
" style="fill: none; stroke: #000000; stroke-width: 0.8; stroke-linejoin: miter; stroke-linecap: square"/>
   </g>
   <g id="patch_6">
    <path d="M 42.765865 41.3943 
L 424.128184 41.3943 
" style="fill: none; stroke: #000000; stroke-width: 0.8; stroke-linejoin: miter; stroke-linecap: square"/>
   </g>
   <g id="text_21">
    <!-- CalculiX C3D20R — Mode 2: 22.07 Hz -->
    <g transform="translate(120.469837 35.3943) scale(0.12 -0.12)">
     <defs>
      <path id="DejaVuSans-43" d="M 4122 4306 
L 4122 3641 
Q 3803 3938 3442 4084 
Q 3081 4231 2675 4231 
Q 1875 4231 1450 3742 
Q 1025 3253 1025 2328 
Q 1025 1406 1450 917 
Q 1875 428 2675 428 
Q 3081 428 3442 575 
Q 3803 722 4122 1019 
L 4122 359 
Q 3791 134 3420 21 
Q 3050 -91 2638 -91 
Q 1578 -91 968 557 
Q 359 1206 359 2328 
Q 359 3453 968 4101 
Q 1578 4750 2638 4750 
Q 3056 4750 3426 4639 
Q 3797 4528 4122 4306 
z
" transform="scale(0.015625)"/>
      <path id="DejaVuSans-61" d="M 2194 1759 
Q 1497 1759 1228 1600 
Q 959 1441 959 1056 
Q 959 750 1161 570 
Q 1363 391 1709 391 
Q 2188 391 2477 730 
Q 2766 1069 2766 1631 
L 2766 1759 
L 2194 1759 
z
M 3341 1997 
L 3341 0 
L 2766 0 
L 2766 531 
Q 2569 213 2275 61 
Q 1981 -91 1556 -91 
Q 1019 -91 701 211 
Q 384 513 384 1019 
Q 384 1609 779 1909 
Q 1175 2209 1959 2209 
L 2766 2209 
L 2766 2266 
Q 2766 2663 2505 2880 
Q 2244 3097 1772 3097 
Q 1472 3097 1187 3025 
Q 903 2953 641 2809 
L 641 3341 
Q 956 3463 1253 3523 
Q 1550 3584 1831 3584 
Q 2591 3584 2966 3190 
Q 3341 2797 3341 1997 
z
" transform="scale(0.015625)"/>
      <path id="DejaVuSans-6c" d="M 603 4863 
L 1178 4863 
L 1178 0 
L 603 0 
L 603 4863 
z
" transform="scale(0.015625)"/>
      <path id="DejaVuSans-63" d="M 3122 3366 
L 3122 2828 
Q 2878 2963 2633 3030 
Q 2388 3097 2138 3097 
Q 1578 3097 1268 2742 
Q 959 2388 959 1747 
Q 959 1106 1268 751 
Q 1578 397 2138 397 
Q 2388 397 2633 464 
Q 2878 531 3122 666 
L 3122 134 
Q 2881 22 2623 -34 
Q 2366 -91 2075 -91 
Q 1284 -91 818 406 
Q 353 903 353 1747 
Q 353 2603 823 3093 
Q 1294 3584 2113 3584 
Q 2378 3584 2631 3529 
Q 2884 3475 3122 3366 
z
" transform="scale(0.015625)"/>
      <path id="DejaVuSans-75" d="M 544 1381 
L 544 3500 
L 1119 3500 
L 1119 1403 
Q 1119 906 1312 657 
Q 1506 409 1894 409 
Q 2359 409 2629 706 
Q 2900 1003 2900 1516 
L 2900 3500 
L 3475 3500 
L 3475 0 
L 2900 0 
L 2900 538 
Q 2691 219 2414 64 
Q 2138 -91 1772 -91 
Q 1169 -91 856 284 
Q 544 659 544 1381 
z
M 1991 3584 
L 1991 3584 
z
" transform="scale(0.015625)"/>
      <path id="DejaVuSans-69" d="M 603 3500 
L 1178 3500 
L 1178 0 
L 603 0 
L 603 3500 
z
M 603 4863 
L 1178 4863 
L 1178 4134 
L 603 4134 
L 603 4863 
z
" transform="scale(0.015625)"/>
      <path id="DejaVuSans-58" d="M 403 4666 
L 1081 4666 
L 2241 2931 
L 3406 4666 
L 4084 4666 
L 2584 2425 
L 4184 0 
L 3506 0 
L 2194 1984 
L 872 0 
L 191 0 
L 1856 2491 
L 403 4666 
z
" transform="scale(0.015625)"/>
      <path id="DejaVuSans-44" d="M 1259 4147 
L 1259 519 
L 2022 519 
Q 2988 519 3436 956 
Q 3884 1394 3884 2338 
Q 3884 3275 3436 3711 
Q 2988 4147 2022 4147 
L 1259 4147 
z
M 628 4666 
L 1925 4666 
Q 3281 4666 3915 4102 
Q 4550 3538 4550 2338 
Q 4550 1131 3912 565 
Q 3275 0 1925 0 
L 628 0 
L 628 4666 
z
" transform="scale(0.015625)"/>
      <path id="DejaVuSans-52" d="M 2841 2188 
Q 3044 2119 3236 1894 
Q 3428 1669 3622 1275 
L 4263 0 
L 3584 0 
L 2988 1197 
Q 2756 1666 2539 1819 
Q 2322 1972 1947 1972 
L 1259 1972 
L 1259 0 
L 628 0 
L 628 4666 
L 2053 4666 
Q 2853 4666 3247 4331 
Q 3641 3997 3641 3322 
Q 3641 2881 3436 2590 
Q 3231 2300 2841 2188 
z
M 1259 4147 
L 1259 2491 
L 2053 2491 
Q 2509 2491 2742 2702 
Q 2975 2913 2975 3322 
Q 2975 3731 2742 3939 
Q 2509 4147 2053 4147 
L 1259 4147 
z
" transform="scale(0.015625)"/>
      <path id="DejaVuSans-2014" d="M 313 1978 
L 6088 1978 
L 6088 1528 
L 313 1528 
L 313 1978 
z
" transform="scale(0.015625)"/>
      <path id="DejaVuSans-4d" d="M 628 4666 
L 1569 4666 
L 2759 1491 
L 3956 4666 
L 4897 4666 
L 4897 0 
L 4281 0 
L 4281 4097 
L 3078 897 
L 2444 897 
L 1241 4097 
L 1241 0 
L 628 0 
L 628 4666 
z
" transform="scale(0.015625)"/>
      <path id="DejaVuSans-6f" d="M 1959 3097 
Q 1497 3097 1228 2736 
Q 959 2375 959 1747 
Q 959 1119 1226 758 
Q 1494 397 1959 397 
Q 2419 397 2687 759 
Q 2956 1122 2956 1747 
Q 2956 2369 2687 2733 
Q 2419 3097 1959 3097 
z
M 1959 3584 
Q 2709 3584 3137 3096 
Q 3566 2609 3566 1747 
Q 3566 888 3137 398 
Q 2709 -91 1959 -91 
Q 1206 -91 779 398 
Q 353 888 353 1747 
Q 353 2609 779 3096 
Q 1206 3584 1959 3584 
z
" transform="scale(0.015625)"/>
      <path id="DejaVuSans-64" d="M 2906 2969 
L 2906 4863 
L 3481 4863 
L 3481 0 
L 2906 0 
L 2906 525 
Q 2725 213 2448 61 
Q 2172 -91 1784 -91 
Q 1150 -91 751 415 
Q 353 922 353 1747 
Q 353 2572 751 3078 
Q 1150 3584 1784 3584 
Q 2172 3584 2448 3432 
Q 2725 3281 2906 2969 
z
M 947 1747 
Q 947 1113 1208 752 
Q 1469 391 1925 391 
Q 2381 391 2643 752 
Q 2906 1113 2906 1747 
Q 2906 2381 2643 2742 
Q 2381 3103 1925 3103 
Q 1469 3103 1208 2742 
Q 947 2381 947 1747 
z
" transform="scale(0.015625)"/>
      <path id="DejaVuSans-65" d="M 3597 1894 
L 3597 1613 
L 953 1613 
Q 991 1019 1311 708 
Q 1631 397 2203 397 
Q 2534 397 2845 478 
Q 3156 559 3463 722 
L 3463 178 
Q 3153 47 2828 -22 
Q 2503 -91 2169 -91 
Q 1331 -91 842 396 
Q 353 884 353 1716 
Q 353 2575 817 3079 
Q 1281 3584 2069 3584 
Q 2775 3584 3186 3129 
Q 3597 2675 3597 1894 
z
M 3022 2063 
Q 3016 2534 2758 2815 
Q 2500 3097 2075 3097 
Q 1594 3097 1305 2825 
Q 1016 2553 972 2059 
L 3022 2063 
z
" transform="scale(0.015625)"/>
      <path id="DejaVuSans-3a" d="M 750 794 
L 1409 794 
L 1409 0 
L 750 0 
L 750 794 
z
M 750 3309 
L 1409 3309 
L 1409 2516 
L 750 2516 
L 750 3309 
z
" transform="scale(0.015625)"/>
      <path id="DejaVuSans-2e" d="M 684 794 
L 1344 794 
L 1344 0 
L 684 0 
L 684 794 
z
" transform="scale(0.015625)"/>
      <path id="DejaVuSans-48" d="M 628 4666 
L 1259 4666 
L 1259 2753 
L 3553 2753 
L 3553 4666 
L 4184 4666 
L 4184 0 
L 3553 0 
L 3553 2222 
L 1259 2222 
L 1259 0 
L 628 0 
L 628 4666 
z
" transform="scale(0.015625)"/>
      <path id="DejaVuSans-7a" d="M 353 3500 
L 3084 3500 
L 3084 2975 
L 922 459 
L 3084 459 
L 3084 0 
L 275 0 
L 275 525 
L 2438 3041 
L 353 3041 
L 353 3500 
z
" transform="scale(0.015625)"/>
     </defs>
     <use xlink:href="#DejaVuSans-43"/>
     <use xlink:href="#DejaVuSans-61" x="69.824219"/>
     <use xlink:href="#DejaVuSans-6c" x="131.103516"/>
     <use xlink:href="#DejaVuSans-63" x="158.886719"/>
     <use xlink:href="#DejaVuSans-75" x="213.867188"/>
     <use xlink:href="#DejaVuSans-6c" x="277.246094"/>
     <use xlink:href="#DejaVuSans-69" x="305.029297"/>
     <use xlink:href="#DejaVuSans-58" x="332.8125"/>
     <use xlink:href="#DejaVuSans-20" x="401.318359"/>
     <use xlink:href="#DejaVuSans-43" x="433.105469"/>
     <use xlink:href="#DejaVuSans-33" x="502.929688"/>
     <use xlink:href="#DejaVuSans-44" x="566.552734"/>
     <use xlink:href="#DejaVuSans-32" x="643.554688"/>
     <use xlink:href="#DejaVuSans-30" x="707.177734"/>
     <use xlink:href="#DejaVuSans-52" x="770.800781"/>
     <use xlink:href="#DejaVuSans-20" x="840.283203"/>
     <use xlink:href="#DejaVuSans-2014" x="872.070312"/>
     <use xlink:href="#DejaVuSans-20" x="972.070312"/>
     <use xlink:href="#DejaVuSans-4d" x="1003.857422"/>
     <use xlink:href="#DejaVuSans-6f" x="1090.136719"/>
     <use xlink:href="#DejaVuSans-64" x="1151.318359"/>
     <use xlink:href="#DejaVuSans-65" x="1214.794922"/>
     <use xlink:href="#DejaVuSans-20" x="1276.318359"/>
     <use xlink:href="#DejaVuSans-32" x="1308.105469"/>
     <use xlink:href="#DejaVuSans-3a" x="1371.728516"/>
     <use xlink:href="#DejaVuSans-20" x="1405.419922"/>
     <use xlink:href="#DejaVuSans-32" x="1437.207031"/>
     <use xlink:href="#DejaVuSans-32" x="1500.830078"/>
     <use xlink:href="#DejaVuSans-2e" x="1564.453125"/>
     <use xlink:href="#DejaVuSans-30" x="1596.240234"/>
     <use xlink:href="#DejaVuSans-37" x="1659.863281"/>
     <use xlink:href="#DejaVuSans-20" x="1723.486328"/>
     <use xlink:href="#DejaVuSans-48" x="1755.273438"/>
     <use xlink:href="#DejaVuSans-7a" x="1830.46875"/>
    </g>
   </g>
  </g>
  <g id="axes_2">
   <g id="patch_7">
    <path d="M 452.74005 231.564898 
L 463.171352 231.564898 
L 463.171352 41.904863 
L 452.74005 41.904863 
z
" style="fill: #ffffff"/>
   </g>
   <g id="patch_8">
    <path clip-path="url(#p350a15194a)" style="fill: #ffffff; stroke: #ffffff; stroke-width: 0.01; stroke-linejoin: miter"/>
   </g>
   <g id="patch_9">
    <path d="M 452.74005 231.564898 
L 457.955701 241.047899 
L 463.171352 231.564898 
" style="fill: #053061"/>
   </g>
   <g id="patch_10">
    <path d="M 452.74005 41.904863 
L 457.955701 32.421861 
L 463.171352 41.904863 
" style="fill: #67001f"/>
   </g>
   <g id="QuadMesh_1">
    <path d="M 452.74005 231.564898 
L 463.171352 231.564898 
L 463.171352 219.711145 
L 452.74005 219.711145 
L 452.74005 231.564898 
" clip-path="url(#p350a15194a)" style="fill: #0e4179"/>
    <path d="M 452.74005 219.711145 
L 463.171352 219.711145 
L 463.171352 207.857393 
L 452.74005 207.857393 
L 452.74005 219.711145 
" clip-path="url(#p350a15194a)" style="fill: #1f63a8"/>
    <path d="M 452.74005 207.857393 
L 463.171352 207.857393 
L 463.171352 196.003641 
L 452.74005 196.003641 
L 452.74005 207.857393 
" clip-path="url(#p350a15194a)" style="fill: #3480b9"/>
    <path d="M 452.74005 196.003641 
L 463.171352 196.003641 
L 463.171352 184.149889 
L 452.74005 184.149889 
L 452.74005 196.003641 
" clip-path="url(#p350a15194a)" style="fill: #529dc8"/>
    <path d="M 452.74005 184.149889 
L 463.171352 184.149889 
L 463.171352 172.296137 
L 452.74005 172.296137 
L 452.74005 184.149889 
" clip-path="url(#p350a15194a)" style="fill: #84bcd9"/>
    <path d="M 452.74005 172.296137 
L 463.171352 172.296137 
L 463.171352 160.442384 
L 452.74005 160.442384 
L 452.74005 172.296137 
" clip-path="url(#p350a15194a)" style="fill: #aed3e6"/>
    <path d="M 452.74005 160.442384 
L 463.171352 160.442384 
L 463.171352 148.588632 
L 452.74005 148.588632 
L 452.74005 160.442384 
" clip-path="url(#p350a15194a)" style="fill: #d4e6f1"/>
    <path d="M 452.74005 148.588632 
L 463.171352 148.588632 
L 463.171352 136.73488 
L 452.74005 136.73488 
L 452.74005 148.588632 
" clip-path="url(#p350a15194a)" style="fill: #ecf2f5"/>
    <path d="M 452.74005 136.73488 
L 463.171352 136.73488 
L 463.171352 124.881128 
L 452.74005 124.881128 
L 452.74005 136.73488 
" clip-path="url(#p350a15194a)" style="fill: #f9eee7"/>
    <path d="M 452.74005 124.881128 
L 463.171352 124.881128 
L 463.171352 113.027376 
L 452.74005 113.027376 
L 452.74005 124.881128 
" clip-path="url(#p350a15194a)" style="fill: #fddcc9"/>
    <path d="M 452.74005 113.027376 
L 463.171352 113.027376 
L 463.171352 101.173624 
L 452.74005 101.173624 
L 452.74005 113.027376 
" clip-path="url(#p350a15194a)" style="fill: #f8bb9e"/>
    <path d="M 452.74005 101.173624 
L 463.171352 101.173624 
L 463.171352 89.319871 
L 452.74005 89.319871 
L 452.74005 101.173624 
" clip-path="url(#p350a15194a)" style="fill: #ee9677"/>
    <path d="M 452.74005 89.319871 
L 463.171352 89.319871 
L 463.171352 77.466119 
L 452.74005 77.466119 
L 452.74005 89.319871 
" clip-path="url(#p350a15194a)" style="fill: #db6b55"/>
    <path d="M 452.74005 77.466119 
L 463.171352 77.466119 
L 463.171352 65.612367 
L 452.74005 65.612367 
L 452.74005 77.466119 
" clip-path="url(#p350a15194a)" style="fill: #c53e3d"/>
    <path d="M 452.74005 65.612367 
L 463.171352 65.612367 
L 463.171352 53.758615 
L 452.74005 53.758615 
L 452.74005 65.612367 
" clip-path="url(#p350a15194a)" style="fill: #ab162a"/>
    <path d="M 452.74005 53.758615 
L 463.171352 53.758615 
L 463.171352 41.904863 
L 452.74005 41.904863 
L 452.74005 53.758615 
" clip-path="url(#p350a15194a)" style="fill: #7c0722"/>
   </g>
   <g id="matplotlib.axis_3"/>
   <g id="matplotlib.axis_4">
    <g id="ytick_10">
     <g id="line2d_19">
      <defs>
       <path id="m4e2c19c2e4" d="M 0 0 
L 3.5 0 
" style="stroke: #000000; stroke-width: 0.8"/>
      </defs>
      <g>
       <use xlink:href="#m4e2c19c2e4" x="463.171352" y="231.564898" style="stroke: #000000; stroke-width: 0.8"/>
      </g>
     </g>
     <g id="text_22">
      <!-- −1.00 -->
      <g transform="translate(470.171352 235.364116) scale(0.1 -0.1)">
       <defs>
        <path id="DejaVuSans-2212" d="M 678 2272 
L 4684 2272 
L 4684 1741 
L 678 1741 
L 678 2272 
z
" transform="scale(0.015625)"/>
       </defs>
       <use xlink:href="#DejaVuSans-2212"/>
       <use xlink:href="#DejaVuSans-31" x="83.789062"/>
       <use xlink:href="#DejaVuSans-2e" x="147.412109"/>
       <use xlink:href="#DejaVuSans-30" x="179.199219"/>
       <use xlink:href="#DejaVuSans-30" x="242.822266"/>
      </g>
     </g>
    </g>
    <g id="ytick_11">
     <g id="line2d_20">
      <g>
       <use xlink:href="#m4e2c19c2e4" x="463.171352" y="207.857393" style="stroke: #000000; stroke-width: 0.8"/>
      </g>
     </g>
     <g id="text_23">
      <!-- −0.75 -->
      <g transform="translate(470.171352 211.656612) scale(0.1 -0.1)">
       <use xlink:href="#DejaVuSans-2212"/>
       <use xlink:href="#DejaVuSans-30" x="83.789062"/>
       <use xlink:href="#DejaVuSans-2e" x="147.412109"/>
       <use xlink:href="#DejaVuSans-37" x="179.199219"/>
       <use xlink:href="#DejaVuSans-35" x="242.822266"/>
      </g>
     </g>
    </g>
    <g id="ytick_12">
     <g id="line2d_21">
      <g>
       <use xlink:href="#m4e2c19c2e4" x="463.171352" y="184.149889" style="stroke: #000000; stroke-width: 0.8"/>
      </g>
     </g>
     <g id="text_24">
      <!-- −0.50 -->
      <g transform="translate(470.171352 187.949108) scale(0.1 -0.1)">
       <use xlink:href="#DejaVuSans-2212"/>
       <use xlink:href="#DejaVuSans-30" x="83.789062"/>
       <use xlink:href="#DejaVuSans-2e" x="147.412109"/>
       <use xlink:href="#DejaVuSans-35" x="179.199219"/>
       <use xlink:href="#DejaVuSans-30" x="242.822266"/>
      </g>
     </g>
    </g>
    <g id="ytick_13">
     <g id="line2d_22">
      <g>
       <use xlink:href="#m4e2c19c2e4" x="463.171352" y="160.442384" style="stroke: #000000; stroke-width: 0.8"/>
      </g>
     </g>
     <g id="text_25">
      <!-- −0.25 -->
      <g transform="translate(470.171352 164.241603) scale(0.1 -0.1)">
       <use xlink:href="#DejaVuSans-2212"/>
       <use xlink:href="#DejaVuSans-30" x="83.789062"/>
       <use xlink:href="#DejaVuSans-2e" x="147.412109"/>
       <use xlink:href="#DejaVuSans-32" x="179.199219"/>
       <use xlink:href="#DejaVuSans-35" x="242.822266"/>
      </g>
     </g>
    </g>
    <g id="ytick_14">
     <g id="line2d_23">
      <g>
       <use xlink:href="#m4e2c19c2e4" x="463.171352" y="136.73488" style="stroke: #000000; stroke-width: 0.8"/>
      </g>
     </g>
     <g id="text_26">
      <!-- 0.00 -->
      <g transform="translate(470.171352 140.534099) scale(0.1 -0.1)">
       <use xlink:href="#DejaVuSans-30"/>
       <use xlink:href="#DejaVuSans-2e" x="63.623047"/>
       <use xlink:href="#DejaVuSans-30" x="95.410156"/>
       <use xlink:href="#DejaVuSans-30" x="159.033203"/>
      </g>
     </g>
    </g>
    <g id="ytick_15">
     <g id="line2d_24">
      <g>
       <use xlink:href="#m4e2c19c2e4" x="463.171352" y="113.027376" style="stroke: #000000; stroke-width: 0.8"/>
      </g>
     </g>
     <g id="text_27">
      <!-- 0.25 -->
      <g transform="translate(470.171352 116.826594) scale(0.1 -0.1)">
       <use xlink:href="#DejaVuSans-30"/>
       <use xlink:href="#DejaVuSans-2e" x="63.623047"/>
       <use xlink:href="#DejaVuSans-32" x="95.410156"/>
       <use xlink:href="#DejaVuSans-35" x="159.033203"/>
      </g>
     </g>
    </g>
    <g id="ytick_16">
     <g id="line2d_25">
      <g>
       <use xlink:href="#m4e2c19c2e4" x="463.171352" y="89.319871" style="stroke: #000000; stroke-width: 0.8"/>
      </g>
     </g>
     <g id="text_28">
      <!-- 0.50 -->
      <g transform="translate(470.171352 93.11909) scale(0.1 -0.1)">
       <use xlink:href="#DejaVuSans-30"/>
       <use xlink:href="#DejaVuSans-2e" x="63.623047"/>
       <use xlink:href="#DejaVuSans-35" x="95.410156"/>
       <use xlink:href="#DejaVuSans-30" x="159.033203"/>
      </g>
     </g>
    </g>
    <g id="ytick_17">
     <g id="line2d_26">
      <g>
       <use xlink:href="#m4e2c19c2e4" x="463.171352" y="65.612367" style="stroke: #000000; stroke-width: 0.8"/>
      </g>
     </g>
     <g id="text_29">
      <!-- 0.75 -->
      <g transform="translate(470.171352 69.411586) scale(0.1 -0.1)">
       <use xlink:href="#DejaVuSans-30"/>
       <use xlink:href="#DejaVuSans-2e" x="63.623047"/>
       <use xlink:href="#DejaVuSans-37" x="95.410156"/>
       <use xlink:href="#DejaVuSans-35" x="159.033203"/>
      </g>
     </g>
    </g>
    <g id="ytick_18">
     <g id="line2d_27">
      <g>
       <use xlink:href="#m4e2c19c2e4" x="463.171352" y="41.904863" style="stroke: #000000; stroke-width: 0.8"/>
      </g>
     </g>
     <g id="text_30">
      <!-- 1.00 -->
      <g transform="translate(470.171352 45.704081) scale(0.1 -0.1)">
       <use xlink:href="#DejaVuSans-31"/>
       <use xlink:href="#DejaVuSans-2e" x="63.623047"/>
       <use xlink:href="#DejaVuSans-30" x="95.410156"/>
       <use xlink:href="#DejaVuSans-30" x="159.033203"/>
      </g>
     </g>
    </g>
    <g id="text_31">
     <!-- normalized z displacement -->
     <g transform="translate(512.415102 204.017693) rotate(-90) scale(0.1 -0.1)">
      <defs>
       <path id="DejaVuSans-6e" d="M 3513 2113 
L 3513 0 
L 2938 0 
L 2938 2094 
Q 2938 2591 2744 2837 
Q 2550 3084 2163 3084 
Q 1697 3084 1428 2787 
Q 1159 2491 1159 1978 
L 1159 0 
L 581 0 
L 581 3500 
L 1159 3500 
L 1159 2956 
Q 1366 3272 1645 3428 
Q 1925 3584 2291 3584 
Q 2894 3584 3203 3211 
Q 3513 2838 3513 2113 
z
" transform="scale(0.015625)"/>
       <path id="DejaVuSans-72" d="M 2631 2963 
Q 2534 3019 2420 3045 
Q 2306 3072 2169 3072 
Q 1681 3072 1420 2755 
Q 1159 2438 1159 1844 
L 1159 0 
L 581 0 
L 581 3500 
L 1159 3500 
L 1159 2956 
Q 1341 3275 1631 3429 
Q 1922 3584 2338 3584 
Q 2397 3584 2469 3576 
Q 2541 3569 2628 3553 
L 2631 2963 
z
" transform="scale(0.015625)"/>
       <path id="DejaVuSans-73" d="M 2834 3397 
L 2834 2853 
Q 2591 2978 2328 3040 
Q 2066 3103 1784 3103 
Q 1356 3103 1142 2972 
Q 928 2841 928 2578 
Q 928 2378 1081 2264 
Q 1234 2150 1697 2047 
L 1894 2003 
Q 2506 1872 2764 1633 
Q 3022 1394 3022 966 
Q 3022 478 2636 193 
Q 2250 -91 1575 -91 
Q 1294 -91 989 -36 
Q 684 19 347 128 
L 347 722 
Q 666 556 975 473 
Q 1284 391 1588 391 
Q 1994 391 2212 530 
Q 2431 669 2431 922 
Q 2431 1156 2273 1281 
Q 2116 1406 1581 1522 
L 1381 1569 
Q 847 1681 609 1914 
Q 372 2147 372 2553 
Q 372 3047 722 3315 
Q 1072 3584 1716 3584 
Q 2034 3584 2315 3537 
Q 2597 3491 2834 3397 
z
" transform="scale(0.015625)"/>
       <path id="DejaVuSans-70" d="M 1159 525 
L 1159 -1331 
L 581 -1331 
L 581 3500 
L 1159 3500 
L 1159 2969 
Q 1341 3281 1617 3432 
Q 1894 3584 2278 3584 
Q 2916 3584 3314 3078 
Q 3713 2572 3713 1747 
Q 3713 922 3314 415 
Q 2916 -91 2278 -91 
Q 1894 -91 1617 61 
Q 1341 213 1159 525 
z
M 3116 1747 
Q 3116 2381 2855 2742 
Q 2594 3103 2138 3103 
Q 1681 3103 1420 2742 
Q 1159 2381 1159 1747 
Q 1159 1113 1420 752 
Q 1681 391 2138 391 
Q 2594 391 2855 752 
Q 3116 1113 3116 1747 
z
" transform="scale(0.015625)"/>
       <path id="DejaVuSans-74" d="M 1172 4494 
L 1172 3500 
L 2356 3500 
L 2356 3053 
L 1172 3053 
L 1172 1153 
Q 1172 725 1289 603 
Q 1406 481 1766 481 
L 2356 481 
L 2356 0 
L 1766 0 
Q 1100 0 847 248 
Q 594 497 594 1153 
L 594 3053 
L 172 3053 
L 172 3500 
L 594 3500 
L 594 4494 
L 1172 4494 
z
" transform="scale(0.015625)"/>
      </defs>
      <use xlink:href="#DejaVuSans-6e"/>
      <use xlink:href="#DejaVuSans-6f" x="63.378906"/>
      <use xlink:href="#DejaVuSans-72" x="124.560547"/>
      <use xlink:href="#DejaVuSans-6d" x="163.923828"/>
      <use xlink:href="#DejaVuSans-61" x="261.335938"/>
      <use xlink:href="#DejaVuSans-6c" x="322.615234"/>
      <use xlink:href="#DejaVuSans-69" x="350.398438"/>
      <use xlink:href="#DejaVuSans-7a" x="378.181641"/>
      <use xlink:href="#DejaVuSans-65" x="430.671875"/>
      <use xlink:href="#DejaVuSans-64" x="492.195312"/>
      <use xlink:href="#DejaVuSans-20" x="555.671875"/>
      <use xlink:href="#DejaVuSans-7a" x="587.458984"/>
      <use xlink:href="#DejaVuSans-20" x="639.949219"/>
      <use xlink:href="#DejaVuSans-64" x="671.736328"/>
      <use xlink:href="#DejaVuSans-69" x="735.212891"/>
      <use xlink:href="#DejaVuSans-73" x="762.996094"/>
      <use xlink:href="#DejaVuSans-70" x="815.095703"/>
      <use xlink:href="#DejaVuSans-6c" x="878.572266"/>
      <use xlink:href="#DejaVuSans-61" x="906.355469"/>
      <use xlink:href="#DejaVuSans-63" x="967.634766"/>
      <use xlink:href="#DejaVuSans-65" x="1022.615234"/>
      <use xlink:href="#DejaVuSans-6d" x="1084.138672"/>
      <use xlink:href="#DejaVuSans-65" x="1181.550781"/>
      <use xlink:href="#DejaVuSans-6e" x="1243.074219"/>
      <use xlink:href="#DejaVuSans-74" x="1306.453125"/>
     </g>
    </g>
   </g>
   <g id="LineCollection_1"/>
   <g id="patch_11">
    <path d="M 452.74005 231.564898 
L 457.955701 241.047899 
L 463.171352 231.564898 
L 463.171352 41.904863 
L 457.955701 32.421861 
L 452.74005 41.904863 
L 452.74005 231.564898 
z
" style="fill: none; stroke: #000000; stroke-width: 0.8; stroke-linejoin: miter; stroke-linecap: square"/>
   </g>
  </g>
 </g>
 <defs>
  <clipPath id="pbb34c329df">
   <rect x="42.765865" y="41.3943" width="381.362319" height="190.681159"/>
  </clipPath>
  <clipPath id="p350a15194a">
   <rect x="452.74005" y="41.904863" width="10.431302" height="189.660035"/>
  </clipPath>
 </defs>
 <defs>
  <pattern id="hd8f23c1688" patternUnits="userSpaceOnUse" x="0" y="0" width="72" height="72">
   <rect x="0" y="0" width="73" height="73" fill="#333333"/>
   <path d="M -36 36 
L 36 -36 
M -33 39 
L 39 -33 
M -30 42 
L 42 -30 
M -27 45 
L 45 -27 
M -24 48 
L 48 -24 
M -21 51 
L 51 -21 
M -18 54 
L 54 -18 
M -15 57 
L 57 -15 
M -12 60 
L 60 -12 
M -9 63 
L 63 -9 
M -6 66 
L 66 -6 
M -3 69 
L 69 -3 
M 0 72 
L 72 0 
M 3 75 
L 75 3 
M 6 78 
L 78 6 
M 9 81 
L 81 9 
M 12 84 
L 84 12 
M 15 87 
L 87 15 
M 18 90 
L 90 18 
M 21 93 
L 93 21 
M 24 96 
L 96 24 
M 27 99 
L 99 27 
M 30 102 
L 102 30 
M 33 105 
L 105 33 
M 36 108 
L 108 36 
" style="fill: #333333; stroke: #333333; stroke-width: 1.0; stroke-linecap: butt; stroke-linejoin: miter; stroke-opacity: 0.3"/>
  </pattern>
 </defs>
</svg>
