<?xml version="1.0" encoding="utf-8" standalone="no"?>
<!DOCTYPE svg PUBLIC "-//W3C//DTD SVG 1.1//EN"
  "http://www.w3.org/Graphics/SVG/1.1/DTD/svg11.dtd">
<svg xmlns:xlink="http://www.w3.org/1999/xlink" width="518.4pt" height="273.6pt" viewBox="0 0 518.4 273.6" xmlns="http://www.w3.org/2000/svg" version="1.1">
 <metadata>
  <rdf:RDF xmlns:dc="http://purl.org/dc/elements/1.1/" xmlns:cc="http://creativecommons.org/ns#" xmlns:rdf="http://www.w3.org/1999/02/22-rdf-syntax-ns#">
   <cc:Work>
    <dc:type rdf:resource="http://purl.org/dc/dcmitype/StillImage"/>
    <dc:format>image/svg+xml</dc:format>
    <dc:creator>
     <cc:Agent>
      <dc:title>Matplotlib v3.6.3, https://matplotlib.org/</dc:title>
     </cc:Agent>
    </dc:creator>
   </cc:Work>
  </rdf:RDF>
 </metadata>
 <defs>
  <style type="text/css">*{stroke-linejoin: round; stroke-linecap: butt}</style>
 </defs>
 <g id="figure_1">
  <g id="patch_1">
   <path d="M 0 273.6 
L 518.4 273.6 
L 518.4 0 
L 0 0 
z
" style="fill: #ffffff"/>
  </g>
  <g id="axes_1">
   <g id="patch_2">
    <path d="M 42.765865 232.07546 
L 424.128184 232.07546 
L 424.128184 41.3943 
L 42.765865 41.3943 
z
" style="fill: #ffffff"/>
   </g>
   <g id="PathCollection_1">
    <path clip-path="url(#p85aa91efb2)" style="fill: #053061"/>
   </g>
   <g id="PathCollection_2">
    <path d="M 64.089804 41.3943 
L 62.546979 42.967009 
L 60.497117 44.998593 
L 59.346774 46.161329 
L 58.576705 46.939983 
L 54.683437 50.75877 
L 54.538634 50.899398 
L 54.508225 50.928358 
L 54.461438 50.972758 
L 50.432495 54.845199 
L 49.52664 55.695387 
L 48.121366 57.007802 
L 46.25471 58.776671 
L 44.424497 60.462416 
L 42.765865 61.977645 
L 42.765865 60.462416 
L 42.765865 58.078902 
L 42.765865 55.695387 
L 42.765865 53.311873 
L 42.765865 50.928358 
L 42.765865 48.544844 
L 42.765865 46.161329 
L 42.765865 43.777815 
L 42.765865 41.3943 
L 54.683437 41.3943 
M 418.61443 232.07546 
L 422.831725 221.454346 
L 423.338389 220.157887 
L 423.562633 219.592336 
L 424.128184 218.25677 
L 424.128184 220.157887 
L 424.128184 232.07546 
" clip-path="url(#p85aa91efb2)" style="fill: #0e4179"/>
   </g>
   <g id="PathCollection_3">
    <path d="M 42.765865 61.977645 
L 44.424497 60.462416 
L 46.25471 58.776671 
L 48.121366 57.007802 
L 49.52664 55.695387 
L 50.432495 54.845199 
L 54.461438 50.972758 
L 54.508225 50.928358 
L 54.538634 50.899398 
L 54.683437 50.75877 
L 58.576705 46.939983 
L 59.346774 46.161329 
L 60.497117 44.998593 
L 62.546979 42.967009 
L 64.089804 41.3943 
L 66.60101 41.3943 
L 78.518582 41.3943 
L 84.638602 41.3943 
L 83.7429 42.439164 
L 80.76863 45.71132 
L 80.376384 46.161329 
L 80.10069 46.477751 
L 78.518582 48.189064 
L 76.348223 50.494286 
L 75.920665 50.928358 
L 75.282439 51.575587 
L 72.493592 54.490389 
L 71.286266 55.695387 
L 69.467931 57.505517 
L 68.532222 58.465144 
L 66.60101 60.354454 
L 66.489832 60.462416 
L 63.032367 63.801988 
L 57.518568 68.862422 
L 56.302405 69.996474 
L 55.548423 70.688462 
L 54.683437 71.415143 
L 44.091141 80.590753 
L 42.765865 81.642213 
L 42.765865 79.530532 
L 42.765865 69.996474 
L 42.765865 65.229445 
M 424.128184 218.25677 
L 423.562633 219.592336 
L 423.338389 220.157887 
L 422.831725 221.454346 
L 418.61443 232.07546 
L 412.210612 232.07546 
L 400.558822 232.07546 
L 403.653588 223.518437 
L 404.966911 220.157887 
L 408.037711 212.413216 
L 409.636877 208.240315 
L 410.373741 206.403444 
L 412.210612 202.413781 
L 417.759602 189.95416 
L 420.58437 184.40517 
L 424.128184 177.901459 
L 424.128184 184.40517 
L 424.128184 196.322742 
L 424.128184 208.240315 
" clip-path="url(#p85aa91efb2)" style="fill: #1f63a8"/>
   </g>
   <g id="PathCollection_4">
    <path d="M 42.765865 81.642213 
L 44.091141 80.590753 
L 54.683437 71.415143 
L 55.548423 70.688462 
L 56.302405 69.996474 
L 57.518568 68.862422 
L 63.032367 63.801988 
L 66.489832 60.462416 
L 66.60101 60.354454 
L 68.532222 58.465144 
L 69.467931 57.505517 
L 71.286266 55.695387 
L 72.493592 54.490389 
L 75.282439 51.575587 
L 75.920665 50.928358 
L 76.348223 50.494286 
L 78.518582 48.189064 
L 80.10069 46.477751 
L 80.376384 46.161329 
L 80.76863 45.71132 
L 83.7429 42.439164 
L 84.638602 41.3943 
L 90.436155 41.3943 
L 102.353727 41.3943 
L 104.50666 41.3943 
L 104.236322 41.770819 
L 102.353727 44.159894 
L 100.978671 45.886318 
L 100.742467 46.161329 
L 100.408449 46.550385 
L 97.616352 49.980883 
L 96.784789 50.928358 
L 95.597974 52.279509 
L 94.121895 54.049021 
L 92.642298 55.695387 
L 90.509007 58.064331 
L 90.487691 58.089209 
L 90.436155 58.14507 
L 88.287513 60.462416 
L 85.6353 63.309103 
L 79.19171 69.727223 
L 78.928874 69.996474 
L 78.747427 70.17955 
L 78.518582 70.386354 
L 67.684501 80.397325 
L 66.60101 81.303235 
L 57.37316 89.06459 
L 55.893532 90.274685 
L 54.683437 91.150499 
L 45.861323 97.886705 
L 42.765865 100.264597 
L 42.765865 89.06459 
M 424.128184 177.901459 
L 420.58437 184.40517 
L 417.759602 189.95416 
L 412.210612 202.413781 
L 410.373741 206.403444 
L 409.636877 208.240315 
L 408.037711 212.413216 
L 404.966911 220.157887 
L 403.653588 223.518437 
L 400.558822 232.07546 
L 400.293039 232.07546 
L 388.375467 232.07546 
L 382.990642 232.07546 
L 384.191277 227.89127 
L 386.816445 220.157887 
L 390.198956 210.063805 
L 390.895243 208.240315 
L 392.573019 204.042763 
L 396.875542 192.905245 
L 400.293039 185.359748 
L 400.72298 184.40517 
L 404.44766 176.642219 
L 412.210612 162.746732 
L 412.970275 161.329688 
L 413.44276 160.570025 
L 414.22684 159.360288 
L 419.641764 150.727629 
L 422.759774 146.268938 
L 424.128184 144.345743 
L 424.128184 146.268938 
L 424.128184 153.419482 
L 424.128184 160.570025 
L 424.128184 172.487597 
" clip-path="url(#p85aa91efb2)" style="fill: #3480b9"/>
   </g>
   <g id="PathCollection_5">
    <path d="M 42.765865 100.264597 
L 45.861323 97.886705 
L 54.683437 91.150499 
L 55.893532 90.274685 
L 57.37316 89.06459 
L 66.60101 81.303235 
L 67.684501 80.397325 
L 78.518582 70.386354 
L 78.747427 70.17955 
L 78.928874 69.996474 
L 79.19171 69.727223 
L 85.6353 63.309103 
L 88.287513 60.462416 
L 90.436155 58.14507 
L 90.487691 58.089209 
L 90.509007 58.064331 
L 92.642298 55.695387 
L 94.121895 54.049021 
L 95.597974 52.279509 
L 96.784789 50.928358 
L 97.616352 49.980883 
L 100.408449 46.550385 
L 100.742467 46.161329 
L 100.978671 45.886318 
L 102.353727 44.159894 
L 104.236322 41.770819 
L 104.50666 41.3943 
L 114.2713 41.3943 
L 124.045278 41.3943 
L 123.68639 41.894797 
L 121.497675 45.22309 
L 120.805583 46.161329 
L 119.873429 47.424418 
L 118.533491 49.397282 
L 117.369433 50.928358 
L 115.784306 53.009272 
L 115.411202 53.539853 
L 114.2713 54.990879 
L 113.722552 55.695387 
L 112.186072 57.661856 
L 111.324301 58.668301 
L 109.881199 60.462416 
L 108.040008 62.736928 
L 102.353727 69.048217 
L 101.729092 69.74662 
L 101.485152 69.996474 
L 98.157374 73.353557 
L 91.365626 80.274109 
L 90.436155 81.107927 
L 81.670588 89.06459 
L 79.996282 90.542289 
L 67.009183 100.982163 
L 66.77882 101.159973 
L 66.60101 101.285821 
L 65.527151 102.056021 
L 54.683437 109.904223 
L 52.984877 111.201175 
L 50.465451 112.899735 
L 42.765865 117.96911 
L 42.765865 112.899735 
L 42.765865 100.982163 
M 424.128184 144.345743 
L 422.759774 146.268938 
L 419.641764 150.727629 
L 414.22684 159.360288 
L 413.44276 160.570025 
L 412.970275 161.329688 
L 412.210612 162.746732 
L 404.44766 176.642219 
L 400.72298 184.40517 
L 400.293039 185.359748 
L 396.875542 192.905245 
L 392.573019 204.042763 
L 390.895243 208.240315 
L 390.198956 210.063805 
L 386.816445 220.157887 
L 384.191277 227.89127 
L 382.990642 232.07546 
L 376.457894 232.07546 
L 365.77355 232.07546 
L 366.260283 230.355499 
L 368.834031 220.157887 
L 370.394745 214.094738 
L 372.228651 208.240315 
L 375.986397 196.79424 
L 376.124765 196.322742 
L 376.206736 196.071584 
L 376.457894 195.41459 
L 380.617934 184.40517 
L 382.853482 178.883185 
L 388.375467 167.603765 
L 390.622637 162.817195 
L 391.868624 160.570025 
L 393.726264 157.359547 
L 397.007823 151.448352 
L 400.252559 146.268938 
L 400.293039 146.20557 
L 402.660488 142.448889 
L 404.467911 139.83196 
L 406.515855 136.73488 
L 407.717403 134.937597 
L 412.210612 128.772682 
L 413.090661 127.552842 
L 413.367223 127.200822 
L 414.406898 125.88305 
L 420.518606 117.884532 
L 424.128184 113.558513 
L 424.128184 120.050279 
L 424.128184 127.200822 
L 424.128184 131.967851 
L 424.128184 136.73488 
L 424.128184 141.501909 
" clip-path="url(#p85aa91efb2)" style="fill: #529dc8"/>
   </g>
   <g id="PathCollection_6">
    <path d="M 42.765865 117.96911 
L 50.465451 112.899735 
L 52.984877 111.201175 
L 54.683437 109.904223 
L 65.527151 102.056021 
L 66.60101 101.285821 
L 66.77882 101.159973 
L 67.009183 100.982163 
L 79.996282 90.542289 
L 81.670588 89.06459 
L 90.436155 81.107927 
L 91.365626 80.274109 
L 98.157374 73.353557 
L 101.485152 69.996474 
L 101.729092 69.74662 
L 102.353727 69.048217 
L 108.040008 62.736928 
L 109.881199 60.462416 
L 111.324301 58.668301 
L 112.186072 57.661856 
L 113.722552 55.695387 
L 114.2713 54.990879 
L 115.411202 53.539853 
L 115.784306 53.009272 
L 117.369433 50.928358 
L 118.533491 49.397282 
L 119.873429 47.424418 
L 120.805583 46.161329 
L 121.497675 45.22309 
L 123.68639 41.894797 
L 124.045278 41.3943 
L 126.188872 41.3943 
L 138.106445 41.3943 
L 143.870951 41.3943 
L 143.043848 42.790334 
L 142.11718 44.579962 
L 141.144402 46.161329 
L 139.893439 48.187445 
L 139.543342 48.832223 
L 138.197458 50.928358 
L 138.106445 51.06941 
L 136.860344 53.062653 
L 136.444151 53.644331 
L 135.113526 55.695387 
L 134.083073 57.274227 
L 132.673612 59.165468 
L 131.793982 60.462416 
L 130.587978 62.222058 
L 126.188872 67.740929 
L 124.856382 69.463478 
L 124.389603 69.996474 
L 119.90273 75.025388 
L 115.267499 80.327491 
L 114.2713 81.290178 
L 106.470037 89.06459 
L 104.374393 91.085256 
L 102.353727 92.72241 
L 91.5471 102.093107 
L 90.436155 102.91601 
L 82.392636 109.025681 
L 78.019793 112.400946 
L 77.315055 112.899735 
L 69.440058 118.34685 
L 66.808986 120.175064 
L 66.60101 120.306669 
L 55.888044 127.200822 
L 55.422964 127.496633 
L 54.683437 127.935363 
L 45.924446 133.231284 
L 42.765865 135.013568 
L 42.765865 131.967851 
L 42.765865 127.200822 
L 42.765865 120.050279 
M 424.128184 113.558513 
L 420.518606 117.884532 
L 414.406898 125.88305 
L 413.367223 127.200822 
L 413.090661 127.552842 
L 412.210612 128.772682 
L 407.717403 134.937597 
L 406.515855 136.73488 
L 404.467911 139.83196 
L 402.660488 142.448889 
L 400.293039 146.20557 
L 400.252559 146.268938 
L 397.007823 151.448352 
L 393.726264 157.359547 
L 391.868624 160.570025 
L 390.622637 162.817195 
L 388.375467 167.603765 
L 382.853482 178.883185 
L 380.617934 184.40517 
L 376.457894 195.41459 
L 376.206736 196.071584 
L 376.124765 196.322742 
L 375.986397 196.79424 
L 372.228651 208.240315 
L 370.394745 214.094738 
L 368.834031 220.157887 
L 366.260283 230.355499 
L 365.77355 232.07546 
L 364.540322 232.07546 
L 352.622749 232.07546 
L 348.765125 232.07546 
L 350.317951 223.999217 
L 350.966266 220.157887 
L 351.350537 218.037535 
L 352.622749 212.313844 
L 353.520564 208.240315 
L 355.625271 199.325264 
L 356.506411 196.322742 
L 358.388013 190.557478 
L 360.141937 184.40517 
L 361.187952 181.052801 
L 364.369862 172.487597 
L 367.985856 164.015559 
L 369.656349 160.570025 
L 371.910054 156.148186 
L 373.936662 151.906742 
L 376.457894 147.4271 
L 377.089021 146.268938 
L 379.150487 142.578946 
L 380.945845 139.706729 
L 382.703009 136.73488 
L 383.801592 134.90533 
L 388.375467 128.042083 
L 388.807974 127.373825 
L 388.930691 127.200822 
L 389.347204 126.617779 
L 395.752346 117.325863 
L 399.102345 112.899735 
L 400.293039 111.318929 
L 404.69453 105.383653 
L 412.210612 96.050554 
L 415.351463 92.205441 
L 418.133713 89.06459 
L 424.128184 82.072995 
L 424.128184 89.06459 
L 424.128184 100.982163 
L 424.128184 112.899735 
" clip-path="url(#p85aa91efb2)" style="fill: #84bcd9"/>
   </g>
   <g id="PathCollection_7">
    <path d="M 42.765865 135.013568 
L 45.924446 133.231284 
L 54.683437 127.935363 
L 55.422964 127.496633 
L 55.888044 127.200822 
L 66.60101 120.306669 
L 66.808986 120.175064 
L 69.440058 118.34685 
L 77.315055 112.899735 
L 78.019793 112.400946 
L 82.392636 109.025681 
L 90.436155 102.91601 
L 91.5471 102.093107 
L 102.353727 92.72241 
L 104.374393 91.085256 
L 106.470037 89.06459 
L 114.2713 81.290178 
L 115.267499 80.327491 
L 119.90273 75.025388 
L 124.389603 69.996474 
L 124.856382 69.463478 
L 126.188872 67.740929 
L 130.587978 62.222058 
L 131.793982 60.462416 
L 132.673612 59.165468 
L 134.083073 57.274227 
L 135.113526 55.695387 
L 136.444151 53.644331 
L 136.860344 53.062653 
L 138.106445 51.06941 
L 138.197458 50.928358 
L 139.543342 48.832223 
L 139.893439 48.187445 
L 141.144402 46.161329 
L 142.11718 44.579962 
L 143.043848 42.790334 
L 143.870951 41.3943 
L 150.024017 41.3943 
L 161.94159 41.3943 
L 164.803351 41.3943 
L 163.879499 43.390233 
L 163.61307 44.112111 
L 162.613859 46.161329 
L 161.94159 47.525878 
L 161.511461 48.458818 
L 161.401142 48.652933 
L 160.299259 50.928358 
L 159.382567 52.800068 
L 158.684813 53.963228 
L 157.792389 55.695387 
L 157.058876 57.102359 
L 155.638454 59.339529 
L 155.021561 60.462416 
L 154.10705 62.095629 
L 150.024017 67.95794 
L 148.969527 69.574678 
L 148.641528 69.996474 
L 146.193754 73.060685 
L 140.027178 81.067119 
L 138.106445 83.05225 
L 132.642754 89.06459 
L 129.498672 92.37439 
L 126.188872 95.155549 
L 117.001349 103.712212 
L 114.2713 105.794504 
L 105.40556 112.899735 
L 104.077253 113.933851 
L 102.353727 115.119475 
L 93.25763 121.743163 
L 90.436155 123.580834 
L 85.060673 127.200822 
L 82.602553 128.83441 
L 78.518582 131.341685 
L 73.301151 134.647908 
L 69.756419 136.73488 
L 66.60101 138.578314 
L 63.663498 140.326904 
L 54.683437 145.319254 
L 53.700239 145.875659 
L 52.956536 146.268938 
L 42.765865 151.627372 
L 42.765865 146.268938 
L 42.765865 141.501909 
L 42.765865 136.73488 
M 424.128184 82.072995 
L 418.133713 89.06459 
L 415.351463 92.205441 
L 412.210612 96.050554 
L 404.69453 105.383653 
L 400.293039 111.318929 
L 399.102345 112.899735 
L 395.752346 117.325863 
L 389.347204 126.617779 
L 388.930691 127.200822 
L 388.807974 127.373825 
L 388.375467 128.042083 
L 383.801592 134.90533 
L 382.703009 136.73488 
L 380.945845 139.706729 
L 379.150487 142.578946 
L 377.089021 146.268938 
L 376.457894 147.4271 
L 373.936662 151.906742 
L 371.910054 156.148186 
L 369.656349 160.570025 
L 367.985856 164.015559 
L 364.369862 172.487597 
L 361.187952 181.052801 
L 360.141937 184.40517 
L 358.388013 190.557478 
L 356.506411 196.322742 
L 355.625271 199.325264 
L 353.520564 208.240315 
L 352.622749 212.313844 
L 351.350537 218.037535 
L 350.966266 220.157887 
L 350.317951 223.999217 
L 348.765125 232.07546 
L 345.472206 232.07546 
L 338.321662 232.07546 
L 333.554633 232.07546 
L 331.707178 232.07546 
L 332.023523 228.247685 
L 332.926581 220.157887 
L 334.218924 209.901043 
L 334.478721 208.240315 
L 335.188653 204.155265 
L 336.419856 196.322742 
L 337.022632 193.075167 
L 338.321662 187.233471 
L 338.940114 184.40517 
L 340.842212 176.688513 
L 342.086519 172.487597 
L 345.907556 161.295609 
L 346.195242 160.570025 
L 346.726131 159.316099 
L 350.119333 150.916066 
L 352.370329 146.268938 
L 352.622749 145.765324 
L 354.336269 142.187317 
L 355.342294 140.414091 
L 357.251095 136.73488 
L 358.527508 134.329755 
L 362.439712 128.041066 
L 362.921313 127.200822 
L 363.342197 126.481947 
L 364.540322 124.743865 
L 370.003993 116.177938 
L 372.371821 112.899735 
L 376.457894 107.252153 
L 379.009715 103.533983 
L 388.375467 91.161252 
L 389.267354 89.956477 
L 389.989168 89.06459 
L 392.728672 85.582026 
L 398.469787 78.07193 
L 400.293039 75.874885 
L 405.043351 69.996474 
L 406.770058 67.820253 
L 412.210612 61.339476 
L 412.761128 60.682623 
L 412.954986 60.462416 
L 413.111067 60.282325 
L 416.286342 56.510533 
L 416.995858 55.695387 
L 417.996441 54.538221 
L 419.767643 52.439765 
L 421.079771 50.928358 
L 422.933327 48.783815 
L 423.279781 48.375163 
L 424.128184 47.397577 
L 424.128184 48.544844 
L 424.128184 50.928358 
L 424.128184 53.311873 
L 424.128184 55.695387 
L 424.128184 58.078902 
L 424.128184 60.462416 
L 424.128184 65.229445 
L 424.128184 69.996474 
L 424.128184 79.530532 
" clip-path="url(#p85aa91efb2)" style="fill: #aed3e6"/>
   </g>
   <g id="PathCollection_8">
    <path d="M 42.765865 151.627372 
L 52.956536 146.268938 
L 53.700239 145.875659 
L 54.683437 145.319254 
L 63.663498 140.326904 
L 66.60101 138.578314 
L 69.756419 136.73488 
L 73.301151 134.647908 
L 78.518582 131.341685 
L 82.602553 128.83441 
L 85.060673 127.200822 
L 90.436155 123.580834 
L 93.25763 121.743163 
L 102.353727 115.119475 
L 104.077253 113.933851 
L 105.40556 112.899735 
L 114.2713 105.794504 
L 117.001349 103.712212 
L 126.188872 95.155549 
L 129.498672 92.37439 
L 132.642754 89.06459 
L 138.106445 83.05225 
L 140.027178 81.067119 
L 146.193754 73.060685 
L 148.641528 69.996474 
L 148.969527 69.574678 
L 150.024017 67.95794 
L 154.10705 62.095629 
L 155.021561 60.462416 
L 155.638454 59.339529 
L 157.058876 57.102359 
L 157.792389 55.695387 
L 158.684813 53.963228 
L 159.382567 52.800068 
L 160.299259 50.928358 
L 161.401142 48.652933 
L 161.511461 48.458818 
L 161.94159 47.525878 
L 162.613859 46.161329 
L 163.61307 44.112111 
L 163.879499 43.390233 
L 164.803351 41.3943 
L 173.859162 41.3943 
L 185.776735 41.3943 
L 188.736237 41.3943 
L 188.1362 43.305922 
L 187.961894 44.214847 
L 187.29713 46.161329 
L 186.5105 48.398091 
L 186.44641 48.678779 
L 185.776735 50.429532 
L 185.611545 50.928358 
L 184.862521 53.12903 
L 184.669557 53.533308 
L 183.874453 55.695387 
L 183.17194 57.557943 
L 182.566634 58.720922 
L 181.855943 60.462416 
L 180.693913 63.196316 
L 177.49681 68.541415 
L 176.768816 69.996474 
L 175.884054 71.616387 
L 173.859162 74.117636 
L 167.326417 83.838394 
L 162.489131 89.06459 
L 161.94159 89.617807 
L 156.615347 95.65592 
L 150.024017 101.181249 
L 144.128973 107.00469 
L 138.106445 111.578775 
L 136.515356 112.899735 
L 132.088088 116.439265 
L 126.188872 120.460387 
L 121.192277 124.202865 
L 116.58209 127.200822 
L 114.2713 128.67945 
L 111.229641 130.751188 
L 102.353727 136.231787 
L 101.87623 136.543881 
L 101.55719 136.73488 
L 99.907654 137.71331 
L 92.341821 142.264175 
L 90.436155 143.315854 
L 85.319763 146.268938 
L 81.836816 148.259878 
L 78.518582 149.986149 
L 69.266058 155.01851 
L 66.60101 156.347142 
L 58.328612 160.570025 
L 55.909779 161.796367 
L 54.683437 162.357742 
L 51.341584 163.911878 
L 42.765865 168.039558 
L 42.765865 160.570025 
L 42.765865 153.419482 
M 424.128184 47.397577 
L 423.279781 48.375163 
L 422.933327 48.783815 
L 421.079771 50.928358 
L 419.767643 52.439765 
L 417.996441 54.538221 
L 416.995858 55.695387 
L 416.286342 56.510533 
L 413.111067 60.282325 
L 412.954986 60.462416 
L 412.761128 60.682623 
L 412.210612 61.339476 
L 406.770058 67.820253 
L 405.043351 69.996474 
L 400.293039 75.874885 
L 398.469787 78.07193 
L 392.728672 85.582026 
L 389.989168 89.06459 
L 389.267354 89.956477 
L 388.375467 91.161252 
L 379.009715 103.533983 
L 376.457894 107.252153 
L 372.371821 112.899735 
L 370.003993 116.177938 
L 364.540322 124.743865 
L 363.342197 126.481947 
L 362.921313 127.200822 
L 362.439712 128.041066 
L 358.527508 134.329755 
L 357.251095 136.73488 
L 355.342294 140.414091 
L 354.336269 142.187317 
L 352.622749 145.765324 
L 352.370329 146.268938 
L 350.119333 150.916066 
L 346.726131 159.316099 
L 346.195242 160.570025 
L 345.907556 161.295609 
L 342.086519 172.487597 
L 340.842212 176.688513 
L 338.940114 184.40517 
L 338.321662 187.233471 
L 337.022632 193.075167 
L 336.419856 196.322742 
L 335.188653 204.155265 
L 334.478721 208.240315 
L 334.218924 209.901043 
L 332.926581 220.157887 
L 332.023523 228.247685 
L 331.707178 232.07546 
L 328.787604 232.07546 
L 324.020575 232.07546 
L 319.253546 232.07546 
L 314.269076 232.07546 
L 314.402163 228.243527 
L 314.310165 220.157887 
L 314.444411 212.142662 
L 314.659 208.240315 
L 315.020015 203.378628 
L 315.196979 196.322742 
L 315.604284 190.240638 
L 316.266056 184.40517 
L 317.559416 175.311148 
L 317.811678 172.487597 
L 318.092768 170.552967 
L 319.253546 164.989595 
L 320.143227 160.570025 
L 321.134566 156.241012 
L 321.900706 153.419482 
L 324.11413 146.40927 
L 324.16545 146.268938 
L 324.254512 146.035001 
L 326.64601 139.360314 
L 327.801362 136.73488 
L 328.787604 134.537741 
L 329.560487 132.740734 
L 329.92352 131.967851 
L 331.200731 129.554725 
L 332.367382 127.200822 
L 332.879635 126.188325 
L 336.387721 120.050279 
L 337.327153 118.558515 
L 338.321662 117.121786 
L 341.032364 112.899735 
L 343.355707 109.372237 
L 349.556252 100.982163 
L 351.306449 98.788328 
L 352.622749 97.244837 
L 358.750423 89.06459 
L 360.855547 86.116771 
L 364.540322 81.480374 
L 369.846282 74.241243 
L 373.346492 69.996474 
L 376.457894 66.097517 
L 376.949083 65.425921 
L 377.425719 64.842315 
L 380.77017 60.462416 
L 381.760413 59.139405 
L 383.92743 56.584995 
L 384.614747 55.695387 
L 385.117252 55.043744 
L 388.375467 51.328599 
L 388.65295 50.983855 
L 388.701129 50.928358 
L 388.769653 50.849521 
L 392.03556 46.893348 
L 392.686895 46.161329 
L 393.623031 45.111816 
L 395.566905 42.832588 
L 396.881364 41.3943 
L 400.293039 41.3943 
L 412.210612 41.3943 
L 424.128184 41.3943 
L 424.128184 43.777815 
L 424.128184 46.161329 
" clip-path="url(#p85aa91efb2)" style="fill: #d4e6f1"/>
   </g>
   <g id="PathCollection_9">
    <path d="M 42.765865 168.039558 
L 51.341584 163.911878 
L 54.683437 162.357742 
L 55.909779 161.796367 
L 58.328612 160.570025 
L 66.60101 156.347142 
L 69.266058 155.01851 
L 78.518582 149.986149 
L 81.836816 148.259878 
L 85.319763 146.268938 
L 90.436155 143.315854 
L 92.341821 142.264175 
L 99.907654 137.71331 
L 101.55719 136.73488 
L 101.87623 136.543881 
L 102.353727 136.231787 
L 111.229641 130.751188 
L 114.2713 128.67945 
L 116.58209 127.200822 
L 121.192277 124.202865 
L 126.188872 120.460387 
L 132.088088 116.439265 
L 136.515356 112.899735 
L 138.106445 111.578775 
L 144.128973 107.00469 
L 150.024017 101.181249 
L 156.615347 95.65592 
L 161.94159 89.617807 
L 162.489131 89.06459 
L 167.326417 83.838394 
L 173.859162 74.117636 
L 175.884054 71.616387 
L 176.768816 69.996474 
L 177.49681 68.541415 
L 180.693913 63.196316 
L 181.855943 60.462416 
L 182.566634 58.720922 
L 183.17194 57.557943 
L 183.874453 55.695387 
L 184.669557 53.533308 
L 184.862521 53.12903 
L 185.611545 50.928358 
L 185.776735 50.429532 
L 186.44641 48.678779 
L 186.5105 48.398091 
L 187.29713 46.161329 
L 187.961894 44.214847 
L 188.1362 43.305922 
L 188.736237 41.3943 
L 197.694307 41.3943 
L 209.61188 41.3943 
L 216.762423 41.3943 
L 223.912967 41.3943 
L 228.679996 41.3943 
L 233.447024 41.3943 
L 233.447024 43.777815 
L 233.447024 46.161329 
L 233.447024 48.544844 
L 233.447024 50.928358 
L 233.447024 53.311873 
L 233.447024 55.695387 
L 233.447024 58.078902 
L 233.447024 60.462416 
L 232.224199 64.00662 
L 232.396284 65.229445 
L 228.127418 69.443897 
L 227.79253 69.996474 
L 223.912967 73.699224 
L 221.955215 76.920197 
L 220.438067 79.530532 
L 213.864446 85.200621 
L 209.61188 88.756467 
L 209.359972 89.06459 
L 203.487661 94.857944 
L 196.764785 100.982163 
L 189.930158 105.135586 
L 185.776735 107.432735 
L 178.403808 112.899735 
L 176.284802 114.355119 
L 173.859162 115.600578 
L 164.769725 121.74716 
L 161.94159 123.235259 
L 155.711076 127.200822 
L 153.47812 128.582463 
L 150.024017 130.390832 
L 143.791939 134.242049 
L 139.124496 136.73488 
L 138.106445 137.270474 
L 133.857815 139.802457 
L 126.188872 143.837111 
L 123.726576 145.284019 
L 121.856231 146.268938 
L 114.2713 150.212835 
L 111.518036 151.767523 
L 102.353727 156.364012 
L 98.678584 158.364939 
L 94.176482 160.570025 
L 90.436155 162.381594 
L 83.750808 165.80225 
L 69.59503 172.487597 
L 67.542799 173.429386 
L 66.60101 173.833308 
L 64.187826 174.900781 
L 54.683437 179.251544 
L 51.16573 180.887462 
L 42.834601 184.40517 
L 42.765865 184.43438 
L 42.765865 184.40517 
L 42.765865 172.487597 
M 396.881364 41.3943 
L 395.566905 42.832588 
L 393.623031 45.111816 
L 392.686895 46.161329 
L 392.03556 46.893348 
L 388.769653 50.849521 
L 388.701129 50.928358 
L 388.65295 50.983855 
L 388.375467 51.328599 
L 385.117252 55.043744 
L 384.614747 55.695387 
L 383.92743 56.584995 
L 381.760413 59.139405 
L 380.77017 60.462416 
L 377.425719 64.842315 
L 376.949083 65.425921 
L 376.457894 66.097517 
L 373.346492 69.996474 
L 369.846282 74.241243 
L 364.540322 81.480374 
L 360.855547 86.116771 
L 358.750423 89.06459 
L 352.622749 97.244837 
L 351.306449 98.788328 
L 349.556252 100.982163 
L 343.355707 109.372237 
L 341.032364 112.899735 
L 338.321662 117.121786 
L 337.327153 118.558515 
L 336.387721 120.050279 
L 332.879635 126.188325 
L 332.367382 127.200822 
L 331.200731 129.554725 
L 329.92352 131.967851 
L 329.560487 132.740734 
L 328.787604 134.537741 
L 327.801362 136.73488 
L 326.64601 139.360314 
L 324.254512 146.035001 
L 324.16545 146.268938 
L 324.11413 146.40927 
L 321.900706 153.419482 
L 321.134566 156.241012 
L 320.143227 160.570025 
L 319.253546 164.989595 
L 318.092768 170.552967 
L 317.811678 172.487597 
L 317.559416 175.311148 
L 316.266056 184.40517 
L 315.604284 190.240638 
L 315.196979 196.322742 
L 315.020015 203.378628 
L 314.659 208.240315 
L 314.444411 212.142662 
L 314.310165 220.157887 
L 314.402163 228.243527 
L 314.269076 232.07546 
L 312.103003 232.07546 
L 304.952459 232.07546 
L 296.037274 232.07546 
L 295.902039 229.208308 
L 294.47021 220.157887 
L 293.485866 208.691294 
L 293.4695 208.240315 
L 293.463222 207.81198 
L 291.850902 196.322742 
L 291.355506 186.084551 
L 291.021315 184.40517 
L 290.613823 181.984106 
L 289.591675 172.487597 
L 289.663429 163.941483 
L 289.064377 160.570025 
L 288.675538 157.954416 
L 288.685243 148.878725 
L 288.277469 146.268938 
L 288.000742 144.25528 
L 288.241976 138.652044 
L 287.962983 136.73488 
L 287.683239 134.594221 
L 288.128435 129.163403 
L 287.846237 127.200822 
L 287.415378 123.829117 
L 288.546458 115.592792 
L 288.099677 112.899735 
L 287.21962 107.084469 
L 287.994071 100.982163 
L 290.964591 91.134886 
L 290.112203 89.06459 
L 288.621273 85.533699 
L 293.034887 70.80451 
L 293.220042 70.144598 
L 293.826934 69.996474 
L 295.518545 69.003011 
L 293.034887 60.462416 
L 304.952459 60.462416 
L 312.103003 60.462416 
L 319.253546 60.462416 
L 324.020575 60.462416 
L 328.787604 60.462416 
L 328.787604 58.078902 
L 328.787604 55.695387 
L 328.787604 53.311873 
L 328.787604 50.928358 
L 328.787604 48.544844 
L 333.554633 46.818005 
L 333.817208 46.292617 
L 334.249183 46.161329 
L 338.321662 45.014662 
L 339.181974 44.064585 
L 345.472206 41.827655 
L 345.824603 41.511766 
L 346.052095 41.3943 
L 352.622749 41.3943 
L 364.540322 41.3943 
L 376.457894 41.3943 
L 388.375467 41.3943 
" clip-path="url(#p85aa91efb2)" style="fill: #ecf2f5"/>
   </g>
   <g id="PathCollection_10">
    <path d="M 42.765865 184.43438 
L 42.834601 184.40517 
L 51.16573 180.887462 
L 54.683437 179.251544 
L 64.187826 174.900781 
L 66.60101 173.833308 
L 67.542799 173.429386 
L 69.59503 172.487597 
L 83.750808 165.80225 
L 90.436155 162.381594 
L 94.176482 160.570025 
L 98.678584 158.364939 
L 102.353727 156.364012 
L 111.518036 151.767523 
L 114.2713 150.212835 
L 121.856231 146.268938 
L 123.726576 145.284019 
L 126.188872 143.837111 
L 133.857815 139.802457 
L 138.106445 137.270474 
L 139.124496 136.73488 
L 143.791939 134.242049 
L 150.024017 130.390832 
L 153.47812 128.582463 
L 155.711076 127.200822 
L 161.94159 123.235259 
L 164.769725 121.74716 
L 173.859162 115.600578 
L 176.284802 114.355119 
L 178.403808 112.899735 
L 185.776735 107.432735 
L 189.930158 105.135586 
L 196.764785 100.982163 
L 203.487661 94.857944 
L 209.359972 89.06459 
L 209.61188 88.756467 
L 213.864446 85.200621 
L 220.438067 79.530532 
L 221.955215 76.920197 
L 223.912967 73.699224 
L 227.79253 69.996474 
L 228.127418 69.443897 
L 232.396284 65.229445 
L 232.224199 64.00662 
L 233.447024 60.462416 
L 233.447024 58.078902 
L 233.447024 55.695387 
L 233.447024 53.311873 
L 233.447024 50.928358 
L 233.447024 48.544844 
L 233.447024 46.161329 
L 233.447024 43.777815 
L 233.447024 41.3943 
L 238.214053 41.3943 
L 242.981082 41.3943 
L 250.131626 41.3943 
L 257.282169 41.3943 
L 269.199742 41.3943 
L 281.117314 41.3943 
L 293.034887 41.3943 
L 304.952459 41.3943 
L 312.103003 41.3943 
L 319.253546 41.3943 
L 324.020575 41.3943 
L 328.787604 41.3943 
L 333.554633 41.3943 
L 338.321662 41.3943 
L 345.472206 41.3943 
L 346.052095 41.3943 
L 345.824603 41.511766 
L 345.472206 41.827655 
L 339.181974 44.064585 
L 338.321662 45.014662 
L 334.249183 46.161329 
L 333.817208 46.292617 
L 333.554633 46.818005 
L 328.787604 48.544844 
L 328.787604 50.928358 
L 328.787604 53.311873 
L 328.787604 55.695387 
L 328.787604 58.078902 
L 328.787604 60.462416 
L 324.020575 60.462416 
L 319.253546 60.462416 
L 312.103003 60.462416 
L 304.952459 60.462416 
L 293.034887 60.462416 
L 295.518545 69.003011 
L 293.826934 69.996474 
L 293.220042 70.144598 
L 293.034887 70.80451 
L 288.621273 85.533699 
L 290.112203 89.06459 
L 290.964591 91.134886 
L 287.994071 100.982163 
L 287.21962 107.084469 
L 288.099677 112.899735 
L 288.546458 115.592792 
L 287.415378 123.829117 
L 287.846237 127.200822 
L 288.128435 129.163403 
L 287.683239 134.594221 
L 287.962983 136.73488 
L 288.241976 138.652044 
L 288.000742 144.25528 
L 288.277469 146.268938 
L 288.685243 148.878725 
L 288.675538 157.954416 
L 289.064377 160.570025 
L 289.663429 163.941483 
L 289.591675 172.487597 
L 290.613823 181.984106 
L 291.021315 184.40517 
L 291.355506 186.084551 
L 291.850902 196.322742 
L 293.463222 207.81198 
L 293.4695 208.240315 
L 293.485866 208.691294 
L 294.47021 220.157887 
L 295.902039 229.208308 
L 296.037274 232.07546 
L 293.034887 232.07546 
L 281.117314 232.07546 
L 276.446728 232.07546 
L 275.167948 226.107254 
L 269.936231 208.976804 
L 269.767172 208.240315 
L 269.671459 207.768598 
L 269.199742 206.238969 
L 263.544035 190.060877 
L 260.740371 184.40517 
L 257.282169 176.86103 
L 256.082209 174.487532 
L 254.6006 172.487597 
L 248.625228 163.080689 
L 246.221409 160.570025 
L 242.981082 156.989791 
L 241.549956 155.566171 
L 238.640048 153.419482 
L 235.271955 150.682085 
L 233.447024 149.615008 
L 229.625987 147.687926 
L 228.238461 146.931239 
L 226.44431 146.268938 
L 223.912967 145.300912 
L 219.919893 144.163958 
L 216.762423 143.47803 
L 211.962398 143.068921 
L 209.61188 142.743125 
L 206.497466 142.747675 
L 197.694307 143.123229 
L 192.554786 144.21313 
L 185.776735 145.168278 
L 181.847612 146.268938 
L 176.353522 147.765554 
L 173.859162 148.21771 
L 167.03487 150.363513 
L 161.94159 152.067311 
L 160.635889 152.636061 
L 150.024017 156.325324 
L 145.965276 158.13478 
L 139.339998 160.570025 
L 138.106445 161.013582 
L 130.086197 164.46735 
L 117.212825 169.546072 
L 114.2713 170.84694 
L 113.169743 171.386041 
L 110.733432 172.487597 
L 96.525569 178.577012 
L 90.436155 181.029185 
L 82.668766 184.40517 
L 79.76867 185.655257 
L 75.565395 187.358357 
L 66.60101 191.197556 
L 63.046088 192.767821 
L 54.683437 196.183601 
L 46.129621 199.686498 
L 42.765865 200.980766 
L 42.765865 196.322742 
" clip-path="url(#p85aa91efb2)" style="fill: #f9eee7"/>
   </g>
   <g id="PathCollection_11">
    <path d="M 42.765865 200.980766 
L 46.129621 199.686498 
L 54.683437 196.183601 
L 63.046088 192.767821 
L 66.60101 191.197556 
L 75.565395 187.358357 
L 79.76867 185.655257 
L 82.668766 184.40517 
L 90.436155 181.029185 
L 96.525569 178.577012 
L 110.733432 172.487597 
L 113.169743 171.386041 
L 114.2713 170.84694 
L 117.212825 169.546072 
L 130.086197 164.46735 
L 138.106445 161.013582 
L 139.339998 160.570025 
L 145.965276 158.13478 
L 150.024017 156.325324 
L 160.635889 152.636061 
L 161.94159 152.067311 
L 167.03487 150.363513 
L 173.859162 148.21771 
L 176.353522 147.765554 
L 181.847612 146.268938 
L 185.776735 145.168278 
L 192.554786 144.21313 
L 197.694307 143.123229 
L 206.497466 142.747675 
L 209.61188 142.743125 
L 211.962398 143.068921 
L 216.762423 143.47803 
L 219.919893 144.163958 
L 223.912967 145.300912 
L 226.44431 146.268938 
L 228.238461 146.931239 
L 229.625987 147.687926 
L 233.447024 149.615008 
L 235.271955 150.682085 
L 238.640048 153.419482 
L 241.549956 155.566171 
L 242.981082 156.989791 
L 246.221409 160.570025 
L 248.625228 163.080689 
L 254.6006 172.487597 
L 256.082209 174.487532 
L 257.282169 176.86103 
L 260.740371 184.40517 
L 263.544035 190.060877 
L 269.199742 206.238969 
L 269.671459 207.768598 
L 269.767172 208.240315 
L 269.936231 208.976804 
L 275.167948 226.107254 
L 276.446728 232.07546 
L 269.199742 232.07546 
L 257.282169 232.07546 
L 254.582227 232.07546 
L 252.712936 227.773277 
L 248.330977 220.157887 
L 245.892365 215.30575 
L 242.981082 210.968237 
L 241.028809 208.240315 
L 239.261837 205.620856 
L 235.344231 201.065759 
L 233.447024 198.737934 
L 232.786108 197.975034 
L 230.946229 196.322742 
L 225.880895 191.402921 
L 223.912967 189.963287 
L 217.67102 185.919498 
L 216.389627 185.026497 
L 215.066775 184.40517 
L 209.61188 181.727044 
L 202.847339 179.252138 
L 197.694307 177.957962 
L 190.794378 177.505241 
L 185.776735 176.65143 
L 181.782737 176.481595 
L 167.277583 177.82359 
L 161.94159 178.19135 
L 155.069387 179.3598 
L 150.024017 180.434151 
L 147.031771 181.412924 
L 138.106445 183.487336 
L 135.130008 184.40517 
L 128.261653 186.477951 
L 122.496414 188.097628 
L 114.2713 190.850415 
L 110.32499 192.376433 
L 99.491246 196.322742 
L 92.75725 198.643838 
L 90.436155 199.415318 
L 85.528615 201.230282 
L 75.470318 205.19205 
L 67.399293 208.240315 
L 66.60101 208.541847 
L 58.27275 211.829628 
L 54.683437 213.16883 
L 46.729315 216.194437 
L 42.765865 217.736386 
L 42.765865 208.240315 
" clip-path="url(#p85aa91efb2)" style="fill: #fddcc9"/>
   </g>
   <g id="PathCollection_12">
    <path d="M 42.765865 217.736386 
L 46.729315 216.194437 
L 54.683437 213.16883 
L 58.27275 211.829628 
L 66.60101 208.541847 
L 67.399293 208.240315 
L 75.470318 205.19205 
L 85.528615 201.230282 
L 90.436155 199.415318 
L 92.75725 198.643838 
L 99.491246 196.322742 
L 110.32499 192.376433 
L 114.2713 190.850415 
L 122.496414 188.097628 
L 128.261653 186.477951 
L 135.130008 184.40517 
L 138.106445 183.487336 
L 147.031771 181.412924 
L 150.024017 180.434151 
L 155.069387 179.3598 
L 161.94159 178.19135 
L 167.277583 177.82359 
L 181.782737 176.481595 
L 185.776735 176.65143 
L 190.794378 177.505241 
L 197.694307 177.957962 
L 202.847339 179.252138 
L 209.61188 181.727044 
L 215.066775 184.40517 
L 216.389627 185.026497 
L 217.67102 185.919498 
L 223.912967 189.963287 
L 225.880895 191.402921 
L 230.946229 196.322742 
L 232.786108 197.975034 
L 233.447024 198.737934 
L 235.344231 201.065759 
L 239.261837 205.620856 
L 241.028809 208.240315 
L 242.981082 210.968237 
L 245.892365 215.30575 
L 248.330977 220.157887 
L 252.712936 227.773277 
L 254.582227 232.07546 
L 250.131626 232.07546 
L 242.981082 232.07546 
L 238.214053 232.07546 
L 233.447024 232.07546 
L 228.679996 232.07546 
L 228.051089 232.07546 
L 223.912967 227.444688 
L 221.218142 224.649261 
L 215.513115 220.157887 
L 211.641301 216.775519 
L 209.61188 215.470189 
L 199.704067 210.250074 
L 197.093095 208.841527 
L 195.196692 208.240315 
L 185.776735 205.147248 
L 178.434562 203.664915 
L 168.758127 203.139279 
L 161.94159 202.675203 
L 155.358725 202.905607 
L 150.024017 203.332645 
L 145.909306 204.125604 
L 138.106445 205.043786 
L 127.232126 207.197062 
L 125.57419 207.625632 
L 123.091924 208.240315 
L 114.2713 210.393113 
L 106.76931 212.655898 
L 102.353727 213.765215 
L 94.274867 216.319176 
L 90.436155 217.58527 
L 88.554196 218.275928 
L 78.518582 221.591619 
L 70.854529 224.411407 
L 66.60101 225.864252 
L 57.605381 229.153516 
L 54.683437 230.243718 
L 53.356456 230.748478 
L 49.772361 232.07546 
L 42.765865 232.07546 
L 42.765865 220.157887 
" clip-path="url(#p85aa91efb2)" style="fill: #f8bb9e"/>
   </g>
   <g id="PathCollection_13">
    <path d="M 187.240815 232.07546 
L 185.776735 231.399984 
L 177.35127 228.583352 
L 173.859162 227.655787 
L 168.852732 227.06903 
L 161.94159 225.797309 
L 156.708984 225.390493 
L 143.628566 225.680009 
L 138.106445 225.793283 
L 131.803899 226.460434 
L 126.188872 227.197869 
L 122.202924 228.089511 
L 114.2713 229.440798 
L 103.057226 232.07546 
L 102.353727 232.07546 
L 90.436155 232.07546 
L 78.518582 232.07546 
L 66.60101 232.07546 
L 54.683437 232.07546 
L 49.772361 232.07546 
L 53.356456 230.748478 
L 54.683437 230.243718 
L 57.605381 229.153516 
L 66.60101 225.864252 
L 70.854529 224.411407 
L 78.518582 221.591619 
L 88.554196 218.275928 
L 90.436155 217.58527 
L 94.274867 216.319176 
L 102.353727 213.765215 
L 106.76931 212.655898 
L 114.2713 210.393113 
L 123.091924 208.240315 
L 125.57419 207.625632 
L 127.232126 207.197062 
L 138.106445 205.043786 
L 145.909306 204.125604 
L 150.024017 203.332645 
L 155.358725 202.905607 
L 161.94159 202.675203 
L 168.758127 203.139279 
L 178.434562 203.664915 
L 185.776735 205.147248 
L 195.196692 208.240315 
L 197.093095 208.841527 
L 199.704067 210.250074 
L 209.61188 215.470189 
L 211.641301 216.775519 
L 215.513115 220.157887 
L 221.218142 224.649261 
L 223.912967 227.444688 
L 228.051089 232.07546 
L 223.912967 232.07546 
L 216.762423 232.07546 
L 209.61188 232.07546 
L 197.694307 232.07546 
" clip-path="url(#p85aa91efb2)" style="fill: #ee9677"/>
   </g>
   <g id="PathCollection_14">
    <path d="M 103.057226 232.07546 
L 114.2713 229.440798 
L 122.202924 228.089511 
L 126.188872 227.197869 
L 131.803899 226.460434 
L 138.106445 225.793283 
L 143.628566 225.680009 
L 156.708984 225.390493 
L 161.94159 225.797309 
L 168.852732 227.06903 
L 173.859162 227.655787 
L 177.35127 228.583352 
L 185.776735 231.399984 
L 187.240815 232.07546 
L 185.776735 232.07546 
L 173.859162 232.07546 
L 161.94159 232.07546 
L 150.024017 232.07546 
L 138.106445 232.07546 
L 126.188872 232.07546 
L 114.2713 232.07546 
" clip-path="url(#p85aa91efb2)" style="fill: #db6b55"/>
   </g>
   <g id="PathCollection_15">
    <path clip-path="url(#p85aa91efb2)" style="fill: #c53e3d"/>
   </g>
   <g id="PathCollection_16">
    <path clip-path="url(#p85aa91efb2)" style="fill: #ab162a"/>
   </g>
   <g id="PathCollection_17">
    <path clip-path="url(#p85aa91efb2)" style="fill: #7c0722"/>
   </g>
   <g id="PathCollection_18">
    <path clip-path="url(#p85aa91efb2)" style="fill: #67001f"/>
   </g>
   <g id="PolyCollection_1">
    <path d="M 233.447024 60.462416 
L 233.447024 41.3943 
L 328.787604 41.3943 
L 328.787604 60.462416 
L 328.787604 60.462416 
L 233.447024 60.462416 
z
" clip-path="url(#p85aa91efb2)" style="fill: url(#h1b603c7d1d); fill-opacity: 0.3; stroke: #333333; stroke-opacity: 0.3"/>
   </g>
   <g id="PathCollection_19">
    <defs>
     <path id="md8b5d75f7b" d="M -0 4.1833 
L 4.1833 0 
L 0 -4.1833 
L -4.1833 -0 
z
" style="stroke: #111827"/>
    </defs>
    <g clip-path="url(#p85aa91efb2)">
     <use xlink:href="#md8b5d75f7b" x="233.447024" y="136.73488" style="fill: #34d399; stroke: #111827"/>
    </g>
   </g>
   <g id="matplotlib.axis_1">
    <g id="xtick_1">
     <g id="line2d_1">
      <defs>
       <path id="meda1669407" d="M 0 0 
L 0 3.5 
" style="stroke: #000000; stroke-width: 0.8"/>
      </defs>
      <g>
       <use xlink:href="#meda1669407" x="42.765865" y="232.07546" style="stroke: #000000; stroke-width: 0.8"/>
      </g>
     </g>
     <g id="text_1">
      <!-- 0 -->
      <g transform="translate(39.584615 246.673897) scale(0.1 -0.1)">
       <defs>
        <path id="DejaVuSans-30" d="M 2034 4250 
Q 1547 4250 1301 3770 
Q 1056 3291 1056 2328 
Q 1056 1369 1301 889 
Q 1547 409 2034 409 
Q 2525 409 2770 889 
Q 3016 1369 3016 2328 
Q 3016 3291 2770 3770 
Q 2525 4250 2034 4250 
z
M 2034 4750 
Q 2819 4750 3233 4129 
Q 3647 3509 3647 2328 
Q 3647 1150 3233 529 
Q 2819 -91 2034 -91 
Q 1250 -91 836 529 
Q 422 1150 422 2328 
Q 422 3509 836 4129 
Q 1250 4750 2034 4750 
z
" transform="scale(0.015625)"/>
       </defs>
       <use xlink:href="#DejaVuSans-30"/>
      </g>
     </g>
    </g>
    <g id="xtick_2">
     <g id="line2d_2">
      <g>
       <use xlink:href="#meda1669407" x="90.436155" y="232.07546" style="stroke: #000000; stroke-width: 0.8"/>
      </g>
     </g>
     <g id="text_2">
      <!-- 50 -->
      <g transform="translate(84.073655 246.673897) scale(0.1 -0.1)">
       <defs>
        <path id="DejaVuSans-35" d="M 691 4666 
L 3169 4666 
L 3169 4134 
L 1269 4134 
L 1269 2991 
Q 1406 3038 1543 3061 
Q 1681 3084 1819 3084 
Q 2600 3084 3056 2656 
Q 3513 2228 3513 1497 
Q 3513 744 3044 326 
Q 2575 -91 1722 -91 
Q 1428 -91 1123 -41 
Q 819 9 494 109 
L 494 744 
Q 775 591 1075 516 
Q 1375 441 1709 441 
Q 2250 441 2565 725 
Q 2881 1009 2881 1497 
Q 2881 1984 2565 2268 
Q 2250 2553 1709 2553 
Q 1456 2553 1204 2497 
Q 953 2441 691 2322 
L 691 4666 
z
" transform="scale(0.015625)"/>
       </defs>
       <use xlink:href="#DejaVuSans-35"/>
       <use xlink:href="#DejaVuSans-30" x="63.623047"/>
      </g>
     </g>
    </g>
    <g id="xtick_3">
     <g id="line2d_3">
      <g>
       <use xlink:href="#meda1669407" x="138.106445" y="232.07546" style="stroke: #000000; stroke-width: 0.8"/>
      </g>
     </g>
     <g id="text_3">
      <!-- 100 -->
      <g transform="translate(128.562695 246.673897) scale(0.1 -0.1)">
       <defs>
        <path id="DejaVuSans-31" d="M 794 531 
L 1825 531 
L 1825 4091 
L 703 3866 
L 703 4441 
L 1819 4666 
L 2450 4666 
L 2450 531 
L 3481 531 
L 3481 0 
L 794 0 
L 794 531 
z
" transform="scale(0.015625)"/>
       </defs>
       <use xlink:href="#DejaVuSans-31"/>
       <use xlink:href="#DejaVuSans-30" x="63.623047"/>
       <use xlink:href="#DejaVuSans-30" x="127.246094"/>
      </g>
     </g>
    </g>
    <g id="xtick_4">
     <g id="line2d_4">
      <g>
       <use xlink:href="#meda1669407" x="185.776735" y="232.07546" style="stroke: #000000; stroke-width: 0.8"/>
      </g>
     </g>
     <g id="text_4">
      <!-- 150 -->
      <g transform="translate(176.232985 246.673897) scale(0.1 -0.1)">
       <use xlink:href="#DejaVuSans-31"/>
       <use xlink:href="#DejaVuSans-35" x="63.623047"/>
       <use xlink:href="#DejaVuSans-30" x="127.246094"/>
      </g>
     </g>
    </g>
    <g id="xtick_5">
     <g id="line2d_5">
      <g>
       <use xlink:href="#meda1669407" x="233.447024" y="232.07546" style="stroke: #000000; stroke-width: 0.8"/>
      </g>
     </g>
     <g id="text_5">
      <!-- 200 -->
      <g transform="translate(223.903274 246.673897) scale(0.1 -0.1)">
       <defs>
        <path id="DejaVuSans-32" d="M 1228 531 
L 3431 531 
L 3431 0 
L 469 0 
L 469 531 
Q 828 903 1448 1529 
Q 2069 2156 2228 2338 
Q 2531 2678 2651 2914 
Q 2772 3150 2772 3378 
Q 2772 3750 2511 3984 
Q 2250 4219 1831 4219 
Q 1534 4219 1204 4116 
Q 875 4013 500 3803 
L 500 4441 
Q 881 4594 1212 4672 
Q 1544 4750 1819 4750 
Q 2544 4750 2975 4387 
Q 3406 4025 3406 3419 
Q 3406 3131 3298 2873 
Q 3191 2616 2906 2266 
Q 2828 2175 2409 1742 
Q 1991 1309 1228 531 
z
" transform="scale(0.015625)"/>
       </defs>
       <use xlink:href="#DejaVuSans-32"/>
       <use xlink:href="#DejaVuSans-30" x="63.623047"/>
       <use xlink:href="#DejaVuSans-30" x="127.246094"/>
      </g>
     </g>
    </g>
    <g id="xtick_6">
     <g id="line2d_6">
      <g>
       <use xlink:href="#meda1669407" x="281.117314" y="232.07546" style="stroke: #000000; stroke-width: 0.8"/>
      </g>
     </g>
     <g id="text_6">
      <!-- 250 -->
      <g transform="translate(271.573564 246.673897) scale(0.1 -0.1)">
       <use xlink:href="#DejaVuSans-32"/>
       <use xlink:href="#DejaVuSans-35" x="63.623047"/>
       <use xlink:href="#DejaVuSans-30" x="127.246094"/>
      </g>
     </g>
    </g>
    <g id="xtick_7">
     <g id="line2d_7">
      <g>
       <use xlink:href="#meda1669407" x="328.787604" y="232.07546" style="stroke: #000000; stroke-width: 0.8"/>
      </g>
     </g>
     <g id="text_7">
      <!-- 300 -->
      <g transform="translate(319.243854 246.673897) scale(0.1 -0.1)">
       <defs>
        <path id="DejaVuSans-33" d="M 2597 2516 
Q 3050 2419 3304 2112 
Q 3559 1806 3559 1356 
Q 3559 666 3084 287 
Q 2609 -91 1734 -91 
Q 1441 -91 1130 -33 
Q 819 25 488 141 
L 488 750 
Q 750 597 1062 519 
Q 1375 441 1716 441 
Q 2309 441 2620 675 
Q 2931 909 2931 1356 
Q 2931 1769 2642 2001 
Q 2353 2234 1838 2234 
L 1294 2234 
L 1294 2753 
L 1863 2753 
Q 2328 2753 2575 2939 
Q 2822 3125 2822 3475 
Q 2822 3834 2567 4026 
Q 2313 4219 1838 4219 
Q 1578 4219 1281 4162 
Q 984 4106 628 3988 
L 628 4550 
Q 988 4650 1302 4700 
Q 1616 4750 1894 4750 
Q 2613 4750 3031 4423 
Q 3450 4097 3450 3541 
Q 3450 3153 3228 2886 
Q 3006 2619 2597 2516 
z
" transform="scale(0.015625)"/>
       </defs>
       <use xlink:href="#DejaVuSans-33"/>
       <use xlink:href="#DejaVuSans-30" x="63.623047"/>
       <use xlink:href="#DejaVuSans-30" x="127.246094"/>
      </g>
     </g>
    </g>
    <g id="xtick_8">
     <g id="line2d_8">
      <g>
       <use xlink:href="#meda1669407" x="376.457894" y="232.07546" style="stroke: #000000; stroke-width: 0.8"/>
      </g>
     </g>
     <g id="text_8">
      <!-- 350 -->
      <g transform="translate(366.914144 246.673897) scale(0.1 -0.1)">
       <use xlink:href="#DejaVuSans-33"/>
       <use xlink:href="#DejaVuSans-35" x="63.623047"/>
       <use xlink:href="#DejaVuSans-30" x="127.246094"/>
      </g>
     </g>
    </g>
    <g id="xtick_9">
     <g id="line2d_9">
      <g>
       <use xlink:href="#meda1669407" x="424.128184" y="232.07546" style="stroke: #000000; stroke-width: 0.8"/>
      </g>
     </g>
     <g id="text_9">
      <!-- 400 -->
      <g transform="translate(414.584434 246.673897) scale(0.1 -0.1)">
       <defs>
        <path id="DejaVuSans-34" d="M 2419 4116 
L 825 1625 
L 2419 1625 
L 2419 4116 
z
M 2253 4666 
L 3047 4666 
L 3047 1625 
L 3713 1625 
L 3713 1100 
L 3047 1100 
L 3047 0 
L 2419 0 
L 2419 1100 
L 313 1100 
L 313 1709 
L 2253 4666 
z
" transform="scale(0.015625)"/>
       </defs>
       <use xlink:href="#DejaVuSans-34"/>
       <use xlink:href="#DejaVuSans-30" x="63.623047"/>
       <use xlink:href="#DejaVuSans-30" x="127.246094"/>
      </g>
     </g>
    </g>
    <g id="text_10">
     <!-- x [mm] -->
     <g transform="translate(215.256399 260.352022) scale(0.1 -0.1)">
      <defs>
       <path id="DejaVuSans-78" d="M 3513 3500 
L 2247 1797 
L 3578 0 
L 2900 0 
L 1881 1375 
L 863 0 
L 184 0 
L 1544 1831 
L 300 3500 
L 978 3500 
L 1906 2253 
L 2834 3500 
L 3513 3500 
z
" transform="scale(0.015625)"/>
       <path id="DejaVuSans-20" transform="scale(0.015625)"/>
       <path id="DejaVuSans-5b" d="M 550 4863 
L 1875 4863 
L 1875 4416 
L 1125 4416 
L 1125 -397 
L 1875 -397 
L 1875 -844 
L 550 -844 
L 550 4863 
z
" transform="scale(0.015625)"/>
       <path id="DejaVuSans-6d" d="M 3328 2828 
Q 3544 3216 3844 3400 
Q 4144 3584 4550 3584 
Q 5097 3584 5394 3201 
Q 5691 2819 5691 2113 
L 5691 0 
L 5113 0 
L 5113 2094 
Q 5113 2597 4934 2840 
Q 4756 3084 4391 3084 
Q 3944 3084 3684 2787 
Q 3425 2491 3425 1978 
L 3425 0 
L 2847 0 
L 2847 2094 
Q 2847 2600 2669 2842 
Q 2491 3084 2119 3084 
Q 1678 3084 1418 2786 
Q 1159 2488 1159 1978 
L 1159 0 
L 581 0 
L 581 3500 
L 1159 3500 
L 1159 2956 
Q 1356 3278 1631 3431 
Q 1906 3584 2284 3584 
Q 2666 3584 2933 3390 
Q 3200 3197 3328 2828 
z
" transform="scale(0.015625)"/>
       <path id="DejaVuSans-5d" d="M 1947 4863 
L 1947 -844 
L 622 -844 
L 622 -397 
L 1369 -397 
L 1369 4416 
L 622 4416 
L 622 4863 
L 1947 4863 
z
" transform="scale(0.015625)"/>
      </defs>
      <use xlink:href="#DejaVuSans-78"/>
      <use xlink:href="#DejaVuSans-20" x="59.179688"/>
      <use xlink:href="#DejaVuSans-5b" x="90.966797"/>
      <use xlink:href="#DejaVuSans-6d" x="129.980469"/>
      <use xlink:href="#DejaVuSans-6d" x="227.392578"/>
      <use xlink:href="#DejaVuSans-5d" x="324.804688"/>
     </g>
    </g>
   </g>
   <g id="matplotlib.axis_2">
    <g id="ytick_1">
     <g id="line2d_10">
      <defs>
       <path id="m88014bd72c" d="M 0 0 
L -3.5 0 
" style="stroke: #000000; stroke-width: 0.8"/>
      </defs>
      <g>
       <use xlink:href="#m88014bd72c" x="42.765865" y="41.3943" style="stroke: #000000; stroke-width: 0.8"/>
      </g>
     </g>
     <g id="text_11">
      <!-- 0 -->
      <g transform="translate(29.403365 45.193519) scale(0.1 -0.1)">
       <use xlink:href="#DejaVuSans-30"/>
      </g>
     </g>
    </g>
    <g id="ytick_2">
     <g id="line2d_11">
      <g>
       <use xlink:href="#m88014bd72c" x="42.765865" y="65.229445" style="stroke: #000000; stroke-width: 0.8"/>
      </g>
     </g>
     <g id="text_12">
      <!-- 25 -->
      <g transform="translate(23.040865 69.028664) scale(0.1 -0.1)">
       <use xlink:href="#DejaVuSans-32"/>
       <use xlink:href="#DejaVuSans-35" x="63.623047"/>
      </g>
     </g>
    </g>
    <g id="ytick_3">
     <g id="line2d_12">
      <g>
       <use xlink:href="#m88014bd72c" x="42.765865" y="89.06459" style="stroke: #000000; stroke-width: 0.8"/>
      </g>
     </g>
     <g id="text_13">
      <!-- 50 -->
      <g transform="translate(23.040865 92.863809) scale(0.1 -0.1)">
       <use xlink:href="#DejaVuSans-35"/>
       <use xlink:href="#DejaVuSans-30" x="63.623047"/>
      </g>
     </g>
    </g>
    <g id="ytick_4">
     <g id="line2d_13">
      <g>
       <use xlink:href="#m88014bd72c" x="42.765865" y="112.899735" style="stroke: #000000; stroke-width: 0.8"/>
      </g>
     </g>
     <g id="text_14">
      <!-- 75 -->
      <g transform="translate(23.040865 116.698954) scale(0.1 -0.1)">
       <defs>
        <path id="DejaVuSans-37" d="M 525 4666 
L 3525 4666 
L 3525 4397 
L 1831 0 
L 1172 0 
L 2766 4134 
L 525 4134 
L 525 4666 
z
" transform="scale(0.015625)"/>
       </defs>
       <use xlink:href="#DejaVuSans-37"/>
       <use xlink:href="#DejaVuSans-35" x="63.623047"/>
      </g>
     </g>
    </g>
    <g id="ytick_5">
     <g id="line2d_14">
      <g>
       <use xlink:href="#m88014bd72c" x="42.765865" y="136.73488" style="stroke: #000000; stroke-width: 0.8"/>
      </g>
     </g>
     <g id="text_15">
      <!-- 100 -->
      <g transform="translate(16.678365 140.534099) scale(0.1 -0.1)">
       <use xlink:href="#DejaVuSans-31"/>
       <use xlink:href="#DejaVuSans-30" x="63.623047"/>
       <use xlink:href="#DejaVuSans-30" x="127.246094"/>
      </g>
     </g>
    </g>
    <g id="ytick_6">
     <g id="line2d_15">
      <g>
       <use xlink:href="#m88014bd72c" x="42.765865" y="160.570025" style="stroke: #000000; stroke-width: 0.8"/>
      </g>
     </g>
     <g id="text_16">
      <!-- 125 -->
      <g transform="translate(16.678365 164.369244) scale(0.1 -0.1)">
       <use xlink:href="#DejaVuSans-31"/>
       <use xlink:href="#DejaVuSans-32" x="63.623047"/>
       <use xlink:href="#DejaVuSans-35" x="127.246094"/>
      </g>
     </g>
    </g>
    <g id="ytick_7">
     <g id="line2d_16">
      <g>
       <use xlink:href="#m88014bd72c" x="42.765865" y="184.40517" style="stroke: #000000; stroke-width: 0.8"/>
      </g>
     </g>
     <g id="text_17">
      <!-- 150 -->
      <g transform="translate(16.678365 188.204389) scale(0.1 -0.1)">
       <use xlink:href="#DejaVuSans-31"/>
       <use xlink:href="#DejaVuSans-35" x="63.623047"/>
       <use xlink:href="#DejaVuSans-30" x="127.246094"/>
      </g>
     </g>
    </g>
    <g id="ytick_8">
     <g id="line2d_17">
      <g>
       <use xlink:href="#m88014bd72c" x="42.765865" y="208.240315" style="stroke: #000000; stroke-width: 0.8"/>
      </g>
     </g>
     <g id="text_18">
      <!-- 175 -->
      <g transform="translate(16.678365 212.039534) scale(0.1 -0.1)">
       <use xlink:href="#DejaVuSans-31"/>
       <use xlink:href="#DejaVuSans-37" x="63.623047"/>
       <use xlink:href="#DejaVuSans-35" x="127.246094"/>
      </g>
     </g>
    </g>
    <g id="ytick_9">
     <g id="line2d_18">
      <g>
       <use xlink:href="#m88014bd72c" x="42.765865" y="232.07546" style="stroke: #000000; stroke-width: 0.8"/>
      </g>
     </g>
     <g id="text_19">
      <!-- 200 -->
      <g transform="translate(16.678365 235.874679) scale(0.1 -0.1)">
       <use xlink:href="#DejaVuSans-32"/>
       <use xlink:href="#DejaVuSans-30" x="63.623047"/>
       <use xlink:href="#DejaVuSans-30" x="127.246094"/>
      </g>
     </g>
    </g>
    <g id="text_20">
     <!-- y [mm] -->
     <g transform="translate(10.598678 154.925505) rotate(-90) scale(0.1 -0.1)">
      <defs>
       <path id="DejaVuSans-79" d="M 2059 -325 
Q 1816 -950 1584 -1140 
Q 1353 -1331 966 -1331 
L 506 -1331 
L 506 -850 
L 844 -850 
Q 1081 -850 1212 -737 
Q 1344 -625 1503 -206 
L 1606 56 
L 191 3500 
L 800 3500 
L 1894 763 
L 2988 3500 
L 3597 3500 
L 2059 -325 
z
" transform="scale(0.015625)"/>
      </defs>
      <use xlink:href="#DejaVuSans-79"/>
      <use xlink:href="#DejaVuSans-20" x="59.179688"/>
      <use xlink:href="#DejaVuSans-5b" x="90.966797"/>
      <use xlink:href="#DejaVuSans-6d" x="129.980469"/>
      <use xlink:href="#DejaVuSans-6d" x="227.392578"/>
      <use xlink:href="#DejaVuSans-5d" x="324.804688"/>
     </g>
    </g>
   </g>
   <g id="PathCollection_20">
    <path d="M 42.765865 184.43438 
L 42.834601 184.40517 
L 51.16573 180.887462 
L 54.683437 179.251544 
L 64.187826 174.900781 
L 66.60101 173.833308 
L 67.542799 173.429386 
L 69.59503 172.487597 
L 83.750808 165.80225 
L 90.436155 162.381594 
L 94.176482 160.570025 
L 98.678584 158.364939 
L 102.353727 156.364012 
L 111.518036 151.767523 
L 114.2713 150.212835 
L 121.856231 146.268938 
L 123.726576 145.284019 
L 126.188872 143.837111 
L 133.857815 139.802457 
L 138.106445 137.270474 
L 139.124496 136.73488 
L 143.791939 134.242049 
L 150.024017 130.390832 
L 153.47812 128.582463 
L 155.711076 127.200822 
L 161.94159 123.235259 
L 164.769725 121.74716 
L 173.859162 115.600578 
L 176.284802 114.355119 
L 178.403808 112.899735 
L 185.776735 107.432735 
L 189.930158 105.135586 
L 196.764785 100.982163 
L 203.487661 94.857944 
L 209.359972 89.06459 
L 209.61188 88.756467 
L 213.864446 85.200621 
L 220.438067 79.530532 
L 221.955215 76.920197 
L 223.912967 73.699224 
L 227.79253 69.996474 
L 228.127418 69.443897 
L 232.396284 65.229445 
L 232.224199 64.00662 
L 233.447024 60.462416 
L 233.447024 58.078902 
L 233.447024 55.695387 
L 233.447024 53.311873 
L 233.447024 50.928358 
L 233.447024 48.544844 
L 233.447024 46.161329 
L 233.447024 43.777815 
L 233.447024 41.3943 
" clip-path="url(#p85aa91efb2)" style="fill: none; stroke: #263238; stroke-width: 0.55"/>
    <path d="M 346.052095 41.3943 
L 345.824603 41.511766 
L 345.472206 41.827655 
L 339.181974 44.064585 
L 338.321662 45.014662 
L 334.249183 46.161329 
L 333.817208 46.292617 
L 333.554633 46.818005 
L 328.787604 48.544844 
L 328.787604 50.928358 
L 328.787604 53.311873 
L 328.787604 55.695387 
L 328.787604 58.078902 
L 328.787604 60.462416 
L 324.020575 60.462416 
L 319.253546 60.462416 
L 312.103003 60.462416 
L 304.952459 60.462416 
L 293.034887 60.462416 
L 295.518545 69.003011 
L 293.826934 69.996474 
L 293.220042 70.144598 
L 293.034887 70.80451 
L 288.621273 85.533699 
L 290.112203 89.06459 
L 290.964591 91.134886 
L 287.994071 100.982163 
L 287.21962 107.084469 
L 288.099677 112.899735 
L 288.546458 115.592792 
L 287.415378 123.829117 
L 287.846237 127.200822 
L 288.128435 129.163403 
L 287.683239 134.594221 
L 287.962983 136.73488 
L 288.241976 138.652044 
L 288.000742 144.25528 
L 288.277469 146.268938 
L 288.685243 148.878725 
L 288.675538 157.954416 
L 289.064377 160.570025 
L 289.663429 163.941483 
L 289.591675 172.487597 
L 290.613823 181.984106 
L 291.021315 184.40517 
L 291.355506 186.084551 
L 291.850902 196.322742 
L 293.463222 207.81198 
L 293.4695 208.240315 
L 293.485866 208.691294 
L 294.47021 220.157887 
L 295.902039 229.208308 
L 296.037274 232.07546 
" clip-path="url(#p85aa91efb2)" style="fill: none; stroke: #263238; stroke-width: 0.55"/>
   </g>
   <g id="patch_3">
    <path d="M 42.765865 232.07546 
L 42.765865 41.3943 
" style="fill: none; stroke: #000000; stroke-width: 0.8; stroke-linejoin: miter; stroke-linecap: square"/>
   </g>
   <g id="patch_4">
    <path d="M 424.128184 232.07546 
L 424.128184 41.3943 
" style="fill: none; stroke: #000000; stroke-width: 0.8; stroke-linejoin: miter; stroke-linecap: square"/>
   </g>
   <g id="patch_5">
    <path d="M 42.765865 232.07546 
L 424.128184 232.07546 
" style="fill: none; stroke: #000000; stroke-width: 0.8; stroke-linejoin: miter; stroke-linecap: square"/>
   </g>
   <g id="patch_6">
    <path d="M 42.765865 41.3943 
L 424.128184 41.3943 
" style="fill: none; stroke: #000000; stroke-width: 0.8; stroke-linejoin: miter; stroke-linecap: square"/>
   </g>
   <g id="text_21">
    <!-- CalculiX C3D20R — Mode 3: 34.88 Hz -->
    <g transform="translate(120.469837 35.3943) scale(0.12 -0.12)">
     <defs>
      <path id="DejaVuSans-43" d="M 4122 4306 
L 4122 3641 
Q 3803 3938 3442 4084 
Q 3081 4231 2675 4231 
Q 1875 4231 1450 3742 
Q 1025 3253 1025 2328 
Q 1025 1406 1450 917 
Q 1875 428 2675 428 
Q 3081 428 3442 575 
Q 3803 722 4122 1019 
L 4122 359 
Q 3791 134 3420 21 
Q 3050 -91 2638 -91 
Q 1578 -91 968 557 
Q 359 1206 359 2328 
Q 359 3453 968 4101 
Q 1578 4750 2638 4750 
Q 3056 4750 3426 4639 
Q 3797 4528 4122 4306 
z
" transform="scale(0.015625)"/>
      <path id="DejaVuSans-61" d="M 2194 1759 
Q 1497 1759 1228 1600 
Q 959 1441 959 1056 
Q 959 750 1161 570 
Q 1363 391 1709 391 
Q 2188 391 2477 730 
Q 2766 1069 2766 1631 
L 2766 1759 
L 2194 1759 
z
M 3341 1997 
L 3341 0 
L 2766 0 
L 2766 531 
Q 2569 213 2275 61 
Q 1981 -91 1556 -91 
Q 1019 -91 701 211 
Q 384 513 384 1019 
Q 384 1609 779 1909 
Q 1175 2209 1959 2209 
L 2766 2209 
L 2766 2266 
Q 2766 2663 2505 2880 
Q 2244 3097 1772 3097 
Q 1472 3097 1187 3025 
Q 903 2953 641 2809 
L 641 3341 
Q 956 3463 1253 3523 
Q 1550 3584 1831 3584 
Q 2591 3584 2966 3190 
Q 3341 2797 3341 1997 
z
" transform="scale(0.015625)"/>
      <path id="DejaVuSans-6c" d="M 603 4863 
L 1178 4863 
L 1178 0 
L 603 0 
L 603 4863 
z
" transform="scale(0.015625)"/>
      <path id="DejaVuSans-63" d="M 3122 3366 
L 3122 2828 
Q 2878 2963 2633 3030 
Q 2388 3097 2138 3097 
Q 1578 3097 1268 2742 
Q 959 2388 959 1747 
Q 959 1106 1268 751 
Q 1578 397 2138 397 
Q 2388 397 2633 464 
Q 2878 531 3122 666 
L 3122 134 
Q 2881 22 2623 -34 
Q 2366 -91 2075 -91 
Q 1284 -91 818 406 
Q 353 903 353 1747 
Q 353 2603 823 3093 
Q 1294 3584 2113 3584 
Q 2378 3584 2631 3529 
Q 2884 3475 3122 3366 
z
" transform="scale(0.015625)"/>
      <path id="DejaVuSans-75" d="M 544 1381 
L 544 3500 
L 1119 3500 
L 1119 1403 
Q 1119 906 1312 657 
Q 1506 409 1894 409 
Q 2359 409 2629 706 
Q 2900 1003 2900 1516 
L 2900 3500 
L 3475 3500 
L 3475 0 
L 2900 0 
L 2900 538 
Q 2691 219 2414 64 
Q 2138 -91 1772 -91 
Q 1169 -91 856 284 
Q 544 659 544 1381 
z
M 1991 3584 
L 1991 3584 
z
" transform="scale(0.015625)"/>
      <path id="DejaVuSans-69" d="M 603 3500 
L 1178 3500 
L 1178 0 
L 603 0 
L 603 3500 
z
M 603 4863 
L 1178 4863 
L 1178 4134 
L 603 4134 
L 603 4863 
z
" transform="scale(0.015625)"/>
      <path id="DejaVuSans-58" d="M 403 4666 
L 1081 4666 
L 2241 2931 
L 3406 4666 
L 4084 4666 
L 2584 2425 
L 4184 0 
L 3506 0 
L 2194 1984 
L 872 0 
L 191 0 
L 1856 2491 
L 403 4666 
z
" transform="scale(0.015625)"/>
      <path id="DejaVuSans-44" d="M 1259 4147 
L 1259 519 
L 2022 519 
Q 2988 519 3436 956 
Q 3884 1394 3884 2338 
Q 3884 3275 3436 3711 
Q 2988 4147 2022 4147 
L 1259 4147 
z
M 628 4666 
L 1925 4666 
Q 3281 4666 3915 4102 
Q 4550 3538 4550 2338 
Q 4550 1131 3912 565 
Q 3275 0 1925 0 
L 628 0 
L 628 4666 
z
" transform="scale(0.015625)"/>
      <path id="DejaVuSans-52" d="M 2841 2188 
Q 3044 2119 3236 1894 
Q 3428 1669 3622 1275 
L 4263 0 
L 3584 0 
L 2988 1197 
Q 2756 1666 2539 1819 
Q 2322 1972 1947 1972 
L 1259 1972 
L 1259 0 
L 628 0 
L 628 4666 
L 2053 4666 
Q 2853 4666 3247 4331 
Q 3641 3997 3641 3322 
Q 3641 2881 3436 2590 
Q 3231 2300 2841 2188 
z
M 1259 4147 
L 1259 2491 
L 2053 2491 
Q 2509 2491 2742 2702 
Q 2975 2913 2975 3322 
Q 2975 3731 2742 3939 
Q 2509 4147 2053 4147 
L 1259 4147 
z
" transform="scale(0.015625)"/>
      <path id="DejaVuSans-2014" d="M 313 1978 
L 6088 1978 
L 6088 1528 
L 313 1528 
L 313 1978 
z
" transform="scale(0.015625)"/>
      <path id="DejaVuSans-4d" d="M 628 4666 
L 1569 4666 
L 2759 1491 
L 3956 4666 
L 4897 4666 
L 4897 0 
L 4281 0 
L 4281 4097 
L 3078 897 
L 2444 897 
L 1241 4097 
L 1241 0 
L 628 0 
L 628 4666 
z
" transform="scale(0.015625)"/>
      <path id="DejaVuSans-6f" d="M 1959 3097 
Q 1497 3097 1228 2736 
Q 959 2375 959 1747 
Q 959 1119 1226 758 
Q 1494 397 1959 397 
Q 2419 397 2687 759 
Q 2956 1122 2956 1747 
Q 2956 2369 2687 2733 
Q 2419 3097 1959 3097 
z
M 1959 3584 
Q 2709 3584 3137 3096 
Q 3566 2609 3566 1747 
Q 3566 888 3137 398 
Q 2709 -91 1959 -91 
Q 1206 -91 779 398 
Q 353 888 353 1747 
Q 353 2609 779 3096 
Q 1206 3584 1959 3584 
z
" transform="scale(0.015625)"/>
      <path id="DejaVuSans-64" d="M 2906 2969 
L 2906 4863 
L 3481 4863 
L 3481 0 
L 2906 0 
L 2906 525 
Q 2725 213 2448 61 
Q 2172 -91 1784 -91 
Q 1150 -91 751 415 
Q 353 922 353 1747 
Q 353 2572 751 3078 
Q 1150 3584 1784 3584 
Q 2172 3584 2448 3432 
Q 2725 3281 2906 2969 
z
M 947 1747 
Q 947 1113 1208 752 
Q 1469 391 1925 391 
Q 2381 391 2643 752 
Q 2906 1113 2906 1747 
Q 2906 2381 2643 2742 
Q 2381 3103 1925 3103 
Q 1469 3103 1208 2742 
Q 947 2381 947 1747 
z
" transform="scale(0.015625)"/>
      <path id="DejaVuSans-65" d="M 3597 1894 
L 3597 1613 
L 953 1613 
Q 991 1019 1311 708 
Q 1631 397 2203 397 
Q 2534 397 2845 478 
Q 3156 559 3463 722 
L 3463 178 
Q 3153 47 2828 -22 
Q 2503 -91 2169 -91 
Q 1331 -91 842 396 
Q 353 884 353 1716 
Q 353 2575 817 3079 
Q 1281 3584 2069 3584 
Q 2775 3584 3186 3129 
Q 3597 2675 3597 1894 
z
M 3022 2063 
Q 3016 2534 2758 2815 
Q 2500 3097 2075 3097 
Q 1594 3097 1305 2825 
Q 1016 2553 972 2059 
L 3022 2063 
z
" transform="scale(0.015625)"/>
      <path id="DejaVuSans-3a" d="M 750 794 
L 1409 794 
L 1409 0 
L 750 0 
L 750 794 
z
M 750 3309 
L 1409 3309 
L 1409 2516 
L 750 2516 
L 750 3309 
z
" transform="scale(0.015625)"/>
      <path id="DejaVuSans-2e" d="M 684 794 
L 1344 794 
L 1344 0 
L 684 0 
L 684 794 
z
" transform="scale(0.015625)"/>
      <path id="DejaVuSans-38" d="M 2034 2216 
Q 1584 2216 1326 1975 
Q 1069 1734 1069 1313 
Q 1069 891 1326 650 
Q 1584 409 2034 409 
Q 2484 409 2743 651 
Q 3003 894 3003 1313 
Q 3003 1734 2745 1975 
Q 2488 2216 2034 2216 
z
M 1403 2484 
Q 997 2584 770 2862 
Q 544 3141 544 3541 
Q 544 4100 942 4425 
Q 1341 4750 2034 4750 
Q 2731 4750 3128 4425 
Q 3525 4100 3525 3541 
Q 3525 3141 3298 2862 
Q 3072 2584 2669 2484 
Q 3125 2378 3379 2068 
Q 3634 1759 3634 1313 
Q 3634 634 3220 271 
Q 2806 -91 2034 -91 
Q 1263 -91 848 271 
Q 434 634 434 1313 
Q 434 1759 690 2068 
Q 947 2378 1403 2484 
z
M 1172 3481 
Q 1172 3119 1398 2916 
Q 1625 2713 2034 2713 
Q 2441 2713 2670 2916 
Q 2900 3119 2900 3481 
Q 2900 3844 2670 4047 
Q 2441 4250 2034 4250 
Q 1625 4250 1398 4047 
Q 1172 3844 1172 3481 
z
" transform="scale(0.015625)"/>
      <path id="DejaVuSans-48" d="M 628 4666 
L 1259 4666 
L 1259 2753 
L 3553 2753 
L 3553 4666 
L 4184 4666 
L 4184 0 
L 3553 0 
L 3553 2222 
L 1259 2222 
L 1259 0 
L 628 0 
L 628 4666 
z
" transform="scale(0.015625)"/>
      <path id="DejaVuSans-7a" d="M 353 3500 
L 3084 3500 
L 3084 2975 
L 922 459 
L 3084 459 
L 3084 0 
L 275 0 
L 275 525 
L 2438 3041 
L 353 3041 
L 353 3500 
z
" transform="scale(0.015625)"/>
     </defs>
     <use xlink:href="#DejaVuSans-43"/>
     <use xlink:href="#DejaVuSans-61" x="69.824219"/>
     <use xlink:href="#DejaVuSans-6c" x="131.103516"/>
     <use xlink:href="#DejaVuSans-63" x="158.886719"/>
     <use xlink:href="#DejaVuSans-75" x="213.867188"/>
     <use xlink:href="#DejaVuSans-6c" x="277.246094"/>
     <use xlink:href="#DejaVuSans-69" x="305.029297"/>
     <use xlink:href="#DejaVuSans-58" x="332.8125"/>
     <use xlink:href="#DejaVuSans-20" x="401.318359"/>
     <use xlink:href="#DejaVuSans-43" x="433.105469"/>
     <use xlink:href="#DejaVuSans-33" x="502.929688"/>
     <use xlink:href="#DejaVuSans-44" x="566.552734"/>
     <use xlink:href="#DejaVuSans-32" x="643.554688"/>
     <use xlink:href="#DejaVuSans-30" x="707.177734"/>
     <use xlink:href="#DejaVuSans-52" x="770.800781"/>
     <use xlink:href="#DejaVuSans-20" x="840.283203"/>
     <use xlink:href="#DejaVuSans-2014" x="872.070312"/>
     <use xlink:href="#DejaVuSans-20" x="972.070312"/>
     <use xlink:href="#DejaVuSans-4d" x="1003.857422"/>
     <use xlink:href="#DejaVuSans-6f" x="1090.136719"/>
     <use xlink:href="#DejaVuSans-64" x="1151.318359"/>
     <use xlink:href="#DejaVuSans-65" x="1214.794922"/>
     <use xlink:href="#DejaVuSans-20" x="1276.318359"/>
     <use xlink:href="#DejaVuSans-33" x="1308.105469"/>
     <use xlink:href="#DejaVuSans-3a" x="1371.728516"/>
     <use xlink:href="#DejaVuSans-20" x="1405.419922"/>
     <use xlink:href="#DejaVuSans-33" x="1437.207031"/>
     <use xlink:href="#DejaVuSans-34" x="1500.830078"/>
     <use xlink:href="#DejaVuSans-2e" x="1564.453125"/>
     <use xlink:href="#DejaVuSans-38" x="1596.240234"/>
     <use xlink:href="#DejaVuSans-38" x="1659.863281"/>
     <use xlink:href="#DejaVuSans-20" x="1723.486328"/>
     <use xlink:href="#DejaVuSans-48" x="1755.273438"/>
     <use xlink:href="#DejaVuSans-7a" x="1830.46875"/>
    </g>
   </g>
  </g>
  <g id="axes_2">
   <g id="patch_7">
    <path d="M 452.74005 231.564898 
L 463.171352 231.564898 
L 463.171352 41.904863 
L 452.74005 41.904863 
z
" style="fill: #ffffff"/>
   </g>
   <g id="patch_8">
    <path clip-path="url(#p7620df8246)" style="fill: #ffffff; stroke: #ffffff; stroke-width: 0.01; stroke-linejoin: miter"/>
   </g>
   <g id="patch_9">
    <path d="M 452.74005 231.564898 
L 457.955701 241.047899 
L 463.171352 231.564898 
" style="fill: #053061"/>
   </g>
   <g id="patch_10">
    <path d="M 452.74005 41.904863 
L 457.955701 32.421861 
L 463.171352 41.904863 
" style="fill: #67001f"/>
   </g>
   <g id="QuadMesh_1">
    <path d="M 452.74005 231.564898 
L 463.171352 231.564898 
L 463.171352 219.711145 
L 452.74005 219.711145 
L 452.74005 231.564898 
" clip-path="url(#p7620df8246)" style="fill: #0e4179"/>
    <path d="M 452.74005 219.711145 
L 463.171352 219.711145 
L 463.171352 207.857393 
L 452.74005 207.857393 
L 452.74005 219.711145 
" clip-path="url(#p7620df8246)" style="fill: #1f63a8"/>
    <path d="M 452.74005 207.857393 
L 463.171352 207.857393 
L 463.171352 196.003641 
L 452.74005 196.003641 
L 452.74005 207.857393 
" clip-path="url(#p7620df8246)" style="fill: #3480b9"/>
    <path d="M 452.74005 196.003641 
L 463.171352 196.003641 
L 463.171352 184.149889 
L 452.74005 184.149889 
L 452.74005 196.003641 
" clip-path="url(#p7620df8246)" style="fill: #529dc8"/>
    <path d="M 452.74005 184.149889 
L 463.171352 184.149889 
L 463.171352 172.296137 
L 452.74005 172.296137 
L 452.74005 184.149889 
" clip-path="url(#p7620df8246)" style="fill: #84bcd9"/>
    <path d="M 452.74005 172.296137 
L 463.171352 172.296137 
L 463.171352 160.442384 
L 452.74005 160.442384 
L 452.74005 172.296137 
" clip-path="url(#p7620df8246)" style="fill: #aed3e6"/>
    <path d="M 452.74005 160.442384 
L 463.171352 160.442384 
L 463.171352 148.588632 
L 452.74005 148.588632 
L 452.74005 160.442384 
" clip-path="url(#p7620df8246)" style="fill: #d4e6f1"/>
    <path d="M 452.74005 148.588632 
L 463.171352 148.588632 
L 463.171352 136.73488 
L 452.74005 136.73488 
L 452.74005 148.588632 
" clip-path="url(#p7620df8246)" style="fill: #ecf2f5"/>
    <path d="M 452.74005 136.73488 
L 463.171352 136.73488 
L 463.171352 124.881128 
L 452.74005 124.881128 
L 452.74005 136.73488 
" clip-path="url(#p7620df8246)" style="fill: #f9eee7"/>
    <path d="M 452.74005 124.881128 
L 463.171352 124.881128 
L 463.171352 113.027376 
L 452.74005 113.027376 
L 452.74005 124.881128 
" clip-path="url(#p7620df8246)" style="fill: #fddcc9"/>
    <path d="M 452.74005 113.027376 
L 463.171352 113.027376 
L 463.171352 101.173624 
L 452.74005 101.173624 
L 452.74005 113.027376 
" clip-path="url(#p7620df8246)" style="fill: #f8bb9e"/>
    <path d="M 452.74005 101.173624 
L 463.171352 101.173624 
L 463.171352 89.319871 
L 452.74005 89.319871 
L 452.74005 101.173624 
" clip-path="url(#p7620df8246)" style="fill: #ee9677"/>
    <path d="M 452.74005 89.319871 
L 463.171352 89.319871 
L 463.171352 77.466119 
L 452.74005 77.466119 
L 452.74005 89.319871 
" clip-path="url(#p7620df8246)" style="fill: #db6b55"/>
    <path d="M 452.74005 77.466119 
L 463.171352 77.466119 
L 463.171352 65.612367 
L 452.74005 65.612367 
L 452.74005 77.466119 
" clip-path="url(#p7620df8246)" style="fill: #c53e3d"/>
    <path d="M 452.74005 65.612367 
L 463.171352 65.612367 
L 463.171352 53.758615 
L 452.74005 53.758615 
L 452.74005 65.612367 
" clip-path="url(#p7620df8246)" style="fill: #ab162a"/>
    <path d="M 452.74005 53.758615 
L 463.171352 53.758615 
L 463.171352 41.904863 
L 452.74005 41.904863 
L 452.74005 53.758615 
" clip-path="url(#p7620df8246)" style="fill: #7c0722"/>
   </g>
   <g id="matplotlib.axis_3"/>
   <g id="matplotlib.axis_4">
    <g id="ytick_10">
     <g id="line2d_19">
      <defs>
       <path id="m25480693af" d="M 0 0 
L 3.5 0 
" style="stroke: #000000; stroke-width: 0.8"/>
      </defs>
      <g>
       <use xlink:href="#m25480693af" x="463.171352" y="231.564898" style="stroke: #000000; stroke-width: 0.8"/>
      </g>
     </g>
     <g id="text_22">
      <!-- −1.00 -->
      <g transform="translate(470.171352 235.364116) scale(0.1 -0.1)">
       <defs>
        <path id="DejaVuSans-2212" d="M 678 2272 
L 4684 2272 
L 4684 1741 
L 678 1741 
L 678 2272 
z
" transform="scale(0.015625)"/>
       </defs>
       <use xlink:href="#DejaVuSans-2212"/>
       <use xlink:href="#DejaVuSans-31" x="83.789062"/>
       <use xlink:href="#DejaVuSans-2e" x="147.412109"/>
       <use xlink:href="#DejaVuSans-30" x="179.199219"/>
       <use xlink:href="#DejaVuSans-30" x="242.822266"/>
      </g>
     </g>
    </g>
    <g id="ytick_11">
     <g id="line2d_20">
      <g>
       <use xlink:href="#m25480693af" x="463.171352" y="207.857393" style="stroke: #000000; stroke-width: 0.8"/>
      </g>
     </g>
     <g id="text_23">
      <!-- −0.75 -->
      <g transform="translate(470.171352 211.656612) scale(0.1 -0.1)">
       <use xlink:href="#DejaVuSans-2212"/>
       <use xlink:href="#DejaVuSans-30" x="83.789062"/>
       <use xlink:href="#DejaVuSans-2e" x="147.412109"/>
       <use xlink:href="#DejaVuSans-37" x="179.199219"/>
       <use xlink:href="#DejaVuSans-35" x="242.822266"/>
      </g>
     </g>
    </g>
    <g id="ytick_12">
     <g id="line2d_21">
      <g>
       <use xlink:href="#m25480693af" x="463.171352" y="184.149889" style="stroke: #000000; stroke-width: 0.8"/>
      </g>
     </g>
     <g id="text_24">
      <!-- −0.50 -->
      <g transform="translate(470.171352 187.949108) scale(0.1 -0.1)">
       <use xlink:href="#DejaVuSans-2212"/>
       <use xlink:href="#DejaVuSans-30" x="83.789062"/>
       <use xlink:href="#DejaVuSans-2e" x="147.412109"/>
       <use xlink:href="#DejaVuSans-35" x="179.199219"/>
       <use xlink:href="#DejaVuSans-30" x="242.822266"/>
      </g>
     </g>
    </g>
    <g id="ytick_13">
     <g id="line2d_22">
      <g>
       <use xlink:href="#m25480693af" x="463.171352" y="160.442384" style="stroke: #000000; stroke-width: 0.8"/>
      </g>
     </g>
     <g id="text_25">
      <!-- −0.25 -->
      <g transform="translate(470.171352 164.241603) scale(0.1 -0.1)">
       <use xlink:href="#DejaVuSans-2212"/>
       <use xlink:href="#DejaVuSans-30" x="83.789062"/>
       <use xlink:href="#DejaVuSans-2e" x="147.412109"/>
       <use xlink:href="#DejaVuSans-32" x="179.199219"/>
       <use xlink:href="#DejaVuSans-35" x="242.822266"/>
      </g>
     </g>
    </g>
    <g id="ytick_14">
     <g id="line2d_23">
      <g>
       <use xlink:href="#m25480693af" x="463.171352" y="136.73488" style="stroke: #000000; stroke-width: 0.8"/>
      </g>
     </g>
     <g id="text_26">
      <!-- 0.00 -->
      <g transform="translate(470.171352 140.534099) scale(0.1 -0.1)">
       <use xlink:href="#DejaVuSans-30"/>
       <use xlink:href="#DejaVuSans-2e" x="63.623047"/>
       <use xlink:href="#DejaVuSans-30" x="95.410156"/>
       <use xlink:href="#DejaVuSans-30" x="159.033203"/>
      </g>
     </g>
    </g>
    <g id="ytick_15">
     <g id="line2d_24">
      <g>
       <use xlink:href="#m25480693af" x="463.171352" y="113.027376" style="stroke: #000000; stroke-width: 0.8"/>
      </g>
     </g>
     <g id="text_27">
      <!-- 0.25 -->
      <g transform="translate(470.171352 116.826594) scale(0.1 -0.1)">
       <use xlink:href="#DejaVuSans-30"/>
       <use xlink:href="#DejaVuSans-2e" x="63.623047"/>
       <use xlink:href="#DejaVuSans-32" x="95.410156"/>
       <use xlink:href="#DejaVuSans-35" x="159.033203"/>
      </g>
     </g>
    </g>
    <g id="ytick_16">
     <g id="line2d_25">
      <g>
       <use xlink:href="#m25480693af" x="463.171352" y="89.319871" style="stroke: #000000; stroke-width: 0.8"/>
      </g>
     </g>
     <g id="text_28">
      <!-- 0.50 -->
      <g transform="translate(470.171352 93.11909) scale(0.1 -0.1)">
       <use xlink:href="#DejaVuSans-30"/>
       <use xlink:href="#DejaVuSans-2e" x="63.623047"/>
       <use xlink:href="#DejaVuSans-35" x="95.410156"/>
       <use xlink:href="#DejaVuSans-30" x="159.033203"/>
      </g>
     </g>
    </g>
    <g id="ytick_17">
     <g id="line2d_26">
      <g>
       <use xlink:href="#m25480693af" x="463.171352" y="65.612367" style="stroke: #000000; stroke-width: 0.8"/>
      </g>
     </g>
     <g id="text_29">
      <!-- 0.75 -->
      <g transform="translate(470.171352 69.411586) scale(0.1 -0.1)">
       <use xlink:href="#DejaVuSans-30"/>
       <use xlink:href="#DejaVuSans-2e" x="63.623047"/>
       <use xlink:href="#DejaVuSans-37" x="95.410156"/>
       <use xlink:href="#DejaVuSans-35" x="159.033203"/>
      </g>
     </g>
    </g>
    <g id="ytick_18">
     <g id="line2d_27">
      <g>
       <use xlink:href="#m25480693af" x="463.171352" y="41.904863" style="stroke: #000000; stroke-width: 0.8"/>
      </g>
     </g>
     <g id="text_30">
      <!-- 1.00 -->
      <g transform="translate(470.171352 45.704081) scale(0.1 -0.1)">
       <use xlink:href="#DejaVuSans-31"/>
       <use xlink:href="#DejaVuSans-2e" x="63.623047"/>
       <use xlink:href="#DejaVuSans-30" x="95.410156"/>
       <use xlink:href="#DejaVuSans-30" x="159.033203"/>
      </g>
     </g>
    </g>
    <g id="text_31">
     <!-- normalized z displacement -->
     <g transform="translate(512.415102 204.017693) rotate(-90) scale(0.1 -0.1)">
      <defs>
       <path id="DejaVuSans-6e" d="M 3513 2113 
L 3513 0 
L 2938 0 
L 2938 2094 
Q 2938 2591 2744 2837 
Q 2550 3084 2163 3084 
Q 1697 3084 1428 2787 
Q 1159 2491 1159 1978 
L 1159 0 
L 581 0 
L 581 3500 
L 1159 3500 
L 1159 2956 
Q 1366 3272 1645 3428 
Q 1925 3584 2291 3584 
Q 2894 3584 3203 3211 
Q 3513 2838 3513 2113 
z
" transform="scale(0.015625)"/>
       <path id="DejaVuSans-72" d="M 2631 2963 
Q 2534 3019 2420 3045 
Q 2306 3072 2169 3072 
Q 1681 3072 1420 2755 
Q 1159 2438 1159 1844 
L 1159 0 
L 581 0 
L 581 3500 
L 1159 3500 
L 1159 2956 
Q 1341 3275 1631 3429 
Q 1922 3584 2338 3584 
Q 2397 3584 2469 3576 
Q 2541 3569 2628 3553 
L 2631 2963 
z
" transform="scale(0.015625)"/>
       <path id="DejaVuSans-73" d="M 2834 3397 
L 2834 2853 
Q 2591 2978 2328 3040 
Q 2066 3103 1784 3103 
Q 1356 3103 1142 2972 
Q 928 2841 928 2578 
Q 928 2378 1081 2264 
Q 1234 2150 1697 2047 
L 1894 2003 
Q 2506 1872 2764 1633 
Q 3022 1394 3022 966 
Q 3022 478 2636 193 
Q 2250 -91 1575 -91 
Q 1294 -91 989 -36 
Q 684 19 347 128 
L 347 722 
Q 666 556 975 473 
Q 1284 391 1588 391 
Q 1994 391 2212 530 
Q 2431 669 2431 922 
Q 2431 1156 2273 1281 
Q 2116 1406 1581 1522 
L 1381 1569 
Q 847 1681 609 1914 
Q 372 2147 372 2553 
Q 372 3047 722 3315 
Q 1072 3584 1716 3584 
Q 2034 3584 2315 3537 
Q 2597 3491 2834 3397 
z
" transform="scale(0.015625)"/>
       <path id="DejaVuSans-70" d="M 1159 525 
L 1159 -1331 
L 581 -1331 
L 581 3500 
L 1159 3500 
L 1159 2969 
Q 1341 3281 1617 3432 
Q 1894 3584 2278 3584 
Q 2916 3584 3314 3078 
Q 3713 2572 3713 1747 
Q 3713 922 3314 415 
Q 2916 -91 2278 -91 
Q 1894 -91 1617 61 
Q 1341 213 1159 525 
z
M 3116 1747 
Q 3116 2381 2855 2742 
Q 2594 3103 2138 3103 
Q 1681 3103 1420 2742 
Q 1159 2381 1159 1747 
Q 1159 1113 1420 752 
Q 1681 391 2138 391 
Q 2594 391 2855 752 
Q 3116 1113 3116 1747 
z
" transform="scale(0.015625)"/>
       <path id="DejaVuSans-74" d="M 1172 4494 
L 1172 3500 
L 2356 3500 
L 2356 3053 
L 1172 3053 
L 1172 1153 
Q 1172 725 1289 603 
Q 1406 481 1766 481 
L 2356 481 
L 2356 0 
L 1766 0 
Q 1100 0 847 248 
Q 594 497 594 1153 
L 594 3053 
L 172 3053 
L 172 3500 
L 594 3500 
L 594 4494 
L 1172 4494 
z
" transform="scale(0.015625)"/>
      </defs>
      <use xlink:href="#DejaVuSans-6e"/>
      <use xlink:href="#DejaVuSans-6f" x="63.378906"/>
      <use xlink:href="#DejaVuSans-72" x="124.560547"/>
      <use xlink:href="#DejaVuSans-6d" x="163.923828"/>
      <use xlink:href="#DejaVuSans-61" x="261.335938"/>
      <use xlink:href="#DejaVuSans-6c" x="322.615234"/>
      <use xlink:href="#DejaVuSans-69" x="350.398438"/>
      <use xlink:href="#DejaVuSans-7a" x="378.181641"/>
      <use xlink:href="#DejaVuSans-65" x="430.671875"/>
      <use xlink:href="#DejaVuSans-64" x="492.195312"/>
      <use xlink:href="#DejaVuSans-20" x="555.671875"/>
      <use xlink:href="#DejaVuSans-7a" x="587.458984"/>
      <use xlink:href="#DejaVuSans-20" x="639.949219"/>
      <use xlink:href="#DejaVuSans-64" x="671.736328"/>
      <use xlink:href="#DejaVuSans-69" x="735.212891"/>
      <use xlink:href="#DejaVuSans-73" x="762.996094"/>
      <use xlink:href="#DejaVuSans-70" x="815.095703"/>
      <use xlink:href="#DejaVuSans-6c" x="878.572266"/>
      <use xlink:href="#DejaVuSans-61" x="906.355469"/>
      <use xlink:href="#DejaVuSans-63" x="967.634766"/>
      <use xlink:href="#DejaVuSans-65" x="1022.615234"/>
      <use xlink:href="#DejaVuSans-6d" x="1084.138672"/>
      <use xlink:href="#DejaVuSans-65" x="1181.550781"/>
      <use xlink:href="#DejaVuSans-6e" x="1243.074219"/>
      <use xlink:href="#DejaVuSans-74" x="1306.453125"/>
     </g>
    </g>
   </g>
   <g id="LineCollection_1"/>
   <g id="patch_11">
    <path d="M 452.74005 231.564898 
L 457.955701 241.047899 
L 463.171352 231.564898 
L 463.171352 41.904863 
L 457.955701 32.421861 
L 452.74005 41.904863 
L 452.74005 231.564898 
z
" style="fill: none; stroke: #000000; stroke-width: 0.8; stroke-linejoin: miter; stroke-linecap: square"/>
   </g>
  </g>
 </g>
 <defs>
  <clipPath id="p85aa91efb2">
   <rect x="42.765865" y="41.3943" width="381.362319" height="190.681159"/>
  </clipPath>
  <clipPath id="p7620df8246">
   <rect x="452.74005" y="41.904863" width="10.431302" height="189.660035"/>
  </clipPath>
 </defs>
 <defs>
  <pattern id="h1b603c7d1d" patternUnits="userSpaceOnUse" x="0" y="0" width="72" height="72">
   <rect x="0" y="0" width="73" height="73" fill="#333333"/>
   <path d="M -36 36 
L 36 -36 
M -33 39 
L 39 -33 
M -30 42 
L 42 -30 
M -27 45 
L 45 -27 
M -24 48 
L 48 -24 
M -21 51 
L 51 -21 
M -18 54 
L 54 -18 
M -15 57 
L 57 -15 
M -12 60 
L 60 -12 
M -9 63 
L 63 -9 
M -6 66 
L 66 -6 
M -3 69 
L 69 -3 
M 0 72 
L 72 0 
M 3 75 
L 75 3 
M 6 78 
L 78 6 
M 9 81 
L 81 9 
M 12 84 
L 84 12 
M 15 87 
L 87 15 
M 18 90 
L 90 18 
M 21 93 
L 93 21 
M 24 96 
L 96 24 
M 27 99 
L 99 27 
M 30 102 
L 102 30 
M 33 105 
L 105 33 
M 36 108 
L 108 36 
" style="fill: #333333; stroke: #333333; stroke-width: 1.0; stroke-linecap: butt; stroke-linejoin: miter; stroke-opacity: 0.3"/>
  </pattern>
 </defs>
</svg>
