<?xml version="1.0" encoding="utf-8" standalone="no"?>
<!DOCTYPE svg PUBLIC "-//W3C//DTD SVG 1.1//EN"
  "http://www.w3.org/Graphics/SVG/1.1/DTD/svg11.dtd">
<svg xmlns:xlink="http://www.w3.org/1999/xlink" width="518.4pt" height="273.6pt" viewBox="0 0 518.4 273.6" xmlns="http://www.w3.org/2000/svg" version="1.1">
 <metadata>
  <rdf:RDF xmlns:dc="http://purl.org/dc/elements/1.1/" xmlns:cc="http://creativecommons.org/ns#" xmlns:rdf="http://www.w3.org/1999/02/22-rdf-syntax-ns#">
   <cc:Work>
    <dc:type rdf:resource="http://purl.org/dc/dcmitype/StillImage"/>
    <dc:format>image/svg+xml</dc:format>
    <dc:creator>
     <cc:Agent>
      <dc:title>Matplotlib v3.6.3, https://matplotlib.org/</dc:title>
     </cc:Agent>
    </dc:creator>
   </cc:Work>
  </rdf:RDF>
 </metadata>
 <defs>
  <style type="text/css">*{stroke-linejoin: round; stroke-linecap: butt}</style>
 </defs>
 <g id="figure_1">
  <g id="patch_1">
   <path d="M 0 273.6 
L 518.4 273.6 
L 518.4 0 
L 0 0 
z
" style="fill: #ffffff"/>
  </g>
  <g id="axes_1">
   <g id="patch_2">
    <path d="M 42.765865 232.07546 
L 424.128184 232.07546 
L 424.128184 41.3943 
L 42.765865 41.3943 
z
" style="fill: #ffffff"/>
   </g>
   <g id="PathCollection_1">
    <path clip-path="url(#p7c9b61b921)" style="fill: #053061"/>
   </g>
   <g id="PathCollection_2">
    <path clip-path="url(#p7c9b61b921)" style="fill: #0e4179"/>
   </g>
   <g id="PathCollection_3">
    <path d="M 42.765865 82.848646 
L 44.613091 89.06459 
L 45.867528 97.880499 
L 46.69568 104.911977 
L 46.196366 112.899735 
L 44.587903 118.957056 
L 44.15777 120.885421 
L 42.765865 123.702243 
L 42.765865 120.050279 
L 42.765865 112.899735 
L 42.765865 100.982163 
L 42.765865 89.06459 
" clip-path="url(#p7c9b61b921)" style="fill: #1f63a8"/>
   </g>
   <g id="PathCollection_4">
    <path d="M 42.765865 123.702243 
L 44.15777 120.885421 
L 44.587903 118.957056 
L 46.196366 112.899735 
L 46.69568 104.911977 
L 45.867528 97.880499 
L 44.613091 89.06459 
L 42.765865 82.848646 
L 42.765865 79.530532 
L 42.765865 69.996474 
L 42.765865 65.229445 
L 42.765865 65.141001 
L 42.800459 65.215608 
L 42.816814 65.249825 
L 44.913969 69.996474 
L 47.191806 75.98978 
L 50.877221 86.019617 
L 51.782112 89.06459 
L 52.143523 91.604505 
L 54.647379 112.863676 
L 54.645125 112.899735 
L 54.637864 112.927079 
L 51.835208 125.491885 
L 50.990754 127.200822 
L 49.703346 129.192859 
L 47.177733 133.732598 
L 44.515014 136.73488 
L 42.765865 138.449447 
L 42.765865 136.73488 
L 42.765865 131.967851 
L 42.765865 127.200822 
M 423.429601 232.07546 
L 424.128184 229.085129 
L 424.128184 232.07546 
" clip-path="url(#p7c9b61b921)" style="fill: #3480b9"/>
   </g>
   <g id="PathCollection_5">
    <path d="M 42.765865 138.449447 
L 44.515014 136.73488 
L 47.177733 133.732598 
L 49.703346 129.192859 
L 50.990754 127.200822 
L 51.835208 125.491885 
L 54.637864 112.927079 
L 54.645125 112.899735 
L 54.647379 112.863676 
L 52.143523 91.604505 
L 51.782112 89.06459 
L 50.877221 86.019617 
L 47.191806 75.98978 
L 44.913969 69.996474 
L 42.816814 65.249825 
L 42.800459 65.215608 
L 42.765865 65.141001 
L 42.765865 60.462416 
L 42.765865 58.078902 
L 42.765865 55.695387 
L 42.765865 53.311873 
L 42.765865 51.691928 
L 43.508826 53.163281 
L 43.682013 53.495102 
L 44.784796 55.695387 
L 45.670623 57.49795 
L 46.329457 58.79162 
L 47.139431 60.462416 
L 48.319741 63.007895 
L 50.94549 68.501295 
L 51.606087 69.996474 
L 52.323598 71.884346 
L 54.683437 78.306637 
L 58.031499 86.386141 
L 59.175717 89.06459 
L 61.062758 95.443911 
L 62.528253 105.05492 
L 63.729908 112.899735 
L 63.585701 118.241093 
L 62.442068 122.545644 
L 61.52026 127.200822 
L 60.706204 129.609929 
L 56.638161 135.952991 
L 56.226852 136.73488 
L 55.907413 137.22447 
L 54.683437 138.358698 
L 49.367553 144.142584 
L 46.405256 146.268938 
L 42.765865 148.584379 
L 42.765865 146.268938 
L 42.765865 141.501909 
M 424.128184 229.085129 
L 423.429601 232.07546 
L 413.640279 232.07546 
L 414.076077 230.209994 
L 416.148997 220.157887 
L 417.656155 213.685859 
L 419.220992 208.240315 
L 423.027712 197.423214 
L 423.566255 195.760813 
L 424.128184 194.590416 
L 424.128184 196.322742 
L 424.128184 208.240315 
L 424.128184 220.157887 
" clip-path="url(#p7c9b61b921)" style="fill: #529dc8"/>
   </g>
   <g id="PathCollection_6">
    <path d="M 42.765865 148.584379 
L 46.405256 146.268938 
L 49.367553 144.142584 
L 54.683437 138.358698 
L 55.907413 137.22447 
L 56.226852 136.73488 
L 56.638161 135.952991 
L 60.706204 129.609929 
L 61.52026 127.200822 
L 62.442068 122.545644 
L 63.585701 118.241093 
L 63.729908 112.899735 
L 62.528253 105.05492 
L 61.062758 95.443911 
L 59.175717 89.06459 
L 58.031499 86.386141 
L 54.683437 78.306637 
L 52.323598 71.884346 
L 51.606087 69.996474 
L 50.94549 68.501295 
L 48.319741 63.007895 
L 47.139431 60.462416 
L 46.329457 58.79162 
L 45.670623 57.49795 
L 44.784796 55.695387 
L 43.682013 53.495102 
L 43.508826 53.163281 
L 42.765865 51.691928 
L 42.765865 50.928358 
L 42.765865 48.544844 
L 42.765865 46.161329 
L 42.765865 43.777815 
L 42.765865 41.3943 
L 43.87311 41.3943 
L 44.880249 43.354938 
L 45.382251 44.301092 
L 46.342569 46.161329 
L 47.118024 47.674412 
L 48.147899 49.621251 
L 48.816966 50.928358 
L 49.355078 51.99403 
L 50.891047 54.936909 
L 51.271196 55.695387 
L 51.576557 56.316763 
L 53.574928 60.240714 
L 53.682405 60.462416 
L 53.839023 60.800182 
L 54.683437 62.566804 
L 57.772371 68.760901 
L 58.424733 69.996474 
L 60.734443 74.837278 
L 63.655686 81.886791 
L 66.60101 88.781365 
L 66.729362 89.06459 
L 69.54521 98.037963 
L 71.024102 100.982163 
L 72.267592 106.648745 
L 73.299304 112.899735 
L 73.206588 116.086932 
L 73.572415 124.233122 
L 72.929885 127.200822 
L 71.960738 129.82396 
L 71.017492 133.734444 
L 69.266803 136.73488 
L 66.60101 140.41845 
L 66.040403 141.277666 
L 65.188863 142.066768 
L 61.1757 146.268938 
L 58.548701 148.588096 
L 54.683437 150.484196 
L 46.559142 155.695448 
L 42.765865 157.096544 
L 42.765865 153.419482 
M 424.128184 194.590416 
L 423.566255 195.760813 
L 423.027712 197.423214 
L 419.220992 208.240315 
L 417.656155 213.685859 
L 416.148997 220.157887 
L 414.076077 230.209994 
L 413.640279 232.07546 
L 412.210612 232.07546 
L 403.947503 232.07546 
L 405.032393 224.897241 
L 406.00973 220.157887 
L 407.745114 212.705812 
L 408.582857 208.240315 
L 409.24918 205.278883 
L 412.210612 196.722225 
L 415.224436 187.418994 
L 416.67143 184.40517 
L 421.96924 174.646541 
L 423.402815 171.762228 
L 424.128184 170.80382 
L 424.128184 172.487597 
L 424.128184 184.40517 
M 175.260584 232.07546 
L 179.489334 226.445288 
L 184.561867 218.94302 
L 185.776735 217.730129 
L 189.078485 216.856137 
L 206.921917 217.467924 
L 209.61188 218.569853 
L 210.227808 219.13134 
L 210.985114 220.157887 
L 219.237822 227.949794 
L 222.131661 232.07546 
L 216.762423 232.07546 
L 209.61188 232.07546 
L 197.694307 232.07546 
L 185.776735 232.07546 
" clip-path="url(#p7c9b61b921)" style="fill: #84bcd9"/>
   </g>
   <g id="PathCollection_7">
    <path d="M 42.765865 157.096544 
L 46.559142 155.695448 
L 54.683437 150.484196 
L 58.548701 148.588096 
L 61.1757 146.268938 
L 65.188863 142.066768 
L 66.040403 141.277666 
L 66.60101 140.41845 
L 69.266803 136.73488 
L 71.017492 133.734444 
L 71.960738 129.82396 
L 72.929885 127.200822 
L 73.572415 124.233122 
L 73.206588 116.086932 
L 73.299304 112.899735 
L 72.267592 106.648745 
L 71.024102 100.982163 
L 69.54521 98.037963 
L 66.729362 89.06459 
L 66.60101 88.781365 
L 63.655686 81.886791 
L 60.734443 74.837278 
L 58.424733 69.996474 
L 57.772371 68.760901 
L 54.683437 62.566804 
L 53.839023 60.800182 
L 53.682405 60.462416 
L 53.574928 60.240714 
L 51.576557 56.316763 
L 51.271196 55.695387 
L 50.891047 54.936909 
L 49.355078 51.99403 
L 48.816966 50.928358 
L 48.147899 49.621251 
L 47.118024 47.674412 
L 46.342569 46.161329 
L 45.382251 44.301092 
L 44.880249 43.354938 
L 43.87311 41.3943 
L 50.226166 41.3943 
L 50.641425 42.202703 
L 52.511262 45.726894 
L 52.735532 46.161329 
L 52.91663 46.514691 
L 54.683437 49.854599 
L 55.20392 50.824262 
L 55.263331 50.928358 
L 55.337166 51.059104 
L 57.507148 55.130645 
L 57.82652 55.695387 
L 58.220909 56.402882 
L 59.808089 59.437486 
L 60.377923 60.462416 
L 61.941084 63.365475 
L 63.491 66.473449 
L 65.351097 69.996474 
L 66.60101 72.616103 
L 69.075962 77.55057 
L 72.582663 84.315855 
L 74.734702 89.06459 
L 75.638479 91.944693 
L 80.178063 100.982163 
L 82.02404 109.394277 
L 83.59849 112.899735 
L 84.596202 116.546307 
L 84.970745 123.329524 
L 85.613397 127.200822 
L 85.674229 130.063081 
L 84.432084 134.36948 
L 84.159964 136.73488 
L 83.64025 138.783547 
L 78.518582 145.983163 
L 78.384753 146.215406 
L 78.326826 146.268938 
L 77.684549 146.769358 
L 68.315831 154.448374 
L 66.60101 155.115706 
L 55.06622 160.570025 
L 54.794008 160.680596 
L 54.683437 160.692595 
L 54.520047 160.733416 
L 42.765865 164.63066 
L 42.765865 160.570025 
M 424.128184 170.80382 
L 423.402815 171.762228 
L 421.96924 174.646541 
L 416.67143 184.40517 
L 415.224436 187.418994 
L 412.210612 196.722225 
L 409.24918 205.278883 
L 408.582857 208.240315 
L 407.745114 212.705812 
L 406.00973 220.157887 
L 405.032393 224.897241 
L 403.947503 232.07546 
L 400.293039 232.07546 
L 394.308994 232.07546 
L 395.357637 225.093289 
L 395.698105 220.157887 
L 396.283434 216.148283 
L 397.79653 208.240315 
L 400.293039 197.361303 
L 400.483795 196.513499 
L 400.685722 195.93006 
L 404.178092 184.40517 
L 406.21108 178.405638 
L 412.210612 166.946801 
L 414.327754 162.687168 
L 415.930109 160.570025 
L 419.229386 156.35876 
L 422.09637 152.200393 
L 424.128184 150.136222 
L 424.128184 153.419482 
L 424.128184 160.570025 
M 222.131661 232.07546 
L 219.237822 227.949794 
L 210.985114 220.157887 
L 210.227808 219.13134 
L 209.61188 218.569853 
L 206.921917 217.467924 
L 189.078485 216.856137 
L 185.776735 217.730129 
L 184.561867 218.94302 
L 179.489334 226.445288 
L 175.260584 232.07546 
L 173.859162 232.07546 
L 161.94159 232.07546 
L 159.68188 232.07546 
L 161.280815 220.818662 
L 161.312986 220.157887 
L 161.221872 219.43817 
L 161.94159 215.061781 
L 163.42215 208.240315 
L 165.500437 199.881589 
L 169.041566 196.322742 
L 175.288837 185.834845 
L 177.974944 184.40517 
L 185.776735 180.741815 
L 193.598724 180.309587 
L 197.694307 180.366227 
L 200.871058 181.228419 
L 208.928822 184.40517 
L 209.61188 184.686853 
L 214.336419 188.448509 
L 220.926337 196.322742 
L 222.803926 198.171143 
L 223.912967 199.772642 
L 228.461486 207.694042 
L 228.720212 208.139774 
L 228.764997 208.240315 
L 233.447024 218.251803 
L 233.840643 219.17384 
L 234.161974 220.157887 
L 238.542924 231.253284 
L 238.781576 232.07546 
L 238.214053 232.07546 
L 233.447024 232.07546 
L 228.679996 232.07546 
L 223.912967 232.07546 
" clip-path="url(#p7c9b61b921)" style="fill: #aed3e6"/>
   </g>
   <g id="PathCollection_8">
    <path d="M 42.765865 164.63066 
L 54.520047 160.733416 
L 54.683437 160.692595 
L 54.794008 160.680596 
L 55.06622 160.570025 
L 66.60101 155.115706 
L 68.315831 154.448374 
L 77.684549 146.769358 
L 78.326826 146.268938 
L 78.384753 146.215406 
L 78.518582 145.983163 
L 83.64025 138.783547 
L 84.159964 136.73488 
L 84.432084 134.36948 
L 85.674229 130.063081 
L 85.613397 127.200822 
L 84.970745 123.329524 
L 84.596202 116.546307 
L 83.59849 112.899735 
L 82.02404 109.394277 
L 80.178063 100.982163 
L 75.638479 91.944693 
L 74.734702 89.06459 
L 72.582663 84.315855 
L 69.075962 77.55057 
L 66.60101 72.616103 
L 65.351097 69.996474 
L 63.491 66.473449 
L 61.941084 63.365475 
L 60.377923 60.462416 
L 59.808089 59.437486 
L 58.220909 56.402882 
L 57.82652 55.695387 
L 57.507148 55.130645 
L 55.337166 51.059104 
L 55.263331 50.928358 
L 55.20392 50.824262 
L 54.683437 49.854599 
L 52.91663 46.514691 
L 52.735532 46.161329 
L 52.511262 45.726894 
L 50.641425 42.202703 
L 50.226166 41.3943 
L 54.683437 41.3943 
L 56.585131 41.3943 
L 56.827849 41.823183 
L 58.71516 45.354985 
L 59.176069 46.161329 
L 59.751324 47.174907 
L 61.079422 49.649161 
L 61.809495 50.928358 
L 62.716819 52.535035 
L 63.465109 53.939053 
L 64.458346 55.695387 
L 65.684886 57.895677 
L 65.858399 58.227424 
L 66.60101 59.563119 
L 67.122958 60.462416 
L 69.214835 64.183915 
L 70.870098 66.93708 
L 72.568116 69.996474 
L 74.272045 73.393704 
L 78.518582 81.586316 
L 81.583264 86.612845 
L 83.158611 89.06459 
L 88.217658 98.763665 
L 89.332024 100.982163 
L 89.530716 101.887601 
L 90.436155 103.90353 
L 95.134755 112.899735 
L 96.291929 116.536814 
L 100.32139 125.98142 
L 100.560517 127.200822 
L 100.578346 127.910974 
L 102.353727 136.213235 
L 102.489921 136.680403 
L 102.521498 136.73488 
L 102.553497 136.814788 
L 102.353727 138.89806 
L 101.879412 146.079212 
L 101.758079 146.268938 
L 101.047347 147.052766 
L 94.665468 155.95707 
L 90.436155 157.424234 
L 84.661317 160.570025 
L 80.341878 162.393321 
L 76.189587 162.899021 
L 66.60101 166.104393 
L 62.061659 167.948247 
L 54.683437 168.748967 
L 43.780617 171.472846 
L 42.765865 171.809299 
M 424.128184 150.136222 
L 422.09637 152.200393 
L 419.229386 156.35876 
L 415.930109 160.570025 
L 414.327754 162.687168 
L 412.210612 166.946801 
L 406.21108 178.405638 
L 404.178092 184.40517 
L 400.685722 195.93006 
L 400.483795 196.513499 
L 400.293039 197.361303 
L 397.79653 208.240315 
L 396.283434 216.148283 
L 395.698105 220.157887 
L 395.357637 225.093289 
L 394.308994 232.07546 
L 388.375467 232.07546 
L 384.532387 232.07546 
L 384.601877 228.30187 
L 385.163688 220.157887 
L 386.651815 209.963967 
L 386.749158 208.240315 
L 386.881584 206.746432 
L 388.375467 199.225824 
L 390.641999 186.671703 
L 391.348824 184.40517 
L 392.94091 179.839726 
L 396.11756 168.312119 
L 399.810985 160.570025 
L 400.293039 159.579451 
L 402.557155 154.777951 
L 405.822266 150.101945 
L 408.053863 146.268938 
L 408.829985 144.916687 
L 412.210612 140.904754 
L 414.833533 137.784049 
L 416.062039 136.73488 
L 419.370801 133.870804 
L 422.085283 131.15069 
L 424.128184 129.71253 
L 424.128184 131.967851 
L 424.128184 136.73488 
L 424.128184 141.501909 
L 424.128184 146.268938 
M 238.781576 232.07546 
L 238.542924 231.253284 
L 234.161974 220.157887 
L 233.840643 219.17384 
L 233.447024 218.251803 
L 228.764997 208.240315 
L 228.720212 208.139774 
L 228.461486 207.694042 
L 223.912967 199.772642 
L 222.803926 198.171143 
L 220.926337 196.322742 
L 214.336419 188.448509 
L 209.61188 184.686853 
L 208.928822 184.40517 
L 200.871058 181.228419 
L 197.694307 180.366227 
L 193.598724 180.309587 
L 185.776735 180.741815 
L 177.974944 184.40517 
L 175.288837 185.834845 
L 169.041566 196.322742 
L 165.500437 199.881589 
L 163.42215 208.240315 
L 161.94159 215.061781 
L 161.221872 219.43817 
L 161.312986 220.157887 
L 161.280815 220.818662 
L 159.68188 232.07546 
L 150.024017 232.07546 
L 147.994631 232.07546 
L 147.510121 229.561564 
L 147.96796 220.157887 
L 146.859809 211.404524 
L 145.950999 208.240315 
L 144.638973 202.855271 
L 144.932348 189.496839 
L 143.552805 184.40517 
L 143.238231 177.619384 
L 150.024017 168.948831 
L 153.037442 163.583449 
L 158.791554 160.570025 
L 161.94159 159.233985 
L 167.855234 156.967668 
L 173.859162 155.45305 
L 184.792008 152.828645 
L 185.776735 152.613151 
L 187.448085 152.416671 
L 197.694307 151.731983 
L 209.045842 153.079859 
L 209.61188 153.108017 
L 209.861396 153.169965 
L 216.762423 155.979751 
L 219.627082 157.705366 
L 223.068547 160.570025 
L 223.912967 161.262748 
L 227.119033 164.472433 
L 232.50542 172.487597 
L 233.113666 173.320993 
L 233.447024 173.953569 
L 236.889504 181.093796 
L 238.34981 184.065779 
L 238.468312 184.40517 
L 241.107853 191.639669 
L 242.828994 196.322742 
L 242.905703 196.511192 
L 242.981082 196.757062 
L 246.292837 208.240315 
L 247.580474 212.492235 
L 249.121431 220.157887 
L 251.472007 229.841492 
L 251.785266 232.07546 
L 250.131626 232.07546 
L 242.981082 232.07546 
" clip-path="url(#p7c9b61b921)" style="fill: #d4e6f1"/>
   </g>
   <g id="PathCollection_9">
    <path d="M 42.765865 171.809299 
L 43.780617 171.472846 
L 54.683437 168.748967 
L 62.061659 167.948247 
L 66.60101 166.104393 
L 76.189587 162.899021 
L 80.341878 162.393321 
L 84.661317 160.570025 
L 90.436155 157.424234 
L 94.665468 155.95707 
L 101.047347 147.052766 
L 101.758079 146.268938 
L 101.879412 146.079212 
L 102.353727 138.89806 
L 102.553497 136.814788 
L 102.521498 136.73488 
L 102.489921 136.680403 
L 102.353727 136.213235 
L 100.578346 127.910974 
L 100.560517 127.200822 
L 100.32139 125.98142 
L 96.291929 116.536814 
L 95.134755 112.899735 
L 90.436155 103.90353 
L 89.530716 101.887601 
L 89.332024 100.982163 
L 88.217658 98.763665 
L 83.158611 89.06459 
L 81.583264 86.612845 
L 78.518582 81.586316 
L 74.272045 73.393704 
L 72.568116 69.996474 
L 70.870098 66.93708 
L 69.214835 64.183915 
L 67.122958 60.462416 
L 66.60101 59.563119 
L 65.858399 58.227424 
L 65.684886 57.895677 
L 64.458346 55.695387 
L 63.465109 53.939053 
L 62.716819 52.535035 
L 61.809495 50.928358 
L 61.079422 49.649161 
L 59.751324 47.174907 
L 59.176069 46.161329 
L 58.71516 45.354985 
L 56.827849 41.823183 
L 56.585131 41.3943 
L 62.957993 41.3943 
L 64.014093 43.260431 
L 64.513657 44.195285 
L 65.637454 46.161329 
L 66.60101 47.85908 
L 66.960542 48.472937 
L 67.064658 48.637573 
L 68.420056 50.928358 
L 69.478547 52.736365 
L 70.306394 54.05295 
L 71.27306 55.695387 
L 72.026359 56.993832 
L 73.566526 59.472005 
L 74.141357 60.462416 
L 74.944877 61.891898 
L 78.518582 67.835969 
L 79.65313 69.542655 
L 79.974294 69.996474 
L 81.60321 72.464176 
L 87.394955 81.963492 
L 90.436155 86.696573 
L 92.195234 89.06459 
L 96.016665 95.401652 
L 102.353727 105.733418 
L 105.806165 109.447297 
L 109.102688 112.899735 
L 114.2713 119.699507 
L 114.497213 119.914731 
L 115.630475 120.865784 
L 122.474303 127.200822 
L 123.406123 128.313922 
L 126.188872 130.722164 
L 133.290038 133.894414 
L 138.106445 135.499113 
L 149.24146 136.421857 
L 150.024017 136.523892 
L 150.704157 136.462824 
L 161.94159 135.441952 
L 167.825276 134.321326 
L 173.859162 133.163599 
L 182.941834 130.833891 
L 185.776735 129.946696 
L 194.903618 127.200822 
L 196.773743 126.648483 
L 197.694307 126.193609 
L 202.479694 124.32959 
L 209.61188 121.985721 
L 211.298142 121.736541 
L 217.288446 120.050279 
L 222.080069 118.217381 
L 223.912967 117.015712 
L 226.56384 116.073969 
L 231.039711 116.439308 
L 233.447024 115.880368 
L 235.960658 116.279828 
L 238.89901 120.050279 
L 241.636543 122.067088 
L 242.981082 125.072534 
L 243.757814 127.200822 
L 245.27544 130.43828 
L 245.998337 133.979354 
L 247.102713 136.73488 
L 247.810779 138.282111 
L 249.752682 146.016309 
L 249.853472 146.268938 
L 249.939116 146.461448 
L 250.131626 147.154962 
L 252.810083 157.891568 
L 253.181634 160.570025 
L 254.517175 167.879274 
L 255.603951 172.487597 
L 256.159233 174.359158 
L 257.282169 180.965566 
L 257.863846 184.40517 
L 259.669387 193.935525 
L 260.037513 199.078086 
L 261.540058 208.240315 
L 262.642556 214.797501 
L 263.18366 226.059378 
L 264.024112 232.07546 
L 257.282169 232.07546 
L 251.785266 232.07546 
L 251.472007 229.841492 
L 249.121431 220.157887 
L 247.580474 212.492235 
L 246.292837 208.240315 
L 242.981082 196.757062 
L 242.905703 196.511192 
L 242.828994 196.322742 
L 241.107853 191.639669 
L 238.468312 184.40517 
L 238.34981 184.065779 
L 236.889504 181.093796 
L 233.447024 173.953569 
L 233.113666 173.320993 
L 232.50542 172.487597 
L 227.119033 164.472433 
L 223.912967 161.262748 
L 223.068547 160.570025 
L 219.627082 157.705366 
L 216.762423 155.979751 
L 209.861396 153.169965 
L 209.61188 153.108017 
L 209.045842 153.079859 
L 197.694307 151.731983 
L 187.448085 152.416671 
L 185.776735 152.613151 
L 184.792008 152.828645 
L 173.859162 155.45305 
L 167.855234 156.967668 
L 161.94159 159.233985 
L 158.791554 160.570025 
L 153.037442 163.583449 
L 150.024017 168.948831 
L 143.238231 177.619384 
L 143.552805 184.40517 
L 144.932348 189.496839 
L 144.638973 202.855271 
L 145.950999 208.240315 
L 146.859809 211.404524 
L 147.96796 220.157887 
L 147.510121 229.561564 
L 147.994631 232.07546 
L 138.106445 232.07546 
L 137.752552 232.07546 
L 136.010955 222.253377 
L 133.043145 215.094588 
L 131.208929 208.240315 
L 130.280184 204.149003 
L 125.43809 196.322742 
L 121.813301 188.780741 
L 116.39072 184.40517 
L 114.2713 182.217266 
L 109.062906 177.695992 
L 93.678534 175.729977 
L 90.436155 174.712417 
L 88.578979 174.344773 
L 70.201379 176.087966 
L 66.60101 175.874308 
L 63.208444 175.880164 
L 54.683437 176.805339 
L 48.602758 178.32449 
L 42.765865 178.48873 
L 42.765865 172.487597 
M 424.128184 129.71253 
L 422.085283 131.15069 
L 419.370801 133.870804 
L 416.062039 136.73488 
L 414.833533 137.784049 
L 412.210612 140.904754 
L 408.829985 144.916687 
L 408.053863 146.268938 
L 405.822266 150.101945 
L 402.557155 154.777951 
L 400.293039 159.579451 
L 399.810985 160.570025 
L 396.11756 168.312119 
L 392.94091 179.839726 
L 391.348824 184.40517 
L 390.641999 186.671703 
L 388.375467 199.225824 
L 386.881584 206.746432 
L 386.749158 208.240315 
L 386.651815 209.963967 
L 385.163688 220.157887 
L 384.601877 228.30187 
L 384.532387 232.07546 
L 376.457894 232.07546 
L 374.288592 232.07546 
L 374.491242 222.12454 
L 374.167789 220.157887 
L 374.330219 218.030212 
L 374.949317 208.240315 
L 376.096395 196.684241 
L 376.068486 196.322742 
L 376.117851 195.982699 
L 376.457894 193.720332 
L 377.697664 184.40517 
L 379.090413 175.120117 
L 381.346378 167.599113 
L 382.738143 160.570025 
L 383.314392 157.53338 
L 387.443796 146.82794 
L 387.566976 146.268938 
L 387.627492 145.969748 
L 388.375467 144.300764 
L 391.067195 137.811571 
L 391.821261 136.73488 
L 393.1178 134.837947 
L 395.384777 130.004546 
L 397.721307 127.200822 
L 400.293039 123.972783 
L 402.346512 121.282363 
L 412.210612 113.403496 
L 412.579259 113.120923 
L 413.038623 112.899735 
L 424.128184 107.116571 
L 424.128184 112.899735 
L 424.128184 120.050279 
L 424.128184 127.200822 
M 255.340527 66.523873 
L 253.187744 69.996474 
L 250.75507 70.827733 
L 249.490146 70.851782 
L 245.097794 69.996474 
L 242.981082 68.616236 
L 242.179443 66.031085 
L 242.016713 65.229445 
L 238.214053 60.462416 
L 242.981082 60.462416 
L 250.131626 60.462416 
" clip-path="url(#p7c9b61b921)" style="fill: #ecf2f5"/>
   </g>
   <g id="PathCollection_10">
    <path d="M 42.765865 178.48873 
L 48.602758 178.32449 
L 54.683437 176.805339 
L 63.208444 175.880164 
L 66.60101 175.874308 
L 70.201379 176.087966 
L 88.578979 174.344773 
L 90.436155 174.712417 
L 93.678534 175.729977 
L 109.062906 177.695992 
L 114.2713 182.217266 
L 116.39072 184.40517 
L 121.813301 188.780741 
L 125.43809 196.322742 
L 130.280184 204.149003 
L 131.208929 208.240315 
L 133.043145 215.094588 
L 136.010955 222.253377 
L 137.752552 232.07546 
L 128.301497 232.07546 
L 127.983316 230.281016 
L 126.188872 225.952557 
L 121.013426 213.415761 
L 117.056207 208.240315 
L 114.2713 204.332518 
L 110.825766 199.768277 
L 105.274936 196.322742 
L 96.851951 189.906946 
L 90.436155 188.12538 
L 80.498062 186.384649 
L 77.456173 185.467579 
L 66.60101 184.864513 
L 55.161267 184.882999 
L 54.683437 184.818529 
L 54.307753 184.780854 
L 42.765865 185.096836 
L 42.765865 184.40517 
M 69.403398 41.3943 
L 70.352273 43.027562 
L 71.439428 44.745498 
L 72.274593 46.161329 
L 72.929311 47.279184 
L 74.761922 50.177026 
L 75.206466 50.928358 
L 75.55363 51.521349 
L 78.129236 55.617518 
L 78.175066 55.695387 
L 78.210781 55.756948 
L 78.518582 56.252209 
L 81.039937 59.958145 
L 81.406497 60.462416 
L 82.547535 62.073997 
L 85.861579 67.059276 
L 87.940209 69.996474 
L 90.436155 73.777669 
L 93.168031 77.345031 
L 102.353727 89.047953 
L 102.363279 89.056949 
L 102.37147 89.06459 
L 102.662268 89.373131 
L 113.84778 101.405682 
L 114.2713 101.849233 
L 117.860127 104.57099 
L 126.188872 111.214707 
L 127.436904 111.651704 
L 130.544011 112.899735 
L 138.106445 116.351316 
L 142.903229 117.172208 
L 150.024017 118.489896 
L 158.202697 117.806943 
L 161.94159 117.530371 
L 169.448859 115.545917 
L 173.859162 114.546895 
L 175.599994 113.944234 
L 177.776549 112.899735 
L 185.776735 109.071073 
L 191.123468 106.328896 
L 196.99745 100.982163 
L 203.084373 94.454657 
L 205.41504 89.06459 
L 208.278521 80.597219 
L 209.059558 79.088675 
L 209.61188 75.926532 
L 210.835343 69.996474 
L 211.497087 66.48625 
L 211.589616 63.910955 
L 212.133801 60.462416 
L 212.37286 58.999229 
L 212.467029 57.127185 
L 212.682407 55.695387 
L 212.881686 54.401808 
L 213.002527 52.181657 
L 213.179082 50.928358 
L 213.335049 49.7859 
L 213.43294 47.271157 
L 213.565189 46.161329 
L 213.673775 45.13178 
L 213.667172 42.426051 
L 213.753793 41.3943 
L 216.762423 41.3943 
L 223.912967 41.3943 
L 228.679996 41.3943 
L 233.447024 41.3943 
L 238.214053 41.3943 
L 242.981082 41.3943 
L 250.131626 41.3943 
L 257.282169 41.3943 
L 269.199742 41.3943 
L 281.117314 41.3943 
L 293.034887 41.3943 
L 304.952459 41.3943 
L 312.103003 41.3943 
L 319.253546 41.3943 
L 324.020575 41.3943 
L 328.787604 41.3943 
L 333.554633 41.3943 
L 338.321662 41.3943 
L 345.472206 41.3943 
L 352.622749 41.3943 
L 364.540322 41.3943 
L 376.457894 41.3943 
L 381.848536 41.3943 
L 382.037784 42.661837 
L 382.885893 45.063415 
L 383.057182 46.161329 
L 383.214047 47.193613 
L 384.284358 50.110137 
L 384.413391 50.928358 
L 384.529554 51.697541 
L 385.888006 55.197895 
L 385.965608 55.695387 
L 386.033274 56.163826 
L 387.791063 60.345535 
L 387.808426 60.462416 
L 387.834629 60.678751 
L 388.375467 61.736848 
L 392.494156 68.348998 
L 394.715492 69.996474 
L 400.293039 73.830598 
L 404.556689 76.119612 
L 412.210612 76.700327 
L 422.730612 78.412474 
L 424.128184 78.79376 
L 424.128184 79.530532 
L 424.128184 89.06459 
L 424.128184 100.982163 
L 424.128184 107.116571 
L 413.038623 112.899735 
L 412.579259 113.120923 
L 412.210612 113.403496 
L 402.346512 121.282363 
L 400.293039 123.972783 
L 397.721307 127.200822 
L 395.384777 130.004546 
L 393.1178 134.837947 
L 391.821261 136.73488 
L 391.067195 137.811571 
L 388.375467 144.300764 
L 387.627492 145.969748 
L 387.566976 146.268938 
L 387.443796 146.82794 
L 383.314392 157.53338 
L 382.738143 160.570025 
L 381.346378 167.599113 
L 379.090413 175.120117 
L 377.697664 184.40517 
L 376.457894 193.720332 
L 376.117851 195.982699 
L 376.068486 196.322742 
L 376.096395 196.684241 
L 374.949317 208.240315 
L 374.330219 218.030212 
L 374.167789 220.157887 
L 374.491242 222.12454 
L 374.288592 232.07546 
L 364.540322 232.07546 
L 362.916763 232.07546 
L 362.618899 230.154038 
L 360.974847 220.157887 
L 361.665159 211.115478 
L 361.355583 208.240315 
L 361.140566 204.840559 
L 360.482961 196.322742 
L 361.817822 187.12767 
L 361.681361 184.40517 
L 361.537257 181.402106 
L 361.248262 172.487597 
L 362.956075 162.154272 
L 362.817134 160.570025 
L 362.681366 159.454652 
L 363.294464 147.016453 
L 363.145826 146.268938 
L 362.999239 145.652505 
L 362.931286 137.378494 
L 362.713787 136.73488 
L 362.386897 135.87351 
L 361.669743 128.349054 
L 361.021402 127.200822 
L 358.881599 123.805588 
L 356.929277 117.466362 
L 352.622749 114.487444 
L 348.669458 112.899735 
L 346.044897 111.94525 
L 344.967919 112.059257 
L 338.321662 111.281442 
L 334.222048 111.231198 
L 332.97213 111.443477 
L 328.787604 111.708042 
L 324.263498 112.292428 
L 323.81519 112.386271 
L 321.145153 112.899735 
L 319.253546 113.275185 
L 313.976876 114.773608 
L 312.103003 115.376419 
L 307.917998 117.08474 
L 304.952459 118.257404 
L 303.352843 119.090509 
L 293.034887 126.559004 
L 292.599366 126.939509 
L 292.410844 127.200822 
L 292.182136 127.541922 
L 286.768258 134.228228 
L 285.451796 136.73488 
L 283.648709 140.489351 
L 282.657475 142.117973 
L 281.117314 146.238222 
L 281.107427 146.268938 
L 279.412012 152.3963 
L 279.291294 154.515094 
L 278.192757 160.570025 
L 277.171803 168.542086 
L 277.374285 172.487597 
L 277.469518 176.135394 
L 277.002399 184.40517 
L 276.765802 191.97123 
L 277.385573 200.054484 
L 277.207854 208.240315 
L 276.916785 215.957358 
L 277.338337 223.936865 
L 276.801126 232.07546 
L 269.199742 232.07546 
L 264.024112 232.07546 
L 263.18366 226.059378 
L 262.642556 214.797501 
L 261.540058 208.240315 
L 260.037513 199.078086 
L 259.669387 193.935525 
L 257.863846 184.40517 
L 257.282169 180.965566 
L 256.159233 174.359158 
L 255.603951 172.487597 
L 254.517175 167.879274 
L 253.181634 160.570025 
L 252.810083 157.891568 
L 250.131626 147.154962 
L 249.939116 146.461448 
L 249.853472 146.268938 
L 249.752682 146.016309 
L 247.810779 138.282111 
L 247.102713 136.73488 
L 245.998337 133.979354 
L 245.27544 130.43828 
L 243.757814 127.200822 
L 242.981082 125.072534 
L 241.636543 122.067088 
L 238.89901 120.050279 
L 235.960658 116.279828 
L 233.447024 115.880368 
L 231.039711 116.439308 
L 226.56384 116.073969 
L 223.912967 117.015712 
L 222.080069 118.217381 
L 217.288446 120.050279 
L 211.298142 121.736541 
L 209.61188 121.985721 
L 202.479694 124.32959 
L 197.694307 126.193609 
L 196.773743 126.648483 
L 194.903618 127.200822 
L 185.776735 129.946696 
L 182.941834 130.833891 
L 173.859162 133.163599 
L 167.825276 134.321326 
L 161.94159 135.441952 
L 150.704157 136.462824 
L 150.024017 136.523892 
L 149.24146 136.421857 
L 138.106445 135.499113 
L 133.290038 133.894414 
L 126.188872 130.722164 
L 123.406123 128.313922 
L 122.474303 127.200822 
L 115.630475 120.865784 
L 114.497213 119.914731 
L 114.2713 119.699507 
L 109.102688 112.899735 
L 105.806165 109.447297 
L 102.353727 105.733418 
L 96.016665 95.401652 
L 92.195234 89.06459 
L 90.436155 86.696573 
L 87.394955 81.963492 
L 81.60321 72.464176 
L 79.974294 69.996474 
L 79.65313 69.542655 
L 78.518582 67.835969 
L 74.944877 61.891898 
L 74.141357 60.462416 
L 73.566526 59.472005 
L 72.026359 56.993832 
L 71.27306 55.695387 
L 70.306394 54.05295 
L 69.478547 52.736365 
L 68.420056 50.928358 
L 67.064658 48.637573 
L 66.960542 48.472937 
L 66.60101 47.85908 
L 65.637454 46.161329 
L 64.513657 44.195285 
L 64.014093 43.260431 
L 62.957993 41.3943 
L 66.60101 41.3943 
M 250.131626 60.462416 
L 242.981082 60.462416 
L 238.214053 60.462416 
L 242.016713 65.229445 
L 242.179443 66.031085 
L 242.981082 68.616236 
L 245.097794 69.996474 
L 249.490146 70.851782 
L 250.75507 70.827733 
L 253.187744 69.996474 
L 255.340527 66.523873 
" clip-path="url(#p7c9b61b921)" style="fill: #f9eee7"/>
   </g>
   <g id="PathCollection_11">
    <path d="M 42.765865 185.096836 
L 54.307753 184.780854 
L 54.683437 184.818529 
L 55.161267 184.882999 
L 66.60101 184.864513 
L 77.456173 185.467579 
L 80.498062 186.384649 
L 90.436155 188.12538 
L 96.851951 189.906946 
L 105.274936 196.322742 
L 110.825766 199.768277 
L 114.2713 204.332518 
L 117.056207 208.240315 
L 121.013426 213.415761 
L 126.188872 225.952557 
L 127.983316 230.281016 
L 128.301497 232.07546 
L 126.188872 232.07546 
L 119.014794 232.07546 
L 114.2713 222.957303 
L 113.291671 221.137516 
L 102.353727 208.324237 
L 102.312467 208.281575 
L 102.250236 208.240315 
L 90.436155 200.130964 
L 88.025112 198.733786 
L 78.921619 196.322742 
L 69.455008 193.468744 
L 66.60101 193.310188 
L 63.593316 193.315049 
L 54.683437 192.112894 
L 47.678217 191.41039 
L 42.765865 191.544876 
M 75.945612 41.3943 
L 76.213454 41.855326 
L 78.518582 45.497919 
L 78.919697 46.081106 
L 78.979497 46.161329 
L 79.059014 46.269416 
L 81.815728 50.268929 
L 82.304202 50.928358 
L 82.952512 51.815144 
L 84.760334 54.447037 
L 85.677485 55.695387 
L 86.890621 57.369795 
L 87.739943 58.618144 
L 89.080564 60.462416 
L 90.436155 62.377029 
L 92.200083 64.523874 
L 94.05752 66.677991 
L 96.782048 69.996474 
L 98.898718 72.760482 
L 102.353727 77.162294 
L 109.187327 83.597711 
L 114.2713 88.340545 
L 115.363818 89.06459 
L 121.536359 93.717104 
L 126.188872 97.428345 
L 137.647897 101.44071 
L 138.106445 101.624895 
L 138.863142 101.73886 
L 150.024017 103.787617 
L 160.899051 102.024701 
L 161.94159 101.952513 
L 162.719465 101.760038 
L 164.192925 100.982163 
L 179.222668 94.428096 
L 184.882824 89.06459 
L 185.776735 88.203059 
L 190.421214 83.246116 
L 196.195435 71.195572 
L 196.927318 69.996474 
L 197.07781 69.749875 
L 197.694307 67.979516 
L 200.083793 61.418211 
L 200.212323 60.462416 
L 200.284447 59.944388 
L 201.4184 56.440206 
L 201.513375 55.695387 
L 201.615796 54.911089 
L 202.522171 51.893931 
L 202.636494 50.928358 
L 202.752572 49.916705 
L 203.476914 47.317851 
L 203.591629 46.161329 
L 203.697027 44.960785 
L 204.271927 42.709824 
L 204.363294 41.3943 
L 209.61188 41.3943 
L 213.753793 41.3943 
L 213.667172 42.426051 
L 213.673775 45.13178 
L 213.565189 46.161329 
L 213.43294 47.271157 
L 213.335049 49.7859 
L 213.179082 50.928358 
L 213.002527 52.181657 
L 212.881686 54.401808 
L 212.682407 55.695387 
L 212.467029 57.127185 
L 212.37286 58.999229 
L 212.133801 60.462416 
L 211.589616 63.910955 
L 211.497087 66.48625 
L 210.835343 69.996474 
L 209.61188 75.926532 
L 209.059558 79.088675 
L 208.278521 80.597219 
L 205.41504 89.06459 
L 203.084373 94.454657 
L 196.99745 100.982163 
L 191.123468 106.328896 
L 185.776735 109.071073 
L 177.776549 112.899735 
L 175.599994 113.944234 
L 173.859162 114.546895 
L 169.448859 115.545917 
L 161.94159 117.530371 
L 158.202697 117.806943 
L 150.024017 118.489896 
L 142.903229 117.172208 
L 138.106445 116.351316 
L 130.544011 112.899735 
L 127.436904 111.651704 
L 126.188872 111.214707 
L 117.860127 104.57099 
L 114.2713 101.849233 
L 113.84778 101.405682 
L 102.662268 89.373131 
L 102.37147 89.06459 
L 102.363279 89.056949 
L 102.353727 89.047953 
L 93.168031 77.345031 
L 90.436155 73.777669 
L 87.940209 69.996474 
L 85.861579 67.059276 
L 82.547535 62.073997 
L 81.406497 60.462416 
L 81.039937 59.958145 
L 78.518582 56.252209 
L 78.210781 55.756948 
L 78.175066 55.695387 
L 78.129236 55.617518 
L 75.55363 51.521349 
L 75.206466 50.928358 
L 74.761922 50.177026 
L 72.929311 47.279184 
L 72.274593 46.161329 
L 71.439428 44.745498 
L 70.352273 43.027562 
L 69.403398 41.3943 
M 424.128184 78.79376 
L 422.730612 78.412474 
L 412.210612 76.700327 
L 404.556689 76.119612 
L 400.293039 73.830598 
L 394.715492 69.996474 
L 392.494156 68.348998 
L 388.375467 61.736848 
L 387.834629 60.678751 
L 387.808426 60.462416 
L 387.791063 60.345535 
L 386.033274 56.163826 
L 385.965608 55.695387 
L 385.888006 55.197895 
L 384.529554 51.697541 
L 384.413391 50.928358 
L 384.284358 50.110137 
L 383.214047 47.193613 
L 383.057182 46.161329 
L 382.885893 45.063415 
L 382.037784 42.661837 
L 381.848536 41.3943 
L 388.375467 41.3943 
L 400.293039 41.3943 
L 412.210612 41.3943 
L 424.128184 41.3943 
L 424.128184 43.777815 
L 424.128184 46.161329 
L 424.128184 48.544844 
L 424.128184 50.928358 
L 424.128184 53.311873 
L 424.128184 55.695387 
L 424.128184 58.078902 
L 424.128184 60.462416 
L 424.128184 65.229445 
L 424.128184 69.996474 
M 348.75658 232.07546 
L 347.94591 227.952619 
L 344.950477 220.157887 
L 343.852098 210.940494 
L 343.043265 208.240315 
L 341.579828 201.753019 
L 340.260483 196.322742 
L 340.099192 193.360193 
L 338.321662 185.985479 
L 337.798186 184.40517 
L 335.820165 178.74134 
L 331.880344 172.487597 
L 330.054078 169.321412 
L 328.787604 168.177569 
L 326.6888 167.240588 
L 322.007643 165.602356 
L 319.253546 165.634247 
L 316.127596 167.27768 
L 311.373761 172.487597 
L 307.089781 176.0498 
L 304.952459 179.672209 
L 303.317479 184.40517 
L 300.894539 192.264822 
L 300.986602 196.322742 
L 299.011138 202.264064 
L 297.432681 208.240315 
L 296.356141 211.561569 
L 296.489812 220.157887 
L 291.944135 230.984708 
L 291.856975 232.07546 
L 281.117314 232.07546 
L 276.801126 232.07546 
L 277.338337 223.936865 
L 276.916785 215.957358 
L 277.207854 208.240315 
L 277.385573 200.054484 
L 276.765802 191.97123 
L 277.002399 184.40517 
L 277.469518 176.135394 
L 277.374285 172.487597 
L 277.171803 168.542086 
L 278.192757 160.570025 
L 279.291294 154.515094 
L 279.412012 152.3963 
L 281.107427 146.268938 
L 281.117314 146.238222 
L 282.657475 142.117973 
L 283.648709 140.489351 
L 285.451796 136.73488 
L 286.768258 134.228228 
L 292.182136 127.541922 
L 292.410844 127.200822 
L 292.599366 126.939509 
L 293.034887 126.559004 
L 303.352843 119.090509 
L 304.952459 118.257404 
L 307.917998 117.08474 
L 312.103003 115.376419 
L 313.976876 114.773608 
L 319.253546 113.275185 
L 321.145153 112.899735 
L 323.81519 112.386271 
L 324.263498 112.292428 
L 328.787604 111.708042 
L 332.97213 111.443477 
L 334.222048 111.231198 
L 338.321662 111.281442 
L 344.967919 112.059257 
L 346.044897 111.94525 
L 348.669458 112.899735 
L 352.622749 114.487444 
L 356.929277 117.466362 
L 358.881599 123.805588 
L 361.021402 127.200822 
L 361.669743 128.349054 
L 362.386897 135.87351 
L 362.713787 136.73488 
L 362.931286 137.378494 
L 362.999239 145.652505 
L 363.145826 146.268938 
L 363.294464 147.016453 
L 362.681366 159.454652 
L 362.817134 160.570025 
L 362.956075 162.154272 
L 361.248262 172.487597 
L 361.537257 181.402106 
L 361.681361 184.40517 
L 361.817822 187.12767 
L 360.482961 196.322742 
L 361.140566 204.840559 
L 361.355583 208.240315 
L 361.665159 211.115478 
L 360.974847 220.157887 
L 362.618899 230.154038 
L 362.916763 232.07546 
L 352.622749 232.07546 
" clip-path="url(#p7c9b61b921)" style="fill: #fddcc9"/>
   </g>
   <g id="PathCollection_12">
    <path d="M 42.765865 191.544876 
L 47.678217 191.41039 
L 54.683437 192.112894 
L 63.593316 193.315049 
L 66.60101 193.310188 
L 69.455008 193.468744 
L 78.921619 196.322742 
L 88.025112 198.733786 
L 90.436155 200.130964 
L 102.250236 208.240315 
L 102.312467 208.281575 
L 102.353727 208.324237 
L 113.291671 221.137516 
L 114.2713 222.957303 
L 119.014794 232.07546 
L 114.2713 232.07546 
L 109.619023 232.07546 
L 107.076603 227.352584 
L 102.353727 221.819961 
L 95.677362 214.916681 
L 90.436155 211.441692 
L 84.71671 208.240315 
L 80.792581 205.966316 
L 74.606108 204.32784 
L 66.60101 201.588979 
L 62.466388 200.457364 
L 54.683437 199.407259 
L 44.865845 198.422722 
L 42.765865 198.010431 
L 42.765865 196.322742 
M 82.821107 41.3943 
L 83.567184 42.404021 
L 85.228445 44.819357 
L 86.228784 46.161329 
L 87.55896 47.969405 
L 88.256113 48.980852 
L 89.698732 50.928358 
L 90.436155 51.937036 
L 91.435075 53.112089 
L 91.871038 53.598849 
L 93.660797 55.695387 
L 94.91351 57.183431 
L 96.837961 59.359263 
L 97.768532 60.462416 
L 98.902722 61.842818 
L 102.353727 65.84504 
L 105.546681 68.719293 
L 106.99217 69.996474 
L 114.2713 76.762152 
L 116.202535 77.985544 
L 126.188872 84.683397 
L 130.118649 85.920769 
L 138.106445 88.885694 
L 140.237424 89.06459 
L 149.207899 89.880709 
L 150.024017 90.03052 
L 150.855206 89.895779 
L 154.740688 89.06459 
L 161.94159 87.585828 
L 168.350915 84.657993 
L 173.859162 80.899615 
L 180.180009 75.053152 
L 183.603118 69.996474 
L 185.776735 66.785085 
L 186.539819 65.534679 
L 186.786808 64.825416 
L 189.045476 60.462416 
L 189.865918 58.896738 
L 190.405813 57.153086 
L 191.11653 55.695387 
L 191.706299 54.497786 
L 192.42666 51.981888 
L 192.911338 50.928358 
L 193.317714 50.05304 
L 194.158826 46.868425 
L 194.466894 46.161329 
L 194.728047 45.568077 
L 195.63401 41.80636 
L 195.804707 41.3943 
L 197.694307 41.3943 
L 204.363294 41.3943 
L 204.271927 42.709824 
L 203.697027 44.960785 
L 203.591629 46.161329 
L 203.476914 47.317851 
L 202.752572 49.916705 
L 202.636494 50.928358 
L 202.522171 51.893931 
L 201.615796 54.911089 
L 201.513375 55.695387 
L 201.4184 56.440206 
L 200.284447 59.944388 
L 200.212323 60.462416 
L 200.083793 61.418211 
L 197.694307 67.979516 
L 197.07781 69.749875 
L 196.927318 69.996474 
L 196.195435 71.195572 
L 190.421214 83.246116 
L 185.776735 88.203059 
L 184.882824 89.06459 
L 179.222668 94.428096 
L 164.192925 100.982163 
L 162.719465 101.760038 
L 161.94159 101.952513 
L 160.899051 102.024701 
L 150.024017 103.787617 
L 138.863142 101.73886 
L 138.106445 101.624895 
L 137.647897 101.44071 
L 126.188872 97.428345 
L 121.536359 93.717104 
L 115.363818 89.06459 
L 114.2713 88.340545 
L 109.187327 83.597711 
L 102.353727 77.162294 
L 98.898718 72.760482 
L 96.782048 69.996474 
L 94.05752 66.677991 
L 92.200083 64.523874 
L 90.436155 62.377029 
L 89.080564 60.462416 
L 87.739943 58.618144 
L 86.890621 57.369795 
L 85.677485 55.695387 
L 84.760334 54.447037 
L 82.952512 51.815144 
L 82.304202 50.928358 
L 81.815728 50.268929 
L 79.059014 46.269416 
L 78.979497 46.161329 
L 78.919697 46.081106 
L 78.518582 45.497919 
L 76.213454 41.855326 
L 75.945612 41.3943 
L 78.518582 41.3943 
M 291.856975 232.07546 
L 291.944135 230.984708 
L 296.489812 220.157887 
L 296.356141 211.561569 
L 297.432681 208.240315 
L 299.011138 202.264064 
L 300.986602 196.322742 
L 300.894539 192.264822 
L 303.317479 184.40517 
L 304.952459 179.672209 
L 307.089781 176.0498 
L 311.373761 172.487597 
L 316.127596 167.27768 
L 319.253546 165.634247 
L 322.007643 165.602356 
L 326.6888 167.240588 
L 328.787604 168.177569 
L 330.054078 169.321412 
L 331.880344 172.487597 
L 335.820165 178.74134 
L 337.798186 184.40517 
L 338.321662 185.985479 
L 340.099192 193.360193 
L 340.260483 196.322742 
L 341.579828 201.753019 
L 343.043265 208.240315 
L 343.852098 210.940494 
L 344.950477 220.157887 
L 347.94591 227.952619 
L 348.75658 232.07546 
L 345.472206 232.07546 
L 338.321662 232.07546 
L 333.554633 232.07546 
L 328.787604 232.07546 
L 324.020575 232.07546 
L 319.253546 232.07546 
L 312.103003 232.07546 
L 304.952459 232.07546 
L 293.034887 232.07546 
" clip-path="url(#p7c9b61b921)" style="fill: #f8bb9e"/>
   </g>
   <g id="PathCollection_13">
    <path d="M 42.765865 198.010431 
L 44.865845 198.422722 
L 54.683437 199.407259 
L 62.466388 200.457364 
L 66.60101 201.588979 
L 74.606108 204.32784 
L 80.792581 205.966316 
L 84.71671 208.240315 
L 90.436155 211.441692 
L 95.677362 214.916681 
L 102.353727 221.819961 
L 107.076603 227.352584 
L 109.619023 232.07546 
L 102.353727 232.07546 
L 99.862486 232.07546 
L 90.436155 222.396196 
L 89.254172 221.33987 
L 78.518582 214.54067 
L 74.340085 212.418813 
L 66.60101 209.77367 
L 60.992814 208.240315 
L 56.039204 206.884549 
L 54.683437 206.701623 
L 52.973243 206.53012 
L 42.765865 204.526096 
M 89.912642 41.3943 
L 90.436155 42.102808 
L 91.665325 43.531981 
L 92.21693 44.13397 
L 93.975101 46.161329 
L 95.199715 47.592132 
L 97.307862 49.919185 
L 98.177119 50.928358 
L 98.784041 51.642295 
L 102.353727 55.62791 
L 102.417077 55.682717 
L 102.432097 55.695387 
L 102.455993 55.71584 
L 106.832391 59.566683 
L 107.876393 60.462416 
L 112.493266 64.518232 
L 113.587284 65.503052 
L 114.2713 66.107423 
L 120.729435 69.996474 
L 123.776258 71.926565 
L 126.188872 73.544709 
L 133.502872 75.847674 
L 138.106445 77.315923 
L 140.930916 77.270955 
L 150.024017 77.80992 
L 157.270548 75.793699 
L 161.94159 73.976339 
L 167.599227 69.996474 
L 169.901502 68.41341 
L 173.859162 64.797455 
L 176.58487 61.552699 
L 177.20575 60.462416 
L 177.641841 59.705881 
L 179.783251 56.880205 
L 180.4167 55.695387 
L 181.210677 54.225084 
L 182.354453 52.627417 
L 183.209582 50.928358 
L 184.266788 48.846833 
L 184.629311 48.315359 
L 185.653555 46.161329 
L 185.776735 45.904939 
L 186.637336 43.949935 
L 186.724438 43.588274 
L 187.633296 41.3943 
L 195.804707 41.3943 
L 195.63401 41.80636 
L 194.728047 45.568077 
L 194.466894 46.161329 
L 194.158826 46.868425 
L 193.317714 50.05304 
L 192.911338 50.928358 
L 192.42666 51.981888 
L 191.706299 54.497786 
L 191.11653 55.695387 
L 190.405813 57.153086 
L 189.865918 58.896738 
L 189.045476 60.462416 
L 186.786808 64.825416 
L 186.539819 65.534679 
L 185.776735 66.785085 
L 183.603118 69.996474 
L 180.180009 75.053152 
L 173.859162 80.899615 
L 168.350915 84.657993 
L 161.94159 87.585828 
L 154.740688 89.06459 
L 150.855206 89.895779 
L 150.024017 90.03052 
L 149.207899 89.880709 
L 140.237424 89.06459 
L 138.106445 88.885694 
L 130.118649 85.920769 
L 126.188872 84.683397 
L 116.202535 77.985544 
L 114.2713 76.762152 
L 106.99217 69.996474 
L 105.546681 68.719293 
L 102.353727 65.84504 
L 98.902722 61.842818 
L 97.768532 60.462416 
L 96.837961 59.359263 
L 94.91351 57.183431 
L 93.660797 55.695387 
L 91.871038 53.598849 
L 91.435075 53.112089 
L 90.436155 51.937036 
L 89.698732 50.928358 
L 88.256113 48.980852 
L 87.55896 47.969405 
L 86.228784 46.161329 
L 85.228445 44.819357 
L 83.567184 42.404021 
L 82.821107 41.3943 
" clip-path="url(#p7c9b61b921)" style="fill: #ee9677"/>
   </g>
   <g id="PathCollection_14">
    <path d="M 42.765865 204.526096 
L 52.973243 206.53012 
L 54.683437 206.701623 
L 56.039204 206.884549 
L 60.992814 208.240315 
L 66.60101 209.77367 
L 74.340085 212.418813 
L 78.518582 214.54067 
L 89.254172 221.33987 
L 90.436155 222.396196 
L 99.862486 232.07546 
L 90.436155 232.07546 
L 89.344814 232.07546 
L 83.627811 226.966231 
L 78.518582 223.730389 
L 68.245314 218.513583 
L 66.60101 217.951576 
L 63.564467 217.121344 
L 54.683437 214.102377 
L 50.211942 212.711811 
L 42.765865 211.17854 
L 42.765865 208.240315 
M 98.081188 41.3943 
L 98.708252 42.123395 
L 102.353727 46.101855 
L 102.411013 46.149872 
L 102.425147 46.161329 
L 102.447978 46.180179 
L 106.945946 50.009915 
L 108.055491 50.928358 
L 109.83395 52.424403 
L 111.500322 53.866068 
L 113.669015 55.695387 
L 114.2713 56.210898 
L 116.722807 57.5886 
L 119.376648 59.099971 
L 121.760342 60.462416 
L 123.558323 61.514636 
L 126.188872 63.089228 
L 136.443505 65.894621 
L 138.106445 66.405754 
L 140.938581 66.3623 
L 150.024017 65.980729 
L 157.072532 63.281822 
L 161.94159 60.922165 
L 162.504205 60.462416 
L 164.76881 58.644346 
L 166.134941 57.240231 
L 167.915368 55.695387 
L 169.040553 54.731665 
L 172.206221 51.258947 
L 172.565814 50.928358 
L 172.799946 50.716515 
L 173.859162 49.488208 
L 175.856039 46.560705 
L 176.045943 46.161329 
L 176.278402 45.677481 
L 178.479719 42.318412 
L 178.896791 41.3943 
L 185.776735 41.3943 
L 187.633296 41.3943 
L 186.724438 43.588274 
L 186.637336 43.949935 
L 185.776735 45.904939 
L 185.653555 46.161329 
L 184.629311 48.315359 
L 184.266788 48.846833 
L 183.209582 50.928358 
L 182.354453 52.627417 
L 181.210677 54.225084 
L 180.4167 55.695387 
L 179.783251 56.880205 
L 177.641841 59.705881 
L 177.20575 60.462416 
L 176.58487 61.552699 
L 173.859162 64.797455 
L 169.901502 68.41341 
L 167.599227 69.996474 
L 161.94159 73.976339 
L 157.270548 75.793699 
L 150.024017 77.80992 
L 140.930916 77.270955 
L 138.106445 77.315923 
L 133.502872 75.847674 
L 126.188872 73.544709 
L 123.776258 71.926565 
L 120.729435 69.996474 
L 114.2713 66.107423 
L 113.587284 65.503052 
L 112.493266 64.518232 
L 107.876393 60.462416 
L 106.832391 59.566683 
L 102.455993 55.71584 
L 102.432097 55.695387 
L 102.417077 55.682717 
L 102.353727 55.62791 
L 98.784041 51.642295 
L 98.177119 50.928358 
L 97.307862 49.919185 
L 95.199715 47.592132 
L 93.975101 46.161329 
L 92.21693 44.13397 
L 91.665325 43.531981 
L 90.436155 42.102808 
L 89.912642 41.3943 
L 90.436155 41.3943 
" clip-path="url(#p7c9b61b921)" style="fill: #db6b55"/>
   </g>
   <g id="PathCollection_15">
    <path d="M 42.765865 211.17854 
L 50.211942 212.711811 
L 54.683437 214.102377 
L 63.564467 217.121344 
L 66.60101 217.951576 
L 68.245314 218.513583 
L 78.518582 223.730389 
L 83.627811 226.966231 
L 89.344814 232.07546 
L 78.518582 232.07546 
L 77.213461 232.07546 
L 66.60101 226.047453 
L 62.552396 224.206501 
L 54.683437 221.531572 
L 44.54506 218.378692 
L 42.765865 218.012327 
M 107.528447 41.3943 
L 109.228144 42.769184 
L 111.171177 44.397839 
L 113.346687 46.161329 
L 114.2713 46.924724 
L 116.500749 48.098954 
L 119.182038 49.526991 
L 121.797579 50.928358 
L 122.97727 51.570679 
L 126.188872 53.341554 
L 131.75461 54.58224 
L 136.340114 55.695387 
L 138.106445 56.130481 
L 142.422595 55.695387 
L 147.501318 55.190847 
L 150.024017 54.882698 
L 155.863009 52.096157 
L 157.909642 50.928358 
L 161.94159 48.664135 
L 162.049565 48.566439 
L 162.094572 48.514247 
L 164.533042 46.161329 
L 166.161188 44.621735 
L 167.825601 42.601013 
L 169.029553 41.3943 
L 173.859162 41.3943 
L 178.896791 41.3943 
L 178.479719 42.318412 
L 176.278402 45.677481 
L 176.045943 46.161329 
L 175.856039 46.560705 
L 173.859162 49.488208 
L 172.799946 50.716515 
L 172.565814 50.928358 
L 172.206221 51.258947 
L 169.040553 54.731665 
L 167.915368 55.695387 
L 166.134941 57.240231 
L 164.76881 58.644346 
L 162.504205 60.462416 
L 161.94159 60.922165 
L 157.072532 63.281822 
L 150.024017 65.980729 
L 140.938581 66.3623 
L 138.106445 66.405754 
L 136.443505 65.894621 
L 126.188872 63.089228 
L 123.558323 61.514636 
L 121.760342 60.462416 
L 119.376648 59.099971 
L 116.722807 57.5886 
L 114.2713 56.210898 
L 113.669015 55.695387 
L 111.500322 53.866068 
L 109.83395 52.424403 
L 108.055491 50.928358 
L 106.945946 50.009915 
L 102.447978 46.180179 
L 102.425147 46.161329 
L 102.411013 46.149872 
L 102.353727 46.101855 
L 98.708252 42.123395 
L 98.081188 41.3943 
L 102.353727 41.3943 
" clip-path="url(#p7c9b61b921)" style="fill: #c53e3d"/>
   </g>
   <g id="PathCollection_16">
    <path d="M 42.765865 218.012327 
L 44.54506 218.378692 
L 54.683437 221.531572 
L 62.552396 224.206501 
L 66.60101 226.047453 
L 77.213461 232.07546 
L 66.60101 232.07546 
L 62.120006 232.07546 
L 57.007949 229.750948 
L 54.683437 228.960767 
L 50.162939 227.554961 
L 42.765865 225.007064 
L 42.765865 220.157887 
M 120.612046 41.3943 
L 122.186773 42.19472 
L 126.188872 44.246878 
L 131.241713 45.150761 
L 136.382921 46.161329 
L 138.106445 46.507312 
L 140.332421 46.161329 
L 145.835979 45.323722 
L 150.024017 44.578973 
L 154.318265 42.25315 
L 155.653187 41.3943 
L 161.94159 41.3943 
L 169.029553 41.3943 
L 167.825601 42.601013 
L 166.161188 44.621735 
L 164.533042 46.161329 
L 162.094572 48.514247 
L 162.049565 48.566439 
L 161.94159 48.664135 
L 157.909642 50.928358 
L 155.863009 52.096157 
L 150.024017 54.882698 
L 147.501318 55.190847 
L 142.422595 55.695387 
L 138.106445 56.130481 
L 136.340114 55.695387 
L 131.75461 54.58224 
L 126.188872 53.341554 
L 122.97727 51.570679 
L 121.797579 50.928358 
L 119.182038 49.526991 
L 116.500749 48.098954 
L 114.2713 46.924724 
L 113.346687 46.161329 
L 111.171177 44.397839 
L 109.228144 42.769184 
L 107.528447 41.3943 
L 114.2713 41.3943 
" clip-path="url(#p7c9b61b921)" style="fill: #ab162a"/>
   </g>
   <g id="PathCollection_17">
    <path d="M 42.765865 225.007064 
L 50.162939 227.554961 
L 54.683437 228.960767 
L 57.007949 229.750948 
L 62.120006 232.07546 
L 54.683437 232.07546 
L 42.765865 232.07546 
M 155.653187 41.3943 
L 154.318265 42.25315 
L 150.024017 44.578973 
L 145.835979 45.323722 
L 140.332421 46.161329 
L 138.106445 46.507312 
L 136.382921 46.161329 
L 131.241713 45.150761 
L 126.188872 44.246878 
L 122.186773 42.19472 
L 120.612046 41.3943 
L 126.188872 41.3943 
L 138.106445 41.3943 
L 150.024017 41.3943 
" clip-path="url(#p7c9b61b921)" style="fill: #7c0722"/>
   </g>
   <g id="PathCollection_18">
    <path d="M 42.765865 232.07546 
" clip-path="url(#p7c9b61b921)" style="fill: #67001f"/>
   </g>
   <g id="PolyCollection_1">
    <path d="M 233.447024 60.462416 
L 233.447024 41.3943 
L 328.787604 41.3943 
L 328.787604 60.462416 
L 328.787604 60.462416 
L 233.447024 60.462416 
z
" clip-path="url(#p7c9b61b921)" style="fill: url(#h2bc2f2d9a0); fill-opacity: 0.3; stroke: #333333; stroke-opacity: 0.3"/>
   </g>
   <g id="PathCollection_19">
    <defs>
     <path id="med5c181111" d="M -0 4.1833 
L 4.1833 0 
L 0 -4.1833 
L -4.1833 -0 
z
" style="stroke: #111827"/>
    </defs>
    <g clip-path="url(#p7c9b61b921)">
     <use xlink:href="#med5c181111" x="233.447024" y="136.73488" style="fill: #34d399; stroke: #111827"/>
    </g>
   </g>
   <g id="matplotlib.axis_1">
    <g id="xtick_1">
     <g id="line2d_1">
      <defs>
       <path id="m7a68f6e39b" d="M 0 0 
L 0 3.5 
" style="stroke: #000000; stroke-width: 0.8"/>
      </defs>
      <g>
       <use xlink:href="#m7a68f6e39b" x="42.765865" y="232.07546" style="stroke: #000000; stroke-width: 0.8"/>
      </g>
     </g>
     <g id="text_1">
      <!-- 0 -->
      <g transform="translate(39.584615 246.673897) scale(0.1 -0.1)">
       <defs>
        <path id="DejaVuSans-30" d="M 2034 4250 
Q 1547 4250 1301 3770 
Q 1056 3291 1056 2328 
Q 1056 1369 1301 889 
Q 1547 409 2034 409 
Q 2525 409 2770 889 
Q 3016 1369 3016 2328 
Q 3016 3291 2770 3770 
Q 2525 4250 2034 4250 
z
M 2034 4750 
Q 2819 4750 3233 4129 
Q 3647 3509 3647 2328 
Q 3647 1150 3233 529 
Q 2819 -91 2034 -91 
Q 1250 -91 836 529 
Q 422 1150 422 2328 
Q 422 3509 836 4129 
Q 1250 4750 2034 4750 
z
" transform="scale(0.015625)"/>
       </defs>
       <use xlink:href="#DejaVuSans-30"/>
      </g>
     </g>
    </g>
    <g id="xtick_2">
     <g id="line2d_2">
      <g>
       <use xlink:href="#m7a68f6e39b" x="90.436155" y="232.07546" style="stroke: #000000; stroke-width: 0.8"/>
      </g>
     </g>
     <g id="text_2">
      <!-- 50 -->
      <g transform="translate(84.073655 246.673897) scale(0.1 -0.1)">
       <defs>
        <path id="DejaVuSans-35" d="M 691 4666 
L 3169 4666 
L 3169 4134 
L 1269 4134 
L 1269 2991 
Q 1406 3038 1543 3061 
Q 1681 3084 1819 3084 
Q 2600 3084 3056 2656 
Q 3513 2228 3513 1497 
Q 3513 744 3044 326 
Q 2575 -91 1722 -91 
Q 1428 -91 1123 -41 
Q 819 9 494 109 
L 494 744 
Q 775 591 1075 516 
Q 1375 441 1709 441 
Q 2250 441 2565 725 
Q 2881 1009 2881 1497 
Q 2881 1984 2565 2268 
Q 2250 2553 1709 2553 
Q 1456 2553 1204 2497 
Q 953 2441 691 2322 
L 691 4666 
z
" transform="scale(0.015625)"/>
       </defs>
       <use xlink:href="#DejaVuSans-35"/>
       <use xlink:href="#DejaVuSans-30" x="63.623047"/>
      </g>
     </g>
    </g>
    <g id="xtick_3">
     <g id="line2d_3">
      <g>
       <use xlink:href="#m7a68f6e39b" x="138.106445" y="232.07546" style="stroke: #000000; stroke-width: 0.8"/>
      </g>
     </g>
     <g id="text_3">
      <!-- 100 -->
      <g transform="translate(128.562695 246.673897) scale(0.1 -0.1)">
       <defs>
        <path id="DejaVuSans-31" d="M 794 531 
L 1825 531 
L 1825 4091 
L 703 3866 
L 703 4441 
L 1819 4666 
L 2450 4666 
L 2450 531 
L 3481 531 
L 3481 0 
L 794 0 
L 794 531 
z
" transform="scale(0.015625)"/>
       </defs>
       <use xlink:href="#DejaVuSans-31"/>
       <use xlink:href="#DejaVuSans-30" x="63.623047"/>
       <use xlink:href="#DejaVuSans-30" x="127.246094"/>
      </g>
     </g>
    </g>
    <g id="xtick_4">
     <g id="line2d_4">
      <g>
       <use xlink:href="#m7a68f6e39b" x="185.776735" y="232.07546" style="stroke: #000000; stroke-width: 0.8"/>
      </g>
     </g>
     <g id="text_4">
      <!-- 150 -->
      <g transform="translate(176.232985 246.673897) scale(0.1 -0.1)">
       <use xlink:href="#DejaVuSans-31"/>
       <use xlink:href="#DejaVuSans-35" x="63.623047"/>
       <use xlink:href="#DejaVuSans-30" x="127.246094"/>
      </g>
     </g>
    </g>
    <g id="xtick_5">
     <g id="line2d_5">
      <g>
       <use xlink:href="#m7a68f6e39b" x="233.447024" y="232.07546" style="stroke: #000000; stroke-width: 0.8"/>
      </g>
     </g>
     <g id="text_5">
      <!-- 200 -->
      <g transform="translate(223.903274 246.673897) scale(0.1 -0.1)">
       <defs>
        <path id="DejaVuSans-32" d="M 1228 531 
L 3431 531 
L 3431 0 
L 469 0 
L 469 531 
Q 828 903 1448 1529 
Q 2069 2156 2228 2338 
Q 2531 2678 2651 2914 
Q 2772 3150 2772 3378 
Q 2772 3750 2511 3984 
Q 2250 4219 1831 4219 
Q 1534 4219 1204 4116 
Q 875 4013 500 3803 
L 500 4441 
Q 881 4594 1212 4672 
Q 1544 4750 1819 4750 
Q 2544 4750 2975 4387 
Q 3406 4025 3406 3419 
Q 3406 3131 3298 2873 
Q 3191 2616 2906 2266 
Q 2828 2175 2409 1742 
Q 1991 1309 1228 531 
z
" transform="scale(0.015625)"/>
       </defs>
       <use xlink:href="#DejaVuSans-32"/>
       <use xlink:href="#DejaVuSans-30" x="63.623047"/>
       <use xlink:href="#DejaVuSans-30" x="127.246094"/>
      </g>
     </g>
    </g>
    <g id="xtick_6">
     <g id="line2d_6">
      <g>
       <use xlink:href="#m7a68f6e39b" x="281.117314" y="232.07546" style="stroke: #000000; stroke-width: 0.8"/>
      </g>
     </g>
     <g id="text_6">
      <!-- 250 -->
      <g transform="translate(271.573564 246.673897) scale(0.1 -0.1)">
       <use xlink:href="#DejaVuSans-32"/>
       <use xlink:href="#DejaVuSans-35" x="63.623047"/>
       <use xlink:href="#DejaVuSans-30" x="127.246094"/>
      </g>
     </g>
    </g>
    <g id="xtick_7">
     <g id="line2d_7">
      <g>
       <use xlink:href="#m7a68f6e39b" x="328.787604" y="232.07546" style="stroke: #000000; stroke-width: 0.8"/>
      </g>
     </g>
     <g id="text_7">
      <!-- 300 -->
      <g transform="translate(319.243854 246.673897) scale(0.1 -0.1)">
       <defs>
        <path id="DejaVuSans-33" d="M 2597 2516 
Q 3050 2419 3304 2112 
Q 3559 1806 3559 1356 
Q 3559 666 3084 287 
Q 2609 -91 1734 -91 
Q 1441 -91 1130 -33 
Q 819 25 488 141 
L 488 750 
Q 750 597 1062 519 
Q 1375 441 1716 441 
Q 2309 441 2620 675 
Q 2931 909 2931 1356 
Q 2931 1769 2642 2001 
Q 2353 2234 1838 2234 
L 1294 2234 
L 1294 2753 
L 1863 2753 
Q 2328 2753 2575 2939 
Q 2822 3125 2822 3475 
Q 2822 3834 2567 4026 
Q 2313 4219 1838 4219 
Q 1578 4219 1281 4162 
Q 984 4106 628 3988 
L 628 4550 
Q 988 4650 1302 4700 
Q 1616 4750 1894 4750 
Q 2613 4750 3031 4423 
Q 3450 4097 3450 3541 
Q 3450 3153 3228 2886 
Q 3006 2619 2597 2516 
z
" transform="scale(0.015625)"/>
       </defs>
       <use xlink:href="#DejaVuSans-33"/>
       <use xlink:href="#DejaVuSans-30" x="63.623047"/>
       <use xlink:href="#DejaVuSans-30" x="127.246094"/>
      </g>
     </g>
    </g>
    <g id="xtick_8">
     <g id="line2d_8">
      <g>
       <use xlink:href="#m7a68f6e39b" x="376.457894" y="232.07546" style="stroke: #000000; stroke-width: 0.8"/>
      </g>
     </g>
     <g id="text_8">
      <!-- 350 -->
      <g transform="translate(366.914144 246.673897) scale(0.1 -0.1)">
       <use xlink:href="#DejaVuSans-33"/>
       <use xlink:href="#DejaVuSans-35" x="63.623047"/>
       <use xlink:href="#DejaVuSans-30" x="127.246094"/>
      </g>
     </g>
    </g>
    <g id="xtick_9">
     <g id="line2d_9">
      <g>
       <use xlink:href="#m7a68f6e39b" x="424.128184" y="232.07546" style="stroke: #000000; stroke-width: 0.8"/>
      </g>
     </g>
     <g id="text_9">
      <!-- 400 -->
      <g transform="translate(414.584434 246.673897) scale(0.1 -0.1)">
       <defs>
        <path id="DejaVuSans-34" d="M 2419 4116 
L 825 1625 
L 2419 1625 
L 2419 4116 
z
M 2253 4666 
L 3047 4666 
L 3047 1625 
L 3713 1625 
L 3713 1100 
L 3047 1100 
L 3047 0 
L 2419 0 
L 2419 1100 
L 313 1100 
L 313 1709 
L 2253 4666 
z
" transform="scale(0.015625)"/>
       </defs>
       <use xlink:href="#DejaVuSans-34"/>
       <use xlink:href="#DejaVuSans-30" x="63.623047"/>
       <use xlink:href="#DejaVuSans-30" x="127.246094"/>
      </g>
     </g>
    </g>
    <g id="text_10">
     <!-- x [mm] -->
     <g transform="translate(215.256399 260.352022) scale(0.1 -0.1)">
      <defs>
       <path id="DejaVuSans-78" d="M 3513 3500 
L 2247 1797 
L 3578 0 
L 2900 0 
L 1881 1375 
L 863 0 
L 184 0 
L 1544 1831 
L 300 3500 
L 978 3500 
L 1906 2253 
L 2834 3500 
L 3513 3500 
z
" transform="scale(0.015625)"/>
       <path id="DejaVuSans-20" transform="scale(0.015625)"/>
       <path id="DejaVuSans-5b" d="M 550 4863 
L 1875 4863 
L 1875 4416 
L 1125 4416 
L 1125 -397 
L 1875 -397 
L 1875 -844 
L 550 -844 
L 550 4863 
z
" transform="scale(0.015625)"/>
       <path id="DejaVuSans-6d" d="M 3328 2828 
Q 3544 3216 3844 3400 
Q 4144 3584 4550 3584 
Q 5097 3584 5394 3201 
Q 5691 2819 5691 2113 
L 5691 0 
L 5113 0 
L 5113 2094 
Q 5113 2597 4934 2840 
Q 4756 3084 4391 3084 
Q 3944 3084 3684 2787 
Q 3425 2491 3425 1978 
L 3425 0 
L 2847 0 
L 2847 2094 
Q 2847 2600 2669 2842 
Q 2491 3084 2119 3084 
Q 1678 3084 1418 2786 
Q 1159 2488 1159 1978 
L 1159 0 
L 581 0 
L 581 3500 
L 1159 3500 
L 1159 2956 
Q 1356 3278 1631 3431 
Q 1906 3584 2284 3584 
Q 2666 3584 2933 3390 
Q 3200 3197 3328 2828 
z
" transform="scale(0.015625)"/>
       <path id="DejaVuSans-5d" d="M 1947 4863 
L 1947 -844 
L 622 -844 
L 622 -397 
L 1369 -397 
L 1369 4416 
L 622 4416 
L 622 4863 
L 1947 4863 
z
" transform="scale(0.015625)"/>
      </defs>
      <use xlink:href="#DejaVuSans-78"/>
      <use xlink:href="#DejaVuSans-20" x="59.179688"/>
      <use xlink:href="#DejaVuSans-5b" x="90.966797"/>
      <use xlink:href="#DejaVuSans-6d" x="129.980469"/>
      <use xlink:href="#DejaVuSans-6d" x="227.392578"/>
      <use xlink:href="#DejaVuSans-5d" x="324.804688"/>
     </g>
    </g>
   </g>
   <g id="matplotlib.axis_2">
    <g id="ytick_1">
     <g id="line2d_10">
      <defs>
       <path id="md66c6225b4" d="M 0 0 
L -3.5 0 
" style="stroke: #000000; stroke-width: 0.8"/>
      </defs>
      <g>
       <use xlink:href="#md66c6225b4" x="42.765865" y="41.3943" style="stroke: #000000; stroke-width: 0.8"/>
      </g>
     </g>
     <g id="text_11">
      <!-- 0 -->
      <g transform="translate(29.403365 45.193519) scale(0.1 -0.1)">
       <use xlink:href="#DejaVuSans-30"/>
      </g>
     </g>
    </g>
    <g id="ytick_2">
     <g id="line2d_11">
      <g>
       <use xlink:href="#md66c6225b4" x="42.765865" y="65.229445" style="stroke: #000000; stroke-width: 0.8"/>
      </g>
     </g>
     <g id="text_12">
      <!-- 25 -->
      <g transform="translate(23.040865 69.028664) scale(0.1 -0.1)">
       <use xlink:href="#DejaVuSans-32"/>
       <use xlink:href="#DejaVuSans-35" x="63.623047"/>
      </g>
     </g>
    </g>
    <g id="ytick_3">
     <g id="line2d_12">
      <g>
       <use xlink:href="#md66c6225b4" x="42.765865" y="89.06459" style="stroke: #000000; stroke-width: 0.8"/>
      </g>
     </g>
     <g id="text_13">
      <!-- 50 -->
      <g transform="translate(23.040865 92.863809) scale(0.1 -0.1)">
       <use xlink:href="#DejaVuSans-35"/>
       <use xlink:href="#DejaVuSans-30" x="63.623047"/>
      </g>
     </g>
    </g>
    <g id="ytick_4">
     <g id="line2d_13">
      <g>
       <use xlink:href="#md66c6225b4" x="42.765865" y="112.899735" style="stroke: #000000; stroke-width: 0.8"/>
      </g>
     </g>
     <g id="text_14">
      <!-- 75 -->
      <g transform="translate(23.040865 116.698954) scale(0.1 -0.1)">
       <defs>
        <path id="DejaVuSans-37" d="M 525 4666 
L 3525 4666 
L 3525 4397 
L 1831 0 
L 1172 0 
L 2766 4134 
L 525 4134 
L 525 4666 
z
" transform="scale(0.015625)"/>
       </defs>
       <use xlink:href="#DejaVuSans-37"/>
       <use xlink:href="#DejaVuSans-35" x="63.623047"/>
      </g>
     </g>
    </g>
    <g id="ytick_5">
     <g id="line2d_14">
      <g>
       <use xlink:href="#md66c6225b4" x="42.765865" y="136.73488" style="stroke: #000000; stroke-width: 0.8"/>
      </g>
     </g>
     <g id="text_15">
      <!-- 100 -->
      <g transform="translate(16.678365 140.534099) scale(0.1 -0.1)">
       <use xlink:href="#DejaVuSans-31"/>
       <use xlink:href="#DejaVuSans-30" x="63.623047"/>
       <use xlink:href="#DejaVuSans-30" x="127.246094"/>
      </g>
     </g>
    </g>
    <g id="ytick_6">
     <g id="line2d_15">
      <g>
       <use xlink:href="#md66c6225b4" x="42.765865" y="160.570025" style="stroke: #000000; stroke-width: 0.8"/>
      </g>
     </g>
     <g id="text_16">
      <!-- 125 -->
      <g transform="translate(16.678365 164.369244) scale(0.1 -0.1)">
       <use xlink:href="#DejaVuSans-31"/>
       <use xlink:href="#DejaVuSans-32" x="63.623047"/>
       <use xlink:href="#DejaVuSans-35" x="127.246094"/>
      </g>
     </g>
    </g>
    <g id="ytick_7">
     <g id="line2d_16">
      <g>
       <use xlink:href="#md66c6225b4" x="42.765865" y="184.40517" style="stroke: #000000; stroke-width: 0.8"/>
      </g>
     </g>
     <g id="text_17">
      <!-- 150 -->
      <g transform="translate(16.678365 188.204389) scale(0.1 -0.1)">
       <use xlink:href="#DejaVuSans-31"/>
       <use xlink:href="#DejaVuSans-35" x="63.623047"/>
       <use xlink:href="#DejaVuSans-30" x="127.246094"/>
      </g>
     </g>
    </g>
    <g id="ytick_8">
     <g id="line2d_17">
      <g>
       <use xlink:href="#md66c6225b4" x="42.765865" y="208.240315" style="stroke: #000000; stroke-width: 0.8"/>
      </g>
     </g>
     <g id="text_18">
      <!-- 175 -->
      <g transform="translate(16.678365 212.039534) scale(0.1 -0.1)">
       <use xlink:href="#DejaVuSans-31"/>
       <use xlink:href="#DejaVuSans-37" x="63.623047"/>
       <use xlink:href="#DejaVuSans-35" x="127.246094"/>
      </g>
     </g>
    </g>
    <g id="ytick_9">
     <g id="line2d_18">
      <g>
       <use xlink:href="#md66c6225b4" x="42.765865" y="232.07546" style="stroke: #000000; stroke-width: 0.8"/>
      </g>
     </g>
     <g id="text_19">
      <!-- 200 -->
      <g transform="translate(16.678365 235.874679) scale(0.1 -0.1)">
       <use xlink:href="#DejaVuSans-32"/>
       <use xlink:href="#DejaVuSans-30" x="63.623047"/>
       <use xlink:href="#DejaVuSans-30" x="127.246094"/>
      </g>
     </g>
    </g>
    <g id="text_20">
     <!-- y [mm] -->
     <g transform="translate(10.598678 154.925505) rotate(-90) scale(0.1 -0.1)">
      <defs>
       <path id="DejaVuSans-79" d="M 2059 -325 
Q 1816 -950 1584 -1140 
Q 1353 -1331 966 -1331 
L 506 -1331 
L 506 -850 
L 844 -850 
Q 1081 -850 1212 -737 
Q 1344 -625 1503 -206 
L 1606 56 
L 191 3500 
L 800 3500 
L 1894 763 
L 2988 3500 
L 3597 3500 
L 2059 -325 
z
" transform="scale(0.015625)"/>
      </defs>
      <use xlink:href="#DejaVuSans-79"/>
      <use xlink:href="#DejaVuSans-20" x="59.179688"/>
      <use xlink:href="#DejaVuSans-5b" x="90.966797"/>
      <use xlink:href="#DejaVuSans-6d" x="129.980469"/>
      <use xlink:href="#DejaVuSans-6d" x="227.392578"/>
      <use xlink:href="#DejaVuSans-5d" x="324.804688"/>
     </g>
    </g>
   </g>
   <g id="PathCollection_20">
    <path d="M 42.765865 178.48873 
L 48.602758 178.32449 
L 54.683437 176.805339 
L 63.208444 175.880164 
L 66.60101 175.874308 
L 70.201379 176.087966 
L 88.578979 174.344773 
L 90.436155 174.712417 
L 93.678534 175.729977 
L 109.062906 177.695992 
L 114.2713 182.217266 
L 116.39072 184.40517 
L 121.813301 188.780741 
L 125.43809 196.322742 
L 130.280184 204.149003 
L 131.208929 208.240315 
L 133.043145 215.094588 
L 136.010955 222.253377 
L 137.752552 232.07546 
" clip-path="url(#p7c9b61b921)" style="fill: none; stroke: #263238; stroke-width: 0.55"/>
    <path d="M 424.128184 107.116571 
L 413.038623 112.899735 
L 412.579259 113.120923 
L 412.210612 113.403496 
L 402.346512 121.282363 
L 400.293039 123.972783 
L 397.721307 127.200822 
L 395.384777 130.004546 
L 393.1178 134.837947 
L 391.821261 136.73488 
L 391.067195 137.811571 
L 388.375467 144.300764 
L 387.627492 145.969748 
L 387.566976 146.268938 
L 387.443796 146.82794 
L 383.314392 157.53338 
L 382.738143 160.570025 
L 381.346378 167.599113 
L 379.090413 175.120117 
L 377.697664 184.40517 
L 376.457894 193.720332 
L 376.117851 195.982699 
L 376.068486 196.322742 
L 376.096395 196.684241 
L 374.949317 208.240315 
L 374.330219 218.030212 
L 374.167789 220.157887 
L 374.491242 222.12454 
L 374.288592 232.07546 
" clip-path="url(#p7c9b61b921)" style="fill: none; stroke: #263238; stroke-width: 0.55"/>
    <path d="M 264.024112 232.07546 
L 263.18366 226.059378 
L 262.642556 214.797501 
L 261.540058 208.240315 
L 260.037513 199.078086 
L 259.669387 193.935525 
L 257.863846 184.40517 
L 257.282169 180.965566 
L 256.159233 174.359158 
L 255.603951 172.487597 
L 254.517175 167.879274 
L 253.181634 160.570025 
L 252.810083 157.891568 
L 250.131626 147.154962 
L 249.939116 146.461448 
L 249.853472 146.268938 
L 249.752682 146.016309 
L 247.810779 138.282111 
L 247.102713 136.73488 
L 245.998337 133.979354 
L 245.27544 130.43828 
L 243.757814 127.200822 
L 242.981082 125.072534 
L 241.636543 122.067088 
L 238.89901 120.050279 
L 235.960658 116.279828 
L 233.447024 115.880368 
L 231.039711 116.439308 
L 226.56384 116.073969 
L 223.912967 117.015712 
L 222.080069 118.217381 
L 217.288446 120.050279 
L 211.298142 121.736541 
L 209.61188 121.985721 
L 202.479694 124.32959 
L 197.694307 126.193609 
L 196.773743 126.648483 
L 194.903618 127.200822 
L 185.776735 129.946696 
L 182.941834 130.833891 
L 173.859162 133.163599 
L 167.825276 134.321326 
L 161.94159 135.441952 
L 150.704157 136.462824 
L 150.024017 136.523892 
L 149.24146 136.421857 
L 138.106445 135.499113 
L 133.290038 133.894414 
L 126.188872 130.722164 
L 123.406123 128.313922 
L 122.474303 127.200822 
L 115.630475 120.865784 
L 114.497213 119.914731 
L 114.2713 119.699507 
L 109.102688 112.899735 
L 105.806165 109.447297 
L 102.353727 105.733418 
L 96.016665 95.401652 
L 92.195234 89.06459 
L 90.436155 86.696573 
L 87.394955 81.963492 
L 81.60321 72.464176 
L 79.974294 69.996474 
L 79.65313 69.542655 
L 78.518582 67.835969 
L 74.944877 61.891898 
L 74.141357 60.462416 
L 73.566526 59.472005 
L 72.026359 56.993832 
L 71.27306 55.695387 
L 70.306394 54.05295 
L 69.478547 52.736365 
L 68.420056 50.928358 
L 67.064658 48.637573 
L 66.960542 48.472937 
L 66.60101 47.85908 
L 65.637454 46.161329 
L 64.513657 44.195285 
L 64.014093 43.260431 
L 62.957993 41.3943 
" clip-path="url(#p7c9b61b921)" style="fill: none; stroke: #263238; stroke-width: 0.55"/>
    <path d="M 250.131626 60.462416 
L 242.981082 60.462416 
L 238.214053 60.462416 
L 242.016713 65.229445 
L 242.179443 66.031085 
L 242.981082 68.616236 
L 245.097794 69.996474 
L 249.490146 70.851782 
L 250.75507 70.827733 
L 253.187744 69.996474 
L 255.340527 66.523873 
L 250.131626 60.462416 
z
" clip-path="url(#p7c9b61b921)" style="fill: none; stroke: #263238; stroke-width: 0.55"/>
   </g>
   <g id="patch_3">
    <path d="M 42.765865 232.07546 
L 42.765865 41.3943 
" style="fill: none; stroke: #000000; stroke-width: 0.8; stroke-linejoin: miter; stroke-linecap: square"/>
   </g>
   <g id="patch_4">
    <path d="M 424.128184 232.07546 
L 424.128184 41.3943 
" style="fill: none; stroke: #000000; stroke-width: 0.8; stroke-linejoin: miter; stroke-linecap: square"/>
   </g>
   <g id="patch_5">
    <path d="M 42.765865 232.07546 
L 424.128184 232.07546 
" style="fill: none; stroke: #000000; stroke-width: 0.8; stroke-linejoin: miter; stroke-linecap: square"/>
   </g>
   <g id="patch_6">
    <path d="M 42.765865 41.3943 
L 424.128184 41.3943 
" style="fill: none; stroke: #000000; stroke-width: 0.8; stroke-linejoin: miter; stroke-linecap: square"/>
   </g>
   <g id="text_21">
    <!-- CalculiX C3D20R — Mode 8: 104.30 Hz -->
    <g transform="translate(116.652337 35.3943) scale(0.12 -0.12)">
     <defs>
      <path id="DejaVuSans-43" d="M 4122 4306 
L 4122 3641 
Q 3803 3938 3442 4084 
Q 3081 4231 2675 4231 
Q 1875 4231 1450 3742 
Q 1025 3253 1025 2328 
Q 1025 1406 1450 917 
Q 1875 428 2675 428 
Q 3081 428 3442 575 
Q 3803 722 4122 1019 
L 4122 359 
Q 3791 134 3420 21 
Q 3050 -91 2638 -91 
Q 1578 -91 968 557 
Q 359 1206 359 2328 
Q 359 3453 968 4101 
Q 1578 4750 2638 4750 
Q 3056 4750 3426 4639 
Q 3797 4528 4122 4306 
z
" transform="scale(0.015625)"/>
      <path id="DejaVuSans-61" d="M 2194 1759 
Q 1497 1759 1228 1600 
Q 959 1441 959 1056 
Q 959 750 1161 570 
Q 1363 391 1709 391 
Q 2188 391 2477 730 
Q 2766 1069 2766 1631 
L 2766 1759 
L 2194 1759 
z
M 3341 1997 
L 3341 0 
L 2766 0 
L 2766 531 
Q 2569 213 2275 61 
Q 1981 -91 1556 -91 
Q 1019 -91 701 211 
Q 384 513 384 1019 
Q 384 1609 779 1909 
Q 1175 2209 1959 2209 
L 2766 2209 
L 2766 2266 
Q 2766 2663 2505 2880 
Q 2244 3097 1772 3097 
Q 1472 3097 1187 3025 
Q 903 2953 641 2809 
L 641 3341 
Q 956 3463 1253 3523 
Q 1550 3584 1831 3584 
Q 2591 3584 2966 3190 
Q 3341 2797 3341 1997 
z
" transform="scale(0.015625)"/>
      <path id="DejaVuSans-6c" d="M 603 4863 
L 1178 4863 
L 1178 0 
L 603 0 
L 603 4863 
z
" transform="scale(0.015625)"/>
      <path id="DejaVuSans-63" d="M 3122 3366 
L 3122 2828 
Q 2878 2963 2633 3030 
Q 2388 3097 2138 3097 
Q 1578 3097 1268 2742 
Q 959 2388 959 1747 
Q 959 1106 1268 751 
Q 1578 397 2138 397 
Q 2388 397 2633 464 
Q 2878 531 3122 666 
L 3122 134 
Q 2881 22 2623 -34 
Q 2366 -91 2075 -91 
Q 1284 -91 818 406 
Q 353 903 353 1747 
Q 353 2603 823 3093 
Q 1294 3584 2113 3584 
Q 2378 3584 2631 3529 
Q 2884 3475 3122 3366 
z
" transform="scale(0.015625)"/>
      <path id="DejaVuSans-75" d="M 544 1381 
L 544 3500 
L 1119 3500 
L 1119 1403 
Q 1119 906 1312 657 
Q 1506 409 1894 409 
Q 2359 409 2629 706 
Q 2900 1003 2900 1516 
L 2900 3500 
L 3475 3500 
L 3475 0 
L 2900 0 
L 2900 538 
Q 2691 219 2414 64 
Q 2138 -91 1772 -91 
Q 1169 -91 856 284 
Q 544 659 544 1381 
z
M 1991 3584 
L 1991 3584 
z
" transform="scale(0.015625)"/>
      <path id="DejaVuSans-69" d="M 603 3500 
L 1178 3500 
L 1178 0 
L 603 0 
L 603 3500 
z
M 603 4863 
L 1178 4863 
L 1178 4134 
L 603 4134 
L 603 4863 
z
" transform="scale(0.015625)"/>
      <path id="DejaVuSans-58" d="M 403 4666 
L 1081 4666 
L 2241 2931 
L 3406 4666 
L 4084 4666 
L 2584 2425 
L 4184 0 
L 3506 0 
L 2194 1984 
L 872 0 
L 191 0 
L 1856 2491 
L 403 4666 
z
" transform="scale(0.015625)"/>
      <path id="DejaVuSans-44" d="M 1259 4147 
L 1259 519 
L 2022 519 
Q 2988 519 3436 956 
Q 3884 1394 3884 2338 
Q 3884 3275 3436 3711 
Q 2988 4147 2022 4147 
L 1259 4147 
z
M 628 4666 
L 1925 4666 
Q 3281 4666 3915 4102 
Q 4550 3538 4550 2338 
Q 4550 1131 3912 565 
Q 3275 0 1925 0 
L 628 0 
L 628 4666 
z
" transform="scale(0.015625)"/>
      <path id="DejaVuSans-52" d="M 2841 2188 
Q 3044 2119 3236 1894 
Q 3428 1669 3622 1275 
L 4263 0 
L 3584 0 
L 2988 1197 
Q 2756 1666 2539 1819 
Q 2322 1972 1947 1972 
L 1259 1972 
L 1259 0 
L 628 0 
L 628 4666 
L 2053 4666 
Q 2853 4666 3247 4331 
Q 3641 3997 3641 3322 
Q 3641 2881 3436 2590 
Q 3231 2300 2841 2188 
z
M 1259 4147 
L 1259 2491 
L 2053 2491 
Q 2509 2491 2742 2702 
Q 2975 2913 2975 3322 
Q 2975 3731 2742 3939 
Q 2509 4147 2053 4147 
L 1259 4147 
z
" transform="scale(0.015625)"/>
      <path id="DejaVuSans-2014" d="M 313 1978 
L 6088 1978 
L 6088 1528 
L 313 1528 
L 313 1978 
z
" transform="scale(0.015625)"/>
      <path id="DejaVuSans-4d" d="M 628 4666 
L 1569 4666 
L 2759 1491 
L 3956 4666 
L 4897 4666 
L 4897 0 
L 4281 0 
L 4281 4097 
L 3078 897 
L 2444 897 
L 1241 4097 
L 1241 0 
L 628 0 
L 628 4666 
z
" transform="scale(0.015625)"/>
      <path id="DejaVuSans-6f" d="M 1959 3097 
Q 1497 3097 1228 2736 
Q 959 2375 959 1747 
Q 959 1119 1226 758 
Q 1494 397 1959 397 
Q 2419 397 2687 759 
Q 2956 1122 2956 1747 
Q 2956 2369 2687 2733 
Q 2419 3097 1959 3097 
z
M 1959 3584 
Q 2709 3584 3137 3096 
Q 3566 2609 3566 1747 
Q 3566 888 3137 398 
Q 2709 -91 1959 -91 
Q 1206 -91 779 398 
Q 353 888 353 1747 
Q 353 2609 779 3096 
Q 1206 3584 1959 3584 
z
" transform="scale(0.015625)"/>
      <path id="DejaVuSans-64" d="M 2906 2969 
L 2906 4863 
L 3481 4863 
L 3481 0 
L 2906 0 
L 2906 525 
Q 2725 213 2448 61 
Q 2172 -91 1784 -91 
Q 1150 -91 751 415 
Q 353 922 353 1747 
Q 353 2572 751 3078 
Q 1150 3584 1784 3584 
Q 2172 3584 2448 3432 
Q 2725 3281 2906 2969 
z
M 947 1747 
Q 947 1113 1208 752 
Q 1469 391 1925 391 
Q 2381 391 2643 752 
Q 2906 1113 2906 1747 
Q 2906 2381 2643 2742 
Q 2381 3103 1925 3103 
Q 1469 3103 1208 2742 
Q 947 2381 947 1747 
z
" transform="scale(0.015625)"/>
      <path id="DejaVuSans-65" d="M 3597 1894 
L 3597 1613 
L 953 1613 
Q 991 1019 1311 708 
Q 1631 397 2203 397 
Q 2534 397 2845 478 
Q 3156 559 3463 722 
L 3463 178 
Q 3153 47 2828 -22 
Q 2503 -91 2169 -91 
Q 1331 -91 842 396 
Q 353 884 353 1716 
Q 353 2575 817 3079 
Q 1281 3584 2069 3584 
Q 2775 3584 3186 3129 
Q 3597 2675 3597 1894 
z
M 3022 2063 
Q 3016 2534 2758 2815 
Q 2500 3097 2075 3097 
Q 1594 3097 1305 2825 
Q 1016 2553 972 2059 
L 3022 2063 
z
" transform="scale(0.015625)"/>
      <path id="DejaVuSans-38" d="M 2034 2216 
Q 1584 2216 1326 1975 
Q 1069 1734 1069 1313 
Q 1069 891 1326 650 
Q 1584 409 2034 409 
Q 2484 409 2743 651 
Q 3003 894 3003 1313 
Q 3003 1734 2745 1975 
Q 2488 2216 2034 2216 
z
M 1403 2484 
Q 997 2584 770 2862 
Q 544 3141 544 3541 
Q 544 4100 942 4425 
Q 1341 4750 2034 4750 
Q 2731 4750 3128 4425 
Q 3525 4100 3525 3541 
Q 3525 3141 3298 2862 
Q 3072 2584 2669 2484 
Q 3125 2378 3379 2068 
Q 3634 1759 3634 1313 
Q 3634 634 3220 271 
Q 2806 -91 2034 -91 
Q 1263 -91 848 271 
Q 434 634 434 1313 
Q 434 1759 690 2068 
Q 947 2378 1403 2484 
z
M 1172 3481 
Q 1172 3119 1398 2916 
Q 1625 2713 2034 2713 
Q 2441 2713 2670 2916 
Q 2900 3119 2900 3481 
Q 2900 3844 2670 4047 
Q 2441 4250 2034 4250 
Q 1625 4250 1398 4047 
Q 1172 3844 1172 3481 
z
" transform="scale(0.015625)"/>
      <path id="DejaVuSans-3a" d="M 750 794 
L 1409 794 
L 1409 0 
L 750 0 
L 750 794 
z
M 750 3309 
L 1409 3309 
L 1409 2516 
L 750 2516 
L 750 3309 
z
" transform="scale(0.015625)"/>
      <path id="DejaVuSans-2e" d="M 684 794 
L 1344 794 
L 1344 0 
L 684 0 
L 684 794 
z
" transform="scale(0.015625)"/>
      <path id="DejaVuSans-48" d="M 628 4666 
L 1259 4666 
L 1259 2753 
L 3553 2753 
L 3553 4666 
L 4184 4666 
L 4184 0 
L 3553 0 
L 3553 2222 
L 1259 2222 
L 1259 0 
L 628 0 
L 628 4666 
z
" transform="scale(0.015625)"/>
      <path id="DejaVuSans-7a" d="M 353 3500 
L 3084 3500 
L 3084 2975 
L 922 459 
L 3084 459 
L 3084 0 
L 275 0 
L 275 525 
L 2438 3041 
L 353 3041 
L 353 3500 
z
" transform="scale(0.015625)"/>
     </defs>
     <use xlink:href="#DejaVuSans-43"/>
     <use xlink:href="#DejaVuSans-61" x="69.824219"/>
     <use xlink:href="#DejaVuSans-6c" x="131.103516"/>
     <use xlink:href="#DejaVuSans-63" x="158.886719"/>
     <use xlink:href="#DejaVuSans-75" x="213.867188"/>
     <use xlink:href="#DejaVuSans-6c" x="277.246094"/>
     <use xlink:href="#DejaVuSans-69" x="305.029297"/>
     <use xlink:href="#DejaVuSans-58" x="332.8125"/>
     <use xlink:href="#DejaVuSans-20" x="401.318359"/>
     <use xlink:href="#DejaVuSans-43" x="433.105469"/>
     <use xlink:href="#DejaVuSans-33" x="502.929688"/>
     <use xlink:href="#DejaVuSans-44" x="566.552734"/>
     <use xlink:href="#DejaVuSans-32" x="643.554688"/>
     <use xlink:href="#DejaVuSans-30" x="707.177734"/>
     <use xlink:href="#DejaVuSans-52" x="770.800781"/>
     <use xlink:href="#DejaVuSans-20" x="840.283203"/>
     <use xlink:href="#DejaVuSans-2014" x="872.070312"/>
     <use xlink:href="#DejaVuSans-20" x="972.070312"/>
     <use xlink:href="#DejaVuSans-4d" x="1003.857422"/>
     <use xlink:href="#DejaVuSans-6f" x="1090.136719"/>
     <use xlink:href="#DejaVuSans-64" x="1151.318359"/>
     <use xlink:href="#DejaVuSans-65" x="1214.794922"/>
     <use xlink:href="#DejaVuSans-20" x="1276.318359"/>
     <use xlink:href="#DejaVuSans-38" x="1308.105469"/>
     <use xlink:href="#DejaVuSans-3a" x="1371.728516"/>
     <use xlink:href="#DejaVuSans-20" x="1405.419922"/>
     <use xlink:href="#DejaVuSans-31" x="1437.207031"/>
     <use xlink:href="#DejaVuSans-30" x="1500.830078"/>
     <use xlink:href="#DejaVuSans-34" x="1564.453125"/>
     <use xlink:href="#DejaVuSans-2e" x="1628.076172"/>
     <use xlink:href="#DejaVuSans-33" x="1659.863281"/>
     <use xlink:href="#DejaVuSans-30" x="1723.486328"/>
     <use xlink:href="#DejaVuSans-20" x="1787.109375"/>
     <use xlink:href="#DejaVuSans-48" x="1818.896484"/>
     <use xlink:href="#DejaVuSans-7a" x="1894.091797"/>
    </g>
   </g>
  </g>
  <g id="axes_2">
   <g id="patch_7">
    <path d="M 452.74005 231.564898 
L 463.171352 231.564898 
L 463.171352 41.904863 
L 452.74005 41.904863 
z
" style="fill: #ffffff"/>
   </g>
   <g id="patch_8">
    <path clip-path="url(#pd17bed6a96)" style="fill: #ffffff; stroke: #ffffff; stroke-width: 0.01; stroke-linejoin: miter"/>
   </g>
   <g id="patch_9">
    <path d="M 452.74005 231.564898 
L 457.955701 241.047899 
L 463.171352 231.564898 
" style="fill: #053061"/>
   </g>
   <g id="patch_10">
    <path d="M 452.74005 41.904863 
L 457.955701 32.421861 
L 463.171352 41.904863 
" style="fill: #67001f"/>
   </g>
   <g id="QuadMesh_1">
    <path d="M 452.74005 231.564898 
L 463.171352 231.564898 
L 463.171352 219.711145 
L 452.74005 219.711145 
L 452.74005 231.564898 
" clip-path="url(#pd17bed6a96)" style="fill: #0e4179"/>
    <path d="M 452.74005 219.711145 
L 463.171352 219.711145 
L 463.171352 207.857393 
L 452.74005 207.857393 
L 452.74005 219.711145 
" clip-path="url(#pd17bed6a96)" style="fill: #1f63a8"/>
    <path d="M 452.74005 207.857393 
L 463.171352 207.857393 
L 463.171352 196.003641 
L 452.74005 196.003641 
L 452.74005 207.857393 
" clip-path="url(#pd17bed6a96)" style="fill: #3480b9"/>
    <path d="M 452.74005 196.003641 
L 463.171352 196.003641 
L 463.171352 184.149889 
L 452.74005 184.149889 
L 452.74005 196.003641 
" clip-path="url(#pd17bed6a96)" style="fill: #529dc8"/>
    <path d="M 452.74005 184.149889 
L 463.171352 184.149889 
L 463.171352 172.296137 
L 452.74005 172.296137 
L 452.74005 184.149889 
" clip-path="url(#pd17bed6a96)" style="fill: #84bcd9"/>
    <path d="M 452.74005 172.296137 
L 463.171352 172.296137 
L 463.171352 160.442384 
L 452.74005 160.442384 
L 452.74005 172.296137 
" clip-path="url(#pd17bed6a96)" style="fill: #aed3e6"/>
    <path d="M 452.74005 160.442384 
L 463.171352 160.442384 
L 463.171352 148.588632 
L 452.74005 148.588632 
L 452.74005 160.442384 
" clip-path="url(#pd17bed6a96)" style="fill: #d4e6f1"/>
    <path d="M 452.74005 148.588632 
L 463.171352 148.588632 
L 463.171352 136.73488 
L 452.74005 136.73488 
L 452.74005 148.588632 
" clip-path="url(#pd17bed6a96)" style="fill: #ecf2f5"/>
    <path d="M 452.74005 136.73488 
L 463.171352 136.73488 
L 463.171352 124.881128 
L 452.74005 124.881128 
L 452.74005 136.73488 
" clip-path="url(#pd17bed6a96)" style="fill: #f9eee7"/>
    <path d="M 452.74005 124.881128 
L 463.171352 124.881128 
L 463.171352 113.027376 
L 452.74005 113.027376 
L 452.74005 124.881128 
" clip-path="url(#pd17bed6a96)" style="fill: #fddcc9"/>
    <path d="M 452.74005 113.027376 
L 463.171352 113.027376 
L 463.171352 101.173624 
L 452.74005 101.173624 
L 452.74005 113.027376 
" clip-path="url(#pd17bed6a96)" style="fill: #f8bb9e"/>
    <path d="M 452.74005 101.173624 
L 463.171352 101.173624 
L 463.171352 89.319871 
L 452.74005 89.319871 
L 452.74005 101.173624 
" clip-path="url(#pd17bed6a96)" style="fill: #ee9677"/>
    <path d="M 452.74005 89.319871 
L 463.171352 89.319871 
L 463.171352 77.466119 
L 452.74005 77.466119 
L 452.74005 89.319871 
" clip-path="url(#pd17bed6a96)" style="fill: #db6b55"/>
    <path d="M 452.74005 77.466119 
L 463.171352 77.466119 
L 463.171352 65.612367 
L 452.74005 65.612367 
L 452.74005 77.466119 
" clip-path="url(#pd17bed6a96)" style="fill: #c53e3d"/>
    <path d="M 452.74005 65.612367 
L 463.171352 65.612367 
L 463.171352 53.758615 
L 452.74005 53.758615 
L 452.74005 65.612367 
" clip-path="url(#pd17bed6a96)" style="fill: #ab162a"/>
    <path d="M 452.74005 53.758615 
L 463.171352 53.758615 
L 463.171352 41.904863 
L 452.74005 41.904863 
L 452.74005 53.758615 
" clip-path="url(#pd17bed6a96)" style="fill: #7c0722"/>
   </g>
   <g id="matplotlib.axis_3"/>
   <g id="matplotlib.axis_4">
    <g id="ytick_10">
     <g id="line2d_19">
      <defs>
       <path id="m2222cf5e62" d="M 0 0 
L 3.5 0 
" style="stroke: #000000; stroke-width: 0.8"/>
      </defs>
      <g>
       <use xlink:href="#m2222cf5e62" x="463.171352" y="231.564898" style="stroke: #000000; stroke-width: 0.8"/>
      </g>
     </g>
     <g id="text_22">
      <!-- −1.00 -->
      <g transform="translate(470.171352 235.364116) scale(0.1 -0.1)">
       <defs>
        <path id="DejaVuSans-2212" d="M 678 2272 
L 4684 2272 
L 4684 1741 
L 678 1741 
L 678 2272 
z
" transform="scale(0.015625)"/>
       </defs>
       <use xlink:href="#DejaVuSans-2212"/>
       <use xlink:href="#DejaVuSans-31" x="83.789062"/>
       <use xlink:href="#DejaVuSans-2e" x="147.412109"/>
       <use xlink:href="#DejaVuSans-30" x="179.199219"/>
       <use xlink:href="#DejaVuSans-30" x="242.822266"/>
      </g>
     </g>
    </g>
    <g id="ytick_11">
     <g id="line2d_20">
      <g>
       <use xlink:href="#m2222cf5e62" x="463.171352" y="207.857393" style="stroke: #000000; stroke-width: 0.8"/>
      </g>
     </g>
     <g id="text_23">
      <!-- −0.75 -->
      <g transform="translate(470.171352 211.656612) scale(0.1 -0.1)">
       <use xlink:href="#DejaVuSans-2212"/>
       <use xlink:href="#DejaVuSans-30" x="83.789062"/>
       <use xlink:href="#DejaVuSans-2e" x="147.412109"/>
       <use xlink:href="#DejaVuSans-37" x="179.199219"/>
       <use xlink:href="#DejaVuSans-35" x="242.822266"/>
      </g>
     </g>
    </g>
    <g id="ytick_12">
     <g id="line2d_21">
      <g>
       <use xlink:href="#m2222cf5e62" x="463.171352" y="184.149889" style="stroke: #000000; stroke-width: 0.8"/>
      </g>
     </g>
     <g id="text_24">
      <!-- −0.50 -->
      <g transform="translate(470.171352 187.949108) scale(0.1 -0.1)">
       <use xlink:href="#DejaVuSans-2212"/>
       <use xlink:href="#DejaVuSans-30" x="83.789062"/>
       <use xlink:href="#DejaVuSans-2e" x="147.412109"/>
       <use xlink:href="#DejaVuSans-35" x="179.199219"/>
       <use xlink:href="#DejaVuSans-30" x="242.822266"/>
      </g>
     </g>
    </g>
    <g id="ytick_13">
     <g id="line2d_22">
      <g>
       <use xlink:href="#m2222cf5e62" x="463.171352" y="160.442384" style="stroke: #000000; stroke-width: 0.8"/>
      </g>
     </g>
     <g id="text_25">
      <!-- −0.25 -->
      <g transform="translate(470.171352 164.241603) scale(0.1 -0.1)">
       <use xlink:href="#DejaVuSans-2212"/>
       <use xlink:href="#DejaVuSans-30" x="83.789062"/>
       <use xlink:href="#DejaVuSans-2e" x="147.412109"/>
       <use xlink:href="#DejaVuSans-32" x="179.199219"/>
       <use xlink:href="#DejaVuSans-35" x="242.822266"/>
      </g>
     </g>
    </g>
    <g id="ytick_14">
     <g id="line2d_23">
      <g>
       <use xlink:href="#m2222cf5e62" x="463.171352" y="136.73488" style="stroke: #000000; stroke-width: 0.8"/>
      </g>
     </g>
     <g id="text_26">
      <!-- 0.00 -->
      <g transform="translate(470.171352 140.534099) scale(0.1 -0.1)">
       <use xlink:href="#DejaVuSans-30"/>
       <use xlink:href="#DejaVuSans-2e" x="63.623047"/>
       <use xlink:href="#DejaVuSans-30" x="95.410156"/>
       <use xlink:href="#DejaVuSans-30" x="159.033203"/>
      </g>
     </g>
    </g>
    <g id="ytick_15">
     <g id="line2d_24">
      <g>
       <use xlink:href="#m2222cf5e62" x="463.171352" y="113.027376" style="stroke: #000000; stroke-width: 0.8"/>
      </g>
     </g>
     <g id="text_27">
      <!-- 0.25 -->
      <g transform="translate(470.171352 116.826594) scale(0.1 -0.1)">
       <use xlink:href="#DejaVuSans-30"/>
       <use xlink:href="#DejaVuSans-2e" x="63.623047"/>
       <use xlink:href="#DejaVuSans-32" x="95.410156"/>
       <use xlink:href="#DejaVuSans-35" x="159.033203"/>
      </g>
     </g>
    </g>
    <g id="ytick_16">
     <g id="line2d_25">
      <g>
       <use xlink:href="#m2222cf5e62" x="463.171352" y="89.319871" style="stroke: #000000; stroke-width: 0.8"/>
      </g>
     </g>
     <g id="text_28">
      <!-- 0.50 -->
      <g transform="translate(470.171352 93.11909) scale(0.1 -0.1)">
       <use xlink:href="#DejaVuSans-30"/>
       <use xlink:href="#DejaVuSans-2e" x="63.623047"/>
       <use xlink:href="#DejaVuSans-35" x="95.410156"/>
       <use xlink:href="#DejaVuSans-30" x="159.033203"/>
      </g>
     </g>
    </g>
    <g id="ytick_17">
     <g id="line2d_26">
      <g>
       <use xlink:href="#m2222cf5e62" x="463.171352" y="65.612367" style="stroke: #000000; stroke-width: 0.8"/>
      </g>
     </g>
     <g id="text_29">
      <!-- 0.75 -->
      <g transform="translate(470.171352 69.411586) scale(0.1 -0.1)">
       <use xlink:href="#DejaVuSans-30"/>
       <use xlink:href="#DejaVuSans-2e" x="63.623047"/>
       <use xlink:href="#DejaVuSans-37" x="95.410156"/>
       <use xlink:href="#DejaVuSans-35" x="159.033203"/>
      </g>
     </g>
    </g>
    <g id="ytick_18">
     <g id="line2d_27">
      <g>
       <use xlink:href="#m2222cf5e62" x="463.171352" y="41.904863" style="stroke: #000000; stroke-width: 0.8"/>
      </g>
     </g>
     <g id="text_30">
      <!-- 1.00 -->
      <g transform="translate(470.171352 45.704081) scale(0.1 -0.1)">
       <use xlink:href="#DejaVuSans-31"/>
       <use xlink:href="#DejaVuSans-2e" x="63.623047"/>
       <use xlink:href="#DejaVuSans-30" x="95.410156"/>
       <use xlink:href="#DejaVuSans-30" x="159.033203"/>
      </g>
     </g>
    </g>
    <g id="text_31">
     <!-- normalized z displacement -->
     <g transform="translate(512.415102 204.017693) rotate(-90) scale(0.1 -0.1)">
      <defs>
       <path id="DejaVuSans-6e" d="M 3513 2113 
L 3513 0 
L 2938 0 
L 2938 2094 
Q 2938 2591 2744 2837 
Q 2550 3084 2163 3084 
Q 1697 3084 1428 2787 
Q 1159 2491 1159 1978 
L 1159 0 
L 581 0 
L 581 3500 
L 1159 3500 
L 1159 2956 
Q 1366 3272 1645 3428 
Q 1925 3584 2291 3584 
Q 2894 3584 3203 3211 
Q 3513 2838 3513 2113 
z
" transform="scale(0.015625)"/>
       <path id="DejaVuSans-72" d="M 2631 2963 
Q 2534 3019 2420 3045 
Q 2306 3072 2169 3072 
Q 1681 3072 1420 2755 
Q 1159 2438 1159 1844 
L 1159 0 
L 581 0 
L 581 3500 
L 1159 3500 
L 1159 2956 
Q 1341 3275 1631 3429 
Q 1922 3584 2338 3584 
Q 2397 3584 2469 3576 
Q 2541 3569 2628 3553 
L 2631 2963 
z
" transform="scale(0.015625)"/>
       <path id="DejaVuSans-73" d="M 2834 3397 
L 2834 2853 
Q 2591 2978 2328 3040 
Q 2066 3103 1784 3103 
Q 1356 3103 1142 2972 
Q 928 2841 928 2578 
Q 928 2378 1081 2264 
Q 1234 2150 1697 2047 
L 1894 2003 
Q 2506 1872 2764 1633 
Q 3022 1394 3022 966 
Q 3022 478 2636 193 
Q 2250 -91 1575 -91 
Q 1294 -91 989 -36 
Q 684 19 347 128 
L 347 722 
Q 666 556 975 473 
Q 1284 391 1588 391 
Q 1994 391 2212 530 
Q 2431 669 2431 922 
Q 2431 1156 2273 1281 
Q 2116 1406 1581 1522 
L 1381 1569 
Q 847 1681 609 1914 
Q 372 2147 372 2553 
Q 372 3047 722 3315 
Q 1072 3584 1716 3584 
Q 2034 3584 2315 3537 
Q 2597 3491 2834 3397 
z
" transform="scale(0.015625)"/>
       <path id="DejaVuSans-70" d="M 1159 525 
L 1159 -1331 
L 581 -1331 
L 581 3500 
L 1159 3500 
L 1159 2969 
Q 1341 3281 1617 3432 
Q 1894 3584 2278 3584 
Q 2916 3584 3314 3078 
Q 3713 2572 3713 1747 
Q 3713 922 3314 415 
Q 2916 -91 2278 -91 
Q 1894 -91 1617 61 
Q 1341 213 1159 525 
z
M 3116 1747 
Q 3116 2381 2855 2742 
Q 2594 3103 2138 3103 
Q 1681 3103 1420 2742 
Q 1159 2381 1159 1747 
Q 1159 1113 1420 752 
Q 1681 391 2138 391 
Q 2594 391 2855 752 
Q 3116 1113 3116 1747 
z
" transform="scale(0.015625)"/>
       <path id="DejaVuSans-74" d="M 1172 4494 
L 1172 3500 
L 2356 3500 
L 2356 3053 
L 1172 3053 
L 1172 1153 
Q 1172 725 1289 603 
Q 1406 481 1766 481 
L 2356 481 
L 2356 0 
L 1766 0 
Q 1100 0 847 248 
Q 594 497 594 1153 
L 594 3053 
L 172 3053 
L 172 3500 
L 594 3500 
L 594 4494 
L 1172 4494 
z
" transform="scale(0.015625)"/>
      </defs>
      <use xlink:href="#DejaVuSans-6e"/>
      <use xlink:href="#DejaVuSans-6f" x="63.378906"/>
      <use xlink:href="#DejaVuSans-72" x="124.560547"/>
      <use xlink:href="#DejaVuSans-6d" x="163.923828"/>
      <use xlink:href="#DejaVuSans-61" x="261.335938"/>
      <use xlink:href="#DejaVuSans-6c" x="322.615234"/>
      <use xlink:href="#DejaVuSans-69" x="350.398438"/>
      <use xlink:href="#DejaVuSans-7a" x="378.181641"/>
      <use xlink:href="#DejaVuSans-65" x="430.671875"/>
      <use xlink:href="#DejaVuSans-64" x="492.195312"/>
      <use xlink:href="#DejaVuSans-20" x="555.671875"/>
      <use xlink:href="#DejaVuSans-7a" x="587.458984"/>
      <use xlink:href="#DejaVuSans-20" x="639.949219"/>
      <use xlink:href="#DejaVuSans-64" x="671.736328"/>
      <use xlink:href="#DejaVuSans-69" x="735.212891"/>
      <use xlink:href="#DejaVuSans-73" x="762.996094"/>
      <use xlink:href="#DejaVuSans-70" x="815.095703"/>
      <use xlink:href="#DejaVuSans-6c" x="878.572266"/>
      <use xlink:href="#DejaVuSans-61" x="906.355469"/>
      <use xlink:href="#DejaVuSans-63" x="967.634766"/>
      <use xlink:href="#DejaVuSans-65" x="1022.615234"/>
      <use xlink:href="#DejaVuSans-6d" x="1084.138672"/>
      <use xlink:href="#DejaVuSans-65" x="1181.550781"/>
      <use xlink:href="#DejaVuSans-6e" x="1243.074219"/>
      <use xlink:href="#DejaVuSans-74" x="1306.453125"/>
     </g>
    </g>
   </g>
   <g id="LineCollection_1"/>
   <g id="patch_11">
    <path d="M 452.74005 231.564898 
L 457.955701 241.047899 
L 463.171352 231.564898 
L 463.171352 41.904863 
L 457.955701 32.421861 
L 452.74005 41.904863 
L 452.74005 231.564898 
z
" style="fill: none; stroke: #000000; stroke-width: 0.8; stroke-linejoin: miter; stroke-linecap: square"/>
   </g>
  </g>
 </g>
 <defs>
  <clipPath id="p7c9b61b921">
   <rect x="42.765865" y="41.3943" width="381.362319" height="190.681159"/>
  </clipPath>
  <clipPath id="pd17bed6a96">
   <rect x="452.74005" y="41.904863" width="10.431302" height="189.660035"/>
  </clipPath>
 </defs>
 <defs>
  <pattern id="h2bc2f2d9a0" patternUnits="userSpaceOnUse" x="0" y="0" width="72" height="72">
   <rect x="0" y="0" width="73" height="73" fill="#333333"/>
   <path d="M -36 36 
L 36 -36 
M -33 39 
L 39 -33 
M -30 42 
L 42 -30 
M -27 45 
L 45 -27 
M -24 48 
L 48 -24 
M -21 51 
L 51 -21 
M -18 54 
L 54 -18 
M -15 57 
L 57 -15 
M -12 60 
L 60 -12 
M -9 63 
L 63 -9 
M -6 66 
L 66 -6 
M -3 69 
L 69 -3 
M 0 72 
L 72 0 
M 3 75 
L 75 3 
M 6 78 
L 78 6 
M 9 81 
L 81 9 
M 12 84 
L 84 12 
M 15 87 
L 87 15 
M 18 90 
L 90 18 
M 21 93 
L 93 21 
M 24 96 
L 96 24 
M 27 99 
L 99 27 
M 30 102 
L 102 30 
M 33 105 
L 105 33 
M 36 108 
L 108 36 
" style="fill: #333333; stroke: #333333; stroke-width: 1.0; stroke-linecap: butt; stroke-linejoin: miter; stroke-opacity: 0.3"/>
  </pattern>
 </defs>
</svg>
