<?xml version="1.0" encoding="utf-8" standalone="no"?>
<!DOCTYPE svg PUBLIC "-//W3C//DTD SVG 1.1//EN"
  "http://www.w3.org/Graphics/SVG/1.1/DTD/svg11.dtd">
<svg xmlns:xlink="http://www.w3.org/1999/xlink" width="518.4pt" height="273.6pt" viewBox="0 0 518.4 273.6" xmlns="http://www.w3.org/2000/svg" version="1.1">
 <metadata>
  <rdf:RDF xmlns:dc="http://purl.org/dc/elements/1.1/" xmlns:cc="http://creativecommons.org/ns#" xmlns:rdf="http://www.w3.org/1999/02/22-rdf-syntax-ns#">
   <cc:Work>
    <dc:type rdf:resource="http://purl.org/dc/dcmitype/StillImage"/>
    <dc:format>image/svg+xml</dc:format>
    <dc:creator>
     <cc:Agent>
      <dc:title>Matplotlib v3.6.3, https://matplotlib.org/</dc:title>
     </cc:Agent>
    </dc:creator>
   </cc:Work>
  </rdf:RDF>
 </metadata>
 <defs>
  <style type="text/css">*{stroke-linejoin: round; stroke-linecap: butt}</style>
 </defs>
 <g id="figure_1">
  <g id="patch_1">
   <path d="M 0 273.6 
L 518.4 273.6 
L 518.4 0 
L 0 0 
z
" style="fill: #ffffff"/>
  </g>
  <g id="axes_1">
   <g id="patch_2">
    <path d="M 42.765865 232.07546 
L 424.128184 232.07546 
L 424.128184 41.3943 
L 42.765865 41.3943 
z
" style="fill: #ffffff"/>
   </g>
   <g id="PathCollection_1">
    <path clip-path="url(#pfc002c8f11)" style="fill: #053061"/>
   </g>
   <g id="PathCollection_2">
    <path d="M 60.26472 41.3943 
L 58.633621 42.184337 
L 54.683437 43.98809 
L 51.208621 45.466366 
L 49.520901 46.161329 
L 44.599628 48.178091 
L 43.408739 48.673419 
L 42.765865 48.928386 
L 42.765865 48.544844 
L 42.765865 46.161329 
L 42.765865 43.777815 
L 42.765865 41.3943 
L 54.683437 41.3943 
" clip-path="url(#pfc002c8f11)" style="fill: #0e4179"/>
   </g>
   <g id="PathCollection_3">
    <path d="M 42.765865 48.928386 
L 43.408739 48.673419 
L 44.599628 48.178091 
L 49.520901 46.161329 
L 51.208621 45.466366 
L 54.683437 43.98809 
L 58.633621 42.184337 
L 60.26472 41.3943 
L 66.60101 41.3943 
L 75.90525 41.3943 
L 74.342325 42.229552 
L 70.245649 44.506743 
L 67.018716 46.161329 
L 66.60101 46.37575 
L 63.358315 47.896305 
L 57.956287 50.273788 
L 56.506413 50.928358 
L 55.947168 51.181104 
L 54.683437 51.713591 
L 48.065513 54.371802 
L 44.561455 55.695387 
L 42.765865 56.370208 
L 42.765865 55.695387 
L 42.765865 53.311873 
L 42.765865 50.928358 
" clip-path="url(#pfc002c8f11)" style="fill: #1f63a8"/>
   </g>
   <g id="PathCollection_4">
    <path d="M 42.765865 56.370208 
L 44.561455 55.695387 
L 48.065513 54.371802 
L 54.683437 51.713591 
L 55.947168 51.181104 
L 56.506413 50.928358 
L 57.956287 50.273788 
L 63.358315 47.896305 
L 66.60101 46.37575 
L 67.018716 46.161329 
L 70.245649 44.506743 
L 74.342325 42.229552 
L 75.90525 41.3943 
L 78.518582 41.3943 
L 90.101453 41.3943 
L 87.407509 43.172086 
L 84.344211 44.996204 
L 82.489136 46.161329 
L 81.530708 46.763754 
L 78.518582 48.47527 
L 75.173555 50.259353 
L 73.81051 50.928358 
L 70.578425 52.51639 
L 68.337679 53.659207 
L 66.60101 54.472959 
L 63.776044 55.695387 
L 60.904753 56.93965 
L 54.683437 59.433445 
L 52.920952 60.109919 
L 51.932124 60.462416 
L 42.765865 63.707466 
L 42.765865 60.462416 
L 42.765865 58.078902 
M 137.0557 232.07546 
L 138.106445 232.013705 
L 149.939139 231.990582 
L 150.106674 231.992803 
L 151.547558 232.07546 
L 150.024017 232.07546 
L 138.106445 232.07546 
" clip-path="url(#pfc002c8f11)" style="fill: #3480b9"/>
   </g>
   <g id="PathCollection_5">
    <path d="M 42.765865 63.707466 
L 51.932124 60.462416 
L 52.920952 60.109919 
L 54.683437 59.433445 
L 60.904753 56.93965 
L 63.776044 55.695387 
L 66.60101 54.472959 
L 68.337679 53.659207 
L 70.578425 52.51639 
L 73.81051 50.928358 
L 75.173555 50.259353 
L 78.518582 48.47527 
L 81.530708 46.763754 
L 82.489136 46.161329 
L 84.344211 44.996204 
L 87.407509 43.172086 
L 90.101453 41.3943 
L 90.436155 41.3943 
L 102.353727 41.3943 
L 103.696672 41.3943 
L 103.434626 41.61048 
L 102.353727 42.387205 
L 98.291792 45.348942 
L 97.036403 46.161329 
L 94.660554 47.699964 
L 92.761746 49.009962 
L 90.436155 50.438026 
L 89.615669 50.928358 
L 86.835833 52.591808 
L 82.611845 54.876735 
L 81.170723 55.695387 
L 80.481469 56.087965 
L 78.518582 57.097225 
L 73.61884 59.482468 
L 71.423737 60.462416 
L 66.60101 62.619761 
L 63.391443 63.945619 
L 54.683437 67.172262 
L 50.924114 68.492745 
L 46.032973 69.996474 
L 42.765865 71.007722 
L 42.765865 69.996474 
L 42.765865 65.229445 
M 151.547558 232.07546 
L 150.106674 231.992803 
L 149.939139 231.990582 
L 138.106445 232.013705 
L 137.0557 232.07546 
L 126.188872 232.07546 
L 114.2713 232.07546 
L 102.353727 232.07546 
L 90.436155 232.07546 
L 79.229293 232.07546 
L 90.436155 229.390387 
L 98.088331 227.810064 
L 102.353727 226.951765 
L 108.295115 226.134072 
L 114.2713 225.177627 
L 118.784354 224.670942 
L 126.188872 223.807071 
L 134.86711 223.397222 
L 138.106445 223.206839 
L 141.14945 223.200893 
L 158.666364 223.433113 
L 161.94159 223.620998 
L 165.861848 224.078145 
L 173.859162 224.719904 
L 180.258221 225.676401 
L 185.776735 226.69534 
L 194.365226 228.746379 
L 199.853583 229.916184 
L 206.617094 232.07546 
L 197.694307 232.07546 
L 185.776735 232.07546 
L 173.859162 232.07546 
L 161.94159 232.07546 
" clip-path="url(#pfc002c8f11)" style="fill: #529dc8"/>
   </g>
   <g id="PathCollection_6">
    <path d="M 42.765865 71.007722 
L 46.032973 69.996474 
L 50.924114 68.492745 
L 54.683437 67.172262 
L 63.391443 63.945619 
L 66.60101 62.619761 
L 71.423737 60.462416 
L 73.61884 59.482468 
L 78.518582 57.097225 
L 80.481469 56.087965 
L 81.170723 55.695387 
L 82.611845 54.876735 
L 86.835833 52.591808 
L 89.615669 50.928358 
L 90.436155 50.438026 
L 92.761746 49.009962 
L 94.660554 47.699964 
L 97.036403 46.161329 
L 98.291792 45.348942 
L 102.353727 42.387205 
L 103.434626 41.61048 
L 103.696672 41.3943 
L 114.2713 41.3943 
L 117.654479 41.3943 
L 114.670853 43.697904 
L 114.517563 43.827067 
L 114.2713 44.005557 
L 111.495147 46.161329 
L 109.618365 47.614257 
L 105.722531 50.254598 
L 104.798207 50.928358 
L 104.271323 51.311877 
L 102.353727 52.537886 
L 98.651936 54.955029 
L 97.38136 55.695387 
L 94.793171 57.207499 
L 92.664811 58.524633 
L 90.436155 59.758388 
L 89.131496 60.462416 
L 84.625017 62.90499 
L 78.518582 65.834302 
L 73.627009 68.039845 
L 68.723571 69.996474 
L 66.60101 70.862973 
L 59.237583 73.639791 
L 54.683437 75.114602 
L 45.176767 77.60181 
L 42.765865 78.348042 
M 206.617094 232.07546 
L 199.853583 229.916184 
L 194.365226 228.746379 
L 185.776735 226.69534 
L 180.258221 225.676401 
L 173.859162 224.719904 
L 165.861848 224.078145 
L 161.94159 223.620998 
L 158.666364 223.433113 
L 141.14945 223.200893 
L 138.106445 223.206839 
L 134.86711 223.397222 
L 126.188872 223.807071 
L 118.784354 224.670942 
L 114.2713 225.177627 
L 108.295115 226.134072 
L 102.353727 226.951765 
L 98.088331 227.810064 
L 90.436155 229.390387 
L 79.229293 232.07546 
L 78.518582 232.07546 
L 66.60101 232.07546 
L 54.683437 232.07546 
L 45.792013 232.07546 
L 52.647399 230.039422 
L 54.683437 229.399939 
L 58.350335 228.408562 
L 66.60101 226.029753 
L 71.214761 224.771639 
L 78.518582 222.798807 
L 90.336808 220.257234 
L 90.436155 220.233432 
L 90.498768 220.220501 
L 102.353727 217.835002 
L 110.787679 216.674266 
L 114.2713 216.202085 
L 118.658445 215.770742 
L 126.188872 214.892182 
L 132.540757 214.5922 
L 138.106445 214.265944 
L 144.112473 214.151859 
L 156.10637 214.322667 
L 161.94159 214.44602 
L 167.327049 214.772428 
L 173.859162 215.296609 
L 182.155557 216.536709 
L 185.776735 216.915813 
L 188.619025 217.315596 
L 201.170928 220.157887 
L 208.128847 221.64092 
L 209.61188 222.114383 
L 211.100661 222.639189 
L 220.699201 225.514163 
L 223.912967 226.823229 
L 227.116529 228.166793 
L 229.859311 229.127171 
L 233.447024 230.76817 
L 236.267289 232.07546 
L 233.447024 232.07546 
L 228.679996 232.07546 
L 223.912967 232.07546 
L 216.762423 232.07546 
L 209.61188 232.07546 
" clip-path="url(#pfc002c8f11)" style="fill: #84bcd9"/>
   </g>
   <g id="PathCollection_7">
    <path d="M 42.765865 223.389841 
L 45.257737 222.649759 
L 54.683437 219.689318 
L 63.695856 217.252734 
L 66.60101 216.452513 
L 71.522924 215.235973 
L 78.518582 213.34638 
L 82.720913 212.442646 
L 90.436155 210.831037 
L 101.755407 208.838635 
L 102.353727 208.718239 
L 102.773834 208.660421 
L 105.873261 208.240315 
L 114.2713 207.046275 
L 123.992266 206.043709 
L 128.728529 205.700658 
L 138.106445 205.127661 
L 146.740418 204.956715 
L 150.024017 204.738541 
L 153.37756 204.886772 
L 161.94159 205.07489 
L 171.281992 205.663145 
L 176.194237 205.905241 
L 185.776735 206.94768 
L 194.620872 208.240315 
L 197.315319 208.619303 
L 198.295178 208.841186 
L 209.61188 211.015532 
L 214.471106 212.059177 
L 220.094093 213.793098 
L 223.912967 214.745499 
L 225.875688 215.251084 
L 232.420505 217.591587 
L 233.447024 217.880922 
L 234.264079 218.115251 
L 239.47424 220.157887 
L 242.513096 221.327852 
L 242.981082 221.563213 
L 244.18572 222.165617 
L 253.673854 226.171747 
L 257.282169 228.181702 
L 264.644649 232.07546 
L 257.282169 232.07546 
L 250.131626 232.07546 
L 242.981082 232.07546 
L 238.214053 232.07546 
L 236.267289 232.07546 
L 233.447024 230.76817 
L 229.859311 229.127171 
L 227.116529 228.166793 
L 223.912967 226.823229 
L 220.699201 225.514163 
L 211.100661 222.639189 
L 209.61188 222.114383 
L 208.128847 221.64092 
L 201.170928 220.157887 
L 188.619025 217.315596 
L 185.776735 216.915813 
L 182.155557 216.536709 
L 173.859162 215.296609 
L 167.327049 214.772428 
L 161.94159 214.44602 
L 156.10637 214.322667 
L 144.112473 214.151859 
L 138.106445 214.265944 
L 132.540757 214.5922 
L 126.188872 214.892182 
L 118.658445 215.770742 
L 114.2713 216.202085 
L 110.787679 216.674266 
L 102.353727 217.835002 
L 90.498768 220.220501 
L 90.436155 220.233432 
L 90.336808 220.257234 
L 78.518582 222.798807 
L 71.214761 224.771639 
L 66.60101 226.029753 
L 58.350335 228.408562 
L 54.683437 229.399939 
L 52.647399 230.039422 
L 45.792013 232.07546 
L 42.765865 232.07546 
M 42.765865 78.348042 
L 45.176767 77.60181 
L 54.683437 75.114602 
L 59.237583 73.639791 
L 66.60101 70.862973 
L 68.723571 69.996474 
L 73.627009 68.039845 
L 78.518582 65.834302 
L 84.625017 62.90499 
L 89.131496 60.462416 
L 90.436155 59.758388 
L 92.664811 58.524633 
L 94.793171 57.207499 
L 97.38136 55.695387 
L 98.651936 54.955029 
L 102.353727 52.537886 
L 104.271323 51.311877 
L 104.798207 50.928358 
L 105.722531 50.254598 
L 109.618365 47.614257 
L 111.495147 46.161329 
L 114.2713 44.005557 
L 114.517563 43.827067 
L 114.670853 43.697904 
L 117.654479 41.3943 
L 126.188872 41.3943 
L 133.129524 41.3943 
L 131.841406 42.524807 
L 127.228311 45.953442 
L 126.972974 46.161329 
L 126.817252 46.287005 
L 126.188872 46.719418 
L 121.911819 50.072948 
L 120.650734 50.928358 
L 118.33042 52.500049 
L 116.587382 53.775089 
L 114.2713 55.248258 
L 113.618916 55.695387 
L 111.076152 57.439872 
L 107.909322 59.351297 
L 106.18877 60.462416 
L 104.724769 61.410833 
L 102.353727 62.738686 
L 94.882056 67.007806 
L 90.436155 69.213664 
L 88.827043 69.996474 
L 82.493614 73.1765 
L 78.518582 74.922927 
L 67.18435 79.06386 
L 66.60101 79.301998 
L 66.406862 79.375214 
L 54.683437 83.171719 
L 49.132649 84.623959 
L 42.765865 85.906206 
L 42.765865 79.530532 
" clip-path="url(#pfc002c8f11)" style="fill: #aed3e6"/>
   </g>
   <g id="PathCollection_8">
    <path d="M 42.765865 213.629166 
L 52.149051 210.774701 
L 54.683437 209.978697 
L 56.051856 209.608733 
L 61.019816 208.240315 
L 66.60101 206.595942 
L 74.726114 204.447846 
L 84.39663 202.362267 
L 90.436155 201.026639 
L 94.401167 200.287754 
L 112.898245 197.695798 
L 114.2713 197.500575 
L 115.339015 197.390457 
L 130.080236 196.322742 
L 137.500033 195.716331 
L 138.106445 195.683993 
L 138.7656 195.663587 
L 150.024017 194.915537 
L 161.020442 195.401595 
L 161.94159 195.392311 
L 162.8636 195.400732 
L 179.681114 196.322742 
L 185.490427 196.60905 
L 185.776735 196.640196 
L 186.148528 196.694536 
L 206.940426 198.994196 
L 209.61188 199.528846 
L 211.833789 200.025926 
L 220.815476 201.485227 
L 223.912967 202.292068 
L 226.588652 203.011955 
L 230.470496 203.764063 
L 233.447024 204.639841 
L 237.226461 205.771333 
L 239.045406 206.161933 
L 242.981082 207.441358 
L 245.453225 208.240315 
L 249.400323 209.459154 
L 251.365242 210.296342 
L 257.282169 212.319618 
L 263.209245 214.230812 
L 269.199742 217.045953 
L 279.732707 221.542495 
L 281.117314 222.373421 
L 285.621204 224.661777 
L 296.10009 229.010256 
L 302.160941 232.07546 
L 293.034887 232.07546 
L 281.117314 232.07546 
L 269.199742 232.07546 
L 264.644649 232.07546 
L 257.282169 228.181702 
L 253.673854 226.171747 
L 244.18572 222.165617 
L 242.981082 221.563213 
L 242.513096 221.327852 
L 239.47424 220.157887 
L 234.264079 218.115251 
L 233.447024 217.880922 
L 232.420505 217.591587 
L 225.875688 215.251084 
L 223.912967 214.745499 
L 220.094093 213.793098 
L 214.471106 212.059177 
L 209.61188 211.015532 
L 198.295178 208.841186 
L 197.315319 208.619303 
L 194.620872 208.240315 
L 185.776735 206.94768 
L 176.194237 205.905241 
L 171.281992 205.663145 
L 161.94159 205.07489 
L 153.37756 204.886772 
L 150.024017 204.738541 
L 146.740418 204.956715 
L 138.106445 205.127661 
L 128.728529 205.700658 
L 123.992266 206.043709 
L 114.2713 207.046275 
L 105.873261 208.240315 
L 102.773834 208.660421 
L 102.353727 208.718239 
L 101.755407 208.838635 
L 90.436155 210.831037 
L 82.720913 212.442646 
L 78.518582 213.34638 
L 71.522924 215.235973 
L 66.60101 216.452513 
L 63.695856 217.252734 
L 54.683437 219.689318 
L 45.257737 222.649759 
L 42.765865 223.389841 
L 42.765865 220.157887 
M 42.765865 85.906206 
L 49.132649 84.623959 
L 54.683437 83.171719 
L 66.406862 79.375214 
L 66.60101 79.301998 
L 67.18435 79.06386 
L 78.518582 74.922927 
L 82.493614 73.1765 
L 88.827043 69.996474 
L 90.436155 69.213664 
L 94.882056 67.007806 
L 102.353727 62.738686 
L 104.724769 61.410833 
L 106.18877 60.462416 
L 107.909322 59.351297 
L 111.076152 57.439872 
L 113.618916 55.695387 
L 114.2713 55.248258 
L 116.587382 53.775089 
L 118.33042 52.500049 
L 120.650734 50.928358 
L 121.911819 50.072948 
L 126.188872 46.719418 
L 126.817252 46.287005 
L 126.972974 46.161329 
L 127.228311 45.953442 
L 131.841406 42.524807 
L 133.129524 41.3943 
L 138.106445 41.3943 
L 150.024017 41.3943 
L 152.930423 41.3943 
L 152.295659 41.848629 
L 150.024017 43.194205 
L 147.030312 45.562588 
L 146.129291 46.161329 
L 144.431149 47.279903 
L 141.675336 49.258622 
L 138.922421 50.928358 
L 138.106445 51.420431 
L 136.104605 52.911505 
L 134.277566 54.077649 
L 131.938608 55.695387 
L 130.646822 56.586977 
L 126.188872 59.231634 
L 124.797934 60.184229 
L 124.333027 60.462416 
L 120.626098 62.687526 
L 115.660451 65.785106 
L 114.2713 66.518776 
L 108.243692 69.996474 
L 104.873246 72.012089 
L 102.353727 73.314074 
L 92.190534 78.127029 
L 90.436155 79.025415 
L 90.04823 79.220193 
L 78.518582 84.285734 
L 74.417783 85.783951 
L 66.60101 88.202204 
L 63.445041 89.06459 
L 56.721702 91.102855 
L 54.683437 91.700185 
L 51.85421 91.893818 
L 42.765865 93.876965 
L 42.765865 89.06459 
M 424.128184 66.671577 
L 422.940755 65.704417 
L 420.96907 63.9658 
L 416.896581 60.462416 
L 416.021503 59.700238 
L 412.210612 56.180783 
L 411.775943 55.782321 
L 411.688262 55.695387 
L 411.557337 55.564732 
L 407.64308 51.841865 
L 406.755316 50.928358 
L 405.446548 49.575546 
L 403.70553 47.862346 
L 402.104376 46.161329 
L 400.293039 44.229349 
L 399.938469 43.848729 
L 399.798988 43.679005 
L 397.746662 41.3943 
L 400.293039 41.3943 
L 412.210612 41.3943 
L 424.128184 41.3943 
L 424.128184 43.777815 
L 424.128184 46.161329 
L 424.128184 48.544844 
L 424.128184 50.928358 
L 424.128184 53.311873 
L 424.128184 55.695387 
L 424.128184 58.078902 
L 424.128184 60.462416 
L 424.128184 65.229445 
M 378.166992 232.07546 
L 384.716913 228.416906 
L 398.451795 220.157887 
L 399.614591 219.47944 
L 400.293039 219.057688 
L 403.189107 217.261819 
L 414.316181 210.345884 
L 417.855346 208.240315 
L 424.128184 204.351413 
L 424.128184 208.240315 
L 424.128184 220.157887 
L 424.128184 232.07546 
L 412.210612 232.07546 
L 400.293039 232.07546 
L 388.375467 232.07546 
" clip-path="url(#pfc002c8f11)" style="fill: #d4e6f1"/>
   </g>
   <g id="PathCollection_9">
    <path d="M 42.765865 203.445787 
L 48.133981 201.690858 
L 54.683437 198.936593 
L 66.464311 196.186043 
L 66.60101 196.145719 
L 66.835111 196.088641 
L 85.486149 191.372736 
L 90.436155 190.453548 
L 97.333148 189.425749 
L 105.984161 188.035604 
L 114.2713 187.133699 
L 124.267574 186.326469 
L 127.819848 186.036145 
L 138.106445 185.487597 
L 149.287732 185.141455 
L 150.024017 185.092534 
L 150.743168 185.124321 
L 161.94159 185.011461 
L 173.150502 185.11383 
L 174.650033 185.196041 
L 185.776735 185.525499 
L 196.082096 186.017381 
L 199.758777 186.46964 
L 209.61188 187.188863 
L 214.821308 187.640362 
L 219.16899 188.416115 
L 223.912967 188.914454 
L 226.750593 189.228676 
L 230.968834 190.127267 
L 233.447024 190.434502 
L 235.686621 190.723752 
L 241.271031 192.047615 
L 242.981082 192.290954 
L 245.209293 192.609058 
L 256.881852 195.655547 
L 257.282169 195.719607 
L 257.806889 195.798023 
L 269.199742 198.289369 
L 276.887145 200.552912 
L 281.117314 202.1327 
L 289.463369 204.668797 
L 295.475037 205.800165 
L 304.337405 208.240315 
L 304.952459 208.401547 
L 311.346405 209.501311 
L 313.117264 209.930751 
L 319.253546 210.638832 
L 322.989586 210.817789 
L 325.14813 211.059202 
L 328.787604 211.038791 
L 332.527386 210.808432 
L 334.570789 210.780703 
L 338.321662 210.316864 
L 345.005782 209.017687 
L 345.849924 208.869846 
L 348.003825 208.240315 
L 352.622749 206.822382 
L 360.077758 203.777751 
L 373.93725 196.322742 
L 375.557469 195.422318 
L 376.457894 194.815624 
L 381.851458 190.929178 
L 388.375467 186.144067 
L 389.438616 185.46832 
L 390.88115 184.40517 
L 400.293039 175.908455 
L 402.121422 174.315981 
L 412.210612 162.957055 
L 413.600279 161.959693 
L 415.061369 160.570025 
L 417.060564 157.660054 
L 420.674053 151.347003 
L 422.801636 146.268938 
L 423.54734 141.734247 
L 423.570619 141.278883 
L 423.417355 136.73488 
L 422.461732 132.634432 
L 421.934597 131.090416 
L 420.294145 127.200822 
L 418.03571 123.705763 
L 412.210612 116.356785 
L 410.616611 113.856135 
L 409.865081 112.899735 
L 400.293039 103.302026 
L 399.144196 102.131006 
L 388.375467 93.021667 
L 386.320672 91.119385 
L 383.658393 89.06459 
L 376.457894 83.542592 
L 373.675004 81.756844 
L 364.540322 75.181121 
L 360.369066 73.333478 
L 354.595216 69.996474 
L 352.622749 68.583522 
L 349.574024 67.261928 
L 345.472206 64.378103 
L 341.09583 63.38 
L 338.321662 61.536847 
L 333.993788 60.462416 
L 333.743335 60.368065 
L 333.554633 60.051166 
L 328.787604 58.078902 
L 328.787604 55.695387 
L 328.787604 53.311873 
L 328.787604 50.928358 
L 328.787604 48.544844 
L 328.787604 46.161329 
L 328.787604 43.777815 
L 328.787604 41.3943 
L 333.554633 41.3943 
L 338.321662 41.3943 
L 345.472206 41.3943 
L 352.622749 41.3943 
L 364.540322 41.3943 
L 376.457894 41.3943 
L 388.375467 41.3943 
L 397.746662 41.3943 
L 399.798988 43.679005 
L 399.938469 43.848729 
L 400.293039 44.229349 
L 402.104376 46.161329 
L 403.70553 47.862346 
L 405.446548 49.575546 
L 406.755316 50.928358 
L 407.64308 51.841865 
L 411.557337 55.564732 
L 411.688262 55.695387 
L 411.775943 55.782321 
L 412.210612 56.180783 
L 416.021503 59.700238 
L 416.896581 60.462416 
L 420.96907 63.9658 
L 422.940755 65.704417 
L 424.128184 66.671577 
L 424.128184 69.996474 
L 424.128184 79.530532 
L 424.128184 89.06459 
L 424.128184 100.982163 
L 424.128184 112.899735 
L 424.128184 120.050279 
L 424.128184 127.200822 
L 424.128184 131.967851 
L 424.128184 136.73488 
L 424.128184 141.501909 
L 424.128184 146.268938 
L 424.128184 153.419482 
L 424.128184 160.570025 
L 424.128184 172.487597 
L 424.128184 184.40517 
L 424.128184 196.322742 
L 424.128184 204.351413 
L 417.855346 208.240315 
L 414.316181 210.345884 
L 403.189107 217.261819 
L 400.293039 219.057688 
L 399.614591 219.47944 
L 398.451795 220.157887 
L 384.716913 228.416906 
L 378.166992 232.07546 
L 376.457894 232.07546 
L 364.540322 232.07546 
L 352.622749 232.07546 
L 345.472206 232.07546 
L 338.321662 232.07546 
L 333.554633 232.07546 
L 328.787604 232.07546 
L 324.020575 232.07546 
L 319.253546 232.07546 
L 312.103003 232.07546 
L 304.952459 232.07546 
L 302.160941 232.07546 
L 296.10009 229.010256 
L 285.621204 224.661777 
L 281.117314 222.373421 
L 279.732707 221.542495 
L 269.199742 217.045953 
L 263.209245 214.230812 
L 257.282169 212.319618 
L 251.365242 210.296342 
L 249.400323 209.459154 
L 245.453225 208.240315 
L 242.981082 207.441358 
L 239.045406 206.161933 
L 237.226461 205.771333 
L 233.447024 204.639841 
L 230.470496 203.764063 
L 226.588652 203.011955 
L 223.912967 202.292068 
L 220.815476 201.485227 
L 211.833789 200.025926 
L 209.61188 199.528846 
L 206.940426 198.994196 
L 186.148528 196.694536 
L 185.776735 196.640196 
L 185.490427 196.60905 
L 179.681114 196.322742 
L 162.8636 195.400732 
L 161.94159 195.392311 
L 161.020442 195.401595 
L 150.024017 194.915537 
L 138.7656 195.663587 
L 138.106445 195.683993 
L 137.500033 195.716331 
L 130.080236 196.322742 
L 115.339015 197.390457 
L 114.2713 197.500575 
L 112.898245 197.695798 
L 94.401167 200.287754 
L 90.436155 201.026639 
L 84.39663 202.362267 
L 74.726114 204.447846 
L 66.60101 206.595942 
L 61.019816 208.240315 
L 56.051856 209.608733 
L 54.683437 209.978697 
L 52.149051 210.774701 
L 42.765865 213.629166 
L 42.765865 208.240315 
M 42.765865 93.876965 
L 51.85421 91.893818 
L 54.683437 91.700185 
L 56.721702 91.102855 
L 63.445041 89.06459 
L 66.60101 88.202204 
L 74.417783 85.783951 
L 78.518582 84.285734 
L 90.04823 79.220193 
L 90.436155 79.025415 
L 92.190534 78.127029 
L 102.353727 73.314074 
L 104.873246 72.012089 
L 108.243692 69.996474 
L 114.2713 66.518776 
L 115.660451 65.785106 
L 120.626098 62.687526 
L 124.333027 60.462416 
L 124.797934 60.184229 
L 126.188872 59.231634 
L 130.646822 56.586977 
L 131.938608 55.695387 
L 134.277566 54.077649 
L 136.104605 52.911505 
L 138.106445 51.420431 
L 138.922421 50.928358 
L 141.675336 49.258622 
L 144.431149 47.279903 
L 146.129291 46.161329 
L 147.030312 45.562588 
L 150.024017 43.194205 
L 152.295659 41.848629 
L 152.930423 41.3943 
L 161.94159 41.3943 
L 173.859162 41.3943 
L 185.776735 41.3943 
L 197.694307 41.3943 
L 209.61188 41.3943 
L 216.762423 41.3943 
L 223.912967 41.3943 
L 228.679996 41.3943 
L 233.447024 41.3943 
L 233.447024 43.777815 
L 233.447024 46.161329 
L 233.447024 48.544844 
L 228.679996 50.299382 
L 227.438449 50.307585 
L 223.912967 49.103989 
L 223.398529 48.716323 
L 216.762423 47.64556 
L 214.313285 46.977709 
L 209.61188 46.60653 
L 204.244384 46.161329 
L 199.62753 45.774685 
L 197.694307 45.774637 
L 196.488798 45.920227 
L 192.407094 46.161329 
L 185.776735 46.547103 
L 181.570849 47.703667 
L 173.859162 49.264047 
L 171.24403 50.405332 
L 169.756432 50.928358 
L 164.210057 52.858179 
L 162.612233 53.446001 
L 161.94159 53.644294 
L 157.900499 55.695387 
L 155.664694 56.823523 
L 150.024017 59.19578 
L 148.434016 60.144416 
L 147.810324 60.462416 
L 139.72814 64.580767 
L 138.323196 65.316146 
L 138.106445 65.408945 
L 129.855897 69.996474 
L 127.724372 71.224874 
L 126.188872 71.974676 
L 119.408947 75.420414 
L 114.2713 78.232894 
L 113.343107 78.787978 
L 102.353727 84.466842 
L 98.743593 86.176483 
L 91.599762 89.06459 
L 90.436155 89.599004 
L 82.571254 93.117262 
L 71.147179 96.435993 
L 66.60101 97.996357 
L 64.30981 98.690963 
L 54.683437 101.512053 
L 44.025205 102.241503 
L 42.765865 102.300873 
L 42.765865 100.982163 
" clip-path="url(#pfc002c8f11)" style="fill: #ecf2f5"/>
   </g>
   <g id="PathCollection_10">
    <path d="M 42.765865 192.301318 
L 49.162872 189.925735 
L 54.683437 187.604153 
L 57.276908 186.998641 
L 66.068792 184.40517 
L 66.60101 184.2078 
L 75.571589 181.458177 
L 82.978253 179.945499 
L 90.436155 178.272665 
L 95.338731 177.390173 
L 111.024269 175.734628 
L 114.2713 175.320605 
L 116.859441 175.075738 
L 136.567083 174.026959 
L 138.106445 173.932634 
L 139.501844 173.882997 
L 150.024017 172.411173 
L 161.150153 173.279034 
L 161.94159 173.269948 
L 162.732165 173.278173 
L 185.309362 172.95497 
L 185.776735 172.970763 
L 186.287733 172.998596 
L 197.694307 171.722222 
L 209.092416 173.007061 
L 209.61188 173.050823 
L 209.971392 173.086785 
L 223.403791 173.336223 
L 223.912967 173.398667 
L 224.297266 173.448347 
L 232.945535 173.741321 
L 233.447024 173.814338 
L 234.011999 173.900034 
L 242.267504 174.271545 
L 242.981082 174.392084 
L 244.253118 174.607657 
L 255.617552 175.26196 
L 257.282169 175.582929 
L 261.057286 176.262714 
L 276.459043 177.145869 
L 281.117314 178.050622 
L 287.547441 178.917724 
L 298.7155 178.724557 
L 304.952459 179.191509 
L 308.933954 179.123422 
L 315.989498 177.927677 
L 319.253546 177.591549 
L 321.161485 177.257445 
L 327.67809 175.261383 
L 328.787604 174.983968 
L 329.675813 174.708119 
L 334.791203 172.487597 
L 337.599793 170.682923 
L 338.321662 170.125118 
L 341.237476 167.627907 
L 346.829231 162.831735 
L 349.097045 160.570025 
L 352.622749 154.197233 
L 352.920365 153.598051 
L 353.071722 153.150098 
L 354.395646 146.268938 
L 354.087072 142.087638 
L 353.958076 140.967778 
L 352.722492 136.73488 
L 352.622749 136.534723 
L 350.782565 133.194641 
L 346.472465 127.867661 
L 345.918457 127.200822 
L 345.685698 126.98733 
L 344.217921 125.946537 
L 338.321662 121.708512 
L 337.553476 121.202557 
L 335.421019 120.050279 
L 330.323168 117.746934 
L 328.787604 117.215137 
L 326.375503 116.432126 
L 322.581102 115.058945 
L 319.253546 114.1177 
L 314.718934 112.899735 
L 312.423792 112.365086 
L 311.724114 112.268253 
L 304.952459 110.870629 
L 296.790177 109.144445 
L 287.890148 107.754997 
L 281.117314 106.290942 
L 276.915585 105.183892 
L 260.009995 100.982163 
L 257.765727 100.498605 
L 257.282169 100.417294 
L 256.88773 100.324763 
L 245.608802 96.602629 
L 242.981082 95.833997 
L 240.568743 94.951314 
L 236.549525 93.225911 
L 233.447024 91.940907 
L 228.955917 89.754393 
L 228.496085 89.524367 
L 227.64429 89.06459 
L 223.912967 87.135356 
L 219.891813 84.892071 
L 210.552089 79.530532 
L 209.911699 79.130773 
L 209.61188 78.961211 
L 207.853544 78.123863 
L 197.694307 73.043334 
L 195.039527 72.120298 
L 186.49379 69.996474 
L 185.776735 69.81691 
L 175.392074 69.383309 
L 173.859162 69.39268 
L 172.89243 69.609781 
L 170.408861 69.996474 
L 161.94159 71.350688 
L 154.898154 73.895784 
L 150.024017 75.307975 
L 138.424162 79.784706 
L 138.106445 79.884309 
L 137.132872 80.30939 
L 126.188872 85.653469 
L 123.581433 86.978639 
L 118.701248 89.06459 
L 114.2713 91.268862 
L 108.012188 94.723051 
L 102.353727 97.89738 
L 91.003115 101.549123 
L 90.436155 101.734559 
L 89.355093 102.063225 
L 73.545827 107.92698 
L 66.60101 109.318661 
L 56.912496 110.670676 
L 54.683437 111.323921 
L 53.208564 111.424861 
L 42.765865 111.917173 
L 42.765865 102.300873 
L 44.025205 102.241503 
L 54.683437 101.512053 
L 64.30981 98.690963 
L 66.60101 97.996357 
L 71.147179 96.435993 
L 82.571254 93.117262 
L 90.436155 89.599004 
L 91.599762 89.06459 
L 98.743593 86.176483 
L 102.353727 84.466842 
L 113.343107 78.787978 
L 114.2713 78.232894 
L 119.408947 75.420414 
L 126.188872 71.974676 
L 127.724372 71.224874 
L 129.855897 69.996474 
L 138.106445 65.408945 
L 138.323196 65.316146 
L 139.72814 64.580767 
L 147.810324 60.462416 
L 148.434016 60.144416 
L 150.024017 59.19578 
L 155.664694 56.823523 
L 157.900499 55.695387 
L 161.94159 53.644294 
L 162.612233 53.446001 
L 164.210057 52.858179 
L 169.756432 50.928358 
L 171.24403 50.405332 
L 173.859162 49.264047 
L 181.570849 47.703667 
L 185.776735 46.547103 
L 192.407094 46.161329 
L 196.488798 45.920227 
L 197.694307 45.774637 
L 199.62753 45.774685 
L 204.244384 46.161329 
L 209.61188 46.60653 
L 214.313285 46.977709 
L 216.762423 47.64556 
L 223.398529 48.716323 
L 223.912967 49.103989 
L 227.438449 50.307585 
L 228.679996 50.299382 
L 233.447024 48.544844 
L 233.447024 46.161329 
L 233.447024 43.777815 
L 233.447024 41.3943 
L 238.214053 41.3943 
L 242.981082 41.3943 
L 250.131626 41.3943 
L 257.282169 41.3943 
L 269.199742 41.3943 
L 281.117314 41.3943 
L 293.034887 41.3943 
L 304.952459 41.3943 
L 312.103003 41.3943 
L 319.253546 41.3943 
L 324.020575 41.3943 
L 328.787604 41.3943 
L 328.787604 43.777815 
L 328.787604 46.161329 
L 328.787604 48.544844 
L 328.787604 50.928358 
L 328.787604 53.311873 
L 328.787604 55.695387 
L 328.787604 58.078902 
L 333.554633 60.051166 
L 333.743335 60.368065 
L 333.993788 60.462416 
L 338.321662 61.536847 
L 341.09583 63.38 
L 345.472206 64.378103 
L 349.574024 67.261928 
L 352.622749 68.583522 
L 354.595216 69.996474 
L 360.369066 73.333478 
L 364.540322 75.181121 
L 373.675004 81.756844 
L 376.457894 83.542592 
L 383.658393 89.06459 
L 386.320672 91.119385 
L 388.375467 93.021667 
L 399.144196 102.131006 
L 400.293039 103.302026 
L 409.865081 112.899735 
L 410.616611 113.856135 
L 412.210612 116.356785 
L 418.03571 123.705763 
L 420.294145 127.200822 
L 421.934597 131.090416 
L 422.461732 132.634432 
L 423.417355 136.73488 
L 423.570619 141.278883 
L 423.54734 141.734247 
L 422.801636 146.268938 
L 420.674053 151.347003 
L 417.060564 157.660054 
L 415.061369 160.570025 
L 413.600279 161.959693 
L 412.210612 162.957055 
L 402.121422 174.315981 
L 400.293039 175.908455 
L 390.88115 184.40517 
L 389.438616 185.46832 
L 388.375467 186.144067 
L 381.851458 190.929178 
L 376.457894 194.815624 
L 375.557469 195.422318 
L 373.93725 196.322742 
L 360.077758 203.777751 
L 352.622749 206.822382 
L 348.003825 208.240315 
L 345.849924 208.869846 
L 345.005782 209.017687 
L 338.321662 210.316864 
L 334.570789 210.780703 
L 332.527386 210.808432 
L 328.787604 211.038791 
L 325.14813 211.059202 
L 322.989586 210.817789 
L 319.253546 210.638832 
L 313.117264 209.930751 
L 311.346405 209.501311 
L 304.952459 208.401547 
L 304.337405 208.240315 
L 295.475037 205.800165 
L 289.463369 204.668797 
L 281.117314 202.1327 
L 276.887145 200.552912 
L 269.199742 198.289369 
L 257.806889 195.798023 
L 257.282169 195.719607 
L 256.881852 195.655547 
L 245.209293 192.609058 
L 242.981082 192.290954 
L 241.271031 192.047615 
L 235.686621 190.723752 
L 233.447024 190.434502 
L 230.968834 190.127267 
L 226.750593 189.228676 
L 223.912967 188.914454 
L 219.16899 188.416115 
L 214.821308 187.640362 
L 209.61188 187.188863 
L 199.758777 186.46964 
L 196.082096 186.017381 
L 185.776735 185.525499 
L 174.650033 185.196041 
L 173.150502 185.11383 
L 161.94159 185.011461 
L 150.743168 185.124321 
L 150.024017 185.092534 
L 149.287732 185.141455 
L 138.106445 185.487597 
L 127.819848 186.036145 
L 124.267574 186.326469 
L 114.2713 187.133699 
L 105.984161 188.035604 
L 97.333148 189.425749 
L 90.436155 190.453548 
L 85.486149 191.372736 
L 66.835111 196.088641 
L 66.60101 196.145719 
L 66.464311 196.186043 
L 54.683437 198.936593 
L 48.133981 201.690858 
L 42.765865 203.445787 
L 42.765865 196.322742 
" clip-path="url(#pfc002c8f11)" style="fill: #f9eee7"/>
   </g>
   <g id="PathCollection_11">
    <path d="M 42.765865 178.643707 
L 46.907243 176.628976 
L 54.683437 170.706731 
L 63.15074 169.037328 
L 66.60101 167.688527 
L 73.173742 165.914866 
L 81.331878 163.383321 
L 90.436155 162.05333 
L 101.932684 160.991069 
L 102.668303 160.884601 
L 109.169284 160.570025 
L 114.2713 160.231163 
L 124.857233 159.771042 
L 126.188872 159.6565 
L 127.506267 159.779588 
L 138.106445 159.449755 
L 147.583067 159.105455 
L 150.024017 158.859847 
L 152.755014 158.931427 
L 161.94159 158.505514 
L 169.628319 158.031519 
L 173.859162 157.335751 
L 179.700795 157.065046 
L 185.776735 156.572929 
L 190.339306 156.157025 
L 197.694307 154.313087 
L 209.151078 153.143001 
L 209.61188 152.992252 
L 210.255475 152.775886 
L 216.762423 150.271065 
L 220.526811 150.033326 
L 223.912967 148.655145 
L 228.236189 146.934648 
L 228.97693 146.71434 
L 229.953638 146.268938 
L 233.447024 143.667989 
L 234.719587 142.774472 
L 237.744861 137.204072 
L 237.963993 136.73488 
L 237.951898 136.472725 
L 237.408027 131.967851 
L 235.804664 129.610211 
L 234.565384 127.200822 
L 233.447024 126.093708 
L 231.077421 123.604684 
L 228.279298 120.050279 
L 225.377282 117.853805 
L 223.912967 116.551121 
L 219.934713 112.899735 
L 217.634142 111.44687 
L 214.542921 109.200565 
L 209.61188 105.794374 
L 206.69652 103.897522 
L 202.065039 100.982163 
L 191.426739 95.332158 
L 185.776735 92.934999 
L 175.544853 90.750281 
L 172.65525 90.268503 
L 161.94159 90.54952 
L 153.595726 92.636299 
L 150.024017 93.837936 
L 144.275366 94.813242 
L 138.106445 97.113518 
L 135.560158 98.435876 
L 126.188872 103.661303 
L 119.325595 106.036458 
L 114.2713 107.923377 
L 102.434843 112.899735 
L 102.394833 112.924398 
L 102.353727 112.949199 
L 102.139271 113.028409 
L 90.436155 118.154712 
L 88.554065 118.921024 
L 78.518582 122.801216 
L 72.609241 123.655217 
L 66.60101 124.429576 
L 59.05208 124.579637 
L 54.683437 125.273204 
L 50.945591 124.958114 
L 42.765865 124.156377 
L 42.765865 120.050279 
L 42.765865 112.899735 
L 42.765865 111.917173 
L 53.208564 111.424861 
L 54.683437 111.323921 
L 56.912496 110.670676 
L 66.60101 109.318661 
L 73.545827 107.92698 
L 89.355093 102.063225 
L 90.436155 101.734559 
L 91.003115 101.549123 
L 102.353727 97.89738 
L 108.012188 94.723051 
L 114.2713 91.268862 
L 118.701248 89.06459 
L 123.581433 86.978639 
L 126.188872 85.653469 
L 137.132872 80.30939 
L 138.106445 79.884309 
L 138.424162 79.784706 
L 150.024017 75.307975 
L 154.898154 73.895784 
L 161.94159 71.350688 
L 170.408861 69.996474 
L 172.89243 69.609781 
L 173.859162 69.39268 
L 175.392074 69.383309 
L 185.776735 69.81691 
L 186.49379 69.996474 
L 195.039527 72.120298 
L 197.694307 73.043334 
L 207.853544 78.123863 
L 209.61188 78.961211 
L 209.911699 79.130773 
L 210.552089 79.530532 
L 219.891813 84.892071 
L 223.912967 87.135356 
L 227.64429 89.06459 
L 228.496085 89.524367 
L 228.955917 89.754393 
L 233.447024 91.940907 
L 236.549525 93.225911 
L 240.568743 94.951314 
L 242.981082 95.833997 
L 245.608802 96.602629 
L 256.88773 100.324763 
L 257.282169 100.417294 
L 257.765727 100.498605 
L 260.009995 100.982163 
L 276.915585 105.183892 
L 281.117314 106.290942 
L 287.890148 107.754997 
L 296.790177 109.144445 
L 304.952459 110.870629 
L 311.724114 112.268253 
L 312.423792 112.365086 
L 314.718934 112.899735 
L 319.253546 114.1177 
L 322.581102 115.058945 
L 326.375503 116.432126 
L 328.787604 117.215137 
L 330.323168 117.746934 
L 335.421019 120.050279 
L 337.553476 121.202557 
L 338.321662 121.708512 
L 344.217921 125.946537 
L 345.685698 126.98733 
L 345.918457 127.200822 
L 346.472465 127.867661 
L 350.782565 133.194641 
L 352.622749 136.534723 
L 352.722492 136.73488 
L 353.958076 140.967778 
L 354.087072 142.087638 
L 354.395646 146.268938 
L 353.071722 153.150098 
L 352.920365 153.598051 
L 352.622749 154.197233 
L 349.097045 160.570025 
L 346.829231 162.831735 
L 341.237476 167.627907 
L 338.321662 170.125118 
L 337.599793 170.682923 
L 334.791203 172.487597 
L 329.675813 174.708119 
L 328.787604 174.983968 
L 327.67809 175.261383 
L 321.161485 177.257445 
L 319.253546 177.591549 
L 315.989498 177.927677 
L 308.933954 179.123422 
L 304.952459 179.191509 
L 298.7155 178.724557 
L 287.547441 178.917724 
L 281.117314 178.050622 
L 276.459043 177.145869 
L 261.057286 176.262714 
L 257.282169 175.582929 
L 255.617552 175.26196 
L 244.253118 174.607657 
L 242.981082 174.392084 
L 242.267504 174.271545 
L 234.011999 173.900034 
L 233.447024 173.814338 
L 232.945535 173.741321 
L 224.297266 173.448347 
L 223.912967 173.398667 
L 223.403791 173.336223 
L 209.971392 173.086785 
L 209.61188 173.050823 
L 209.092416 173.007061 
L 197.694307 171.722222 
L 186.287733 172.998596 
L 185.776735 172.970763 
L 185.309362 172.95497 
L 162.732165 173.278173 
L 161.94159 173.269948 
L 161.150153 173.279034 
L 150.024017 172.411173 
L 139.501844 173.882997 
L 138.106445 173.932634 
L 136.567083 174.026959 
L 116.859441 175.075738 
L 114.2713 175.320605 
L 111.024269 175.734628 
L 95.338731 177.390173 
L 90.436155 178.272665 
L 82.978253 179.945499 
L 75.571589 181.458177 
L 66.60101 184.2078 
L 66.068792 184.40517 
L 57.276908 186.998641 
L 54.683437 187.604153 
L 49.162872 189.925735 
L 42.765865 192.301318 
L 42.765865 184.40517 
" clip-path="url(#pfc002c8f11)" style="fill: #fddcc9"/>
   </g>
   <g id="PathCollection_12">
    <path d="M 42.765865 124.156377 
L 50.945591 124.958114 
L 54.683437 125.273204 
L 59.05208 124.579637 
L 66.60101 124.429576 
L 72.609241 123.655217 
L 78.518582 122.801216 
L 88.554065 118.921024 
L 90.436155 118.154712 
L 102.139271 113.028409 
L 102.353727 112.949199 
L 102.394833 112.924398 
L 102.434843 112.899735 
L 114.2713 107.923377 
L 119.325595 106.036458 
L 126.188872 103.661303 
L 135.560158 98.435876 
L 138.106445 97.113518 
L 144.275366 94.813242 
L 150.024017 93.837936 
L 153.595726 92.636299 
L 161.94159 90.54952 
L 172.65525 90.268503 
L 175.544853 90.750281 
L 185.776735 92.934999 
L 191.426739 95.332158 
L 202.065039 100.982163 
L 206.69652 103.897522 
L 209.61188 105.794374 
L 214.542921 109.200565 
L 217.634142 111.44687 
L 219.934713 112.899735 
L 223.912967 116.551121 
L 225.377282 117.853805 
L 228.279298 120.050279 
L 231.077421 123.604684 
L 233.447024 126.093708 
L 234.565384 127.200822 
L 235.804664 129.610211 
L 237.408027 131.967851 
L 237.951898 136.472725 
L 237.963993 136.73488 
L 237.744861 137.204072 
L 234.719587 142.774472 
L 233.447024 143.667989 
L 229.953638 146.268938 
L 228.97693 146.71434 
L 228.236189 146.934648 
L 223.912967 148.655145 
L 220.526811 150.033326 
L 216.762423 150.271065 
L 210.255475 152.775886 
L 209.61188 152.992252 
L 209.151078 153.143001 
L 197.694307 154.313087 
L 190.339306 156.157025 
L 185.776735 156.572929 
L 179.700795 157.065046 
L 173.859162 157.335751 
L 169.628319 158.031519 
L 161.94159 158.505514 
L 152.755014 158.931427 
L 150.024017 158.859847 
L 147.583067 159.105455 
L 138.106445 159.449755 
L 127.506267 159.779588 
L 126.188872 159.6565 
L 124.857233 159.771042 
L 114.2713 160.231163 
L 109.169284 160.570025 
L 102.668303 160.884601 
L 101.932684 160.991069 
L 90.436155 162.05333 
L 81.331878 163.383321 
L 73.173742 165.914866 
L 66.60101 167.688527 
L 63.15074 169.037328 
L 54.683437 170.706731 
L 46.907243 176.628976 
L 42.765865 178.643707 
L 42.765865 172.487597 
L 42.765865 160.570025 
L 42.765865 153.419482 
L 42.765865 146.268938 
L 42.765865 141.501909 
L 42.765865 136.73488 
L 42.765865 131.967851 
L 42.765865 127.200822 
" clip-path="url(#pfc002c8f11)" style="fill: #f8bb9e"/>
   </g>
   <g id="PathCollection_13">
    <path clip-path="url(#pfc002c8f11)" style="fill: #ee9677"/>
   </g>
   <g id="PathCollection_14">
    <path clip-path="url(#pfc002c8f11)" style="fill: #db6b55"/>
   </g>
   <g id="PathCollection_15">
    <path clip-path="url(#pfc002c8f11)" style="fill: #c53e3d"/>
   </g>
   <g id="PathCollection_16">
    <path clip-path="url(#pfc002c8f11)" style="fill: #ab162a"/>
   </g>
   <g id="PathCollection_17">
    <path clip-path="url(#pfc002c8f11)" style="fill: #7c0722"/>
   </g>
   <g id="PathCollection_18">
    <path clip-path="url(#pfc002c8f11)" style="fill: #67001f"/>
   </g>
   <g id="PolyCollection_1">
    <path d="M 233.447024 60.462416 
L 233.447024 41.3943 
L 328.787604 41.3943 
L 328.787604 60.462416 
L 328.787604 60.462416 
L 233.447024 60.462416 
z
" clip-path="url(#pfc002c8f11)" style="fill: url(#h58dade82ac); fill-opacity: 0.3; stroke: #333333; stroke-opacity: 0.3"/>
   </g>
   <g id="PathCollection_19">
    <defs>
     <path id="m7823a34e39" d="M -0 4.1833 
L 4.1833 0 
L 0 -4.1833 
L -4.1833 -0 
z
" style="stroke: #111827"/>
    </defs>
    <g clip-path="url(#pfc002c8f11)">
     <use xlink:href="#m7823a34e39" x="233.447024" y="136.73488" style="fill: #34d399; stroke: #111827"/>
    </g>
   </g>
   <g id="matplotlib.axis_1">
    <g id="xtick_1">
     <g id="line2d_1">
      <defs>
       <path id="m6decc37a5a" d="M 0 0 
L 0 3.5 
" style="stroke: #000000; stroke-width: 0.8"/>
      </defs>
      <g>
       <use xlink:href="#m6decc37a5a" x="42.765865" y="232.07546" style="stroke: #000000; stroke-width: 0.8"/>
      </g>
     </g>
     <g id="text_1">
      <!-- 0 -->
      <g transform="translate(39.584615 246.673897) scale(0.1 -0.1)">
       <defs>
        <path id="DejaVuSans-30" d="M 2034 4250 
Q 1547 4250 1301 3770 
Q 1056 3291 1056 2328 
Q 1056 1369 1301 889 
Q 1547 409 2034 409 
Q 2525 409 2770 889 
Q 3016 1369 3016 2328 
Q 3016 3291 2770 3770 
Q 2525 4250 2034 4250 
z
M 2034 4750 
Q 2819 4750 3233 4129 
Q 3647 3509 3647 2328 
Q 3647 1150 3233 529 
Q 2819 -91 2034 -91 
Q 1250 -91 836 529 
Q 422 1150 422 2328 
Q 422 3509 836 4129 
Q 1250 4750 2034 4750 
z
" transform="scale(0.015625)"/>
       </defs>
       <use xlink:href="#DejaVuSans-30"/>
      </g>
     </g>
    </g>
    <g id="xtick_2">
     <g id="line2d_2">
      <g>
       <use xlink:href="#m6decc37a5a" x="90.436155" y="232.07546" style="stroke: #000000; stroke-width: 0.8"/>
      </g>
     </g>
     <g id="text_2">
      <!-- 50 -->
      <g transform="translate(84.073655 246.673897) scale(0.1 -0.1)">
       <defs>
        <path id="DejaVuSans-35" d="M 691 4666 
L 3169 4666 
L 3169 4134 
L 1269 4134 
L 1269 2991 
Q 1406 3038 1543 3061 
Q 1681 3084 1819 3084 
Q 2600 3084 3056 2656 
Q 3513 2228 3513 1497 
Q 3513 744 3044 326 
Q 2575 -91 1722 -91 
Q 1428 -91 1123 -41 
Q 819 9 494 109 
L 494 744 
Q 775 591 1075 516 
Q 1375 441 1709 441 
Q 2250 441 2565 725 
Q 2881 1009 2881 1497 
Q 2881 1984 2565 2268 
Q 2250 2553 1709 2553 
Q 1456 2553 1204 2497 
Q 953 2441 691 2322 
L 691 4666 
z
" transform="scale(0.015625)"/>
       </defs>
       <use xlink:href="#DejaVuSans-35"/>
       <use xlink:href="#DejaVuSans-30" x="63.623047"/>
      </g>
     </g>
    </g>
    <g id="xtick_3">
     <g id="line2d_3">
      <g>
       <use xlink:href="#m6decc37a5a" x="138.106445" y="232.07546" style="stroke: #000000; stroke-width: 0.8"/>
      </g>
     </g>
     <g id="text_3">
      <!-- 100 -->
      <g transform="translate(128.562695 246.673897) scale(0.1 -0.1)">
       <defs>
        <path id="DejaVuSans-31" d="M 794 531 
L 1825 531 
L 1825 4091 
L 703 3866 
L 703 4441 
L 1819 4666 
L 2450 4666 
L 2450 531 
L 3481 531 
L 3481 0 
L 794 0 
L 794 531 
z
" transform="scale(0.015625)"/>
       </defs>
       <use xlink:href="#DejaVuSans-31"/>
       <use xlink:href="#DejaVuSans-30" x="63.623047"/>
       <use xlink:href="#DejaVuSans-30" x="127.246094"/>
      </g>
     </g>
    </g>
    <g id="xtick_4">
     <g id="line2d_4">
      <g>
       <use xlink:href="#m6decc37a5a" x="185.776735" y="232.07546" style="stroke: #000000; stroke-width: 0.8"/>
      </g>
     </g>
     <g id="text_4">
      <!-- 150 -->
      <g transform="translate(176.232985 246.673897) scale(0.1 -0.1)">
       <use xlink:href="#DejaVuSans-31"/>
       <use xlink:href="#DejaVuSans-35" x="63.623047"/>
       <use xlink:href="#DejaVuSans-30" x="127.246094"/>
      </g>
     </g>
    </g>
    <g id="xtick_5">
     <g id="line2d_5">
      <g>
       <use xlink:href="#m6decc37a5a" x="233.447024" y="232.07546" style="stroke: #000000; stroke-width: 0.8"/>
      </g>
     </g>
     <g id="text_5">
      <!-- 200 -->
      <g transform="translate(223.903274 246.673897) scale(0.1 -0.1)">
       <defs>
        <path id="DejaVuSans-32" d="M 1228 531 
L 3431 531 
L 3431 0 
L 469 0 
L 469 531 
Q 828 903 1448 1529 
Q 2069 2156 2228 2338 
Q 2531 2678 2651 2914 
Q 2772 3150 2772 3378 
Q 2772 3750 2511 3984 
Q 2250 4219 1831 4219 
Q 1534 4219 1204 4116 
Q 875 4013 500 3803 
L 500 4441 
Q 881 4594 1212 4672 
Q 1544 4750 1819 4750 
Q 2544 4750 2975 4387 
Q 3406 4025 3406 3419 
Q 3406 3131 3298 2873 
Q 3191 2616 2906 2266 
Q 2828 2175 2409 1742 
Q 1991 1309 1228 531 
z
" transform="scale(0.015625)"/>
       </defs>
       <use xlink:href="#DejaVuSans-32"/>
       <use xlink:href="#DejaVuSans-30" x="63.623047"/>
       <use xlink:href="#DejaVuSans-30" x="127.246094"/>
      </g>
     </g>
    </g>
    <g id="xtick_6">
     <g id="line2d_6">
      <g>
       <use xlink:href="#m6decc37a5a" x="281.117314" y="232.07546" style="stroke: #000000; stroke-width: 0.8"/>
      </g>
     </g>
     <g id="text_6">
      <!-- 250 -->
      <g transform="translate(271.573564 246.673897) scale(0.1 -0.1)">
       <use xlink:href="#DejaVuSans-32"/>
       <use xlink:href="#DejaVuSans-35" x="63.623047"/>
       <use xlink:href="#DejaVuSans-30" x="127.246094"/>
      </g>
     </g>
    </g>
    <g id="xtick_7">
     <g id="line2d_7">
      <g>
       <use xlink:href="#m6decc37a5a" x="328.787604" y="232.07546" style="stroke: #000000; stroke-width: 0.8"/>
      </g>
     </g>
     <g id="text_7">
      <!-- 300 -->
      <g transform="translate(319.243854 246.673897) scale(0.1 -0.1)">
       <defs>
        <path id="DejaVuSans-33" d="M 2597 2516 
Q 3050 2419 3304 2112 
Q 3559 1806 3559 1356 
Q 3559 666 3084 287 
Q 2609 -91 1734 -91 
Q 1441 -91 1130 -33 
Q 819 25 488 141 
L 488 750 
Q 750 597 1062 519 
Q 1375 441 1716 441 
Q 2309 441 2620 675 
Q 2931 909 2931 1356 
Q 2931 1769 2642 2001 
Q 2353 2234 1838 2234 
L 1294 2234 
L 1294 2753 
L 1863 2753 
Q 2328 2753 2575 2939 
Q 2822 3125 2822 3475 
Q 2822 3834 2567 4026 
Q 2313 4219 1838 4219 
Q 1578 4219 1281 4162 
Q 984 4106 628 3988 
L 628 4550 
Q 988 4650 1302 4700 
Q 1616 4750 1894 4750 
Q 2613 4750 3031 4423 
Q 3450 4097 3450 3541 
Q 3450 3153 3228 2886 
Q 3006 2619 2597 2516 
z
" transform="scale(0.015625)"/>
       </defs>
       <use xlink:href="#DejaVuSans-33"/>
       <use xlink:href="#DejaVuSans-30" x="63.623047"/>
       <use xlink:href="#DejaVuSans-30" x="127.246094"/>
      </g>
     </g>
    </g>
    <g id="xtick_8">
     <g id="line2d_8">
      <g>
       <use xlink:href="#m6decc37a5a" x="376.457894" y="232.07546" style="stroke: #000000; stroke-width: 0.8"/>
      </g>
     </g>
     <g id="text_8">
      <!-- 350 -->
      <g transform="translate(366.914144 246.673897) scale(0.1 -0.1)">
       <use xlink:href="#DejaVuSans-33"/>
       <use xlink:href="#DejaVuSans-35" x="63.623047"/>
       <use xlink:href="#DejaVuSans-30" x="127.246094"/>
      </g>
     </g>
    </g>
    <g id="xtick_9">
     <g id="line2d_9">
      <g>
       <use xlink:href="#m6decc37a5a" x="424.128184" y="232.07546" style="stroke: #000000; stroke-width: 0.8"/>
      </g>
     </g>
     <g id="text_9">
      <!-- 400 -->
      <g transform="translate(414.584434 246.673897) scale(0.1 -0.1)">
       <defs>
        <path id="DejaVuSans-34" d="M 2419 4116 
L 825 1625 
L 2419 1625 
L 2419 4116 
z
M 2253 4666 
L 3047 4666 
L 3047 1625 
L 3713 1625 
L 3713 1100 
L 3047 1100 
L 3047 0 
L 2419 0 
L 2419 1100 
L 313 1100 
L 313 1709 
L 2253 4666 
z
" transform="scale(0.015625)"/>
       </defs>
       <use xlink:href="#DejaVuSans-34"/>
       <use xlink:href="#DejaVuSans-30" x="63.623047"/>
       <use xlink:href="#DejaVuSans-30" x="127.246094"/>
      </g>
     </g>
    </g>
    <g id="text_10">
     <!-- x [mm] -->
     <g transform="translate(215.256399 260.352022) scale(0.1 -0.1)">
      <defs>
       <path id="DejaVuSans-78" d="M 3513 3500 
L 2247 1797 
L 3578 0 
L 2900 0 
L 1881 1375 
L 863 0 
L 184 0 
L 1544 1831 
L 300 3500 
L 978 3500 
L 1906 2253 
L 2834 3500 
L 3513 3500 
z
" transform="scale(0.015625)"/>
       <path id="DejaVuSans-20" transform="scale(0.015625)"/>
       <path id="DejaVuSans-5b" d="M 550 4863 
L 1875 4863 
L 1875 4416 
L 1125 4416 
L 1125 -397 
L 1875 -397 
L 1875 -844 
L 550 -844 
L 550 4863 
z
" transform="scale(0.015625)"/>
       <path id="DejaVuSans-6d" d="M 3328 2828 
Q 3544 3216 3844 3400 
Q 4144 3584 4550 3584 
Q 5097 3584 5394 3201 
Q 5691 2819 5691 2113 
L 5691 0 
L 5113 0 
L 5113 2094 
Q 5113 2597 4934 2840 
Q 4756 3084 4391 3084 
Q 3944 3084 3684 2787 
Q 3425 2491 3425 1978 
L 3425 0 
L 2847 0 
L 2847 2094 
Q 2847 2600 2669 2842 
Q 2491 3084 2119 3084 
Q 1678 3084 1418 2786 
Q 1159 2488 1159 1978 
L 1159 0 
L 581 0 
L 581 3500 
L 1159 3500 
L 1159 2956 
Q 1356 3278 1631 3431 
Q 1906 3584 2284 3584 
Q 2666 3584 2933 3390 
Q 3200 3197 3328 2828 
z
" transform="scale(0.015625)"/>
       <path id="DejaVuSans-5d" d="M 1947 4863 
L 1947 -844 
L 622 -844 
L 622 -397 
L 1369 -397 
L 1369 4416 
L 622 4416 
L 622 4863 
L 1947 4863 
z
" transform="scale(0.015625)"/>
      </defs>
      <use xlink:href="#DejaVuSans-78"/>
      <use xlink:href="#DejaVuSans-20" x="59.179688"/>
      <use xlink:href="#DejaVuSans-5b" x="90.966797"/>
      <use xlink:href="#DejaVuSans-6d" x="129.980469"/>
      <use xlink:href="#DejaVuSans-6d" x="227.392578"/>
      <use xlink:href="#DejaVuSans-5d" x="324.804688"/>
     </g>
    </g>
   </g>
   <g id="matplotlib.axis_2">
    <g id="ytick_1">
     <g id="line2d_10">
      <defs>
       <path id="m5a115ffaee" d="M 0 0 
L -3.5 0 
" style="stroke: #000000; stroke-width: 0.8"/>
      </defs>
      <g>
       <use xlink:href="#m5a115ffaee" x="42.765865" y="41.3943" style="stroke: #000000; stroke-width: 0.8"/>
      </g>
     </g>
     <g id="text_11">
      <!-- 0 -->
      <g transform="translate(29.403365 45.193519) scale(0.1 -0.1)">
       <use xlink:href="#DejaVuSans-30"/>
      </g>
     </g>
    </g>
    <g id="ytick_2">
     <g id="line2d_11">
      <g>
       <use xlink:href="#m5a115ffaee" x="42.765865" y="65.229445" style="stroke: #000000; stroke-width: 0.8"/>
      </g>
     </g>
     <g id="text_12">
      <!-- 25 -->
      <g transform="translate(23.040865 69.028664) scale(0.1 -0.1)">
       <use xlink:href="#DejaVuSans-32"/>
       <use xlink:href="#DejaVuSans-35" x="63.623047"/>
      </g>
     </g>
    </g>
    <g id="ytick_3">
     <g id="line2d_12">
      <g>
       <use xlink:href="#m5a115ffaee" x="42.765865" y="89.06459" style="stroke: #000000; stroke-width: 0.8"/>
      </g>
     </g>
     <g id="text_13">
      <!-- 50 -->
      <g transform="translate(23.040865 92.863809) scale(0.1 -0.1)">
       <use xlink:href="#DejaVuSans-35"/>
       <use xlink:href="#DejaVuSans-30" x="63.623047"/>
      </g>
     </g>
    </g>
    <g id="ytick_4">
     <g id="line2d_13">
      <g>
       <use xlink:href="#m5a115ffaee" x="42.765865" y="112.899735" style="stroke: #000000; stroke-width: 0.8"/>
      </g>
     </g>
     <g id="text_14">
      <!-- 75 -->
      <g transform="translate(23.040865 116.698954) scale(0.1 -0.1)">
       <defs>
        <path id="DejaVuSans-37" d="M 525 4666 
L 3525 4666 
L 3525 4397 
L 1831 0 
L 1172 0 
L 2766 4134 
L 525 4134 
L 525 4666 
z
" transform="scale(0.015625)"/>
       </defs>
       <use xlink:href="#DejaVuSans-37"/>
       <use xlink:href="#DejaVuSans-35" x="63.623047"/>
      </g>
     </g>
    </g>
    <g id="ytick_5">
     <g id="line2d_14">
      <g>
       <use xlink:href="#m5a115ffaee" x="42.765865" y="136.73488" style="stroke: #000000; stroke-width: 0.8"/>
      </g>
     </g>
     <g id="text_15">
      <!-- 100 -->
      <g transform="translate(16.678365 140.534099) scale(0.1 -0.1)">
       <use xlink:href="#DejaVuSans-31"/>
       <use xlink:href="#DejaVuSans-30" x="63.623047"/>
       <use xlink:href="#DejaVuSans-30" x="127.246094"/>
      </g>
     </g>
    </g>
    <g id="ytick_6">
     <g id="line2d_15">
      <g>
       <use xlink:href="#m5a115ffaee" x="42.765865" y="160.570025" style="stroke: #000000; stroke-width: 0.8"/>
      </g>
     </g>
     <g id="text_16">
      <!-- 125 -->
      <g transform="translate(16.678365 164.369244) scale(0.1 -0.1)">
       <use xlink:href="#DejaVuSans-31"/>
       <use xlink:href="#DejaVuSans-32" x="63.623047"/>
       <use xlink:href="#DejaVuSans-35" x="127.246094"/>
      </g>
     </g>
    </g>
    <g id="ytick_7">
     <g id="line2d_16">
      <g>
       <use xlink:href="#m5a115ffaee" x="42.765865" y="184.40517" style="stroke: #000000; stroke-width: 0.8"/>
      </g>
     </g>
     <g id="text_17">
      <!-- 150 -->
      <g transform="translate(16.678365 188.204389) scale(0.1 -0.1)">
       <use xlink:href="#DejaVuSans-31"/>
       <use xlink:href="#DejaVuSans-35" x="63.623047"/>
       <use xlink:href="#DejaVuSans-30" x="127.246094"/>
      </g>
     </g>
    </g>
    <g id="ytick_8">
     <g id="line2d_17">
      <g>
       <use xlink:href="#m5a115ffaee" x="42.765865" y="208.240315" style="stroke: #000000; stroke-width: 0.8"/>
      </g>
     </g>
     <g id="text_18">
      <!-- 175 -->
      <g transform="translate(16.678365 212.039534) scale(0.1 -0.1)">
       <use xlink:href="#DejaVuSans-31"/>
       <use xlink:href="#DejaVuSans-37" x="63.623047"/>
       <use xlink:href="#DejaVuSans-35" x="127.246094"/>
      </g>
     </g>
    </g>
    <g id="ytick_9">
     <g id="line2d_18">
      <g>
       <use xlink:href="#m5a115ffaee" x="42.765865" y="232.07546" style="stroke: #000000; stroke-width: 0.8"/>
      </g>
     </g>
     <g id="text_19">
      <!-- 200 -->
      <g transform="translate(16.678365 235.874679) scale(0.1 -0.1)">
       <use xlink:href="#DejaVuSans-32"/>
       <use xlink:href="#DejaVuSans-30" x="63.623047"/>
       <use xlink:href="#DejaVuSans-30" x="127.246094"/>
      </g>
     </g>
    </g>
    <g id="text_20">
     <!-- y [mm] -->
     <g transform="translate(10.598678 154.925505) rotate(-90) scale(0.1 -0.1)">
      <defs>
       <path id="DejaVuSans-79" d="M 2059 -325 
Q 1816 -950 1584 -1140 
Q 1353 -1331 966 -1331 
L 506 -1331 
L 506 -850 
L 844 -850 
Q 1081 -850 1212 -737 
Q 1344 -625 1503 -206 
L 1606 56 
L 191 3500 
L 800 3500 
L 1894 763 
L 2988 3500 
L 3597 3500 
L 2059 -325 
z
" transform="scale(0.015625)"/>
      </defs>
      <use xlink:href="#DejaVuSans-79"/>
      <use xlink:href="#DejaVuSans-20" x="59.179688"/>
      <use xlink:href="#DejaVuSans-5b" x="90.966797"/>
      <use xlink:href="#DejaVuSans-6d" x="129.980469"/>
      <use xlink:href="#DejaVuSans-6d" x="227.392578"/>
      <use xlink:href="#DejaVuSans-5d" x="324.804688"/>
     </g>
    </g>
   </g>
   <g id="PathCollection_20">
    <path d="M 42.765865 102.300873 
L 44.025205 102.241503 
L 54.683437 101.512053 
L 64.30981 98.690963 
L 66.60101 97.996357 
L 71.147179 96.435993 
L 82.571254 93.117262 
L 90.436155 89.599004 
L 91.599762 89.06459 
L 98.743593 86.176483 
L 102.353727 84.466842 
L 113.343107 78.787978 
L 114.2713 78.232894 
L 119.408947 75.420414 
L 126.188872 71.974676 
L 127.724372 71.224874 
L 129.855897 69.996474 
L 138.106445 65.408945 
L 138.323196 65.316146 
L 139.72814 64.580767 
L 147.810324 60.462416 
L 148.434016 60.144416 
L 150.024017 59.19578 
L 155.664694 56.823523 
L 157.900499 55.695387 
L 161.94159 53.644294 
L 162.612233 53.446001 
L 164.210057 52.858179 
L 169.756432 50.928358 
L 171.24403 50.405332 
L 173.859162 49.264047 
L 181.570849 47.703667 
L 185.776735 46.547103 
L 192.407094 46.161329 
L 196.488798 45.920227 
L 197.694307 45.774637 
L 199.62753 45.774685 
L 204.244384 46.161329 
L 209.61188 46.60653 
L 214.313285 46.977709 
L 216.762423 47.64556 
L 223.398529 48.716323 
L 223.912967 49.103989 
L 227.438449 50.307585 
L 228.679996 50.299382 
L 233.447024 48.544844 
L 233.447024 46.161329 
L 233.447024 43.777815 
L 233.447024 41.3943 
" clip-path="url(#pfc002c8f11)" style="fill: none; stroke: #263238; stroke-width: 0.55"/>
    <path d="M 328.787604 41.3943 
L 328.787604 43.777815 
L 328.787604 46.161329 
L 328.787604 48.544844 
L 328.787604 50.928358 
L 328.787604 53.311873 
L 328.787604 55.695387 
L 328.787604 58.078902 
L 333.554633 60.051166 
L 333.743335 60.368065 
L 333.993788 60.462416 
L 338.321662 61.536847 
L 341.09583 63.38 
L 345.472206 64.378103 
L 349.574024 67.261928 
L 352.622749 68.583522 
L 354.595216 69.996474 
L 360.369066 73.333478 
L 364.540322 75.181121 
L 373.675004 81.756844 
L 376.457894 83.542592 
L 383.658393 89.06459 
L 386.320672 91.119385 
L 388.375467 93.021667 
L 399.144196 102.131006 
L 400.293039 103.302026 
L 409.865081 112.899735 
L 410.616611 113.856135 
L 412.210612 116.356785 
L 418.03571 123.705763 
L 420.294145 127.200822 
L 421.934597 131.090416 
L 422.461732 132.634432 
L 423.417355 136.73488 
L 423.570619 141.278883 
L 423.54734 141.734247 
L 422.801636 146.268938 
L 420.674053 151.347003 
L 417.060564 157.660054 
L 415.061369 160.570025 
L 413.600279 161.959693 
L 412.210612 162.957055 
L 402.121422 174.315981 
L 400.293039 175.908455 
L 390.88115 184.40517 
L 389.438616 185.46832 
L 388.375467 186.144067 
L 381.851458 190.929178 
L 376.457894 194.815624 
L 375.557469 195.422318 
L 373.93725 196.322742 
L 360.077758 203.777751 
L 352.622749 206.822382 
L 348.003825 208.240315 
L 345.849924 208.869846 
L 345.005782 209.017687 
L 338.321662 210.316864 
L 334.570789 210.780703 
L 332.527386 210.808432 
L 328.787604 211.038791 
L 325.14813 211.059202 
L 322.989586 210.817789 
L 319.253546 210.638832 
L 313.117264 209.930751 
L 311.346405 209.501311 
L 304.952459 208.401547 
L 304.337405 208.240315 
L 295.475037 205.800165 
L 289.463369 204.668797 
L 281.117314 202.1327 
L 276.887145 200.552912 
L 269.199742 198.289369 
L 257.806889 195.798023 
L 257.282169 195.719607 
L 256.881852 195.655547 
L 245.209293 192.609058 
L 242.981082 192.290954 
L 241.271031 192.047615 
L 235.686621 190.723752 
L 233.447024 190.434502 
L 230.968834 190.127267 
L 226.750593 189.228676 
L 223.912967 188.914454 
L 219.16899 188.416115 
L 214.821308 187.640362 
L 209.61188 187.188863 
L 199.758777 186.46964 
L 196.082096 186.017381 
L 185.776735 185.525499 
L 174.650033 185.196041 
L 173.150502 185.11383 
L 161.94159 185.011461 
L 150.743168 185.124321 
L 150.024017 185.092534 
L 149.287732 185.141455 
L 138.106445 185.487597 
L 127.819848 186.036145 
L 124.267574 186.326469 
L 114.2713 187.133699 
L 105.984161 188.035604 
L 97.333148 189.425749 
L 90.436155 190.453548 
L 85.486149 191.372736 
L 66.835111 196.088641 
L 66.60101 196.145719 
L 66.464311 196.186043 
L 54.683437 198.936593 
L 48.133981 201.690858 
L 42.765865 203.445787 
" clip-path="url(#pfc002c8f11)" style="fill: none; stroke: #263238; stroke-width: 0.55"/>
   </g>
   <g id="patch_3">
    <path d="M 42.765865 232.07546 
L 42.765865 41.3943 
" style="fill: none; stroke: #000000; stroke-width: 0.8; stroke-linejoin: miter; stroke-linecap: square"/>
   </g>
   <g id="patch_4">
    <path d="M 424.128184 232.07546 
L 424.128184 41.3943 
" style="fill: none; stroke: #000000; stroke-width: 0.8; stroke-linejoin: miter; stroke-linecap: square"/>
   </g>
   <g id="patch_5">
    <path d="M 42.765865 232.07546 
L 424.128184 232.07546 
" style="fill: none; stroke: #000000; stroke-width: 0.8; stroke-linejoin: miter; stroke-linecap: square"/>
   </g>
   <g id="patch_6">
    <path d="M 42.765865 41.3943 
L 424.128184 41.3943 
" style="fill: none; stroke: #000000; stroke-width: 0.8; stroke-linejoin: miter; stroke-linecap: square"/>
   </g>
   <g id="text_21">
    <!-- CalculiX C3D20R — Mode 7: 143.49 Hz -->
    <g transform="translate(116.652337 35.3943) scale(0.12 -0.12)">
     <defs>
      <path id="DejaVuSans-43" d="M 4122 4306 
L 4122 3641 
Q 3803 3938 3442 4084 
Q 3081 4231 2675 4231 
Q 1875 4231 1450 3742 
Q 1025 3253 1025 2328 
Q 1025 1406 1450 917 
Q 1875 428 2675 428 
Q 3081 428 3442 575 
Q 3803 722 4122 1019 
L 4122 359 
Q 3791 134 3420 21 
Q 3050 -91 2638 -91 
Q 1578 -91 968 557 
Q 359 1206 359 2328 
Q 359 3453 968 4101 
Q 1578 4750 2638 4750 
Q 3056 4750 3426 4639 
Q 3797 4528 4122 4306 
z
" transform="scale(0.015625)"/>
      <path id="DejaVuSans-61" d="M 2194 1759 
Q 1497 1759 1228 1600 
Q 959 1441 959 1056 
Q 959 750 1161 570 
Q 1363 391 1709 391 
Q 2188 391 2477 730 
Q 2766 1069 2766 1631 
L 2766 1759 
L 2194 1759 
z
M 3341 1997 
L 3341 0 
L 2766 0 
L 2766 531 
Q 2569 213 2275 61 
Q 1981 -91 1556 -91 
Q 1019 -91 701 211 
Q 384 513 384 1019 
Q 384 1609 779 1909 
Q 1175 2209 1959 2209 
L 2766 2209 
L 2766 2266 
Q 2766 2663 2505 2880 
Q 2244 3097 1772 3097 
Q 1472 3097 1187 3025 
Q 903 2953 641 2809 
L 641 3341 
Q 956 3463 1253 3523 
Q 1550 3584 1831 3584 
Q 2591 3584 2966 3190 
Q 3341 2797 3341 1997 
z
" transform="scale(0.015625)"/>
      <path id="DejaVuSans-6c" d="M 603 4863 
L 1178 4863 
L 1178 0 
L 603 0 
L 603 4863 
z
" transform="scale(0.015625)"/>
      <path id="DejaVuSans-63" d="M 3122 3366 
L 3122 2828 
Q 2878 2963 2633 3030 
Q 2388 3097 2138 3097 
Q 1578 3097 1268 2742 
Q 959 2388 959 1747 
Q 959 1106 1268 751 
Q 1578 397 2138 397 
Q 2388 397 2633 464 
Q 2878 531 3122 666 
L 3122 134 
Q 2881 22 2623 -34 
Q 2366 -91 2075 -91 
Q 1284 -91 818 406 
Q 353 903 353 1747 
Q 353 2603 823 3093 
Q 1294 3584 2113 3584 
Q 2378 3584 2631 3529 
Q 2884 3475 3122 3366 
z
" transform="scale(0.015625)"/>
      <path id="DejaVuSans-75" d="M 544 1381 
L 544 3500 
L 1119 3500 
L 1119 1403 
Q 1119 906 1312 657 
Q 1506 409 1894 409 
Q 2359 409 2629 706 
Q 2900 1003 2900 1516 
L 2900 3500 
L 3475 3500 
L 3475 0 
L 2900 0 
L 2900 538 
Q 2691 219 2414 64 
Q 2138 -91 1772 -91 
Q 1169 -91 856 284 
Q 544 659 544 1381 
z
M 1991 3584 
L 1991 3584 
z
" transform="scale(0.015625)"/>
      <path id="DejaVuSans-69" d="M 603 3500 
L 1178 3500 
L 1178 0 
L 603 0 
L 603 3500 
z
M 603 4863 
L 1178 4863 
L 1178 4134 
L 603 4134 
L 603 4863 
z
" transform="scale(0.015625)"/>
      <path id="DejaVuSans-58" d="M 403 4666 
L 1081 4666 
L 2241 2931 
L 3406 4666 
L 4084 4666 
L 2584 2425 
L 4184 0 
L 3506 0 
L 2194 1984 
L 872 0 
L 191 0 
L 1856 2491 
L 403 4666 
z
" transform="scale(0.015625)"/>
      <path id="DejaVuSans-44" d="M 1259 4147 
L 1259 519 
L 2022 519 
Q 2988 519 3436 956 
Q 3884 1394 3884 2338 
Q 3884 3275 3436 3711 
Q 2988 4147 2022 4147 
L 1259 4147 
z
M 628 4666 
L 1925 4666 
Q 3281 4666 3915 4102 
Q 4550 3538 4550 2338 
Q 4550 1131 3912 565 
Q 3275 0 1925 0 
L 628 0 
L 628 4666 
z
" transform="scale(0.015625)"/>
      <path id="DejaVuSans-52" d="M 2841 2188 
Q 3044 2119 3236 1894 
Q 3428 1669 3622 1275 
L 4263 0 
L 3584 0 
L 2988 1197 
Q 2756 1666 2539 1819 
Q 2322 1972 1947 1972 
L 1259 1972 
L 1259 0 
L 628 0 
L 628 4666 
L 2053 4666 
Q 2853 4666 3247 4331 
Q 3641 3997 3641 3322 
Q 3641 2881 3436 2590 
Q 3231 2300 2841 2188 
z
M 1259 4147 
L 1259 2491 
L 2053 2491 
Q 2509 2491 2742 2702 
Q 2975 2913 2975 3322 
Q 2975 3731 2742 3939 
Q 2509 4147 2053 4147 
L 1259 4147 
z
" transform="scale(0.015625)"/>
      <path id="DejaVuSans-2014" d="M 313 1978 
L 6088 1978 
L 6088 1528 
L 313 1528 
L 313 1978 
z
" transform="scale(0.015625)"/>
      <path id="DejaVuSans-4d" d="M 628 4666 
L 1569 4666 
L 2759 1491 
L 3956 4666 
L 4897 4666 
L 4897 0 
L 4281 0 
L 4281 4097 
L 3078 897 
L 2444 897 
L 1241 4097 
L 1241 0 
L 628 0 
L 628 4666 
z
" transform="scale(0.015625)"/>
      <path id="DejaVuSans-6f" d="M 1959 3097 
Q 1497 3097 1228 2736 
Q 959 2375 959 1747 
Q 959 1119 1226 758 
Q 1494 397 1959 397 
Q 2419 397 2687 759 
Q 2956 1122 2956 1747 
Q 2956 2369 2687 2733 
Q 2419 3097 1959 3097 
z
M 1959 3584 
Q 2709 3584 3137 3096 
Q 3566 2609 3566 1747 
Q 3566 888 3137 398 
Q 2709 -91 1959 -91 
Q 1206 -91 779 398 
Q 353 888 353 1747 
Q 353 2609 779 3096 
Q 1206 3584 1959 3584 
z
" transform="scale(0.015625)"/>
      <path id="DejaVuSans-64" d="M 2906 2969 
L 2906 4863 
L 3481 4863 
L 3481 0 
L 2906 0 
L 2906 525 
Q 2725 213 2448 61 
Q 2172 -91 1784 -91 
Q 1150 -91 751 415 
Q 353 922 353 1747 
Q 353 2572 751 3078 
Q 1150 3584 1784 3584 
Q 2172 3584 2448 3432 
Q 2725 3281 2906 2969 
z
M 947 1747 
Q 947 1113 1208 752 
Q 1469 391 1925 391 
Q 2381 391 2643 752 
Q 2906 1113 2906 1747 
Q 2906 2381 2643 2742 
Q 2381 3103 1925 3103 
Q 1469 3103 1208 2742 
Q 947 2381 947 1747 
z
" transform="scale(0.015625)"/>
      <path id="DejaVuSans-65" d="M 3597 1894 
L 3597 1613 
L 953 1613 
Q 991 1019 1311 708 
Q 1631 397 2203 397 
Q 2534 397 2845 478 
Q 3156 559 3463 722 
L 3463 178 
Q 3153 47 2828 -22 
Q 2503 -91 2169 -91 
Q 1331 -91 842 396 
Q 353 884 353 1716 
Q 353 2575 817 3079 
Q 1281 3584 2069 3584 
Q 2775 3584 3186 3129 
Q 3597 2675 3597 1894 
z
M 3022 2063 
Q 3016 2534 2758 2815 
Q 2500 3097 2075 3097 
Q 1594 3097 1305 2825 
Q 1016 2553 972 2059 
L 3022 2063 
z
" transform="scale(0.015625)"/>
      <path id="DejaVuSans-3a" d="M 750 794 
L 1409 794 
L 1409 0 
L 750 0 
L 750 794 
z
M 750 3309 
L 1409 3309 
L 1409 2516 
L 750 2516 
L 750 3309 
z
" transform="scale(0.015625)"/>
      <path id="DejaVuSans-2e" d="M 684 794 
L 1344 794 
L 1344 0 
L 684 0 
L 684 794 
z
" transform="scale(0.015625)"/>
      <path id="DejaVuSans-39" d="M 703 97 
L 703 672 
Q 941 559 1184 500 
Q 1428 441 1663 441 
Q 2288 441 2617 861 
Q 2947 1281 2994 2138 
Q 2813 1869 2534 1725 
Q 2256 1581 1919 1581 
Q 1219 1581 811 2004 
Q 403 2428 403 3163 
Q 403 3881 828 4315 
Q 1253 4750 1959 4750 
Q 2769 4750 3195 4129 
Q 3622 3509 3622 2328 
Q 3622 1225 3098 567 
Q 2575 -91 1691 -91 
Q 1453 -91 1209 -44 
Q 966 3 703 97 
z
M 1959 2075 
Q 2384 2075 2632 2365 
Q 2881 2656 2881 3163 
Q 2881 3666 2632 3958 
Q 2384 4250 1959 4250 
Q 1534 4250 1286 3958 
Q 1038 3666 1038 3163 
Q 1038 2656 1286 2365 
Q 1534 2075 1959 2075 
z
" transform="scale(0.015625)"/>
      <path id="DejaVuSans-48" d="M 628 4666 
L 1259 4666 
L 1259 2753 
L 3553 2753 
L 3553 4666 
L 4184 4666 
L 4184 0 
L 3553 0 
L 3553 2222 
L 1259 2222 
L 1259 0 
L 628 0 
L 628 4666 
z
" transform="scale(0.015625)"/>
      <path id="DejaVuSans-7a" d="M 353 3500 
L 3084 3500 
L 3084 2975 
L 922 459 
L 3084 459 
L 3084 0 
L 275 0 
L 275 525 
L 2438 3041 
L 353 3041 
L 353 3500 
z
" transform="scale(0.015625)"/>
     </defs>
     <use xlink:href="#DejaVuSans-43"/>
     <use xlink:href="#DejaVuSans-61" x="69.824219"/>
     <use xlink:href="#DejaVuSans-6c" x="131.103516"/>
     <use xlink:href="#DejaVuSans-63" x="158.886719"/>
     <use xlink:href="#DejaVuSans-75" x="213.867188"/>
     <use xlink:href="#DejaVuSans-6c" x="277.246094"/>
     <use xlink:href="#DejaVuSans-69" x="305.029297"/>
     <use xlink:href="#DejaVuSans-58" x="332.8125"/>
     <use xlink:href="#DejaVuSans-20" x="401.318359"/>
     <use xlink:href="#DejaVuSans-43" x="433.105469"/>
     <use xlink:href="#DejaVuSans-33" x="502.929688"/>
     <use xlink:href="#DejaVuSans-44" x="566.552734"/>
     <use xlink:href="#DejaVuSans-32" x="643.554688"/>
     <use xlink:href="#DejaVuSans-30" x="707.177734"/>
     <use xlink:href="#DejaVuSans-52" x="770.800781"/>
     <use xlink:href="#DejaVuSans-20" x="840.283203"/>
     <use xlink:href="#DejaVuSans-2014" x="872.070312"/>
     <use xlink:href="#DejaVuSans-20" x="972.070312"/>
     <use xlink:href="#DejaVuSans-4d" x="1003.857422"/>
     <use xlink:href="#DejaVuSans-6f" x="1090.136719"/>
     <use xlink:href="#DejaVuSans-64" x="1151.318359"/>
     <use xlink:href="#DejaVuSans-65" x="1214.794922"/>
     <use xlink:href="#DejaVuSans-20" x="1276.318359"/>
     <use xlink:href="#DejaVuSans-37" x="1308.105469"/>
     <use xlink:href="#DejaVuSans-3a" x="1371.728516"/>
     <use xlink:href="#DejaVuSans-20" x="1405.419922"/>
     <use xlink:href="#DejaVuSans-31" x="1437.207031"/>
     <use xlink:href="#DejaVuSans-34" x="1500.830078"/>
     <use xlink:href="#DejaVuSans-33" x="1564.453125"/>
     <use xlink:href="#DejaVuSans-2e" x="1628.076172"/>
     <use xlink:href="#DejaVuSans-34" x="1659.863281"/>
     <use xlink:href="#DejaVuSans-39" x="1723.486328"/>
     <use xlink:href="#DejaVuSans-20" x="1787.109375"/>
     <use xlink:href="#DejaVuSans-48" x="1818.896484"/>
     <use xlink:href="#DejaVuSans-7a" x="1894.091797"/>
    </g>
   </g>
  </g>
  <g id="axes_2">
   <g id="patch_7">
    <path d="M 452.74005 231.564898 
L 463.171352 231.564898 
L 463.171352 41.904863 
L 452.74005 41.904863 
z
" style="fill: #ffffff"/>
   </g>
   <g id="patch_8">
    <path clip-path="url(#p1b7d4ebfca)" style="fill: #ffffff; stroke: #ffffff; stroke-width: 0.01; stroke-linejoin: miter"/>
   </g>
   <g id="patch_9">
    <path d="M 452.74005 231.564898 
L 457.955701 241.047899 
L 463.171352 231.564898 
" style="fill: #053061"/>
   </g>
   <g id="patch_10">
    <path d="M 452.74005 41.904863 
L 457.955701 32.421861 
L 463.171352 41.904863 
" style="fill: #67001f"/>
   </g>
   <g id="QuadMesh_1">
    <path d="M 452.74005 231.564898 
L 463.171352 231.564898 
L 463.171352 219.711145 
L 452.74005 219.711145 
L 452.74005 231.564898 
" clip-path="url(#p1b7d4ebfca)" style="fill: #0e4179"/>
    <path d="M 452.74005 219.711145 
L 463.171352 219.711145 
L 463.171352 207.857393 
L 452.74005 207.857393 
L 452.74005 219.711145 
" clip-path="url(#p1b7d4ebfca)" style="fill: #1f63a8"/>
    <path d="M 452.74005 207.857393 
L 463.171352 207.857393 
L 463.171352 196.003641 
L 452.74005 196.003641 
L 452.74005 207.857393 
" clip-path="url(#p1b7d4ebfca)" style="fill: #3480b9"/>
    <path d="M 452.74005 196.003641 
L 463.171352 196.003641 
L 463.171352 184.149889 
L 452.74005 184.149889 
L 452.74005 196.003641 
" clip-path="url(#p1b7d4ebfca)" style="fill: #529dc8"/>
    <path d="M 452.74005 184.149889 
L 463.171352 184.149889 
L 463.171352 172.296137 
L 452.74005 172.296137 
L 452.74005 184.149889 
" clip-path="url(#p1b7d4ebfca)" style="fill: #84bcd9"/>
    <path d="M 452.74005 172.296137 
L 463.171352 172.296137 
L 463.171352 160.442384 
L 452.74005 160.442384 
L 452.74005 172.296137 
" clip-path="url(#p1b7d4ebfca)" style="fill: #aed3e6"/>
    <path d="M 452.74005 160.442384 
L 463.171352 160.442384 
L 463.171352 148.588632 
L 452.74005 148.588632 
L 452.74005 160.442384 
" clip-path="url(#p1b7d4ebfca)" style="fill: #d4e6f1"/>
    <path d="M 452.74005 148.588632 
L 463.171352 148.588632 
L 463.171352 136.73488 
L 452.74005 136.73488 
L 452.74005 148.588632 
" clip-path="url(#p1b7d4ebfca)" style="fill: #ecf2f5"/>
    <path d="M 452.74005 136.73488 
L 463.171352 136.73488 
L 463.171352 124.881128 
L 452.74005 124.881128 
L 452.74005 136.73488 
" clip-path="url(#p1b7d4ebfca)" style="fill: #f9eee7"/>
    <path d="M 452.74005 124.881128 
L 463.171352 124.881128 
L 463.171352 113.027376 
L 452.74005 113.027376 
L 452.74005 124.881128 
" clip-path="url(#p1b7d4ebfca)" style="fill: #fddcc9"/>
    <path d="M 452.74005 113.027376 
L 463.171352 113.027376 
L 463.171352 101.173624 
L 452.74005 101.173624 
L 452.74005 113.027376 
" clip-path="url(#p1b7d4ebfca)" style="fill: #f8bb9e"/>
    <path d="M 452.74005 101.173624 
L 463.171352 101.173624 
L 463.171352 89.319871 
L 452.74005 89.319871 
L 452.74005 101.173624 
" clip-path="url(#p1b7d4ebfca)" style="fill: #ee9677"/>
    <path d="M 452.74005 89.319871 
L 463.171352 89.319871 
L 463.171352 77.466119 
L 452.74005 77.466119 
L 452.74005 89.319871 
" clip-path="url(#p1b7d4ebfca)" style="fill: #db6b55"/>
    <path d="M 452.74005 77.466119 
L 463.171352 77.466119 
L 463.171352 65.612367 
L 452.74005 65.612367 
L 452.74005 77.466119 
" clip-path="url(#p1b7d4ebfca)" style="fill: #c53e3d"/>
    <path d="M 452.74005 65.612367 
L 463.171352 65.612367 
L 463.171352 53.758615 
L 452.74005 53.758615 
L 452.74005 65.612367 
" clip-path="url(#p1b7d4ebfca)" style="fill: #ab162a"/>
    <path d="M 452.74005 53.758615 
L 463.171352 53.758615 
L 463.171352 41.904863 
L 452.74005 41.904863 
L 452.74005 53.758615 
" clip-path="url(#p1b7d4ebfca)" style="fill: #7c0722"/>
   </g>
   <g id="matplotlib.axis_3"/>
   <g id="matplotlib.axis_4">
    <g id="ytick_10">
     <g id="line2d_19">
      <defs>
       <path id="mff6afb8195" d="M 0 0 
L 3.5 0 
" style="stroke: #000000; stroke-width: 0.8"/>
      </defs>
      <g>
       <use xlink:href="#mff6afb8195" x="463.171352" y="231.564898" style="stroke: #000000; stroke-width: 0.8"/>
      </g>
     </g>
     <g id="text_22">
      <!-- −1.00 -->
      <g transform="translate(470.171352 235.364116) scale(0.1 -0.1)">
       <defs>
        <path id="DejaVuSans-2212" d="M 678 2272 
L 4684 2272 
L 4684 1741 
L 678 1741 
L 678 2272 
z
" transform="scale(0.015625)"/>
       </defs>
       <use xlink:href="#DejaVuSans-2212"/>
       <use xlink:href="#DejaVuSans-31" x="83.789062"/>
       <use xlink:href="#DejaVuSans-2e" x="147.412109"/>
       <use xlink:href="#DejaVuSans-30" x="179.199219"/>
       <use xlink:href="#DejaVuSans-30" x="242.822266"/>
      </g>
     </g>
    </g>
    <g id="ytick_11">
     <g id="line2d_20">
      <g>
       <use xlink:href="#mff6afb8195" x="463.171352" y="207.857393" style="stroke: #000000; stroke-width: 0.8"/>
      </g>
     </g>
     <g id="text_23">
      <!-- −0.75 -->
      <g transform="translate(470.171352 211.656612) scale(0.1 -0.1)">
       <use xlink:href="#DejaVuSans-2212"/>
       <use xlink:href="#DejaVuSans-30" x="83.789062"/>
       <use xlink:href="#DejaVuSans-2e" x="147.412109"/>
       <use xlink:href="#DejaVuSans-37" x="179.199219"/>
       <use xlink:href="#DejaVuSans-35" x="242.822266"/>
      </g>
     </g>
    </g>
    <g id="ytick_12">
     <g id="line2d_21">
      <g>
       <use xlink:href="#mff6afb8195" x="463.171352" y="184.149889" style="stroke: #000000; stroke-width: 0.8"/>
      </g>
     </g>
     <g id="text_24">
      <!-- −0.50 -->
      <g transform="translate(470.171352 187.949108) scale(0.1 -0.1)">
       <use xlink:href="#DejaVuSans-2212"/>
       <use xlink:href="#DejaVuSans-30" x="83.789062"/>
       <use xlink:href="#DejaVuSans-2e" x="147.412109"/>
       <use xlink:href="#DejaVuSans-35" x="179.199219"/>
       <use xlink:href="#DejaVuSans-30" x="242.822266"/>
      </g>
     </g>
    </g>
    <g id="ytick_13">
     <g id="line2d_22">
      <g>
       <use xlink:href="#mff6afb8195" x="463.171352" y="160.442384" style="stroke: #000000; stroke-width: 0.8"/>
      </g>
     </g>
     <g id="text_25">
      <!-- −0.25 -->
      <g transform="translate(470.171352 164.241603) scale(0.1 -0.1)">
       <use xlink:href="#DejaVuSans-2212"/>
       <use xlink:href="#DejaVuSans-30" x="83.789062"/>
       <use xlink:href="#DejaVuSans-2e" x="147.412109"/>
       <use xlink:href="#DejaVuSans-32" x="179.199219"/>
       <use xlink:href="#DejaVuSans-35" x="242.822266"/>
      </g>
     </g>
    </g>
    <g id="ytick_14">
     <g id="line2d_23">
      <g>
       <use xlink:href="#mff6afb8195" x="463.171352" y="136.73488" style="stroke: #000000; stroke-width: 0.8"/>
      </g>
     </g>
     <g id="text_26">
      <!-- 0.00 -->
      <g transform="translate(470.171352 140.534099) scale(0.1 -0.1)">
       <use xlink:href="#DejaVuSans-30"/>
       <use xlink:href="#DejaVuSans-2e" x="63.623047"/>
       <use xlink:href="#DejaVuSans-30" x="95.410156"/>
       <use xlink:href="#DejaVuSans-30" x="159.033203"/>
      </g>
     </g>
    </g>
    <g id="ytick_15">
     <g id="line2d_24">
      <g>
       <use xlink:href="#mff6afb8195" x="463.171352" y="113.027376" style="stroke: #000000; stroke-width: 0.8"/>
      </g>
     </g>
     <g id="text_27">
      <!-- 0.25 -->
      <g transform="translate(470.171352 116.826594) scale(0.1 -0.1)">
       <use xlink:href="#DejaVuSans-30"/>
       <use xlink:href="#DejaVuSans-2e" x="63.623047"/>
       <use xlink:href="#DejaVuSans-32" x="95.410156"/>
       <use xlink:href="#DejaVuSans-35" x="159.033203"/>
      </g>
     </g>
    </g>
    <g id="ytick_16">
     <g id="line2d_25">
      <g>
       <use xlink:href="#mff6afb8195" x="463.171352" y="89.319871" style="stroke: #000000; stroke-width: 0.8"/>
      </g>
     </g>
     <g id="text_28">
      <!-- 0.50 -->
      <g transform="translate(470.171352 93.11909) scale(0.1 -0.1)">
       <use xlink:href="#DejaVuSans-30"/>
       <use xlink:href="#DejaVuSans-2e" x="63.623047"/>
       <use xlink:href="#DejaVuSans-35" x="95.410156"/>
       <use xlink:href="#DejaVuSans-30" x="159.033203"/>
      </g>
     </g>
    </g>
    <g id="ytick_17">
     <g id="line2d_26">
      <g>
       <use xlink:href="#mff6afb8195" x="463.171352" y="65.612367" style="stroke: #000000; stroke-width: 0.8"/>
      </g>
     </g>
     <g id="text_29">
      <!-- 0.75 -->
      <g transform="translate(470.171352 69.411586) scale(0.1 -0.1)">
       <use xlink:href="#DejaVuSans-30"/>
       <use xlink:href="#DejaVuSans-2e" x="63.623047"/>
       <use xlink:href="#DejaVuSans-37" x="95.410156"/>
       <use xlink:href="#DejaVuSans-35" x="159.033203"/>
      </g>
     </g>
    </g>
    <g id="ytick_18">
     <g id="line2d_27">
      <g>
       <use xlink:href="#mff6afb8195" x="463.171352" y="41.904863" style="stroke: #000000; stroke-width: 0.8"/>
      </g>
     </g>
     <g id="text_30">
      <!-- 1.00 -->
      <g transform="translate(470.171352 45.704081) scale(0.1 -0.1)">
       <use xlink:href="#DejaVuSans-31"/>
       <use xlink:href="#DejaVuSans-2e" x="63.623047"/>
       <use xlink:href="#DejaVuSans-30" x="95.410156"/>
       <use xlink:href="#DejaVuSans-30" x="159.033203"/>
      </g>
     </g>
    </g>
    <g id="text_31">
     <!-- normalized z displacement -->
     <g transform="translate(512.415102 204.017693) rotate(-90) scale(0.1 -0.1)">
      <defs>
       <path id="DejaVuSans-6e" d="M 3513 2113 
L 3513 0 
L 2938 0 
L 2938 2094 
Q 2938 2591 2744 2837 
Q 2550 3084 2163 3084 
Q 1697 3084 1428 2787 
Q 1159 2491 1159 1978 
L 1159 0 
L 581 0 
L 581 3500 
L 1159 3500 
L 1159 2956 
Q 1366 3272 1645 3428 
Q 1925 3584 2291 3584 
Q 2894 3584 3203 3211 
Q 3513 2838 3513 2113 
z
" transform="scale(0.015625)"/>
       <path id="DejaVuSans-72" d="M 2631 2963 
Q 2534 3019 2420 3045 
Q 2306 3072 2169 3072 
Q 1681 3072 1420 2755 
Q 1159 2438 1159 1844 
L 1159 0 
L 581 0 
L 581 3500 
L 1159 3500 
L 1159 2956 
Q 1341 3275 1631 3429 
Q 1922 3584 2338 3584 
Q 2397 3584 2469 3576 
Q 2541 3569 2628 3553 
L 2631 2963 
z
" transform="scale(0.015625)"/>
       <path id="DejaVuSans-73" d="M 2834 3397 
L 2834 2853 
Q 2591 2978 2328 3040 
Q 2066 3103 1784 3103 
Q 1356 3103 1142 2972 
Q 928 2841 928 2578 
Q 928 2378 1081 2264 
Q 1234 2150 1697 2047 
L 1894 2003 
Q 2506 1872 2764 1633 
Q 3022 1394 3022 966 
Q 3022 478 2636 193 
Q 2250 -91 1575 -91 
Q 1294 -91 989 -36 
Q 684 19 347 128 
L 347 722 
Q 666 556 975 473 
Q 1284 391 1588 391 
Q 1994 391 2212 530 
Q 2431 669 2431 922 
Q 2431 1156 2273 1281 
Q 2116 1406 1581 1522 
L 1381 1569 
Q 847 1681 609 1914 
Q 372 2147 372 2553 
Q 372 3047 722 3315 
Q 1072 3584 1716 3584 
Q 2034 3584 2315 3537 
Q 2597 3491 2834 3397 
z
" transform="scale(0.015625)"/>
       <path id="DejaVuSans-70" d="M 1159 525 
L 1159 -1331 
L 581 -1331 
L 581 3500 
L 1159 3500 
L 1159 2969 
Q 1341 3281 1617 3432 
Q 1894 3584 2278 3584 
Q 2916 3584 3314 3078 
Q 3713 2572 3713 1747 
Q 3713 922 3314 415 
Q 2916 -91 2278 -91 
Q 1894 -91 1617 61 
Q 1341 213 1159 525 
z
M 3116 1747 
Q 3116 2381 2855 2742 
Q 2594 3103 2138 3103 
Q 1681 3103 1420 2742 
Q 1159 2381 1159 1747 
Q 1159 1113 1420 752 
Q 1681 391 2138 391 
Q 2594 391 2855 752 
Q 3116 1113 3116 1747 
z
" transform="scale(0.015625)"/>
       <path id="DejaVuSans-74" d="M 1172 4494 
L 1172 3500 
L 2356 3500 
L 2356 3053 
L 1172 3053 
L 1172 1153 
Q 1172 725 1289 603 
Q 1406 481 1766 481 
L 2356 481 
L 2356 0 
L 1766 0 
Q 1100 0 847 248 
Q 594 497 594 1153 
L 594 3053 
L 172 3053 
L 172 3500 
L 594 3500 
L 594 4494 
L 1172 4494 
z
" transform="scale(0.015625)"/>
      </defs>
      <use xlink:href="#DejaVuSans-6e"/>
      <use xlink:href="#DejaVuSans-6f" x="63.378906"/>
      <use xlink:href="#DejaVuSans-72" x="124.560547"/>
      <use xlink:href="#DejaVuSans-6d" x="163.923828"/>
      <use xlink:href="#DejaVuSans-61" x="261.335938"/>
      <use xlink:href="#DejaVuSans-6c" x="322.615234"/>
      <use xlink:href="#DejaVuSans-69" x="350.398438"/>
      <use xlink:href="#DejaVuSans-7a" x="378.181641"/>
      <use xlink:href="#DejaVuSans-65" x="430.671875"/>
      <use xlink:href="#DejaVuSans-64" x="492.195312"/>
      <use xlink:href="#DejaVuSans-20" x="555.671875"/>
      <use xlink:href="#DejaVuSans-7a" x="587.458984"/>
      <use xlink:href="#DejaVuSans-20" x="639.949219"/>
      <use xlink:href="#DejaVuSans-64" x="671.736328"/>
      <use xlink:href="#DejaVuSans-69" x="735.212891"/>
      <use xlink:href="#DejaVuSans-73" x="762.996094"/>
      <use xlink:href="#DejaVuSans-70" x="815.095703"/>
      <use xlink:href="#DejaVuSans-6c" x="878.572266"/>
      <use xlink:href="#DejaVuSans-61" x="906.355469"/>
      <use xlink:href="#DejaVuSans-63" x="967.634766"/>
      <use xlink:href="#DejaVuSans-65" x="1022.615234"/>
      <use xlink:href="#DejaVuSans-6d" x="1084.138672"/>
      <use xlink:href="#DejaVuSans-65" x="1181.550781"/>
      <use xlink:href="#DejaVuSans-6e" x="1243.074219"/>
      <use xlink:href="#DejaVuSans-74" x="1306.453125"/>
     </g>
    </g>
   </g>
   <g id="LineCollection_1"/>
   <g id="patch_11">
    <path d="M 452.74005 231.564898 
L 457.955701 241.047899 
L 463.171352 231.564898 
L 463.171352 41.904863 
L 457.955701 32.421861 
L 452.74005 41.904863 
L 452.74005 231.564898 
z
" style="fill: none; stroke: #000000; stroke-width: 0.8; stroke-linejoin: miter; stroke-linecap: square"/>
   </g>
  </g>
 </g>
 <defs>
  <clipPath id="pfc002c8f11">
   <rect x="42.765865" y="41.3943" width="381.362319" height="190.681159"/>
  </clipPath>
  <clipPath id="p1b7d4ebfca">
   <rect x="452.74005" y="41.904863" width="10.431302" height="189.660035"/>
  </clipPath>
 </defs>
 <defs>
  <pattern id="h58dade82ac" patternUnits="userSpaceOnUse" x="0" y="0" width="72" height="72">
   <rect x="0" y="0" width="73" height="73" fill="#333333"/>
   <path d="M -36 36 
L 36 -36 
M -33 39 
L 39 -33 
M -30 42 
L 42 -30 
M -27 45 
L 45 -27 
M -24 48 
L 48 -24 
M -21 51 
L 51 -21 
M -18 54 
L 54 -18 
M -15 57 
L 57 -15 
M -12 60 
L 60 -12 
M -9 63 
L 63 -9 
M -6 66 
L 66 -6 
M -3 69 
L 69 -3 
M 0 72 
L 72 0 
M 3 75 
L 75 3 
M 6 78 
L 78 6 
M 9 81 
L 81 9 
M 12 84 
L 84 12 
M 15 87 
L 87 15 
M 18 90 
L 90 18 
M 21 93 
L 93 21 
M 24 96 
L 96 24 
M 27 99 
L 99 27 
M 30 102 
L 102 30 
M 33 105 
L 105 33 
M 36 108 
L 108 36 
" style="fill: #333333; stroke: #333333; stroke-width: 1.0; stroke-linecap: butt; stroke-linejoin: miter; stroke-opacity: 0.3"/>
  </pattern>
 </defs>
</svg>
