<?xml version="1.0" encoding="utf-8" standalone="no"?>
<!DOCTYPE svg PUBLIC "-//W3C//DTD SVG 1.1//EN"
  "http://www.w3.org/Graphics/SVG/1.1/DTD/svg11.dtd">
<svg xmlns:xlink="http://www.w3.org/1999/xlink" width="518.4pt" height="273.6pt" viewBox="0 0 518.4 273.6" xmlns="http://www.w3.org/2000/svg" version="1.1">
 <metadata>
  <rdf:RDF xmlns:dc="http://purl.org/dc/elements/1.1/" xmlns:cc="http://creativecommons.org/ns#" xmlns:rdf="http://www.w3.org/1999/02/22-rdf-syntax-ns#">
   <cc:Work>
    <dc:type rdf:resource="http://purl.org/dc/dcmitype/StillImage"/>
    <dc:format>image/svg+xml</dc:format>
    <dc:creator>
     <cc:Agent>
      <dc:title>Matplotlib v3.6.3, https://matplotlib.org/</dc:title>
     </cc:Agent>
    </dc:creator>
   </cc:Work>
  </rdf:RDF>
 </metadata>
 <defs>
  <style type="text/css">*{stroke-linejoin: round; stroke-linecap: butt}</style>
 </defs>
 <g id="figure_1">
  <g id="patch_1">
   <path d="M 0 273.6 
L 518.4 273.6 
L 518.4 0 
L 0 0 
z
" style="fill: #ffffff"/>
  </g>
  <g id="axes_1">
   <g id="patch_2">
    <path d="M 42.765865 232.07546 
L 424.128184 232.07546 
L 424.128184 41.3943 
L 42.765865 41.3943 
z
" style="fill: #ffffff"/>
   </g>
   <g id="PathCollection_1">
    <path clip-path="url(#p31dddcc43c)" style="fill: #053061"/>
   </g>
   <g id="PathCollection_2">
    <path clip-path="url(#p31dddcc43c)" style="fill: #0e4179"/>
   </g>
   <g id="PathCollection_3">
    <path clip-path="url(#p31dddcc43c)" style="fill: #1f63a8"/>
   </g>
   <g id="PathCollection_4">
    <path clip-path="url(#p31dddcc43c)" style="fill: #3480b9"/>
   </g>
   <g id="PathCollection_5">
    <path clip-path="url(#p31dddcc43c)" style="fill: #529dc8"/>
   </g>
   <g id="PathCollection_6">
    <path clip-path="url(#p31dddcc43c)" style="fill: #84bcd9"/>
   </g>
   <g id="PathCollection_7">
    <path clip-path="url(#p31dddcc43c)" style="fill: #aed3e6"/>
   </g>
   <g id="PathCollection_8">
    <path clip-path="url(#p31dddcc43c)" style="fill: #d4e6f1"/>
   </g>
   <g id="PathCollection_9">
    <path d="M 233.447024 41.3943 
L 233.447024 43.777815 
L 233.447024 46.161329 
L 233.447024 48.544844 
L 228.679996 47.961851 
L 227.751649 46.625503 
L 223.912967 46.297933 
L 223.758845 46.161329 
L 221.734578 44.503944 
L 216.762423 43.50153 
L 214.759974 42.061783 
L 212.968683 41.3943 
L 216.762423 41.3943 
L 223.912967 41.3943 
L 228.679996 41.3943 
M 397.318874 232.07546 
L 394.849936 225.60099 
L 392.681803 220.157887 
L 387.794085 208.821696 
L 387.521945 208.240315 
L 386.796467 206.661315 
L 380.62624 192.154396 
L 376.873536 184.40517 
L 376.457894 183.473584 
L 373.11238 175.833111 
L 371.349746 172.487597 
L 366.306761 162.336464 
L 365.511255 160.570025 
L 365.325005 160.099215 
L 364.540322 158.425386 
L 359.983343 149.003126 
L 358.377488 146.268938 
L 356.686745 143.127508 
L 355.482674 140.357939 
L 353.523975 136.73488 
L 352.622749 134.903378 
L 351.520341 132.70279 
L 350.159326 130.325569 
L 348.594272 127.200822 
L 347.661691 125.011337 
L 344.775903 120.050279 
L 342.824131 115.54781 
L 341.174469 112.899735 
L 338.321662 106.415185 
L 337.157789 103.891846 
L 335.077209 100.982163 
L 332.092136 92.720834 
L 329.65729 89.06459 
L 328.787604 85.658522 
L 327.650157 81.805427 
L 325.658695 79.530532 
L 323.994641 70.048343 
L 323.90594 69.996474 
L 323.656917 69.632816 
L 321.539322 65.229445 
L 324.020575 60.462416 
L 328.787604 60.462416 
L 328.787604 58.078902 
L 328.787604 55.695387 
L 328.787604 53.311873 
L 328.787604 50.928358 
L 328.787604 48.544844 
L 328.787604 46.161329 
L 328.787604 43.777815 
L 328.787604 41.3943 
L 333.554633 41.3943 
L 338.321662 41.3943 
L 345.472206 41.3943 
L 352.622749 41.3943 
L 364.540322 41.3943 
L 376.457894 41.3943 
L 388.375467 41.3943 
L 400.293039 41.3943 
L 412.210612 41.3943 
L 424.128184 41.3943 
L 424.128184 43.777815 
L 424.128184 46.161329 
L 424.128184 48.544844 
L 424.128184 50.928358 
L 424.128184 53.311873 
L 424.128184 55.695387 
L 424.128184 58.078902 
L 424.128184 60.462416 
L 424.128184 65.229445 
L 424.128184 69.996474 
L 424.128184 79.530532 
L 424.128184 89.06459 
L 424.128184 100.982163 
L 424.128184 112.899735 
L 424.128184 120.050279 
L 424.128184 127.200822 
L 424.128184 131.967851 
L 424.128184 136.73488 
L 424.128184 141.501909 
L 424.128184 146.268938 
L 424.128184 153.419482 
L 424.128184 160.570025 
L 424.128184 172.487597 
L 424.128184 184.40517 
L 424.128184 196.322742 
L 424.128184 208.240315 
L 424.128184 220.157887 
L 424.128184 232.07546 
L 412.210612 232.07546 
L 400.293039 232.07546 
" clip-path="url(#p31dddcc43c)" style="fill: #ecf2f5"/>
   </g>
   <g id="PathCollection_10">
    <path d="M 212.968683 41.3943 
L 214.759974 42.061783 
L 216.762423 43.50153 
L 221.734578 44.503944 
L 223.758845 46.161329 
L 223.912967 46.297933 
L 227.751649 46.625503 
L 228.679996 47.961851 
L 233.447024 48.544844 
L 233.447024 46.161329 
L 233.447024 43.777815 
L 233.447024 41.3943 
L 238.214053 41.3943 
L 242.981082 41.3943 
L 250.131626 41.3943 
L 257.282169 41.3943 
L 269.199742 41.3943 
L 281.117314 41.3943 
L 293.034887 41.3943 
L 304.952459 41.3943 
L 312.103003 41.3943 
L 319.253546 41.3943 
L 324.020575 41.3943 
L 328.787604 41.3943 
L 328.787604 43.777815 
L 328.787604 46.161329 
L 328.787604 48.544844 
L 328.787604 50.928358 
L 328.787604 53.311873 
L 328.787604 55.695387 
L 328.787604 58.078902 
L 328.787604 60.462416 
L 324.020575 60.462416 
L 321.539322 65.229445 
L 323.656917 69.632816 
L 323.90594 69.996474 
L 323.994641 70.048343 
L 325.658695 79.530532 
L 327.650157 81.805427 
L 328.787604 85.658522 
L 329.65729 89.06459 
L 332.092136 92.720834 
L 335.077209 100.982163 
L 337.157789 103.891846 
L 338.321662 106.415185 
L 341.174469 112.899735 
L 342.824131 115.54781 
L 344.775903 120.050279 
L 347.661691 125.011337 
L 348.594272 127.200822 
L 350.159326 130.325569 
L 351.520341 132.70279 
L 352.622749 134.903378 
L 353.523975 136.73488 
L 355.482674 140.357939 
L 356.686745 143.127508 
L 358.377488 146.268938 
L 359.983343 149.003126 
L 364.540322 158.425386 
L 365.325005 160.099215 
L 365.511255 160.570025 
L 366.306761 162.336464 
L 371.349746 172.487597 
L 373.11238 175.833111 
L 376.457894 183.473584 
L 376.873536 184.40517 
L 380.62624 192.154396 
L 386.796467 206.661315 
L 387.521945 208.240315 
L 387.794085 208.821696 
L 392.681803 220.157887 
L 394.849936 225.60099 
L 397.318874 232.07546 
L 388.375467 232.07546 
L 376.457894 232.07546 
L 364.540322 232.07546 
L 352.622749 232.07546 
L 345.472206 232.07546 
L 338.321662 232.07546 
L 333.554633 232.07546 
L 328.787604 232.07546 
L 324.020575 232.07546 
L 319.253546 232.07546 
L 312.103003 232.07546 
L 304.952459 232.07546 
L 298.571046 232.07546 
L 296.750028 228.360318 
L 292.632489 220.157887 
L 288.218033 213.057169 
L 285.102856 208.240315 
L 281.117314 202.32214 
L 278.84093 198.599127 
L 269.199742 185.584965 
L 268.733593 184.871318 
L 268.365894 184.40517 
L 264.767201 179.972629 
L 258.89657 172.487597 
L 258.125602 171.644165 
L 257.282169 170.786691 
L 254.104565 167.19159 
L 249.441575 161.720111 
L 248.394739 160.570025 
L 242.981082 154.702413 
L 242.497919 154.144227 
L 241.852078 153.419482 
L 236.943374 148.174957 
L 235.100316 146.268938 
L 233.447024 144.558866 
L 231.989572 142.959361 
L 230.66001 141.501909 
L 227.328991 138.085884 
L 226.021306 136.73488 
L 223.912967 134.561564 
L 222.451818 132.94195 
L 217.276635 127.54363 
L 216.952729 127.200822 
L 216.86041 127.102835 
L 210.382534 120.050279 
L 209.995243 119.666915 
L 209.61188 119.27353 
L 204.128311 112.899735 
L 201.185581 109.408461 
L 194.557462 100.982163 
L 190.4349 96.323997 
L 185.776735 90.722713 
L 184.54135 89.06459 
L 180.665747 83.619323 
L 173.859162 74.680585 
L 171.749182 71.684458 
L 170.470918 69.996474 
L 169.011499 68.057409 
L 165.861951 63.661301 
L 163.351168 60.462416 
L 161.94159 58.664715 
L 161.576629 58.151894 
L 161.446155 57.979815 
L 159.78957 55.695387 
L 158.547431 53.990705 
L 157.301128 52.38378 
L 156.218453 50.928358 
L 155.411728 49.850816 
L 152.939046 46.744335 
L 152.492567 46.161329 
L 152.162379 45.733657 
L 150.024017 43.124381 
L 148.899896 41.619125 
L 148.725508 41.3943 
L 150.024017 41.3943 
L 161.94159 41.3943 
L 173.859162 41.3943 
L 185.776735 41.3943 
L 197.694307 41.3943 
L 209.61188 41.3943 
" clip-path="url(#p31dddcc43c)" style="fill: #f9eee7"/>
   </g>
   <g id="PathCollection_11">
    <path d="M 148.725508 41.3943 
L 148.899896 41.619125 
L 150.024017 43.124381 
L 152.162379 45.733657 
L 152.492567 46.161329 
L 152.939046 46.744335 
L 155.411728 49.850816 
L 156.218453 50.928358 
L 157.301128 52.38378 
L 158.547431 53.990705 
L 159.78957 55.695387 
L 161.446155 57.979815 
L 161.576629 58.151894 
L 161.94159 58.664715 
L 163.351168 60.462416 
L 165.861951 63.661301 
L 169.011499 68.057409 
L 170.470918 69.996474 
L 171.749182 71.684458 
L 173.859162 74.680585 
L 180.665747 83.619323 
L 184.54135 89.06459 
L 185.776735 90.722713 
L 190.4349 96.323997 
L 194.557462 100.982163 
L 201.185581 109.408461 
L 204.128311 112.899735 
L 209.61188 119.27353 
L 209.995243 119.666915 
L 210.382534 120.050279 
L 216.86041 127.102835 
L 216.952729 127.200822 
L 217.276635 127.54363 
L 222.451818 132.94195 
L 223.912967 134.561564 
L 226.021306 136.73488 
L 227.328991 138.085884 
L 230.66001 141.501909 
L 231.989572 142.959361 
L 233.447024 144.558866 
L 235.100316 146.268938 
L 236.943374 148.174957 
L 241.852078 153.419482 
L 242.497919 154.144227 
L 242.981082 154.702413 
L 248.394739 160.570025 
L 249.441575 161.720111 
L 254.104565 167.19159 
L 257.282169 170.786691 
L 258.125602 171.644165 
L 258.89657 172.487597 
L 264.767201 179.972629 
L 268.365894 184.40517 
L 268.733593 184.871318 
L 269.199742 185.584965 
L 278.84093 198.599127 
L 281.117314 202.32214 
L 285.102856 208.240315 
L 288.218033 213.057169 
L 292.632489 220.157887 
L 296.750028 228.360318 
L 298.571046 232.07546 
L 293.034887 232.07546 
L 281.117314 232.07546 
L 269.199742 232.07546 
L 257.282169 232.07546 
L 250.131626 232.07546 
L 242.981082 232.07546 
L 240.171711 232.07546 
L 239.068848 229.938473 
L 233.814702 220.157887 
L 233.597191 219.782472 
L 233.447024 219.534103 
L 232.654306 218.176091 
L 227.969397 210.016812 
L 226.913099 208.240315 
L 223.912967 203.418587 
L 221.786751 199.866436 
L 219.614373 196.322742 
L 214.34748 188.430075 
L 211.604294 184.40517 
L 209.61188 181.580637 
L 205.992955 176.106522 
L 197.694307 164.743001 
L 196.031274 162.233058 
L 194.834556 160.570025 
L 192.59526 157.510597 
L 188.479382 151.797893 
L 185.776735 148.24745 
L 184.385853 146.268938 
L 182.064003 142.987002 
L 178.988826 138.786745 
L 177.511018 136.73488 
L 176.692943 135.601368 
L 173.859162 131.798343 
L 171.359939 128.200511 
L 170.647073 127.200822 
L 168.248867 123.834645 
L 164.506742 118.511187 
L 161.94159 114.964437 
L 160.535966 112.899735 
L 156.301893 106.621859 
L 150.024017 97.579124 
L 146.6235 92.465107 
L 144.289465 89.06459 
L 138.106445 80.002114 
L 137.904051 79.692447 
L 137.424748 78.985174 
L 131.402074 69.996474 
L 130.298665 68.352557 
L 126.188872 62.428608 
L 125.155112 60.875921 
L 124.87202 60.462416 
L 124.663052 60.157252 
L 122.18907 56.495348 
L 121.637739 55.695387 
L 120.907584 54.63913 
L 119.314275 52.303278 
L 118.357042 50.928358 
L 117.085831 49.10775 
L 116.403285 48.118447 
L 115.026816 46.161329 
L 114.2713 45.090446 
L 113.485192 43.935036 
L 113.233666 43.570288 
L 111.743905 41.3943 
L 114.2713 41.3943 
L 126.188872 41.3943 
L 138.106445 41.3943 
" clip-path="url(#p31dddcc43c)" style="fill: #fddcc9"/>
   </g>
   <g id="PathCollection_12">
    <path d="M 111.743905 41.3943 
L 113.233666 43.570288 
L 113.485192 43.935036 
L 114.2713 45.090446 
L 115.026816 46.161329 
L 116.403285 48.118447 
L 117.085831 49.10775 
L 118.357042 50.928358 
L 119.314275 52.303278 
L 120.907584 54.63913 
L 121.637739 55.695387 
L 122.18907 56.495348 
L 124.663052 60.157252 
L 124.87202 60.462416 
L 125.155112 60.875921 
L 126.188872 62.428608 
L 130.298665 68.352557 
L 131.402074 69.996474 
L 137.424748 78.985174 
L 137.904051 79.692447 
L 138.106445 80.002114 
L 144.289465 89.06459 
L 146.6235 92.465107 
L 150.024017 97.579124 
L 156.301893 106.621859 
L 160.535966 112.899735 
L 161.94159 114.964437 
L 164.506742 118.511187 
L 168.248867 123.834645 
L 170.647073 127.200822 
L 171.359939 128.200511 
L 173.859162 131.798343 
L 176.692943 135.601368 
L 177.511018 136.73488 
L 178.988826 138.786745 
L 182.064003 142.987002 
L 184.385853 146.268938 
L 185.776735 148.24745 
L 188.479382 151.797893 
L 192.59526 157.510597 
L 194.834556 160.570025 
L 196.031274 162.233058 
L 197.694307 164.743001 
L 205.992955 176.106522 
L 209.61188 181.580637 
L 211.604294 184.40517 
L 214.34748 188.430075 
L 219.614373 196.322742 
L 221.786751 199.866436 
L 223.912967 203.418587 
L 226.913099 208.240315 
L 227.969397 210.016812 
L 232.654306 218.176091 
L 233.447024 219.534103 
L 233.597191 219.782472 
L 233.814702 220.157887 
L 239.068848 229.938473 
L 240.171711 232.07546 
L 238.214053 232.07546 
L 233.447024 232.07546 
L 228.679996 232.07546 
L 223.912967 232.07546 
L 216.762423 232.07546 
L 209.61188 232.07546 
L 198.289208 232.07546 
L 198.090555 231.679212 
L 192.323822 220.157887 
L 189.91864 216.015982 
L 185.776735 208.816757 
L 185.462775 208.240315 
L 181.27774 200.821737 
L 178.765213 196.322742 
L 172.289069 185.975263 
L 171.324785 184.40517 
L 167.018712 177.56472 
L 163.907244 172.487597 
L 163.108415 171.320772 
L 161.94159 169.562036 
L 156.265213 160.570025 
L 154.533273 157.864472 
L 150.024017 151.030331 
L 147.843994 147.576952 
L 146.996939 146.268938 
L 145.932265 144.632237 
L 142.725585 139.654253 
L 140.807108 136.73488 
L 138.106445 132.633277 
L 137.769029 132.102817 
L 137.533377 131.738624 
L 134.624028 127.200822 
L 132.279805 123.546262 
L 126.188872 114.230106 
L 125.576746 113.267011 
L 125.339069 112.899735 
L 123.781814 110.492677 
L 116.335041 98.918422 
L 114.2713 95.789967 
L 109.945235 89.06459 
L 107.367387 85.053662 
L 102.353727 77.434452 
L 99.190628 72.526954 
L 97.529498 69.996474 
L 95.805176 67.377054 
L 93.581955 63.971125 
L 91.253546 60.462416 
L 90.436155 59.22966 
L 89.772826 58.211567 
L 89.571563 57.905983 
L 88.126336 55.695387 
L 87.013277 53.996448 
L 85.970664 52.418775 
L 84.991162 50.928358 
L 84.238044 49.784466 
L 82.342433 46.926099 
L 81.837413 46.161329 
L 81.449716 45.575103 
L 78.689138 41.428411 
L 78.666507 41.3943 
L 90.436155 41.3943 
L 102.353727 41.3943 
" clip-path="url(#p31dddcc43c)" style="fill: #f8bb9e"/>
   </g>
   <g id="PathCollection_13">
    <path d="M 78.666507 41.3943 
L 78.689138 41.428411 
L 81.449716 45.575103 
L 81.837413 46.161329 
L 82.342433 46.926099 
L 84.238044 49.784466 
L 84.991162 50.928358 
L 85.970664 52.418775 
L 87.013277 53.996448 
L 88.126336 55.695387 
L 89.571563 57.905983 
L 89.772826 58.211567 
L 90.436155 59.22966 
L 91.253546 60.462416 
L 93.581955 63.971125 
L 95.805176 67.377054 
L 97.529498 69.996474 
L 99.190628 72.526954 
L 102.353727 77.434452 
L 107.367387 85.053662 
L 109.945235 89.06459 
L 114.2713 95.789967 
L 116.335041 98.918422 
L 123.781814 110.492677 
L 125.339069 112.899735 
L 125.576746 113.267011 
L 126.188872 114.230106 
L 132.279805 123.546262 
L 134.624028 127.200822 
L 137.533377 131.738624 
L 137.769029 132.102817 
L 138.106445 132.633277 
L 140.807108 136.73488 
L 142.725585 139.654253 
L 145.932265 144.632237 
L 146.996939 146.268938 
L 147.843994 147.576952 
L 150.024017 151.030331 
L 154.533273 157.864472 
L 156.265213 160.570025 
L 161.94159 169.562036 
L 163.108415 171.320772 
L 163.907244 172.487597 
L 167.018712 177.56472 
L 171.324785 184.40517 
L 172.289069 185.975263 
L 178.765213 196.322742 
L 181.27774 200.821737 
L 185.462775 208.240315 
L 185.776735 208.816757 
L 189.91864 216.015982 
L 192.323822 220.157887 
L 198.090555 231.679212 
L 198.289208 232.07546 
L 197.694307 232.07546 
L 185.776735 232.07546 
L 173.859162 232.07546 
L 163.44712 232.07546 
L 161.94159 229.207521 
L 158.896864 223.202613 
L 157.335053 220.157887 
L 151.601999 209.818297 
L 150.750286 208.240315 
L 150.491102 207.77323 
L 150.024017 206.982617 
L 141.887203 192.541984 
L 138.106445 186.172761 
L 137.086941 184.40517 
L 133.051864 177.542178 
L 130.096521 172.487597 
L 124.057157 162.701741 
L 122.75533 160.570025 
L 120.740313 157.300889 
L 117.261485 151.625371 
L 114.2713 146.843753 
L 113.918689 146.268938 
L 111.632165 142.557563 
L 109.872856 139.742531 
L 108.006002 136.73488 
L 106.879669 134.924504 
L 102.353727 127.749558 
L 102.080632 127.31006 
L 102.011853 127.200822 
L 101.803572 126.870729 
L 95.58596 116.960396 
L 92.999631 112.899735 
L 90.436155 108.879632 
L 87.381281 104.037037 
L 85.441983 100.982163 
L 78.069978 89.513194 
L 77.780174 89.06459 
L 76.990385 87.842032 
L 69.927017 76.869727 
L 66.60101 71.762631 
L 65.456326 69.996474 
L 63.235834 66.575516 
L 60.859175 62.932711 
L 59.251457 60.462416 
L 58.726554 59.653793 
L 56.355289 56.029758 
L 56.137559 55.695387 
L 55.969939 55.438087 
L 54.683437 53.473825 
L 53.212182 51.222609 
L 53.019557 50.928358 
L 52.768681 50.545407 
L 50.455081 47.007001 
L 49.901212 46.161329 
L 49.180982 45.060838 
L 47.696397 42.791708 
L 46.781756 41.3943 
L 54.683437 41.3943 
L 66.60101 41.3943 
L 78.518582 41.3943 
" clip-path="url(#p31dddcc43c)" style="fill: #ee9677"/>
   </g>
   <g id="PathCollection_14">
    <path d="M 46.781756 41.3943 
L 47.696397 42.791708 
L 49.180982 45.060838 
L 49.901212 46.161329 
L 50.455081 47.007001 
L 52.768681 50.545407 
L 53.019557 50.928358 
L 53.212182 51.222609 
L 54.683437 53.473825 
L 55.969939 55.438087 
L 56.137559 55.695387 
L 56.355289 56.029758 
L 58.726554 59.653793 
L 59.251457 60.462416 
L 60.859175 62.932711 
L 63.235834 66.575516 
L 65.456326 69.996474 
L 66.60101 71.762631 
L 69.927017 76.869727 
L 76.990385 87.842032 
L 77.780174 89.06459 
L 78.069978 89.513194 
L 85.441983 100.982163 
L 87.381281 104.037037 
L 90.436155 108.879632 
L 92.999631 112.899735 
L 95.58596 116.960396 
L 101.803572 126.870729 
L 102.011853 127.200822 
L 102.080632 127.31006 
L 102.353727 127.749558 
L 106.879669 134.924504 
L 108.006002 136.73488 
L 109.872856 139.742531 
L 111.632165 142.557563 
L 113.918689 146.268938 
L 114.2713 146.843753 
L 117.261485 151.625371 
L 120.740313 157.300889 
L 122.75533 160.570025 
L 124.057157 162.701741 
L 130.096521 172.487597 
L 133.051864 177.542178 
L 137.086941 184.40517 
L 138.106445 186.172761 
L 141.887203 192.541984 
L 150.024017 206.982617 
L 150.491102 207.77323 
L 150.750286 208.240315 
L 151.601999 209.818297 
L 157.335053 220.157887 
L 158.896864 223.202613 
L 161.94159 229.207521 
L 163.44712 232.07546 
L 161.94159 232.07546 
L 150.024017 232.07546 
L 138.106445 232.07546 
L 131.936132 232.07546 
L 129.97772 228.286612 
L 126.188872 221.347575 
L 121.634829 212.794358 
L 119.100956 208.240315 
L 114.2713 199.681502 
L 113.070358 197.523684 
L 112.394842 196.322742 
L 109.798909 191.850351 
L 105.520157 184.40517 
L 104.353647 182.40525 
L 98.551114 172.487597 
L 95.492557 167.431196 
L 91.344393 160.570025 
L 90.436155 159.080252 
L 87.925653 154.925783 
L 84.997854 150.156501 
L 82.621349 146.268938 
L 81.81258 144.951339 
L 78.518582 139.652186 
L 77.074239 137.312618 
L 76.713085 136.73488 
L 76.10929 135.771163 
L 72.316154 129.681793 
L 70.752084 127.200822 
L 66.60101 120.631027 
L 66.335574 120.20954 
L 66.006407 119.693517 
L 61.692895 112.899735 
L 58.968212 108.614961 
L 54.683437 101.971189 
L 49.628682 94.119345 
L 46.330948 89.06459 
L 42.765865 83.591027 
L 42.765865 79.530532 
L 42.765865 69.996474 
L 42.765865 65.229445 
L 42.765865 60.462416 
L 42.765865 58.078902 
L 42.765865 55.695387 
L 42.765865 53.311873 
L 42.765865 50.928358 
L 42.765865 48.544844 
L 42.765865 46.161329 
L 42.765865 43.777815 
L 42.765865 41.3943 
" clip-path="url(#p31dddcc43c)" style="fill: #db6b55"/>
   </g>
   <g id="PathCollection_15">
    <path d="M 42.765865 83.591027 
L 46.330948 89.06459 
L 49.628682 94.119345 
L 54.683437 101.971189 
L 58.968212 108.614961 
L 61.692895 112.899735 
L 66.006407 119.693517 
L 66.335574 120.20954 
L 66.60101 120.631027 
L 70.752084 127.200822 
L 72.316154 129.681793 
L 76.10929 135.771163 
L 76.713085 136.73488 
L 77.074239 137.312618 
L 78.518582 139.652186 
L 81.81258 144.951339 
L 82.621349 146.268938 
L 84.997854 150.156501 
L 87.925653 154.925783 
L 90.436155 159.080252 
L 91.344393 160.570025 
L 95.492557 167.431196 
L 98.551114 172.487597 
L 104.353647 182.40525 
L 105.520157 184.40517 
L 109.798909 191.850351 
L 112.394842 196.322742 
L 113.070358 197.523684 
L 114.2713 199.681502 
L 119.100956 208.240315 
L 121.634829 212.794358 
L 126.188872 221.347575 
L 129.97772 228.286612 
L 131.936132 232.07546 
L 126.188872 232.07546 
L 114.2713 232.07546 
L 102.353727 232.07546 
L 101.899116 232.07546 
L 101.345519 231.067251 
L 93.642983 216.95106 
L 90.436155 211.251776 
L 88.751122 208.240315 
L 85.056502 201.702395 
L 81.978223 196.322742 
L 76.319334 186.604418 
L 75.027372 184.40517 
L 69.915948 175.802535 
L 67.957477 172.487597 
L 67.447389 171.641218 
L 66.60101 170.24632 
L 60.749873 160.570025 
L 59.125545 157.904761 
L 54.683437 150.72571 
L 52.678367 147.47198 
L 51.925253 146.268938 
L 50.999003 144.795164 
L 47.706485 139.525661 
L 45.940729 136.73488 
L 42.968098 132.048744 
L 42.886636 131.919543 
L 42.765865 131.730376 
L 42.765865 127.200822 
L 42.765865 120.050279 
L 42.765865 112.899735 
L 42.765865 100.982163 
L 42.765865 89.06459 
" clip-path="url(#p31dddcc43c)" style="fill: #c53e3d"/>
   </g>
   <g id="PathCollection_16">
    <path d="M 42.765865 131.730376 
L 42.886636 131.919543 
L 42.968098 132.048744 
L 45.940729 136.73488 
L 47.706485 139.525661 
L 50.999003 144.795164 
L 51.925253 146.268938 
L 52.678367 147.47198 
L 54.683437 150.72571 
L 59.125545 157.904761 
L 60.749873 160.570025 
L 66.60101 170.24632 
L 67.447389 171.641218 
L 67.957477 172.487597 
L 69.915948 175.802535 
L 75.027372 184.40517 
L 76.319334 186.604418 
L 81.978223 196.322742 
L 85.056502 201.702395 
L 88.751122 208.240315 
L 90.436155 211.251776 
L 93.642983 216.95106 
L 101.345519 231.067251 
L 101.899116 232.07546 
L 90.436155 232.07546 
L 78.518582 232.07546 
L 72.357064 232.07546 
L 66.60101 221.832962 
L 65.997473 220.761424 
L 64.38834 217.945217 
L 58.856158 208.240315 
L 57.333181 205.590571 
L 54.683437 201.073874 
L 48.551425 190.537183 
L 44.910472 184.40517 
L 42.765865 180.836157 
L 42.765865 172.487597 
L 42.765865 160.570025 
L 42.765865 153.419482 
L 42.765865 146.268938 
L 42.765865 141.501909 
L 42.765865 136.73488 
L 42.765865 131.967851 
" clip-path="url(#p31dddcc43c)" style="fill: #ab162a"/>
   </g>
   <g id="PathCollection_17">
    <path d="M 42.765865 180.836157 
L 44.910472 184.40517 
L 48.551425 190.537183 
L 54.683437 201.073874 
L 57.333181 205.590571 
L 58.856158 208.240315 
L 64.38834 217.945217 
L 65.997473 220.761424 
L 66.60101 221.832962 
L 72.357064 232.07546 
L 66.60101 232.07546 
L 54.683437 232.07546 
L 42.765865 232.07546 
L 42.765865 220.157887 
L 42.765865 208.240315 
L 42.765865 196.322742 
L 42.765865 184.40517 
" clip-path="url(#p31dddcc43c)" style="fill: #7c0722"/>
   </g>
   <g id="PathCollection_18">
    <path d="M 42.765865 232.07546 
" clip-path="url(#p31dddcc43c)" style="fill: #67001f"/>
   </g>
   <g id="PolyCollection_1">
    <path d="M 233.447024 60.462416 
L 233.447024 41.3943 
L 328.787604 41.3943 
L 328.787604 60.462416 
L 328.787604 60.462416 
L 233.447024 60.462416 
z
" clip-path="url(#p31dddcc43c)" style="fill: url(#he6a8a63460); fill-opacity: 0.3; stroke: #333333; stroke-opacity: 0.3"/>
   </g>
   <g id="PathCollection_19">
    <defs>
     <path id="m76965e5de9" d="M -0 4.1833 
L 4.1833 0 
L 0 -4.1833 
L -4.1833 -0 
z
" style="stroke: #111827"/>
    </defs>
    <g clip-path="url(#p31dddcc43c)">
     <use xlink:href="#m76965e5de9" x="233.447024" y="136.73488" style="fill: #34d399; stroke: #111827"/>
    </g>
   </g>
   <g id="matplotlib.axis_1">
    <g id="xtick_1">
     <g id="line2d_1">
      <defs>
       <path id="me33e2fd93c" d="M 0 0 
L 0 3.5 
" style="stroke: #000000; stroke-width: 0.8"/>
      </defs>
      <g>
       <use xlink:href="#me33e2fd93c" x="42.765865" y="232.07546" style="stroke: #000000; stroke-width: 0.8"/>
      </g>
     </g>
     <g id="text_1">
      <!-- 0 -->
      <g transform="translate(39.584615 246.673897) scale(0.1 -0.1)">
       <defs>
        <path id="DejaVuSans-30" d="M 2034 4250 
Q 1547 4250 1301 3770 
Q 1056 3291 1056 2328 
Q 1056 1369 1301 889 
Q 1547 409 2034 409 
Q 2525 409 2770 889 
Q 3016 1369 3016 2328 
Q 3016 3291 2770 3770 
Q 2525 4250 2034 4250 
z
M 2034 4750 
Q 2819 4750 3233 4129 
Q 3647 3509 3647 2328 
Q 3647 1150 3233 529 
Q 2819 -91 2034 -91 
Q 1250 -91 836 529 
Q 422 1150 422 2328 
Q 422 3509 836 4129 
Q 1250 4750 2034 4750 
z
" transform="scale(0.015625)"/>
       </defs>
       <use xlink:href="#DejaVuSans-30"/>
      </g>
     </g>
    </g>
    <g id="xtick_2">
     <g id="line2d_2">
      <g>
       <use xlink:href="#me33e2fd93c" x="90.436155" y="232.07546" style="stroke: #000000; stroke-width: 0.8"/>
      </g>
     </g>
     <g id="text_2">
      <!-- 50 -->
      <g transform="translate(84.073655 246.673897) scale(0.1 -0.1)">
       <defs>
        <path id="DejaVuSans-35" d="M 691 4666 
L 3169 4666 
L 3169 4134 
L 1269 4134 
L 1269 2991 
Q 1406 3038 1543 3061 
Q 1681 3084 1819 3084 
Q 2600 3084 3056 2656 
Q 3513 2228 3513 1497 
Q 3513 744 3044 326 
Q 2575 -91 1722 -91 
Q 1428 -91 1123 -41 
Q 819 9 494 109 
L 494 744 
Q 775 591 1075 516 
Q 1375 441 1709 441 
Q 2250 441 2565 725 
Q 2881 1009 2881 1497 
Q 2881 1984 2565 2268 
Q 2250 2553 1709 2553 
Q 1456 2553 1204 2497 
Q 953 2441 691 2322 
L 691 4666 
z
" transform="scale(0.015625)"/>
       </defs>
       <use xlink:href="#DejaVuSans-35"/>
       <use xlink:href="#DejaVuSans-30" x="63.623047"/>
      </g>
     </g>
    </g>
    <g id="xtick_3">
     <g id="line2d_3">
      <g>
       <use xlink:href="#me33e2fd93c" x="138.106445" y="232.07546" style="stroke: #000000; stroke-width: 0.8"/>
      </g>
     </g>
     <g id="text_3">
      <!-- 100 -->
      <g transform="translate(128.562695 246.673897) scale(0.1 -0.1)">
       <defs>
        <path id="DejaVuSans-31" d="M 794 531 
L 1825 531 
L 1825 4091 
L 703 3866 
L 703 4441 
L 1819 4666 
L 2450 4666 
L 2450 531 
L 3481 531 
L 3481 0 
L 794 0 
L 794 531 
z
" transform="scale(0.015625)"/>
       </defs>
       <use xlink:href="#DejaVuSans-31"/>
       <use xlink:href="#DejaVuSans-30" x="63.623047"/>
       <use xlink:href="#DejaVuSans-30" x="127.246094"/>
      </g>
     </g>
    </g>
    <g id="xtick_4">
     <g id="line2d_4">
      <g>
       <use xlink:href="#me33e2fd93c" x="185.776735" y="232.07546" style="stroke: #000000; stroke-width: 0.8"/>
      </g>
     </g>
     <g id="text_4">
      <!-- 150 -->
      <g transform="translate(176.232985 246.673897) scale(0.1 -0.1)">
       <use xlink:href="#DejaVuSans-31"/>
       <use xlink:href="#DejaVuSans-35" x="63.623047"/>
       <use xlink:href="#DejaVuSans-30" x="127.246094"/>
      </g>
     </g>
    </g>
    <g id="xtick_5">
     <g id="line2d_5">
      <g>
       <use xlink:href="#me33e2fd93c" x="233.447024" y="232.07546" style="stroke: #000000; stroke-width: 0.8"/>
      </g>
     </g>
     <g id="text_5">
      <!-- 200 -->
      <g transform="translate(223.903274 246.673897) scale(0.1 -0.1)">
       <defs>
        <path id="DejaVuSans-32" d="M 1228 531 
L 3431 531 
L 3431 0 
L 469 0 
L 469 531 
Q 828 903 1448 1529 
Q 2069 2156 2228 2338 
Q 2531 2678 2651 2914 
Q 2772 3150 2772 3378 
Q 2772 3750 2511 3984 
Q 2250 4219 1831 4219 
Q 1534 4219 1204 4116 
Q 875 4013 500 3803 
L 500 4441 
Q 881 4594 1212 4672 
Q 1544 4750 1819 4750 
Q 2544 4750 2975 4387 
Q 3406 4025 3406 3419 
Q 3406 3131 3298 2873 
Q 3191 2616 2906 2266 
Q 2828 2175 2409 1742 
Q 1991 1309 1228 531 
z
" transform="scale(0.015625)"/>
       </defs>
       <use xlink:href="#DejaVuSans-32"/>
       <use xlink:href="#DejaVuSans-30" x="63.623047"/>
       <use xlink:href="#DejaVuSans-30" x="127.246094"/>
      </g>
     </g>
    </g>
    <g id="xtick_6">
     <g id="line2d_6">
      <g>
       <use xlink:href="#me33e2fd93c" x="281.117314" y="232.07546" style="stroke: #000000; stroke-width: 0.8"/>
      </g>
     </g>
     <g id="text_6">
      <!-- 250 -->
      <g transform="translate(271.573564 246.673897) scale(0.1 -0.1)">
       <use xlink:href="#DejaVuSans-32"/>
       <use xlink:href="#DejaVuSans-35" x="63.623047"/>
       <use xlink:href="#DejaVuSans-30" x="127.246094"/>
      </g>
     </g>
    </g>
    <g id="xtick_7">
     <g id="line2d_7">
      <g>
       <use xlink:href="#me33e2fd93c" x="328.787604" y="232.07546" style="stroke: #000000; stroke-width: 0.8"/>
      </g>
     </g>
     <g id="text_7">
      <!-- 300 -->
      <g transform="translate(319.243854 246.673897) scale(0.1 -0.1)">
       <defs>
        <path id="DejaVuSans-33" d="M 2597 2516 
Q 3050 2419 3304 2112 
Q 3559 1806 3559 1356 
Q 3559 666 3084 287 
Q 2609 -91 1734 -91 
Q 1441 -91 1130 -33 
Q 819 25 488 141 
L 488 750 
Q 750 597 1062 519 
Q 1375 441 1716 441 
Q 2309 441 2620 675 
Q 2931 909 2931 1356 
Q 2931 1769 2642 2001 
Q 2353 2234 1838 2234 
L 1294 2234 
L 1294 2753 
L 1863 2753 
Q 2328 2753 2575 2939 
Q 2822 3125 2822 3475 
Q 2822 3834 2567 4026 
Q 2313 4219 1838 4219 
Q 1578 4219 1281 4162 
Q 984 4106 628 3988 
L 628 4550 
Q 988 4650 1302 4700 
Q 1616 4750 1894 4750 
Q 2613 4750 3031 4423 
Q 3450 4097 3450 3541 
Q 3450 3153 3228 2886 
Q 3006 2619 2597 2516 
z
" transform="scale(0.015625)"/>
       </defs>
       <use xlink:href="#DejaVuSans-33"/>
       <use xlink:href="#DejaVuSans-30" x="63.623047"/>
       <use xlink:href="#DejaVuSans-30" x="127.246094"/>
      </g>
     </g>
    </g>
    <g id="xtick_8">
     <g id="line2d_8">
      <g>
       <use xlink:href="#me33e2fd93c" x="376.457894" y="232.07546" style="stroke: #000000; stroke-width: 0.8"/>
      </g>
     </g>
     <g id="text_8">
      <!-- 350 -->
      <g transform="translate(366.914144 246.673897) scale(0.1 -0.1)">
       <use xlink:href="#DejaVuSans-33"/>
       <use xlink:href="#DejaVuSans-35" x="63.623047"/>
       <use xlink:href="#DejaVuSans-30" x="127.246094"/>
      </g>
     </g>
    </g>
    <g id="xtick_9">
     <g id="line2d_9">
      <g>
       <use xlink:href="#me33e2fd93c" x="424.128184" y="232.07546" style="stroke: #000000; stroke-width: 0.8"/>
      </g>
     </g>
     <g id="text_9">
      <!-- 400 -->
      <g transform="translate(414.584434 246.673897) scale(0.1 -0.1)">
       <defs>
        <path id="DejaVuSans-34" d="M 2419 4116 
L 825 1625 
L 2419 1625 
L 2419 4116 
z
M 2253 4666 
L 3047 4666 
L 3047 1625 
L 3713 1625 
L 3713 1100 
L 3047 1100 
L 3047 0 
L 2419 0 
L 2419 1100 
L 313 1100 
L 313 1709 
L 2253 4666 
z
" transform="scale(0.015625)"/>
       </defs>
       <use xlink:href="#DejaVuSans-34"/>
       <use xlink:href="#DejaVuSans-30" x="63.623047"/>
       <use xlink:href="#DejaVuSans-30" x="127.246094"/>
      </g>
     </g>
    </g>
    <g id="text_10">
     <!-- x [mm] -->
     <g transform="translate(215.256399 260.352022) scale(0.1 -0.1)">
      <defs>
       <path id="DejaVuSans-78" d="M 3513 3500 
L 2247 1797 
L 3578 0 
L 2900 0 
L 1881 1375 
L 863 0 
L 184 0 
L 1544 1831 
L 300 3500 
L 978 3500 
L 1906 2253 
L 2834 3500 
L 3513 3500 
z
" transform="scale(0.015625)"/>
       <path id="DejaVuSans-20" transform="scale(0.015625)"/>
       <path id="DejaVuSans-5b" d="M 550 4863 
L 1875 4863 
L 1875 4416 
L 1125 4416 
L 1125 -397 
L 1875 -397 
L 1875 -844 
L 550 -844 
L 550 4863 
z
" transform="scale(0.015625)"/>
       <path id="DejaVuSans-6d" d="M 3328 2828 
Q 3544 3216 3844 3400 
Q 4144 3584 4550 3584 
Q 5097 3584 5394 3201 
Q 5691 2819 5691 2113 
L 5691 0 
L 5113 0 
L 5113 2094 
Q 5113 2597 4934 2840 
Q 4756 3084 4391 3084 
Q 3944 3084 3684 2787 
Q 3425 2491 3425 1978 
L 3425 0 
L 2847 0 
L 2847 2094 
Q 2847 2600 2669 2842 
Q 2491 3084 2119 3084 
Q 1678 3084 1418 2786 
Q 1159 2488 1159 1978 
L 1159 0 
L 581 0 
L 581 3500 
L 1159 3500 
L 1159 2956 
Q 1356 3278 1631 3431 
Q 1906 3584 2284 3584 
Q 2666 3584 2933 3390 
Q 3200 3197 3328 2828 
z
" transform="scale(0.015625)"/>
       <path id="DejaVuSans-5d" d="M 1947 4863 
L 1947 -844 
L 622 -844 
L 622 -397 
L 1369 -397 
L 1369 4416 
L 622 4416 
L 622 4863 
L 1947 4863 
z
" transform="scale(0.015625)"/>
      </defs>
      <use xlink:href="#DejaVuSans-78"/>
      <use xlink:href="#DejaVuSans-20" x="59.179688"/>
      <use xlink:href="#DejaVuSans-5b" x="90.966797"/>
      <use xlink:href="#DejaVuSans-6d" x="129.980469"/>
      <use xlink:href="#DejaVuSans-6d" x="227.392578"/>
      <use xlink:href="#DejaVuSans-5d" x="324.804688"/>
     </g>
    </g>
   </g>
   <g id="matplotlib.axis_2">
    <g id="ytick_1">
     <g id="line2d_10">
      <defs>
       <path id="md30100900d" d="M 0 0 
L -3.5 0 
" style="stroke: #000000; stroke-width: 0.8"/>
      </defs>
      <g>
       <use xlink:href="#md30100900d" x="42.765865" y="41.3943" style="stroke: #000000; stroke-width: 0.8"/>
      </g>
     </g>
     <g id="text_11">
      <!-- 0 -->
      <g transform="translate(29.403365 45.193519) scale(0.1 -0.1)">
       <use xlink:href="#DejaVuSans-30"/>
      </g>
     </g>
    </g>
    <g id="ytick_2">
     <g id="line2d_11">
      <g>
       <use xlink:href="#md30100900d" x="42.765865" y="65.229445" style="stroke: #000000; stroke-width: 0.8"/>
      </g>
     </g>
     <g id="text_12">
      <!-- 25 -->
      <g transform="translate(23.040865 69.028664) scale(0.1 -0.1)">
       <use xlink:href="#DejaVuSans-32"/>
       <use xlink:href="#DejaVuSans-35" x="63.623047"/>
      </g>
     </g>
    </g>
    <g id="ytick_3">
     <g id="line2d_12">
      <g>
       <use xlink:href="#md30100900d" x="42.765865" y="89.06459" style="stroke: #000000; stroke-width: 0.8"/>
      </g>
     </g>
     <g id="text_13">
      <!-- 50 -->
      <g transform="translate(23.040865 92.863809) scale(0.1 -0.1)">
       <use xlink:href="#DejaVuSans-35"/>
       <use xlink:href="#DejaVuSans-30" x="63.623047"/>
      </g>
     </g>
    </g>
    <g id="ytick_4">
     <g id="line2d_13">
      <g>
       <use xlink:href="#md30100900d" x="42.765865" y="112.899735" style="stroke: #000000; stroke-width: 0.8"/>
      </g>
     </g>
     <g id="text_14">
      <!-- 75 -->
      <g transform="translate(23.040865 116.698954) scale(0.1 -0.1)">
       <defs>
        <path id="DejaVuSans-37" d="M 525 4666 
L 3525 4666 
L 3525 4397 
L 1831 0 
L 1172 0 
L 2766 4134 
L 525 4134 
L 525 4666 
z
" transform="scale(0.015625)"/>
       </defs>
       <use xlink:href="#DejaVuSans-37"/>
       <use xlink:href="#DejaVuSans-35" x="63.623047"/>
      </g>
     </g>
    </g>
    <g id="ytick_5">
     <g id="line2d_14">
      <g>
       <use xlink:href="#md30100900d" x="42.765865" y="136.73488" style="stroke: #000000; stroke-width: 0.8"/>
      </g>
     </g>
     <g id="text_15">
      <!-- 100 -->
      <g transform="translate(16.678365 140.534099) scale(0.1 -0.1)">
       <use xlink:href="#DejaVuSans-31"/>
       <use xlink:href="#DejaVuSans-30" x="63.623047"/>
       <use xlink:href="#DejaVuSans-30" x="127.246094"/>
      </g>
     </g>
    </g>
    <g id="ytick_6">
     <g id="line2d_15">
      <g>
       <use xlink:href="#md30100900d" x="42.765865" y="160.570025" style="stroke: #000000; stroke-width: 0.8"/>
      </g>
     </g>
     <g id="text_16">
      <!-- 125 -->
      <g transform="translate(16.678365 164.369244) scale(0.1 -0.1)">
       <use xlink:href="#DejaVuSans-31"/>
       <use xlink:href="#DejaVuSans-32" x="63.623047"/>
       <use xlink:href="#DejaVuSans-35" x="127.246094"/>
      </g>
     </g>
    </g>
    <g id="ytick_7">
     <g id="line2d_16">
      <g>
       <use xlink:href="#md30100900d" x="42.765865" y="184.40517" style="stroke: #000000; stroke-width: 0.8"/>
      </g>
     </g>
     <g id="text_17">
      <!-- 150 -->
      <g transform="translate(16.678365 188.204389) scale(0.1 -0.1)">
       <use xlink:href="#DejaVuSans-31"/>
       <use xlink:href="#DejaVuSans-35" x="63.623047"/>
       <use xlink:href="#DejaVuSans-30" x="127.246094"/>
      </g>
     </g>
    </g>
    <g id="ytick_8">
     <g id="line2d_17">
      <g>
       <use xlink:href="#md30100900d" x="42.765865" y="208.240315" style="stroke: #000000; stroke-width: 0.8"/>
      </g>
     </g>
     <g id="text_18">
      <!-- 175 -->
      <g transform="translate(16.678365 212.039534) scale(0.1 -0.1)">
       <use xlink:href="#DejaVuSans-31"/>
       <use xlink:href="#DejaVuSans-37" x="63.623047"/>
       <use xlink:href="#DejaVuSans-35" x="127.246094"/>
      </g>
     </g>
    </g>
    <g id="ytick_9">
     <g id="line2d_18">
      <g>
       <use xlink:href="#md30100900d" x="42.765865" y="232.07546" style="stroke: #000000; stroke-width: 0.8"/>
      </g>
     </g>
     <g id="text_19">
      <!-- 200 -->
      <g transform="translate(16.678365 235.874679) scale(0.1 -0.1)">
       <use xlink:href="#DejaVuSans-32"/>
       <use xlink:href="#DejaVuSans-30" x="63.623047"/>
       <use xlink:href="#DejaVuSans-30" x="127.246094"/>
      </g>
     </g>
    </g>
    <g id="text_20">
     <!-- y [mm] -->
     <g transform="translate(10.598678 154.925505) rotate(-90) scale(0.1 -0.1)">
      <defs>
       <path id="DejaVuSans-79" d="M 2059 -325 
Q 1816 -950 1584 -1140 
Q 1353 -1331 966 -1331 
L 506 -1331 
L 506 -850 
L 844 -850 
Q 1081 -850 1212 -737 
Q 1344 -625 1503 -206 
L 1606 56 
L 191 3500 
L 800 3500 
L 1894 763 
L 2988 3500 
L 3597 3500 
L 2059 -325 
z
" transform="scale(0.015625)"/>
      </defs>
      <use xlink:href="#DejaVuSans-79"/>
      <use xlink:href="#DejaVuSans-20" x="59.179688"/>
      <use xlink:href="#DejaVuSans-5b" x="90.966797"/>
      <use xlink:href="#DejaVuSans-6d" x="129.980469"/>
      <use xlink:href="#DejaVuSans-6d" x="227.392578"/>
      <use xlink:href="#DejaVuSans-5d" x="324.804688"/>
     </g>
    </g>
   </g>
   <g id="PathCollection_20">
    <path d="M 212.968683 41.3943 
L 214.759974 42.061783 
L 216.762423 43.50153 
L 221.734578 44.503944 
L 223.758845 46.161329 
L 223.912967 46.297933 
L 227.751649 46.625503 
L 228.679996 47.961851 
L 233.447024 48.544844 
L 233.447024 46.161329 
L 233.447024 43.777815 
L 233.447024 41.3943 
" clip-path="url(#p31dddcc43c)" style="fill: none; stroke: #263238; stroke-width: 0.55"/>
    <path d="M 328.787604 41.3943 
L 328.787604 43.777815 
L 328.787604 46.161329 
L 328.787604 48.544844 
L 328.787604 50.928358 
L 328.787604 53.311873 
L 328.787604 55.695387 
L 328.787604 58.078902 
L 328.787604 60.462416 
L 324.020575 60.462416 
L 321.539322 65.229445 
L 323.656917 69.632816 
L 323.90594 69.996474 
L 323.994641 70.048343 
L 325.658695 79.530532 
L 327.650157 81.805427 
L 328.787604 85.658522 
L 329.65729 89.06459 
L 332.092136 92.720834 
L 335.077209 100.982163 
L 337.157789 103.891846 
L 338.321662 106.415185 
L 341.174469 112.899735 
L 342.824131 115.54781 
L 344.775903 120.050279 
L 347.661691 125.011337 
L 348.594272 127.200822 
L 350.159326 130.325569 
L 351.520341 132.70279 
L 352.622749 134.903378 
L 353.523975 136.73488 
L 355.482674 140.357939 
L 356.686745 143.127508 
L 358.377488 146.268938 
L 359.983343 149.003126 
L 364.540322 158.425386 
L 365.325005 160.099215 
L 365.511255 160.570025 
L 366.306761 162.336464 
L 371.349746 172.487597 
L 373.11238 175.833111 
L 376.457894 183.473584 
L 376.873536 184.40517 
L 380.62624 192.154396 
L 386.796467 206.661315 
L 387.521945 208.240315 
L 387.794085 208.821696 
L 392.681803 220.157887 
L 394.849936 225.60099 
L 397.318874 232.07546 
" clip-path="url(#p31dddcc43c)" style="fill: none; stroke: #263238; stroke-width: 0.55"/>
   </g>
   <g id="patch_3">
    <path d="M 42.765865 232.07546 
L 42.765865 41.3943 
" style="fill: none; stroke: #000000; stroke-width: 0.8; stroke-linejoin: miter; stroke-linecap: square"/>
   </g>
   <g id="patch_4">
    <path d="M 424.128184 232.07546 
L 424.128184 41.3943 
" style="fill: none; stroke: #000000; stroke-width: 0.8; stroke-linejoin: miter; stroke-linecap: square"/>
   </g>
   <g id="patch_5">
    <path d="M 42.765865 232.07546 
L 424.128184 232.07546 
" style="fill: none; stroke: #000000; stroke-width: 0.8; stroke-linejoin: miter; stroke-linecap: square"/>
   </g>
   <g id="patch_6">
    <path d="M 42.765865 41.3943 
L 424.128184 41.3943 
" style="fill: none; stroke: #000000; stroke-width: 0.8; stroke-linejoin: miter; stroke-linecap: square"/>
   </g>
   <g id="text_21">
    <!-- CalculiX C3D20R — Mode 1: 8.93 Hz -->
    <g transform="translate(124.287337 35.3943) scale(0.12 -0.12)">
     <defs>
      <path id="DejaVuSans-43" d="M 4122 4306 
L 4122 3641 
Q 3803 3938 3442 4084 
Q 3081 4231 2675 4231 
Q 1875 4231 1450 3742 
Q 1025 3253 1025 2328 
Q 1025 1406 1450 917 
Q 1875 428 2675 428 
Q 3081 428 3442 575 
Q 3803 722 4122 1019 
L 4122 359 
Q 3791 134 3420 21 
Q 3050 -91 2638 -91 
Q 1578 -91 968 557 
Q 359 1206 359 2328 
Q 359 3453 968 4101 
Q 1578 4750 2638 4750 
Q 3056 4750 3426 4639 
Q 3797 4528 4122 4306 
z
" transform="scale(0.015625)"/>
      <path id="DejaVuSans-61" d="M 2194 1759 
Q 1497 1759 1228 1600 
Q 959 1441 959 1056 
Q 959 750 1161 570 
Q 1363 391 1709 391 
Q 2188 391 2477 730 
Q 2766 1069 2766 1631 
L 2766 1759 
L 2194 1759 
z
M 3341 1997 
L 3341 0 
L 2766 0 
L 2766 531 
Q 2569 213 2275 61 
Q 1981 -91 1556 -91 
Q 1019 -91 701 211 
Q 384 513 384 1019 
Q 384 1609 779 1909 
Q 1175 2209 1959 2209 
L 2766 2209 
L 2766 2266 
Q 2766 2663 2505 2880 
Q 2244 3097 1772 3097 
Q 1472 3097 1187 3025 
Q 903 2953 641 2809 
L 641 3341 
Q 956 3463 1253 3523 
Q 1550 3584 1831 3584 
Q 2591 3584 2966 3190 
Q 3341 2797 3341 1997 
z
" transform="scale(0.015625)"/>
      <path id="DejaVuSans-6c" d="M 603 4863 
L 1178 4863 
L 1178 0 
L 603 0 
L 603 4863 
z
" transform="scale(0.015625)"/>
      <path id="DejaVuSans-63" d="M 3122 3366 
L 3122 2828 
Q 2878 2963 2633 3030 
Q 2388 3097 2138 3097 
Q 1578 3097 1268 2742 
Q 959 2388 959 1747 
Q 959 1106 1268 751 
Q 1578 397 2138 397 
Q 2388 397 2633 464 
Q 2878 531 3122 666 
L 3122 134 
Q 2881 22 2623 -34 
Q 2366 -91 2075 -91 
Q 1284 -91 818 406 
Q 353 903 353 1747 
Q 353 2603 823 3093 
Q 1294 3584 2113 3584 
Q 2378 3584 2631 3529 
Q 2884 3475 3122 3366 
z
" transform="scale(0.015625)"/>
      <path id="DejaVuSans-75" d="M 544 1381 
L 544 3500 
L 1119 3500 
L 1119 1403 
Q 1119 906 1312 657 
Q 1506 409 1894 409 
Q 2359 409 2629 706 
Q 2900 1003 2900 1516 
L 2900 3500 
L 3475 3500 
L 3475 0 
L 2900 0 
L 2900 538 
Q 2691 219 2414 64 
Q 2138 -91 1772 -91 
Q 1169 -91 856 284 
Q 544 659 544 1381 
z
M 1991 3584 
L 1991 3584 
z
" transform="scale(0.015625)"/>
      <path id="DejaVuSans-69" d="M 603 3500 
L 1178 3500 
L 1178 0 
L 603 0 
L 603 3500 
z
M 603 4863 
L 1178 4863 
L 1178 4134 
L 603 4134 
L 603 4863 
z
" transform="scale(0.015625)"/>
      <path id="DejaVuSans-58" d="M 403 4666 
L 1081 4666 
L 2241 2931 
L 3406 4666 
L 4084 4666 
L 2584 2425 
L 4184 0 
L 3506 0 
L 2194 1984 
L 872 0 
L 191 0 
L 1856 2491 
L 403 4666 
z
" transform="scale(0.015625)"/>
      <path id="DejaVuSans-44" d="M 1259 4147 
L 1259 519 
L 2022 519 
Q 2988 519 3436 956 
Q 3884 1394 3884 2338 
Q 3884 3275 3436 3711 
Q 2988 4147 2022 4147 
L 1259 4147 
z
M 628 4666 
L 1925 4666 
Q 3281 4666 3915 4102 
Q 4550 3538 4550 2338 
Q 4550 1131 3912 565 
Q 3275 0 1925 0 
L 628 0 
L 628 4666 
z
" transform="scale(0.015625)"/>
      <path id="DejaVuSans-52" d="M 2841 2188 
Q 3044 2119 3236 1894 
Q 3428 1669 3622 1275 
L 4263 0 
L 3584 0 
L 2988 1197 
Q 2756 1666 2539 1819 
Q 2322 1972 1947 1972 
L 1259 1972 
L 1259 0 
L 628 0 
L 628 4666 
L 2053 4666 
Q 2853 4666 3247 4331 
Q 3641 3997 3641 3322 
Q 3641 2881 3436 2590 
Q 3231 2300 2841 2188 
z
M 1259 4147 
L 1259 2491 
L 2053 2491 
Q 2509 2491 2742 2702 
Q 2975 2913 2975 3322 
Q 2975 3731 2742 3939 
Q 2509 4147 2053 4147 
L 1259 4147 
z
" transform="scale(0.015625)"/>
      <path id="DejaVuSans-2014" d="M 313 1978 
L 6088 1978 
L 6088 1528 
L 313 1528 
L 313 1978 
z
" transform="scale(0.015625)"/>
      <path id="DejaVuSans-4d" d="M 628 4666 
L 1569 4666 
L 2759 1491 
L 3956 4666 
L 4897 4666 
L 4897 0 
L 4281 0 
L 4281 4097 
L 3078 897 
L 2444 897 
L 1241 4097 
L 1241 0 
L 628 0 
L 628 4666 
z
" transform="scale(0.015625)"/>
      <path id="DejaVuSans-6f" d="M 1959 3097 
Q 1497 3097 1228 2736 
Q 959 2375 959 1747 
Q 959 1119 1226 758 
Q 1494 397 1959 397 
Q 2419 397 2687 759 
Q 2956 1122 2956 1747 
Q 2956 2369 2687 2733 
Q 2419 3097 1959 3097 
z
M 1959 3584 
Q 2709 3584 3137 3096 
Q 3566 2609 3566 1747 
Q 3566 888 3137 398 
Q 2709 -91 1959 -91 
Q 1206 -91 779 398 
Q 353 888 353 1747 
Q 353 2609 779 3096 
Q 1206 3584 1959 3584 
z
" transform="scale(0.015625)"/>
      <path id="DejaVuSans-64" d="M 2906 2969 
L 2906 4863 
L 3481 4863 
L 3481 0 
L 2906 0 
L 2906 525 
Q 2725 213 2448 61 
Q 2172 -91 1784 -91 
Q 1150 -91 751 415 
Q 353 922 353 1747 
Q 353 2572 751 3078 
Q 1150 3584 1784 3584 
Q 2172 3584 2448 3432 
Q 2725 3281 2906 2969 
z
M 947 1747 
Q 947 1113 1208 752 
Q 1469 391 1925 391 
Q 2381 391 2643 752 
Q 2906 1113 2906 1747 
Q 2906 2381 2643 2742 
Q 2381 3103 1925 3103 
Q 1469 3103 1208 2742 
Q 947 2381 947 1747 
z
" transform="scale(0.015625)"/>
      <path id="DejaVuSans-65" d="M 3597 1894 
L 3597 1613 
L 953 1613 
Q 991 1019 1311 708 
Q 1631 397 2203 397 
Q 2534 397 2845 478 
Q 3156 559 3463 722 
L 3463 178 
Q 3153 47 2828 -22 
Q 2503 -91 2169 -91 
Q 1331 -91 842 396 
Q 353 884 353 1716 
Q 353 2575 817 3079 
Q 1281 3584 2069 3584 
Q 2775 3584 3186 3129 
Q 3597 2675 3597 1894 
z
M 3022 2063 
Q 3016 2534 2758 2815 
Q 2500 3097 2075 3097 
Q 1594 3097 1305 2825 
Q 1016 2553 972 2059 
L 3022 2063 
z
" transform="scale(0.015625)"/>
      <path id="DejaVuSans-3a" d="M 750 794 
L 1409 794 
L 1409 0 
L 750 0 
L 750 794 
z
M 750 3309 
L 1409 3309 
L 1409 2516 
L 750 2516 
L 750 3309 
z
" transform="scale(0.015625)"/>
      <path id="DejaVuSans-38" d="M 2034 2216 
Q 1584 2216 1326 1975 
Q 1069 1734 1069 1313 
Q 1069 891 1326 650 
Q 1584 409 2034 409 
Q 2484 409 2743 651 
Q 3003 894 3003 1313 
Q 3003 1734 2745 1975 
Q 2488 2216 2034 2216 
z
M 1403 2484 
Q 997 2584 770 2862 
Q 544 3141 544 3541 
Q 544 4100 942 4425 
Q 1341 4750 2034 4750 
Q 2731 4750 3128 4425 
Q 3525 4100 3525 3541 
Q 3525 3141 3298 2862 
Q 3072 2584 2669 2484 
Q 3125 2378 3379 2068 
Q 3634 1759 3634 1313 
Q 3634 634 3220 271 
Q 2806 -91 2034 -91 
Q 1263 -91 848 271 
Q 434 634 434 1313 
Q 434 1759 690 2068 
Q 947 2378 1403 2484 
z
M 1172 3481 
Q 1172 3119 1398 2916 
Q 1625 2713 2034 2713 
Q 2441 2713 2670 2916 
Q 2900 3119 2900 3481 
Q 2900 3844 2670 4047 
Q 2441 4250 2034 4250 
Q 1625 4250 1398 4047 
Q 1172 3844 1172 3481 
z
" transform="scale(0.015625)"/>
      <path id="DejaVuSans-2e" d="M 684 794 
L 1344 794 
L 1344 0 
L 684 0 
L 684 794 
z
" transform="scale(0.015625)"/>
      <path id="DejaVuSans-39" d="M 703 97 
L 703 672 
Q 941 559 1184 500 
Q 1428 441 1663 441 
Q 2288 441 2617 861 
Q 2947 1281 2994 2138 
Q 2813 1869 2534 1725 
Q 2256 1581 1919 1581 
Q 1219 1581 811 2004 
Q 403 2428 403 3163 
Q 403 3881 828 4315 
Q 1253 4750 1959 4750 
Q 2769 4750 3195 4129 
Q 3622 3509 3622 2328 
Q 3622 1225 3098 567 
Q 2575 -91 1691 -91 
Q 1453 -91 1209 -44 
Q 966 3 703 97 
z
M 1959 2075 
Q 2384 2075 2632 2365 
Q 2881 2656 2881 3163 
Q 2881 3666 2632 3958 
Q 2384 4250 1959 4250 
Q 1534 4250 1286 3958 
Q 1038 3666 1038 3163 
Q 1038 2656 1286 2365 
Q 1534 2075 1959 2075 
z
" transform="scale(0.015625)"/>
      <path id="DejaVuSans-48" d="M 628 4666 
L 1259 4666 
L 1259 2753 
L 3553 2753 
L 3553 4666 
L 4184 4666 
L 4184 0 
L 3553 0 
L 3553 2222 
L 1259 2222 
L 1259 0 
L 628 0 
L 628 4666 
z
" transform="scale(0.015625)"/>
      <path id="DejaVuSans-7a" d="M 353 3500 
L 3084 3500 
L 3084 2975 
L 922 459 
L 3084 459 
L 3084 0 
L 275 0 
L 275 525 
L 2438 3041 
L 353 3041 
L 353 3500 
z
" transform="scale(0.015625)"/>
     </defs>
     <use xlink:href="#DejaVuSans-43"/>
     <use xlink:href="#DejaVuSans-61" x="69.824219"/>
     <use xlink:href="#DejaVuSans-6c" x="131.103516"/>
     <use xlink:href="#DejaVuSans-63" x="158.886719"/>
     <use xlink:href="#DejaVuSans-75" x="213.867188"/>
     <use xlink:href="#DejaVuSans-6c" x="277.246094"/>
     <use xlink:href="#DejaVuSans-69" x="305.029297"/>
     <use xlink:href="#DejaVuSans-58" x="332.8125"/>
     <use xlink:href="#DejaVuSans-20" x="401.318359"/>
     <use xlink:href="#DejaVuSans-43" x="433.105469"/>
     <use xlink:href="#DejaVuSans-33" x="502.929688"/>
     <use xlink:href="#DejaVuSans-44" x="566.552734"/>
     <use xlink:href="#DejaVuSans-32" x="643.554688"/>
     <use xlink:href="#DejaVuSans-30" x="707.177734"/>
     <use xlink:href="#DejaVuSans-52" x="770.800781"/>
     <use xlink:href="#DejaVuSans-20" x="840.283203"/>
     <use xlink:href="#DejaVuSans-2014" x="872.070312"/>
     <use xlink:href="#DejaVuSans-20" x="972.070312"/>
     <use xlink:href="#DejaVuSans-4d" x="1003.857422"/>
     <use xlink:href="#DejaVuSans-6f" x="1090.136719"/>
     <use xlink:href="#DejaVuSans-64" x="1151.318359"/>
     <use xlink:href="#DejaVuSans-65" x="1214.794922"/>
     <use xlink:href="#DejaVuSans-20" x="1276.318359"/>
     <use xlink:href="#DejaVuSans-31" x="1308.105469"/>
     <use xlink:href="#DejaVuSans-3a" x="1371.728516"/>
     <use xlink:href="#DejaVuSans-20" x="1405.419922"/>
     <use xlink:href="#DejaVuSans-38" x="1437.207031"/>
     <use xlink:href="#DejaVuSans-2e" x="1500.830078"/>
     <use xlink:href="#DejaVuSans-39" x="1532.617188"/>
     <use xlink:href="#DejaVuSans-33" x="1596.240234"/>
     <use xlink:href="#DejaVuSans-20" x="1659.863281"/>
     <use xlink:href="#DejaVuSans-48" x="1691.650391"/>
     <use xlink:href="#DejaVuSans-7a" x="1766.845703"/>
    </g>
   </g>
  </g>
  <g id="axes_2">
   <g id="patch_7">
    <path d="M 452.74005 231.564898 
L 463.171352 231.564898 
L 463.171352 41.904863 
L 452.74005 41.904863 
z
" style="fill: #ffffff"/>
   </g>
   <g id="patch_8">
    <path clip-path="url(#p7435664148)" style="fill: #ffffff; stroke: #ffffff; stroke-width: 0.01; stroke-linejoin: miter"/>
   </g>
   <g id="patch_9">
    <path d="M 452.74005 231.564898 
L 457.955701 241.047899 
L 463.171352 231.564898 
" style="fill: #053061"/>
   </g>
   <g id="patch_10">
    <path d="M 452.74005 41.904863 
L 457.955701 32.421861 
L 463.171352 41.904863 
" style="fill: #67001f"/>
   </g>
   <g id="QuadMesh_1">
    <path d="M 452.74005 231.564898 
L 463.171352 231.564898 
L 463.171352 219.711145 
L 452.74005 219.711145 
L 452.74005 231.564898 
" clip-path="url(#p7435664148)" style="fill: #0e4179"/>
    <path d="M 452.74005 219.711145 
L 463.171352 219.711145 
L 463.171352 207.857393 
L 452.74005 207.857393 
L 452.74005 219.711145 
" clip-path="url(#p7435664148)" style="fill: #1f63a8"/>
    <path d="M 452.74005 207.857393 
L 463.171352 207.857393 
L 463.171352 196.003641 
L 452.74005 196.003641 
L 452.74005 207.857393 
" clip-path="url(#p7435664148)" style="fill: #3480b9"/>
    <path d="M 452.74005 196.003641 
L 463.171352 196.003641 
L 463.171352 184.149889 
L 452.74005 184.149889 
L 452.74005 196.003641 
" clip-path="url(#p7435664148)" style="fill: #529dc8"/>
    <path d="M 452.74005 184.149889 
L 463.171352 184.149889 
L 463.171352 172.296137 
L 452.74005 172.296137 
L 452.74005 184.149889 
" clip-path="url(#p7435664148)" style="fill: #84bcd9"/>
    <path d="M 452.74005 172.296137 
L 463.171352 172.296137 
L 463.171352 160.442384 
L 452.74005 160.442384 
L 452.74005 172.296137 
" clip-path="url(#p7435664148)" style="fill: #aed3e6"/>
    <path d="M 452.74005 160.442384 
L 463.171352 160.442384 
L 463.171352 148.588632 
L 452.74005 148.588632 
L 452.74005 160.442384 
" clip-path="url(#p7435664148)" style="fill: #d4e6f1"/>
    <path d="M 452.74005 148.588632 
L 463.171352 148.588632 
L 463.171352 136.73488 
L 452.74005 136.73488 
L 452.74005 148.588632 
" clip-path="url(#p7435664148)" style="fill: #ecf2f5"/>
    <path d="M 452.74005 136.73488 
L 463.171352 136.73488 
L 463.171352 124.881128 
L 452.74005 124.881128 
L 452.74005 136.73488 
" clip-path="url(#p7435664148)" style="fill: #f9eee7"/>
    <path d="M 452.74005 124.881128 
L 463.171352 124.881128 
L 463.171352 113.027376 
L 452.74005 113.027376 
L 452.74005 124.881128 
" clip-path="url(#p7435664148)" style="fill: #fddcc9"/>
    <path d="M 452.74005 113.027376 
L 463.171352 113.027376 
L 463.171352 101.173624 
L 452.74005 101.173624 
L 452.74005 113.027376 
" clip-path="url(#p7435664148)" style="fill: #f8bb9e"/>
    <path d="M 452.74005 101.173624 
L 463.171352 101.173624 
L 463.171352 89.319871 
L 452.74005 89.319871 
L 452.74005 101.173624 
" clip-path="url(#p7435664148)" style="fill: #ee9677"/>
    <path d="M 452.74005 89.319871 
L 463.171352 89.319871 
L 463.171352 77.466119 
L 452.74005 77.466119 
L 452.74005 89.319871 
" clip-path="url(#p7435664148)" style="fill: #db6b55"/>
    <path d="M 452.74005 77.466119 
L 463.171352 77.466119 
L 463.171352 65.612367 
L 452.74005 65.612367 
L 452.74005 77.466119 
" clip-path="url(#p7435664148)" style="fill: #c53e3d"/>
    <path d="M 452.74005 65.612367 
L 463.171352 65.612367 
L 463.171352 53.758615 
L 452.74005 53.758615 
L 452.74005 65.612367 
" clip-path="url(#p7435664148)" style="fill: #ab162a"/>
    <path d="M 452.74005 53.758615 
L 463.171352 53.758615 
L 463.171352 41.904863 
L 452.74005 41.904863 
L 452.74005 53.758615 
" clip-path="url(#p7435664148)" style="fill: #7c0722"/>
   </g>
   <g id="matplotlib.axis_3"/>
   <g id="matplotlib.axis_4">
    <g id="ytick_10">
     <g id="line2d_19">
      <defs>
       <path id="m43d3e47a62" d="M 0 0 
L 3.5 0 
" style="stroke: #000000; stroke-width: 0.8"/>
      </defs>
      <g>
       <use xlink:href="#m43d3e47a62" x="463.171352" y="231.564898" style="stroke: #000000; stroke-width: 0.8"/>
      </g>
     </g>
     <g id="text_22">
      <!-- −1.00 -->
      <g transform="translate(470.171352 235.364116) scale(0.1 -0.1)">
       <defs>
        <path id="DejaVuSans-2212" d="M 678 2272 
L 4684 2272 
L 4684 1741 
L 678 1741 
L 678 2272 
z
" transform="scale(0.015625)"/>
       </defs>
       <use xlink:href="#DejaVuSans-2212"/>
       <use xlink:href="#DejaVuSans-31" x="83.789062"/>
       <use xlink:href="#DejaVuSans-2e" x="147.412109"/>
       <use xlink:href="#DejaVuSans-30" x="179.199219"/>
       <use xlink:href="#DejaVuSans-30" x="242.822266"/>
      </g>
     </g>
    </g>
    <g id="ytick_11">
     <g id="line2d_20">
      <g>
       <use xlink:href="#m43d3e47a62" x="463.171352" y="207.857393" style="stroke: #000000; stroke-width: 0.8"/>
      </g>
     </g>
     <g id="text_23">
      <!-- −0.75 -->
      <g transform="translate(470.171352 211.656612) scale(0.1 -0.1)">
       <use xlink:href="#DejaVuSans-2212"/>
       <use xlink:href="#DejaVuSans-30" x="83.789062"/>
       <use xlink:href="#DejaVuSans-2e" x="147.412109"/>
       <use xlink:href="#DejaVuSans-37" x="179.199219"/>
       <use xlink:href="#DejaVuSans-35" x="242.822266"/>
      </g>
     </g>
    </g>
    <g id="ytick_12">
     <g id="line2d_21">
      <g>
       <use xlink:href="#m43d3e47a62" x="463.171352" y="184.149889" style="stroke: #000000; stroke-width: 0.8"/>
      </g>
     </g>
     <g id="text_24">
      <!-- −0.50 -->
      <g transform="translate(470.171352 187.949108) scale(0.1 -0.1)">
       <use xlink:href="#DejaVuSans-2212"/>
       <use xlink:href="#DejaVuSans-30" x="83.789062"/>
       <use xlink:href="#DejaVuSans-2e" x="147.412109"/>
       <use xlink:href="#DejaVuSans-35" x="179.199219"/>
       <use xlink:href="#DejaVuSans-30" x="242.822266"/>
      </g>
     </g>
    </g>
    <g id="ytick_13">
     <g id="line2d_22">
      <g>
       <use xlink:href="#m43d3e47a62" x="463.171352" y="160.442384" style="stroke: #000000; stroke-width: 0.8"/>
      </g>
     </g>
     <g id="text_25">
      <!-- −0.25 -->
      <g transform="translate(470.171352 164.241603) scale(0.1 -0.1)">
       <use xlink:href="#DejaVuSans-2212"/>
       <use xlink:href="#DejaVuSans-30" x="83.789062"/>
       <use xlink:href="#DejaVuSans-2e" x="147.412109"/>
       <use xlink:href="#DejaVuSans-32" x="179.199219"/>
       <use xlink:href="#DejaVuSans-35" x="242.822266"/>
      </g>
     </g>
    </g>
    <g id="ytick_14">
     <g id="line2d_23">
      <g>
       <use xlink:href="#m43d3e47a62" x="463.171352" y="136.73488" style="stroke: #000000; stroke-width: 0.8"/>
      </g>
     </g>
     <g id="text_26">
      <!-- 0.00 -->
      <g transform="translate(470.171352 140.534099) scale(0.1 -0.1)">
       <use xlink:href="#DejaVuSans-30"/>
       <use xlink:href="#DejaVuSans-2e" x="63.623047"/>
       <use xlink:href="#DejaVuSans-30" x="95.410156"/>
       <use xlink:href="#DejaVuSans-30" x="159.033203"/>
      </g>
     </g>
    </g>
    <g id="ytick_15">
     <g id="line2d_24">
      <g>
       <use xlink:href="#m43d3e47a62" x="463.171352" y="113.027376" style="stroke: #000000; stroke-width: 0.8"/>
      </g>
     </g>
     <g id="text_27">
      <!-- 0.25 -->
      <g transform="translate(470.171352 116.826594) scale(0.1 -0.1)">
       <use xlink:href="#DejaVuSans-30"/>
       <use xlink:href="#DejaVuSans-2e" x="63.623047"/>
       <use xlink:href="#DejaVuSans-32" x="95.410156"/>
       <use xlink:href="#DejaVuSans-35" x="159.033203"/>
      </g>
     </g>
    </g>
    <g id="ytick_16">
     <g id="line2d_25">
      <g>
       <use xlink:href="#m43d3e47a62" x="463.171352" y="89.319871" style="stroke: #000000; stroke-width: 0.8"/>
      </g>
     </g>
     <g id="text_28">
      <!-- 0.50 -->
      <g transform="translate(470.171352 93.11909) scale(0.1 -0.1)">
       <use xlink:href="#DejaVuSans-30"/>
       <use xlink:href="#DejaVuSans-2e" x="63.623047"/>
       <use xlink:href="#DejaVuSans-35" x="95.410156"/>
       <use xlink:href="#DejaVuSans-30" x="159.033203"/>
      </g>
     </g>
    </g>
    <g id="ytick_17">
     <g id="line2d_26">
      <g>
       <use xlink:href="#m43d3e47a62" x="463.171352" y="65.612367" style="stroke: #000000; stroke-width: 0.8"/>
      </g>
     </g>
     <g id="text_29">
      <!-- 0.75 -->
      <g transform="translate(470.171352 69.411586) scale(0.1 -0.1)">
       <use xlink:href="#DejaVuSans-30"/>
       <use xlink:href="#DejaVuSans-2e" x="63.623047"/>
       <use xlink:href="#DejaVuSans-37" x="95.410156"/>
       <use xlink:href="#DejaVuSans-35" x="159.033203"/>
      </g>
     </g>
    </g>
    <g id="ytick_18">
     <g id="line2d_27">
      <g>
       <use xlink:href="#m43d3e47a62" x="463.171352" y="41.904863" style="stroke: #000000; stroke-width: 0.8"/>
      </g>
     </g>
     <g id="text_30">
      <!-- 1.00 -->
      <g transform="translate(470.171352 45.704081) scale(0.1 -0.1)">
       <use xlink:href="#DejaVuSans-31"/>
       <use xlink:href="#DejaVuSans-2e" x="63.623047"/>
       <use xlink:href="#DejaVuSans-30" x="95.410156"/>
       <use xlink:href="#DejaVuSans-30" x="159.033203"/>
      </g>
     </g>
    </g>
    <g id="text_31">
     <!-- normalized z displacement -->
     <g transform="translate(512.415102 204.017693) rotate(-90) scale(0.1 -0.1)">
      <defs>
       <path id="DejaVuSans-6e" d="M 3513 2113 
L 3513 0 
L 2938 0 
L 2938 2094 
Q 2938 2591 2744 2837 
Q 2550 3084 2163 3084 
Q 1697 3084 1428 2787 
Q 1159 2491 1159 1978 
L 1159 0 
L 581 0 
L 581 3500 
L 1159 3500 
L 1159 2956 
Q 1366 3272 1645 3428 
Q 1925 3584 2291 3584 
Q 2894 3584 3203 3211 
Q 3513 2838 3513 2113 
z
" transform="scale(0.015625)"/>
       <path id="DejaVuSans-72" d="M 2631 2963 
Q 2534 3019 2420 3045 
Q 2306 3072 2169 3072 
Q 1681 3072 1420 2755 
Q 1159 2438 1159 1844 
L 1159 0 
L 581 0 
L 581 3500 
L 1159 3500 
L 1159 2956 
Q 1341 3275 1631 3429 
Q 1922 3584 2338 3584 
Q 2397 3584 2469 3576 
Q 2541 3569 2628 3553 
L 2631 2963 
z
" transform="scale(0.015625)"/>
       <path id="DejaVuSans-73" d="M 2834 3397 
L 2834 2853 
Q 2591 2978 2328 3040 
Q 2066 3103 1784 3103 
Q 1356 3103 1142 2972 
Q 928 2841 928 2578 
Q 928 2378 1081 2264 
Q 1234 2150 1697 2047 
L 1894 2003 
Q 2506 1872 2764 1633 
Q 3022 1394 3022 966 
Q 3022 478 2636 193 
Q 2250 -91 1575 -91 
Q 1294 -91 989 -36 
Q 684 19 347 128 
L 347 722 
Q 666 556 975 473 
Q 1284 391 1588 391 
Q 1994 391 2212 530 
Q 2431 669 2431 922 
Q 2431 1156 2273 1281 
Q 2116 1406 1581 1522 
L 1381 1569 
Q 847 1681 609 1914 
Q 372 2147 372 2553 
Q 372 3047 722 3315 
Q 1072 3584 1716 3584 
Q 2034 3584 2315 3537 
Q 2597 3491 2834 3397 
z
" transform="scale(0.015625)"/>
       <path id="DejaVuSans-70" d="M 1159 525 
L 1159 -1331 
L 581 -1331 
L 581 3500 
L 1159 3500 
L 1159 2969 
Q 1341 3281 1617 3432 
Q 1894 3584 2278 3584 
Q 2916 3584 3314 3078 
Q 3713 2572 3713 1747 
Q 3713 922 3314 415 
Q 2916 -91 2278 -91 
Q 1894 -91 1617 61 
Q 1341 213 1159 525 
z
M 3116 1747 
Q 3116 2381 2855 2742 
Q 2594 3103 2138 3103 
Q 1681 3103 1420 2742 
Q 1159 2381 1159 1747 
Q 1159 1113 1420 752 
Q 1681 391 2138 391 
Q 2594 391 2855 752 
Q 3116 1113 3116 1747 
z
" transform="scale(0.015625)"/>
       <path id="DejaVuSans-74" d="M 1172 4494 
L 1172 3500 
L 2356 3500 
L 2356 3053 
L 1172 3053 
L 1172 1153 
Q 1172 725 1289 603 
Q 1406 481 1766 481 
L 2356 481 
L 2356 0 
L 1766 0 
Q 1100 0 847 248 
Q 594 497 594 1153 
L 594 3053 
L 172 3053 
L 172 3500 
L 594 3500 
L 594 4494 
L 1172 4494 
z
" transform="scale(0.015625)"/>
      </defs>
      <use xlink:href="#DejaVuSans-6e"/>
      <use xlink:href="#DejaVuSans-6f" x="63.378906"/>
      <use xlink:href="#DejaVuSans-72" x="124.560547"/>
      <use xlink:href="#DejaVuSans-6d" x="163.923828"/>
      <use xlink:href="#DejaVuSans-61" x="261.335938"/>
      <use xlink:href="#DejaVuSans-6c" x="322.615234"/>
      <use xlink:href="#DejaVuSans-69" x="350.398438"/>
      <use xlink:href="#DejaVuSans-7a" x="378.181641"/>
      <use xlink:href="#DejaVuSans-65" x="430.671875"/>
      <use xlink:href="#DejaVuSans-64" x="492.195312"/>
      <use xlink:href="#DejaVuSans-20" x="555.671875"/>
      <use xlink:href="#DejaVuSans-7a" x="587.458984"/>
      <use xlink:href="#DejaVuSans-20" x="639.949219"/>
      <use xlink:href="#DejaVuSans-64" x="671.736328"/>
      <use xlink:href="#DejaVuSans-69" x="735.212891"/>
      <use xlink:href="#DejaVuSans-73" x="762.996094"/>
      <use xlink:href="#DejaVuSans-70" x="815.095703"/>
      <use xlink:href="#DejaVuSans-6c" x="878.572266"/>
      <use xlink:href="#DejaVuSans-61" x="906.355469"/>
      <use xlink:href="#DejaVuSans-63" x="967.634766"/>
      <use xlink:href="#DejaVuSans-65" x="1022.615234"/>
      <use xlink:href="#DejaVuSans-6d" x="1084.138672"/>
      <use xlink:href="#DejaVuSans-65" x="1181.550781"/>
      <use xlink:href="#DejaVuSans-6e" x="1243.074219"/>
      <use xlink:href="#DejaVuSans-74" x="1306.453125"/>
     </g>
    </g>
   </g>
   <g id="LineCollection_1"/>
   <g id="patch_11">
    <path d="M 452.74005 231.564898 
L 457.955701 241.047899 
L 463.171352 231.564898 
L 463.171352 41.904863 
L 457.955701 32.421861 
L 452.74005 41.904863 
L 452.74005 231.564898 
z
" style="fill: none; stroke: #000000; stroke-width: 0.8; stroke-linejoin: miter; stroke-linecap: square"/>
   </g>
  </g>
 </g>
 <defs>
  <clipPath id="p31dddcc43c">
   <rect x="42.765865" y="41.3943" width="381.362319" height="190.681159"/>
  </clipPath>
  <clipPath id="p7435664148">
   <rect x="452.74005" y="41.904863" width="10.431302" height="189.660035"/>
  </clipPath>
 </defs>
 <defs>
  <pattern id="he6a8a63460" patternUnits="userSpaceOnUse" x="0" y="0" width="72" height="72">
   <rect x="0" y="0" width="73" height="73" fill="#333333"/>
   <path d="M -36 36 
L 36 -36 
M -33 39 
L 39 -33 
M -30 42 
L 42 -30 
M -27 45 
L 45 -27 
M -24 48 
L 48 -24 
M -21 51 
L 51 -21 
M -18 54 
L 54 -18 
M -15 57 
L 57 -15 
M -12 60 
L 60 -12 
M -9 63 
L 63 -9 
M -6 66 
L 66 -6 
M -3 69 
L 69 -3 
M 0 72 
L 72 0 
M 3 75 
L 75 3 
M 6 78 
L 78 6 
M 9 81 
L 81 9 
M 12 84 
L 84 12 
M 15 87 
L 87 15 
M 18 90 
L 90 18 
M 21 93 
L 93 21 
M 24 96 
L 96 24 
M 27 99 
L 99 27 
M 30 102 
L 102 30 
M 33 105 
L 105 33 
M 36 108 
L 108 36 
" style="fill: #333333; stroke: #333333; stroke-width: 1.0; stroke-linecap: butt; stroke-linejoin: miter; stroke-opacity: 0.3"/>
  </pattern>
 </defs>
</svg>
