<?xml version="1.0" encoding="utf-8" standalone="no"?>
<!DOCTYPE svg PUBLIC "-//W3C//DTD SVG 1.1//EN"
  "http://www.w3.org/Graphics/SVG/1.1/DTD/svg11.dtd">
<svg xmlns:xlink="http://www.w3.org/1999/xlink" width="518.4pt" height="273.6pt" viewBox="0 0 518.4 273.6" xmlns="http://www.w3.org/2000/svg" version="1.1">
 <metadata>
  <rdf:RDF xmlns:dc="http://purl.org/dc/elements/1.1/" xmlns:cc="http://creativecommons.org/ns#" xmlns:rdf="http://www.w3.org/1999/02/22-rdf-syntax-ns#">
   <cc:Work>
    <dc:type rdf:resource="http://purl.org/dc/dcmitype/StillImage"/>
    <dc:format>image/svg+xml</dc:format>
    <dc:creator>
     <cc:Agent>
      <dc:title>Matplotlib v3.6.3, https://matplotlib.org/</dc:title>
     </cc:Agent>
    </dc:creator>
   </cc:Work>
  </rdf:RDF>
 </metadata>
 <defs>
  <style type="text/css">*{stroke-linejoin: round; stroke-linecap: butt}</style>
 </defs>
 <g id="figure_1">
  <g id="patch_1">
   <path d="M 0 273.6 
L 518.4 273.6 
L 518.4 0 
L 0 0 
z
" style="fill: #ffffff"/>
  </g>
  <g id="axes_1">
   <g id="patch_2">
    <path d="M 42.765865 232.07546 
L 424.128184 232.07546 
L 424.128184 41.3943 
L 42.765865 41.3943 
z
" style="fill: #ffffff"/>
   </g>
   <g id="PathCollection_1">
    <path clip-path="url(#p6b4fbd1ed2)" style="fill: #053061"/>
   </g>
   <g id="PathCollection_2">
    <path d="M 42.765865 215.362307 
L 45.247916 217.675836 
L 54.683437 227.46631 
L 56.949194 229.809703 
L 58.910519 232.07546 
L 54.683437 232.07546 
L 42.765865 232.07546 
L 42.765865 220.157887 
" clip-path="url(#p6b4fbd1ed2)" style="fill: #0e4179"/>
   </g>
   <g id="PathCollection_3">
    <path d="M 42.765865 199.513829 
L 52.661936 208.240315 
L 53.708206 209.215547 
L 54.683437 210.227465 
L 65.423432 221.335465 
L 66.60101 222.695824 
L 74.327085 232.07546 
L 66.60101 232.07546 
L 58.910519 232.07546 
L 56.949194 229.809703 
L 54.683437 227.46631 
L 45.247916 217.675836 
L 42.765865 215.362307 
L 42.765865 208.240315 
" clip-path="url(#p6b4fbd1ed2)" style="fill: #1f63a8"/>
   </g>
   <g id="PathCollection_4">
    <path d="M 42.765865 184.693937 
L 49.551269 189.537338 
L 54.683437 194.039955 
L 62.449278 200.474474 
L 66.60101 204.643968 
L 70.105204 208.240315 
L 74.191764 212.567133 
L 78.518582 217.890931 
L 84.763733 225.830309 
L 88.884683 232.07546 
L 78.518582 232.07546 
L 74.327085 232.07546 
L 66.60101 222.695824 
L 65.423432 221.335465 
L 54.683437 210.227465 
L 53.708206 209.215547 
L 52.661936 208.240315 
L 42.765865 199.513829 
L 42.765865 196.322742 
" clip-path="url(#p6b4fbd1ed2)" style="fill: #3480b9"/>
   </g>
   <g id="PathCollection_5">
    <path d="M 42.765865 170.842959 
L 43.860281 171.393182 
L 54.683437 178.521073 
L 58.329699 180.758908 
L 62.965457 184.40517 
L 66.60101 187.381957 
L 71.50402 191.419732 
L 76.347814 196.322742 
L 83.29325 203.465648 
L 87.044352 208.240315 
L 90.436155 212.651033 
L 93.654576 216.939466 
L 102.353727 231.406848 
L 102.601397 231.82779 
L 102.713333 232.07546 
L 102.353727 232.07546 
L 90.436155 232.07546 
L 88.884683 232.07546 
L 84.763733 225.830309 
L 78.518582 217.890931 
L 74.191764 212.567133 
L 70.105204 208.240315 
L 66.60101 204.643968 
L 62.449278 200.474474 
L 54.683437 194.039955 
L 49.551269 189.537338 
L 42.765865 184.693937 
L 42.765865 184.40517 
L 42.765865 172.487597 
M 424.128184 195.516317 
L 420.653442 184.40517 
L 418.859591 177.756191 
L 415.304504 163.663918 
L 414.607956 160.570025 
L 414.374114 159.271923 
L 412.210612 146.857326 
L 412.113908 146.32696 
L 412.103567 146.268938 
L 412.096884 146.223447 
L 411.002248 137.218226 
L 410.942772 136.73488 
L 410.891485 136.207229 
L 410.299343 127.96533 
L 410.243985 127.200822 
L 410.195203 125.991577 
L 410.076044 114.180476 
L 410.071658 112.899735 
L 410.161948 110.851072 
L 411.886531 89.388671 
L 411.9179 89.06459 
L 411.946517 88.853314 
L 412.210612 87.151634 
L 414.496323 71.825043 
L 414.806077 69.996474 
L 415.0127 68.875639 
L 416.247267 62.077079 
L 416.55719 60.462416 
L 416.732308 59.558077 
L 417.283843 56.710034 
L 417.482248 55.695387 
L 417.699193 54.597671 
L 418.190339 52.124304 
L 418.428229 50.928358 
L 418.687594 49.632962 
L 419.110303 47.541268 
L 419.387505 46.161329 
L 419.689133 44.665625 
L 420.037499 42.959678 
L 420.352419 41.3943 
L 424.128184 41.3943 
L 424.128184 43.777815 
L 424.128184 46.161329 
L 424.128184 48.544844 
L 424.128184 50.928358 
L 424.128184 53.311873 
L 424.128184 55.695387 
L 424.128184 58.078902 
L 424.128184 60.462416 
L 424.128184 65.229445 
L 424.128184 69.996474 
L 424.128184 79.530532 
L 424.128184 89.06459 
L 424.128184 100.982163 
L 424.128184 112.899735 
L 424.128184 120.050279 
L 424.128184 127.200822 
L 424.128184 131.967851 
L 424.128184 136.73488 
L 424.128184 141.501909 
L 424.128184 146.268938 
L 424.128184 153.419482 
L 424.128184 160.570025 
L 424.128184 172.487597 
L 424.128184 184.40517 
" clip-path="url(#p6b4fbd1ed2)" style="fill: #529dc8"/>
   </g>
   <g id="PathCollection_6">
    <path d="M 42.765865 157.586576 
L 48.861406 160.570025 
L 52.735645 162.517817 
L 54.683437 163.80059 
L 63.047018 168.933606 
L 66.60101 171.018454 
L 67.528618 171.559989 
L 68.770195 172.487597 
L 81.008652 181.9151 
L 83.547808 184.40517 
L 90.436155 191.386717 
L 92.877727 193.881171 
L 94.722503 196.322742 
L 103.056692 207.53735 
L 103.449881 208.240315 
L 104.773849 210.660437 
L 111.810011 222.619176 
L 114.2713 228.06502 
L 116.051827 232.07546 
L 114.2713 232.07546 
L 102.713333 232.07546 
L 102.601397 231.82779 
L 102.353727 231.406848 
L 93.654576 216.939466 
L 90.436155 212.651033 
L 87.044352 208.240315 
L 83.29325 203.465648 
L 76.347814 196.322742 
L 71.50402 191.419732 
L 66.60101 187.381957 
L 62.965457 184.40517 
L 58.329699 180.758908 
L 54.683437 178.521073 
L 43.860281 171.393182 
L 42.765865 170.842959 
L 42.765865 160.570025 
M 420.352419 41.3943 
L 420.037499 42.959678 
L 419.689133 44.665625 
L 419.387505 46.161329 
L 419.110303 47.541268 
L 418.687594 49.632962 
L 418.428229 50.928358 
L 418.190339 52.124304 
L 417.699193 54.597671 
L 417.482248 55.695387 
L 417.283843 56.710034 
L 416.732308 59.558077 
L 416.55719 60.462416 
L 416.247267 62.077079 
L 415.0127 68.875639 
L 414.806077 69.996474 
L 414.496323 71.825043 
L 412.210612 87.151634 
L 411.946517 88.853314 
L 411.9179 89.06459 
L 411.886531 89.388671 
L 410.161948 110.851072 
L 410.071658 112.899735 
L 410.076044 114.180476 
L 410.195203 125.991577 
L 410.243985 127.200822 
L 410.299343 127.96533 
L 410.891485 136.207229 
L 410.942772 136.73488 
L 411.002248 137.218226 
L 412.096884 146.223447 
L 412.103567 146.268938 
L 412.113908 146.32696 
L 412.210612 146.857326 
L 414.374114 159.271923 
L 414.607956 160.570025 
L 415.304504 163.663918 
L 418.859591 177.756191 
L 420.653442 184.40517 
L 424.128184 195.516317 
L 424.128184 196.322742 
L 424.128184 208.240315 
L 424.128184 220.157887 
L 424.128184 232.07546 
L 423.050112 232.07546 
L 420.117763 224.168309 
L 418.579722 220.157887 
L 415.362056 211.391759 
L 414.21334 208.240315 
L 413.704674 206.746252 
L 412.210612 202.217744 
L 407.634776 188.981005 
L 406.077904 184.40517 
L 403.471842 175.6664 
L 402.118137 170.662499 
L 400.293039 163.530859 
L 399.512536 160.570025 
L 398.228652 154.658114 
L 397.614825 151.812553 
L 396.593499 146.268938 
L 396.122894 143.169967 
L 395.569428 139.612464 
L 395.202658 136.73488 
L 394.938357 134.109724 
L 394.47852 129.642043 
L 394.295115 127.200822 
L 394.150094 123.736045 
L 393.883919 116.204807 
L 393.872164 112.899735 
L 394.135845 107.139357 
L 394.873742 95.562866 
L 395.526218 89.06459 
L 396.431787 82.619534 
L 397.263616 77.106994 
L 398.46577 69.996474 
L 399.28382 65.633133 
L 399.425932 64.882602 
L 400.293039 60.484635 
L 400.297262 60.462416 
L 400.740794 58.168453 
L 400.777346 57.98204 
L 401.227955 55.695387 
L 401.651755 53.583616 
L 401.765572 53.017366 
L 402.190899 50.928358 
L 402.58876 49.003988 
L 402.784482 48.046555 
L 403.178436 46.161329 
L 403.545262 44.428259 
L 403.825206 43.071381 
L 404.182712 41.3943 
L 412.210612 41.3943 
" clip-path="url(#p6b4fbd1ed2)" style="fill: #84bcd9"/>
   </g>
   <g id="PathCollection_7">
    <path d="M 42.765865 144.742153 
L 46.73533 146.268938 
L 51.56194 148.141837 
L 54.683437 149.642664 
L 64.925475 154.424802 
L 66.60101 155.385357 
L 75.688593 160.570025 
L 77.475432 161.613176 
L 85.725637 167.77708 
L 90.436155 171.153032 
L 91.216929 171.706823 
L 92.037678 172.487597 
L 103.228279 183.530618 
L 103.881909 184.40517 
L 107.900793 189.952235 
L 112.714151 196.322742 
L 113.378006 197.216036 
L 114.2713 198.813113 
L 119.513879 208.240315 
L 121.865463 212.563725 
L 126.188872 223.647054 
L 128.567819 229.696514 
L 129.179661 232.07546 
L 126.188872 232.07546 
L 116.051827 232.07546 
L 114.2713 228.06502 
L 111.810011 222.619176 
L 104.773849 210.660437 
L 103.449881 208.240315 
L 103.056692 207.53735 
L 94.722503 196.322742 
L 92.877727 193.881171 
L 90.436155 191.386717 
L 83.547808 184.40517 
L 81.008652 181.9151 
L 68.770195 172.487597 
L 67.528618 171.559989 
L 66.60101 171.018454 
L 63.047018 168.933606 
L 54.683437 163.80059 
L 52.735645 162.517817 
L 48.861406 160.570025 
L 42.765865 157.586576 
L 42.765865 153.419482 
L 42.765865 146.268938 
M 404.182712 41.3943 
L 403.825206 43.071381 
L 403.545262 44.428259 
L 403.178436 46.161329 
L 402.784482 48.046555 
L 402.58876 49.003988 
L 402.190899 50.928358 
L 401.765572 53.017366 
L 401.651755 53.583616 
L 401.227955 55.695387 
L 400.777346 57.98204 
L 400.740794 58.168453 
L 400.297262 60.462416 
L 400.293039 60.484635 
L 399.425932 64.882602 
L 399.28382 65.633133 
L 398.46577 69.996474 
L 397.263616 77.106994 
L 396.431787 82.619534 
L 395.526218 89.06459 
L 394.873742 95.562866 
L 394.135845 107.139357 
L 393.872164 112.899735 
L 393.883919 116.204807 
L 394.150094 123.736045 
L 394.295115 127.200822 
L 394.47852 129.642043 
L 394.938357 134.109724 
L 395.202658 136.73488 
L 395.569428 139.612464 
L 396.122894 143.169967 
L 396.593499 146.268938 
L 397.614825 151.812553 
L 398.228652 154.658114 
L 399.512536 160.570025 
L 400.293039 163.530859 
L 402.118137 170.662499 
L 403.471842 175.6664 
L 406.077904 184.40517 
L 407.634776 188.981005 
L 412.210612 202.217744 
L 413.704674 206.746252 
L 414.21334 208.240315 
L 415.362056 211.391759 
L 418.579722 220.157887 
L 420.117763 224.168309 
L 423.050112 232.07546 
L 412.210612 232.07546 
L 409.017644 232.07546 
L 406.982014 226.846863 
L 404.416718 220.157887 
L 403.309504 217.141422 
L 400.293039 209.347391 
L 399.857942 208.240315 
L 396.759297 199.856484 
L 392.626702 188.656406 
L 391.146501 184.40517 
L 390.49857 182.282066 
L 388.375467 175.062038 
L 384.844759 164.100732 
L 383.734495 160.570025 
L 382.851842 157.25585 
L 381.294837 150.517316 
L 380.304391 146.268938 
L 379.608755 142.762253 
L 379.217721 140.397978 
L 378.585826 136.73488 
L 377.99235 132.581633 
L 377.863193 131.405731 
L 377.380902 127.200822 
L 376.850742 120.285987 
L 376.833048 119.825186 
L 376.609784 112.899735 
L 376.920916 101.445184 
L 376.992756 100.447301 
L 378.067169 89.06459 
L 379.131486 81.669406 
L 379.943051 76.742407 
L 381.13496 69.996474 
L 381.664864 67.312233 
L 382.581875 62.779853 
L 383.066714 60.462416 
L 383.283343 59.443992 
L 383.908431 56.588794 
L 384.103514 55.695387 
L 384.286088 54.877512 
L 385.034882 51.596475 
L 385.188187 50.928358 
L 385.331675 50.3196 
L 386.21605 46.593213 
L 386.320684 46.161329 
L 386.418435 45.769923 
L 387.450723 41.579249 
L 387.498198 41.3943 
L 388.375467 41.3943 
L 400.293039 41.3943 
" clip-path="url(#p6b4fbd1ed2)" style="fill: #aed3e6"/>
   </g>
   <g id="PathCollection_8">
    <path d="M 42.765865 132.111911 
L 44.528872 132.673054 
L 54.683437 135.833769 
L 55.956536 136.225641 
L 57.318 136.73488 
L 66.60101 140.217722 
L 68.271617 140.833666 
L 78.518582 145.458365 
L 79.484618 145.882524 
L 80.195232 146.268938 
L 90.436155 151.883342 
L 91.79126 152.606418 
L 102.353727 160.085315 
L 102.732112 160.342994 
L 102.977955 160.570025 
L 114.2713 171.210489 
L 114.938614 171.820283 
L 115.445996 172.487597 
L 118.294785 176.511083 
L 124.24615 184.40517 
L 125.066444 185.527599 
L 130.775121 196.322742 
L 133.215003 201.214184 
L 135.592111 208.240315 
L 138.106445 215.951899 
L 139.158494 219.105838 
L 139.382279 220.157887 
L 139.634237 221.68568 
L 142.343309 232.07546 
L 138.106445 232.07546 
L 129.179661 232.07546 
L 128.567819 229.696514 
L 126.188872 223.647054 
L 121.865463 212.563725 
L 119.513879 208.240315 
L 114.2713 198.813113 
L 113.378006 197.216036 
L 112.714151 196.322742 
L 107.900793 189.952235 
L 103.881909 184.40517 
L 103.228279 183.530618 
L 92.037678 172.487597 
L 91.216929 171.706823 
L 90.436155 171.153032 
L 85.725637 167.77708 
L 77.475432 161.613176 
L 75.688593 160.570025 
L 66.60101 155.385357 
L 64.925475 154.424802 
L 54.683437 149.642664 
L 51.56194 148.141837 
L 46.73533 146.268938 
L 42.765865 144.742153 
L 42.765865 141.501909 
L 42.765865 136.73488 
M 387.498198 41.3943 
L 387.450723 41.579249 
L 386.418435 45.769923 
L 386.320684 46.161329 
L 386.21605 46.593213 
L 385.331675 50.3196 
L 385.188187 50.928358 
L 385.034882 51.596475 
L 384.286088 54.877512 
L 384.103514 55.695387 
L 383.908431 56.588794 
L 383.283343 59.443992 
L 383.066714 60.462416 
L 382.581875 62.779853 
L 381.664864 67.312233 
L 381.13496 69.996474 
L 379.943051 76.742407 
L 379.131486 81.669406 
L 378.067169 89.06459 
L 376.992756 100.447301 
L 376.920916 101.445184 
L 376.609784 112.899735 
L 376.833048 119.825186 
L 376.850742 120.285987 
L 377.380902 127.200822 
L 377.863193 131.405731 
L 377.99235 132.581633 
L 378.585826 136.73488 
L 379.217721 140.397978 
L 379.608755 142.762253 
L 380.304391 146.268938 
L 381.294837 150.517316 
L 382.851842 157.25585 
L 383.734495 160.570025 
L 384.844759 164.100732 
L 388.375467 175.062038 
L 390.49857 182.282066 
L 391.146501 184.40517 
L 392.626702 188.656406 
L 396.759297 199.856484 
L 399.857942 208.240315 
L 400.293039 209.347391 
L 403.309504 217.141422 
L 404.416718 220.157887 
L 406.982014 226.846863 
L 409.017644 232.07546 
L 400.293039 232.07546 
L 394.967154 232.07546 
L 393.114711 227.336215 
L 389.999358 220.157887 
L 386.158457 210.457325 
L 385.177881 208.240315 
L 382.900356 202.765205 
L 379.25919 193.521447 
L 376.457894 186.467266 
L 375.596519 184.40517 
L 372.600133 176.345359 
L 370.831948 172.487597 
L 368.096679 164.126383 
L 366.909055 160.570025 
L 366.565404 159.354975 
L 364.540322 152.381259 
L 362.879924 147.265177 
L 362.54048 146.268938 
L 362.267005 145.359611 
L 360.504777 138.349098 
L 360.060866 136.73488 
L 359.586436 134.753326 
L 358.622193 129.568074 
L 358.128763 127.200822 
L 357.448087 122.945481 
L 356.923882 117.469599 
L 356.447713 112.899735 
L 356.285268 104.644681 
L 356.074492 100.982163 
L 356.77413 96.830782 
L 357.420377 89.06459 
L 358.251337 84.033403 
L 360.492068 73.235077 
L 361.192919 69.996474 
L 361.479394 68.772103 
L 363.484989 60.884549 
L 363.58588 60.462416 
L 363.627909 60.279934 
L 364.540322 56.982124 
L 364.824382 55.752199 
L 364.838308 55.695387 
L 364.854031 55.632645 
L 365.933966 51.207087 
L 366.006011 50.928358 
L 366.088208 50.618781 
L 367.116955 46.676656 
L 367.258182 46.161329 
L 367.420939 45.585206 
L 368.393004 42.164837 
L 368.617599 41.3943 
L 376.457894 41.3943 
" clip-path="url(#p6b4fbd1ed2)" style="fill: #d4e6f1"/>
   </g>
   <g id="PathCollection_9">
    <path d="M 42.765865 119.503787 
L 43.481992 119.620602 
L 54.683437 122.138532 
L 60.810445 123.524618 
L 66.60101 125.258746 
L 73.257591 127.200822 
L 76.300321 128.088127 
L 78.518582 128.896055 
L 88.968153 132.555052 
L 90.436155 133.203967 
L 98.781982 136.73488 
L 100.514391 137.470615 
L 102.353727 138.478205 
L 110.827275 142.879519 
L 114.2713 145.252574 
L 115.828586 146.268938 
L 120.768223 149.521328 
L 126.188872 154.738996 
L 130.068348 158.242339 
L 131.73828 160.570025 
L 138.106445 169.642089 
L 139.321294 171.272748 
L 140.910142 175.291295 
L 145.362574 184.40517 
L 146.856004 187.573183 
L 150.024017 199.611259 
L 151.907706 206.356626 
L 152.121472 208.240315 
L 152.351721 210.568019 
L 154.391621 220.157887 
L 155.460464 226.639013 
L 155.81085 232.07546 
L 150.024017 232.07546 
L 142.343309 232.07546 
L 139.634237 221.68568 
L 139.382279 220.157887 
L 139.158494 219.105838 
L 138.106445 215.951899 
L 135.592111 208.240315 
L 133.215003 201.214184 
L 130.775121 196.322742 
L 125.066444 185.527599 
L 124.24615 184.40517 
L 118.294785 176.511083 
L 115.445996 172.487597 
L 114.938614 171.820283 
L 114.2713 171.210489 
L 102.977955 160.570025 
L 102.732112 160.342994 
L 102.353727 160.085315 
L 91.79126 152.606418 
L 90.436155 151.883342 
L 80.195232 146.268938 
L 79.484618 145.882524 
L 78.518582 145.458365 
L 68.271617 140.833666 
L 66.60101 140.217722 
L 57.318 136.73488 
L 55.956536 136.225641 
L 54.683437 135.833769 
L 44.528872 132.673054 
L 42.765865 132.111911 
L 42.765865 131.967851 
L 42.765865 127.200822 
L 42.765865 120.050279 
M 368.617599 41.3943 
L 368.393004 42.164837 
L 367.420939 45.585206 
L 367.258182 46.161329 
L 367.116955 46.676656 
L 366.088208 50.618781 
L 366.006011 50.928358 
L 365.933966 51.207087 
L 364.854031 55.632645 
L 364.838308 55.695387 
L 364.824382 55.752199 
L 364.540322 56.982124 
L 363.627909 60.279934 
L 363.58588 60.462416 
L 363.484989 60.884549 
L 361.479394 68.772103 
L 361.192919 69.996474 
L 360.492068 73.235077 
L 358.251337 84.033403 
L 357.420377 89.06459 
L 356.77413 96.830782 
L 356.074492 100.982163 
L 356.285268 104.644681 
L 356.447713 112.899735 
L 356.923882 117.469599 
L 357.448087 122.945481 
L 358.128763 127.200822 
L 358.622193 129.568074 
L 359.586436 134.753326 
L 360.060866 136.73488 
L 360.504777 138.349098 
L 362.267005 145.359611 
L 362.54048 146.268938 
L 362.879924 147.265177 
L 364.540322 152.381259 
L 366.565404 159.354975 
L 366.909055 160.570025 
L 368.096679 164.126383 
L 370.831948 172.487597 
L 372.600133 176.345359 
L 375.596519 184.40517 
L 376.457894 186.467266 
L 379.25919 193.521447 
L 382.900356 202.765205 
L 385.177881 208.240315 
L 386.158457 210.457325 
L 389.999358 220.157887 
L 393.114711 227.336215 
L 394.967154 232.07546 
L 388.375467 232.07546 
L 380.742808 232.07546 
L 376.457894 222.355068 
L 375.769491 220.84629 
L 375.395995 220.157887 
L 374.494428 218.194421 
L 369.899618 208.240315 
L 368.277283 204.503354 
L 364.051084 196.322742 
L 360.712696 188.232796 
L 358.794513 184.40517 
L 354.019107 173.883955 
L 353.379094 172.487597 
L 353.192656 171.917691 
L 352.622749 170.571786 
L 348.027261 160.570025 
L 347.294575 158.747656 
L 345.472206 154.239882 
L 342.968062 148.773081 
L 341.79877 146.268938 
L 340.363517 142.863146 
L 339.535123 140.692935 
L 338.321662 137.678933 
L 337.90916 136.73488 
L 336.684423 133.60509 
L 335.881185 131.967851 
L 334.484428 128.130617 
L 334.142301 127.200822 
L 333.958917 126.594397 
L 331.316453 120.050279 
L 330.61544 117.308524 
L 328.995595 112.899735 
L 328.787604 112.043828 
L 326.994372 105.465244 
L 324.950004 100.982163 
L 323.206017 91.100985 
L 322.253947 89.06459 
L 320.977412 82.978264 
L 320.535995 79.530532 
L 321.855235 74.327154 
L 320.656963 69.996474 
L 320.213507 66.189406 
L 320.437321 65.229445 
L 324.020575 60.462416 
L 328.787604 60.462416 
L 328.787604 58.078902 
L 328.787604 55.695387 
L 328.787604 53.311873 
L 328.787604 50.928358 
L 328.787604 48.544844 
L 328.787604 46.161329 
L 328.787604 43.777815 
L 328.787604 41.3943 
L 333.554633 41.3943 
L 338.321662 41.3943 
L 345.472206 41.3943 
L 352.622749 41.3943 
L 364.540322 41.3943 
" clip-path="url(#p6b4fbd1ed2)" style="fill: #ecf2f5"/>
   </g>
   <g id="PathCollection_10">
    <path d="M 42.765865 106.705378 
L 49.62638 107.842678 
L 54.683437 108.289872 
L 58.832435 108.750737 
L 66.60101 110.255334 
L 77.954929 112.336082 
L 78.987199 112.431118 
L 81.301626 112.899735 
L 90.436155 114.740472 
L 97.327364 115.915553 
L 102.353727 117.324163 
L 114.092908 120.157314 
L 114.2713 120.227063 
L 114.960211 120.463626 
L 126.188872 123.67531 
L 130.520869 124.601624 
L 136.098618 127.200822 
L 138.106445 128.144087 
L 143.012709 130.005345 
L 150.024017 135.216154 
L 151.531408 136.131924 
L 151.937213 136.73488 
L 152.627696 137.776352 
L 157.969952 143.090564 
L 159.390218 146.268938 
L 161.94159 152.077639 
L 162.458258 153.10948 
L 162.489979 153.748515 
L 164.689841 160.570025 
L 166.871658 167.557529 
L 167.263144 172.487597 
L 167.095758 177.641766 
L 168.389376 184.40517 
L 169.217617 189.046715 
L 169.566672 196.322742 
L 169.186378 203.567531 
L 169.748991 208.240315 
L 170.139375 211.960102 
L 169.639148 227.855446 
L 169.925469 232.07546 
L 161.94159 232.07546 
L 155.81085 232.07546 
L 155.460464 226.639013 
L 154.391621 220.157887 
L 152.351721 210.568019 
L 152.121472 208.240315 
L 151.907706 206.356626 
L 150.024017 199.611259 
L 146.856004 187.573183 
L 145.362574 184.40517 
L 140.910142 175.291295 
L 139.321294 171.272748 
L 138.106445 169.642089 
L 131.73828 160.570025 
L 130.068348 158.242339 
L 126.188872 154.738996 
L 120.768223 149.521328 
L 115.828586 146.268938 
L 114.2713 145.252574 
L 110.827275 142.879519 
L 102.353727 138.478205 
L 100.514391 137.470615 
L 98.781982 136.73488 
L 90.436155 133.203967 
L 88.968153 132.555052 
L 78.518582 128.896055 
L 76.300321 128.088127 
L 73.257591 127.200822 
L 66.60101 125.258746 
L 60.810445 123.524618 
L 54.683437 122.138532 
L 43.481992 119.620602 
L 42.765865 119.503787 
L 42.765865 112.899735 
M 328.787604 41.3943 
L 328.787604 43.777815 
L 328.787604 46.161329 
L 328.787604 48.544844 
L 328.787604 50.928358 
L 328.787604 53.311873 
L 328.787604 55.695387 
L 328.787604 58.078902 
L 328.787604 60.462416 
L 324.020575 60.462416 
L 320.437321 65.229445 
L 320.213507 66.189406 
L 320.656963 69.996474 
L 321.855235 74.327154 
L 320.535995 79.530532 
L 320.977412 82.978264 
L 322.253947 89.06459 
L 323.206017 91.100985 
L 324.950004 100.982163 
L 326.994372 105.465244 
L 328.787604 112.043828 
L 328.995595 112.899735 
L 330.61544 117.308524 
L 331.316453 120.050279 
L 333.958917 126.594397 
L 334.142301 127.200822 
L 334.484428 128.130617 
L 335.881185 131.967851 
L 336.684423 133.60509 
L 337.90916 136.73488 
L 338.321662 137.678933 
L 339.535123 140.692935 
L 340.363517 142.863146 
L 341.79877 146.268938 
L 342.968062 148.773081 
L 345.472206 154.239882 
L 347.294575 158.747656 
L 348.027261 160.570025 
L 352.622749 170.571786 
L 353.192656 171.917691 
L 353.379094 172.487597 
L 354.019107 173.883955 
L 358.794513 184.40517 
L 360.712696 188.232796 
L 364.051084 196.322742 
L 368.277283 204.503354 
L 369.899618 208.240315 
L 374.494428 218.194421 
L 375.395995 220.157887 
L 375.769491 220.84629 
L 376.457894 222.355068 
L 380.742808 232.07546 
L 376.457894 232.07546 
L 366.043411 232.07546 
L 365.572475 231.043306 
L 359.66654 220.157887 
L 357.450004 215.330632 
L 353.576807 208.240315 
L 352.622749 206.382118 
L 349.739642 201.12792 
L 346.762505 196.322742 
L 342.770026 188.908803 
L 340.004079 184.40517 
L 338.321662 181.415493 
L 336.181181 177.8388 
L 332.604314 172.487597 
L 330.345716 168.592318 
L 328.787604 166.225622 
L 324.806801 160.570025 
L 324.421506 159.968629 
L 319.58556 153.419482 
L 319.423787 153.16412 
L 319.253546 152.936631 
L 313.719973 146.268938 
L 313.170235 145.55745 
L 312.103003 144.267498 
L 307.628063 139.718173 
L 304.952459 137.195465 
L 304.344839 136.73488 
L 300.569783 133.720921 
L 293.034887 128.491223 
L 291.584141 127.781121 
L 290.236808 127.200822 
L 281.117314 123.090349 
L 277.77931 122.053081 
L 269.199742 119.671183 
L 260.382467 118.1901 
L 257.282169 117.687305 
L 254.543527 117.311637 
L 250.131626 116.641034 
L 246.740252 116.291109 
L 242.981082 115.765435 
L 239.819829 115.308398 
L 236.837719 114.964238 
L 233.447024 114.414442 
L 229.170595 113.635634 
L 228.263146 113.52501 
L 225.396247 112.899735 
L 223.912967 112.564219 
L 217.86495 111.06219 
L 214.666093 109.405853 
L 209.61188 107.617393 
L 204.800526 105.793516 
L 200.679288 100.982163 
L 194.004759 92.754138 
L 193.372552 89.06459 
L 193.023442 85.327898 
L 190.248087 75.953451 
L 190.179861 69.996474 
L 190.261094 67.023189 
L 189.840984 63.603746 
L 189.96981 60.462416 
L 190.058943 58.935344 
L 189.927432 57.248762 
L 190.021458 55.695387 
L 190.119063 54.180338 
L 190.010913 52.465037 
L 190.107323 50.928358 
L 190.201344 49.429766 
L 190.094627 47.681265 
L 190.182599 46.161329 
L 190.262699 44.675008 
L 190.134126 42.906337 
L 190.203615 41.3943 
L 197.694307 41.3943 
L 209.61188 41.3943 
L 216.762423 41.3943 
L 223.912967 41.3943 
L 228.679996 41.3943 
L 233.447024 41.3943 
L 238.214053 41.3943 
L 242.981082 41.3943 
L 250.131626 41.3943 
L 257.282169 41.3943 
L 269.199742 41.3943 
L 281.117314 41.3943 
L 293.034887 41.3943 
L 304.952459 41.3943 
L 312.103003 41.3943 
L 319.253546 41.3943 
L 324.020575 41.3943 
" clip-path="url(#p6b4fbd1ed2)" style="fill: #f9eee7"/>
   </g>
   <g id="PathCollection_11">
    <path d="M 42.765865 93.593855 
L 49.976811 93.771217 
L 54.683437 94.187423 
L 60.446413 94.827566 
L 66.60101 94.997804 
L 72.522987 95.060185 
L 85.715177 96.261185 
L 90.436155 96.161399 
L 95.603415 95.814903 
L 102.353727 96.184733 
L 109.537061 96.247924 
L 114.2713 95.504133 
L 121.398057 93.855406 
L 126.188872 93.538186 
L 130.065592 92.94131 
L 138.106445 89.14974 
L 138.253913 89.06459 
L 145.139543 85.157011 
L 150.024017 80.021506 
L 155.047665 74.015392 
L 156.843138 69.996474 
L 158.411146 66.641623 
L 159.869896 64.400768 
L 161.456298 60.462416 
L 161.94159 59.289627 
L 162.391617 58.168907 
L 162.431071 57.981006 
L 163.294706 55.695387 
L 164.042255 53.732006 
L 164.220188 52.856153 
L 164.913119 50.928358 
L 165.516941 49.259914 
L 165.80438 47.772286 
L 166.355361 46.161329 
L 166.838093 44.757115 
L 167.204437 42.725245 
L 167.636739 41.3943 
L 173.859162 41.3943 
L 185.776735 41.3943 
L 190.203615 41.3943 
L 190.134126 42.906337 
L 190.262699 44.675008 
L 190.182599 46.161329 
L 190.094627 47.681265 
L 190.201344 49.429766 
L 190.107323 50.928358 
L 190.010913 52.465037 
L 190.119063 54.180338 
L 190.021458 55.695387 
L 189.927432 57.248762 
L 190.058943 58.935344 
L 189.96981 60.462416 
L 189.840984 63.603746 
L 190.261094 67.023189 
L 190.179861 69.996474 
L 190.248087 75.953451 
L 193.023442 85.327898 
L 193.372552 89.06459 
L 194.004759 92.754138 
L 200.679288 100.982163 
L 204.800526 105.793516 
L 209.61188 107.617393 
L 214.666093 109.405853 
L 217.86495 111.06219 
L 223.912967 112.564219 
L 225.396247 112.899735 
L 228.263146 113.52501 
L 229.170595 113.635634 
L 233.447024 114.414442 
L 236.837719 114.964238 
L 239.819829 115.308398 
L 242.981082 115.765435 
L 246.740252 116.291109 
L 250.131626 116.641034 
L 254.543527 117.311637 
L 257.282169 117.687305 
L 260.382467 118.1901 
L 269.199742 119.671183 
L 277.77931 122.053081 
L 281.117314 123.090349 
L 290.236808 127.200822 
L 291.584141 127.781121 
L 293.034887 128.491223 
L 300.569783 133.720921 
L 304.344839 136.73488 
L 304.952459 137.195465 
L 307.628063 139.718173 
L 312.103003 144.267498 
L 313.170235 145.55745 
L 313.719973 146.268938 
L 319.253546 152.936631 
L 319.423787 153.16412 
L 319.58556 153.419482 
L 324.421506 159.968629 
L 324.806801 160.570025 
L 328.787604 166.225622 
L 330.345716 168.592318 
L 332.604314 172.487597 
L 336.181181 177.8388 
L 338.321662 181.415493 
L 340.004079 184.40517 
L 342.770026 188.908803 
L 346.762505 196.322742 
L 349.739642 201.12792 
L 352.622749 206.382118 
L 353.576807 208.240315 
L 357.450004 215.330632 
L 359.66654 220.157887 
L 365.572475 231.043306 
L 366.043411 232.07546 
L 364.540322 232.07546 
L 352.622749 232.07546 
L 350.281796 232.07546 
L 347.921173 227.993847 
L 342.787452 220.157887 
L 340.585081 216.385523 
L 338.321662 212.951007 
L 335.027387 208.240315 
L 334.11171 206.847624 
L 331.610916 203.381021 
L 328.787604 199.459335 
L 327.963463 198.383094 
L 326.228388 196.322742 
L 321.652016 190.326568 
L 319.253546 187.498051 
L 316.373138 184.40517 
L 313.847636 181.497448 
L 305.530994 173.451822 
L 304.952459 172.897564 
L 304.721594 172.718463 
L 304.311972 172.487597 
L 290.928383 162.676529 
L 286.785314 160.570025 
L 281.117314 157.586184 
L 276.669179 156.088363 
L 269.199742 153.587741 
L 259.627979 152.011996 
L 257.282169 151.589558 
L 255.296104 151.433416 
L 250.131626 151.120882 
L 245.125335 151.275229 
L 242.981082 151.25299 
L 241.580365 151.318405 
L 234.216541 152.265207 
L 233.447024 152.339237 
L 232.787378 152.430012 
L 228.956401 153.419482 
L 224.631739 154.49764 
L 223.912967 154.781697 
L 221.294916 156.037532 
L 216.762423 157.919492 
L 215.000891 158.808493 
L 212.670877 160.570025 
L 209.61188 162.889537 
L 204.605538 167.481256 
L 197.694307 179.83581 
L 196.231351 182.942214 
L 195.954805 184.40517 
L 195.523168 186.576309 
L 192.825599 196.322742 
L 190.665086 201.211094 
L 189.560434 208.240315 
L 187.792641 218.141981 
L 187.329092 220.157887 
L 186.8841 221.265253 
L 185.776735 227.967614 
L 185.162554 232.07546 
L 173.859162 232.07546 
L 169.925469 232.07546 
L 169.639148 227.855446 
L 170.139375 211.960102 
L 169.748991 208.240315 
L 169.186378 203.567531 
L 169.566672 196.322742 
L 169.217617 189.046715 
L 168.389376 184.40517 
L 167.095758 177.641766 
L 167.263144 172.487597 
L 166.871658 167.557529 
L 164.689841 160.570025 
L 162.489979 153.748515 
L 162.458258 153.10948 
L 161.94159 152.077639 
L 159.390218 146.268938 
L 157.969952 143.090564 
L 152.627696 137.776352 
L 151.937213 136.73488 
L 151.531408 136.131924 
L 150.024017 135.216154 
L 143.012709 130.005345 
L 138.106445 128.144087 
L 136.098618 127.200822 
L 130.520869 124.601624 
L 126.188872 123.67531 
L 114.960211 120.463626 
L 114.2713 120.227063 
L 114.092908 120.157314 
L 102.353727 117.324163 
L 97.327364 115.915553 
L 90.436155 114.740472 
L 81.301626 112.899735 
L 78.987199 112.431118 
L 77.954929 112.336082 
L 66.60101 110.255334 
L 58.832435 108.750737 
L 54.683437 108.289872 
L 49.62638 107.842678 
L 42.765865 106.705378 
L 42.765865 100.982163 
" clip-path="url(#p6b4fbd1ed2)" style="fill: #fddcc9"/>
   </g>
   <g id="PathCollection_12">
    <path d="M 42.765865 80.016655 
L 43.393481 80.032625 
L 54.683437 79.612135 
L 66.41374 79.380717 
L 66.60101 79.364609 
L 66.842951 79.33698 
L 78.518582 78.598004 
L 88.179746 77.725405 
L 90.436155 77.310206 
L 94.447738 76.321265 
L 102.353727 74.900583 
L 107.050138 73.753602 
L 114.2713 70.828358 
L 115.949525 69.996474 
L 120.526196 67.731404 
L 126.188872 64.004515 
L 129.227496 61.677866 
L 130.386236 60.462416 
L 131.3897 59.422251 
L 133.890768 57.235766 
L 135.259911 55.695387 
L 137.233449 53.486472 
L 137.539369 53.198458 
L 138.106445 52.514473 
L 139.307314 50.928358 
L 140.724595 49.068474 
L 141.382447 47.889643 
L 142.617086 46.161329 
L 143.549263 44.866378 
L 144.833792 42.432345 
L 145.537449 41.3943 
L 150.024017 41.3943 
L 161.94159 41.3943 
L 167.636739 41.3943 
L 167.204437 42.725245 
L 166.838093 44.757115 
L 166.355361 46.161329 
L 165.80438 47.772286 
L 165.516941 49.259914 
L 164.913119 50.928358 
L 164.220188 52.856153 
L 164.042255 53.732006 
L 163.294706 55.695387 
L 162.431071 57.981006 
L 162.391617 58.168907 
L 161.94159 59.289627 
L 161.456298 60.462416 
L 159.869896 64.400768 
L 158.411146 66.641623 
L 156.843138 69.996474 
L 155.047665 74.015392 
L 150.024017 80.021506 
L 145.139543 85.157011 
L 138.253913 89.06459 
L 138.106445 89.14974 
L 130.065592 92.94131 
L 126.188872 93.538186 
L 121.398057 93.855406 
L 114.2713 95.504133 
L 109.537061 96.247924 
L 102.353727 96.184733 
L 95.603415 95.814903 
L 90.436155 96.161399 
L 85.715177 96.261185 
L 72.522987 95.060185 
L 66.60101 94.997804 
L 60.446413 94.827566 
L 54.683437 94.187423 
L 49.976811 93.771217 
L 42.765865 93.593855 
L 42.765865 89.06459 
M 332.435604 232.07546 
L 328.787604 227.286067 
L 326.878227 224.931331 
L 322.609687 220.157887 
L 320.360267 217.391087 
L 319.253546 216.154579 
L 313.10695 209.91356 
L 311.851939 208.658755 
L 311.366159 208.240315 
L 304.952459 202.400303 
L 301.430809 199.844393 
L 294.85995 196.322742 
L 286.796347 190.643709 
L 281.117314 187.775979 
L 269.599812 184.40517 
L 269.29296 184.311952 
L 269.059512 184.26494 
L 257.282169 183.176313 
L 250.536123 183.731007 
L 249.763414 183.791483 
L 247.072429 184.40517 
L 242.981082 185.323331 
L 239.100856 186.622176 
L 236.864415 187.779266 
L 233.447024 189.353046 
L 231.161592 190.60916 
L 224.043122 196.322742 
L 223.942974 196.397761 
L 223.912967 196.429002 
L 223.688498 196.696856 
L 215.520659 206.170708 
L 214.362368 208.240315 
L 209.61188 216.252201 
L 208.288419 218.834426 
L 207.984095 220.157887 
L 206.890524 222.879243 
L 202.909191 232.07546 
L 197.694307 232.07546 
L 185.776735 232.07546 
L 185.162554 232.07546 
L 185.776735 227.967614 
L 186.8841 221.265253 
L 187.329092 220.157887 
L 187.792641 218.141981 
L 189.560434 208.240315 
L 190.665086 201.211094 
L 192.825599 196.322742 
L 195.523168 186.576309 
L 195.954805 184.40517 
L 196.231351 182.942214 
L 197.694307 179.83581 
L 204.605538 167.481256 
L 209.61188 162.889537 
L 212.670877 160.570025 
L 215.000891 158.808493 
L 216.762423 157.919492 
L 221.294916 156.037532 
L 223.912967 154.781697 
L 224.631739 154.49764 
L 228.956401 153.419482 
L 232.787378 152.430012 
L 233.447024 152.339237 
L 234.216541 152.265207 
L 241.580365 151.318405 
L 242.981082 151.25299 
L 245.125335 151.275229 
L 250.131626 151.120882 
L 255.296104 151.433416 
L 257.282169 151.589558 
L 259.627979 152.011996 
L 269.199742 153.587741 
L 276.669179 156.088363 
L 281.117314 157.586184 
L 286.785314 160.570025 
L 290.928383 162.676529 
L 304.311972 172.487597 
L 304.721594 172.718463 
L 304.952459 172.897564 
L 305.530994 173.451822 
L 313.847636 181.497448 
L 316.373138 184.40517 
L 319.253546 187.498051 
L 321.652016 190.326568 
L 326.228388 196.322742 
L 327.963463 198.383094 
L 328.787604 199.459335 
L 331.610916 203.381021 
L 334.11171 206.847624 
L 335.027387 208.240315 
L 338.321662 212.951007 
L 340.585081 216.385523 
L 342.787452 220.157887 
L 347.921173 227.993847 
L 350.281796 232.07546 
L 345.472206 232.07546 
L 338.321662 232.07546 
L 333.554633 232.07546 
" clip-path="url(#p6b4fbd1ed2)" style="fill: #f8bb9e"/>
   </g>
   <g id="PathCollection_13">
    <path d="M 42.765865 65.729862 
L 43.823733 65.652592 
L 54.683437 64.572606 
L 62.834585 63.722875 
L 66.60101 63.208949 
L 75.404734 61.707956 
L 78.518582 61.226191 
L 79.783965 60.968569 
L 81.724429 60.462416 
L 90.436155 58.195639 
L 90.656696 58.12301 
L 91.122871 57.941558 
L 97.197162 55.695387 
L 99.008989 55.02644 
L 102.353727 53.582885 
L 106.014204 51.660454 
L 107.18594 50.928358 
L 109.477505 49.503603 
L 111.969736 48.084531 
L 114.2713 46.534817 
L 114.748459 46.161329 
L 117.08961 44.341477 
L 118.597319 42.912611 
L 120.422502 41.3943 
L 126.188872 41.3943 
L 138.106445 41.3943 
L 145.537449 41.3943 
L 144.833792 42.432345 
L 143.549263 44.866378 
L 142.617086 46.161329 
L 141.382447 47.889643 
L 140.724595 49.068474 
L 139.307314 50.928358 
L 138.106445 52.514473 
L 137.539369 53.198458 
L 137.233449 53.486472 
L 135.259911 55.695387 
L 133.890768 57.235766 
L 131.3897 59.422251 
L 130.386236 60.462416 
L 129.227496 61.677866 
L 126.188872 64.004515 
L 120.526196 67.731404 
L 115.949525 69.996474 
L 114.2713 70.828358 
L 107.050138 73.753602 
L 102.353727 74.900583 
L 94.447738 76.321265 
L 90.436155 77.310206 
L 88.179746 77.725405 
L 78.518582 78.598004 
L 66.842951 79.33698 
L 66.60101 79.364609 
L 66.41374 79.380717 
L 54.683437 79.612135 
L 43.393481 80.032625 
L 42.765865 80.016655 
L 42.765865 79.530532 
L 42.765865 69.996474 
M 309.345064 232.07546 
L 304.952459 228.346598 
L 300.028628 225.081718 
L 289.764854 220.157887 
L 284.515742 216.75946 
L 281.117314 215.19761 
L 274.6887 213.729272 
L 269.199742 212.439988 
L 264.627783 212.812274 
L 257.282169 212.829544 
L 253.3544 213.611604 
L 245.002444 216.788951 
L 242.981082 217.551792 
L 242.114487 217.991399 
L 239.06995 220.157887 
L 234.583619 222.999373 
L 233.447024 223.974284 
L 230.939618 226.426403 
L 227.645546 229.489337 
L 225.543033 232.07546 
L 223.912967 232.07546 
L 216.762423 232.07546 
L 209.61188 232.07546 
L 202.909191 232.07546 
L 206.890524 222.879243 
L 207.984095 220.157887 
L 208.288419 218.834426 
L 209.61188 216.252201 
L 214.362368 208.240315 
L 215.520659 206.170708 
L 223.688498 196.696856 
L 223.912967 196.429002 
L 223.942974 196.397761 
L 224.043122 196.322742 
L 231.161592 190.60916 
L 233.447024 189.353046 
L 236.864415 187.779266 
L 239.100856 186.622176 
L 242.981082 185.323331 
L 247.072429 184.40517 
L 249.763414 183.791483 
L 250.536123 183.731007 
L 257.282169 183.176313 
L 269.059512 184.26494 
L 269.29296 184.311952 
L 269.599812 184.40517 
L 281.117314 187.775979 
L 286.796347 190.643709 
L 294.85995 196.322742 
L 301.430809 199.844393 
L 304.952459 202.400303 
L 311.366159 208.240315 
L 311.851939 208.658755 
L 313.10695 209.91356 
L 319.253546 216.154579 
L 320.360267 217.391087 
L 322.609687 220.157887 
L 326.878227 224.931331 
L 328.787604 227.286067 
L 332.435604 232.07546 
L 328.787604 232.07546 
L 324.020575 232.07546 
L 319.253546 232.07546 
L 312.103003 232.07546 
" clip-path="url(#p6b4fbd1ed2)" style="fill: #ee9677"/>
   </g>
   <g id="PathCollection_14">
    <path d="M 42.765865 50.715778 
L 49.076793 49.807029 
L 54.683437 48.945606 
L 62.064758 47.637594 
L 66.60101 46.763721 
L 69.058669 46.161329 
L 73.313026 45.120218 
L 78.518582 43.714447 
L 82.781459 42.246876 
L 84.989832 41.3943 
L 90.436155 41.3943 
L 102.353727 41.3943 
L 114.2713 41.3943 
L 120.422502 41.3943 
L 118.597319 42.912611 
L 117.08961 44.341477 
L 114.748459 46.161329 
L 114.2713 46.534817 
L 111.969736 48.084531 
L 109.477505 49.503603 
L 107.18594 50.928358 
L 106.014204 51.660454 
L 102.353727 53.582885 
L 99.008989 55.02644 
L 97.197162 55.695387 
L 91.122871 57.941558 
L 90.656696 58.12301 
L 90.436155 58.195639 
L 81.724429 60.462416 
L 79.783965 60.968569 
L 78.518582 61.226191 
L 75.404734 61.707956 
L 66.60101 63.208949 
L 62.834585 63.722875 
L 54.683437 64.572606 
L 43.823733 65.652592 
L 42.765865 65.729862 
L 42.765865 65.229445 
L 42.765865 60.462416 
L 42.765865 58.078902 
L 42.765865 55.695387 
L 42.765865 53.311873 
L 42.765865 50.928358 
M 225.543033 232.07546 
L 227.645546 229.489337 
L 230.939618 226.426403 
L 233.447024 223.974284 
L 234.583619 222.999373 
L 239.06995 220.157887 
L 242.114487 217.991399 
L 242.981082 217.551792 
L 245.002444 216.788951 
L 253.3544 213.611604 
L 257.282169 212.829544 
L 264.627783 212.812274 
L 269.199742 212.439988 
L 274.6887 213.729272 
L 281.117314 215.19761 
L 284.515742 216.75946 
L 289.764854 220.157887 
L 300.028628 225.081718 
L 304.952459 228.346598 
L 309.345064 232.07546 
L 304.952459 232.07546 
L 293.034887 232.07546 
L 281.117314 232.07546 
L 269.199742 232.07546 
L 257.282169 232.07546 
L 250.131626 232.07546 
L 242.981082 232.07546 
L 238.214053 232.07546 
L 233.447024 232.07546 
L 228.679996 232.07546 
" clip-path="url(#p6b4fbd1ed2)" style="fill: #db6b55"/>
   </g>
   <g id="PathCollection_15">
    <path d="M 84.989832 41.3943 
L 82.781459 42.246876 
L 78.518582 43.714447 
L 73.313026 45.120218 
L 69.058669 46.161329 
L 66.60101 46.763721 
L 62.064758 47.637594 
L 54.683437 48.945606 
L 49.076793 49.807029 
L 42.765865 50.715778 
L 42.765865 48.544844 
L 42.765865 46.161329 
L 42.765865 43.777815 
L 42.765865 41.3943 
L 54.683437 41.3943 
L 66.60101 41.3943 
L 78.518582 41.3943 
" clip-path="url(#p6b4fbd1ed2)" style="fill: #c53e3d"/>
   </g>
   <g id="PathCollection_16">
    <path clip-path="url(#p6b4fbd1ed2)" style="fill: #ab162a"/>
   </g>
   <g id="PathCollection_17">
    <path clip-path="url(#p6b4fbd1ed2)" style="fill: #7c0722"/>
   </g>
   <g id="PathCollection_18">
    <path clip-path="url(#p6b4fbd1ed2)" style="fill: #67001f"/>
   </g>
   <g id="PolyCollection_1">
    <path d="M 233.447024 60.462416 
L 233.447024 41.3943 
L 328.787604 41.3943 
L 328.787604 60.462416 
L 328.787604 60.462416 
L 233.447024 60.462416 
z
" clip-path="url(#p6b4fbd1ed2)" style="fill: url(#h468022240e); fill-opacity: 0.3; stroke: #333333; stroke-opacity: 0.3"/>
   </g>
   <g id="PathCollection_19">
    <defs>
     <path id="m5930a3a057" d="M -0 4.1833 
L 4.1833 0 
L 0 -4.1833 
L -4.1833 -0 
z
" style="stroke: #111827"/>
    </defs>
    <g clip-path="url(#p6b4fbd1ed2)">
     <use xlink:href="#m5930a3a057" x="233.447024" y="136.73488" style="fill: #34d399; stroke: #111827"/>
    </g>
   </g>
   <g id="matplotlib.axis_1">
    <g id="xtick_1">
     <g id="line2d_1">
      <defs>
       <path id="m6e81915a4f" d="M 0 0 
L 0 3.5 
" style="stroke: #000000; stroke-width: 0.8"/>
      </defs>
      <g>
       <use xlink:href="#m6e81915a4f" x="42.765865" y="232.07546" style="stroke: #000000; stroke-width: 0.8"/>
      </g>
     </g>
     <g id="text_1">
      <!-- 0 -->
      <g transform="translate(39.584615 246.673897) scale(0.1 -0.1)">
       <defs>
        <path id="DejaVuSans-30" d="M 2034 4250 
Q 1547 4250 1301 3770 
Q 1056 3291 1056 2328 
Q 1056 1369 1301 889 
Q 1547 409 2034 409 
Q 2525 409 2770 889 
Q 3016 1369 3016 2328 
Q 3016 3291 2770 3770 
Q 2525 4250 2034 4250 
z
M 2034 4750 
Q 2819 4750 3233 4129 
Q 3647 3509 3647 2328 
Q 3647 1150 3233 529 
Q 2819 -91 2034 -91 
Q 1250 -91 836 529 
Q 422 1150 422 2328 
Q 422 3509 836 4129 
Q 1250 4750 2034 4750 
z
" transform="scale(0.015625)"/>
       </defs>
       <use xlink:href="#DejaVuSans-30"/>
      </g>
     </g>
    </g>
    <g id="xtick_2">
     <g id="line2d_2">
      <g>
       <use xlink:href="#m6e81915a4f" x="90.436155" y="232.07546" style="stroke: #000000; stroke-width: 0.8"/>
      </g>
     </g>
     <g id="text_2">
      <!-- 50 -->
      <g transform="translate(84.073655 246.673897) scale(0.1 -0.1)">
       <defs>
        <path id="DejaVuSans-35" d="M 691 4666 
L 3169 4666 
L 3169 4134 
L 1269 4134 
L 1269 2991 
Q 1406 3038 1543 3061 
Q 1681 3084 1819 3084 
Q 2600 3084 3056 2656 
Q 3513 2228 3513 1497 
Q 3513 744 3044 326 
Q 2575 -91 1722 -91 
Q 1428 -91 1123 -41 
Q 819 9 494 109 
L 494 744 
Q 775 591 1075 516 
Q 1375 441 1709 441 
Q 2250 441 2565 725 
Q 2881 1009 2881 1497 
Q 2881 1984 2565 2268 
Q 2250 2553 1709 2553 
Q 1456 2553 1204 2497 
Q 953 2441 691 2322 
L 691 4666 
z
" transform="scale(0.015625)"/>
       </defs>
       <use xlink:href="#DejaVuSans-35"/>
       <use xlink:href="#DejaVuSans-30" x="63.623047"/>
      </g>
     </g>
    </g>
    <g id="xtick_3">
     <g id="line2d_3">
      <g>
       <use xlink:href="#m6e81915a4f" x="138.106445" y="232.07546" style="stroke: #000000; stroke-width: 0.8"/>
      </g>
     </g>
     <g id="text_3">
      <!-- 100 -->
      <g transform="translate(128.562695 246.673897) scale(0.1 -0.1)">
       <defs>
        <path id="DejaVuSans-31" d="M 794 531 
L 1825 531 
L 1825 4091 
L 703 3866 
L 703 4441 
L 1819 4666 
L 2450 4666 
L 2450 531 
L 3481 531 
L 3481 0 
L 794 0 
L 794 531 
z
" transform="scale(0.015625)"/>
       </defs>
       <use xlink:href="#DejaVuSans-31"/>
       <use xlink:href="#DejaVuSans-30" x="63.623047"/>
       <use xlink:href="#DejaVuSans-30" x="127.246094"/>
      </g>
     </g>
    </g>
    <g id="xtick_4">
     <g id="line2d_4">
      <g>
       <use xlink:href="#m6e81915a4f" x="185.776735" y="232.07546" style="stroke: #000000; stroke-width: 0.8"/>
      </g>
     </g>
     <g id="text_4">
      <!-- 150 -->
      <g transform="translate(176.232985 246.673897) scale(0.1 -0.1)">
       <use xlink:href="#DejaVuSans-31"/>
       <use xlink:href="#DejaVuSans-35" x="63.623047"/>
       <use xlink:href="#DejaVuSans-30" x="127.246094"/>
      </g>
     </g>
    </g>
    <g id="xtick_5">
     <g id="line2d_5">
      <g>
       <use xlink:href="#m6e81915a4f" x="233.447024" y="232.07546" style="stroke: #000000; stroke-width: 0.8"/>
      </g>
     </g>
     <g id="text_5">
      <!-- 200 -->
      <g transform="translate(223.903274 246.673897) scale(0.1 -0.1)">
       <defs>
        <path id="DejaVuSans-32" d="M 1228 531 
L 3431 531 
L 3431 0 
L 469 0 
L 469 531 
Q 828 903 1448 1529 
Q 2069 2156 2228 2338 
Q 2531 2678 2651 2914 
Q 2772 3150 2772 3378 
Q 2772 3750 2511 3984 
Q 2250 4219 1831 4219 
Q 1534 4219 1204 4116 
Q 875 4013 500 3803 
L 500 4441 
Q 881 4594 1212 4672 
Q 1544 4750 1819 4750 
Q 2544 4750 2975 4387 
Q 3406 4025 3406 3419 
Q 3406 3131 3298 2873 
Q 3191 2616 2906 2266 
Q 2828 2175 2409 1742 
Q 1991 1309 1228 531 
z
" transform="scale(0.015625)"/>
       </defs>
       <use xlink:href="#DejaVuSans-32"/>
       <use xlink:href="#DejaVuSans-30" x="63.623047"/>
       <use xlink:href="#DejaVuSans-30" x="127.246094"/>
      </g>
     </g>
    </g>
    <g id="xtick_6">
     <g id="line2d_6">
      <g>
       <use xlink:href="#m6e81915a4f" x="281.117314" y="232.07546" style="stroke: #000000; stroke-width: 0.8"/>
      </g>
     </g>
     <g id="text_6">
      <!-- 250 -->
      <g transform="translate(271.573564 246.673897) scale(0.1 -0.1)">
       <use xlink:href="#DejaVuSans-32"/>
       <use xlink:href="#DejaVuSans-35" x="63.623047"/>
       <use xlink:href="#DejaVuSans-30" x="127.246094"/>
      </g>
     </g>
    </g>
    <g id="xtick_7">
     <g id="line2d_7">
      <g>
       <use xlink:href="#m6e81915a4f" x="328.787604" y="232.07546" style="stroke: #000000; stroke-width: 0.8"/>
      </g>
     </g>
     <g id="text_7">
      <!-- 300 -->
      <g transform="translate(319.243854 246.673897) scale(0.1 -0.1)">
       <defs>
        <path id="DejaVuSans-33" d="M 2597 2516 
Q 3050 2419 3304 2112 
Q 3559 1806 3559 1356 
Q 3559 666 3084 287 
Q 2609 -91 1734 -91 
Q 1441 -91 1130 -33 
Q 819 25 488 141 
L 488 750 
Q 750 597 1062 519 
Q 1375 441 1716 441 
Q 2309 441 2620 675 
Q 2931 909 2931 1356 
Q 2931 1769 2642 2001 
Q 2353 2234 1838 2234 
L 1294 2234 
L 1294 2753 
L 1863 2753 
Q 2328 2753 2575 2939 
Q 2822 3125 2822 3475 
Q 2822 3834 2567 4026 
Q 2313 4219 1838 4219 
Q 1578 4219 1281 4162 
Q 984 4106 628 3988 
L 628 4550 
Q 988 4650 1302 4700 
Q 1616 4750 1894 4750 
Q 2613 4750 3031 4423 
Q 3450 4097 3450 3541 
Q 3450 3153 3228 2886 
Q 3006 2619 2597 2516 
z
" transform="scale(0.015625)"/>
       </defs>
       <use xlink:href="#DejaVuSans-33"/>
       <use xlink:href="#DejaVuSans-30" x="63.623047"/>
       <use xlink:href="#DejaVuSans-30" x="127.246094"/>
      </g>
     </g>
    </g>
    <g id="xtick_8">
     <g id="line2d_8">
      <g>
       <use xlink:href="#m6e81915a4f" x="376.457894" y="232.07546" style="stroke: #000000; stroke-width: 0.8"/>
      </g>
     </g>
     <g id="text_8">
      <!-- 350 -->
      <g transform="translate(366.914144 246.673897) scale(0.1 -0.1)">
       <use xlink:href="#DejaVuSans-33"/>
       <use xlink:href="#DejaVuSans-35" x="63.623047"/>
       <use xlink:href="#DejaVuSans-30" x="127.246094"/>
      </g>
     </g>
    </g>
    <g id="xtick_9">
     <g id="line2d_9">
      <g>
       <use xlink:href="#m6e81915a4f" x="424.128184" y="232.07546" style="stroke: #000000; stroke-width: 0.8"/>
      </g>
     </g>
     <g id="text_9">
      <!-- 400 -->
      <g transform="translate(414.584434 246.673897) scale(0.1 -0.1)">
       <defs>
        <path id="DejaVuSans-34" d="M 2419 4116 
L 825 1625 
L 2419 1625 
L 2419 4116 
z
M 2253 4666 
L 3047 4666 
L 3047 1625 
L 3713 1625 
L 3713 1100 
L 3047 1100 
L 3047 0 
L 2419 0 
L 2419 1100 
L 313 1100 
L 313 1709 
L 2253 4666 
z
" transform="scale(0.015625)"/>
       </defs>
       <use xlink:href="#DejaVuSans-34"/>
       <use xlink:href="#DejaVuSans-30" x="63.623047"/>
       <use xlink:href="#DejaVuSans-30" x="127.246094"/>
      </g>
     </g>
    </g>
    <g id="text_10">
     <!-- x [mm] -->
     <g transform="translate(215.256399 260.352022) scale(0.1 -0.1)">
      <defs>
       <path id="DejaVuSans-78" d="M 3513 3500 
L 2247 1797 
L 3578 0 
L 2900 0 
L 1881 1375 
L 863 0 
L 184 0 
L 1544 1831 
L 300 3500 
L 978 3500 
L 1906 2253 
L 2834 3500 
L 3513 3500 
z
" transform="scale(0.015625)"/>
       <path id="DejaVuSans-20" transform="scale(0.015625)"/>
       <path id="DejaVuSans-5b" d="M 550 4863 
L 1875 4863 
L 1875 4416 
L 1125 4416 
L 1125 -397 
L 1875 -397 
L 1875 -844 
L 550 -844 
L 550 4863 
z
" transform="scale(0.015625)"/>
       <path id="DejaVuSans-6d" d="M 3328 2828 
Q 3544 3216 3844 3400 
Q 4144 3584 4550 3584 
Q 5097 3584 5394 3201 
Q 5691 2819 5691 2113 
L 5691 0 
L 5113 0 
L 5113 2094 
Q 5113 2597 4934 2840 
Q 4756 3084 4391 3084 
Q 3944 3084 3684 2787 
Q 3425 2491 3425 1978 
L 3425 0 
L 2847 0 
L 2847 2094 
Q 2847 2600 2669 2842 
Q 2491 3084 2119 3084 
Q 1678 3084 1418 2786 
Q 1159 2488 1159 1978 
L 1159 0 
L 581 0 
L 581 3500 
L 1159 3500 
L 1159 2956 
Q 1356 3278 1631 3431 
Q 1906 3584 2284 3584 
Q 2666 3584 2933 3390 
Q 3200 3197 3328 2828 
z
" transform="scale(0.015625)"/>
       <path id="DejaVuSans-5d" d="M 1947 4863 
L 1947 -844 
L 622 -844 
L 622 -397 
L 1369 -397 
L 1369 4416 
L 622 4416 
L 622 4863 
L 1947 4863 
z
" transform="scale(0.015625)"/>
      </defs>
      <use xlink:href="#DejaVuSans-78"/>
      <use xlink:href="#DejaVuSans-20" x="59.179688"/>
      <use xlink:href="#DejaVuSans-5b" x="90.966797"/>
      <use xlink:href="#DejaVuSans-6d" x="129.980469"/>
      <use xlink:href="#DejaVuSans-6d" x="227.392578"/>
      <use xlink:href="#DejaVuSans-5d" x="324.804688"/>
     </g>
    </g>
   </g>
   <g id="matplotlib.axis_2">
    <g id="ytick_1">
     <g id="line2d_10">
      <defs>
       <path id="m328952e595" d="M 0 0 
L -3.5 0 
" style="stroke: #000000; stroke-width: 0.8"/>
      </defs>
      <g>
       <use xlink:href="#m328952e595" x="42.765865" y="41.3943" style="stroke: #000000; stroke-width: 0.8"/>
      </g>
     </g>
     <g id="text_11">
      <!-- 0 -->
      <g transform="translate(29.403365 45.193519) scale(0.1 -0.1)">
       <use xlink:href="#DejaVuSans-30"/>
      </g>
     </g>
    </g>
    <g id="ytick_2">
     <g id="line2d_11">
      <g>
       <use xlink:href="#m328952e595" x="42.765865" y="65.229445" style="stroke: #000000; stroke-width: 0.8"/>
      </g>
     </g>
     <g id="text_12">
      <!-- 25 -->
      <g transform="translate(23.040865 69.028664) scale(0.1 -0.1)">
       <use xlink:href="#DejaVuSans-32"/>
       <use xlink:href="#DejaVuSans-35" x="63.623047"/>
      </g>
     </g>
    </g>
    <g id="ytick_3">
     <g id="line2d_12">
      <g>
       <use xlink:href="#m328952e595" x="42.765865" y="89.06459" style="stroke: #000000; stroke-width: 0.8"/>
      </g>
     </g>
     <g id="text_13">
      <!-- 50 -->
      <g transform="translate(23.040865 92.863809) scale(0.1 -0.1)">
       <use xlink:href="#DejaVuSans-35"/>
       <use xlink:href="#DejaVuSans-30" x="63.623047"/>
      </g>
     </g>
    </g>
    <g id="ytick_4">
     <g id="line2d_13">
      <g>
       <use xlink:href="#m328952e595" x="42.765865" y="112.899735" style="stroke: #000000; stroke-width: 0.8"/>
      </g>
     </g>
     <g id="text_14">
      <!-- 75 -->
      <g transform="translate(23.040865 116.698954) scale(0.1 -0.1)">
       <defs>
        <path id="DejaVuSans-37" d="M 525 4666 
L 3525 4666 
L 3525 4397 
L 1831 0 
L 1172 0 
L 2766 4134 
L 525 4134 
L 525 4666 
z
" transform="scale(0.015625)"/>
       </defs>
       <use xlink:href="#DejaVuSans-37"/>
       <use xlink:href="#DejaVuSans-35" x="63.623047"/>
      </g>
     </g>
    </g>
    <g id="ytick_5">
     <g id="line2d_14">
      <g>
       <use xlink:href="#m328952e595" x="42.765865" y="136.73488" style="stroke: #000000; stroke-width: 0.8"/>
      </g>
     </g>
     <g id="text_15">
      <!-- 100 -->
      <g transform="translate(16.678365 140.534099) scale(0.1 -0.1)">
       <use xlink:href="#DejaVuSans-31"/>
       <use xlink:href="#DejaVuSans-30" x="63.623047"/>
       <use xlink:href="#DejaVuSans-30" x="127.246094"/>
      </g>
     </g>
    </g>
    <g id="ytick_6">
     <g id="line2d_15">
      <g>
       <use xlink:href="#m328952e595" x="42.765865" y="160.570025" style="stroke: #000000; stroke-width: 0.8"/>
      </g>
     </g>
     <g id="text_16">
      <!-- 125 -->
      <g transform="translate(16.678365 164.369244) scale(0.1 -0.1)">
       <use xlink:href="#DejaVuSans-31"/>
       <use xlink:href="#DejaVuSans-32" x="63.623047"/>
       <use xlink:href="#DejaVuSans-35" x="127.246094"/>
      </g>
     </g>
    </g>
    <g id="ytick_7">
     <g id="line2d_16">
      <g>
       <use xlink:href="#m328952e595" x="42.765865" y="184.40517" style="stroke: #000000; stroke-width: 0.8"/>
      </g>
     </g>
     <g id="text_17">
      <!-- 150 -->
      <g transform="translate(16.678365 188.204389) scale(0.1 -0.1)">
       <use xlink:href="#DejaVuSans-31"/>
       <use xlink:href="#DejaVuSans-35" x="63.623047"/>
       <use xlink:href="#DejaVuSans-30" x="127.246094"/>
      </g>
     </g>
    </g>
    <g id="ytick_8">
     <g id="line2d_17">
      <g>
       <use xlink:href="#m328952e595" x="42.765865" y="208.240315" style="stroke: #000000; stroke-width: 0.8"/>
      </g>
     </g>
     <g id="text_18">
      <!-- 175 -->
      <g transform="translate(16.678365 212.039534) scale(0.1 -0.1)">
       <use xlink:href="#DejaVuSans-31"/>
       <use xlink:href="#DejaVuSans-37" x="63.623047"/>
       <use xlink:href="#DejaVuSans-35" x="127.246094"/>
      </g>
     </g>
    </g>
    <g id="ytick_9">
     <g id="line2d_18">
      <g>
       <use xlink:href="#m328952e595" x="42.765865" y="232.07546" style="stroke: #000000; stroke-width: 0.8"/>
      </g>
     </g>
     <g id="text_19">
      <!-- 200 -->
      <g transform="translate(16.678365 235.874679) scale(0.1 -0.1)">
       <use xlink:href="#DejaVuSans-32"/>
       <use xlink:href="#DejaVuSans-30" x="63.623047"/>
       <use xlink:href="#DejaVuSans-30" x="127.246094"/>
      </g>
     </g>
    </g>
    <g id="text_20">
     <!-- y [mm] -->
     <g transform="translate(10.598678 154.925505) rotate(-90) scale(0.1 -0.1)">
      <defs>
       <path id="DejaVuSans-79" d="M 2059 -325 
Q 1816 -950 1584 -1140 
Q 1353 -1331 966 -1331 
L 506 -1331 
L 506 -850 
L 844 -850 
Q 1081 -850 1212 -737 
Q 1344 -625 1503 -206 
L 1606 56 
L 191 3500 
L 800 3500 
L 1894 763 
L 2988 3500 
L 3597 3500 
L 2059 -325 
z
" transform="scale(0.015625)"/>
      </defs>
      <use xlink:href="#DejaVuSans-79"/>
      <use xlink:href="#DejaVuSans-20" x="59.179688"/>
      <use xlink:href="#DejaVuSans-5b" x="90.966797"/>
      <use xlink:href="#DejaVuSans-6d" x="129.980469"/>
      <use xlink:href="#DejaVuSans-6d" x="227.392578"/>
      <use xlink:href="#DejaVuSans-5d" x="324.804688"/>
     </g>
    </g>
   </g>
   <g id="PathCollection_20">
    <path d="M 328.787604 41.3943 
L 328.787604 43.777815 
L 328.787604 46.161329 
L 328.787604 48.544844 
L 328.787604 50.928358 
L 328.787604 53.311873 
L 328.787604 55.695387 
L 328.787604 58.078902 
L 328.787604 60.462416 
L 324.020575 60.462416 
L 320.437321 65.229445 
L 320.213507 66.189406 
L 320.656963 69.996474 
L 321.855235 74.327154 
L 320.535995 79.530532 
L 320.977412 82.978264 
L 322.253947 89.06459 
L 323.206017 91.100985 
L 324.950004 100.982163 
L 326.994372 105.465244 
L 328.787604 112.043828 
L 328.995595 112.899735 
L 330.61544 117.308524 
L 331.316453 120.050279 
L 333.958917 126.594397 
L 334.142301 127.200822 
L 334.484428 128.130617 
L 335.881185 131.967851 
L 336.684423 133.60509 
L 337.90916 136.73488 
L 338.321662 137.678933 
L 339.535123 140.692935 
L 340.363517 142.863146 
L 341.79877 146.268938 
L 342.968062 148.773081 
L 345.472206 154.239882 
L 347.294575 158.747656 
L 348.027261 160.570025 
L 352.622749 170.571786 
L 353.192656 171.917691 
L 353.379094 172.487597 
L 354.019107 173.883955 
L 358.794513 184.40517 
L 360.712696 188.232796 
L 364.051084 196.322742 
L 368.277283 204.503354 
L 369.899618 208.240315 
L 374.494428 218.194421 
L 375.395995 220.157887 
L 375.769491 220.84629 
L 376.457894 222.355068 
L 380.742808 232.07546 
" clip-path="url(#p6b4fbd1ed2)" style="fill: none; stroke: #263238; stroke-width: 0.55"/>
    <path d="M 155.81085 232.07546 
L 155.460464 226.639013 
L 154.391621 220.157887 
L 152.351721 210.568019 
L 152.121472 208.240315 
L 151.907706 206.356626 
L 150.024017 199.611259 
L 146.856004 187.573183 
L 145.362574 184.40517 
L 140.910142 175.291295 
L 139.321294 171.272748 
L 138.106445 169.642089 
L 131.73828 160.570025 
L 130.068348 158.242339 
L 126.188872 154.738996 
L 120.768223 149.521328 
L 115.828586 146.268938 
L 114.2713 145.252574 
L 110.827275 142.879519 
L 102.353727 138.478205 
L 100.514391 137.470615 
L 98.781982 136.73488 
L 90.436155 133.203967 
L 88.968153 132.555052 
L 78.518582 128.896055 
L 76.300321 128.088127 
L 73.257591 127.200822 
L 66.60101 125.258746 
L 60.810445 123.524618 
L 54.683437 122.138532 
L 43.481992 119.620602 
L 42.765865 119.503787 
" clip-path="url(#p6b4fbd1ed2)" style="fill: none; stroke: #263238; stroke-width: 0.55"/>
   </g>
   <g id="patch_3">
    <path d="M 42.765865 232.07546 
L 42.765865 41.3943 
" style="fill: none; stroke: #000000; stroke-width: 0.8; stroke-linejoin: miter; stroke-linecap: square"/>
   </g>
   <g id="patch_4">
    <path d="M 424.128184 232.07546 
L 424.128184 41.3943 
" style="fill: none; stroke: #000000; stroke-width: 0.8; stroke-linejoin: miter; stroke-linecap: square"/>
   </g>
   <g id="patch_5">
    <path d="M 42.765865 232.07546 
L 424.128184 232.07546 
" style="fill: none; stroke: #000000; stroke-width: 0.8; stroke-linejoin: miter; stroke-linecap: square"/>
   </g>
   <g id="patch_6">
    <path d="M 42.765865 41.3943 
L 424.128184 41.3943 
" style="fill: none; stroke: #000000; stroke-width: 0.8; stroke-linejoin: miter; stroke-linecap: square"/>
   </g>
   <g id="text_21">
    <!-- CalculiX C3D20R — Mode 4: 58.34 Hz -->
    <g transform="translate(120.469837 35.3943) scale(0.12 -0.12)">
     <defs>
      <path id="DejaVuSans-43" d="M 4122 4306 
L 4122 3641 
Q 3803 3938 3442 4084 
Q 3081 4231 2675 4231 
Q 1875 4231 1450 3742 
Q 1025 3253 1025 2328 
Q 1025 1406 1450 917 
Q 1875 428 2675 428 
Q 3081 428 3442 575 
Q 3803 722 4122 1019 
L 4122 359 
Q 3791 134 3420 21 
Q 3050 -91 2638 -91 
Q 1578 -91 968 557 
Q 359 1206 359 2328 
Q 359 3453 968 4101 
Q 1578 4750 2638 4750 
Q 3056 4750 3426 4639 
Q 3797 4528 4122 4306 
z
" transform="scale(0.015625)"/>
      <path id="DejaVuSans-61" d="M 2194 1759 
Q 1497 1759 1228 1600 
Q 959 1441 959 1056 
Q 959 750 1161 570 
Q 1363 391 1709 391 
Q 2188 391 2477 730 
Q 2766 1069 2766 1631 
L 2766 1759 
L 2194 1759 
z
M 3341 1997 
L 3341 0 
L 2766 0 
L 2766 531 
Q 2569 213 2275 61 
Q 1981 -91 1556 -91 
Q 1019 -91 701 211 
Q 384 513 384 1019 
Q 384 1609 779 1909 
Q 1175 2209 1959 2209 
L 2766 2209 
L 2766 2266 
Q 2766 2663 2505 2880 
Q 2244 3097 1772 3097 
Q 1472 3097 1187 3025 
Q 903 2953 641 2809 
L 641 3341 
Q 956 3463 1253 3523 
Q 1550 3584 1831 3584 
Q 2591 3584 2966 3190 
Q 3341 2797 3341 1997 
z
" transform="scale(0.015625)"/>
      <path id="DejaVuSans-6c" d="M 603 4863 
L 1178 4863 
L 1178 0 
L 603 0 
L 603 4863 
z
" transform="scale(0.015625)"/>
      <path id="DejaVuSans-63" d="M 3122 3366 
L 3122 2828 
Q 2878 2963 2633 3030 
Q 2388 3097 2138 3097 
Q 1578 3097 1268 2742 
Q 959 2388 959 1747 
Q 959 1106 1268 751 
Q 1578 397 2138 397 
Q 2388 397 2633 464 
Q 2878 531 3122 666 
L 3122 134 
Q 2881 22 2623 -34 
Q 2366 -91 2075 -91 
Q 1284 -91 818 406 
Q 353 903 353 1747 
Q 353 2603 823 3093 
Q 1294 3584 2113 3584 
Q 2378 3584 2631 3529 
Q 2884 3475 3122 3366 
z
" transform="scale(0.015625)"/>
      <path id="DejaVuSans-75" d="M 544 1381 
L 544 3500 
L 1119 3500 
L 1119 1403 
Q 1119 906 1312 657 
Q 1506 409 1894 409 
Q 2359 409 2629 706 
Q 2900 1003 2900 1516 
L 2900 3500 
L 3475 3500 
L 3475 0 
L 2900 0 
L 2900 538 
Q 2691 219 2414 64 
Q 2138 -91 1772 -91 
Q 1169 -91 856 284 
Q 544 659 544 1381 
z
M 1991 3584 
L 1991 3584 
z
" transform="scale(0.015625)"/>
      <path id="DejaVuSans-69" d="M 603 3500 
L 1178 3500 
L 1178 0 
L 603 0 
L 603 3500 
z
M 603 4863 
L 1178 4863 
L 1178 4134 
L 603 4134 
L 603 4863 
z
" transform="scale(0.015625)"/>
      <path id="DejaVuSans-58" d="M 403 4666 
L 1081 4666 
L 2241 2931 
L 3406 4666 
L 4084 4666 
L 2584 2425 
L 4184 0 
L 3506 0 
L 2194 1984 
L 872 0 
L 191 0 
L 1856 2491 
L 403 4666 
z
" transform="scale(0.015625)"/>
      <path id="DejaVuSans-44" d="M 1259 4147 
L 1259 519 
L 2022 519 
Q 2988 519 3436 956 
Q 3884 1394 3884 2338 
Q 3884 3275 3436 3711 
Q 2988 4147 2022 4147 
L 1259 4147 
z
M 628 4666 
L 1925 4666 
Q 3281 4666 3915 4102 
Q 4550 3538 4550 2338 
Q 4550 1131 3912 565 
Q 3275 0 1925 0 
L 628 0 
L 628 4666 
z
" transform="scale(0.015625)"/>
      <path id="DejaVuSans-52" d="M 2841 2188 
Q 3044 2119 3236 1894 
Q 3428 1669 3622 1275 
L 4263 0 
L 3584 0 
L 2988 1197 
Q 2756 1666 2539 1819 
Q 2322 1972 1947 1972 
L 1259 1972 
L 1259 0 
L 628 0 
L 628 4666 
L 2053 4666 
Q 2853 4666 3247 4331 
Q 3641 3997 3641 3322 
Q 3641 2881 3436 2590 
Q 3231 2300 2841 2188 
z
M 1259 4147 
L 1259 2491 
L 2053 2491 
Q 2509 2491 2742 2702 
Q 2975 2913 2975 3322 
Q 2975 3731 2742 3939 
Q 2509 4147 2053 4147 
L 1259 4147 
z
" transform="scale(0.015625)"/>
      <path id="DejaVuSans-2014" d="M 313 1978 
L 6088 1978 
L 6088 1528 
L 313 1528 
L 313 1978 
z
" transform="scale(0.015625)"/>
      <path id="DejaVuSans-4d" d="M 628 4666 
L 1569 4666 
L 2759 1491 
L 3956 4666 
L 4897 4666 
L 4897 0 
L 4281 0 
L 4281 4097 
L 3078 897 
L 2444 897 
L 1241 4097 
L 1241 0 
L 628 0 
L 628 4666 
z
" transform="scale(0.015625)"/>
      <path id="DejaVuSans-6f" d="M 1959 3097 
Q 1497 3097 1228 2736 
Q 959 2375 959 1747 
Q 959 1119 1226 758 
Q 1494 397 1959 397 
Q 2419 397 2687 759 
Q 2956 1122 2956 1747 
Q 2956 2369 2687 2733 
Q 2419 3097 1959 3097 
z
M 1959 3584 
Q 2709 3584 3137 3096 
Q 3566 2609 3566 1747 
Q 3566 888 3137 398 
Q 2709 -91 1959 -91 
Q 1206 -91 779 398 
Q 353 888 353 1747 
Q 353 2609 779 3096 
Q 1206 3584 1959 3584 
z
" transform="scale(0.015625)"/>
      <path id="DejaVuSans-64" d="M 2906 2969 
L 2906 4863 
L 3481 4863 
L 3481 0 
L 2906 0 
L 2906 525 
Q 2725 213 2448 61 
Q 2172 -91 1784 -91 
Q 1150 -91 751 415 
Q 353 922 353 1747 
Q 353 2572 751 3078 
Q 1150 3584 1784 3584 
Q 2172 3584 2448 3432 
Q 2725 3281 2906 2969 
z
M 947 1747 
Q 947 1113 1208 752 
Q 1469 391 1925 391 
Q 2381 391 2643 752 
Q 2906 1113 2906 1747 
Q 2906 2381 2643 2742 
Q 2381 3103 1925 3103 
Q 1469 3103 1208 2742 
Q 947 2381 947 1747 
z
" transform="scale(0.015625)"/>
      <path id="DejaVuSans-65" d="M 3597 1894 
L 3597 1613 
L 953 1613 
Q 991 1019 1311 708 
Q 1631 397 2203 397 
Q 2534 397 2845 478 
Q 3156 559 3463 722 
L 3463 178 
Q 3153 47 2828 -22 
Q 2503 -91 2169 -91 
Q 1331 -91 842 396 
Q 353 884 353 1716 
Q 353 2575 817 3079 
Q 1281 3584 2069 3584 
Q 2775 3584 3186 3129 
Q 3597 2675 3597 1894 
z
M 3022 2063 
Q 3016 2534 2758 2815 
Q 2500 3097 2075 3097 
Q 1594 3097 1305 2825 
Q 1016 2553 972 2059 
L 3022 2063 
z
" transform="scale(0.015625)"/>
      <path id="DejaVuSans-3a" d="M 750 794 
L 1409 794 
L 1409 0 
L 750 0 
L 750 794 
z
M 750 3309 
L 1409 3309 
L 1409 2516 
L 750 2516 
L 750 3309 
z
" transform="scale(0.015625)"/>
      <path id="DejaVuSans-38" d="M 2034 2216 
Q 1584 2216 1326 1975 
Q 1069 1734 1069 1313 
Q 1069 891 1326 650 
Q 1584 409 2034 409 
Q 2484 409 2743 651 
Q 3003 894 3003 1313 
Q 3003 1734 2745 1975 
Q 2488 2216 2034 2216 
z
M 1403 2484 
Q 997 2584 770 2862 
Q 544 3141 544 3541 
Q 544 4100 942 4425 
Q 1341 4750 2034 4750 
Q 2731 4750 3128 4425 
Q 3525 4100 3525 3541 
Q 3525 3141 3298 2862 
Q 3072 2584 2669 2484 
Q 3125 2378 3379 2068 
Q 3634 1759 3634 1313 
Q 3634 634 3220 271 
Q 2806 -91 2034 -91 
Q 1263 -91 848 271 
Q 434 634 434 1313 
Q 434 1759 690 2068 
Q 947 2378 1403 2484 
z
M 1172 3481 
Q 1172 3119 1398 2916 
Q 1625 2713 2034 2713 
Q 2441 2713 2670 2916 
Q 2900 3119 2900 3481 
Q 2900 3844 2670 4047 
Q 2441 4250 2034 4250 
Q 1625 4250 1398 4047 
Q 1172 3844 1172 3481 
z
" transform="scale(0.015625)"/>
      <path id="DejaVuSans-2e" d="M 684 794 
L 1344 794 
L 1344 0 
L 684 0 
L 684 794 
z
" transform="scale(0.015625)"/>
      <path id="DejaVuSans-48" d="M 628 4666 
L 1259 4666 
L 1259 2753 
L 3553 2753 
L 3553 4666 
L 4184 4666 
L 4184 0 
L 3553 0 
L 3553 2222 
L 1259 2222 
L 1259 0 
L 628 0 
L 628 4666 
z
" transform="scale(0.015625)"/>
      <path id="DejaVuSans-7a" d="M 353 3500 
L 3084 3500 
L 3084 2975 
L 922 459 
L 3084 459 
L 3084 0 
L 275 0 
L 275 525 
L 2438 3041 
L 353 3041 
L 353 3500 
z
" transform="scale(0.015625)"/>
     </defs>
     <use xlink:href="#DejaVuSans-43"/>
     <use xlink:href="#DejaVuSans-61" x="69.824219"/>
     <use xlink:href="#DejaVuSans-6c" x="131.103516"/>
     <use xlink:href="#DejaVuSans-63" x="158.886719"/>
     <use xlink:href="#DejaVuSans-75" x="213.867188"/>
     <use xlink:href="#DejaVuSans-6c" x="277.246094"/>
     <use xlink:href="#DejaVuSans-69" x="305.029297"/>
     <use xlink:href="#DejaVuSans-58" x="332.8125"/>
     <use xlink:href="#DejaVuSans-20" x="401.318359"/>
     <use xlink:href="#DejaVuSans-43" x="433.105469"/>
     <use xlink:href="#DejaVuSans-33" x="502.929688"/>
     <use xlink:href="#DejaVuSans-44" x="566.552734"/>
     <use xlink:href="#DejaVuSans-32" x="643.554688"/>
     <use xlink:href="#DejaVuSans-30" x="707.177734"/>
     <use xlink:href="#DejaVuSans-52" x="770.800781"/>
     <use xlink:href="#DejaVuSans-20" x="840.283203"/>
     <use xlink:href="#DejaVuSans-2014" x="872.070312"/>
     <use xlink:href="#DejaVuSans-20" x="972.070312"/>
     <use xlink:href="#DejaVuSans-4d" x="1003.857422"/>
     <use xlink:href="#DejaVuSans-6f" x="1090.136719"/>
     <use xlink:href="#DejaVuSans-64" x="1151.318359"/>
     <use xlink:href="#DejaVuSans-65" x="1214.794922"/>
     <use xlink:href="#DejaVuSans-20" x="1276.318359"/>
     <use xlink:href="#DejaVuSans-34" x="1308.105469"/>
     <use xlink:href="#DejaVuSans-3a" x="1371.728516"/>
     <use xlink:href="#DejaVuSans-20" x="1405.419922"/>
     <use xlink:href="#DejaVuSans-35" x="1437.207031"/>
     <use xlink:href="#DejaVuSans-38" x="1500.830078"/>
     <use xlink:href="#DejaVuSans-2e" x="1564.453125"/>
     <use xlink:href="#DejaVuSans-33" x="1596.240234"/>
     <use xlink:href="#DejaVuSans-34" x="1659.863281"/>
     <use xlink:href="#DejaVuSans-20" x="1723.486328"/>
     <use xlink:href="#DejaVuSans-48" x="1755.273438"/>
     <use xlink:href="#DejaVuSans-7a" x="1830.46875"/>
    </g>
   </g>
  </g>
  <g id="axes_2">
   <g id="patch_7">
    <path d="M 452.74005 231.564898 
L 463.171352 231.564898 
L 463.171352 41.904863 
L 452.74005 41.904863 
z
" style="fill: #ffffff"/>
   </g>
   <g id="patch_8">
    <path clip-path="url(#p6fc729c7ac)" style="fill: #ffffff; stroke: #ffffff; stroke-width: 0.01; stroke-linejoin: miter"/>
   </g>
   <g id="patch_9">
    <path d="M 452.74005 231.564898 
L 457.955701 241.047899 
L 463.171352 231.564898 
" style="fill: #053061"/>
   </g>
   <g id="patch_10">
    <path d="M 452.74005 41.904863 
L 457.955701 32.421861 
L 463.171352 41.904863 
" style="fill: #67001f"/>
   </g>
   <g id="QuadMesh_1">
    <path d="M 452.74005 231.564898 
L 463.171352 231.564898 
L 463.171352 219.711145 
L 452.74005 219.711145 
L 452.74005 231.564898 
" clip-path="url(#p6fc729c7ac)" style="fill: #0e4179"/>
    <path d="M 452.74005 219.711145 
L 463.171352 219.711145 
L 463.171352 207.857393 
L 452.74005 207.857393 
L 452.74005 219.711145 
" clip-path="url(#p6fc729c7ac)" style="fill: #1f63a8"/>
    <path d="M 452.74005 207.857393 
L 463.171352 207.857393 
L 463.171352 196.003641 
L 452.74005 196.003641 
L 452.74005 207.857393 
" clip-path="url(#p6fc729c7ac)" style="fill: #3480b9"/>
    <path d="M 452.74005 196.003641 
L 463.171352 196.003641 
L 463.171352 184.149889 
L 452.74005 184.149889 
L 452.74005 196.003641 
" clip-path="url(#p6fc729c7ac)" style="fill: #529dc8"/>
    <path d="M 452.74005 184.149889 
L 463.171352 184.149889 
L 463.171352 172.296137 
L 452.74005 172.296137 
L 452.74005 184.149889 
" clip-path="url(#p6fc729c7ac)" style="fill: #84bcd9"/>
    <path d="M 452.74005 172.296137 
L 463.171352 172.296137 
L 463.171352 160.442384 
L 452.74005 160.442384 
L 452.74005 172.296137 
" clip-path="url(#p6fc729c7ac)" style="fill: #aed3e6"/>
    <path d="M 452.74005 160.442384 
L 463.171352 160.442384 
L 463.171352 148.588632 
L 452.74005 148.588632 
L 452.74005 160.442384 
" clip-path="url(#p6fc729c7ac)" style="fill: #d4e6f1"/>
    <path d="M 452.74005 148.588632 
L 463.171352 148.588632 
L 463.171352 136.73488 
L 452.74005 136.73488 
L 452.74005 148.588632 
" clip-path="url(#p6fc729c7ac)" style="fill: #ecf2f5"/>
    <path d="M 452.74005 136.73488 
L 463.171352 136.73488 
L 463.171352 124.881128 
L 452.74005 124.881128 
L 452.74005 136.73488 
" clip-path="url(#p6fc729c7ac)" style="fill: #f9eee7"/>
    <path d="M 452.74005 124.881128 
L 463.171352 124.881128 
L 463.171352 113.027376 
L 452.74005 113.027376 
L 452.74005 124.881128 
" clip-path="url(#p6fc729c7ac)" style="fill: #fddcc9"/>
    <path d="M 452.74005 113.027376 
L 463.171352 113.027376 
L 463.171352 101.173624 
L 452.74005 101.173624 
L 452.74005 113.027376 
" clip-path="url(#p6fc729c7ac)" style="fill: #f8bb9e"/>
    <path d="M 452.74005 101.173624 
L 463.171352 101.173624 
L 463.171352 89.319871 
L 452.74005 89.319871 
L 452.74005 101.173624 
" clip-path="url(#p6fc729c7ac)" style="fill: #ee9677"/>
    <path d="M 452.74005 89.319871 
L 463.171352 89.319871 
L 463.171352 77.466119 
L 452.74005 77.466119 
L 452.74005 89.319871 
" clip-path="url(#p6fc729c7ac)" style="fill: #db6b55"/>
    <path d="M 452.74005 77.466119 
L 463.171352 77.466119 
L 463.171352 65.612367 
L 452.74005 65.612367 
L 452.74005 77.466119 
" clip-path="url(#p6fc729c7ac)" style="fill: #c53e3d"/>
    <path d="M 452.74005 65.612367 
L 463.171352 65.612367 
L 463.171352 53.758615 
L 452.74005 53.758615 
L 452.74005 65.612367 
" clip-path="url(#p6fc729c7ac)" style="fill: #ab162a"/>
    <path d="M 452.74005 53.758615 
L 463.171352 53.758615 
L 463.171352 41.904863 
L 452.74005 41.904863 
L 452.74005 53.758615 
" clip-path="url(#p6fc729c7ac)" style="fill: #7c0722"/>
   </g>
   <g id="matplotlib.axis_3"/>
   <g id="matplotlib.axis_4">
    <g id="ytick_10">
     <g id="line2d_19">
      <defs>
       <path id="m2619cc30cf" d="M 0 0 
L 3.5 0 
" style="stroke: #000000; stroke-width: 0.8"/>
      </defs>
      <g>
       <use xlink:href="#m2619cc30cf" x="463.171352" y="231.564898" style="stroke: #000000; stroke-width: 0.8"/>
      </g>
     </g>
     <g id="text_22">
      <!-- −1.00 -->
      <g transform="translate(470.171352 235.364116) scale(0.1 -0.1)">
       <defs>
        <path id="DejaVuSans-2212" d="M 678 2272 
L 4684 2272 
L 4684 1741 
L 678 1741 
L 678 2272 
z
" transform="scale(0.015625)"/>
       </defs>
       <use xlink:href="#DejaVuSans-2212"/>
       <use xlink:href="#DejaVuSans-31" x="83.789062"/>
       <use xlink:href="#DejaVuSans-2e" x="147.412109"/>
       <use xlink:href="#DejaVuSans-30" x="179.199219"/>
       <use xlink:href="#DejaVuSans-30" x="242.822266"/>
      </g>
     </g>
    </g>
    <g id="ytick_11">
     <g id="line2d_20">
      <g>
       <use xlink:href="#m2619cc30cf" x="463.171352" y="207.857393" style="stroke: #000000; stroke-width: 0.8"/>
      </g>
     </g>
     <g id="text_23">
      <!-- −0.75 -->
      <g transform="translate(470.171352 211.656612) scale(0.1 -0.1)">
       <use xlink:href="#DejaVuSans-2212"/>
       <use xlink:href="#DejaVuSans-30" x="83.789062"/>
       <use xlink:href="#DejaVuSans-2e" x="147.412109"/>
       <use xlink:href="#DejaVuSans-37" x="179.199219"/>
       <use xlink:href="#DejaVuSans-35" x="242.822266"/>
      </g>
     </g>
    </g>
    <g id="ytick_12">
     <g id="line2d_21">
      <g>
       <use xlink:href="#m2619cc30cf" x="463.171352" y="184.149889" style="stroke: #000000; stroke-width: 0.8"/>
      </g>
     </g>
     <g id="text_24">
      <!-- −0.50 -->
      <g transform="translate(470.171352 187.949108) scale(0.1 -0.1)">
       <use xlink:href="#DejaVuSans-2212"/>
       <use xlink:href="#DejaVuSans-30" x="83.789062"/>
       <use xlink:href="#DejaVuSans-2e" x="147.412109"/>
       <use xlink:href="#DejaVuSans-35" x="179.199219"/>
       <use xlink:href="#DejaVuSans-30" x="242.822266"/>
      </g>
     </g>
    </g>
    <g id="ytick_13">
     <g id="line2d_22">
      <g>
       <use xlink:href="#m2619cc30cf" x="463.171352" y="160.442384" style="stroke: #000000; stroke-width: 0.8"/>
      </g>
     </g>
     <g id="text_25">
      <!-- −0.25 -->
      <g transform="translate(470.171352 164.241603) scale(0.1 -0.1)">
       <use xlink:href="#DejaVuSans-2212"/>
       <use xlink:href="#DejaVuSans-30" x="83.789062"/>
       <use xlink:href="#DejaVuSans-2e" x="147.412109"/>
       <use xlink:href="#DejaVuSans-32" x="179.199219"/>
       <use xlink:href="#DejaVuSans-35" x="242.822266"/>
      </g>
     </g>
    </g>
    <g id="ytick_14">
     <g id="line2d_23">
      <g>
       <use xlink:href="#m2619cc30cf" x="463.171352" y="136.73488" style="stroke: #000000; stroke-width: 0.8"/>
      </g>
     </g>
     <g id="text_26">
      <!-- 0.00 -->
      <g transform="translate(470.171352 140.534099) scale(0.1 -0.1)">
       <use xlink:href="#DejaVuSans-30"/>
       <use xlink:href="#DejaVuSans-2e" x="63.623047"/>
       <use xlink:href="#DejaVuSans-30" x="95.410156"/>
       <use xlink:href="#DejaVuSans-30" x="159.033203"/>
      </g>
     </g>
    </g>
    <g id="ytick_15">
     <g id="line2d_24">
      <g>
       <use xlink:href="#m2619cc30cf" x="463.171352" y="113.027376" style="stroke: #000000; stroke-width: 0.8"/>
      </g>
     </g>
     <g id="text_27">
      <!-- 0.25 -->
      <g transform="translate(470.171352 116.826594) scale(0.1 -0.1)">
       <use xlink:href="#DejaVuSans-30"/>
       <use xlink:href="#DejaVuSans-2e" x="63.623047"/>
       <use xlink:href="#DejaVuSans-32" x="95.410156"/>
       <use xlink:href="#DejaVuSans-35" x="159.033203"/>
      </g>
     </g>
    </g>
    <g id="ytick_16">
     <g id="line2d_25">
      <g>
       <use xlink:href="#m2619cc30cf" x="463.171352" y="89.319871" style="stroke: #000000; stroke-width: 0.8"/>
      </g>
     </g>
     <g id="text_28">
      <!-- 0.50 -->
      <g transform="translate(470.171352 93.11909) scale(0.1 -0.1)">
       <use xlink:href="#DejaVuSans-30"/>
       <use xlink:href="#DejaVuSans-2e" x="63.623047"/>
       <use xlink:href="#DejaVuSans-35" x="95.410156"/>
       <use xlink:href="#DejaVuSans-30" x="159.033203"/>
      </g>
     </g>
    </g>
    <g id="ytick_17">
     <g id="line2d_26">
      <g>
       <use xlink:href="#m2619cc30cf" x="463.171352" y="65.612367" style="stroke: #000000; stroke-width: 0.8"/>
      </g>
     </g>
     <g id="text_29">
      <!-- 0.75 -->
      <g transform="translate(470.171352 69.411586) scale(0.1 -0.1)">
       <use xlink:href="#DejaVuSans-30"/>
       <use xlink:href="#DejaVuSans-2e" x="63.623047"/>
       <use xlink:href="#DejaVuSans-37" x="95.410156"/>
       <use xlink:href="#DejaVuSans-35" x="159.033203"/>
      </g>
     </g>
    </g>
    <g id="ytick_18">
     <g id="line2d_27">
      <g>
       <use xlink:href="#m2619cc30cf" x="463.171352" y="41.904863" style="stroke: #000000; stroke-width: 0.8"/>
      </g>
     </g>
     <g id="text_30">
      <!-- 1.00 -->
      <g transform="translate(470.171352 45.704081) scale(0.1 -0.1)">
       <use xlink:href="#DejaVuSans-31"/>
       <use xlink:href="#DejaVuSans-2e" x="63.623047"/>
       <use xlink:href="#DejaVuSans-30" x="95.410156"/>
       <use xlink:href="#DejaVuSans-30" x="159.033203"/>
      </g>
     </g>
    </g>
    <g id="text_31">
     <!-- normalized z displacement -->
     <g transform="translate(512.415102 204.017693) rotate(-90) scale(0.1 -0.1)">
      <defs>
       <path id="DejaVuSans-6e" d="M 3513 2113 
L 3513 0 
L 2938 0 
L 2938 2094 
Q 2938 2591 2744 2837 
Q 2550 3084 2163 3084 
Q 1697 3084 1428 2787 
Q 1159 2491 1159 1978 
L 1159 0 
L 581 0 
L 581 3500 
L 1159 3500 
L 1159 2956 
Q 1366 3272 1645 3428 
Q 1925 3584 2291 3584 
Q 2894 3584 3203 3211 
Q 3513 2838 3513 2113 
z
" transform="scale(0.015625)"/>
       <path id="DejaVuSans-72" d="M 2631 2963 
Q 2534 3019 2420 3045 
Q 2306 3072 2169 3072 
Q 1681 3072 1420 2755 
Q 1159 2438 1159 1844 
L 1159 0 
L 581 0 
L 581 3500 
L 1159 3500 
L 1159 2956 
Q 1341 3275 1631 3429 
Q 1922 3584 2338 3584 
Q 2397 3584 2469 3576 
Q 2541 3569 2628 3553 
L 2631 2963 
z
" transform="scale(0.015625)"/>
       <path id="DejaVuSans-73" d="M 2834 3397 
L 2834 2853 
Q 2591 2978 2328 3040 
Q 2066 3103 1784 3103 
Q 1356 3103 1142 2972 
Q 928 2841 928 2578 
Q 928 2378 1081 2264 
Q 1234 2150 1697 2047 
L 1894 2003 
Q 2506 1872 2764 1633 
Q 3022 1394 3022 966 
Q 3022 478 2636 193 
Q 2250 -91 1575 -91 
Q 1294 -91 989 -36 
Q 684 19 347 128 
L 347 722 
Q 666 556 975 473 
Q 1284 391 1588 391 
Q 1994 391 2212 530 
Q 2431 669 2431 922 
Q 2431 1156 2273 1281 
Q 2116 1406 1581 1522 
L 1381 1569 
Q 847 1681 609 1914 
Q 372 2147 372 2553 
Q 372 3047 722 3315 
Q 1072 3584 1716 3584 
Q 2034 3584 2315 3537 
Q 2597 3491 2834 3397 
z
" transform="scale(0.015625)"/>
       <path id="DejaVuSans-70" d="M 1159 525 
L 1159 -1331 
L 581 -1331 
L 581 3500 
L 1159 3500 
L 1159 2969 
Q 1341 3281 1617 3432 
Q 1894 3584 2278 3584 
Q 2916 3584 3314 3078 
Q 3713 2572 3713 1747 
Q 3713 922 3314 415 
Q 2916 -91 2278 -91 
Q 1894 -91 1617 61 
Q 1341 213 1159 525 
z
M 3116 1747 
Q 3116 2381 2855 2742 
Q 2594 3103 2138 3103 
Q 1681 3103 1420 2742 
Q 1159 2381 1159 1747 
Q 1159 1113 1420 752 
Q 1681 391 2138 391 
Q 2594 391 2855 752 
Q 3116 1113 3116 1747 
z
" transform="scale(0.015625)"/>
       <path id="DejaVuSans-74" d="M 1172 4494 
L 1172 3500 
L 2356 3500 
L 2356 3053 
L 1172 3053 
L 1172 1153 
Q 1172 725 1289 603 
Q 1406 481 1766 481 
L 2356 481 
L 2356 0 
L 1766 0 
Q 1100 0 847 248 
Q 594 497 594 1153 
L 594 3053 
L 172 3053 
L 172 3500 
L 594 3500 
L 594 4494 
L 1172 4494 
z
" transform="scale(0.015625)"/>
      </defs>
      <use xlink:href="#DejaVuSans-6e"/>
      <use xlink:href="#DejaVuSans-6f" x="63.378906"/>
      <use xlink:href="#DejaVuSans-72" x="124.560547"/>
      <use xlink:href="#DejaVuSans-6d" x="163.923828"/>
      <use xlink:href="#DejaVuSans-61" x="261.335938"/>
      <use xlink:href="#DejaVuSans-6c" x="322.615234"/>
      <use xlink:href="#DejaVuSans-69" x="350.398438"/>
      <use xlink:href="#DejaVuSans-7a" x="378.181641"/>
      <use xlink:href="#DejaVuSans-65" x="430.671875"/>
      <use xlink:href="#DejaVuSans-64" x="492.195312"/>
      <use xlink:href="#DejaVuSans-20" x="555.671875"/>
      <use xlink:href="#DejaVuSans-7a" x="587.458984"/>
      <use xlink:href="#DejaVuSans-20" x="639.949219"/>
      <use xlink:href="#DejaVuSans-64" x="671.736328"/>
      <use xlink:href="#DejaVuSans-69" x="735.212891"/>
      <use xlink:href="#DejaVuSans-73" x="762.996094"/>
      <use xlink:href="#DejaVuSans-70" x="815.095703"/>
      <use xlink:href="#DejaVuSans-6c" x="878.572266"/>
      <use xlink:href="#DejaVuSans-61" x="906.355469"/>
      <use xlink:href="#DejaVuSans-63" x="967.634766"/>
      <use xlink:href="#DejaVuSans-65" x="1022.615234"/>
      <use xlink:href="#DejaVuSans-6d" x="1084.138672"/>
      <use xlink:href="#DejaVuSans-65" x="1181.550781"/>
      <use xlink:href="#DejaVuSans-6e" x="1243.074219"/>
      <use xlink:href="#DejaVuSans-74" x="1306.453125"/>
     </g>
    </g>
   </g>
   <g id="LineCollection_1"/>
   <g id="patch_11">
    <path d="M 452.74005 231.564898 
L 457.955701 241.047899 
L 463.171352 231.564898 
L 463.171352 41.904863 
L 457.955701 32.421861 
L 452.74005 41.904863 
L 452.74005 231.564898 
z
" style="fill: none; stroke: #000000; stroke-width: 0.8; stroke-linejoin: miter; stroke-linecap: square"/>
   </g>
  </g>
 </g>
 <defs>
  <clipPath id="p6b4fbd1ed2">
   <rect x="42.765865" y="41.3943" width="381.362319" height="190.681159"/>
  </clipPath>
  <clipPath id="p6fc729c7ac">
   <rect x="452.74005" y="41.904863" width="10.431302" height="189.660035"/>
  </clipPath>
 </defs>
 <defs>
  <pattern id="h468022240e" patternUnits="userSpaceOnUse" x="0" y="0" width="72" height="72">
   <rect x="0" y="0" width="73" height="73" fill="#333333"/>
   <path d="M -36 36 
L 36 -36 
M -33 39 
L 39 -33 
M -30 42 
L 42 -30 
M -27 45 
L 45 -27 
M -24 48 
L 48 -24 
M -21 51 
L 51 -21 
M -18 54 
L 54 -18 
M -15 57 
L 57 -15 
M -12 60 
L 60 -12 
M -9 63 
L 63 -9 
M -6 66 
L 66 -6 
M -3 69 
L 69 -3 
M 0 72 
L 72 0 
M 3 75 
L 75 3 
M 6 78 
L 78 6 
M 9 81 
L 81 9 
M 12 84 
L 84 12 
M 15 87 
L 87 15 
M 18 90 
L 90 18 
M 21 93 
L 93 21 
M 24 96 
L 96 24 
M 27 99 
L 99 27 
M 30 102 
L 102 30 
M 33 105 
L 105 33 
M 36 108 
L 108 36 
" style="fill: #333333; stroke: #333333; stroke-width: 1.0; stroke-linecap: butt; stroke-linejoin: miter; stroke-opacity: 0.3"/>
  </pattern>
 </defs>
</svg>
