<?xml version="1.0" encoding="utf-8" standalone="no"?>
<!DOCTYPE svg PUBLIC "-//W3C//DTD SVG 1.1//EN"
  "http://www.w3.org/Graphics/SVG/1.1/DTD/svg11.dtd">
<svg xmlns:xlink="http://www.w3.org/1999/xlink" width="518.4pt" height="273.6pt" viewBox="0 0 518.4 273.6" xmlns="http://www.w3.org/2000/svg" version="1.1">
 <metadata>
  <rdf:RDF xmlns:dc="http://purl.org/dc/elements/1.1/" xmlns:cc="http://creativecommons.org/ns#" xmlns:rdf="http://www.w3.org/1999/02/22-rdf-syntax-ns#">
   <cc:Work>
    <dc:type rdf:resource="http://purl.org/dc/dcmitype/StillImage"/>
    <dc:format>image/svg+xml</dc:format>
    <dc:creator>
     <cc:Agent>
      <dc:title>Matplotlib v3.6.3, https://matplotlib.org/</dc:title>
     </cc:Agent>
    </dc:creator>
   </cc:Work>
  </rdf:RDF>
 </metadata>
 <defs>
  <style type="text/css">*{stroke-linejoin: round; stroke-linecap: butt}</style>
 </defs>
 <g id="figure_1">
  <g id="patch_1">
   <path d="M 0 273.6 
L 518.4 273.6 
L 518.4 0 
L 0 0 
z
" style="fill: #ffffff"/>
  </g>
  <g id="axes_1">
   <g id="patch_2">
    <path d="M 42.765865 232.07546 
L 424.128184 232.07546 
L 424.128184 41.3943 
L 42.765865 41.3943 
z
" style="fill: #ffffff"/>
   </g>
   <g id="PathCollection_1">
    <path clip-path="url(#p78955e1e8c)" style="fill: #053061"/>
   </g>
   <g id="PathCollection_2">
    <path d="M 42.765865 215.352783 
L 45.253472 217.670281 
L 54.683437 227.456777 
L 56.953855 229.805043 
L 58.917762 232.07546 
L 54.683437 232.07546 
L 42.765865 232.07546 
L 42.765865 220.157887 
" clip-path="url(#p78955e1e8c)" style="fill: #0e4179"/>
   </g>
   <g id="PathCollection_3">
    <path d="M 42.765865 199.501193 
L 52.683455 208.240315 
L 53.718848 209.204905 
L 54.683437 210.205964 
L 65.43388 221.325018 
L 66.60101 222.674304 
L 74.338331 232.07546 
L 66.60101 232.07546 
L 58.917762 232.07546 
L 56.953855 229.805043 
L 54.683437 227.456777 
L 45.253472 217.670281 
L 42.765865 215.352783 
L 42.765865 208.240315 
" clip-path="url(#p78955e1e8c)" style="fill: #1f63a8"/>
   </g>
   <g id="PathCollection_4">
    <path d="M 42.765865 184.685345 
L 49.558148 189.530459 
L 54.683437 194.023968 
L 62.460958 200.462794 
L 66.60101 204.619058 
L 70.129659 208.240315 
L 74.20368 212.555218 
L 78.518582 217.868454 
L 84.771288 225.822754 
L 88.894051 232.07546 
L 78.518582 232.07546 
L 74.338331 232.07546 
L 66.60101 222.674304 
L 65.43388 221.325018 
L 54.683437 210.205964 
L 53.718848 209.204905 
L 52.683455 208.240315 
L 42.765865 199.501193 
L 42.765865 196.322742 
" clip-path="url(#p78955e1e8c)" style="fill: #3480b9"/>
   </g>
   <g id="PathCollection_5">
    <path d="M 42.765865 170.845412 
L 43.859186 171.394277 
L 54.683437 178.515428 
L 58.335215 180.753392 
L 62.983585 184.40517 
L 66.60101 187.364616 
L 71.514699 191.409053 
L 76.369881 196.322742 
L 83.304648 203.454249 
L 87.06387 208.240315 
L 90.436155 212.628664 
L 93.662278 216.931764 
L 102.353727 231.402694 
L 102.602744 231.826443 
L 102.715109 232.07546 
L 102.353727 232.07546 
L 90.436155 232.07546 
L 88.894051 232.07546 
L 84.771288 225.822754 
L 78.518582 217.868454 
L 74.20368 212.555218 
L 70.129659 208.240315 
L 66.60101 204.619058 
L 62.460958 200.462794 
L 54.683437 194.023968 
L 49.558148 189.530459 
L 42.765865 184.685345 
L 42.765865 184.40517 
L 42.765865 172.487597 
M 424.128184 196.717333 
L 424.028933 196.421994 
L 423.9331 196.127658 
L 420.320979 184.40517 
L 418.622299 177.993483 
L 414.995099 163.354513 
L 414.381907 160.570025 
L 414.175391 159.391157 
L 412.210612 147.81526 
L 411.962466 146.417825 
L 411.936586 146.268938 
L 411.920008 146.152697 
L 410.880899 137.266765 
L 410.817728 136.73488 
L 410.763874 136.156185 
L 410.21454 127.999251 
L 410.159917 127.200822 
L 410.114142 125.942941 
L 410.044901 114.199162 
L 410.045358 112.899735 
L 410.143346 110.83247 
L 411.946136 89.329065 
L 411.972516 89.06459 
L 411.996169 88.893036 
L 412.210612 87.531831 
L 414.579138 71.891295 
L 414.905373 69.996474 
L 415.122077 68.831888 
L 416.355126 62.120222 
L 416.675634 60.462416 
L 416.857803 59.532978 
L 417.403813 56.734028 
L 417.609307 55.695387 
L 417.833733 54.570763 
L 418.317842 52.149804 
L 418.563174 50.928358 
L 418.831397 49.604201 
L 419.24566 47.568339 
L 419.531181 46.161329 
L 419.842556 44.63494 
L 420.181135 42.988405 
L 420.505394 41.3943 
L 424.128184 41.3943 
L 424.128184 43.777815 
L 424.128184 46.161329 
L 424.128184 48.544844 
L 424.128184 50.928358 
L 424.128184 53.311873 
L 424.128184 55.695387 
L 424.128184 58.078902 
L 424.128184 60.462416 
L 424.128184 65.229445 
L 424.128184 69.996474 
L 424.128184 79.530532 
L 424.128184 89.06459 
L 424.128184 100.982163 
L 424.128184 112.899735 
L 424.128184 120.050279 
L 424.128184 127.200822 
L 424.128184 131.967851 
L 424.128184 136.73488 
L 424.128184 141.501909 
L 424.128184 146.268938 
L 424.128184 153.419482 
L 424.128184 160.570025 
L 424.128184 172.487597 
L 424.128184 184.40517 
L 424.128184 196.322742 
" clip-path="url(#p78955e1e8c)" style="fill: #529dc8"/>
   </g>
   <g id="PathCollection_6">
    <path d="M 42.765865 157.602954 
L 48.837665 160.570025 
L 52.729615 162.523847 
L 54.683437 163.809244 
L 63.05011 168.936698 
L 66.60101 171.016594 
L 67.530279 171.558329 
L 68.77538 172.487597 
L 81.016159 181.907593 
L 83.564161 184.40517 
L 90.436155 191.368805 
L 92.886585 193.872312 
L 94.737075 196.322742 
L 103.062071 207.531971 
L 103.457849 208.240315 
L 104.787375 210.673963 
L 111.808119 222.621068 
L 114.2713 228.079848 
L 116.042152 232.07546 
L 114.2713 232.07546 
L 102.715109 232.07546 
L 102.602744 231.826443 
L 102.353727 231.402694 
L 93.662278 216.931764 
L 90.436155 212.628664 
L 87.06387 208.240315 
L 83.304648 203.454249 
L 76.369881 196.322742 
L 71.514699 191.409053 
L 66.60101 187.364616 
L 62.983585 184.40517 
L 58.335215 180.753392 
L 54.683437 178.515428 
L 43.859186 171.394277 
L 42.765865 170.845412 
L 42.765865 160.570025 
M 420.505394 41.3943 
L 420.181135 42.988405 
L 419.842556 44.63494 
L 419.531181 46.161329 
L 419.24566 47.568339 
L 418.831397 49.604201 
L 418.563174 50.928358 
L 418.317842 52.149804 
L 417.833733 54.570763 
L 417.609307 55.695387 
L 417.403813 56.734028 
L 416.857803 59.532978 
L 416.675634 60.462416 
L 416.355126 62.120222 
L 415.122077 68.831888 
L 414.905373 69.996474 
L 414.579138 71.891295 
L 412.210612 87.531831 
L 411.996169 88.893036 
L 411.972516 89.06459 
L 411.946136 89.329065 
L 410.143346 110.83247 
L 410.045358 112.899735 
L 410.044901 114.199162 
L 410.114142 125.942941 
L 410.159917 127.200822 
L 410.21454 127.999251 
L 410.763874 136.156185 
L 410.817728 136.73488 
L 410.880899 137.266765 
L 411.920008 146.152697 
L 411.936586 146.268938 
L 411.962466 146.417825 
L 412.210612 147.81526 
L 414.175391 159.391157 
L 414.381907 160.570025 
L 414.995099 163.354513 
L 418.622299 177.993483 
L 420.320979 184.40517 
L 423.9331 196.127658 
L 424.028933 196.421994 
L 424.128184 196.717333 
L 424.128184 208.240315 
L 424.128184 220.157887 
L 424.128184 232.07546 
L 422.587266 232.07546 
L 419.802214 224.483857 
L 418.159721 220.157887 
L 414.758351 210.788054 
L 413.840109 208.240315 
L 413.430241 207.020685 
L 412.210612 203.274779 
L 407.410011 189.20577 
L 405.797372 184.40517 
L 403.129416 175.323974 
L 401.938435 170.842202 
L 400.293039 164.298894 
L 399.327187 160.570025 
L 398.08825 154.742355 
L 397.447257 151.712012 
L 396.469209 146.268938 
L 396.018493 143.211728 
L 395.467038 139.571509 
L 395.118056 136.73488 
L 394.867721 134.137978 
L 394.420346 129.618774 
L 394.248727 127.200822 
L 394.118632 123.754923 
L 393.87858 116.201603 
L 393.879786 112.899735 
L 394.164817 107.110385 
L 394.931129 95.620253 
L 395.609402 89.06459 
L 396.544009 82.529756 
L 397.359736 77.18389 
L 398.58849 69.996474 
L 399.419737 65.578766 
L 399.543309 64.929553 
L 400.293039 61.137838 
L 400.421947 60.462416 
L 400.864578 58.19321 
L 400.911661 57.955177 
L 401.360716 55.695387 
L 401.782079 53.609681 
L 401.907882 52.988904 
L 402.330204 50.928358 
L 402.72557 49.03135 
L 402.934655 48.016521 
L 403.325365 46.161329 
L 403.688975 44.457002 
L 403.983605 43.039702 
L 404.337199 41.3943 
L 412.210612 41.3943 
" clip-path="url(#p78955e1e8c)" style="fill: #84bcd9"/>
   </g>
   <g id="PathCollection_7">
    <path d="M 42.765865 144.774097 
L 46.660022 146.268938 
L 51.536042 148.157375 
L 54.683437 149.668038 
L 64.909983 154.434098 
L 66.60101 155.401921 
L 75.673865 160.570025 
L 77.470943 161.617665 
L 85.731139 167.782582 
L 90.436155 171.150513 
L 91.218751 171.705001 
L 92.041734 172.487597 
L 103.232049 183.526848 
L 103.888261 184.40517 
L 107.914774 189.966217 
L 112.715028 196.322742 
L 113.378272 197.21577 
L 114.2713 198.814069 
L 119.506785 208.240315 
L 121.858468 212.570719 
L 126.188872 223.694599 
L 128.550875 229.713457 
L 129.156688 232.07546 
L 126.188872 232.07546 
L 116.042152 232.07546 
L 114.2713 228.079848 
L 111.808119 222.621068 
L 104.787375 210.673963 
L 103.457849 208.240315 
L 103.062071 207.531971 
L 94.737075 196.322742 
L 92.886585 193.872312 
L 90.436155 191.368805 
L 83.564161 184.40517 
L 81.016159 181.907593 
L 68.77538 172.487597 
L 67.530279 171.558329 
L 66.60101 171.016594 
L 63.05011 168.936698 
L 54.683437 163.809244 
L 52.729615 162.523847 
L 48.837665 160.570025 
L 42.765865 157.602954 
L 42.765865 153.419482 
L 42.765865 146.268938 
M 404.337199 41.3943 
L 403.983605 43.039702 
L 403.688975 44.457002 
L 403.325365 46.161329 
L 402.934655 48.016521 
L 402.72557 49.03135 
L 402.330204 50.928358 
L 401.907882 52.988904 
L 401.782079 53.609681 
L 401.360716 55.695387 
L 400.911661 57.955177 
L 400.864578 58.19321 
L 400.421947 60.462416 
L 400.293039 61.137838 
L 399.543309 64.929553 
L 399.419737 65.578766 
L 398.58849 69.996474 
L 397.359736 77.18389 
L 396.544009 82.529756 
L 395.609402 89.06459 
L 394.931129 95.620253 
L 394.164817 107.110385 
L 393.879786 112.899735 
L 393.87858 116.201603 
L 394.118632 123.754923 
L 394.248727 127.200822 
L 394.420346 129.618774 
L 394.867721 134.137978 
L 395.118056 136.73488 
L 395.467038 139.571509 
L 396.018493 143.211728 
L 396.469209 146.268938 
L 397.447257 151.712012 
L 398.08825 154.742355 
L 399.327187 160.570025 
L 400.293039 164.298894 
L 401.938435 170.842202 
L 403.129416 175.323974 
L 405.797372 184.40517 
L 407.410011 189.20577 
L 412.210612 203.274779 
L 413.430241 207.020685 
L 413.840109 208.240315 
L 414.758351 210.788054 
L 418.159721 220.157887 
L 419.802214 224.483857 
L 422.587266 232.07546 
L 412.210612 232.07546 
L 408.616281 232.07546 
L 406.360466 226.225315 
L 404.056773 220.157887 
L 403.054373 217.396554 
L 400.293039 210.186632 
L 399.536107 208.240315 
L 396.549922 200.06586 
L 392.250088 188.279791 
L 390.918188 184.40517 
L 390.330455 182.450182 
L 388.375467 175.70558 
L 384.727958 164.217534 
L 383.596143 160.570025 
L 382.703811 157.167031 
L 381.208842 150.568913 
L 380.223927 146.268938 
L 379.536752 142.733452 
L 379.164076 140.419436 
L 378.543104 136.73488 
L 377.96398 132.570285 
L 377.841852 131.414268 
L 377.374315 127.200822 
L 376.870155 120.297635 
L 376.853421 119.812962 
L 376.654427 112.899735 
L 376.997235 101.521503 
L 377.08508 100.354976 
L 378.180097 89.06459 
L 379.245899 81.760936 
L 380.102654 76.614725 
L 381.278835 69.996474 
L 381.796621 67.364936 
L 382.743106 62.71536 
L 383.212971 60.462416 
L 383.423988 59.47212 
L 384.063895 56.557702 
L 384.252472 55.695387 
L 384.42835 54.905964 
L 385.193605 51.564731 
L 385.339341 50.928358 
L 385.475903 50.348446 
L 386.377337 46.560955 
L 386.474072 46.161329 
L 386.564473 45.799131 
L 387.615374 41.546319 
L 387.654385 41.3943 
L 388.375467 41.3943 
L 400.293039 41.3943 
" clip-path="url(#p78955e1e8c)" style="fill: #aed3e6"/>
   </g>
   <g id="PathCollection_8">
    <path d="M 42.765865 132.160641 
L 45.104683 132.903378 
L 54.683437 135.877472 
L 55.89618 136.249783 
L 57.196354 136.73488 
L 66.60101 140.254674 
L 68.225519 140.852106 
L 78.518582 145.487102 
L 79.451523 145.895762 
L 80.139196 146.268938 
L 90.436155 151.902902 
L 91.775231 152.616036 
L 102.353727 160.096206 
L 102.723874 160.347937 
L 102.964523 160.570025 
L 114.2713 171.218078 
L 114.934756 171.824142 
L 115.438853 172.487597 
L 118.26331 176.479607 
L 124.235264 184.40517 
L 125.059778 185.534264 
L 130.756404 196.322742 
L 133.200023 201.229164 
L 135.566455 208.240315 
L 138.106445 216.050971 
L 139.131619 219.132714 
L 139.348862 220.157887 
L 139.59292 221.644362 
L 142.305079 232.07546 
L 138.106445 232.07546 
L 129.156688 232.07546 
L 128.550875 229.713457 
L 126.188872 223.694599 
L 121.858468 212.570719 
L 119.506785 208.240315 
L 114.2713 198.814069 
L 113.378272 197.21577 
L 112.715028 196.322742 
L 107.914774 189.966217 
L 103.888261 184.40517 
L 103.232049 183.526848 
L 92.041734 172.487597 
L 91.218751 171.705001 
L 90.436155 171.150513 
L 85.731139 167.782582 
L 77.470943 161.617665 
L 75.673865 160.570025 
L 66.60101 155.401921 
L 64.909983 154.434098 
L 54.683437 149.668038 
L 51.536042 148.157375 
L 46.660022 146.268938 
L 42.765865 144.774097 
L 42.765865 141.501909 
L 42.765865 136.73488 
M 387.654385 41.3943 
L 387.615374 41.546319 
L 386.564473 45.799131 
L 386.474072 46.161329 
L 386.377337 46.560955 
L 385.475903 50.348446 
L 385.339341 50.928358 
L 385.193605 51.564731 
L 384.42835 54.905964 
L 384.252472 55.695387 
L 384.063895 56.557702 
L 383.423988 59.47212 
L 383.212971 60.462416 
L 382.743106 62.71536 
L 381.796621 67.364936 
L 381.278835 69.996474 
L 380.102654 76.614725 
L 379.245899 81.760936 
L 378.180097 89.06459 
L 377.08508 100.354976 
L 376.997235 101.521503 
L 376.654427 112.899735 
L 376.853421 119.812962 
L 376.870155 120.297635 
L 377.374315 127.200822 
L 377.841852 131.414268 
L 377.96398 132.570285 
L 378.543104 136.73488 
L 379.164076 140.419436 
L 379.536752 142.733452 
L 380.223927 146.268938 
L 381.208842 150.568913 
L 382.703811 157.167031 
L 383.596143 160.570025 
L 384.727958 164.217534 
L 388.375467 175.70558 
L 390.330455 182.450182 
L 390.918188 184.40517 
L 392.250088 188.279791 
L 396.549922 200.06586 
L 399.536107 208.240315 
L 400.293039 210.186632 
L 403.054373 217.396554 
L 404.056773 220.157887 
L 406.360466 226.225315 
L 408.616281 232.07546 
L 400.293039 232.07546 
L 394.625316 232.07546 
L 392.88103 227.569896 
L 389.693112 220.157887 
L 385.966394 210.649388 
L 384.910669 208.240315 
L 382.484727 202.349576 
L 379.106033 193.674603 
L 376.457894 186.934707 
L 375.412491 184.40517 
L 372.4918 176.453691 
L 370.690892 172.487597 
L 367.940334 163.970037 
L 366.819879 160.570025 
L 366.493519 159.398107 
L 364.540322 152.581327 
L 362.844568 147.28639 
L 362.501621 146.268938 
L 362.226612 145.343454 
L 360.498324 138.351679 
L 360.059308 136.73488 
L 359.592286 134.755666 
L 358.647168 129.558083 
L 358.164029 127.200822 
L 357.503349 122.978639 
L 356.993078 117.428081 
L 356.535067 112.899735 
L 356.39949 104.758904 
L 356.193199 100.982163 
L 356.931337 96.673575 
L 357.581177 89.06459 
L 358.39942 84.151869 
L 360.72034 73.05246 
L 361.384959 69.996474 
L 361.652636 68.8414 
L 363.69829 60.799229 
L 363.777429 60.462416 
L 363.810715 60.316495 
L 364.540322 57.657286 
L 364.968738 55.781071 
L 364.989767 55.695387 
L 365.013425 55.600767 
L 366.067894 51.233873 
L 366.14671 50.928358 
L 366.236712 50.58908 
L 367.240051 46.701275 
L 367.388012 46.161329 
L 367.558571 45.557679 
L 368.506615 42.187559 
L 368.738157 41.3943 
L 376.457894 41.3943 
" clip-path="url(#p78955e1e8c)" style="fill: #d4e6f1"/>
   </g>
   <g id="PathCollection_9">
    <path d="M 42.765865 119.570158 
L 43.395432 119.672538 
L 54.683437 122.202192 
L 60.738895 123.567547 
L 66.60101 125.317945 
L 73.075603 127.200822 
L 76.227876 128.117104 
L 78.518582 128.949028 
L 88.912479 132.577321 
L 90.436155 133.249071 
L 98.698522 136.73488 
L 100.473954 137.48679 
L 102.353727 138.514282 
L 110.799026 142.890819 
L 114.2713 145.27956 
L 115.789645 146.268938 
L 120.751785 149.53119 
L 126.188872 154.762518 
L 130.053601 158.251187 
L 131.715566 160.570025 
L 138.106445 169.684415 
L 139.30237 171.291672 
L 140.857939 175.239092 
L 145.326894 184.40517 
L 146.829529 187.599658 
L 150.024017 199.783613 
L 151.864536 206.399796 
L 152.071716 208.240315 
L 152.294421 210.510719 
L 154.338738 220.157887 
L 155.410973 226.688504 
L 155.755041 232.07546 
L 150.024017 232.07546 
L 142.305079 232.07546 
L 139.59292 221.644362 
L 139.348862 220.157887 
L 139.131619 219.132714 
L 138.106445 216.050971 
L 135.566455 208.240315 
L 133.200023 201.229164 
L 130.756404 196.322742 
L 125.059778 185.534264 
L 124.235264 184.40517 
L 118.26331 176.479607 
L 115.438853 172.487597 
L 114.934756 171.824142 
L 114.2713 171.218078 
L 102.964523 160.570025 
L 102.723874 160.347937 
L 102.353727 160.096206 
L 91.775231 152.616036 
L 90.436155 151.902902 
L 80.139196 146.268938 
L 79.451523 145.895762 
L 78.518582 145.487102 
L 68.225519 140.852106 
L 66.60101 140.254674 
L 57.196354 136.73488 
L 55.89618 136.249783 
L 54.683437 135.877472 
L 45.104683 132.903378 
L 42.765865 132.160641 
L 42.765865 131.967851 
L 42.765865 127.200822 
L 42.765865 120.050279 
M 368.738157 41.3943 
L 368.506615 42.187559 
L 367.558571 45.557679 
L 367.388012 46.161329 
L 367.240051 46.701275 
L 366.236712 50.58908 
L 366.14671 50.928358 
L 366.067894 51.233873 
L 365.013425 55.600767 
L 364.989767 55.695387 
L 364.968738 55.781071 
L 364.540322 57.657286 
L 363.810715 60.316495 
L 363.777429 60.462416 
L 363.69829 60.799229 
L 361.652636 68.8414 
L 361.384959 69.996474 
L 360.72034 73.05246 
L 358.39942 84.151869 
L 357.581177 89.06459 
L 356.931337 96.673575 
L 356.193199 100.982163 
L 356.39949 104.758904 
L 356.535067 112.899735 
L 356.993078 117.428081 
L 357.503349 122.978639 
L 358.164029 127.200822 
L 358.647168 129.558083 
L 359.592286 134.755666 
L 360.059308 136.73488 
L 360.498324 138.351679 
L 362.226612 145.343454 
L 362.501621 146.268938 
L 362.844568 147.28639 
L 364.540322 152.581327 
L 366.493519 159.398107 
L 366.819879 160.570025 
L 367.940334 163.970037 
L 370.690892 172.487597 
L 372.4918 176.453691 
L 375.412491 184.40517 
L 376.457894 186.934707 
L 379.106033 193.674603 
L 382.484727 202.349576 
L 384.910669 208.240315 
L 385.966394 210.649388 
L 389.693112 220.157887 
L 392.88103 227.569896 
L 394.625316 232.07546 
L 388.375467 232.07546 
L 380.457111 232.07546 
L 376.457894 222.923602 
L 375.596642 221.01914 
L 375.133136 220.157887 
L 374.027328 217.727321 
L 369.688875 208.240315 
L 368.141339 204.639297 
L 363.881376 196.322742 
L 360.617016 188.328476 
L 358.667363 184.40517 
L 353.866897 173.731746 
L 353.301959 172.487597 
L 353.136164 171.974183 
L 352.622749 170.750432 
L 347.987921 160.570025 
L 347.271781 158.77045 
L 345.472206 154.279304 
L 342.970954 148.77019 
L 341.811666 146.268938 
L 340.396619 142.885214 
L 339.561286 140.675493 
L 338.321662 137.571716 
L 337.958742 136.73488 
L 336.726706 133.562808 
L 335.948741 131.967851 
L 334.603401 128.24959 
L 334.220314 127.200822 
L 334.013761 126.51213 
L 331.419194 120.050279 
L 330.694505 117.189927 
L 329.120321 112.899735 
L 328.787604 111.518722 
L 327.089073 105.228492 
L 325.147636 100.982163 
L 323.330825 90.788965 
L 322.508081 89.06459 
L 321.277717 83.578874 
L 320.711782 79.530532 
L 322.076617 73.88439 
L 320.848277 69.996474 
L 320.235704 66.211603 
L 320.493669 65.229445 
L 324.020575 60.462416 
L 328.787604 60.462416 
L 328.787604 58.078902 
L 328.787604 55.695387 
L 328.787604 53.311873 
L 328.787604 50.928358 
L 328.787604 48.544844 
L 328.787604 46.161329 
L 328.787604 43.777815 
L 328.787604 41.3943 
L 333.554633 41.3943 
L 338.321662 41.3943 
L 345.472206 41.3943 
L 352.622749 41.3943 
L 364.540322 41.3943 
" clip-path="url(#p78955e1e8c)" style="fill: #ecf2f5"/>
   </g>
   <g id="PathCollection_10">
    <path d="M 42.765865 106.788798 
L 49.722221 107.938518 
L 54.683437 108.374998 
L 58.75779 108.825382 
L 66.60101 110.338292 
L 78.043711 112.424864 
L 78.914245 112.504072 
L 80.880948 112.899735 
L 90.436155 114.812923 
L 97.245891 115.964437 
L 102.353727 117.388161 
L 114.039271 120.189496 
L 114.2713 120.279835 
L 115.160052 120.58353 
L 126.188872 123.714047 
L 130.485051 124.623115 
L 136.041703 127.200822 
L 138.106445 128.166542 
L 142.996762 130.011724 
L 150.024017 135.226339 
L 151.52299 136.135291 
L 151.924805 136.73488 
L 152.606556 137.767896 
L 157.957215 143.095659 
L 159.366139 146.268938 
L 161.94159 152.170835 
L 162.419864 153.132517 
L 162.44698 153.722716 
L 164.637756 160.570025 
L 166.818875 167.610312 
L 167.194216 172.487597 
L 167.018764 177.564772 
L 168.316427 184.40517 
L 169.14995 189.114382 
L 169.486011 196.322742 
L 169.102098 203.48325 
L 169.670198 208.240315 
L 170.065036 212.034441 
L 169.559956 227.776254 
L 169.849016 232.07546 
L 161.94159 232.07546 
L 155.755041 232.07546 
L 155.410973 226.688504 
L 154.338738 220.157887 
L 152.294421 210.510719 
L 152.071716 208.240315 
L 151.864536 206.399796 
L 150.024017 199.783613 
L 146.829529 187.599658 
L 145.326894 184.40517 
L 140.857939 175.239092 
L 139.30237 171.291672 
L 138.106445 169.684415 
L 131.715566 160.570025 
L 130.053601 158.251187 
L 126.188872 154.762518 
L 120.751785 149.53119 
L 115.789645 146.268938 
L 114.2713 145.27956 
L 110.799026 142.890819 
L 102.353727 138.514282 
L 100.473954 137.48679 
L 98.698522 136.73488 
L 90.436155 133.249071 
L 88.912479 132.577321 
L 78.518582 128.949028 
L 76.227876 128.117104 
L 73.075603 127.200822 
L 66.60101 125.317945 
L 60.738895 123.567547 
L 54.683437 122.202192 
L 43.395432 119.672538 
L 42.765865 119.570158 
L 42.765865 112.899735 
M 328.787604 41.3943 
L 328.787604 43.777815 
L 328.787604 46.161329 
L 328.787604 48.544844 
L 328.787604 50.928358 
L 328.787604 53.311873 
L 328.787604 55.695387 
L 328.787604 58.078902 
L 328.787604 60.462416 
L 324.020575 60.462416 
L 320.493669 65.229445 
L 320.235704 66.211603 
L 320.848277 69.996474 
L 322.076617 73.88439 
L 320.711782 79.530532 
L 321.277717 83.578874 
L 322.508081 89.06459 
L 323.330825 90.788965 
L 325.147636 100.982163 
L 327.089073 105.228492 
L 328.787604 111.518722 
L 329.120321 112.899735 
L 330.694505 117.189927 
L 331.419194 120.050279 
L 334.013761 126.51213 
L 334.220314 127.200822 
L 334.603401 128.24959 
L 335.948741 131.967851 
L 336.726706 133.562808 
L 337.958742 136.73488 
L 338.321662 137.571716 
L 339.561286 140.675493 
L 340.396619 142.885214 
L 341.811666 146.268938 
L 342.970954 148.77019 
L 345.472206 154.279304 
L 347.271781 158.77045 
L 347.987921 160.570025 
L 352.622749 170.750432 
L 353.136164 171.974183 
L 353.301959 172.487597 
L 353.866897 173.731746 
L 358.667363 184.40517 
L 360.617016 188.328476 
L 363.881376 196.322742 
L 368.141339 204.639297 
L 369.688875 208.240315 
L 374.027328 217.727321 
L 375.133136 220.157887 
L 375.596642 221.01914 
L 376.457894 222.923602 
L 380.457111 232.07546 
L 376.457894 232.07546 
L 365.814366 232.07546 
L 365.417624 231.198157 
L 359.476005 220.157887 
L 357.333024 215.447613 
L 353.427177 208.240315 
L 352.622749 206.660375 
L 349.673041 201.238922 
L 346.649908 196.322742 
L 342.728139 188.978614 
L 339.939592 184.40517 
L 338.321662 181.5083 
L 336.165403 177.878244 
L 332.586013 172.487597 
L 330.344777 168.594665 
L 328.787604 166.216488 
L 324.835673 160.570025 
L 324.437548 159.944565 
L 319.641999 153.419482 
L 319.453193 153.120011 
L 319.253546 152.852221 
L 313.809177 146.268938 
L 313.23042 145.517327 
L 312.103003 144.151667 
L 307.702108 139.66881 
L 304.952459 137.073872 
L 304.505387 136.73488 
L 300.675547 133.678616 
L 293.034887 128.386102 
L 291.699557 127.734954 
L 290.454228 127.200822 
L 281.117314 123.014193 
L 277.854618 122.007897 
L 269.199742 119.618816 
L 260.417943 118.168814 
L 257.282169 117.6681 
L 254.531973 117.300082 
L 250.131626 116.640413 
L 246.730618 116.300743 
L 242.981082 115.788431 
L 239.843475 115.343868 
L 236.812207 115.002504 
L 233.447024 114.468621 
L 229.226837 113.719997 
L 228.213397 113.599633 
L 224.911674 112.899735 
L 223.912967 112.679806 
L 217.793163 111.181835 
L 214.816437 109.656425 
L 209.61188 107.834212 
L 204.633981 105.960062 
L 200.34758 100.982163 
L 193.798083 92.960814 
L 193.120543 89.06459 
L 192.74597 85.105921 
L 190.078885 76.088812 
L 190.015599 69.996474 
L 190.10885 66.962291 
L 189.712634 63.655086 
L 189.854674 60.462416 
L 189.949116 58.913378 
L 189.829612 57.268326 
L 189.928925 55.695387 
L 190.032969 54.16312 
L 189.936004 52.480019 
L 190.039027 50.928358 
L 190.139296 49.417356 
L 190.044139 47.691363 
L 190.138428 46.161329 
L 190.224704 44.667409 
L 190.107967 42.911568 
L 190.183493 41.3943 
L 197.694307 41.3943 
L 209.61188 41.3943 
L 216.762423 41.3943 
L 223.912967 41.3943 
L 228.679996 41.3943 
L 233.447024 41.3943 
L 238.214053 41.3943 
L 242.981082 41.3943 
L 250.131626 41.3943 
L 257.282169 41.3943 
L 269.199742 41.3943 
L 281.117314 41.3943 
L 293.034887 41.3943 
L 304.952459 41.3943 
L 312.103003 41.3943 
L 319.253546 41.3943 
L 324.020575 41.3943 
" clip-path="url(#p78955e1e8c)" style="fill: #f9eee7"/>
   </g>
   <g id="PathCollection_11">
    <path d="M 42.765865 93.695074 
L 49.879657 93.868371 
L 54.683437 94.291 
L 60.559382 94.940534 
L 66.60101 95.104313 
L 72.422461 95.160712 
L 85.820035 96.366043 
L 90.436155 96.262431 
L 95.503612 95.914706 
L 102.353727 96.27801 
L 109.617511 96.328374 
L 114.2713 95.586622 
L 121.313419 93.940044 
L 126.188872 93.603782 
L 130.112053 92.987771 
L 138.106445 89.18489 
L 138.313251 89.06459 
L 145.143788 85.160407 
L 150.024017 80.004654 
L 155.025404 73.997583 
L 156.808458 69.996474 
L 158.369906 66.658119 
L 159.842975 64.389999 
L 161.429452 60.462416 
L 161.94159 59.225527 
L 162.367674 58.164119 
L 162.40532 57.986156 
L 163.271325 55.695387 
L 164.021216 53.727798 
L 164.198909 52.860409 
L 164.894418 50.928358 
L 165.500293 49.256585 
L 165.789556 47.775251 
L 166.342628 46.161329 
L 166.827153 44.754927 
L 167.197331 42.726667 
L 167.631231 41.3943 
L 173.859162 41.3943 
L 185.776735 41.3943 
L 190.183493 41.3943 
L 190.107967 42.911568 
L 190.224704 44.667409 
L 190.138428 46.161329 
L 190.044139 47.691363 
L 190.139296 49.417356 
L 190.039027 50.928358 
L 189.936004 52.480019 
L 190.032969 54.16312 
L 189.928925 55.695387 
L 189.829612 57.268326 
L 189.949116 58.913378 
L 189.854674 60.462416 
L 189.712634 63.655086 
L 190.10885 66.962291 
L 190.015599 69.996474 
L 190.078885 76.088812 
L 192.74597 85.105921 
L 193.120543 89.06459 
L 193.798083 92.960814 
L 200.34758 100.982163 
L 204.633981 105.960062 
L 209.61188 107.834212 
L 214.816437 109.656425 
L 217.793163 111.181835 
L 223.912967 112.679806 
L 224.911674 112.899735 
L 228.213397 113.599633 
L 229.226837 113.719997 
L 233.447024 114.468621 
L 236.812207 115.002504 
L 239.843475 115.343868 
L 242.981082 115.788431 
L 246.730618 116.300743 
L 250.131626 116.640413 
L 254.531973 117.300082 
L 257.282169 117.6681 
L 260.417943 118.168814 
L 269.199742 119.618816 
L 277.854618 122.007897 
L 281.117314 123.014193 
L 290.454228 127.200822 
L 291.699557 127.734954 
L 293.034887 128.386102 
L 300.675547 133.678616 
L 304.505387 136.73488 
L 304.952459 137.073872 
L 307.702108 139.66881 
L 312.103003 144.151667 
L 313.23042 145.517327 
L 313.809177 146.268938 
L 319.253546 152.852221 
L 319.453193 153.120011 
L 319.641999 153.419482 
L 324.437548 159.944565 
L 324.835673 160.570025 
L 328.787604 166.216488 
L 330.344777 168.594665 
L 332.586013 172.487597 
L 336.165403 177.878244 
L 338.321662 181.5083 
L 339.939592 184.40517 
L 342.728139 188.978614 
L 346.649908 196.322742 
L 349.673041 201.238922 
L 352.622749 206.660375 
L 353.427177 208.240315 
L 357.333024 215.447613 
L 359.476005 220.157887 
L 365.417624 231.198157 
L 365.814366 232.07546 
L 364.540322 232.07546 
L 352.622749 232.07546 
L 350.103608 232.07546 
L 347.839847 228.12939 
L 342.656325 220.157887 
L 340.527381 216.481689 
L 338.321662 213.110096 
L 334.940902 208.240315 
L 334.081442 206.923294 
L 331.695473 203.592415 
L 328.787604 199.524365 
L 327.948525 198.42044 
L 326.193403 196.322742 
L 321.650351 190.33073 
L 319.253546 187.487195 
L 316.400359 184.40517 
L 313.864973 181.468554 
L 305.412686 173.254642 
L 304.952459 172.811567 
L 304.770419 172.669638 
L 304.44834 172.487597 
L 291.005999 162.598913 
L 287.019193 160.570025 
L 281.117314 157.461677 
L 276.801618 156.008899 
L 269.199742 153.469182 
L 259.774336 151.924182 
L 257.282169 151.478199 
L 255.177774 151.315086 
L 250.131626 151.013329 
L 245.23136 151.169204 
L 242.981082 151.148655 
L 241.514032 151.218905 
L 234.290683 152.153994 
L 233.447024 152.236094 
L 232.725 152.336444 
L 228.535709 153.419482 
L 224.572231 154.408378 
L 223.912967 154.668903 
L 221.514877 155.817571 
L 216.762423 157.789504 
L 214.913077 158.720679 
L 212.45838 160.570025 
L 209.61188 162.722025 
L 204.509764 167.385482 
L 197.694307 179.503974 
L 196.118628 182.829491 
L 195.817368 184.40517 
L 195.346248 186.753229 
L 192.682297 196.322742 
L 190.561612 201.10762 
L 189.432794 208.240315 
L 187.627133 218.307489 
L 187.200535 220.157887 
L 186.792075 221.173228 
L 185.776735 227.302121 
L 185.061175 232.07546 
L 173.859162 232.07546 
L 169.849016 232.07546 
L 169.559956 227.776254 
L 170.065036 212.034441 
L 169.670198 208.240315 
L 169.102098 203.48325 
L 169.486011 196.322742 
L 169.14995 189.114382 
L 168.316427 184.40517 
L 167.018764 177.564772 
L 167.194216 172.487597 
L 166.818875 167.610312 
L 164.637756 160.570025 
L 162.44698 153.722716 
L 162.419864 153.132517 
L 161.94159 152.170835 
L 159.366139 146.268938 
L 157.957215 143.095659 
L 152.606556 137.767896 
L 151.924805 136.73488 
L 151.52299 136.135291 
L 150.024017 135.226339 
L 142.996762 130.011724 
L 138.106445 128.166542 
L 136.041703 127.200822 
L 130.485051 124.623115 
L 126.188872 123.714047 
L 115.160052 120.58353 
L 114.2713 120.279835 
L 114.039271 120.189496 
L 102.353727 117.388161 
L 97.245891 115.964437 
L 90.436155 114.812923 
L 80.880948 112.899735 
L 78.914245 112.504072 
L 78.043711 112.424864 
L 66.60101 110.338292 
L 58.75779 108.825382 
L 54.683437 108.374998 
L 49.722221 107.938518 
L 42.765865 106.788798 
L 42.765865 100.982163 
" clip-path="url(#p78955e1e8c)" style="fill: #fddcc9"/>
   </g>
   <g id="PathCollection_12">
    <path d="M 42.765865 80.13547 
L 43.546637 80.15515 
L 54.683437 79.737781 
L 66.561161 79.498653 
L 66.60101 79.495204 
L 66.652581 79.489276 
L 78.518582 78.726625 
L 88.311605 77.830892 
L 90.436155 77.437125 
L 94.229112 76.496166 
L 102.353727 75.021361 
L 107.156747 73.83889 
L 114.2713 70.939817 
L 116.165036 69.996474 
L 120.634451 67.774706 
L 126.188872 64.099995 
L 129.301423 61.707437 
L 130.486614 60.462416 
L 131.510944 59.398002 
L 133.96206 57.250025 
L 135.34073 55.695387 
L 137.325851 53.467992 
L 137.598852 53.210354 
L 138.106445 52.596746 
L 139.36634 50.928358 
L 140.772619 49.078079 
L 141.442018 47.877729 
L 142.665357 46.161329 
L 143.590105 44.874547 
L 144.883848 42.422334 
L 145.579492 41.3943 
L 150.024017 41.3943 
L 161.94159 41.3943 
L 167.631231 41.3943 
L 167.197331 42.726667 
L 166.827153 44.754927 
L 166.342628 46.161329 
L 165.789556 47.775251 
L 165.500293 49.256585 
L 164.894418 50.928358 
L 164.198909 52.860409 
L 164.021216 53.727798 
L 163.271325 55.695387 
L 162.40532 57.986156 
L 162.367674 58.164119 
L 161.94159 59.225527 
L 161.429452 60.462416 
L 159.842975 64.389999 
L 158.369906 66.658119 
L 156.808458 69.996474 
L 155.025404 73.997583 
L 150.024017 80.004654 
L 145.143788 85.160407 
L 138.313251 89.06459 
L 138.106445 89.18489 
L 130.112053 92.987771 
L 126.188872 93.603782 
L 121.313419 93.940044 
L 114.2713 95.586622 
L 109.617511 96.328374 
L 102.353727 96.27801 
L 95.503612 95.914706 
L 90.436155 96.262431 
L 85.820035 96.366043 
L 72.422461 95.160712 
L 66.60101 95.104313 
L 60.559382 94.940534 
L 54.683437 94.291 
L 49.879657 93.868371 
L 42.765865 93.695074 
L 42.765865 89.06459 
M 332.324146 232.07546 
L 328.787604 227.398423 
L 326.853064 224.994239 
L 322.558168 220.157887 
L 320.34847 217.420579 
L 319.253546 216.188926 
L 313.093713 209.891499 
L 311.85859 208.647669 
L 311.388803 208.240315 
L 304.952459 202.34231 
L 301.474239 199.800963 
L 295.019236 196.322742 
L 286.882817 190.55724 
L 281.117314 187.63387 
L 270.139517 184.40517 
L 269.419465 184.185447 
L 268.868938 184.074366 
L 257.282169 182.993045 
L 250.65499 183.532896 
L 249.655108 183.610973 
L 246.160182 184.40517 
L 242.981082 185.116617 
L 239.02714 186.437886 
L 236.977654 187.496168 
L 233.447024 189.119677 
L 231.084812 190.417212 
L 224.007506 196.086394 
L 223.912967 196.154732 
L 223.846069 196.211247 
L 223.761964 196.322742 
L 215.413462 205.992046 
L 214.152325 208.240315 
L 209.61188 215.887832 
L 208.16384 218.709848 
L 207.830003 220.157887 
L 206.630715 223.139052 
L 202.759473 232.07546 
L 197.694307 232.07546 
L 185.776735 232.07546 
L 185.061175 232.07546 
L 185.776735 227.302121 
L 186.792075 221.173228 
L 187.200535 220.157887 
L 187.627133 218.307489 
L 189.432794 208.240315 
L 190.561612 201.10762 
L 192.682297 196.322742 
L 195.346248 186.753229 
L 195.817368 184.40517 
L 196.118628 182.829491 
L 197.694307 179.503974 
L 204.509764 167.385482 
L 209.61188 162.722025 
L 212.45838 160.570025 
L 214.913077 158.720679 
L 216.762423 157.789504 
L 221.514877 155.817571 
L 223.912967 154.668903 
L 224.572231 154.408378 
L 228.535709 153.419482 
L 232.725 152.336444 
L 233.447024 152.236094 
L 234.290683 152.153994 
L 241.514032 151.218905 
L 242.981082 151.148655 
L 245.23136 151.169204 
L 250.131626 151.013329 
L 255.177774 151.315086 
L 257.282169 151.478199 
L 259.774336 151.924182 
L 269.199742 153.469182 
L 276.801618 156.008899 
L 281.117314 157.461677 
L 287.019193 160.570025 
L 291.005999 162.598913 
L 304.44834 172.487597 
L 304.770419 172.669638 
L 304.952459 172.811567 
L 305.412686 173.254642 
L 313.864973 181.468554 
L 316.400359 184.40517 
L 319.253546 187.487195 
L 321.650351 190.33073 
L 326.193403 196.322742 
L 327.948525 198.42044 
L 328.787604 199.524365 
L 331.695473 203.592415 
L 334.081442 206.923294 
L 334.940902 208.240315 
L 338.321662 213.110096 
L 340.527381 216.481689 
L 342.656325 220.157887 
L 347.839847 228.12939 
L 350.103608 232.07546 
L 345.472206 232.07546 
L 338.321662 232.07546 
L 333.554633 232.07546 
" clip-path="url(#p78955e1e8c)" style="fill: #f8bb9e"/>
   </g>
   <g id="PathCollection_13">
    <path d="M 42.765865 65.868807 
L 44.117217 65.769986 
L 54.683437 64.71568 
L 63.11321 63.834325 
L 66.60101 63.358142 
L 74.793068 61.952622 
L 78.518582 61.372224 
L 80.023243 61.064281 
L 82.323563 60.462416 
L 90.436155 58.344105 
L 90.935276 58.178726 
L 91.978037 57.770525 
L 97.558976 55.695387 
L 99.237351 55.072112 
L 102.353727 53.720809 
L 106.195365 51.696686 
L 107.420846 50.928358 
L 109.811125 49.436879 
L 112.124094 48.115403 
L 114.2713 46.665751 
L 114.913722 46.161329 
L 117.214141 44.366383 
L 118.78256 42.875563 
L 120.557185 41.3943 
L 126.188872 41.3943 
L 138.106445 41.3943 
L 145.579492 41.3943 
L 144.883848 42.422334 
L 143.590105 44.874547 
L 142.665357 46.161329 
L 141.442018 47.877729 
L 140.772619 49.078079 
L 139.36634 50.928358 
L 138.106445 52.596746 
L 137.598852 53.210354 
L 137.325851 53.467992 
L 135.34073 55.695387 
L 133.96206 57.250025 
L 131.510944 59.398002 
L 130.486614 60.462416 
L 129.301423 61.707437 
L 126.188872 64.099995 
L 120.634451 67.774706 
L 116.165036 69.996474 
L 114.2713 70.939817 
L 107.156747 73.83889 
L 102.353727 75.021361 
L 94.229112 76.496166 
L 90.436155 77.437125 
L 88.311605 77.830892 
L 78.518582 78.726625 
L 66.652581 79.489276 
L 66.60101 79.495204 
L 66.561161 79.498653 
L 54.683437 79.737781 
L 43.546637 80.15515 
L 42.765865 80.13547 
L 42.765865 79.530532 
L 42.765865 69.996474 
M 309.346828 232.07546 
L 304.952459 228.318893 
L 300.060249 225.050098 
L 289.938515 220.157887 
L 284.60142 216.673782 
L 281.117314 215.060895 
L 274.490308 213.530881 
L 269.199742 212.274125 
L 264.81819 212.621867 
L 257.282169 212.626354 
L 253.242802 213.425609 
L 245.188605 216.478683 
L 242.981082 217.309432 
L 242.033678 217.789376 
L 238.699991 220.157887 
L 234.507466 222.808991 
L 233.447024 223.717069 
L 231.110137 226.000106 
L 227.566523 229.29178 
L 225.301461 232.07546 
L 223.912967 232.07546 
L 216.762423 232.07546 
L 209.61188 232.07546 
L 202.759473 232.07546 
L 206.630715 223.139052 
L 207.830003 220.157887 
L 208.16384 218.709848 
L 209.61188 215.887832 
L 214.152325 208.240315 
L 215.413462 205.992046 
L 223.761964 196.322742 
L 223.846069 196.211247 
L 223.912967 196.154732 
L 224.007506 196.086394 
L 231.084812 190.417212 
L 233.447024 189.119677 
L 236.977654 187.496168 
L 239.02714 186.437886 
L 242.981082 185.116617 
L 246.160182 184.40517 
L 249.655108 183.610973 
L 250.65499 183.532896 
L 257.282169 182.993045 
L 268.868938 184.074366 
L 269.419465 184.185447 
L 270.139517 184.40517 
L 281.117314 187.63387 
L 286.882817 190.55724 
L 295.019236 196.322742 
L 301.474239 199.800963 
L 304.952459 202.34231 
L 311.388803 208.240315 
L 311.85859 208.647669 
L 313.093713 209.891499 
L 319.253546 216.188926 
L 320.34847 217.420579 
L 322.558168 220.157887 
L 326.853064 224.994239 
L 328.787604 227.398423 
L 332.324146 232.07546 
L 328.787604 232.07546 
L 324.020575 232.07546 
L 319.253546 232.07546 
L 312.103003 232.07546 
" clip-path="url(#p78955e1e8c)" style="fill: #ee9677"/>
   </g>
   <g id="PathCollection_14">
    <path d="M 42.765865 50.865918 
L 49.51014 49.893699 
L 54.683437 49.098757 
L 62.465974 47.717837 
L 66.60101 46.919844 
L 69.684114 46.161329 
L 73.64936 45.187485 
L 78.518582 43.868429 
L 83.054729 42.30153 
L 85.396434 41.3943 
L 90.436155 41.3943 
L 102.353727 41.3943 
L 114.2713 41.3943 
L 120.557185 41.3943 
L 118.78256 42.875563 
L 117.214141 44.366383 
L 114.913722 46.161329 
L 114.2713 46.665751 
L 112.124094 48.115403 
L 109.811125 49.436879 
L 107.420846 50.928358 
L 106.195365 51.696686 
L 102.353727 53.720809 
L 99.237351 55.072112 
L 97.558976 55.695387 
L 91.978037 57.770525 
L 90.935276 58.178726 
L 90.436155 58.344105 
L 82.323563 60.462416 
L 80.023243 61.064281 
L 78.518582 61.372224 
L 74.793068 61.952622 
L 66.60101 63.358142 
L 63.11321 63.834325 
L 54.683437 64.71568 
L 44.117217 65.769986 
L 42.765865 65.868807 
L 42.765865 65.229445 
L 42.765865 60.462416 
L 42.765865 58.078902 
L 42.765865 55.695387 
L 42.765865 53.311873 
L 42.765865 50.928358 
M 225.301461 232.07546 
L 227.566523 229.29178 
L 231.110137 226.000106 
L 233.447024 223.717069 
L 234.507466 222.808991 
L 238.699991 220.157887 
L 242.033678 217.789376 
L 242.981082 217.309432 
L 245.188605 216.478683 
L 253.242802 213.425609 
L 257.282169 212.626354 
L 264.81819 212.621867 
L 269.199742 212.274125 
L 274.490308 213.530881 
L 281.117314 215.060895 
L 284.60142 216.673782 
L 289.938515 220.157887 
L 300.060249 225.050098 
L 304.952459 228.318893 
L 309.346828 232.07546 
L 304.952459 232.07546 
L 293.034887 232.07546 
L 281.117314 232.07546 
L 269.199742 232.07546 
L 257.282169 232.07546 
L 250.131626 232.07546 
L 242.981082 232.07546 
L 238.214053 232.07546 
L 233.447024 232.07546 
L 228.679996 232.07546 
" clip-path="url(#p78955e1e8c)" style="fill: #db6b55"/>
   </g>
   <g id="PathCollection_15">
    <path d="M 85.396434 41.3943 
L 83.054729 42.30153 
L 78.518582 43.868429 
L 73.64936 45.187485 
L 69.684114 46.161329 
L 66.60101 46.919844 
L 62.465974 47.717837 
L 54.683437 49.098757 
L 49.51014 49.893699 
L 42.765865 50.865918 
L 42.765865 48.544844 
L 42.765865 46.161329 
L 42.765865 43.777815 
L 42.765865 41.3943 
L 54.683437 41.3943 
L 66.60101 41.3943 
L 78.518582 41.3943 
" clip-path="url(#p78955e1e8c)" style="fill: #c53e3d"/>
   </g>
   <g id="PathCollection_16">
    <path clip-path="url(#p78955e1e8c)" style="fill: #ab162a"/>
   </g>
   <g id="PathCollection_17">
    <path clip-path="url(#p78955e1e8c)" style="fill: #7c0722"/>
   </g>
   <g id="PathCollection_18">
    <path clip-path="url(#p78955e1e8c)" style="fill: #67001f"/>
   </g>
   <g id="PolyCollection_1">
    <path d="M 233.447024 60.462416 
L 233.447024 41.3943 
L 328.787604 41.3943 
L 328.787604 60.462416 
L 328.787604 60.462416 
L 233.447024 60.462416 
z
" clip-path="url(#p78955e1e8c)" style="fill: url(#h021481296a); fill-opacity: 0.3; stroke: #333333; stroke-opacity: 0.3"/>
   </g>
   <g id="PathCollection_19">
    <defs>
     <path id="mfac50d9729" d="M -0 4.1833 
L 4.1833 0 
L 0 -4.1833 
L -4.1833 -0 
z
" style="stroke: #111827"/>
    </defs>
    <g clip-path="url(#p78955e1e8c)">
     <use xlink:href="#mfac50d9729" x="233.447024" y="136.73488" style="fill: #34d399; stroke: #111827"/>
    </g>
   </g>
   <g id="matplotlib.axis_1">
    <g id="xtick_1">
     <g id="line2d_1">
      <defs>
       <path id="m26512bd619" d="M 0 0 
L 0 3.5 
" style="stroke: #000000; stroke-width: 0.8"/>
      </defs>
      <g>
       <use xlink:href="#m26512bd619" x="42.765865" y="232.07546" style="stroke: #000000; stroke-width: 0.8"/>
      </g>
     </g>
     <g id="text_1">
      <!-- 0 -->
      <g transform="translate(39.584615 246.673897) scale(0.1 -0.1)">
       <defs>
        <path id="DejaVuSans-30" d="M 2034 4250 
Q 1547 4250 1301 3770 
Q 1056 3291 1056 2328 
Q 1056 1369 1301 889 
Q 1547 409 2034 409 
Q 2525 409 2770 889 
Q 3016 1369 3016 2328 
Q 3016 3291 2770 3770 
Q 2525 4250 2034 4250 
z
M 2034 4750 
Q 2819 4750 3233 4129 
Q 3647 3509 3647 2328 
Q 3647 1150 3233 529 
Q 2819 -91 2034 -91 
Q 1250 -91 836 529 
Q 422 1150 422 2328 
Q 422 3509 836 4129 
Q 1250 4750 2034 4750 
z
" transform="scale(0.015625)"/>
       </defs>
       <use xlink:href="#DejaVuSans-30"/>
      </g>
     </g>
    </g>
    <g id="xtick_2">
     <g id="line2d_2">
      <g>
       <use xlink:href="#m26512bd619" x="90.436155" y="232.07546" style="stroke: #000000; stroke-width: 0.8"/>
      </g>
     </g>
     <g id="text_2">
      <!-- 50 -->
      <g transform="translate(84.073655 246.673897) scale(0.1 -0.1)">
       <defs>
        <path id="DejaVuSans-35" d="M 691 4666 
L 3169 4666 
L 3169 4134 
L 1269 4134 
L 1269 2991 
Q 1406 3038 1543 3061 
Q 1681 3084 1819 3084 
Q 2600 3084 3056 2656 
Q 3513 2228 3513 1497 
Q 3513 744 3044 326 
Q 2575 -91 1722 -91 
Q 1428 -91 1123 -41 
Q 819 9 494 109 
L 494 744 
Q 775 591 1075 516 
Q 1375 441 1709 441 
Q 2250 441 2565 725 
Q 2881 1009 2881 1497 
Q 2881 1984 2565 2268 
Q 2250 2553 1709 2553 
Q 1456 2553 1204 2497 
Q 953 2441 691 2322 
L 691 4666 
z
" transform="scale(0.015625)"/>
       </defs>
       <use xlink:href="#DejaVuSans-35"/>
       <use xlink:href="#DejaVuSans-30" x="63.623047"/>
      </g>
     </g>
    </g>
    <g id="xtick_3">
     <g id="line2d_3">
      <g>
       <use xlink:href="#m26512bd619" x="138.106445" y="232.07546" style="stroke: #000000; stroke-width: 0.8"/>
      </g>
     </g>
     <g id="text_3">
      <!-- 100 -->
      <g transform="translate(128.562695 246.673897) scale(0.1 -0.1)">
       <defs>
        <path id="DejaVuSans-31" d="M 794 531 
L 1825 531 
L 1825 4091 
L 703 3866 
L 703 4441 
L 1819 4666 
L 2450 4666 
L 2450 531 
L 3481 531 
L 3481 0 
L 794 0 
L 794 531 
z
" transform="scale(0.015625)"/>
       </defs>
       <use xlink:href="#DejaVuSans-31"/>
       <use xlink:href="#DejaVuSans-30" x="63.623047"/>
       <use xlink:href="#DejaVuSans-30" x="127.246094"/>
      </g>
     </g>
    </g>
    <g id="xtick_4">
     <g id="line2d_4">
      <g>
       <use xlink:href="#m26512bd619" x="185.776735" y="232.07546" style="stroke: #000000; stroke-width: 0.8"/>
      </g>
     </g>
     <g id="text_4">
      <!-- 150 -->
      <g transform="translate(176.232985 246.673897) scale(0.1 -0.1)">
       <use xlink:href="#DejaVuSans-31"/>
       <use xlink:href="#DejaVuSans-35" x="63.623047"/>
       <use xlink:href="#DejaVuSans-30" x="127.246094"/>
      </g>
     </g>
    </g>
    <g id="xtick_5">
     <g id="line2d_5">
      <g>
       <use xlink:href="#m26512bd619" x="233.447024" y="232.07546" style="stroke: #000000; stroke-width: 0.8"/>
      </g>
     </g>
     <g id="text_5">
      <!-- 200 -->
      <g transform="translate(223.903274 246.673897) scale(0.1 -0.1)">
       <defs>
        <path id="DejaVuSans-32" d="M 1228 531 
L 3431 531 
L 3431 0 
L 469 0 
L 469 531 
Q 828 903 1448 1529 
Q 2069 2156 2228 2338 
Q 2531 2678 2651 2914 
Q 2772 3150 2772 3378 
Q 2772 3750 2511 3984 
Q 2250 4219 1831 4219 
Q 1534 4219 1204 4116 
Q 875 4013 500 3803 
L 500 4441 
Q 881 4594 1212 4672 
Q 1544 4750 1819 4750 
Q 2544 4750 2975 4387 
Q 3406 4025 3406 3419 
Q 3406 3131 3298 2873 
Q 3191 2616 2906 2266 
Q 2828 2175 2409 1742 
Q 1991 1309 1228 531 
z
" transform="scale(0.015625)"/>
       </defs>
       <use xlink:href="#DejaVuSans-32"/>
       <use xlink:href="#DejaVuSans-30" x="63.623047"/>
       <use xlink:href="#DejaVuSans-30" x="127.246094"/>
      </g>
     </g>
    </g>
    <g id="xtick_6">
     <g id="line2d_6">
      <g>
       <use xlink:href="#m26512bd619" x="281.117314" y="232.07546" style="stroke: #000000; stroke-width: 0.8"/>
      </g>
     </g>
     <g id="text_6">
      <!-- 250 -->
      <g transform="translate(271.573564 246.673897) scale(0.1 -0.1)">
       <use xlink:href="#DejaVuSans-32"/>
       <use xlink:href="#DejaVuSans-35" x="63.623047"/>
       <use xlink:href="#DejaVuSans-30" x="127.246094"/>
      </g>
     </g>
    </g>
    <g id="xtick_7">
     <g id="line2d_7">
      <g>
       <use xlink:href="#m26512bd619" x="328.787604" y="232.07546" style="stroke: #000000; stroke-width: 0.8"/>
      </g>
     </g>
     <g id="text_7">
      <!-- 300 -->
      <g transform="translate(319.243854 246.673897) scale(0.1 -0.1)">
       <defs>
        <path id="DejaVuSans-33" d="M 2597 2516 
Q 3050 2419 3304 2112 
Q 3559 1806 3559 1356 
Q 3559 666 3084 287 
Q 2609 -91 1734 -91 
Q 1441 -91 1130 -33 
Q 819 25 488 141 
L 488 750 
Q 750 597 1062 519 
Q 1375 441 1716 441 
Q 2309 441 2620 675 
Q 2931 909 2931 1356 
Q 2931 1769 2642 2001 
Q 2353 2234 1838 2234 
L 1294 2234 
L 1294 2753 
L 1863 2753 
Q 2328 2753 2575 2939 
Q 2822 3125 2822 3475 
Q 2822 3834 2567 4026 
Q 2313 4219 1838 4219 
Q 1578 4219 1281 4162 
Q 984 4106 628 3988 
L 628 4550 
Q 988 4650 1302 4700 
Q 1616 4750 1894 4750 
Q 2613 4750 3031 4423 
Q 3450 4097 3450 3541 
Q 3450 3153 3228 2886 
Q 3006 2619 2597 2516 
z
" transform="scale(0.015625)"/>
       </defs>
       <use xlink:href="#DejaVuSans-33"/>
       <use xlink:href="#DejaVuSans-30" x="63.623047"/>
       <use xlink:href="#DejaVuSans-30" x="127.246094"/>
      </g>
     </g>
    </g>
    <g id="xtick_8">
     <g id="line2d_8">
      <g>
       <use xlink:href="#m26512bd619" x="376.457894" y="232.07546" style="stroke: #000000; stroke-width: 0.8"/>
      </g>
     </g>
     <g id="text_8">
      <!-- 350 -->
      <g transform="translate(366.914144 246.673897) scale(0.1 -0.1)">
       <use xlink:href="#DejaVuSans-33"/>
       <use xlink:href="#DejaVuSans-35" x="63.623047"/>
       <use xlink:href="#DejaVuSans-30" x="127.246094"/>
      </g>
     </g>
    </g>
    <g id="xtick_9">
     <g id="line2d_9">
      <g>
       <use xlink:href="#m26512bd619" x="424.128184" y="232.07546" style="stroke: #000000; stroke-width: 0.8"/>
      </g>
     </g>
     <g id="text_9">
      <!-- 400 -->
      <g transform="translate(414.584434 246.673897) scale(0.1 -0.1)">
       <defs>
        <path id="DejaVuSans-34" d="M 2419 4116 
L 825 1625 
L 2419 1625 
L 2419 4116 
z
M 2253 4666 
L 3047 4666 
L 3047 1625 
L 3713 1625 
L 3713 1100 
L 3047 1100 
L 3047 0 
L 2419 0 
L 2419 1100 
L 313 1100 
L 313 1709 
L 2253 4666 
z
" transform="scale(0.015625)"/>
       </defs>
       <use xlink:href="#DejaVuSans-34"/>
       <use xlink:href="#DejaVuSans-30" x="63.623047"/>
       <use xlink:href="#DejaVuSans-30" x="127.246094"/>
      </g>
     </g>
    </g>
    <g id="text_10">
     <!-- x [mm] -->
     <g transform="translate(215.256399 260.352022) scale(0.1 -0.1)">
      <defs>
       <path id="DejaVuSans-78" d="M 3513 3500 
L 2247 1797 
L 3578 0 
L 2900 0 
L 1881 1375 
L 863 0 
L 184 0 
L 1544 1831 
L 300 3500 
L 978 3500 
L 1906 2253 
L 2834 3500 
L 3513 3500 
z
" transform="scale(0.015625)"/>
       <path id="DejaVuSans-20" transform="scale(0.015625)"/>
       <path id="DejaVuSans-5b" d="M 550 4863 
L 1875 4863 
L 1875 4416 
L 1125 4416 
L 1125 -397 
L 1875 -397 
L 1875 -844 
L 550 -844 
L 550 4863 
z
" transform="scale(0.015625)"/>
       <path id="DejaVuSans-6d" d="M 3328 2828 
Q 3544 3216 3844 3400 
Q 4144 3584 4550 3584 
Q 5097 3584 5394 3201 
Q 5691 2819 5691 2113 
L 5691 0 
L 5113 0 
L 5113 2094 
Q 5113 2597 4934 2840 
Q 4756 3084 4391 3084 
Q 3944 3084 3684 2787 
Q 3425 2491 3425 1978 
L 3425 0 
L 2847 0 
L 2847 2094 
Q 2847 2600 2669 2842 
Q 2491 3084 2119 3084 
Q 1678 3084 1418 2786 
Q 1159 2488 1159 1978 
L 1159 0 
L 581 0 
L 581 3500 
L 1159 3500 
L 1159 2956 
Q 1356 3278 1631 3431 
Q 1906 3584 2284 3584 
Q 2666 3584 2933 3390 
Q 3200 3197 3328 2828 
z
" transform="scale(0.015625)"/>
       <path id="DejaVuSans-5d" d="M 1947 4863 
L 1947 -844 
L 622 -844 
L 622 -397 
L 1369 -397 
L 1369 4416 
L 622 4416 
L 622 4863 
L 1947 4863 
z
" transform="scale(0.015625)"/>
      </defs>
      <use xlink:href="#DejaVuSans-78"/>
      <use xlink:href="#DejaVuSans-20" x="59.179688"/>
      <use xlink:href="#DejaVuSans-5b" x="90.966797"/>
      <use xlink:href="#DejaVuSans-6d" x="129.980469"/>
      <use xlink:href="#DejaVuSans-6d" x="227.392578"/>
      <use xlink:href="#DejaVuSans-5d" x="324.804688"/>
     </g>
    </g>
   </g>
   <g id="matplotlib.axis_2">
    <g id="ytick_1">
     <g id="line2d_10">
      <defs>
       <path id="mb752bfc995" d="M 0 0 
L -3.5 0 
" style="stroke: #000000; stroke-width: 0.8"/>
      </defs>
      <g>
       <use xlink:href="#mb752bfc995" x="42.765865" y="41.3943" style="stroke: #000000; stroke-width: 0.8"/>
      </g>
     </g>
     <g id="text_11">
      <!-- 0 -->
      <g transform="translate(29.403365 45.193519) scale(0.1 -0.1)">
       <use xlink:href="#DejaVuSans-30"/>
      </g>
     </g>
    </g>
    <g id="ytick_2">
     <g id="line2d_11">
      <g>
       <use xlink:href="#mb752bfc995" x="42.765865" y="65.229445" style="stroke: #000000; stroke-width: 0.8"/>
      </g>
     </g>
     <g id="text_12">
      <!-- 25 -->
      <g transform="translate(23.040865 69.028664) scale(0.1 -0.1)">
       <use xlink:href="#DejaVuSans-32"/>
       <use xlink:href="#DejaVuSans-35" x="63.623047"/>
      </g>
     </g>
    </g>
    <g id="ytick_3">
     <g id="line2d_12">
      <g>
       <use xlink:href="#mb752bfc995" x="42.765865" y="89.06459" style="stroke: #000000; stroke-width: 0.8"/>
      </g>
     </g>
     <g id="text_13">
      <!-- 50 -->
      <g transform="translate(23.040865 92.863809) scale(0.1 -0.1)">
       <use xlink:href="#DejaVuSans-35"/>
       <use xlink:href="#DejaVuSans-30" x="63.623047"/>
      </g>
     </g>
    </g>
    <g id="ytick_4">
     <g id="line2d_13">
      <g>
       <use xlink:href="#mb752bfc995" x="42.765865" y="112.899735" style="stroke: #000000; stroke-width: 0.8"/>
      </g>
     </g>
     <g id="text_14">
      <!-- 75 -->
      <g transform="translate(23.040865 116.698954) scale(0.1 -0.1)">
       <defs>
        <path id="DejaVuSans-37" d="M 525 4666 
L 3525 4666 
L 3525 4397 
L 1831 0 
L 1172 0 
L 2766 4134 
L 525 4134 
L 525 4666 
z
" transform="scale(0.015625)"/>
       </defs>
       <use xlink:href="#DejaVuSans-37"/>
       <use xlink:href="#DejaVuSans-35" x="63.623047"/>
      </g>
     </g>
    </g>
    <g id="ytick_5">
     <g id="line2d_14">
      <g>
       <use xlink:href="#mb752bfc995" x="42.765865" y="136.73488" style="stroke: #000000; stroke-width: 0.8"/>
      </g>
     </g>
     <g id="text_15">
      <!-- 100 -->
      <g transform="translate(16.678365 140.534099) scale(0.1 -0.1)">
       <use xlink:href="#DejaVuSans-31"/>
       <use xlink:href="#DejaVuSans-30" x="63.623047"/>
       <use xlink:href="#DejaVuSans-30" x="127.246094"/>
      </g>
     </g>
    </g>
    <g id="ytick_6">
     <g id="line2d_15">
      <g>
       <use xlink:href="#mb752bfc995" x="42.765865" y="160.570025" style="stroke: #000000; stroke-width: 0.8"/>
      </g>
     </g>
     <g id="text_16">
      <!-- 125 -->
      <g transform="translate(16.678365 164.369244) scale(0.1 -0.1)">
       <use xlink:href="#DejaVuSans-31"/>
       <use xlink:href="#DejaVuSans-32" x="63.623047"/>
       <use xlink:href="#DejaVuSans-35" x="127.246094"/>
      </g>
     </g>
    </g>
    <g id="ytick_7">
     <g id="line2d_16">
      <g>
       <use xlink:href="#mb752bfc995" x="42.765865" y="184.40517" style="stroke: #000000; stroke-width: 0.8"/>
      </g>
     </g>
     <g id="text_17">
      <!-- 150 -->
      <g transform="translate(16.678365 188.204389) scale(0.1 -0.1)">
       <use xlink:href="#DejaVuSans-31"/>
       <use xlink:href="#DejaVuSans-35" x="63.623047"/>
       <use xlink:href="#DejaVuSans-30" x="127.246094"/>
      </g>
     </g>
    </g>
    <g id="ytick_8">
     <g id="line2d_17">
      <g>
       <use xlink:href="#mb752bfc995" x="42.765865" y="208.240315" style="stroke: #000000; stroke-width: 0.8"/>
      </g>
     </g>
     <g id="text_18">
      <!-- 175 -->
      <g transform="translate(16.678365 212.039534) scale(0.1 -0.1)">
       <use xlink:href="#DejaVuSans-31"/>
       <use xlink:href="#DejaVuSans-37" x="63.623047"/>
       <use xlink:href="#DejaVuSans-35" x="127.246094"/>
      </g>
     </g>
    </g>
    <g id="ytick_9">
     <g id="line2d_18">
      <g>
       <use xlink:href="#mb752bfc995" x="42.765865" y="232.07546" style="stroke: #000000; stroke-width: 0.8"/>
      </g>
     </g>
     <g id="text_19">
      <!-- 200 -->
      <g transform="translate(16.678365 235.874679) scale(0.1 -0.1)">
       <use xlink:href="#DejaVuSans-32"/>
       <use xlink:href="#DejaVuSans-30" x="63.623047"/>
       <use xlink:href="#DejaVuSans-30" x="127.246094"/>
      </g>
     </g>
    </g>
    <g id="text_20">
     <!-- y [mm] -->
     <g transform="translate(10.598678 154.925505) rotate(-90) scale(0.1 -0.1)">
      <defs>
       <path id="DejaVuSans-79" d="M 2059 -325 
Q 1816 -950 1584 -1140 
Q 1353 -1331 966 -1331 
L 506 -1331 
L 506 -850 
L 844 -850 
Q 1081 -850 1212 -737 
Q 1344 -625 1503 -206 
L 1606 56 
L 191 3500 
L 800 3500 
L 1894 763 
L 2988 3500 
L 3597 3500 
L 2059 -325 
z
" transform="scale(0.015625)"/>
      </defs>
      <use xlink:href="#DejaVuSans-79"/>
      <use xlink:href="#DejaVuSans-20" x="59.179688"/>
      <use xlink:href="#DejaVuSans-5b" x="90.966797"/>
      <use xlink:href="#DejaVuSans-6d" x="129.980469"/>
      <use xlink:href="#DejaVuSans-6d" x="227.392578"/>
      <use xlink:href="#DejaVuSans-5d" x="324.804688"/>
     </g>
    </g>
   </g>
   <g id="PathCollection_20">
    <path d="M 328.787604 41.3943 
L 328.787604 43.777815 
L 328.787604 46.161329 
L 328.787604 48.544844 
L 328.787604 50.928358 
L 328.787604 53.311873 
L 328.787604 55.695387 
L 328.787604 58.078902 
L 328.787604 60.462416 
L 324.020575 60.462416 
L 320.493669 65.229445 
L 320.235704 66.211603 
L 320.848277 69.996474 
L 322.076617 73.88439 
L 320.711782 79.530532 
L 321.277717 83.578874 
L 322.508081 89.06459 
L 323.330825 90.788965 
L 325.147636 100.982163 
L 327.089073 105.228492 
L 328.787604 111.518722 
L 329.120321 112.899735 
L 330.694505 117.189927 
L 331.419194 120.050279 
L 334.013761 126.51213 
L 334.220314 127.200822 
L 334.603401 128.24959 
L 335.948741 131.967851 
L 336.726706 133.562808 
L 337.958742 136.73488 
L 338.321662 137.571716 
L 339.561286 140.675493 
L 340.396619 142.885214 
L 341.811666 146.268938 
L 342.970954 148.77019 
L 345.472206 154.279304 
L 347.271781 158.77045 
L 347.987921 160.570025 
L 352.622749 170.750432 
L 353.136164 171.974183 
L 353.301959 172.487597 
L 353.866897 173.731746 
L 358.667363 184.40517 
L 360.617016 188.328476 
L 363.881376 196.322742 
L 368.141339 204.639297 
L 369.688875 208.240315 
L 374.027328 217.727321 
L 375.133136 220.157887 
L 375.596642 221.01914 
L 376.457894 222.923602 
L 380.457111 232.07546 
" clip-path="url(#p78955e1e8c)" style="fill: none; stroke: #263238; stroke-width: 0.55"/>
    <path d="M 155.755041 232.07546 
L 155.410973 226.688504 
L 154.338738 220.157887 
L 152.294421 210.510719 
L 152.071716 208.240315 
L 151.864536 206.399796 
L 150.024017 199.783613 
L 146.829529 187.599658 
L 145.326894 184.40517 
L 140.857939 175.239092 
L 139.30237 171.291672 
L 138.106445 169.684415 
L 131.715566 160.570025 
L 130.053601 158.251187 
L 126.188872 154.762518 
L 120.751785 149.53119 
L 115.789645 146.268938 
L 114.2713 145.27956 
L 110.799026 142.890819 
L 102.353727 138.514282 
L 100.473954 137.48679 
L 98.698522 136.73488 
L 90.436155 133.249071 
L 88.912479 132.577321 
L 78.518582 128.949028 
L 76.227876 128.117104 
L 73.075603 127.200822 
L 66.60101 125.317945 
L 60.738895 123.567547 
L 54.683437 122.202192 
L 43.395432 119.672538 
L 42.765865 119.570158 
" clip-path="url(#p78955e1e8c)" style="fill: none; stroke: #263238; stroke-width: 0.55"/>
   </g>
   <g id="patch_3">
    <path d="M 42.765865 232.07546 
L 42.765865 41.3943 
" style="fill: none; stroke: #000000; stroke-width: 0.8; stroke-linejoin: miter; stroke-linecap: square"/>
   </g>
   <g id="patch_4">
    <path d="M 424.128184 232.07546 
L 424.128184 41.3943 
" style="fill: none; stroke: #000000; stroke-width: 0.8; stroke-linejoin: miter; stroke-linecap: square"/>
   </g>
   <g id="patch_5">
    <path d="M 42.765865 232.07546 
L 424.128184 232.07546 
" style="fill: none; stroke: #000000; stroke-width: 0.8; stroke-linejoin: miter; stroke-linecap: square"/>
   </g>
   <g id="patch_6">
    <path d="M 42.765865 41.3943 
L 424.128184 41.3943 
" style="fill: none; stroke: #000000; stroke-width: 0.8; stroke-linejoin: miter; stroke-linecap: square"/>
   </g>
   <g id="text_21">
    <!-- CalculiX C3D20R — Mode 4: 38.99 Hz -->
    <g transform="translate(120.469837 35.3943) scale(0.12 -0.12)">
     <defs>
      <path id="DejaVuSans-43" d="M 4122 4306 
L 4122 3641 
Q 3803 3938 3442 4084 
Q 3081 4231 2675 4231 
Q 1875 4231 1450 3742 
Q 1025 3253 1025 2328 
Q 1025 1406 1450 917 
Q 1875 428 2675 428 
Q 3081 428 3442 575 
Q 3803 722 4122 1019 
L 4122 359 
Q 3791 134 3420 21 
Q 3050 -91 2638 -91 
Q 1578 -91 968 557 
Q 359 1206 359 2328 
Q 359 3453 968 4101 
Q 1578 4750 2638 4750 
Q 3056 4750 3426 4639 
Q 3797 4528 4122 4306 
z
" transform="scale(0.015625)"/>
      <path id="DejaVuSans-61" d="M 2194 1759 
Q 1497 1759 1228 1600 
Q 959 1441 959 1056 
Q 959 750 1161 570 
Q 1363 391 1709 391 
Q 2188 391 2477 730 
Q 2766 1069 2766 1631 
L 2766 1759 
L 2194 1759 
z
M 3341 1997 
L 3341 0 
L 2766 0 
L 2766 531 
Q 2569 213 2275 61 
Q 1981 -91 1556 -91 
Q 1019 -91 701 211 
Q 384 513 384 1019 
Q 384 1609 779 1909 
Q 1175 2209 1959 2209 
L 2766 2209 
L 2766 2266 
Q 2766 2663 2505 2880 
Q 2244 3097 1772 3097 
Q 1472 3097 1187 3025 
Q 903 2953 641 2809 
L 641 3341 
Q 956 3463 1253 3523 
Q 1550 3584 1831 3584 
Q 2591 3584 2966 3190 
Q 3341 2797 3341 1997 
z
" transform="scale(0.015625)"/>
      <path id="DejaVuSans-6c" d="M 603 4863 
L 1178 4863 
L 1178 0 
L 603 0 
L 603 4863 
z
" transform="scale(0.015625)"/>
      <path id="DejaVuSans-63" d="M 3122 3366 
L 3122 2828 
Q 2878 2963 2633 3030 
Q 2388 3097 2138 3097 
Q 1578 3097 1268 2742 
Q 959 2388 959 1747 
Q 959 1106 1268 751 
Q 1578 397 2138 397 
Q 2388 397 2633 464 
Q 2878 531 3122 666 
L 3122 134 
Q 2881 22 2623 -34 
Q 2366 -91 2075 -91 
Q 1284 -91 818 406 
Q 353 903 353 1747 
Q 353 2603 823 3093 
Q 1294 3584 2113 3584 
Q 2378 3584 2631 3529 
Q 2884 3475 3122 3366 
z
" transform="scale(0.015625)"/>
      <path id="DejaVuSans-75" d="M 544 1381 
L 544 3500 
L 1119 3500 
L 1119 1403 
Q 1119 906 1312 657 
Q 1506 409 1894 409 
Q 2359 409 2629 706 
Q 2900 1003 2900 1516 
L 2900 3500 
L 3475 3500 
L 3475 0 
L 2900 0 
L 2900 538 
Q 2691 219 2414 64 
Q 2138 -91 1772 -91 
Q 1169 -91 856 284 
Q 544 659 544 1381 
z
M 1991 3584 
L 1991 3584 
z
" transform="scale(0.015625)"/>
      <path id="DejaVuSans-69" d="M 603 3500 
L 1178 3500 
L 1178 0 
L 603 0 
L 603 3500 
z
M 603 4863 
L 1178 4863 
L 1178 4134 
L 603 4134 
L 603 4863 
z
" transform="scale(0.015625)"/>
      <path id="DejaVuSans-58" d="M 403 4666 
L 1081 4666 
L 2241 2931 
L 3406 4666 
L 4084 4666 
L 2584 2425 
L 4184 0 
L 3506 0 
L 2194 1984 
L 872 0 
L 191 0 
L 1856 2491 
L 403 4666 
z
" transform="scale(0.015625)"/>
      <path id="DejaVuSans-44" d="M 1259 4147 
L 1259 519 
L 2022 519 
Q 2988 519 3436 956 
Q 3884 1394 3884 2338 
Q 3884 3275 3436 3711 
Q 2988 4147 2022 4147 
L 1259 4147 
z
M 628 4666 
L 1925 4666 
Q 3281 4666 3915 4102 
Q 4550 3538 4550 2338 
Q 4550 1131 3912 565 
Q 3275 0 1925 0 
L 628 0 
L 628 4666 
z
" transform="scale(0.015625)"/>
      <path id="DejaVuSans-52" d="M 2841 2188 
Q 3044 2119 3236 1894 
Q 3428 1669 3622 1275 
L 4263 0 
L 3584 0 
L 2988 1197 
Q 2756 1666 2539 1819 
Q 2322 1972 1947 1972 
L 1259 1972 
L 1259 0 
L 628 0 
L 628 4666 
L 2053 4666 
Q 2853 4666 3247 4331 
Q 3641 3997 3641 3322 
Q 3641 2881 3436 2590 
Q 3231 2300 2841 2188 
z
M 1259 4147 
L 1259 2491 
L 2053 2491 
Q 2509 2491 2742 2702 
Q 2975 2913 2975 3322 
Q 2975 3731 2742 3939 
Q 2509 4147 2053 4147 
L 1259 4147 
z
" transform="scale(0.015625)"/>
      <path id="DejaVuSans-2014" d="M 313 1978 
L 6088 1978 
L 6088 1528 
L 313 1528 
L 313 1978 
z
" transform="scale(0.015625)"/>
      <path id="DejaVuSans-4d" d="M 628 4666 
L 1569 4666 
L 2759 1491 
L 3956 4666 
L 4897 4666 
L 4897 0 
L 4281 0 
L 4281 4097 
L 3078 897 
L 2444 897 
L 1241 4097 
L 1241 0 
L 628 0 
L 628 4666 
z
" transform="scale(0.015625)"/>
      <path id="DejaVuSans-6f" d="M 1959 3097 
Q 1497 3097 1228 2736 
Q 959 2375 959 1747 
Q 959 1119 1226 758 
Q 1494 397 1959 397 
Q 2419 397 2687 759 
Q 2956 1122 2956 1747 
Q 2956 2369 2687 2733 
Q 2419 3097 1959 3097 
z
M 1959 3584 
Q 2709 3584 3137 3096 
Q 3566 2609 3566 1747 
Q 3566 888 3137 398 
Q 2709 -91 1959 -91 
Q 1206 -91 779 398 
Q 353 888 353 1747 
Q 353 2609 779 3096 
Q 1206 3584 1959 3584 
z
" transform="scale(0.015625)"/>
      <path id="DejaVuSans-64" d="M 2906 2969 
L 2906 4863 
L 3481 4863 
L 3481 0 
L 2906 0 
L 2906 525 
Q 2725 213 2448 61 
Q 2172 -91 1784 -91 
Q 1150 -91 751 415 
Q 353 922 353 1747 
Q 353 2572 751 3078 
Q 1150 3584 1784 3584 
Q 2172 3584 2448 3432 
Q 2725 3281 2906 2969 
z
M 947 1747 
Q 947 1113 1208 752 
Q 1469 391 1925 391 
Q 2381 391 2643 752 
Q 2906 1113 2906 1747 
Q 2906 2381 2643 2742 
Q 2381 3103 1925 3103 
Q 1469 3103 1208 2742 
Q 947 2381 947 1747 
z
" transform="scale(0.015625)"/>
      <path id="DejaVuSans-65" d="M 3597 1894 
L 3597 1613 
L 953 1613 
Q 991 1019 1311 708 
Q 1631 397 2203 397 
Q 2534 397 2845 478 
Q 3156 559 3463 722 
L 3463 178 
Q 3153 47 2828 -22 
Q 2503 -91 2169 -91 
Q 1331 -91 842 396 
Q 353 884 353 1716 
Q 353 2575 817 3079 
Q 1281 3584 2069 3584 
Q 2775 3584 3186 3129 
Q 3597 2675 3597 1894 
z
M 3022 2063 
Q 3016 2534 2758 2815 
Q 2500 3097 2075 3097 
Q 1594 3097 1305 2825 
Q 1016 2553 972 2059 
L 3022 2063 
z
" transform="scale(0.015625)"/>
      <path id="DejaVuSans-3a" d="M 750 794 
L 1409 794 
L 1409 0 
L 750 0 
L 750 794 
z
M 750 3309 
L 1409 3309 
L 1409 2516 
L 750 2516 
L 750 3309 
z
" transform="scale(0.015625)"/>
      <path id="DejaVuSans-38" d="M 2034 2216 
Q 1584 2216 1326 1975 
Q 1069 1734 1069 1313 
Q 1069 891 1326 650 
Q 1584 409 2034 409 
Q 2484 409 2743 651 
Q 3003 894 3003 1313 
Q 3003 1734 2745 1975 
Q 2488 2216 2034 2216 
z
M 1403 2484 
Q 997 2584 770 2862 
Q 544 3141 544 3541 
Q 544 4100 942 4425 
Q 1341 4750 2034 4750 
Q 2731 4750 3128 4425 
Q 3525 4100 3525 3541 
Q 3525 3141 3298 2862 
Q 3072 2584 2669 2484 
Q 3125 2378 3379 2068 
Q 3634 1759 3634 1313 
Q 3634 634 3220 271 
Q 2806 -91 2034 -91 
Q 1263 -91 848 271 
Q 434 634 434 1313 
Q 434 1759 690 2068 
Q 947 2378 1403 2484 
z
M 1172 3481 
Q 1172 3119 1398 2916 
Q 1625 2713 2034 2713 
Q 2441 2713 2670 2916 
Q 2900 3119 2900 3481 
Q 2900 3844 2670 4047 
Q 2441 4250 2034 4250 
Q 1625 4250 1398 4047 
Q 1172 3844 1172 3481 
z
" transform="scale(0.015625)"/>
      <path id="DejaVuSans-2e" d="M 684 794 
L 1344 794 
L 1344 0 
L 684 0 
L 684 794 
z
" transform="scale(0.015625)"/>
      <path id="DejaVuSans-39" d="M 703 97 
L 703 672 
Q 941 559 1184 500 
Q 1428 441 1663 441 
Q 2288 441 2617 861 
Q 2947 1281 2994 2138 
Q 2813 1869 2534 1725 
Q 2256 1581 1919 1581 
Q 1219 1581 811 2004 
Q 403 2428 403 3163 
Q 403 3881 828 4315 
Q 1253 4750 1959 4750 
Q 2769 4750 3195 4129 
Q 3622 3509 3622 2328 
Q 3622 1225 3098 567 
Q 2575 -91 1691 -91 
Q 1453 -91 1209 -44 
Q 966 3 703 97 
z
M 1959 2075 
Q 2384 2075 2632 2365 
Q 2881 2656 2881 3163 
Q 2881 3666 2632 3958 
Q 2384 4250 1959 4250 
Q 1534 4250 1286 3958 
Q 1038 3666 1038 3163 
Q 1038 2656 1286 2365 
Q 1534 2075 1959 2075 
z
" transform="scale(0.015625)"/>
      <path id="DejaVuSans-48" d="M 628 4666 
L 1259 4666 
L 1259 2753 
L 3553 2753 
L 3553 4666 
L 4184 4666 
L 4184 0 
L 3553 0 
L 3553 2222 
L 1259 2222 
L 1259 0 
L 628 0 
L 628 4666 
z
" transform="scale(0.015625)"/>
      <path id="DejaVuSans-7a" d="M 353 3500 
L 3084 3500 
L 3084 2975 
L 922 459 
L 3084 459 
L 3084 0 
L 275 0 
L 275 525 
L 2438 3041 
L 353 3041 
L 353 3500 
z
" transform="scale(0.015625)"/>
     </defs>
     <use xlink:href="#DejaVuSans-43"/>
     <use xlink:href="#DejaVuSans-61" x="69.824219"/>
     <use xlink:href="#DejaVuSans-6c" x="131.103516"/>
     <use xlink:href="#DejaVuSans-63" x="158.886719"/>
     <use xlink:href="#DejaVuSans-75" x="213.867188"/>
     <use xlink:href="#DejaVuSans-6c" x="277.246094"/>
     <use xlink:href="#DejaVuSans-69" x="305.029297"/>
     <use xlink:href="#DejaVuSans-58" x="332.8125"/>
     <use xlink:href="#DejaVuSans-20" x="401.318359"/>
     <use xlink:href="#DejaVuSans-43" x="433.105469"/>
     <use xlink:href="#DejaVuSans-33" x="502.929688"/>
     <use xlink:href="#DejaVuSans-44" x="566.552734"/>
     <use xlink:href="#DejaVuSans-32" x="643.554688"/>
     <use xlink:href="#DejaVuSans-30" x="707.177734"/>
     <use xlink:href="#DejaVuSans-52" x="770.800781"/>
     <use xlink:href="#DejaVuSans-20" x="840.283203"/>
     <use xlink:href="#DejaVuSans-2014" x="872.070312"/>
     <use xlink:href="#DejaVuSans-20" x="972.070312"/>
     <use xlink:href="#DejaVuSans-4d" x="1003.857422"/>
     <use xlink:href="#DejaVuSans-6f" x="1090.136719"/>
     <use xlink:href="#DejaVuSans-64" x="1151.318359"/>
     <use xlink:href="#DejaVuSans-65" x="1214.794922"/>
     <use xlink:href="#DejaVuSans-20" x="1276.318359"/>
     <use xlink:href="#DejaVuSans-34" x="1308.105469"/>
     <use xlink:href="#DejaVuSans-3a" x="1371.728516"/>
     <use xlink:href="#DejaVuSans-20" x="1405.419922"/>
     <use xlink:href="#DejaVuSans-33" x="1437.207031"/>
     <use xlink:href="#DejaVuSans-38" x="1500.830078"/>
     <use xlink:href="#DejaVuSans-2e" x="1564.453125"/>
     <use xlink:href="#DejaVuSans-39" x="1596.240234"/>
     <use xlink:href="#DejaVuSans-39" x="1659.863281"/>
     <use xlink:href="#DejaVuSans-20" x="1723.486328"/>
     <use xlink:href="#DejaVuSans-48" x="1755.273438"/>
     <use xlink:href="#DejaVuSans-7a" x="1830.46875"/>
    </g>
   </g>
  </g>
  <g id="axes_2">
   <g id="patch_7">
    <path d="M 452.74005 231.564898 
L 463.171352 231.564898 
L 463.171352 41.904863 
L 452.74005 41.904863 
z
" style="fill: #ffffff"/>
   </g>
   <g id="patch_8">
    <path clip-path="url(#pfb412a637f)" style="fill: #ffffff; stroke: #ffffff; stroke-width: 0.01; stroke-linejoin: miter"/>
   </g>
   <g id="patch_9">
    <path d="M 452.74005 231.564898 
L 457.955701 241.047899 
L 463.171352 231.564898 
" style="fill: #053061"/>
   </g>
   <g id="patch_10">
    <path d="M 452.74005 41.904863 
L 457.955701 32.421861 
L 463.171352 41.904863 
" style="fill: #67001f"/>
   </g>
   <g id="QuadMesh_1">
    <path d="M 452.74005 231.564898 
L 463.171352 231.564898 
L 463.171352 219.711145 
L 452.74005 219.711145 
L 452.74005 231.564898 
" clip-path="url(#pfb412a637f)" style="fill: #0e4179"/>
    <path d="M 452.74005 219.711145 
L 463.171352 219.711145 
L 463.171352 207.857393 
L 452.74005 207.857393 
L 452.74005 219.711145 
" clip-path="url(#pfb412a637f)" style="fill: #1f63a8"/>
    <path d="M 452.74005 207.857393 
L 463.171352 207.857393 
L 463.171352 196.003641 
L 452.74005 196.003641 
L 452.74005 207.857393 
" clip-path="url(#pfb412a637f)" style="fill: #3480b9"/>
    <path d="M 452.74005 196.003641 
L 463.171352 196.003641 
L 463.171352 184.149889 
L 452.74005 184.149889 
L 452.74005 196.003641 
" clip-path="url(#pfb412a637f)" style="fill: #529dc8"/>
    <path d="M 452.74005 184.149889 
L 463.171352 184.149889 
L 463.171352 172.296137 
L 452.74005 172.296137 
L 452.74005 184.149889 
" clip-path="url(#pfb412a637f)" style="fill: #84bcd9"/>
    <path d="M 452.74005 172.296137 
L 463.171352 172.296137 
L 463.171352 160.442384 
L 452.74005 160.442384 
L 452.74005 172.296137 
" clip-path="url(#pfb412a637f)" style="fill: #aed3e6"/>
    <path d="M 452.74005 160.442384 
L 463.171352 160.442384 
L 463.171352 148.588632 
L 452.74005 148.588632 
L 452.74005 160.442384 
" clip-path="url(#pfb412a637f)" style="fill: #d4e6f1"/>
    <path d="M 452.74005 148.588632 
L 463.171352 148.588632 
L 463.171352 136.73488 
L 452.74005 136.73488 
L 452.74005 148.588632 
" clip-path="url(#pfb412a637f)" style="fill: #ecf2f5"/>
    <path d="M 452.74005 136.73488 
L 463.171352 136.73488 
L 463.171352 124.881128 
L 452.74005 124.881128 
L 452.74005 136.73488 
" clip-path="url(#pfb412a637f)" style="fill: #f9eee7"/>
    <path d="M 452.74005 124.881128 
L 463.171352 124.881128 
L 463.171352 113.027376 
L 452.74005 113.027376 
L 452.74005 124.881128 
" clip-path="url(#pfb412a637f)" style="fill: #fddcc9"/>
    <path d="M 452.74005 113.027376 
L 463.171352 113.027376 
L 463.171352 101.173624 
L 452.74005 101.173624 
L 452.74005 113.027376 
" clip-path="url(#pfb412a637f)" style="fill: #f8bb9e"/>
    <path d="M 452.74005 101.173624 
L 463.171352 101.173624 
L 463.171352 89.319871 
L 452.74005 89.319871 
L 452.74005 101.173624 
" clip-path="url(#pfb412a637f)" style="fill: #ee9677"/>
    <path d="M 452.74005 89.319871 
L 463.171352 89.319871 
L 463.171352 77.466119 
L 452.74005 77.466119 
L 452.74005 89.319871 
" clip-path="url(#pfb412a637f)" style="fill: #db6b55"/>
    <path d="M 452.74005 77.466119 
L 463.171352 77.466119 
L 463.171352 65.612367 
L 452.74005 65.612367 
L 452.74005 77.466119 
" clip-path="url(#pfb412a637f)" style="fill: #c53e3d"/>
    <path d="M 452.74005 65.612367 
L 463.171352 65.612367 
L 463.171352 53.758615 
L 452.74005 53.758615 
L 452.74005 65.612367 
" clip-path="url(#pfb412a637f)" style="fill: #ab162a"/>
    <path d="M 452.74005 53.758615 
L 463.171352 53.758615 
L 463.171352 41.904863 
L 452.74005 41.904863 
L 452.74005 53.758615 
" clip-path="url(#pfb412a637f)" style="fill: #7c0722"/>
   </g>
   <g id="matplotlib.axis_3"/>
   <g id="matplotlib.axis_4">
    <g id="ytick_10">
     <g id="line2d_19">
      <defs>
       <path id="mbe18edd0a4" d="M 0 0 
L 3.5 0 
" style="stroke: #000000; stroke-width: 0.8"/>
      </defs>
      <g>
       <use xlink:href="#mbe18edd0a4" x="463.171352" y="231.564898" style="stroke: #000000; stroke-width: 0.8"/>
      </g>
     </g>
     <g id="text_22">
      <!-- −1.00 -->
      <g transform="translate(470.171352 235.364116) scale(0.1 -0.1)">
       <defs>
        <path id="DejaVuSans-2212" d="M 678 2272 
L 4684 2272 
L 4684 1741 
L 678 1741 
L 678 2272 
z
" transform="scale(0.015625)"/>
       </defs>
       <use xlink:href="#DejaVuSans-2212"/>
       <use xlink:href="#DejaVuSans-31" x="83.789062"/>
       <use xlink:href="#DejaVuSans-2e" x="147.412109"/>
       <use xlink:href="#DejaVuSans-30" x="179.199219"/>
       <use xlink:href="#DejaVuSans-30" x="242.822266"/>
      </g>
     </g>
    </g>
    <g id="ytick_11">
     <g id="line2d_20">
      <g>
       <use xlink:href="#mbe18edd0a4" x="463.171352" y="207.857393" style="stroke: #000000; stroke-width: 0.8"/>
      </g>
     </g>
     <g id="text_23">
      <!-- −0.75 -->
      <g transform="translate(470.171352 211.656612) scale(0.1 -0.1)">
       <use xlink:href="#DejaVuSans-2212"/>
       <use xlink:href="#DejaVuSans-30" x="83.789062"/>
       <use xlink:href="#DejaVuSans-2e" x="147.412109"/>
       <use xlink:href="#DejaVuSans-37" x="179.199219"/>
       <use xlink:href="#DejaVuSans-35" x="242.822266"/>
      </g>
     </g>
    </g>
    <g id="ytick_12">
     <g id="line2d_21">
      <g>
       <use xlink:href="#mbe18edd0a4" x="463.171352" y="184.149889" style="stroke: #000000; stroke-width: 0.8"/>
      </g>
     </g>
     <g id="text_24">
      <!-- −0.50 -->
      <g transform="translate(470.171352 187.949108) scale(0.1 -0.1)">
       <use xlink:href="#DejaVuSans-2212"/>
       <use xlink:href="#DejaVuSans-30" x="83.789062"/>
       <use xlink:href="#DejaVuSans-2e" x="147.412109"/>
       <use xlink:href="#DejaVuSans-35" x="179.199219"/>
       <use xlink:href="#DejaVuSans-30" x="242.822266"/>
      </g>
     </g>
    </g>
    <g id="ytick_13">
     <g id="line2d_22">
      <g>
       <use xlink:href="#mbe18edd0a4" x="463.171352" y="160.442384" style="stroke: #000000; stroke-width: 0.8"/>
      </g>
     </g>
     <g id="text_25">
      <!-- −0.25 -->
      <g transform="translate(470.171352 164.241603) scale(0.1 -0.1)">
       <use xlink:href="#DejaVuSans-2212"/>
       <use xlink:href="#DejaVuSans-30" x="83.789062"/>
       <use xlink:href="#DejaVuSans-2e" x="147.412109"/>
       <use xlink:href="#DejaVuSans-32" x="179.199219"/>
       <use xlink:href="#DejaVuSans-35" x="242.822266"/>
      </g>
     </g>
    </g>
    <g id="ytick_14">
     <g id="line2d_23">
      <g>
       <use xlink:href="#mbe18edd0a4" x="463.171352" y="136.73488" style="stroke: #000000; stroke-width: 0.8"/>
      </g>
     </g>
     <g id="text_26">
      <!-- 0.00 -->
      <g transform="translate(470.171352 140.534099) scale(0.1 -0.1)">
       <use xlink:href="#DejaVuSans-30"/>
       <use xlink:href="#DejaVuSans-2e" x="63.623047"/>
       <use xlink:href="#DejaVuSans-30" x="95.410156"/>
       <use xlink:href="#DejaVuSans-30" x="159.033203"/>
      </g>
     </g>
    </g>
    <g id="ytick_15">
     <g id="line2d_24">
      <g>
       <use xlink:href="#mbe18edd0a4" x="463.171352" y="113.027376" style="stroke: #000000; stroke-width: 0.8"/>
      </g>
     </g>
     <g id="text_27">
      <!-- 0.25 -->
      <g transform="translate(470.171352 116.826594) scale(0.1 -0.1)">
       <use xlink:href="#DejaVuSans-30"/>
       <use xlink:href="#DejaVuSans-2e" x="63.623047"/>
       <use xlink:href="#DejaVuSans-32" x="95.410156"/>
       <use xlink:href="#DejaVuSans-35" x="159.033203"/>
      </g>
     </g>
    </g>
    <g id="ytick_16">
     <g id="line2d_25">
      <g>
       <use xlink:href="#mbe18edd0a4" x="463.171352" y="89.319871" style="stroke: #000000; stroke-width: 0.8"/>
      </g>
     </g>
     <g id="text_28">
      <!-- 0.50 -->
      <g transform="translate(470.171352 93.11909) scale(0.1 -0.1)">
       <use xlink:href="#DejaVuSans-30"/>
       <use xlink:href="#DejaVuSans-2e" x="63.623047"/>
       <use xlink:href="#DejaVuSans-35" x="95.410156"/>
       <use xlink:href="#DejaVuSans-30" x="159.033203"/>
      </g>
     </g>
    </g>
    <g id="ytick_17">
     <g id="line2d_26">
      <g>
       <use xlink:href="#mbe18edd0a4" x="463.171352" y="65.612367" style="stroke: #000000; stroke-width: 0.8"/>
      </g>
     </g>
     <g id="text_29">
      <!-- 0.75 -->
      <g transform="translate(470.171352 69.411586) scale(0.1 -0.1)">
       <use xlink:href="#DejaVuSans-30"/>
       <use xlink:href="#DejaVuSans-2e" x="63.623047"/>
       <use xlink:href="#DejaVuSans-37" x="95.410156"/>
       <use xlink:href="#DejaVuSans-35" x="159.033203"/>
      </g>
     </g>
    </g>
    <g id="ytick_18">
     <g id="line2d_27">
      <g>
       <use xlink:href="#mbe18edd0a4" x="463.171352" y="41.904863" style="stroke: #000000; stroke-width: 0.8"/>
      </g>
     </g>
     <g id="text_30">
      <!-- 1.00 -->
      <g transform="translate(470.171352 45.704081) scale(0.1 -0.1)">
       <use xlink:href="#DejaVuSans-31"/>
       <use xlink:href="#DejaVuSans-2e" x="63.623047"/>
       <use xlink:href="#DejaVuSans-30" x="95.410156"/>
       <use xlink:href="#DejaVuSans-30" x="159.033203"/>
      </g>
     </g>
    </g>
    <g id="text_31">
     <!-- normalized z displacement -->
     <g transform="translate(512.415102 204.017693) rotate(-90) scale(0.1 -0.1)">
      <defs>
       <path id="DejaVuSans-6e" d="M 3513 2113 
L 3513 0 
L 2938 0 
L 2938 2094 
Q 2938 2591 2744 2837 
Q 2550 3084 2163 3084 
Q 1697 3084 1428 2787 
Q 1159 2491 1159 1978 
L 1159 0 
L 581 0 
L 581 3500 
L 1159 3500 
L 1159 2956 
Q 1366 3272 1645 3428 
Q 1925 3584 2291 3584 
Q 2894 3584 3203 3211 
Q 3513 2838 3513 2113 
z
" transform="scale(0.015625)"/>
       <path id="DejaVuSans-72" d="M 2631 2963 
Q 2534 3019 2420 3045 
Q 2306 3072 2169 3072 
Q 1681 3072 1420 2755 
Q 1159 2438 1159 1844 
L 1159 0 
L 581 0 
L 581 3500 
L 1159 3500 
L 1159 2956 
Q 1341 3275 1631 3429 
Q 1922 3584 2338 3584 
Q 2397 3584 2469 3576 
Q 2541 3569 2628 3553 
L 2631 2963 
z
" transform="scale(0.015625)"/>
       <path id="DejaVuSans-73" d="M 2834 3397 
L 2834 2853 
Q 2591 2978 2328 3040 
Q 2066 3103 1784 3103 
Q 1356 3103 1142 2972 
Q 928 2841 928 2578 
Q 928 2378 1081 2264 
Q 1234 2150 1697 2047 
L 1894 2003 
Q 2506 1872 2764 1633 
Q 3022 1394 3022 966 
Q 3022 478 2636 193 
Q 2250 -91 1575 -91 
Q 1294 -91 989 -36 
Q 684 19 347 128 
L 347 722 
Q 666 556 975 473 
Q 1284 391 1588 391 
Q 1994 391 2212 530 
Q 2431 669 2431 922 
Q 2431 1156 2273 1281 
Q 2116 1406 1581 1522 
L 1381 1569 
Q 847 1681 609 1914 
Q 372 2147 372 2553 
Q 372 3047 722 3315 
Q 1072 3584 1716 3584 
Q 2034 3584 2315 3537 
Q 2597 3491 2834 3397 
z
" transform="scale(0.015625)"/>
       <path id="DejaVuSans-70" d="M 1159 525 
L 1159 -1331 
L 581 -1331 
L 581 3500 
L 1159 3500 
L 1159 2969 
Q 1341 3281 1617 3432 
Q 1894 3584 2278 3584 
Q 2916 3584 3314 3078 
Q 3713 2572 3713 1747 
Q 3713 922 3314 415 
Q 2916 -91 2278 -91 
Q 1894 -91 1617 61 
Q 1341 213 1159 525 
z
M 3116 1747 
Q 3116 2381 2855 2742 
Q 2594 3103 2138 3103 
Q 1681 3103 1420 2742 
Q 1159 2381 1159 1747 
Q 1159 1113 1420 752 
Q 1681 391 2138 391 
Q 2594 391 2855 752 
Q 3116 1113 3116 1747 
z
" transform="scale(0.015625)"/>
       <path id="DejaVuSans-74" d="M 1172 4494 
L 1172 3500 
L 2356 3500 
L 2356 3053 
L 1172 3053 
L 1172 1153 
Q 1172 725 1289 603 
Q 1406 481 1766 481 
L 2356 481 
L 2356 0 
L 1766 0 
Q 1100 0 847 248 
Q 594 497 594 1153 
L 594 3053 
L 172 3053 
L 172 3500 
L 594 3500 
L 594 4494 
L 1172 4494 
z
" transform="scale(0.015625)"/>
      </defs>
      <use xlink:href="#DejaVuSans-6e"/>
      <use xlink:href="#DejaVuSans-6f" x="63.378906"/>
      <use xlink:href="#DejaVuSans-72" x="124.560547"/>
      <use xlink:href="#DejaVuSans-6d" x="163.923828"/>
      <use xlink:href="#DejaVuSans-61" x="261.335938"/>
      <use xlink:href="#DejaVuSans-6c" x="322.615234"/>
      <use xlink:href="#DejaVuSans-69" x="350.398438"/>
      <use xlink:href="#DejaVuSans-7a" x="378.181641"/>
      <use xlink:href="#DejaVuSans-65" x="430.671875"/>
      <use xlink:href="#DejaVuSans-64" x="492.195312"/>
      <use xlink:href="#DejaVuSans-20" x="555.671875"/>
      <use xlink:href="#DejaVuSans-7a" x="587.458984"/>
      <use xlink:href="#DejaVuSans-20" x="639.949219"/>
      <use xlink:href="#DejaVuSans-64" x="671.736328"/>
      <use xlink:href="#DejaVuSans-69" x="735.212891"/>
      <use xlink:href="#DejaVuSans-73" x="762.996094"/>
      <use xlink:href="#DejaVuSans-70" x="815.095703"/>
      <use xlink:href="#DejaVuSans-6c" x="878.572266"/>
      <use xlink:href="#DejaVuSans-61" x="906.355469"/>
      <use xlink:href="#DejaVuSans-63" x="967.634766"/>
      <use xlink:href="#DejaVuSans-65" x="1022.615234"/>
      <use xlink:href="#DejaVuSans-6d" x="1084.138672"/>
      <use xlink:href="#DejaVuSans-65" x="1181.550781"/>
      <use xlink:href="#DejaVuSans-6e" x="1243.074219"/>
      <use xlink:href="#DejaVuSans-74" x="1306.453125"/>
     </g>
    </g>
   </g>
   <g id="LineCollection_1"/>
   <g id="patch_11">
    <path d="M 452.74005 231.564898 
L 457.955701 241.047899 
L 463.171352 231.564898 
L 463.171352 41.904863 
L 457.955701 32.421861 
L 452.74005 41.904863 
L 452.74005 231.564898 
z
" style="fill: none; stroke: #000000; stroke-width: 0.8; stroke-linejoin: miter; stroke-linecap: square"/>
   </g>
  </g>
 </g>
 <defs>
  <clipPath id="p78955e1e8c">
   <rect x="42.765865" y="41.3943" width="381.362319" height="190.681159"/>
  </clipPath>
  <clipPath id="pfb412a637f">
   <rect x="452.74005" y="41.904863" width="10.431302" height="189.660035"/>
  </clipPath>
 </defs>
 <defs>
  <pattern id="h021481296a" patternUnits="userSpaceOnUse" x="0" y="0" width="72" height="72">
   <rect x="0" y="0" width="73" height="73" fill="#333333"/>
   <path d="M -36 36 
L 36 -36 
M -33 39 
L 39 -33 
M -30 42 
L 42 -30 
M -27 45 
L 45 -27 
M -24 48 
L 48 -24 
M -21 51 
L 51 -21 
M -18 54 
L 54 -18 
M -15 57 
L 57 -15 
M -12 60 
L 60 -12 
M -9 63 
L 63 -9 
M -6 66 
L 66 -6 
M -3 69 
L 69 -3 
M 0 72 
L 72 0 
M 3 75 
L 75 3 
M 6 78 
L 78 6 
M 9 81 
L 81 9 
M 12 84 
L 84 12 
M 15 87 
L 87 15 
M 18 90 
L 90 18 
M 21 93 
L 93 21 
M 24 96 
L 96 24 
M 27 99 
L 99 27 
M 30 102 
L 102 30 
M 33 105 
L 105 33 
M 36 108 
L 108 36 
" style="fill: #333333; stroke: #333333; stroke-width: 1.0; stroke-linecap: butt; stroke-linejoin: miter; stroke-opacity: 0.3"/>
  </pattern>
 </defs>
</svg>
