<?xml version="1.0" encoding="utf-8" standalone="no"?>
<!DOCTYPE svg PUBLIC "-//W3C//DTD SVG 1.1//EN"
  "http://www.w3.org/Graphics/SVG/1.1/DTD/svg11.dtd">
<svg xmlns:xlink="http://www.w3.org/1999/xlink" width="518.4pt" height="273.6pt" viewBox="0 0 518.4 273.6" xmlns="http://www.w3.org/2000/svg" version="1.1">
 <metadata>
  <rdf:RDF xmlns:dc="http://purl.org/dc/elements/1.1/" xmlns:cc="http://creativecommons.org/ns#" xmlns:rdf="http://www.w3.org/1999/02/22-rdf-syntax-ns#">
   <cc:Work>
    <dc:type rdf:resource="http://purl.org/dc/dcmitype/StillImage"/>
    <dc:format>image/svg+xml</dc:format>
    <dc:creator>
     <cc:Agent>
      <dc:title>Matplotlib v3.6.3, https://matplotlib.org/</dc:title>
     </cc:Agent>
    </dc:creator>
   </cc:Work>
  </rdf:RDF>
 </metadata>
 <defs>
  <style type="text/css">*{stroke-linejoin: round; stroke-linecap: butt}</style>
 </defs>
 <g id="figure_1">
  <g id="patch_1">
   <path d="M 0 273.6 
L 518.4 273.6 
L 518.4 0 
L 0 0 
z
" style="fill: #ffffff"/>
  </g>
  <g id="axes_1">
   <g id="patch_2">
    <path d="M 42.765865 232.07546 
L 424.128184 232.07546 
L 424.128184 41.3943 
L 42.765865 41.3943 
z
" style="fill: #ffffff"/>
   </g>
   <g id="PathCollection_1">
    <path clip-path="url(#pac7c3a982a)" style="fill: #053061"/>
   </g>
   <g id="PathCollection_2">
    <path clip-path="url(#pac7c3a982a)" style="fill: #0e4179"/>
   </g>
   <g id="PathCollection_3">
    <path d="M 424.128184 50.419779 
L 423.357684 48.698944 
L 423.227779 48.364763 
L 422.278651 46.161329 
L 421.494708 44.30451 
L 421.061023 43.164383 
L 420.327731 41.3943 
L 424.128184 41.3943 
L 424.128184 43.777815 
L 424.128184 46.161329 
L 424.128184 48.544844 
" clip-path="url(#pac7c3a982a)" style="fill: #1f63a8"/>
   </g>
   <g id="PathCollection_4">
    <path d="M 420.327731 41.3943 
L 421.061023 43.164383 
L 421.494708 44.30451 
L 422.278651 46.161329 
L 423.227779 48.364763 
L 423.357684 48.698944 
L 424.128184 50.419779 
L 424.128184 50.928358 
L 424.128184 53.311873 
L 424.128184 55.695387 
L 424.128184 58.078902 
L 424.128184 60.462416 
L 424.128184 65.229445 
L 424.128184 69.996474 
L 424.128184 75.387178 
L 420.089627 69.996474 
L 418.436753 67.506018 
L 415.535189 61.792247 
L 414.780138 60.462416 
L 414.530756 59.998387 
L 412.675464 55.788358 
L 412.62863 55.695387 
L 412.591545 55.619201 
L 412.210612 54.687694 
L 410.807025 51.209076 
L 410.71964 50.928358 
L 410.622102 50.610656 
L 409.164498 46.770552 
L 408.983433 46.161329 
L 408.780317 45.47527 
L 407.621319 42.312159 
L 407.354617 41.3943 
L 412.210612 41.3943 
" clip-path="url(#pac7c3a982a)" style="fill: #3480b9"/>
   </g>
   <g id="PathCollection_5">
    <path d="M 407.354617 41.3943 
L 407.621319 42.312159 
L 408.780317 45.47527 
L 408.983433 46.161329 
L 409.164498 46.770552 
L 410.622102 50.610656 
L 410.71964 50.928358 
L 410.807025 51.209076 
L 412.210612 54.687694 
L 412.591545 55.619201 
L 412.62863 55.695387 
L 412.675464 55.788358 
L 414.530756 59.998387 
L 414.780138 60.462416 
L 415.535189 61.792247 
L 418.436753 67.506018 
L 420.089627 69.996474 
L 424.128184 75.387178 
L 424.128184 79.530532 
L 424.128184 89.06459 
L 424.128184 93.357842 
L 418.458083 89.06459 
L 415.484431 86.445535 
L 412.210612 81.838765 
L 406.476796 74.583526 
L 404.305695 69.996474 
L 402.685088 66.186265 
L 401.865875 64.600311 
L 400.356583 60.462416 
L 400.293039 60.282042 
L 399.578862 58.221737 
L 399.512581 57.92281 
L 398.789694 55.695387 
L 398.166454 53.73719 
L 397.984586 52.850182 
L 397.404623 50.928358 
L 396.897353 49.223981 
L 396.624569 47.81115 
L 396.153185 46.161329 
L 395.734295 44.689564 
L 395.383897 42.795986 
L 394.995849 41.3943 
L 400.293039 41.3943 
" clip-path="url(#pac7c3a982a)" style="fill: #529dc8"/>
   </g>
   <g id="PathCollection_6">
    <path d="M 42.765865 56.648279 
L 43.10292 58.011491 
L 43.137529 58.153235 
L 43.701668 60.462416 
L 44.655446 64.473613 
L 45.041559 66.139723 
L 45.926723 69.996474 
L 47.212769 75.973009 
L 48.860982 84.406625 
L 49.742234 89.06459 
L 50.406106 93.341922 
L 52.617716 110.834013 
L 52.847228 112.899735 
L 52.924249 113.955248 
L 53.640962 126.575337 
L 53.667882 127.200822 
L 53.674875 127.604247 
L 53.754824 136.363435 
L 53.753583 136.73488 
L 53.744552 137.110434 
L 53.485829 145.789895 
L 53.46441 146.268938 
L 53.410751 147.03255 
L 52.464994 159.238959 
L 52.331285 160.570025 
L 51.955314 163.298148 
L 49.595255 179.316987 
L 48.665752 184.40517 
L 46.986882 192.101725 
L 45.453615 199.010492 
L 43.150573 208.240315 
L 42.765865 209.673796 
L 42.765865 208.240315 
L 42.765865 196.322742 
L 42.765865 184.40517 
L 42.765865 172.487597 
L 42.765865 160.570025 
L 42.765865 153.419482 
L 42.765865 146.268938 
L 42.765865 141.501909 
L 42.765865 136.73488 
L 42.765865 131.967851 
L 42.765865 127.200822 
L 42.765865 120.050279 
L 42.765865 112.899735 
L 42.765865 100.982163 
L 42.765865 89.06459 
L 42.765865 79.530532 
L 42.765865 69.996474 
L 42.765865 65.229445 
L 42.765865 60.462416 
L 42.765865 58.078902 
M 394.995849 41.3943 
L 395.383897 42.795986 
L 395.734295 44.689564 
L 396.153185 46.161329 
L 396.624569 47.81115 
L 396.897353 49.223981 
L 397.404623 50.928358 
L 397.984586 52.850182 
L 398.166454 53.73719 
L 398.789694 55.695387 
L 399.512581 57.92281 
L 399.578862 58.221737 
L 400.293039 60.282042 
L 400.356583 60.462416 
L 401.865875 64.600311 
L 402.685088 66.186265 
L 404.305695 69.996474 
L 406.476796 74.583526 
L 412.210612 81.838765 
L 415.484431 86.445535 
L 418.458083 89.06459 
L 424.128184 93.357842 
L 424.128184 100.982163 
L 424.128184 107.896182 
L 418.893717 106.21663 
L 412.210612 101.377045 
L 404.243539 97.031662 
L 400.293039 92.428925 
L 397.375325 89.06459 
L 394.035883 84.536257 
L 388.637101 70.205782 
L 388.538936 69.996474 
L 388.515353 69.94052 
L 388.375467 69.39833 
L 386.263147 61.307344 
L 386.170531 60.462416 
L 386.121455 60.011614 
L 385.299469 56.310587 
L 385.237092 55.695387 
L 385.173059 55.054906 
L 384.486525 51.706147 
L 384.41409 50.928358 
L 384.341431 50.121551 
L 383.7567 47.085083 
L 383.679332 46.161329 
L 383.60301 45.206838 
L 383.096282 42.450137 
L 383.018316 41.3943 
L 388.375467 41.3943 
M 244.680425 232.07546 
L 247.33014 227.406317 
L 252.956597 220.157887 
L 255.070809 216.472286 
L 257.282169 213.554536 
L 263.277394 208.240315 
L 266.321147 205.361719 
L 269.199742 202.523902 
L 278.401433 199.038623 
L 281.117314 198.110762 
L 284.056165 199.261593 
L 296.193509 205.081692 
L 297.945601 208.240315 
L 304.952459 219.475258 
L 305.120068 219.878539 
L 305.169665 220.157887 
L 305.523234 221.109179 
L 309.71325 232.07546 
L 304.952459 232.07546 
L 293.034887 232.07546 
L 281.117314 232.07546 
L 269.199742 232.07546 
L 257.282169 232.07546 
L 250.131626 232.07546 
" clip-path="url(#pac7c3a982a)" style="fill: #84bcd9"/>
   </g>
   <g id="PathCollection_7">
    <path d="M 42.765865 209.673796 
L 43.150573 208.240315 
L 45.453615 199.010492 
L 46.986882 192.101725 
L 48.665752 184.40517 
L 49.595255 179.316987 
L 51.955314 163.298148 
L 52.331285 160.570025 
L 52.464994 159.238959 
L 53.410751 147.03255 
L 53.46441 146.268938 
L 53.485829 145.789895 
L 53.744552 137.110434 
L 53.753583 136.73488 
L 53.754824 136.363435 
L 53.674875 127.604247 
L 53.667882 127.200822 
L 53.640962 126.575337 
L 52.924249 113.955248 
L 52.847228 112.899735 
L 52.617716 110.834013 
L 50.406106 93.341922 
L 49.742234 89.06459 
L 48.860982 84.406625 
L 47.212769 75.973009 
L 45.926723 69.996474 
L 45.041559 66.139723 
L 44.655446 64.473613 
L 43.701668 60.462416 
L 43.137529 58.153235 
L 43.10292 58.011491 
L 42.765865 56.648279 
L 42.765865 55.695387 
L 42.765865 53.311873 
L 42.765865 50.928358 
L 42.765865 48.544844 
L 42.765865 46.161329 
L 42.765865 43.777815 
L 42.765865 41.3943 
L 50.986443 41.3943 
L 51.165879 42.097812 
L 52.082904 45.641223 
L 52.215751 46.161329 
L 52.335208 46.630975 
L 53.367007 50.665072 
L 53.433745 50.928358 
L 53.493621 51.166322 
L 54.627023 55.684104 
L 54.629839 55.695387 
L 54.632365 55.705602 
L 54.683437 55.91477 
L 55.764617 60.24618 
L 55.818585 60.462416 
L 55.939564 60.964867 
L 57.791332 68.753316 
L 58.076881 69.996474 
L 58.771362 73.266814 
L 60.968995 84.036144 
L 61.896294 89.06459 
L 63.171457 97.55261 
L 63.988008 103.595164 
L 64.991188 112.899735 
L 65.458738 119.364916 
L 65.537159 120.688589 
L 65.82794 127.200822 
L 65.923096 131.696685 
L 65.928194 132.236977 
L 65.93826 136.73488 
L 65.863601 141.206945 
L 65.845193 141.804236 
L 65.685614 146.268938 
L 65.308114 152.643744 
L 65.176299 154.274308 
L 64.625338 160.570025 
L 63.536696 169.423283 
L 62.391327 176.69728 
L 61.102627 184.40517 
L 60.01187 189.733603 
L 55.983033 206.94072 
L 55.670559 208.240315 
L 55.461866 209.018744 
L 54.683437 211.801006 
L 50.370059 227.762081 
L 49.177335 232.07546 
L 42.765865 232.07546 
L 42.765865 220.157887 
M 383.018316 41.3943 
L 383.096282 42.450137 
L 383.60301 45.206838 
L 383.679332 46.161329 
L 383.7567 47.085083 
L 384.341431 50.121551 
L 384.41409 50.928358 
L 384.486525 51.706147 
L 385.173059 55.054906 
L 385.237092 55.695387 
L 385.299469 56.310587 
L 386.121455 60.011614 
L 386.170531 60.462416 
L 386.263147 61.307344 
L 388.375467 69.39833 
L 388.515353 69.94052 
L 388.538936 69.996474 
L 388.637101 70.205782 
L 394.035883 84.536257 
L 397.375325 89.06459 
L 400.293039 92.428925 
L 404.243539 97.031662 
L 412.210612 101.377045 
L 418.893717 106.21663 
L 424.128184 107.896182 
L 424.128184 112.899735 
L 424.128184 120.050279 
L 424.128184 120.633749 
L 423.264992 120.568194 
L 412.210612 117.92541 
L 405.707491 116.801608 
L 400.293039 114.595232 
L 395.888593 112.899735 
L 390.642644 110.632558 
L 388.375467 107.911192 
L 378.749989 98.690068 
L 376.457894 91.830004 
L 375.477524 89.06459 
L 373.5477 81.858687 
L 373.598109 77.242704 
L 372.472638 69.996474 
L 372.058779 66.989091 
L 372.094759 63.484191 
L 371.747231 60.462416 
L 371.586272 59.053226 
L 371.596067 57.106536 
L 371.445841 55.695387 
L 371.303851 54.342681 
L 371.316773 52.283649 
L 371.184207 50.928358 
L 371.060854 49.624252 
L 371.087116 47.470688 
L 370.971832 46.161329 
L 370.865496 44.896294 
L 370.921254 42.670487 
L 370.822145 41.3943 
L 376.457894 41.3943 
M 309.71325 232.07546 
L 305.523234 221.109179 
L 305.169665 220.157887 
L 305.120068 219.878539 
L 304.952459 219.475258 
L 297.945601 208.240315 
L 296.193509 205.081692 
L 284.056165 199.261593 
L 281.117314 198.110762 
L 278.401433 199.038623 
L 269.199742 202.523902 
L 266.321147 205.361719 
L 263.277394 208.240315 
L 257.282169 213.554536 
L 255.070809 216.472286 
L 252.956597 220.157887 
L 247.33014 227.406317 
L 244.680425 232.07546 
L 242.981082 232.07546 
L 238.214053 232.07546 
L 233.447024 232.07546 
L 228.679996 232.07546 
L 228.139633 232.07546 
L 228.369697 231.299714 
L 232.549679 220.157887 
L 232.955803 218.929834 
L 233.447024 217.70178 
L 237.461786 208.240315 
L 237.842316 207.310971 
L 242.064037 198.615356 
L 242.981082 196.721049 
L 243.094889 196.51242 
L 243.228381 196.322742 
L 250.117946 184.427969 
L 250.131172 184.40517 
L 250.131394 184.404783 
L 250.134119 184.401015 
L 257.282169 174.593939 
L 258.34076 173.546188 
L 260.070574 172.487597 
L 270.819076 162.189359 
L 273.646759 160.570025 
L 281.117314 156.43102 
L 285.176306 155.854876 
L 293.034887 154.350641 
L 301.303519 155.608845 
L 304.952459 156.817089 
L 310.196815 160.570025 
L 311.489418 161.592666 
L 317.152819 172.487597 
L 318.194027 174.253464 
L 319.253546 179.228063 
L 320.199438 184.40517 
L 321.240216 191.356068 
L 321.391351 196.322742 
L 321.814482 202.725083 
L 322.388473 208.240315 
L 322.793383 211.308295 
L 323.146316 220.157887 
L 324.478157 230.931507 
L 324.52286 232.07546 
L 324.020575 232.07546 
L 319.253546 232.07546 
L 312.103003 232.07546 
" clip-path="url(#pac7c3a982a)" style="fill: #aed3e6"/>
   </g>
   <g id="PathCollection_8">
    <path d="M 63.180479 41.3943 
L 63.673041 43.192221 
L 63.965665 44.304884 
L 64.471005 46.161329 
L 65.026597 48.229961 
L 65.18256 48.828534 
L 65.740724 50.928358 
L 66.351629 53.261997 
L 66.375927 53.356889 
L 66.60101 54.228793 
L 66.996824 55.695387 
L 67.577707 57.883562 
L 67.687007 58.296101 
L 68.252168 60.462416 
L 69.191203 64.193368 
L 69.75639 66.491597 
L 70.599517 69.996474 
L 71.795656 75.374816 
L 73.786047 85.278562 
L 74.516281 89.06459 
L 75.059757 92.523416 
L 76.735478 100.982163 
L 77.545496 111.926648 
L 77.655109 112.899735 
L 77.692556 113.395351 
L 78.518582 127.145131 
L 78.522123 127.198698 
L 78.522231 127.200822 
L 78.522272 127.202298 
L 78.673858 136.67277 
L 78.674438 136.73488 
L 78.673874 136.796997 
L 78.518582 143.15605 
L 78.449489 146.241301 
L 78.448457 146.268938 
L 78.445753 146.312636 
L 77.512766 159.966535 
L 77.457519 160.570025 
L 77.300885 161.787723 
L 76.413497 172.487597 
L 74.701977 180.588565 
L 74.032908 184.40517 
L 72.806985 190.116768 
L 71.748466 196.322742 
L 70.561913 200.283646 
L 68.552167 208.240315 
L 66.60101 215.168199 
L 65.546115 219.102992 
L 64.726525 222.032373 
L 61.827004 232.07546 
L 54.683437 232.07546 
L 49.177335 232.07546 
L 50.370059 227.762081 
L 54.683437 211.801006 
L 55.461866 209.018744 
L 55.670559 208.240315 
L 55.983033 206.94072 
L 60.01187 189.733603 
L 61.102627 184.40517 
L 62.391327 176.69728 
L 63.536696 169.423283 
L 64.625338 160.570025 
L 65.176299 154.274308 
L 65.308114 152.643744 
L 65.685614 146.268938 
L 65.845193 141.804236 
L 65.863601 141.206945 
L 65.93826 136.73488 
L 65.928194 132.236977 
L 65.923096 131.696685 
L 65.82794 127.200822 
L 65.537159 120.688589 
L 65.458738 119.364916 
L 64.991188 112.899735 
L 63.988008 103.595164 
L 63.171457 97.55261 
L 61.896294 89.06459 
L 60.968995 84.036144 
L 58.771362 73.266814 
L 58.076881 69.996474 
L 57.791332 68.753316 
L 55.939564 60.964867 
L 55.818585 60.462416 
L 55.764617 60.24618 
L 54.683437 55.91477 
L 54.632365 55.705602 
L 54.629839 55.695387 
L 54.627023 55.684104 
L 53.493621 51.166322 
L 53.433745 50.928358 
L 53.367007 50.665072 
L 52.335208 46.630975 
L 52.215751 46.161329 
L 52.082904 45.641223 
L 51.165879 42.097812 
L 50.986443 41.3943 
L 54.683437 41.3943 
M 370.822145 41.3943 
L 370.921254 42.670487 
L 370.865496 44.896294 
L 370.971832 46.161329 
L 371.087116 47.470688 
L 371.060854 49.624252 
L 371.184207 50.928358 
L 371.316773 52.283649 
L 371.303851 54.342681 
L 371.445841 55.695387 
L 371.596067 57.106536 
L 371.586272 59.053226 
L 371.747231 60.462416 
L 372.094759 63.484191 
L 372.058779 66.989091 
L 372.472638 69.996474 
L 373.598109 77.242704 
L 373.5477 81.858687 
L 375.477524 89.06459 
L 376.457894 91.830004 
L 378.749989 98.690068 
L 388.375467 107.911192 
L 390.642644 110.632558 
L 395.888593 112.899735 
L 400.293039 114.595232 
L 405.707491 116.801608 
L 412.210612 117.92541 
L 423.264992 120.568194 
L 424.128184 120.633749 
L 424.128184 127.200822 
L 424.128184 131.967851 
L 424.128184 132.042132 
L 423.910891 132.054768 
L 412.210612 131.887302 
L 400.693709 132.128119 
L 400.293039 132.172676 
L 399.528363 132.273722 
L 388.375467 132.749278 
L 380.196819 133.463421 
L 376.457894 134.502844 
L 369.130322 136.73488 
L 366.45665 137.501411 
L 364.540322 138.777941 
L 357.766012 143.559214 
L 356.298977 146.268938 
L 352.622749 151.92731 
L 352.021141 152.817873 
L 351.50052 154.541711 
L 348.66095 160.570025 
L 347.139149 163.348264 
L 344.527168 172.487597 
L 342.454248 179.375241 
L 341.728042 184.40517 
L 340.24606 193.115413 
L 339.436049 196.322742 
L 339.140038 197.686701 
L 338.321662 204.319179 
L 337.805521 208.240315 
L 336.853293 216.486964 
L 336.625113 220.157887 
L 336.616828 224.419974 
L 336.155442 232.07546 
L 333.554633 232.07546 
L 328.787604 232.07546 
L 324.52286 232.07546 
L 324.478157 230.931507 
L 323.146316 220.157887 
L 322.793383 211.308295 
L 322.388473 208.240315 
L 321.814482 202.725083 
L 321.391351 196.322742 
L 321.240216 191.356068 
L 320.199438 184.40517 
L 319.253546 179.228063 
L 318.194027 174.253464 
L 317.152819 172.487597 
L 311.489418 161.592666 
L 310.196815 160.570025 
L 304.952459 156.817089 
L 301.303519 155.608845 
L 293.034887 154.350641 
L 285.176306 155.854876 
L 281.117314 156.43102 
L 273.646759 160.570025 
L 270.819076 162.189359 
L 260.070574 172.487597 
L 258.34076 173.546188 
L 257.282169 174.593939 
L 250.134119 184.401015 
L 250.131394 184.404783 
L 250.131172 184.40517 
L 250.117946 184.427969 
L 243.228381 196.322742 
L 243.094889 196.51242 
L 242.981082 196.721049 
L 242.064037 198.615356 
L 237.842316 207.310971 
L 237.461786 208.240315 
L 233.447024 217.70178 
L 232.955803 218.929834 
L 232.549679 220.157887 
L 228.369697 231.299714 
L 228.139633 232.07546 
L 223.912967 232.07546 
L 216.762423 232.07546 
L 214.167306 232.07546 
L 214.75956 228.737354 
L 216.989373 220.157887 
L 218.969736 211.919169 
L 220.131453 208.240315 
L 223.745705 196.601512 
L 223.8273 196.322742 
L 223.854943 196.226037 
L 223.912967 196.061239 
L 228.138009 184.40517 
L 228.394504 183.691441 
L 233.128569 172.487597 
L 233.28694 172.087385 
L 233.447024 171.741938 
L 235.135047 168.267541 
L 238.503244 161.293001 
L 238.914139 160.570025 
L 242.332172 154.392848 
L 242.869369 153.419482 
L 242.916818 153.323085 
L 242.981082 153.213605 
L 247.445015 146.268938 
L 248.22931 145.000728 
L 250.131626 142.221424 
L 252.984812 138.637004 
L 254.653886 136.73488 
L 257.282169 133.660357 
L 258.567358 132.481926 
L 261.161038 130.416304 
L 264.945918 127.200822 
L 266.655852 125.674488 
L 269.199742 123.839721 
L 279.487927 119.072646 
L 281.117314 118.447054 
L 285.444718 117.453836 
L 293.034887 115.604775 
L 296.833672 115.179006 
L 304.952459 114.115928 
L 311.486848 113.51589 
L 312.103003 113.500095 
L 312.673672 113.470405 
L 317.322806 112.899735 
L 319.253546 112.67846 
L 323.683559 112.057195 
L 324.46946 111.777523 
L 328.787604 110.896313 
L 332.367143 109.93101 
L 335.656381 107.645367 
L 338.321662 106.482669 
L 340.793378 105.101689 
L 342.855048 100.982163 
L 348.454235 94.034638 
L 349.834481 89.06459 
L 352.622749 80.921759 
L 352.946298 79.789371 
L 352.952847 79.266454 
L 354.771908 69.996474 
L 355.380495 66.332543 
L 355.40604 64.116129 
L 355.864827 60.462416 
L 356.038054 58.761963 
L 356.045849 57.394282 
L 356.203572 55.695387 
L 356.340816 54.055486 
L 356.351529 52.566117 
L 356.483777 50.928358 
L 356.615871 49.343468 
L 356.638566 47.741681 
L 356.779579 46.161329 
L 356.936923 44.64065 
L 356.988064 42.904752 
L 357.165467 41.3943 
L 364.540322 41.3943 
" clip-path="url(#pac7c3a982a)" style="fill: #d4e6f1"/>
   </g>
   <g id="PathCollection_9">
    <path d="M 75.799899 41.3943 
L 75.946746 41.908668 
L 77.134604 45.884534 
L 77.213243 46.161329 
L 77.28254 46.408538 
L 78.518582 50.695038 
L 78.587866 50.914502 
L 78.592318 50.928358 
L 78.597231 50.944088 
L 79.951747 55.408754 
L 80.038951 55.695387 
L 80.134635 56.018598 
L 81.264371 59.913259 
L 81.422372 60.462416 
L 81.779442 61.76676 
L 83.46661 68.017263 
L 83.973712 69.996474 
L 85.220123 75.357706 
L 86.805765 82.434844 
L 88.111134 89.06459 
L 89.924672 100.47068 
L 90.025999 100.982163 
L 90.054264 101.364054 
L 90.436155 104.721913 
L 91.491776 112.899735 
L 92.042009 119.086766 
L 92.183576 121.098731 
L 92.535027 127.200822 
L 92.65777 131.079205 
L 92.70123 132.873881 
L 92.742124 136.73488 
L 92.702355 140.595429 
L 92.678156 142.39871 
L 92.555615 146.268938 
L 92.202754 152.359522 
L 92.077827 154.404485 
L 91.517703 160.570025 
L 90.436155 168.744277 
L 90.046744 172.098187 
L 90.014449 172.487597 
L 89.901488 173.022264 
L 88.021314 184.40517 
L 86.378265 192.264853 
L 85.686134 196.322742 
L 83.654612 203.104286 
L 82.326012 208.240315 
L 81.441117 211.162849 
L 78.518582 219.946468 
L 75.777712 229.33459 
L 74.949045 232.07546 
L 66.60101 232.07546 
L 61.827004 232.07546 
L 64.726525 222.032373 
L 65.546115 219.102992 
L 66.60101 215.168199 
L 68.552167 208.240315 
L 70.561913 200.283646 
L 71.748466 196.322742 
L 72.806985 190.116768 
L 74.032908 184.40517 
L 74.701977 180.588565 
L 76.413497 172.487597 
L 77.300885 161.787723 
L 77.457519 160.570025 
L 77.512766 159.966535 
L 78.445753 146.312636 
L 78.448457 146.268938 
L 78.449489 146.241301 
L 78.518582 143.15605 
L 78.673874 136.796997 
L 78.674438 136.73488 
L 78.673858 136.67277 
L 78.522272 127.202298 
L 78.522231 127.200822 
L 78.522123 127.198698 
L 78.518582 127.145131 
L 77.692556 113.395351 
L 77.655109 112.899735 
L 77.545496 111.926648 
L 76.735478 100.982163 
L 75.059757 92.523416 
L 74.516281 89.06459 
L 73.786047 85.278562 
L 71.795656 75.374816 
L 70.599517 69.996474 
L 69.75639 66.491597 
L 69.191203 64.193368 
L 68.252168 60.462416 
L 67.687007 58.296101 
L 67.577707 57.883562 
L 66.996824 55.695387 
L 66.60101 54.228793 
L 66.375927 53.356889 
L 66.351629 53.261997 
L 65.740724 50.928358 
L 65.18256 48.828534 
L 65.026597 48.229961 
L 64.471005 46.161329 
L 63.965665 44.304884 
L 63.673041 43.192221 
L 63.180479 41.3943 
L 66.60101 41.3943 
M 357.165467 41.3943 
L 356.988064 42.904752 
L 356.936923 44.64065 
L 356.779579 46.161329 
L 356.638566 47.741681 
L 356.615871 49.343468 
L 356.483777 50.928358 
L 356.351529 52.566117 
L 356.340816 54.055486 
L 356.203572 55.695387 
L 356.045849 57.394282 
L 356.038054 58.761963 
L 355.864827 60.462416 
L 355.40604 64.116129 
L 355.380495 66.332543 
L 354.771908 69.996474 
L 352.952847 79.266454 
L 352.946298 79.789371 
L 352.622749 80.921759 
L 349.834481 89.06459 
L 348.454235 94.034638 
L 342.855048 100.982163 
L 340.793378 105.101689 
L 338.321662 106.482669 
L 335.656381 107.645367 
L 332.367143 109.93101 
L 328.787604 110.896313 
L 324.46946 111.777523 
L 323.683559 112.057195 
L 319.253546 112.67846 
L 317.322806 112.899735 
L 312.673672 113.470405 
L 312.103003 113.500095 
L 311.486848 113.51589 
L 304.952459 114.115928 
L 296.833672 115.179006 
L 293.034887 115.604775 
L 285.444718 117.453836 
L 281.117314 118.447054 
L 279.487927 119.072646 
L 269.199742 123.839721 
L 266.655852 125.674488 
L 264.945918 127.200822 
L 261.161038 130.416304 
L 258.567358 132.481926 
L 257.282169 133.660357 
L 254.653886 136.73488 
L 252.984812 138.637004 
L 250.131626 142.221424 
L 248.22931 145.000728 
L 247.445015 146.268938 
L 242.981082 153.213605 
L 242.916818 153.323085 
L 242.869369 153.419482 
L 242.332172 154.392848 
L 238.914139 160.570025 
L 238.503244 161.293001 
L 235.135047 168.267541 
L 233.447024 171.741938 
L 233.28694 172.087385 
L 233.128569 172.487597 
L 228.394504 183.691441 
L 228.138009 184.40517 
L 223.912967 196.061239 
L 223.854943 196.226037 
L 223.8273 196.322742 
L 223.745705 196.601512 
L 220.131453 208.240315 
L 218.969736 211.919169 
L 216.989373 220.157887 
L 214.75956 228.737354 
L 214.167306 232.07546 
L 209.61188 232.07546 
L 200.601032 232.07546 
L 201.23322 228.536547 
L 201.762503 220.157887 
L 202.874422 213.42043 
L 204.009841 208.240315 
L 205.880072 200.05455 
L 206.355865 196.322742 
L 206.983341 193.694204 
L 209.520882 184.40517 
L 209.61188 184.075689 
L 211.76391 176.074314 
L 212.959722 172.487597 
L 216.725226 160.632019 
L 216.743748 160.570025 
L 216.747871 160.555473 
L 216.762423 160.510467 
L 220.319541 149.826056 
L 221.665592 146.268938 
L 223.182383 141.988965 
L 223.432601 141.181665 
L 223.912967 139.822226 
L 225.038835 136.73488 
L 225.954435 134.00932 
L 226.800513 131.967851 
L 228.277658 127.60316 
L 228.409618 127.200822 
L 228.489298 126.914775 
L 230.995723 120.050279 
L 231.677935 117.396645 
L 233.271133 112.899735 
L 233.447024 112.174456 
L 235.223953 105.424484 
L 237.165546 100.982163 
L 238.996854 91.021592 
L 239.916893 89.06459 
L 241.250125 82.992448 
L 241.697044 79.530532 
L 240.420869 74.410104 
L 241.665222 69.996474 
L 242.130246 66.080282 
L 241.856818 65.229445 
L 238.214053 60.462416 
L 242.981082 60.462416 
L 250.131626 60.462416 
L 257.282169 60.462416 
L 269.199742 60.462416 
L 281.117314 60.462416 
L 293.034887 60.462416 
L 304.952459 60.462416 
L 312.103003 60.462416 
L 319.253546 60.462416 
L 324.020575 60.462416 
L 328.787604 60.462416 
L 328.787604 58.078902 
L 328.787604 55.695387 
L 328.787604 53.311873 
L 328.787604 50.928358 
L 328.787604 48.544844 
L 328.787604 46.161329 
L 328.787604 43.777815 
L 328.787604 41.3943 
L 333.554633 41.3943 
L 338.321662 41.3943 
L 345.472206 41.3943 
L 352.622749 41.3943 
M 424.128184 142.712185 
L 418.611957 143.7084 
L 412.210612 144.5861 
L 409.228131 145.075946 
L 404.977417 146.268938 
L 400.293039 147.54687 
L 393.698991 149.463053 
L 388.375467 152.161302 
L 381.01226 156.152101 
L 376.457894 160.20208 
L 376.043779 160.570025 
L 369.8153 165.845003 
L 365.505087 172.487597 
L 360.430978 180.295827 
L 358.999004 184.40517 
L 355.794236 193.151255 
L 354.277297 196.322742 
L 353.772242 197.472236 
L 352.622749 201.783965 
L 350.812384 208.240315 
L 349.164023 214.393344 
L 348.113483 220.157887 
L 346.925263 229.653697 
L 346.460525 232.07546 
L 345.472206 232.07546 
L 338.321662 232.07546 
L 336.155442 232.07546 
L 336.616828 224.419974 
L 336.625113 220.157887 
L 336.853293 216.486964 
L 337.805521 208.240315 
L 338.321662 204.319179 
L 339.140038 197.686701 
L 339.436049 196.322742 
L 340.24606 193.115413 
L 341.728042 184.40517 
L 342.454248 179.375241 
L 344.527168 172.487597 
L 347.139149 163.348264 
L 348.66095 160.570025 
L 351.50052 154.541711 
L 352.021141 152.817873 
L 352.622749 151.92731 
L 356.298977 146.268938 
L 357.766012 143.559214 
L 364.540322 138.777941 
L 366.45665 137.501411 
L 369.130322 136.73488 
L 376.457894 134.502844 
L 380.196819 133.463421 
L 388.375467 132.749278 
L 399.528363 132.273722 
L 400.293039 132.172676 
L 400.693709 132.128119 
L 412.210612 131.887302 
L 423.910891 132.054768 
L 424.128184 132.042132 
L 424.128184 136.73488 
L 424.128184 141.501909 
" clip-path="url(#pac7c3a982a)" style="fill: #ecf2f5"/>
   </g>
   <g id="PathCollection_10">
    <path d="M 89.4928 41.3943 
L 90.309164 43.752417 
L 90.324752 43.800095 
L 90.436155 44.129019 
L 91.235355 46.161329 
L 92.024884 48.227098 
L 92.287797 48.915172 
L 93.037414 50.928358 
L 93.666464 52.665811 
L 94.162799 54.057202 
L 94.739238 55.695387 
L 95.227262 57.12068 
L 95.909178 59.173506 
L 96.336944 60.462416 
L 97.0117 62.599227 
L 98.789957 68.570966 
L 99.210458 69.996474 
L 99.764825 72.067596 
L 102.353727 83.272518 
L 103.735214 87.959401 
L 104.000992 89.06459 
L 104.39321 91.104073 
L 107.445929 107.807533 
L 108.137617 112.899735 
L 108.49606 116.585135 
L 109.066723 123.173025 
L 109.338069 127.200822 
L 109.460933 130.043704 
L 109.573139 133.847116 
L 109.641211 136.73488 
L 109.653245 139.654687 
L 109.592353 143.373488 
L 109.545983 146.268938 
L 109.373051 150.480532 
L 108.90716 156.637966 
L 108.617884 160.570025 
L 107.96831 166.184608 
L 107.800625 172.487597 
L 105.198507 181.56039 
L 104.683542 184.40517 
L 104.229757 186.2812 
L 102.854736 196.322742 
L 99.151534 205.038122 
L 98.185007 208.240315 
L 95.907679 214.686363 
L 92.962552 222.684285 
L 90.436155 228.804703 
L 89.292468 232.07546 
L 78.518582 232.07546 
L 74.949045 232.07546 
L 75.777712 229.33459 
L 78.518582 219.946468 
L 81.441117 211.162849 
L 82.326012 208.240315 
L 83.654612 203.104286 
L 85.686134 196.322742 
L 86.378265 192.264853 
L 88.021314 184.40517 
L 89.901488 173.022264 
L 90.014449 172.487597 
L 90.046744 172.098187 
L 90.436155 168.744277 
L 91.517703 160.570025 
L 92.077827 154.404485 
L 92.202754 152.359522 
L 92.555615 146.268938 
L 92.678156 142.39871 
L 92.702355 140.595429 
L 92.742124 136.73488 
L 92.70123 132.873881 
L 92.65777 131.079205 
L 92.535027 127.200822 
L 92.183576 121.098731 
L 92.042009 119.086766 
L 91.491776 112.899735 
L 90.436155 104.721913 
L 90.054264 101.364054 
L 90.025999 100.982163 
L 89.924672 100.47068 
L 88.111134 89.06459 
L 86.805765 82.434844 
L 85.220123 75.357706 
L 83.973712 69.996474 
L 83.46661 68.017263 
L 81.779442 61.76676 
L 81.422372 60.462416 
L 81.264371 59.913259 
L 80.134635 56.018598 
L 80.038951 55.695387 
L 79.951747 55.408754 
L 78.597231 50.944088 
L 78.592318 50.928358 
L 78.587866 50.914502 
L 78.518582 50.695038 
L 77.28254 46.408538 
L 77.213243 46.161329 
L 77.134604 45.884534 
L 75.946746 41.908668 
L 75.799899 41.3943 
L 78.518582 41.3943 
M 328.787604 41.3943 
L 328.787604 43.777815 
L 328.787604 46.161329 
L 328.787604 48.544844 
L 328.787604 50.928358 
L 328.787604 53.311873 
L 328.787604 55.695387 
L 328.787604 58.078902 
L 328.787604 60.462416 
L 324.020575 60.462416 
L 319.253546 60.462416 
L 312.103003 60.462416 
L 304.952459 60.462416 
L 293.034887 60.462416 
L 281.117314 60.462416 
L 269.199742 60.462416 
L 257.282169 60.462416 
L 250.131626 60.462416 
L 242.981082 60.462416 
L 238.214053 60.462416 
L 241.856818 65.229445 
L 242.130246 66.080282 
L 241.665222 69.996474 
L 240.420869 74.410104 
L 241.697044 79.530532 
L 241.250125 82.992448 
L 239.916893 89.06459 
L 238.996854 91.021592 
L 237.165546 100.982163 
L 235.223953 105.424484 
L 233.447024 112.174456 
L 233.271133 112.899735 
L 231.677935 117.396645 
L 230.995723 120.050279 
L 228.489298 126.914775 
L 228.409618 127.200822 
L 228.277658 127.60316 
L 226.800513 131.967851 
L 225.954435 134.00932 
L 225.038835 136.73488 
L 223.912967 139.822226 
L 223.432601 141.181665 
L 223.182383 141.988965 
L 221.665592 146.268938 
L 220.319541 149.826056 
L 216.762423 160.510467 
L 216.747871 160.555473 
L 216.743748 160.570025 
L 216.725226 160.632019 
L 212.959722 172.487597 
L 211.76391 176.074314 
L 209.61188 184.075689 
L 209.520882 184.40517 
L 206.983341 193.694204 
L 206.355865 196.322742 
L 205.880072 200.05455 
L 204.009841 208.240315 
L 202.874422 213.42043 
L 201.762503 220.157887 
L 201.23322 228.536547 
L 200.601032 232.07546 
L 197.694307 232.07546 
L 186.228219 232.07546 
L 186.225089 220.606241 
L 186.253411 220.157887 
L 186.347629 219.586993 
L 186.901672 208.240315 
L 187.750117 198.296125 
L 188.001716 196.322742 
L 188.699407 193.40007 
L 189.894177 184.40517 
L 190.927268 177.638131 
L 194.294954 163.969378 
L 194.926094 160.570025 
L 195.198431 159.0725 
L 197.694307 149.186833 
L 198.277076 146.618599 
L 198.380378 146.268938 
L 198.46459 145.960825 
L 200.156739 137.719853 
L 200.416851 136.73488 
L 200.704365 135.530857 
L 201.852375 128.864049 
L 202.215793 127.200822 
L 202.754036 124.164985 
L 203.619074 116.454595 
L 204.071222 112.899735 
L 204.351964 106.242078 
L 204.356634 100.982163 
L 204.251329 95.621612 
L 203.857185 89.06459 
L 203.230007 84.636031 
L 202.163076 73.57149 
L 201.57714 69.996474 
L 201.339385 68.538443 
L 200.798104 61.703935 
L 200.624659 60.462416 
L 200.555138 59.89025 
L 200.339 56.224326 
L 200.278352 55.695387 
L 200.225366 55.189175 
L 200.041293 51.397755 
L 199.993799 50.928358 
L 199.948114 50.477597 
L 199.785235 46.579515 
L 199.741428 46.161329 
L 199.695139 45.761163 
L 199.526562 41.760751 
L 199.480467 41.3943 
L 209.61188 41.3943 
L 216.762423 41.3943 
L 223.912967 41.3943 
L 228.679996 41.3943 
L 233.447024 41.3943 
L 238.214053 41.3943 
L 242.981082 41.3943 
L 250.131626 41.3943 
L 257.282169 41.3943 
L 269.199742 41.3943 
L 281.117314 41.3943 
L 293.034887 41.3943 
L 304.952459 41.3943 
L 312.103003 41.3943 
L 319.253546 41.3943 
L 324.020575 41.3943 
M 424.128184 152.980635 
L 423.563747 153.080819 
L 412.210612 156.599403 
L 407.95092 158.01421 
L 402.95327 160.570025 
L 400.293039 161.909878 
L 393.328822 165.52338 
L 388.375467 169.79534 
L 380.619675 176.649378 
L 376.457894 182.427808 
L 375.024458 184.40517 
L 370.61601 190.480858 
L 367.821804 196.322742 
L 363.182258 206.882251 
L 362.820202 208.240315 
L 362.232348 210.548289 
L 358.844701 220.157887 
L 357.346906 224.882044 
L 356.023635 232.07546 
L 352.622749 232.07546 
L 346.460525 232.07546 
L 346.925263 229.653697 
L 348.113483 220.157887 
L 349.164023 214.393344 
L 350.812384 208.240315 
L 352.622749 201.783965 
L 353.772242 197.472236 
L 354.277297 196.322742 
L 355.794236 193.151255 
L 358.999004 184.40517 
L 360.430978 180.295827 
L 365.505087 172.487597 
L 369.8153 165.845003 
L 376.043779 160.570025 
L 376.457894 160.20208 
L 381.01226 156.152101 
L 388.375467 152.161302 
L 393.698991 149.463053 
L 400.293039 147.54687 
L 404.977417 146.268938 
L 409.228131 145.075946 
L 412.210612 144.5861 
L 418.611957 143.7084 
L 424.128184 142.712185 
L 424.128184 146.268938 
" clip-path="url(#pac7c3a982a)" style="fill: #f9eee7"/>
   </g>
   <g id="PathCollection_11">
    <path d="M 106.443648 41.3943 
L 106.93235 42.310025 
L 108.319982 44.968078 
L 108.930118 46.161329 
L 109.645045 47.619593 
L 110.464747 49.306154 
L 111.225396 50.928358 
L 112.103537 52.87832 
L 112.462743 53.673584 
L 113.332466 55.695387 
L 114.2713 57.963352 
L 114.3331 58.066542 
L 114.348005 58.094243 
L 115.686309 60.462416 
L 117.521927 63.929194 
L 118.97504 67.110941 
L 120.33694 69.996474 
L 121.806488 73.502382 
L 126.188872 87.024384 
L 127.012642 88.405574 
L 127.279641 89.06459 
L 127.798142 90.673859 
L 132.910873 106.177734 
L 134.376092 112.899735 
L 135.30314 118.368296 
L 135.804315 121.431557 
L 136.560719 127.200822 
L 137.003974 131.526863 
L 137.07227 132.381521 
L 137.417841 136.73488 
L 137.674165 141.328997 
L 137.678732 141.672994 
L 137.822683 146.268938 
L 137.811738 153.242658 
L 137.782291 153.613974 
L 137.4497 160.570025 
L 136.301025 170.682178 
L 136.497528 172.487597 
L 134.852858 175.741184 
L 132.65324 184.40517 
L 130.845118 189.061416 
L 130.295128 196.322742 
L 122.902818 204.954261 
L 121.280262 208.240315 
L 114.2713 219.660307 
L 114.126327 220.012915 
L 113.817608 220.611579 
L 107.713584 232.07546 
L 102.353727 232.07546 
L 90.436155 232.07546 
L 89.292468 232.07546 
L 90.436155 228.804703 
L 92.962552 222.684285 
L 95.907679 214.686363 
L 98.185007 208.240315 
L 99.151534 205.038122 
L 102.854736 196.322742 
L 104.229757 186.2812 
L 104.683542 184.40517 
L 105.198507 181.56039 
L 107.800625 172.487597 
L 107.96831 166.184608 
L 108.617884 160.570025 
L 108.90716 156.637966 
L 109.373051 150.480532 
L 109.545983 146.268938 
L 109.592353 143.373488 
L 109.653245 139.654687 
L 109.641211 136.73488 
L 109.573139 133.847116 
L 109.460933 130.043704 
L 109.338069 127.200822 
L 109.066723 123.173025 
L 108.49606 116.585135 
L 108.137617 112.899735 
L 107.445929 107.807533 
L 104.39321 91.104073 
L 104.000992 89.06459 
L 103.735214 87.959401 
L 102.353727 83.272518 
L 99.764825 72.067596 
L 99.210458 69.996474 
L 98.789957 68.570966 
L 97.0117 62.599227 
L 96.336944 60.462416 
L 95.909178 59.173506 
L 95.227262 57.12068 
L 94.739238 55.695387 
L 94.162799 54.057202 
L 93.666464 52.665811 
L 93.037414 50.928358 
L 92.287797 48.915172 
L 92.024884 48.227098 
L 91.235355 46.161329 
L 90.436155 44.129019 
L 90.324752 43.800095 
L 90.309164 43.752417 
L 89.4928 41.3943 
L 90.436155 41.3943 
L 102.353727 41.3943 
M 199.480467 41.3943 
L 199.526562 41.760751 
L 199.695139 45.761163 
L 199.741428 46.161329 
L 199.785235 46.579515 
L 199.948114 50.477597 
L 199.993799 50.928358 
L 200.041293 51.397755 
L 200.225366 55.189175 
L 200.278352 55.695387 
L 200.339 56.224326 
L 200.555138 59.89025 
L 200.624659 60.462416 
L 200.798104 61.703935 
L 201.339385 68.538443 
L 201.57714 69.996474 
L 202.163076 73.57149 
L 203.230007 84.636031 
L 203.857185 89.06459 
L 204.251329 95.621612 
L 204.356634 100.982163 
L 204.351964 106.242078 
L 204.071222 112.899735 
L 203.619074 116.454595 
L 202.754036 124.164985 
L 202.215793 127.200822 
L 201.852375 128.864049 
L 200.704365 135.530857 
L 200.416851 136.73488 
L 200.156739 137.719853 
L 198.46459 145.960825 
L 198.380378 146.268938 
L 198.277076 146.618599 
L 197.694307 149.186833 
L 195.198431 159.0725 
L 194.926094 160.570025 
L 194.294954 163.969378 
L 190.927268 177.638131 
L 189.894177 184.40517 
L 188.699407 193.40007 
L 188.001716 196.322742 
L 187.750117 198.296125 
L 186.901672 208.240315 
L 186.347629 219.586993 
L 186.253411 220.157887 
L 186.225089 220.606241 
L 186.228219 232.07546 
L 185.776735 232.07546 
L 173.859162 232.07546 
L 167.897646 232.07546 
L 165.825425 224.041723 
L 165.036052 217.063425 
L 163.249599 208.240315 
L 161.945043 196.326195 
L 161.944508 196.322742 
L 161.945379 196.318953 
L 161.94159 196.236914 
L 160.780983 184.40517 
L 161.296263 173.132925 
L 161.102702 171.64871 
L 161.94159 168.326368 
L 162.63363 160.570025 
L 163.395991 154.292122 
L 163.891876 152.24931 
L 164.821898 146.268938 
L 165.379989 142.877269 
L 166.140331 139.822412 
L 166.695969 136.73488 
L 167.181662 134.06388 
L 168.245402 129.446326 
L 168.671533 127.200822 
L 169.199767 124.405185 
L 170.988409 114.622187 
L 171.313399 112.899735 
L 171.720021 110.760594 
L 170.577822 100.982163 
L 173.95598 89.161408 
L 173.955563 89.06459 
L 173.953397 88.989202 
L 175.237518 71.099159 
L 175.21866 69.996474 
L 175.217468 69.453152 
L 176.147311 61.377676 
L 176.158477 60.462416 
L 176.172488 59.999751 
L 176.704764 56.264508 
L 176.72644 55.695387 
L 176.754746 55.11627 
L 177.32843 51.622212 
L 177.366943 50.928358 
L 177.412375 50.217716 
L 178.012858 46.992068 
L 178.070624 46.161329 
L 178.136546 45.305853 
L 178.745538 42.371575 
L 178.824904 41.3943 
L 185.776735 41.3943 
L 197.694307 41.3943 
M 424.128184 163.082374 
L 417.189582 165.548995 
L 412.210612 168.492796 
L 402.140137 174.334695 
L 400.293039 175.943758 
L 390.760252 184.40517 
L 389.513516 185.543219 
L 388.375467 187.048219 
L 379.208517 199.073365 
L 376.457894 204.329735 
L 374.415326 208.240315 
L 371.091014 214.791007 
L 369.199041 220.157887 
L 365.829219 230.786563 
L 365.316489 232.07546 
L 364.540322 232.07546 
L 356.023635 232.07546 
L 357.346906 224.882044 
L 358.844701 220.157887 
L 362.232348 210.548289 
L 362.820202 208.240315 
L 363.182258 206.882251 
L 367.821804 196.322742 
L 370.61601 190.480858 
L 375.024458 184.40517 
L 376.457894 182.427808 
L 380.619675 176.649378 
L 388.375467 169.79534 
L 393.328822 165.52338 
L 400.293039 161.909878 
L 402.95327 160.570025 
L 407.95092 158.01421 
L 412.210612 156.599403 
L 423.563747 153.080819 
L 424.128184 152.980635 
L 424.128184 153.419482 
L 424.128184 160.570025 
" clip-path="url(#pac7c3a982a)" style="fill: #fddcc9"/>
   </g>
   <g id="PathCollection_12">
    <path d="M 178.824904 41.3943 
L 178.745538 42.371575 
L 178.136546 45.305853 
L 178.070624 46.161329 
L 178.012858 46.992068 
L 177.412375 50.217716 
L 177.366943 50.928358 
L 177.32843 51.622212 
L 176.754746 55.11627 
L 176.72644 55.695387 
L 176.704764 56.264508 
L 176.172488 59.999751 
L 176.158477 60.462416 
L 176.147311 61.377676 
L 175.217468 69.453152 
L 175.21866 69.996474 
L 175.237518 71.099159 
L 173.953397 88.989202 
L 173.955563 89.06459 
L 173.95598 89.161408 
L 170.577822 100.982163 
L 171.720021 110.760594 
L 171.313399 112.899735 
L 170.988409 114.622187 
L 169.199767 124.405185 
L 168.671533 127.200822 
L 168.245402 129.446326 
L 167.181662 134.06388 
L 166.695969 136.73488 
L 166.140331 139.822412 
L 165.379989 142.877269 
L 164.821898 146.268938 
L 163.891876 152.24931 
L 163.395991 154.292122 
L 162.63363 160.570025 
L 161.94159 168.326368 
L 161.102702 171.64871 
L 161.296263 173.132925 
L 160.780983 184.40517 
L 161.94159 196.236914 
L 161.945379 196.318953 
L 161.944508 196.322742 
L 161.945043 196.326195 
L 163.249599 208.240315 
L 165.036052 217.063425 
L 165.825425 224.041723 
L 167.897646 232.07546 
L 161.94159 232.07546 
L 150.024017 232.07546 
L 138.106445 232.07546 
L 126.188872 232.07546 
L 114.2713 232.07546 
L 107.713584 232.07546 
L 113.817608 220.611579 
L 114.126327 220.012915 
L 114.2713 219.660307 
L 121.280262 208.240315 
L 122.902818 204.954261 
L 130.295128 196.322742 
L 130.845118 189.061416 
L 132.65324 184.40517 
L 134.852858 175.741184 
L 136.497528 172.487597 
L 136.301025 170.682178 
L 137.4497 160.570025 
L 137.782291 153.613974 
L 137.811738 153.242658 
L 137.822683 146.268938 
L 137.678732 141.672994 
L 137.674165 141.328997 
L 137.417841 136.73488 
L 137.07227 132.381521 
L 137.003974 131.526863 
L 136.560719 127.200822 
L 135.804315 121.431557 
L 135.30314 118.368296 
L 134.376092 112.899735 
L 132.910873 106.177734 
L 127.798142 90.673859 
L 127.279641 89.06459 
L 127.012642 88.405574 
L 126.188872 87.024384 
L 121.806488 73.502382 
L 120.33694 69.996474 
L 118.97504 67.110941 
L 117.521927 63.929194 
L 115.686309 60.462416 
L 114.348005 58.094243 
L 114.3331 58.066542 
L 114.2713 57.963352 
L 113.332466 55.695387 
L 112.462743 53.673584 
L 112.103537 52.87832 
L 111.225396 50.928358 
L 110.464747 49.306154 
L 109.645045 47.619593 
L 108.930118 46.161329 
L 108.319982 44.968078 
L 106.93235 42.310025 
L 106.443648 41.3943 
L 114.2713 41.3943 
L 126.188872 41.3943 
L 138.106445 41.3943 
L 150.024017 41.3943 
L 161.94159 41.3943 
L 173.859162 41.3943 
M 424.128184 173.20919 
L 422.106875 174.508907 
L 412.210612 180.360042 
L 409.650569 181.845127 
L 406.711809 184.40517 
L 400.293039 190.155571 
L 397.068917 193.098621 
L 388.375467 204.595175 
L 386.798708 206.663556 
L 385.973601 208.240315 
L 383.489435 213.126347 
L 379.582664 220.157887 
L 378.436082 222.136075 
L 376.457894 227.01921 
L 374.446495 232.07546 
L 365.316489 232.07546 
L 365.829219 230.786563 
L 369.199041 220.157887 
L 371.091014 214.791007 
L 374.415326 208.240315 
L 376.457894 204.329735 
L 379.208517 199.073365 
L 388.375467 187.048219 
L 389.513516 185.543219 
L 390.760252 184.40517 
L 400.293039 175.943758 
L 402.140137 174.334695 
L 412.210612 168.492796 
L 417.189582 165.548995 
L 424.128184 163.082374 
L 424.128184 172.487597 
" clip-path="url(#pac7c3a982a)" style="fill: #f8bb9e"/>
   </g>
   <g id="PathCollection_13">
    <path d="M 424.128184 183.573692 
L 422.835076 184.40517 
L 416.504103 188.698662 
L 412.210612 192.826429 
L 404.131834 200.161537 
L 400.293039 204.91707 
L 397.687564 208.240315 
L 393.698771 213.563619 
L 390.034952 220.157887 
L 385.053077 228.75307 
L 383.707157 232.07546 
L 376.457894 232.07546 
L 374.446495 232.07546 
L 376.457894 227.01921 
L 378.436082 222.136075 
L 379.582664 220.157887 
L 383.489435 213.126347 
L 385.973601 208.240315 
L 386.798708 206.663556 
L 388.375467 204.595175 
L 397.068917 193.098621 
L 400.293039 190.155571 
L 406.711809 184.40517 
L 409.650569 181.845127 
L 412.210612 180.360042 
L 422.106875 174.508907 
L 424.128184 173.20919 
" clip-path="url(#pac7c3a982a)" style="fill: #ee9677"/>
   </g>
   <g id="PathCollection_14">
    <path d="M 424.128184 194.459546 
L 423.017931 195.212489 
L 412.210612 205.602657 
L 410.828153 206.857857 
L 409.712196 208.240315 
L 401.277021 219.173906 
L 400.500334 220.157887 
L 400.409115 220.273963 
L 400.293039 220.452436 
L 393.19549 232.07546 
L 388.375467 232.07546 
L 383.707157 232.07546 
L 385.053077 228.75307 
L 390.034952 220.157887 
L 393.698771 213.563619 
L 397.687564 208.240315 
L 400.293039 204.91707 
L 404.131834 200.161537 
L 412.210612 192.826429 
L 416.504103 188.698662 
L 422.835076 184.40517 
L 424.128184 183.573692 
L 424.128184 184.40517 
" clip-path="url(#pac7c3a982a)" style="fill: #db6b55"/>
   </g>
   <g id="PathCollection_15">
    <path d="M 424.128184 206.047474 
L 421.854829 208.240315 
L 417.158649 213.188352 
L 411.657385 220.157887 
L 406.656532 226.52138 
L 403.044268 232.07546 
L 400.293039 232.07546 
L 393.19549 232.07546 
L 400.293039 220.452436 
L 400.409115 220.273963 
L 400.500334 220.157887 
L 401.277021 219.173906 
L 409.712196 208.240315 
L 410.828153 206.857857 
L 412.210612 205.602657 
L 423.017931 195.212489 
L 424.128184 194.459546 
L 424.128184 196.322742 
" clip-path="url(#pac7c3a982a)" style="fill: #c53e3d"/>
   </g>
   <g id="PathCollection_16">
    <path d="M 424.128184 218.650087 
L 423.393972 219.423675 
L 422.814436 220.157887 
L 417.993013 226.293058 
L 413.401102 232.07546 
L 412.210612 232.07546 
L 403.044268 232.07546 
L 406.656532 226.52138 
L 411.657385 220.157887 
L 417.158649 213.188352 
L 421.854829 208.240315 
L 424.128184 206.047474 
L 424.128184 208.240315 
" clip-path="url(#pac7c3a982a)" style="fill: #ab162a"/>
   </g>
   <g id="PathCollection_17">
    <path d="M 424.128184 232.07546 
L 413.401102 232.07546 
L 417.993013 226.293058 
L 422.814436 220.157887 
L 423.393972 219.423675 
L 424.128184 218.650087 
L 424.128184 220.157887 
" clip-path="url(#pac7c3a982a)" style="fill: #7c0722"/>
   </g>
   <g id="PathCollection_18">
    <path d="M 424.128184 232.07546 
" clip-path="url(#pac7c3a982a)" style="fill: #67001f"/>
   </g>
   <g id="PolyCollection_1">
    <path d="M 233.447024 60.462416 
L 233.447024 41.3943 
L 328.787604 41.3943 
L 328.787604 60.462416 
L 328.787604 60.462416 
L 233.447024 60.462416 
z
" clip-path="url(#pac7c3a982a)" style="fill: url(#ha588f2bdcb); fill-opacity: 0.3; stroke: #333333; stroke-opacity: 0.3"/>
   </g>
   <g id="PathCollection_19">
    <defs>
     <path id="m1b231c0e6a" d="M -0 4.1833 
L 4.1833 0 
L 0 -4.1833 
L -4.1833 -0 
z
" style="stroke: #111827"/>
    </defs>
    <g clip-path="url(#pac7c3a982a)">
     <use xlink:href="#m1b231c0e6a" x="233.447024" y="136.73488" style="fill: #34d399; stroke: #111827"/>
    </g>
   </g>
   <g id="matplotlib.axis_1">
    <g id="xtick_1">
     <g id="line2d_1">
      <defs>
       <path id="mfb5f26218b" d="M 0 0 
L 0 3.5 
" style="stroke: #000000; stroke-width: 0.8"/>
      </defs>
      <g>
       <use xlink:href="#mfb5f26218b" x="42.765865" y="232.07546" style="stroke: #000000; stroke-width: 0.8"/>
      </g>
     </g>
     <g id="text_1">
      <!-- 0 -->
      <g transform="translate(39.584615 246.673897) scale(0.1 -0.1)">
       <defs>
        <path id="DejaVuSans-30" d="M 2034 4250 
Q 1547 4250 1301 3770 
Q 1056 3291 1056 2328 
Q 1056 1369 1301 889 
Q 1547 409 2034 409 
Q 2525 409 2770 889 
Q 3016 1369 3016 2328 
Q 3016 3291 2770 3770 
Q 2525 4250 2034 4250 
z
M 2034 4750 
Q 2819 4750 3233 4129 
Q 3647 3509 3647 2328 
Q 3647 1150 3233 529 
Q 2819 -91 2034 -91 
Q 1250 -91 836 529 
Q 422 1150 422 2328 
Q 422 3509 836 4129 
Q 1250 4750 2034 4750 
z
" transform="scale(0.015625)"/>
       </defs>
       <use xlink:href="#DejaVuSans-30"/>
      </g>
     </g>
    </g>
    <g id="xtick_2">
     <g id="line2d_2">
      <g>
       <use xlink:href="#mfb5f26218b" x="90.436155" y="232.07546" style="stroke: #000000; stroke-width: 0.8"/>
      </g>
     </g>
     <g id="text_2">
      <!-- 50 -->
      <g transform="translate(84.073655 246.673897) scale(0.1 -0.1)">
       <defs>
        <path id="DejaVuSans-35" d="M 691 4666 
L 3169 4666 
L 3169 4134 
L 1269 4134 
L 1269 2991 
Q 1406 3038 1543 3061 
Q 1681 3084 1819 3084 
Q 2600 3084 3056 2656 
Q 3513 2228 3513 1497 
Q 3513 744 3044 326 
Q 2575 -91 1722 -91 
Q 1428 -91 1123 -41 
Q 819 9 494 109 
L 494 744 
Q 775 591 1075 516 
Q 1375 441 1709 441 
Q 2250 441 2565 725 
Q 2881 1009 2881 1497 
Q 2881 1984 2565 2268 
Q 2250 2553 1709 2553 
Q 1456 2553 1204 2497 
Q 953 2441 691 2322 
L 691 4666 
z
" transform="scale(0.015625)"/>
       </defs>
       <use xlink:href="#DejaVuSans-35"/>
       <use xlink:href="#DejaVuSans-30" x="63.623047"/>
      </g>
     </g>
    </g>
    <g id="xtick_3">
     <g id="line2d_3">
      <g>
       <use xlink:href="#mfb5f26218b" x="138.106445" y="232.07546" style="stroke: #000000; stroke-width: 0.8"/>
      </g>
     </g>
     <g id="text_3">
      <!-- 100 -->
      <g transform="translate(128.562695 246.673897) scale(0.1 -0.1)">
       <defs>
        <path id="DejaVuSans-31" d="M 794 531 
L 1825 531 
L 1825 4091 
L 703 3866 
L 703 4441 
L 1819 4666 
L 2450 4666 
L 2450 531 
L 3481 531 
L 3481 0 
L 794 0 
L 794 531 
z
" transform="scale(0.015625)"/>
       </defs>
       <use xlink:href="#DejaVuSans-31"/>
       <use xlink:href="#DejaVuSans-30" x="63.623047"/>
       <use xlink:href="#DejaVuSans-30" x="127.246094"/>
      </g>
     </g>
    </g>
    <g id="xtick_4">
     <g id="line2d_4">
      <g>
       <use xlink:href="#mfb5f26218b" x="185.776735" y="232.07546" style="stroke: #000000; stroke-width: 0.8"/>
      </g>
     </g>
     <g id="text_4">
      <!-- 150 -->
      <g transform="translate(176.232985 246.673897) scale(0.1 -0.1)">
       <use xlink:href="#DejaVuSans-31"/>
       <use xlink:href="#DejaVuSans-35" x="63.623047"/>
       <use xlink:href="#DejaVuSans-30" x="127.246094"/>
      </g>
     </g>
    </g>
    <g id="xtick_5">
     <g id="line2d_5">
      <g>
       <use xlink:href="#mfb5f26218b" x="233.447024" y="232.07546" style="stroke: #000000; stroke-width: 0.8"/>
      </g>
     </g>
     <g id="text_5">
      <!-- 200 -->
      <g transform="translate(223.903274 246.673897) scale(0.1 -0.1)">
       <defs>
        <path id="DejaVuSans-32" d="M 1228 531 
L 3431 531 
L 3431 0 
L 469 0 
L 469 531 
Q 828 903 1448 1529 
Q 2069 2156 2228 2338 
Q 2531 2678 2651 2914 
Q 2772 3150 2772 3378 
Q 2772 3750 2511 3984 
Q 2250 4219 1831 4219 
Q 1534 4219 1204 4116 
Q 875 4013 500 3803 
L 500 4441 
Q 881 4594 1212 4672 
Q 1544 4750 1819 4750 
Q 2544 4750 2975 4387 
Q 3406 4025 3406 3419 
Q 3406 3131 3298 2873 
Q 3191 2616 2906 2266 
Q 2828 2175 2409 1742 
Q 1991 1309 1228 531 
z
" transform="scale(0.015625)"/>
       </defs>
       <use xlink:href="#DejaVuSans-32"/>
       <use xlink:href="#DejaVuSans-30" x="63.623047"/>
       <use xlink:href="#DejaVuSans-30" x="127.246094"/>
      </g>
     </g>
    </g>
    <g id="xtick_6">
     <g id="line2d_6">
      <g>
       <use xlink:href="#mfb5f26218b" x="281.117314" y="232.07546" style="stroke: #000000; stroke-width: 0.8"/>
      </g>
     </g>
     <g id="text_6">
      <!-- 250 -->
      <g transform="translate(271.573564 246.673897) scale(0.1 -0.1)">
       <use xlink:href="#DejaVuSans-32"/>
       <use xlink:href="#DejaVuSans-35" x="63.623047"/>
       <use xlink:href="#DejaVuSans-30" x="127.246094"/>
      </g>
     </g>
    </g>
    <g id="xtick_7">
     <g id="line2d_7">
      <g>
       <use xlink:href="#mfb5f26218b" x="328.787604" y="232.07546" style="stroke: #000000; stroke-width: 0.8"/>
      </g>
     </g>
     <g id="text_7">
      <!-- 300 -->
      <g transform="translate(319.243854 246.673897) scale(0.1 -0.1)">
       <defs>
        <path id="DejaVuSans-33" d="M 2597 2516 
Q 3050 2419 3304 2112 
Q 3559 1806 3559 1356 
Q 3559 666 3084 287 
Q 2609 -91 1734 -91 
Q 1441 -91 1130 -33 
Q 819 25 488 141 
L 488 750 
Q 750 597 1062 519 
Q 1375 441 1716 441 
Q 2309 441 2620 675 
Q 2931 909 2931 1356 
Q 2931 1769 2642 2001 
Q 2353 2234 1838 2234 
L 1294 2234 
L 1294 2753 
L 1863 2753 
Q 2328 2753 2575 2939 
Q 2822 3125 2822 3475 
Q 2822 3834 2567 4026 
Q 2313 4219 1838 4219 
Q 1578 4219 1281 4162 
Q 984 4106 628 3988 
L 628 4550 
Q 988 4650 1302 4700 
Q 1616 4750 1894 4750 
Q 2613 4750 3031 4423 
Q 3450 4097 3450 3541 
Q 3450 3153 3228 2886 
Q 3006 2619 2597 2516 
z
" transform="scale(0.015625)"/>
       </defs>
       <use xlink:href="#DejaVuSans-33"/>
       <use xlink:href="#DejaVuSans-30" x="63.623047"/>
       <use xlink:href="#DejaVuSans-30" x="127.246094"/>
      </g>
     </g>
    </g>
    <g id="xtick_8">
     <g id="line2d_8">
      <g>
       <use xlink:href="#mfb5f26218b" x="376.457894" y="232.07546" style="stroke: #000000; stroke-width: 0.8"/>
      </g>
     </g>
     <g id="text_8">
      <!-- 350 -->
      <g transform="translate(366.914144 246.673897) scale(0.1 -0.1)">
       <use xlink:href="#DejaVuSans-33"/>
       <use xlink:href="#DejaVuSans-35" x="63.623047"/>
       <use xlink:href="#DejaVuSans-30" x="127.246094"/>
      </g>
     </g>
    </g>
    <g id="xtick_9">
     <g id="line2d_9">
      <g>
       <use xlink:href="#mfb5f26218b" x="424.128184" y="232.07546" style="stroke: #000000; stroke-width: 0.8"/>
      </g>
     </g>
     <g id="text_9">
      <!-- 400 -->
      <g transform="translate(414.584434 246.673897) scale(0.1 -0.1)">
       <defs>
        <path id="DejaVuSans-34" d="M 2419 4116 
L 825 1625 
L 2419 1625 
L 2419 4116 
z
M 2253 4666 
L 3047 4666 
L 3047 1625 
L 3713 1625 
L 3713 1100 
L 3047 1100 
L 3047 0 
L 2419 0 
L 2419 1100 
L 313 1100 
L 313 1709 
L 2253 4666 
z
" transform="scale(0.015625)"/>
       </defs>
       <use xlink:href="#DejaVuSans-34"/>
       <use xlink:href="#DejaVuSans-30" x="63.623047"/>
       <use xlink:href="#DejaVuSans-30" x="127.246094"/>
      </g>
     </g>
    </g>
    <g id="text_10">
     <!-- x [mm] -->
     <g transform="translate(215.256399 260.352022) scale(0.1 -0.1)">
      <defs>
       <path id="DejaVuSans-78" d="M 3513 3500 
L 2247 1797 
L 3578 0 
L 2900 0 
L 1881 1375 
L 863 0 
L 184 0 
L 1544 1831 
L 300 3500 
L 978 3500 
L 1906 2253 
L 2834 3500 
L 3513 3500 
z
" transform="scale(0.015625)"/>
       <path id="DejaVuSans-20" transform="scale(0.015625)"/>
       <path id="DejaVuSans-5b" d="M 550 4863 
L 1875 4863 
L 1875 4416 
L 1125 4416 
L 1125 -397 
L 1875 -397 
L 1875 -844 
L 550 -844 
L 550 4863 
z
" transform="scale(0.015625)"/>
       <path id="DejaVuSans-6d" d="M 3328 2828 
Q 3544 3216 3844 3400 
Q 4144 3584 4550 3584 
Q 5097 3584 5394 3201 
Q 5691 2819 5691 2113 
L 5691 0 
L 5113 0 
L 5113 2094 
Q 5113 2597 4934 2840 
Q 4756 3084 4391 3084 
Q 3944 3084 3684 2787 
Q 3425 2491 3425 1978 
L 3425 0 
L 2847 0 
L 2847 2094 
Q 2847 2600 2669 2842 
Q 2491 3084 2119 3084 
Q 1678 3084 1418 2786 
Q 1159 2488 1159 1978 
L 1159 0 
L 581 0 
L 581 3500 
L 1159 3500 
L 1159 2956 
Q 1356 3278 1631 3431 
Q 1906 3584 2284 3584 
Q 2666 3584 2933 3390 
Q 3200 3197 3328 2828 
z
" transform="scale(0.015625)"/>
       <path id="DejaVuSans-5d" d="M 1947 4863 
L 1947 -844 
L 622 -844 
L 622 -397 
L 1369 -397 
L 1369 4416 
L 622 4416 
L 622 4863 
L 1947 4863 
z
" transform="scale(0.015625)"/>
      </defs>
      <use xlink:href="#DejaVuSans-78"/>
      <use xlink:href="#DejaVuSans-20" x="59.179688"/>
      <use xlink:href="#DejaVuSans-5b" x="90.966797"/>
      <use xlink:href="#DejaVuSans-6d" x="129.980469"/>
      <use xlink:href="#DejaVuSans-6d" x="227.392578"/>
      <use xlink:href="#DejaVuSans-5d" x="324.804688"/>
     </g>
    </g>
   </g>
   <g id="matplotlib.axis_2">
    <g id="ytick_1">
     <g id="line2d_10">
      <defs>
       <path id="mfd5aa90a51" d="M 0 0 
L -3.5 0 
" style="stroke: #000000; stroke-width: 0.8"/>
      </defs>
      <g>
       <use xlink:href="#mfd5aa90a51" x="42.765865" y="41.3943" style="stroke: #000000; stroke-width: 0.8"/>
      </g>
     </g>
     <g id="text_11">
      <!-- 0 -->
      <g transform="translate(29.403365 45.193519) scale(0.1 -0.1)">
       <use xlink:href="#DejaVuSans-30"/>
      </g>
     </g>
    </g>
    <g id="ytick_2">
     <g id="line2d_11">
      <g>
       <use xlink:href="#mfd5aa90a51" x="42.765865" y="65.229445" style="stroke: #000000; stroke-width: 0.8"/>
      </g>
     </g>
     <g id="text_12">
      <!-- 25 -->
      <g transform="translate(23.040865 69.028664) scale(0.1 -0.1)">
       <use xlink:href="#DejaVuSans-32"/>
       <use xlink:href="#DejaVuSans-35" x="63.623047"/>
      </g>
     </g>
    </g>
    <g id="ytick_3">
     <g id="line2d_12">
      <g>
       <use xlink:href="#mfd5aa90a51" x="42.765865" y="89.06459" style="stroke: #000000; stroke-width: 0.8"/>
      </g>
     </g>
     <g id="text_13">
      <!-- 50 -->
      <g transform="translate(23.040865 92.863809) scale(0.1 -0.1)">
       <use xlink:href="#DejaVuSans-35"/>
       <use xlink:href="#DejaVuSans-30" x="63.623047"/>
      </g>
     </g>
    </g>
    <g id="ytick_4">
     <g id="line2d_13">
      <g>
       <use xlink:href="#mfd5aa90a51" x="42.765865" y="112.899735" style="stroke: #000000; stroke-width: 0.8"/>
      </g>
     </g>
     <g id="text_14">
      <!-- 75 -->
      <g transform="translate(23.040865 116.698954) scale(0.1 -0.1)">
       <defs>
        <path id="DejaVuSans-37" d="M 525 4666 
L 3525 4666 
L 3525 4397 
L 1831 0 
L 1172 0 
L 2766 4134 
L 525 4134 
L 525 4666 
z
" transform="scale(0.015625)"/>
       </defs>
       <use xlink:href="#DejaVuSans-37"/>
       <use xlink:href="#DejaVuSans-35" x="63.623047"/>
      </g>
     </g>
    </g>
    <g id="ytick_5">
     <g id="line2d_14">
      <g>
       <use xlink:href="#mfd5aa90a51" x="42.765865" y="136.73488" style="stroke: #000000; stroke-width: 0.8"/>
      </g>
     </g>
     <g id="text_15">
      <!-- 100 -->
      <g transform="translate(16.678365 140.534099) scale(0.1 -0.1)">
       <use xlink:href="#DejaVuSans-31"/>
       <use xlink:href="#DejaVuSans-30" x="63.623047"/>
       <use xlink:href="#DejaVuSans-30" x="127.246094"/>
      </g>
     </g>
    </g>
    <g id="ytick_6">
     <g id="line2d_15">
      <g>
       <use xlink:href="#mfd5aa90a51" x="42.765865" y="160.570025" style="stroke: #000000; stroke-width: 0.8"/>
      </g>
     </g>
     <g id="text_16">
      <!-- 125 -->
      <g transform="translate(16.678365 164.369244) scale(0.1 -0.1)">
       <use xlink:href="#DejaVuSans-31"/>
       <use xlink:href="#DejaVuSans-32" x="63.623047"/>
       <use xlink:href="#DejaVuSans-35" x="127.246094"/>
      </g>
     </g>
    </g>
    <g id="ytick_7">
     <g id="line2d_16">
      <g>
       <use xlink:href="#mfd5aa90a51" x="42.765865" y="184.40517" style="stroke: #000000; stroke-width: 0.8"/>
      </g>
     </g>
     <g id="text_17">
      <!-- 150 -->
      <g transform="translate(16.678365 188.204389) scale(0.1 -0.1)">
       <use xlink:href="#DejaVuSans-31"/>
       <use xlink:href="#DejaVuSans-35" x="63.623047"/>
       <use xlink:href="#DejaVuSans-30" x="127.246094"/>
      </g>
     </g>
    </g>
    <g id="ytick_8">
     <g id="line2d_17">
      <g>
       <use xlink:href="#mfd5aa90a51" x="42.765865" y="208.240315" style="stroke: #000000; stroke-width: 0.8"/>
      </g>
     </g>
     <g id="text_18">
      <!-- 175 -->
      <g transform="translate(16.678365 212.039534) scale(0.1 -0.1)">
       <use xlink:href="#DejaVuSans-31"/>
       <use xlink:href="#DejaVuSans-37" x="63.623047"/>
       <use xlink:href="#DejaVuSans-35" x="127.246094"/>
      </g>
     </g>
    </g>
    <g id="ytick_9">
     <g id="line2d_18">
      <g>
       <use xlink:href="#mfd5aa90a51" x="42.765865" y="232.07546" style="stroke: #000000; stroke-width: 0.8"/>
      </g>
     </g>
     <g id="text_19">
      <!-- 200 -->
      <g transform="translate(16.678365 235.874679) scale(0.1 -0.1)">
       <use xlink:href="#DejaVuSans-32"/>
       <use xlink:href="#DejaVuSans-30" x="63.623047"/>
       <use xlink:href="#DejaVuSans-30" x="127.246094"/>
      </g>
     </g>
    </g>
    <g id="text_20">
     <!-- y [mm] -->
     <g transform="translate(10.598678 154.925505) rotate(-90) scale(0.1 -0.1)">
      <defs>
       <path id="DejaVuSans-79" d="M 2059 -325 
Q 1816 -950 1584 -1140 
Q 1353 -1331 966 -1331 
L 506 -1331 
L 506 -850 
L 844 -850 
Q 1081 -850 1212 -737 
Q 1344 -625 1503 -206 
L 1606 56 
L 191 3500 
L 800 3500 
L 1894 763 
L 2988 3500 
L 3597 3500 
L 2059 -325 
z
" transform="scale(0.015625)"/>
      </defs>
      <use xlink:href="#DejaVuSans-79"/>
      <use xlink:href="#DejaVuSans-20" x="59.179688"/>
      <use xlink:href="#DejaVuSans-5b" x="90.966797"/>
      <use xlink:href="#DejaVuSans-6d" x="129.980469"/>
      <use xlink:href="#DejaVuSans-6d" x="227.392578"/>
      <use xlink:href="#DejaVuSans-5d" x="324.804688"/>
     </g>
    </g>
   </g>
   <g id="PathCollection_20">
    <path d="M 328.787604 41.3943 
L 328.787604 43.777815 
L 328.787604 46.161329 
L 328.787604 48.544844 
L 328.787604 50.928358 
L 328.787604 53.311873 
L 328.787604 55.695387 
L 328.787604 58.078902 
L 328.787604 60.462416 
L 324.020575 60.462416 
L 319.253546 60.462416 
L 312.103003 60.462416 
L 304.952459 60.462416 
L 293.034887 60.462416 
L 281.117314 60.462416 
L 269.199742 60.462416 
L 257.282169 60.462416 
L 250.131626 60.462416 
L 242.981082 60.462416 
L 238.214053 60.462416 
L 241.856818 65.229445 
L 242.130246 66.080282 
L 241.665222 69.996474 
L 240.420869 74.410104 
L 241.697044 79.530532 
L 241.250125 82.992448 
L 239.916893 89.06459 
L 238.996854 91.021592 
L 237.165546 100.982163 
L 235.223953 105.424484 
L 233.447024 112.174456 
L 233.271133 112.899735 
L 231.677935 117.396645 
L 230.995723 120.050279 
L 228.489298 126.914775 
L 228.409618 127.200822 
L 228.277658 127.60316 
L 226.800513 131.967851 
L 225.954435 134.00932 
L 225.038835 136.73488 
L 223.912967 139.822226 
L 223.432601 141.181665 
L 223.182383 141.988965 
L 221.665592 146.268938 
L 220.319541 149.826056 
L 216.762423 160.510467 
L 216.747871 160.555473 
L 216.743748 160.570025 
L 216.725226 160.632019 
L 212.959722 172.487597 
L 211.76391 176.074314 
L 209.61188 184.075689 
L 209.520882 184.40517 
L 206.983341 193.694204 
L 206.355865 196.322742 
L 205.880072 200.05455 
L 204.009841 208.240315 
L 202.874422 213.42043 
L 201.762503 220.157887 
L 201.23322 228.536547 
L 200.601032 232.07546 
" clip-path="url(#pac7c3a982a)" style="fill: none; stroke: #263238; stroke-width: 0.55"/>
    <path d="M 346.460525 232.07546 
L 346.925263 229.653697 
L 348.113483 220.157887 
L 349.164023 214.393344 
L 350.812384 208.240315 
L 352.622749 201.783965 
L 353.772242 197.472236 
L 354.277297 196.322742 
L 355.794236 193.151255 
L 358.999004 184.40517 
L 360.430978 180.295827 
L 365.505087 172.487597 
L 369.8153 165.845003 
L 376.043779 160.570025 
L 376.457894 160.20208 
L 381.01226 156.152101 
L 388.375467 152.161302 
L 393.698991 149.463053 
L 400.293039 147.54687 
L 404.977417 146.268938 
L 409.228131 145.075946 
L 412.210612 144.5861 
L 418.611957 143.7084 
L 424.128184 142.712185 
" clip-path="url(#pac7c3a982a)" style="fill: none; stroke: #263238; stroke-width: 0.55"/>
    <path d="M 74.949045 232.07546 
L 75.777712 229.33459 
L 78.518582 219.946468 
L 81.441117 211.162849 
L 82.326012 208.240315 
L 83.654612 203.104286 
L 85.686134 196.322742 
L 86.378265 192.264853 
L 88.021314 184.40517 
L 89.901488 173.022264 
L 90.014449 172.487597 
L 90.046744 172.098187 
L 90.436155 168.744277 
L 91.517703 160.570025 
L 92.077827 154.404485 
L 92.202754 152.359522 
L 92.555615 146.268938 
L 92.678156 142.39871 
L 92.702355 140.595429 
L 92.742124 136.73488 
L 92.70123 132.873881 
L 92.65777 131.079205 
L 92.535027 127.200822 
L 92.183576 121.098731 
L 92.042009 119.086766 
L 91.491776 112.899735 
L 90.436155 104.721913 
L 90.054264 101.364054 
L 90.025999 100.982163 
L 89.924672 100.47068 
L 88.111134 89.06459 
L 86.805765 82.434844 
L 85.220123 75.357706 
L 83.973712 69.996474 
L 83.46661 68.017263 
L 81.779442 61.76676 
L 81.422372 60.462416 
L 81.264371 59.913259 
L 80.134635 56.018598 
L 80.038951 55.695387 
L 79.951747 55.408754 
L 78.597231 50.944088 
L 78.592318 50.928358 
L 78.587866 50.914502 
L 78.518582 50.695038 
L 77.28254 46.408538 
L 77.213243 46.161329 
L 77.134604 45.884534 
L 75.946746 41.908668 
L 75.799899 41.3943 
" clip-path="url(#pac7c3a982a)" style="fill: none; stroke: #263238; stroke-width: 0.55"/>
   </g>
   <g id="patch_3">
    <path d="M 42.765865 232.07546 
L 42.765865 41.3943 
" style="fill: none; stroke: #000000; stroke-width: 0.8; stroke-linejoin: miter; stroke-linecap: square"/>
   </g>
   <g id="patch_4">
    <path d="M 424.128184 232.07546 
L 424.128184 41.3943 
" style="fill: none; stroke: #000000; stroke-width: 0.8; stroke-linejoin: miter; stroke-linecap: square"/>
   </g>
   <g id="patch_5">
    <path d="M 42.765865 232.07546 
L 424.128184 232.07546 
" style="fill: none; stroke: #000000; stroke-width: 0.8; stroke-linejoin: miter; stroke-linecap: square"/>
   </g>
   <g id="patch_6">
    <path d="M 42.765865 41.3943 
L 424.128184 41.3943 
" style="fill: none; stroke: #000000; stroke-width: 0.8; stroke-linejoin: miter; stroke-linecap: square"/>
   </g>
   <g id="text_21">
    <!-- CalculiX C3D20R — Mode 6: 77.18 Hz -->
    <g transform="translate(120.469837 35.3943) scale(0.12 -0.12)">
     <defs>
      <path id="DejaVuSans-43" d="M 4122 4306 
L 4122 3641 
Q 3803 3938 3442 4084 
Q 3081 4231 2675 4231 
Q 1875 4231 1450 3742 
Q 1025 3253 1025 2328 
Q 1025 1406 1450 917 
Q 1875 428 2675 428 
Q 3081 428 3442 575 
Q 3803 722 4122 1019 
L 4122 359 
Q 3791 134 3420 21 
Q 3050 -91 2638 -91 
Q 1578 -91 968 557 
Q 359 1206 359 2328 
Q 359 3453 968 4101 
Q 1578 4750 2638 4750 
Q 3056 4750 3426 4639 
Q 3797 4528 4122 4306 
z
" transform="scale(0.015625)"/>
      <path id="DejaVuSans-61" d="M 2194 1759 
Q 1497 1759 1228 1600 
Q 959 1441 959 1056 
Q 959 750 1161 570 
Q 1363 391 1709 391 
Q 2188 391 2477 730 
Q 2766 1069 2766 1631 
L 2766 1759 
L 2194 1759 
z
M 3341 1997 
L 3341 0 
L 2766 0 
L 2766 531 
Q 2569 213 2275 61 
Q 1981 -91 1556 -91 
Q 1019 -91 701 211 
Q 384 513 384 1019 
Q 384 1609 779 1909 
Q 1175 2209 1959 2209 
L 2766 2209 
L 2766 2266 
Q 2766 2663 2505 2880 
Q 2244 3097 1772 3097 
Q 1472 3097 1187 3025 
Q 903 2953 641 2809 
L 641 3341 
Q 956 3463 1253 3523 
Q 1550 3584 1831 3584 
Q 2591 3584 2966 3190 
Q 3341 2797 3341 1997 
z
" transform="scale(0.015625)"/>
      <path id="DejaVuSans-6c" d="M 603 4863 
L 1178 4863 
L 1178 0 
L 603 0 
L 603 4863 
z
" transform="scale(0.015625)"/>
      <path id="DejaVuSans-63" d="M 3122 3366 
L 3122 2828 
Q 2878 2963 2633 3030 
Q 2388 3097 2138 3097 
Q 1578 3097 1268 2742 
Q 959 2388 959 1747 
Q 959 1106 1268 751 
Q 1578 397 2138 397 
Q 2388 397 2633 464 
Q 2878 531 3122 666 
L 3122 134 
Q 2881 22 2623 -34 
Q 2366 -91 2075 -91 
Q 1284 -91 818 406 
Q 353 903 353 1747 
Q 353 2603 823 3093 
Q 1294 3584 2113 3584 
Q 2378 3584 2631 3529 
Q 2884 3475 3122 3366 
z
" transform="scale(0.015625)"/>
      <path id="DejaVuSans-75" d="M 544 1381 
L 544 3500 
L 1119 3500 
L 1119 1403 
Q 1119 906 1312 657 
Q 1506 409 1894 409 
Q 2359 409 2629 706 
Q 2900 1003 2900 1516 
L 2900 3500 
L 3475 3500 
L 3475 0 
L 2900 0 
L 2900 538 
Q 2691 219 2414 64 
Q 2138 -91 1772 -91 
Q 1169 -91 856 284 
Q 544 659 544 1381 
z
M 1991 3584 
L 1991 3584 
z
" transform="scale(0.015625)"/>
      <path id="DejaVuSans-69" d="M 603 3500 
L 1178 3500 
L 1178 0 
L 603 0 
L 603 3500 
z
M 603 4863 
L 1178 4863 
L 1178 4134 
L 603 4134 
L 603 4863 
z
" transform="scale(0.015625)"/>
      <path id="DejaVuSans-58" d="M 403 4666 
L 1081 4666 
L 2241 2931 
L 3406 4666 
L 4084 4666 
L 2584 2425 
L 4184 0 
L 3506 0 
L 2194 1984 
L 872 0 
L 191 0 
L 1856 2491 
L 403 4666 
z
" transform="scale(0.015625)"/>
      <path id="DejaVuSans-44" d="M 1259 4147 
L 1259 519 
L 2022 519 
Q 2988 519 3436 956 
Q 3884 1394 3884 2338 
Q 3884 3275 3436 3711 
Q 2988 4147 2022 4147 
L 1259 4147 
z
M 628 4666 
L 1925 4666 
Q 3281 4666 3915 4102 
Q 4550 3538 4550 2338 
Q 4550 1131 3912 565 
Q 3275 0 1925 0 
L 628 0 
L 628 4666 
z
" transform="scale(0.015625)"/>
      <path id="DejaVuSans-52" d="M 2841 2188 
Q 3044 2119 3236 1894 
Q 3428 1669 3622 1275 
L 4263 0 
L 3584 0 
L 2988 1197 
Q 2756 1666 2539 1819 
Q 2322 1972 1947 1972 
L 1259 1972 
L 1259 0 
L 628 0 
L 628 4666 
L 2053 4666 
Q 2853 4666 3247 4331 
Q 3641 3997 3641 3322 
Q 3641 2881 3436 2590 
Q 3231 2300 2841 2188 
z
M 1259 4147 
L 1259 2491 
L 2053 2491 
Q 2509 2491 2742 2702 
Q 2975 2913 2975 3322 
Q 2975 3731 2742 3939 
Q 2509 4147 2053 4147 
L 1259 4147 
z
" transform="scale(0.015625)"/>
      <path id="DejaVuSans-2014" d="M 313 1978 
L 6088 1978 
L 6088 1528 
L 313 1528 
L 313 1978 
z
" transform="scale(0.015625)"/>
      <path id="DejaVuSans-4d" d="M 628 4666 
L 1569 4666 
L 2759 1491 
L 3956 4666 
L 4897 4666 
L 4897 0 
L 4281 0 
L 4281 4097 
L 3078 897 
L 2444 897 
L 1241 4097 
L 1241 0 
L 628 0 
L 628 4666 
z
" transform="scale(0.015625)"/>
      <path id="DejaVuSans-6f" d="M 1959 3097 
Q 1497 3097 1228 2736 
Q 959 2375 959 1747 
Q 959 1119 1226 758 
Q 1494 397 1959 397 
Q 2419 397 2687 759 
Q 2956 1122 2956 1747 
Q 2956 2369 2687 2733 
Q 2419 3097 1959 3097 
z
M 1959 3584 
Q 2709 3584 3137 3096 
Q 3566 2609 3566 1747 
Q 3566 888 3137 398 
Q 2709 -91 1959 -91 
Q 1206 -91 779 398 
Q 353 888 353 1747 
Q 353 2609 779 3096 
Q 1206 3584 1959 3584 
z
" transform="scale(0.015625)"/>
      <path id="DejaVuSans-64" d="M 2906 2969 
L 2906 4863 
L 3481 4863 
L 3481 0 
L 2906 0 
L 2906 525 
Q 2725 213 2448 61 
Q 2172 -91 1784 -91 
Q 1150 -91 751 415 
Q 353 922 353 1747 
Q 353 2572 751 3078 
Q 1150 3584 1784 3584 
Q 2172 3584 2448 3432 
Q 2725 3281 2906 2969 
z
M 947 1747 
Q 947 1113 1208 752 
Q 1469 391 1925 391 
Q 2381 391 2643 752 
Q 2906 1113 2906 1747 
Q 2906 2381 2643 2742 
Q 2381 3103 1925 3103 
Q 1469 3103 1208 2742 
Q 947 2381 947 1747 
z
" transform="scale(0.015625)"/>
      <path id="DejaVuSans-65" d="M 3597 1894 
L 3597 1613 
L 953 1613 
Q 991 1019 1311 708 
Q 1631 397 2203 397 
Q 2534 397 2845 478 
Q 3156 559 3463 722 
L 3463 178 
Q 3153 47 2828 -22 
Q 2503 -91 2169 -91 
Q 1331 -91 842 396 
Q 353 884 353 1716 
Q 353 2575 817 3079 
Q 1281 3584 2069 3584 
Q 2775 3584 3186 3129 
Q 3597 2675 3597 1894 
z
M 3022 2063 
Q 3016 2534 2758 2815 
Q 2500 3097 2075 3097 
Q 1594 3097 1305 2825 
Q 1016 2553 972 2059 
L 3022 2063 
z
" transform="scale(0.015625)"/>
      <path id="DejaVuSans-36" d="M 2113 2584 
Q 1688 2584 1439 2293 
Q 1191 2003 1191 1497 
Q 1191 994 1439 701 
Q 1688 409 2113 409 
Q 2538 409 2786 701 
Q 3034 994 3034 1497 
Q 3034 2003 2786 2293 
Q 2538 2584 2113 2584 
z
M 3366 4563 
L 3366 3988 
Q 3128 4100 2886 4159 
Q 2644 4219 2406 4219 
Q 1781 4219 1451 3797 
Q 1122 3375 1075 2522 
Q 1259 2794 1537 2939 
Q 1816 3084 2150 3084 
Q 2853 3084 3261 2657 
Q 3669 2231 3669 1497 
Q 3669 778 3244 343 
Q 2819 -91 2113 -91 
Q 1303 -91 875 529 
Q 447 1150 447 2328 
Q 447 3434 972 4092 
Q 1497 4750 2381 4750 
Q 2619 4750 2861 4703 
Q 3103 4656 3366 4563 
z
" transform="scale(0.015625)"/>
      <path id="DejaVuSans-3a" d="M 750 794 
L 1409 794 
L 1409 0 
L 750 0 
L 750 794 
z
M 750 3309 
L 1409 3309 
L 1409 2516 
L 750 2516 
L 750 3309 
z
" transform="scale(0.015625)"/>
      <path id="DejaVuSans-2e" d="M 684 794 
L 1344 794 
L 1344 0 
L 684 0 
L 684 794 
z
" transform="scale(0.015625)"/>
      <path id="DejaVuSans-38" d="M 2034 2216 
Q 1584 2216 1326 1975 
Q 1069 1734 1069 1313 
Q 1069 891 1326 650 
Q 1584 409 2034 409 
Q 2484 409 2743 651 
Q 3003 894 3003 1313 
Q 3003 1734 2745 1975 
Q 2488 2216 2034 2216 
z
M 1403 2484 
Q 997 2584 770 2862 
Q 544 3141 544 3541 
Q 544 4100 942 4425 
Q 1341 4750 2034 4750 
Q 2731 4750 3128 4425 
Q 3525 4100 3525 3541 
Q 3525 3141 3298 2862 
Q 3072 2584 2669 2484 
Q 3125 2378 3379 2068 
Q 3634 1759 3634 1313 
Q 3634 634 3220 271 
Q 2806 -91 2034 -91 
Q 1263 -91 848 271 
Q 434 634 434 1313 
Q 434 1759 690 2068 
Q 947 2378 1403 2484 
z
M 1172 3481 
Q 1172 3119 1398 2916 
Q 1625 2713 2034 2713 
Q 2441 2713 2670 2916 
Q 2900 3119 2900 3481 
Q 2900 3844 2670 4047 
Q 2441 4250 2034 4250 
Q 1625 4250 1398 4047 
Q 1172 3844 1172 3481 
z
" transform="scale(0.015625)"/>
      <path id="DejaVuSans-48" d="M 628 4666 
L 1259 4666 
L 1259 2753 
L 3553 2753 
L 3553 4666 
L 4184 4666 
L 4184 0 
L 3553 0 
L 3553 2222 
L 1259 2222 
L 1259 0 
L 628 0 
L 628 4666 
z
" transform="scale(0.015625)"/>
      <path id="DejaVuSans-7a" d="M 353 3500 
L 3084 3500 
L 3084 2975 
L 922 459 
L 3084 459 
L 3084 0 
L 275 0 
L 275 525 
L 2438 3041 
L 353 3041 
L 353 3500 
z
" transform="scale(0.015625)"/>
     </defs>
     <use xlink:href="#DejaVuSans-43"/>
     <use xlink:href="#DejaVuSans-61" x="69.824219"/>
     <use xlink:href="#DejaVuSans-6c" x="131.103516"/>
     <use xlink:href="#DejaVuSans-63" x="158.886719"/>
     <use xlink:href="#DejaVuSans-75" x="213.867188"/>
     <use xlink:href="#DejaVuSans-6c" x="277.246094"/>
     <use xlink:href="#DejaVuSans-69" x="305.029297"/>
     <use xlink:href="#DejaVuSans-58" x="332.8125"/>
     <use xlink:href="#DejaVuSans-20" x="401.318359"/>
     <use xlink:href="#DejaVuSans-43" x="433.105469"/>
     <use xlink:href="#DejaVuSans-33" x="502.929688"/>
     <use xlink:href="#DejaVuSans-44" x="566.552734"/>
     <use xlink:href="#DejaVuSans-32" x="643.554688"/>
     <use xlink:href="#DejaVuSans-30" x="707.177734"/>
     <use xlink:href="#DejaVuSans-52" x="770.800781"/>
     <use xlink:href="#DejaVuSans-20" x="840.283203"/>
     <use xlink:href="#DejaVuSans-2014" x="872.070312"/>
     <use xlink:href="#DejaVuSans-20" x="972.070312"/>
     <use xlink:href="#DejaVuSans-4d" x="1003.857422"/>
     <use xlink:href="#DejaVuSans-6f" x="1090.136719"/>
     <use xlink:href="#DejaVuSans-64" x="1151.318359"/>
     <use xlink:href="#DejaVuSans-65" x="1214.794922"/>
     <use xlink:href="#DejaVuSans-20" x="1276.318359"/>
     <use xlink:href="#DejaVuSans-36" x="1308.105469"/>
     <use xlink:href="#DejaVuSans-3a" x="1371.728516"/>
     <use xlink:href="#DejaVuSans-20" x="1405.419922"/>
     <use xlink:href="#DejaVuSans-37" x="1437.207031"/>
     <use xlink:href="#DejaVuSans-37" x="1500.830078"/>
     <use xlink:href="#DejaVuSans-2e" x="1564.453125"/>
     <use xlink:href="#DejaVuSans-31" x="1596.240234"/>
     <use xlink:href="#DejaVuSans-38" x="1659.863281"/>
     <use xlink:href="#DejaVuSans-20" x="1723.486328"/>
     <use xlink:href="#DejaVuSans-48" x="1755.273438"/>
     <use xlink:href="#DejaVuSans-7a" x="1830.46875"/>
    </g>
   </g>
  </g>
  <g id="axes_2">
   <g id="patch_7">
    <path d="M 452.74005 231.564898 
L 463.171352 231.564898 
L 463.171352 41.904863 
L 452.74005 41.904863 
z
" style="fill: #ffffff"/>
   </g>
   <g id="patch_8">
    <path clip-path="url(#p3f43b4ca26)" style="fill: #ffffff; stroke: #ffffff; stroke-width: 0.01; stroke-linejoin: miter"/>
   </g>
   <g id="patch_9">
    <path d="M 452.74005 231.564898 
L 457.955701 241.047899 
L 463.171352 231.564898 
" style="fill: #053061"/>
   </g>
   <g id="patch_10">
    <path d="M 452.74005 41.904863 
L 457.955701 32.421861 
L 463.171352 41.904863 
" style="fill: #67001f"/>
   </g>
   <g id="QuadMesh_1">
    <path d="M 452.74005 231.564898 
L 463.171352 231.564898 
L 463.171352 219.711145 
L 452.74005 219.711145 
L 452.74005 231.564898 
" clip-path="url(#p3f43b4ca26)" style="fill: #0e4179"/>
    <path d="M 452.74005 219.711145 
L 463.171352 219.711145 
L 463.171352 207.857393 
L 452.74005 207.857393 
L 452.74005 219.711145 
" clip-path="url(#p3f43b4ca26)" style="fill: #1f63a8"/>
    <path d="M 452.74005 207.857393 
L 463.171352 207.857393 
L 463.171352 196.003641 
L 452.74005 196.003641 
L 452.74005 207.857393 
" clip-path="url(#p3f43b4ca26)" style="fill: #3480b9"/>
    <path d="M 452.74005 196.003641 
L 463.171352 196.003641 
L 463.171352 184.149889 
L 452.74005 184.149889 
L 452.74005 196.003641 
" clip-path="url(#p3f43b4ca26)" style="fill: #529dc8"/>
    <path d="M 452.74005 184.149889 
L 463.171352 184.149889 
L 463.171352 172.296137 
L 452.74005 172.296137 
L 452.74005 184.149889 
" clip-path="url(#p3f43b4ca26)" style="fill: #84bcd9"/>
    <path d="M 452.74005 172.296137 
L 463.171352 172.296137 
L 463.171352 160.442384 
L 452.74005 160.442384 
L 452.74005 172.296137 
" clip-path="url(#p3f43b4ca26)" style="fill: #aed3e6"/>
    <path d="M 452.74005 160.442384 
L 463.171352 160.442384 
L 463.171352 148.588632 
L 452.74005 148.588632 
L 452.74005 160.442384 
" clip-path="url(#p3f43b4ca26)" style="fill: #d4e6f1"/>
    <path d="M 452.74005 148.588632 
L 463.171352 148.588632 
L 463.171352 136.73488 
L 452.74005 136.73488 
L 452.74005 148.588632 
" clip-path="url(#p3f43b4ca26)" style="fill: #ecf2f5"/>
    <path d="M 452.74005 136.73488 
L 463.171352 136.73488 
L 463.171352 124.881128 
L 452.74005 124.881128 
L 452.74005 136.73488 
" clip-path="url(#p3f43b4ca26)" style="fill: #f9eee7"/>
    <path d="M 452.74005 124.881128 
L 463.171352 124.881128 
L 463.171352 113.027376 
L 452.74005 113.027376 
L 452.74005 124.881128 
" clip-path="url(#p3f43b4ca26)" style="fill: #fddcc9"/>
    <path d="M 452.74005 113.027376 
L 463.171352 113.027376 
L 463.171352 101.173624 
L 452.74005 101.173624 
L 452.74005 113.027376 
" clip-path="url(#p3f43b4ca26)" style="fill: #f8bb9e"/>
    <path d="M 452.74005 101.173624 
L 463.171352 101.173624 
L 463.171352 89.319871 
L 452.74005 89.319871 
L 452.74005 101.173624 
" clip-path="url(#p3f43b4ca26)" style="fill: #ee9677"/>
    <path d="M 452.74005 89.319871 
L 463.171352 89.319871 
L 463.171352 77.466119 
L 452.74005 77.466119 
L 452.74005 89.319871 
" clip-path="url(#p3f43b4ca26)" style="fill: #db6b55"/>
    <path d="M 452.74005 77.466119 
L 463.171352 77.466119 
L 463.171352 65.612367 
L 452.74005 65.612367 
L 452.74005 77.466119 
" clip-path="url(#p3f43b4ca26)" style="fill: #c53e3d"/>
    <path d="M 452.74005 65.612367 
L 463.171352 65.612367 
L 463.171352 53.758615 
L 452.74005 53.758615 
L 452.74005 65.612367 
" clip-path="url(#p3f43b4ca26)" style="fill: #ab162a"/>
    <path d="M 452.74005 53.758615 
L 463.171352 53.758615 
L 463.171352 41.904863 
L 452.74005 41.904863 
L 452.74005 53.758615 
" clip-path="url(#p3f43b4ca26)" style="fill: #7c0722"/>
   </g>
   <g id="matplotlib.axis_3"/>
   <g id="matplotlib.axis_4">
    <g id="ytick_10">
     <g id="line2d_19">
      <defs>
       <path id="mda61a7cf3d" d="M 0 0 
L 3.5 0 
" style="stroke: #000000; stroke-width: 0.8"/>
      </defs>
      <g>
       <use xlink:href="#mda61a7cf3d" x="463.171352" y="231.564898" style="stroke: #000000; stroke-width: 0.8"/>
      </g>
     </g>
     <g id="text_22">
      <!-- −1.00 -->
      <g transform="translate(470.171352 235.364116) scale(0.1 -0.1)">
       <defs>
        <path id="DejaVuSans-2212" d="M 678 2272 
L 4684 2272 
L 4684 1741 
L 678 1741 
L 678 2272 
z
" transform="scale(0.015625)"/>
       </defs>
       <use xlink:href="#DejaVuSans-2212"/>
       <use xlink:href="#DejaVuSans-31" x="83.789062"/>
       <use xlink:href="#DejaVuSans-2e" x="147.412109"/>
       <use xlink:href="#DejaVuSans-30" x="179.199219"/>
       <use xlink:href="#DejaVuSans-30" x="242.822266"/>
      </g>
     </g>
    </g>
    <g id="ytick_11">
     <g id="line2d_20">
      <g>
       <use xlink:href="#mda61a7cf3d" x="463.171352" y="207.857393" style="stroke: #000000; stroke-width: 0.8"/>
      </g>
     </g>
     <g id="text_23">
      <!-- −0.75 -->
      <g transform="translate(470.171352 211.656612) scale(0.1 -0.1)">
       <use xlink:href="#DejaVuSans-2212"/>
       <use xlink:href="#DejaVuSans-30" x="83.789062"/>
       <use xlink:href="#DejaVuSans-2e" x="147.412109"/>
       <use xlink:href="#DejaVuSans-37" x="179.199219"/>
       <use xlink:href="#DejaVuSans-35" x="242.822266"/>
      </g>
     </g>
    </g>
    <g id="ytick_12">
     <g id="line2d_21">
      <g>
       <use xlink:href="#mda61a7cf3d" x="463.171352" y="184.149889" style="stroke: #000000; stroke-width: 0.8"/>
      </g>
     </g>
     <g id="text_24">
      <!-- −0.50 -->
      <g transform="translate(470.171352 187.949108) scale(0.1 -0.1)">
       <use xlink:href="#DejaVuSans-2212"/>
       <use xlink:href="#DejaVuSans-30" x="83.789062"/>
       <use xlink:href="#DejaVuSans-2e" x="147.412109"/>
       <use xlink:href="#DejaVuSans-35" x="179.199219"/>
       <use xlink:href="#DejaVuSans-30" x="242.822266"/>
      </g>
     </g>
    </g>
    <g id="ytick_13">
     <g id="line2d_22">
      <g>
       <use xlink:href="#mda61a7cf3d" x="463.171352" y="160.442384" style="stroke: #000000; stroke-width: 0.8"/>
      </g>
     </g>
     <g id="text_25">
      <!-- −0.25 -->
      <g transform="translate(470.171352 164.241603) scale(0.1 -0.1)">
       <use xlink:href="#DejaVuSans-2212"/>
       <use xlink:href="#DejaVuSans-30" x="83.789062"/>
       <use xlink:href="#DejaVuSans-2e" x="147.412109"/>
       <use xlink:href="#DejaVuSans-32" x="179.199219"/>
       <use xlink:href="#DejaVuSans-35" x="242.822266"/>
      </g>
     </g>
    </g>
    <g id="ytick_14">
     <g id="line2d_23">
      <g>
       <use xlink:href="#mda61a7cf3d" x="463.171352" y="136.73488" style="stroke: #000000; stroke-width: 0.8"/>
      </g>
     </g>
     <g id="text_26">
      <!-- 0.00 -->
      <g transform="translate(470.171352 140.534099) scale(0.1 -0.1)">
       <use xlink:href="#DejaVuSans-30"/>
       <use xlink:href="#DejaVuSans-2e" x="63.623047"/>
       <use xlink:href="#DejaVuSans-30" x="95.410156"/>
       <use xlink:href="#DejaVuSans-30" x="159.033203"/>
      </g>
     </g>
    </g>
    <g id="ytick_15">
     <g id="line2d_24">
      <g>
       <use xlink:href="#mda61a7cf3d" x="463.171352" y="113.027376" style="stroke: #000000; stroke-width: 0.8"/>
      </g>
     </g>
     <g id="text_27">
      <!-- 0.25 -->
      <g transform="translate(470.171352 116.826594) scale(0.1 -0.1)">
       <use xlink:href="#DejaVuSans-30"/>
       <use xlink:href="#DejaVuSans-2e" x="63.623047"/>
       <use xlink:href="#DejaVuSans-32" x="95.410156"/>
       <use xlink:href="#DejaVuSans-35" x="159.033203"/>
      </g>
     </g>
    </g>
    <g id="ytick_16">
     <g id="line2d_25">
      <g>
       <use xlink:href="#mda61a7cf3d" x="463.171352" y="89.319871" style="stroke: #000000; stroke-width: 0.8"/>
      </g>
     </g>
     <g id="text_28">
      <!-- 0.50 -->
      <g transform="translate(470.171352 93.11909) scale(0.1 -0.1)">
       <use xlink:href="#DejaVuSans-30"/>
       <use xlink:href="#DejaVuSans-2e" x="63.623047"/>
       <use xlink:href="#DejaVuSans-35" x="95.410156"/>
       <use xlink:href="#DejaVuSans-30" x="159.033203"/>
      </g>
     </g>
    </g>
    <g id="ytick_17">
     <g id="line2d_26">
      <g>
       <use xlink:href="#mda61a7cf3d" x="463.171352" y="65.612367" style="stroke: #000000; stroke-width: 0.8"/>
      </g>
     </g>
     <g id="text_29">
      <!-- 0.75 -->
      <g transform="translate(470.171352 69.411586) scale(0.1 -0.1)">
       <use xlink:href="#DejaVuSans-30"/>
       <use xlink:href="#DejaVuSans-2e" x="63.623047"/>
       <use xlink:href="#DejaVuSans-37" x="95.410156"/>
       <use xlink:href="#DejaVuSans-35" x="159.033203"/>
      </g>
     </g>
    </g>
    <g id="ytick_18">
     <g id="line2d_27">
      <g>
       <use xlink:href="#mda61a7cf3d" x="463.171352" y="41.904863" style="stroke: #000000; stroke-width: 0.8"/>
      </g>
     </g>
     <g id="text_30">
      <!-- 1.00 -->
      <g transform="translate(470.171352 45.704081) scale(0.1 -0.1)">
       <use xlink:href="#DejaVuSans-31"/>
       <use xlink:href="#DejaVuSans-2e" x="63.623047"/>
       <use xlink:href="#DejaVuSans-30" x="95.410156"/>
       <use xlink:href="#DejaVuSans-30" x="159.033203"/>
      </g>
     </g>
    </g>
    <g id="text_31">
     <!-- normalized z displacement -->
     <g transform="translate(512.415102 204.017693) rotate(-90) scale(0.1 -0.1)">
      <defs>
       <path id="DejaVuSans-6e" d="M 3513 2113 
L 3513 0 
L 2938 0 
L 2938 2094 
Q 2938 2591 2744 2837 
Q 2550 3084 2163 3084 
Q 1697 3084 1428 2787 
Q 1159 2491 1159 1978 
L 1159 0 
L 581 0 
L 581 3500 
L 1159 3500 
L 1159 2956 
Q 1366 3272 1645 3428 
Q 1925 3584 2291 3584 
Q 2894 3584 3203 3211 
Q 3513 2838 3513 2113 
z
" transform="scale(0.015625)"/>
       <path id="DejaVuSans-72" d="M 2631 2963 
Q 2534 3019 2420 3045 
Q 2306 3072 2169 3072 
Q 1681 3072 1420 2755 
Q 1159 2438 1159 1844 
L 1159 0 
L 581 0 
L 581 3500 
L 1159 3500 
L 1159 2956 
Q 1341 3275 1631 3429 
Q 1922 3584 2338 3584 
Q 2397 3584 2469 3576 
Q 2541 3569 2628 3553 
L 2631 2963 
z
" transform="scale(0.015625)"/>
       <path id="DejaVuSans-73" d="M 2834 3397 
L 2834 2853 
Q 2591 2978 2328 3040 
Q 2066 3103 1784 3103 
Q 1356 3103 1142 2972 
Q 928 2841 928 2578 
Q 928 2378 1081 2264 
Q 1234 2150 1697 2047 
L 1894 2003 
Q 2506 1872 2764 1633 
Q 3022 1394 3022 966 
Q 3022 478 2636 193 
Q 2250 -91 1575 -91 
Q 1294 -91 989 -36 
Q 684 19 347 128 
L 347 722 
Q 666 556 975 473 
Q 1284 391 1588 391 
Q 1994 391 2212 530 
Q 2431 669 2431 922 
Q 2431 1156 2273 1281 
Q 2116 1406 1581 1522 
L 1381 1569 
Q 847 1681 609 1914 
Q 372 2147 372 2553 
Q 372 3047 722 3315 
Q 1072 3584 1716 3584 
Q 2034 3584 2315 3537 
Q 2597 3491 2834 3397 
z
" transform="scale(0.015625)"/>
       <path id="DejaVuSans-70" d="M 1159 525 
L 1159 -1331 
L 581 -1331 
L 581 3500 
L 1159 3500 
L 1159 2969 
Q 1341 3281 1617 3432 
Q 1894 3584 2278 3584 
Q 2916 3584 3314 3078 
Q 3713 2572 3713 1747 
Q 3713 922 3314 415 
Q 2916 -91 2278 -91 
Q 1894 -91 1617 61 
Q 1341 213 1159 525 
z
M 3116 1747 
Q 3116 2381 2855 2742 
Q 2594 3103 2138 3103 
Q 1681 3103 1420 2742 
Q 1159 2381 1159 1747 
Q 1159 1113 1420 752 
Q 1681 391 2138 391 
Q 2594 391 2855 752 
Q 3116 1113 3116 1747 
z
" transform="scale(0.015625)"/>
       <path id="DejaVuSans-74" d="M 1172 4494 
L 1172 3500 
L 2356 3500 
L 2356 3053 
L 1172 3053 
L 1172 1153 
Q 1172 725 1289 603 
Q 1406 481 1766 481 
L 2356 481 
L 2356 0 
L 1766 0 
Q 1100 0 847 248 
Q 594 497 594 1153 
L 594 3053 
L 172 3053 
L 172 3500 
L 594 3500 
L 594 4494 
L 1172 4494 
z
" transform="scale(0.015625)"/>
      </defs>
      <use xlink:href="#DejaVuSans-6e"/>
      <use xlink:href="#DejaVuSans-6f" x="63.378906"/>
      <use xlink:href="#DejaVuSans-72" x="124.560547"/>
      <use xlink:href="#DejaVuSans-6d" x="163.923828"/>
      <use xlink:href="#DejaVuSans-61" x="261.335938"/>
      <use xlink:href="#DejaVuSans-6c" x="322.615234"/>
      <use xlink:href="#DejaVuSans-69" x="350.398438"/>
      <use xlink:href="#DejaVuSans-7a" x="378.181641"/>
      <use xlink:href="#DejaVuSans-65" x="430.671875"/>
      <use xlink:href="#DejaVuSans-64" x="492.195312"/>
      <use xlink:href="#DejaVuSans-20" x="555.671875"/>
      <use xlink:href="#DejaVuSans-7a" x="587.458984"/>
      <use xlink:href="#DejaVuSans-20" x="639.949219"/>
      <use xlink:href="#DejaVuSans-64" x="671.736328"/>
      <use xlink:href="#DejaVuSans-69" x="735.212891"/>
      <use xlink:href="#DejaVuSans-73" x="762.996094"/>
      <use xlink:href="#DejaVuSans-70" x="815.095703"/>
      <use xlink:href="#DejaVuSans-6c" x="878.572266"/>
      <use xlink:href="#DejaVuSans-61" x="906.355469"/>
      <use xlink:href="#DejaVuSans-63" x="967.634766"/>
      <use xlink:href="#DejaVuSans-65" x="1022.615234"/>
      <use xlink:href="#DejaVuSans-6d" x="1084.138672"/>
      <use xlink:href="#DejaVuSans-65" x="1181.550781"/>
      <use xlink:href="#DejaVuSans-6e" x="1243.074219"/>
      <use xlink:href="#DejaVuSans-74" x="1306.453125"/>
     </g>
    </g>
   </g>
   <g id="LineCollection_1"/>
   <g id="patch_11">
    <path d="M 452.74005 231.564898 
L 457.955701 241.047899 
L 463.171352 231.564898 
L 463.171352 41.904863 
L 457.955701 32.421861 
L 452.74005 41.904863 
L 452.74005 231.564898 
z
" style="fill: none; stroke: #000000; stroke-width: 0.8; stroke-linejoin: miter; stroke-linecap: square"/>
   </g>
  </g>
 </g>
 <defs>
  <clipPath id="pac7c3a982a">
   <rect x="42.765865" y="41.3943" width="381.362319" height="190.681159"/>
  </clipPath>
  <clipPath id="p3f43b4ca26">
   <rect x="452.74005" y="41.904863" width="10.431302" height="189.660035"/>
  </clipPath>
 </defs>
 <defs>
  <pattern id="ha588f2bdcb" patternUnits="userSpaceOnUse" x="0" y="0" width="72" height="72">
   <rect x="0" y="0" width="73" height="73" fill="#333333"/>
   <path d="M -36 36 
L 36 -36 
M -33 39 
L 39 -33 
M -30 42 
L 42 -30 
M -27 45 
L 45 -27 
M -24 48 
L 48 -24 
M -21 51 
L 51 -21 
M -18 54 
L 54 -18 
M -15 57 
L 57 -15 
M -12 60 
L 60 -12 
M -9 63 
L 63 -9 
M -6 66 
L 66 -6 
M -3 69 
L 69 -3 
M 0 72 
L 72 0 
M 3 75 
L 75 3 
M 6 78 
L 78 6 
M 9 81 
L 81 9 
M 12 84 
L 84 12 
M 15 87 
L 87 15 
M 18 90 
L 90 18 
M 21 93 
L 93 21 
M 24 96 
L 96 24 
M 27 99 
L 99 27 
M 30 102 
L 102 30 
M 33 105 
L 105 33 
M 36 108 
L 108 36 
" style="fill: #333333; stroke: #333333; stroke-width: 1.0; stroke-linecap: butt; stroke-linejoin: miter; stroke-opacity: 0.3"/>
  </pattern>
 </defs>
</svg>
