<?xml version="1.0" encoding="utf-8" standalone="no"?>
<!DOCTYPE svg PUBLIC "-//W3C//DTD SVG 1.1//EN"
  "http://www.w3.org/Graphics/SVG/1.1/DTD/svg11.dtd">
<svg xmlns:xlink="http://www.w3.org/1999/xlink" width="648pt" height="360pt" viewBox="0 0 648 360" xmlns="http://www.w3.org/2000/svg" version="1.1">
 <metadata>
  <rdf:RDF xmlns:dc="http://purl.org/dc/elements/1.1/" xmlns:cc="http://creativecommons.org/ns#" xmlns:rdf="http://www.w3.org/1999/02/22-rdf-syntax-ns#">
   <cc:Work>
    <dc:type rdf:resource="http://purl.org/dc/dcmitype/StillImage"/>
    <dc:format>image/svg+xml</dc:format>
    <dc:creator>
     <cc:Agent>
      <dc:title>Matplotlib v3.6.3, https://matplotlib.org/</dc:title>
     </cc:Agent>
    </dc:creator>
   </cc:Work>
  </rdf:RDF>
 </metadata>
 <defs>
  <style type="text/css">*{stroke-linejoin: round; stroke-linecap: butt}</style>
 </defs>
 <g id="figure_1">
  <g id="patch_1">
   <path d="M 0 360 
L 648 360 
L 648 0 
L 0 0 
z
" style="fill: #ffffff"/>
  </g>
  <g id="axes_1">
   <g id="patch_2">
    <path d="M 39.58149 326.64351 
L 644.99976 326.64351 
L 644.99976 18.118365 
L 39.58149 18.118365 
z
" style="fill: #ffffff"/>
   </g>
   <g id="matplotlib.axis_1">
    <g id="xtick_1">
     <g id="line2d_1">
      <path d="M 39.58149 326.64351 
L 39.58149 18.118365 
" clip-path="url(#p31d94f6503)" style="fill: none; stroke: #b0b0b0; stroke-opacity: 0.22; stroke-width: 0.8; stroke-linecap: square"/>
     </g>
     <g id="line2d_2">
      <defs>
       <path id="mf838ffb784" d="M 0 0 
L 0 3.5 
" style="stroke: #000000; stroke-width: 0.8"/>
      </defs>
      <g>
       <use xlink:href="#mf838ffb784" x="39.58149" y="326.64351" style="stroke: #000000; stroke-width: 0.8"/>
      </g>
     </g>
     <g id="text_1">
      <!-- 0 -->
      <g transform="translate(36.40024 341.241947) scale(0.1 -0.1)">
       <defs>
        <path id="DejaVuSans-30" d="M 2034 4250 
Q 1547 4250 1301 3770 
Q 1056 3291 1056 2328 
Q 1056 1369 1301 889 
Q 1547 409 2034 409 
Q 2525 409 2770 889 
Q 3016 1369 3016 2328 
Q 3016 3291 2770 3770 
Q 2525 4250 2034 4250 
z
M 2034 4750 
Q 2819 4750 3233 4129 
Q 3647 3509 3647 2328 
Q 3647 1150 3233 529 
Q 2819 -91 2034 -91 
Q 1250 -91 836 529 
Q 422 1150 422 2328 
Q 422 3509 836 4129 
Q 1250 4750 2034 4750 
z
" transform="scale(0.015625)"/>
       </defs>
       <use xlink:href="#DejaVuSans-30"/>
      </g>
     </g>
    </g>
    <g id="xtick_2">
     <g id="line2d_3">
      <path d="M 147.691895 326.64351 
L 147.691895 18.118365 
" clip-path="url(#p31d94f6503)" style="fill: none; stroke: #b0b0b0; stroke-opacity: 0.22; stroke-width: 0.8; stroke-linecap: square"/>
     </g>
     <g id="line2d_4">
      <g>
       <use xlink:href="#mf838ffb784" x="147.691895" y="326.64351" style="stroke: #000000; stroke-width: 0.8"/>
      </g>
     </g>
     <g id="text_2">
      <!-- 1000 -->
      <g transform="translate(134.966895 341.241947) scale(0.1 -0.1)">
       <defs>
        <path id="DejaVuSans-31" d="M 794 531 
L 1825 531 
L 1825 4091 
L 703 3866 
L 703 4441 
L 1819 4666 
L 2450 4666 
L 2450 531 
L 3481 531 
L 3481 0 
L 794 0 
L 794 531 
z
" transform="scale(0.015625)"/>
       </defs>
       <use xlink:href="#DejaVuSans-31"/>
       <use xlink:href="#DejaVuSans-30" x="63.623047"/>
       <use xlink:href="#DejaVuSans-30" x="127.246094"/>
       <use xlink:href="#DejaVuSans-30" x="190.869141"/>
      </g>
     </g>
    </g>
    <g id="xtick_3">
     <g id="line2d_5">
      <path d="M 255.802301 326.64351 
L 255.802301 18.118365 
" clip-path="url(#p31d94f6503)" style="fill: none; stroke: #b0b0b0; stroke-opacity: 0.22; stroke-width: 0.8; stroke-linecap: square"/>
     </g>
     <g id="line2d_6">
      <g>
       <use xlink:href="#mf838ffb784" x="255.802301" y="326.64351" style="stroke: #000000; stroke-width: 0.8"/>
      </g>
     </g>
     <g id="text_3">
      <!-- 2000 -->
      <g transform="translate(243.077301 341.241947) scale(0.1 -0.1)">
       <defs>
        <path id="DejaVuSans-32" d="M 1228 531 
L 3431 531 
L 3431 0 
L 469 0 
L 469 531 
Q 828 903 1448 1529 
Q 2069 2156 2228 2338 
Q 2531 2678 2651 2914 
Q 2772 3150 2772 3378 
Q 2772 3750 2511 3984 
Q 2250 4219 1831 4219 
Q 1534 4219 1204 4116 
Q 875 4013 500 3803 
L 500 4441 
Q 881 4594 1212 4672 
Q 1544 4750 1819 4750 
Q 2544 4750 2975 4387 
Q 3406 4025 3406 3419 
Q 3406 3131 3298 2873 
Q 3191 2616 2906 2266 
Q 2828 2175 2409 1742 
Q 1991 1309 1228 531 
z
" transform="scale(0.015625)"/>
       </defs>
       <use xlink:href="#DejaVuSans-32"/>
       <use xlink:href="#DejaVuSans-30" x="63.623047"/>
       <use xlink:href="#DejaVuSans-30" x="127.246094"/>
       <use xlink:href="#DejaVuSans-30" x="190.869141"/>
      </g>
     </g>
    </g>
    <g id="xtick_4">
     <g id="line2d_7">
      <path d="M 363.912706 326.64351 
L 363.912706 18.118365 
" clip-path="url(#p31d94f6503)" style="fill: none; stroke: #b0b0b0; stroke-opacity: 0.22; stroke-width: 0.8; stroke-linecap: square"/>
     </g>
     <g id="line2d_8">
      <g>
       <use xlink:href="#mf838ffb784" x="363.912706" y="326.64351" style="stroke: #000000; stroke-width: 0.8"/>
      </g>
     </g>
     <g id="text_4">
      <!-- 3000 -->
      <g transform="translate(351.187706 341.241947) scale(0.1 -0.1)">
       <defs>
        <path id="DejaVuSans-33" d="M 2597 2516 
Q 3050 2419 3304 2112 
Q 3559 1806 3559 1356 
Q 3559 666 3084 287 
Q 2609 -91 1734 -91 
Q 1441 -91 1130 -33 
Q 819 25 488 141 
L 488 750 
Q 750 597 1062 519 
Q 1375 441 1716 441 
Q 2309 441 2620 675 
Q 2931 909 2931 1356 
Q 2931 1769 2642 2001 
Q 2353 2234 1838 2234 
L 1294 2234 
L 1294 2753 
L 1863 2753 
Q 2328 2753 2575 2939 
Q 2822 3125 2822 3475 
Q 2822 3834 2567 4026 
Q 2313 4219 1838 4219 
Q 1578 4219 1281 4162 
Q 984 4106 628 3988 
L 628 4550 
Q 988 4650 1302 4700 
Q 1616 4750 1894 4750 
Q 2613 4750 3031 4423 
Q 3450 4097 3450 3541 
Q 3450 3153 3228 2886 
Q 3006 2619 2597 2516 
z
" transform="scale(0.015625)"/>
       </defs>
       <use xlink:href="#DejaVuSans-33"/>
       <use xlink:href="#DejaVuSans-30" x="63.623047"/>
       <use xlink:href="#DejaVuSans-30" x="127.246094"/>
       <use xlink:href="#DejaVuSans-30" x="190.869141"/>
      </g>
     </g>
    </g>
    <g id="xtick_5">
     <g id="line2d_9">
      <path d="M 472.023111 326.64351 
L 472.023111 18.118365 
" clip-path="url(#p31d94f6503)" style="fill: none; stroke: #b0b0b0; stroke-opacity: 0.22; stroke-width: 0.8; stroke-linecap: square"/>
     </g>
     <g id="line2d_10">
      <g>
       <use xlink:href="#mf838ffb784" x="472.023111" y="326.64351" style="stroke: #000000; stroke-width: 0.8"/>
      </g>
     </g>
     <g id="text_5">
      <!-- 4000 -->
      <g transform="translate(459.298111 341.241947) scale(0.1 -0.1)">
       <defs>
        <path id="DejaVuSans-34" d="M 2419 4116 
L 825 1625 
L 2419 1625 
L 2419 4116 
z
M 2253 4666 
L 3047 4666 
L 3047 1625 
L 3713 1625 
L 3713 1100 
L 3047 1100 
L 3047 0 
L 2419 0 
L 2419 1100 
L 313 1100 
L 313 1709 
L 2253 4666 
z
" transform="scale(0.015625)"/>
       </defs>
       <use xlink:href="#DejaVuSans-34"/>
       <use xlink:href="#DejaVuSans-30" x="63.623047"/>
       <use xlink:href="#DejaVuSans-30" x="127.246094"/>
       <use xlink:href="#DejaVuSans-30" x="190.869141"/>
      </g>
     </g>
    </g>
    <g id="xtick_6">
     <g id="line2d_11">
      <path d="M 580.133517 326.64351 
L 580.133517 18.118365 
" clip-path="url(#p31d94f6503)" style="fill: none; stroke: #b0b0b0; stroke-opacity: 0.22; stroke-width: 0.8; stroke-linecap: square"/>
     </g>
     <g id="line2d_12">
      <g>
       <use xlink:href="#mf838ffb784" x="580.133517" y="326.64351" style="stroke: #000000; stroke-width: 0.8"/>
      </g>
     </g>
     <g id="text_6">
      <!-- 5000 -->
      <g transform="translate(567.408517 341.241947) scale(0.1 -0.1)">
       <defs>
        <path id="DejaVuSans-35" d="M 691 4666 
L 3169 4666 
L 3169 4134 
L 1269 4134 
L 1269 2991 
Q 1406 3038 1543 3061 
Q 1681 3084 1819 3084 
Q 2600 3084 3056 2656 
Q 3513 2228 3513 1497 
Q 3513 744 3044 326 
Q 2575 -91 1722 -91 
Q 1428 -91 1123 -41 
Q 819 9 494 109 
L 494 744 
Q 775 591 1075 516 
Q 1375 441 1709 441 
Q 2250 441 2565 725 
Q 2881 1009 2881 1497 
Q 2881 1984 2565 2268 
Q 2250 2553 1709 2553 
Q 1456 2553 1204 2497 
Q 953 2441 691 2322 
L 691 4666 
z
" transform="scale(0.015625)"/>
       </defs>
       <use xlink:href="#DejaVuSans-35"/>
       <use xlink:href="#DejaVuSans-30" x="63.623047"/>
       <use xlink:href="#DejaVuSans-30" x="127.246094"/>
       <use xlink:href="#DejaVuSans-30" x="190.869141"/>
      </g>
     </g>
    </g>
    <g id="text_7">
     <!-- frequency [Hz] -->
     <g transform="translate(305.339063 354.920073) scale(0.1 -0.1)">
      <defs>
       <path id="DejaVuSans-66" d="M 2375 4863 
L 2375 4384 
L 1825 4384 
Q 1516 4384 1395 4259 
Q 1275 4134 1275 3809 
L 1275 3500 
L 2222 3500 
L 2222 3053 
L 1275 3053 
L 1275 0 
L 697 0 
L 697 3053 
L 147 3053 
L 147 3500 
L 697 3500 
L 697 3744 
Q 697 4328 969 4595 
Q 1241 4863 1831 4863 
L 2375 4863 
z
" transform="scale(0.015625)"/>
       <path id="DejaVuSans-72" d="M 2631 2963 
Q 2534 3019 2420 3045 
Q 2306 3072 2169 3072 
Q 1681 3072 1420 2755 
Q 1159 2438 1159 1844 
L 1159 0 
L 581 0 
L 581 3500 
L 1159 3500 
L 1159 2956 
Q 1341 3275 1631 3429 
Q 1922 3584 2338 3584 
Q 2397 3584 2469 3576 
Q 2541 3569 2628 3553 
L 2631 2963 
z
" transform="scale(0.015625)"/>
       <path id="DejaVuSans-65" d="M 3597 1894 
L 3597 1613 
L 953 1613 
Q 991 1019 1311 708 
Q 1631 397 2203 397 
Q 2534 397 2845 478 
Q 3156 559 3463 722 
L 3463 178 
Q 3153 47 2828 -22 
Q 2503 -91 2169 -91 
Q 1331 -91 842 396 
Q 353 884 353 1716 
Q 353 2575 817 3079 
Q 1281 3584 2069 3584 
Q 2775 3584 3186 3129 
Q 3597 2675 3597 1894 
z
M 3022 2063 
Q 3016 2534 2758 2815 
Q 2500 3097 2075 3097 
Q 1594 3097 1305 2825 
Q 1016 2553 972 2059 
L 3022 2063 
z
" transform="scale(0.015625)"/>
       <path id="DejaVuSans-71" d="M 947 1747 
Q 947 1113 1208 752 
Q 1469 391 1925 391 
Q 2381 391 2643 752 
Q 2906 1113 2906 1747 
Q 2906 2381 2643 2742 
Q 2381 3103 1925 3103 
Q 1469 3103 1208 2742 
Q 947 2381 947 1747 
z
M 2906 525 
Q 2725 213 2448 61 
Q 2172 -91 1784 -91 
Q 1150 -91 751 415 
Q 353 922 353 1747 
Q 353 2572 751 3078 
Q 1150 3584 1784 3584 
Q 2172 3584 2448 3432 
Q 2725 3281 2906 2969 
L 2906 3500 
L 3481 3500 
L 3481 -1331 
L 2906 -1331 
L 2906 525 
z
" transform="scale(0.015625)"/>
       <path id="DejaVuSans-75" d="M 544 1381 
L 544 3500 
L 1119 3500 
L 1119 1403 
Q 1119 906 1312 657 
Q 1506 409 1894 409 
Q 2359 409 2629 706 
Q 2900 1003 2900 1516 
L 2900 3500 
L 3475 3500 
L 3475 0 
L 2900 0 
L 2900 538 
Q 2691 219 2414 64 
Q 2138 -91 1772 -91 
Q 1169 -91 856 284 
Q 544 659 544 1381 
z
M 1991 3584 
L 1991 3584 
z
" transform="scale(0.015625)"/>
       <path id="DejaVuSans-6e" d="M 3513 2113 
L 3513 0 
L 2938 0 
L 2938 2094 
Q 2938 2591 2744 2837 
Q 2550 3084 2163 3084 
Q 1697 3084 1428 2787 
Q 1159 2491 1159 1978 
L 1159 0 
L 581 0 
L 581 3500 
L 1159 3500 
L 1159 2956 
Q 1366 3272 1645 3428 
Q 1925 3584 2291 3584 
Q 2894 3584 3203 3211 
Q 3513 2838 3513 2113 
z
" transform="scale(0.015625)"/>
       <path id="DejaVuSans-63" d="M 3122 3366 
L 3122 2828 
Q 2878 2963 2633 3030 
Q 2388 3097 2138 3097 
Q 1578 3097 1268 2742 
Q 959 2388 959 1747 
Q 959 1106 1268 751 
Q 1578 397 2138 397 
Q 2388 397 2633 464 
Q 2878 531 3122 666 
L 3122 134 
Q 2881 22 2623 -34 
Q 2366 -91 2075 -91 
Q 1284 -91 818 406 
Q 353 903 353 1747 
Q 353 2603 823 3093 
Q 1294 3584 2113 3584 
Q 2378 3584 2631 3529 
Q 2884 3475 3122 3366 
z
" transform="scale(0.015625)"/>
       <path id="DejaVuSans-79" d="M 2059 -325 
Q 1816 -950 1584 -1140 
Q 1353 -1331 966 -1331 
L 506 -1331 
L 506 -850 
L 844 -850 
Q 1081 -850 1212 -737 
Q 1344 -625 1503 -206 
L 1606 56 
L 191 3500 
L 800 3500 
L 1894 763 
L 2988 3500 
L 3597 3500 
L 2059 -325 
z
" transform="scale(0.015625)"/>
       <path id="DejaVuSans-20" transform="scale(0.015625)"/>
       <path id="DejaVuSans-5b" d="M 550 4863 
L 1875 4863 
L 1875 4416 
L 1125 4416 
L 1125 -397 
L 1875 -397 
L 1875 -844 
L 550 -844 
L 550 4863 
z
" transform="scale(0.015625)"/>
       <path id="DejaVuSans-48" d="M 628 4666 
L 1259 4666 
L 1259 2753 
L 3553 2753 
L 3553 4666 
L 4184 4666 
L 4184 0 
L 3553 0 
L 3553 2222 
L 1259 2222 
L 1259 0 
L 628 0 
L 628 4666 
z
" transform="scale(0.015625)"/>
       <path id="DejaVuSans-7a" d="M 353 3500 
L 3084 3500 
L 3084 2975 
L 922 459 
L 3084 459 
L 3084 0 
L 275 0 
L 275 525 
L 2438 3041 
L 353 3041 
L 353 3500 
z
" transform="scale(0.015625)"/>
       <path id="DejaVuSans-5d" d="M 1947 4863 
L 1947 -844 
L 622 -844 
L 622 -397 
L 1369 -397 
L 1369 4416 
L 622 4416 
L 622 4863 
L 1947 4863 
z
" transform="scale(0.015625)"/>
      </defs>
      <use xlink:href="#DejaVuSans-66"/>
      <use xlink:href="#DejaVuSans-72" x="35.205078"/>
      <use xlink:href="#DejaVuSans-65" x="74.068359"/>
      <use xlink:href="#DejaVuSans-71" x="135.591797"/>
      <use xlink:href="#DejaVuSans-75" x="199.068359"/>
      <use xlink:href="#DejaVuSans-65" x="262.447266"/>
      <use xlink:href="#DejaVuSans-6e" x="323.970703"/>
      <use xlink:href="#DejaVuSans-63" x="387.349609"/>
      <use xlink:href="#DejaVuSans-79" x="442.330078"/>
      <use xlink:href="#DejaVuSans-20" x="501.509766"/>
      <use xlink:href="#DejaVuSans-5b" x="533.296875"/>
      <use xlink:href="#DejaVuSans-48" x="572.310547"/>
      <use xlink:href="#DejaVuSans-7a" x="647.505859"/>
      <use xlink:href="#DejaVuSans-5d" x="699.996094"/>
     </g>
    </g>
   </g>
   <g id="matplotlib.axis_2">
    <g id="ytick_1">
     <g id="line2d_13">
      <path d="M 39.58149 326.64351 
L 644.99976 326.64351 
" clip-path="url(#p31d94f6503)" style="fill: none; stroke: #b0b0b0; stroke-opacity: 0.22; stroke-width: 0.8; stroke-linecap: square"/>
     </g>
     <g id="line2d_14">
      <defs>
       <path id="m42b29fd5f3" d="M 0 0 
L -3.5 0 
" style="stroke: #000000; stroke-width: 0.8"/>
      </defs>
      <g>
       <use xlink:href="#m42b29fd5f3" x="39.58149" y="326.64351" style="stroke: #000000; stroke-width: 0.8"/>
      </g>
     </g>
     <g id="text_8">
      <!-- 0.0 -->
      <g transform="translate(16.678365 330.442729) scale(0.1 -0.1)">
       <defs>
        <path id="DejaVuSans-2e" d="M 684 794 
L 1344 794 
L 1344 0 
L 684 0 
L 684 794 
z
" transform="scale(0.015625)"/>
       </defs>
       <use xlink:href="#DejaVuSans-30"/>
       <use xlink:href="#DejaVuSans-2e" x="63.623047"/>
       <use xlink:href="#DejaVuSans-30" x="95.410156"/>
      </g>
     </g>
    </g>
    <g id="ytick_2">
     <g id="line2d_15">
      <path d="M 39.58149 266.735715 
L 644.99976 266.735715 
" clip-path="url(#p31d94f6503)" style="fill: none; stroke: #b0b0b0; stroke-opacity: 0.22; stroke-width: 0.8; stroke-linecap: square"/>
     </g>
     <g id="line2d_16">
      <g>
       <use xlink:href="#m42b29fd5f3" x="39.58149" y="266.735715" style="stroke: #000000; stroke-width: 0.8"/>
      </g>
     </g>
     <g id="text_9">
      <!-- 0.2 -->
      <g transform="translate(16.678365 270.534934) scale(0.1 -0.1)">
       <use xlink:href="#DejaVuSans-30"/>
       <use xlink:href="#DejaVuSans-2e" x="63.623047"/>
       <use xlink:href="#DejaVuSans-32" x="95.410156"/>
      </g>
     </g>
    </g>
    <g id="ytick_3">
     <g id="line2d_17">
      <path d="M 39.58149 206.82792 
L 644.99976 206.82792 
" clip-path="url(#p31d94f6503)" style="fill: none; stroke: #b0b0b0; stroke-opacity: 0.22; stroke-width: 0.8; stroke-linecap: square"/>
     </g>
     <g id="line2d_18">
      <g>
       <use xlink:href="#m42b29fd5f3" x="39.58149" y="206.82792" style="stroke: #000000; stroke-width: 0.8"/>
      </g>
     </g>
     <g id="text_10">
      <!-- 0.4 -->
      <g transform="translate(16.678365 210.627138) scale(0.1 -0.1)">
       <use xlink:href="#DejaVuSans-30"/>
       <use xlink:href="#DejaVuSans-2e" x="63.623047"/>
       <use xlink:href="#DejaVuSans-34" x="95.410156"/>
      </g>
     </g>
    </g>
    <g id="ytick_4">
     <g id="line2d_19">
      <path d="M 39.58149 146.920125 
L 644.99976 146.920125 
" clip-path="url(#p31d94f6503)" style="fill: none; stroke: #b0b0b0; stroke-opacity: 0.22; stroke-width: 0.8; stroke-linecap: square"/>
     </g>
     <g id="line2d_20">
      <g>
       <use xlink:href="#m42b29fd5f3" x="39.58149" y="146.920125" style="stroke: #000000; stroke-width: 0.8"/>
      </g>
     </g>
     <g id="text_11">
      <!-- 0.6 -->
      <g transform="translate(16.678365 150.719343) scale(0.1 -0.1)">
       <defs>
        <path id="DejaVuSans-36" d="M 2113 2584 
Q 1688 2584 1439 2293 
Q 1191 2003 1191 1497 
Q 1191 994 1439 701 
Q 1688 409 2113 409 
Q 2538 409 2786 701 
Q 3034 994 3034 1497 
Q 3034 2003 2786 2293 
Q 2538 2584 2113 2584 
z
M 3366 4563 
L 3366 3988 
Q 3128 4100 2886 4159 
Q 2644 4219 2406 4219 
Q 1781 4219 1451 3797 
Q 1122 3375 1075 2522 
Q 1259 2794 1537 2939 
Q 1816 3084 2150 3084 
Q 2853 3084 3261 2657 
Q 3669 2231 3669 1497 
Q 3669 778 3244 343 
Q 2819 -91 2113 -91 
Q 1303 -91 875 529 
Q 447 1150 447 2328 
Q 447 3434 972 4092 
Q 1497 4750 2381 4750 
Q 2619 4750 2861 4703 
Q 3103 4656 3366 4563 
z
" transform="scale(0.015625)"/>
       </defs>
       <use xlink:href="#DejaVuSans-30"/>
       <use xlink:href="#DejaVuSans-2e" x="63.623047"/>
       <use xlink:href="#DejaVuSans-36" x="95.410156"/>
      </g>
     </g>
    </g>
    <g id="ytick_5">
     <g id="line2d_21">
      <path d="M 39.58149 87.012329 
L 644.99976 87.012329 
" clip-path="url(#p31d94f6503)" style="fill: none; stroke: #b0b0b0; stroke-opacity: 0.22; stroke-width: 0.8; stroke-linecap: square"/>
     </g>
     <g id="line2d_22">
      <g>
       <use xlink:href="#m42b29fd5f3" x="39.58149" y="87.012329" style="stroke: #000000; stroke-width: 0.8"/>
      </g>
     </g>
     <g id="text_12">
      <!-- 0.8 -->
      <g transform="translate(16.678365 90.811548) scale(0.1 -0.1)">
       <defs>
        <path id="DejaVuSans-38" d="M 2034 2216 
Q 1584 2216 1326 1975 
Q 1069 1734 1069 1313 
Q 1069 891 1326 650 
Q 1584 409 2034 409 
Q 2484 409 2743 651 
Q 3003 894 3003 1313 
Q 3003 1734 2745 1975 
Q 2488 2216 2034 2216 
z
M 1403 2484 
Q 997 2584 770 2862 
Q 544 3141 544 3541 
Q 544 4100 942 4425 
Q 1341 4750 2034 4750 
Q 2731 4750 3128 4425 
Q 3525 4100 3525 3541 
Q 3525 3141 3298 2862 
Q 3072 2584 2669 2484 
Q 3125 2378 3379 2068 
Q 3634 1759 3634 1313 
Q 3634 634 3220 271 
Q 2806 -91 2034 -91 
Q 1263 -91 848 271 
Q 434 634 434 1313 
Q 434 1759 690 2068 
Q 947 2378 1403 2484 
z
M 1172 3481 
Q 1172 3119 1398 2916 
Q 1625 2713 2034 2713 
Q 2441 2713 2670 2916 
Q 2900 3119 2900 3481 
Q 2900 3844 2670 4047 
Q 2441 4250 2034 4250 
Q 1625 4250 1398 4047 
Q 1172 3844 1172 3481 
z
" transform="scale(0.015625)"/>
       </defs>
       <use xlink:href="#DejaVuSans-30"/>
       <use xlink:href="#DejaVuSans-2e" x="63.623047"/>
       <use xlink:href="#DejaVuSans-38" x="95.410156"/>
      </g>
     </g>
    </g>
    <g id="ytick_6">
     <g id="line2d_23">
      <path d="M 39.58149 27.104534 
L 644.99976 27.104534 
" clip-path="url(#p31d94f6503)" style="fill: none; stroke: #b0b0b0; stroke-opacity: 0.22; stroke-width: 0.8; stroke-linecap: square"/>
     </g>
     <g id="line2d_24">
      <g>
       <use xlink:href="#m42b29fd5f3" x="39.58149" y="27.104534" style="stroke: #000000; stroke-width: 0.8"/>
      </g>
     </g>
     <g id="text_13">
      <!-- 1.0 -->
      <g transform="translate(16.678365 30.903753) scale(0.1 -0.1)">
       <use xlink:href="#DejaVuSans-31"/>
       <use xlink:href="#DejaVuSans-2e" x="63.623047"/>
       <use xlink:href="#DejaVuSans-30" x="95.410156"/>
      </g>
     </g>
    </g>
    <g id="text_14">
     <!-- normalized acceleration spectrum -->
     <g transform="translate(10.598678 257.803594) rotate(-90) scale(0.1 -0.1)">
      <defs>
       <path id="DejaVuSans-6f" d="M 1959 3097 
Q 1497 3097 1228 2736 
Q 959 2375 959 1747 
Q 959 1119 1226 758 
Q 1494 397 1959 397 
Q 2419 397 2687 759 
Q 2956 1122 2956 1747 
Q 2956 2369 2687 2733 
Q 2419 3097 1959 3097 
z
M 1959 3584 
Q 2709 3584 3137 3096 
Q 3566 2609 3566 1747 
Q 3566 888 3137 398 
Q 2709 -91 1959 -91 
Q 1206 -91 779 398 
Q 353 888 353 1747 
Q 353 2609 779 3096 
Q 1206 3584 1959 3584 
z
" transform="scale(0.015625)"/>
       <path id="DejaVuSans-6d" d="M 3328 2828 
Q 3544 3216 3844 3400 
Q 4144 3584 4550 3584 
Q 5097 3584 5394 3201 
Q 5691 2819 5691 2113 
L 5691 0 
L 5113 0 
L 5113 2094 
Q 5113 2597 4934 2840 
Q 4756 3084 4391 3084 
Q 3944 3084 3684 2787 
Q 3425 2491 3425 1978 
L 3425 0 
L 2847 0 
L 2847 2094 
Q 2847 2600 2669 2842 
Q 2491 3084 2119 3084 
Q 1678 3084 1418 2786 
Q 1159 2488 1159 1978 
L 1159 0 
L 581 0 
L 581 3500 
L 1159 3500 
L 1159 2956 
Q 1356 3278 1631 3431 
Q 1906 3584 2284 3584 
Q 2666 3584 2933 3390 
Q 3200 3197 3328 2828 
z
" transform="scale(0.015625)"/>
       <path id="DejaVuSans-61" d="M 2194 1759 
Q 1497 1759 1228 1600 
Q 959 1441 959 1056 
Q 959 750 1161 570 
Q 1363 391 1709 391 
Q 2188 391 2477 730 
Q 2766 1069 2766 1631 
L 2766 1759 
L 2194 1759 
z
M 3341 1997 
L 3341 0 
L 2766 0 
L 2766 531 
Q 2569 213 2275 61 
Q 1981 -91 1556 -91 
Q 1019 -91 701 211 
Q 384 513 384 1019 
Q 384 1609 779 1909 
Q 1175 2209 1959 2209 
L 2766 2209 
L 2766 2266 
Q 2766 2663 2505 2880 
Q 2244 3097 1772 3097 
Q 1472 3097 1187 3025 
Q 903 2953 641 2809 
L 641 3341 
Q 956 3463 1253 3523 
Q 1550 3584 1831 3584 
Q 2591 3584 2966 3190 
Q 3341 2797 3341 1997 
z
" transform="scale(0.015625)"/>
       <path id="DejaVuSans-6c" d="M 603 4863 
L 1178 4863 
L 1178 0 
L 603 0 
L 603 4863 
z
" transform="scale(0.015625)"/>
       <path id="DejaVuSans-69" d="M 603 3500 
L 1178 3500 
L 1178 0 
L 603 0 
L 603 3500 
z
M 603 4863 
L 1178 4863 
L 1178 4134 
L 603 4134 
L 603 4863 
z
" transform="scale(0.015625)"/>
       <path id="DejaVuSans-64" d="M 2906 2969 
L 2906 4863 
L 3481 4863 
L 3481 0 
L 2906 0 
L 2906 525 
Q 2725 213 2448 61 
Q 2172 -91 1784 -91 
Q 1150 -91 751 415 
Q 353 922 353 1747 
Q 353 2572 751 3078 
Q 1150 3584 1784 3584 
Q 2172 3584 2448 3432 
Q 2725 3281 2906 2969 
z
M 947 1747 
Q 947 1113 1208 752 
Q 1469 391 1925 391 
Q 2381 391 2643 752 
Q 2906 1113 2906 1747 
Q 2906 2381 2643 2742 
Q 2381 3103 1925 3103 
Q 1469 3103 1208 2742 
Q 947 2381 947 1747 
z
" transform="scale(0.015625)"/>
       <path id="DejaVuSans-74" d="M 1172 4494 
L 1172 3500 
L 2356 3500 
L 2356 3053 
L 1172 3053 
L 1172 1153 
Q 1172 725 1289 603 
Q 1406 481 1766 481 
L 2356 481 
L 2356 0 
L 1766 0 
Q 1100 0 847 248 
Q 594 497 594 1153 
L 594 3053 
L 172 3053 
L 172 3500 
L 594 3500 
L 594 4494 
L 1172 4494 
z
" transform="scale(0.015625)"/>
       <path id="DejaVuSans-73" d="M 2834 3397 
L 2834 2853 
Q 2591 2978 2328 3040 
Q 2066 3103 1784 3103 
Q 1356 3103 1142 2972 
Q 928 2841 928 2578 
Q 928 2378 1081 2264 
Q 1234 2150 1697 2047 
L 1894 2003 
Q 2506 1872 2764 1633 
Q 3022 1394 3022 966 
Q 3022 478 2636 193 
Q 2250 -91 1575 -91 
Q 1294 -91 989 -36 
Q 684 19 347 128 
L 347 722 
Q 666 556 975 473 
Q 1284 391 1588 391 
Q 1994 391 2212 530 
Q 2431 669 2431 922 
Q 2431 1156 2273 1281 
Q 2116 1406 1581 1522 
L 1381 1569 
Q 847 1681 609 1914 
Q 372 2147 372 2553 
Q 372 3047 722 3315 
Q 1072 3584 1716 3584 
Q 2034 3584 2315 3537 
Q 2597 3491 2834 3397 
z
" transform="scale(0.015625)"/>
       <path id="DejaVuSans-70" d="M 1159 525 
L 1159 -1331 
L 581 -1331 
L 581 3500 
L 1159 3500 
L 1159 2969 
Q 1341 3281 1617 3432 
Q 1894 3584 2278 3584 
Q 2916 3584 3314 3078 
Q 3713 2572 3713 1747 
Q 3713 922 3314 415 
Q 2916 -91 2278 -91 
Q 1894 -91 1617 61 
Q 1341 213 1159 525 
z
M 3116 1747 
Q 3116 2381 2855 2742 
Q 2594 3103 2138 3103 
Q 1681 3103 1420 2742 
Q 1159 2381 1159 1747 
Q 1159 1113 1420 752 
Q 1681 391 2138 391 
Q 2594 391 2855 752 
Q 3116 1113 3116 1747 
z
" transform="scale(0.015625)"/>
      </defs>
      <use xlink:href="#DejaVuSans-6e"/>
      <use xlink:href="#DejaVuSans-6f" x="63.378906"/>
      <use xlink:href="#DejaVuSans-72" x="124.560547"/>
      <use xlink:href="#DejaVuSans-6d" x="163.923828"/>
      <use xlink:href="#DejaVuSans-61" x="261.335938"/>
      <use xlink:href="#DejaVuSans-6c" x="322.615234"/>
      <use xlink:href="#DejaVuSans-69" x="350.398438"/>
      <use xlink:href="#DejaVuSans-7a" x="378.181641"/>
      <use xlink:href="#DejaVuSans-65" x="430.671875"/>
      <use xlink:href="#DejaVuSans-64" x="492.195312"/>
      <use xlink:href="#DejaVuSans-20" x="555.671875"/>
      <use xlink:href="#DejaVuSans-61" x="587.458984"/>
      <use xlink:href="#DejaVuSans-63" x="648.738281"/>
      <use xlink:href="#DejaVuSans-63" x="703.71875"/>
      <use xlink:href="#DejaVuSans-65" x="758.699219"/>
      <use xlink:href="#DejaVuSans-6c" x="820.222656"/>
      <use xlink:href="#DejaVuSans-65" x="848.005859"/>
      <use xlink:href="#DejaVuSans-72" x="909.529297"/>
      <use xlink:href="#DejaVuSans-61" x="950.642578"/>
      <use xlink:href="#DejaVuSans-74" x="1011.921875"/>
      <use xlink:href="#DejaVuSans-69" x="1051.130859"/>
      <use xlink:href="#DejaVuSans-6f" x="1078.914062"/>
      <use xlink:href="#DejaVuSans-6e" x="1140.095703"/>
      <use xlink:href="#DejaVuSans-20" x="1203.474609"/>
      <use xlink:href="#DejaVuSans-73" x="1235.261719"/>
      <use xlink:href="#DejaVuSans-70" x="1287.361328"/>
      <use xlink:href="#DejaVuSans-65" x="1350.837891"/>
      <use xlink:href="#DejaVuSans-63" x="1412.361328"/>
      <use xlink:href="#DejaVuSans-74" x="1467.341797"/>
      <use xlink:href="#DejaVuSans-72" x="1506.550781"/>
      <use xlink:href="#DejaVuSans-75" x="1547.664062"/>
      <use xlink:href="#DejaVuSans-6d" x="1611.042969"/>
     </g>
    </g>
   </g>
   <g id="line2d_25">
    <path d="M 39.58149 323.512978 
L 41.743698 322.379722 
L 43.905906 317.909005 
L 46.068114 308.302132 
L 48.230322 291.123887 
L 50.392531 287.493855 
L 52.554739 299.511839 
L 54.716947 312.450512 
L 56.879155 316.527043 
L 59.041363 322.17229 
L 61.203571 310.408862 
L 63.365779 293.182599 
L 65.527987 299.167333 
L 67.690195 322.796362 
L 69.852404 324.166273 
L 72.014612 323.446012 
L 74.17682 323.297461 
L 76.339028 300.581506 
L 78.501236 305.37973 
L 80.663444 214.300669 
L 82.825652 137.175079 
L 84.98786 177.930864 
L 87.150068 289.778426 
L 89.312276 306.515069 
L 91.474485 306.970087 
L 93.636693 310.553901 
L 95.798901 320.893609 
L 97.961109 323.660336 
L 100.123317 323.474516 
L 102.285525 323.755067 
L 104.447733 309.970953 
L 106.609941 273.167914 
L 108.772149 275.696227 
L 110.934358 271.384267 
L 113.096566 277.438143 
L 115.258774 316.143602 
L 117.420982 161.351011 
L 119.58319 60.908699 
L 121.745398 221.992302 
L 123.907606 308.242061 
L 126.069814 313.575737 
L 128.232022 314.72811 
L 130.394231 299.964134 
L 132.556439 277.123978 
L 134.718647 277.166589 
L 136.880855 311.865027 
L 139.043063 324.276899 
L 143.367479 273.343869 
L 145.529687 302.528492 
L 147.691895 280.516882 
L 149.854103 226.978823 
L 152.016312 212.517283 
L 154.17852 249.123096 
L 156.340728 305.610515 
L 158.502936 317.420051 
L 160.665144 303.20739 
L 162.827352 310.02306 
L 164.98956 313.758913 
L 167.151768 309.457566 
L 169.313976 320.398495 
L 171.476185 322.069146 
L 173.638393 323.45173 
L 175.800601 283.93882 
L 177.962809 255.040415 
L 180.125017 244.51978 
L 182.287225 252.806658 
L 184.449433 284.68919 
L 186.611641 294.18307 
L 188.773849 287.248787 
L 190.936058 309.814491 
L 193.098266 301.963233 
L 195.260474 261.625751 
L 197.422682 255.895639 
L 199.58489 295.478196 
L 201.747098 267.019054 
L 203.909306 283.337682 
L 206.071514 318.502978 
L 208.233722 318.080764 
L 210.39593 323.934003 
L 212.558139 315.413742 
L 214.720347 322.921945 
L 216.882555 320.062103 
L 219.044763 311.939717 
L 221.206971 296.337326 
L 223.369179 297.448438 
L 225.531387 280.067396 
L 227.693595 261.726441 
L 229.855803 272.979443 
L 232.018012 290.306415 
L 234.18022 285.211064 
L 236.342428 259.855943 
L 238.504636 262.852676 
L 240.666844 297.655367 
L 242.829052 307.537566 
L 244.99126 315.97863 
L 247.153468 315.623242 
L 249.315676 305.189418 
L 251.477885 290.722283 
L 253.640093 286.791037 
L 255.802301 302.715493 
L 257.964509 320.283637 
L 260.126717 324.49177 
L 262.288925 318.86189 
L 264.451133 305.389469 
L 266.613341 288.662873 
L 268.775549 293.038022 
L 270.937757 287.096994 
L 273.099966 303.07834 
L 275.262174 314.394778 
L 277.424382 301.014453 
L 279.58659 286.694471 
L 281.748798 298.279888 
L 283.911006 317.398287 
L 286.073214 309.600606 
L 288.235422 317.498151 
L 292.559839 320.644728 
L 294.722047 320.519413 
L 296.884255 322.070237 
L 299.046463 323.150591 
L 301.208671 322.563695 
L 303.370879 322.150552 
L 307.695295 321.783574 
L 309.857503 318.319506 
L 312.019712 318.357737 
L 314.18192 317.888725 
L 316.344128 311.392214 
L 318.506336 310.125306 
L 320.668544 317.003631 
L 322.830752 320.495865 
L 324.99296 318.279364 
L 327.155168 319.584897 
L 329.317376 316.756034 
L 331.479584 316.784591 
L 333.641793 315.661546 
L 335.804001 312.748756 
L 337.966209 313.404617 
L 340.128417 312.593771 
L 342.290625 303.507779 
L 344.452833 280.876114 
L 346.615041 264.845115 
L 348.777249 277.711595 
L 350.939457 287.532952 
L 353.101666 278.089277 
L 355.263874 282.082907 
L 359.58829 307.060789 
L 361.750498 316.317708 
L 363.912706 320.021982 
L 366.074914 321.293529 
L 368.237122 320.135344 
L 370.39933 315.802539 
L 372.561539 304.974648 
L 374.723747 287.20892 
L 376.885955 277.964994 
L 379.048163 288.964156 
L 381.210371 308.033232 
L 383.372579 320.64243 
L 385.534787 310.063557 
L 387.696995 292.242962 
L 389.859203 285.000503 
L 392.021411 291.656941 
L 394.18362 288.432681 
L 396.345828 278.882325 
L 398.508036 279.431817 
L 400.670244 271.208938 
L 402.832452 267.845998 
L 404.99466 282.434721 
L 407.156868 302.196529 
L 409.319076 315.582092 
L 411.481284 317.428249 
L 413.643493 314.68075 
L 415.805701 314.24586 
L 417.967909 315.700486 
L 420.130117 315.002436 
L 422.292325 306.633168 
L 424.454533 298.897664 
L 426.616741 300.350082 
L 428.778949 306.623804 
L 430.941157 312.179204 
L 433.103366 314.586682 
L 435.265574 309.464333 
L 437.427782 303.975066 
L 439.58999 306.188467 
L 441.752198 313.608716 
L 443.914406 319.258984 
L 446.076614 321.396596 
L 448.238822 321.067041 
L 450.40103 319.153565 
L 452.563238 317.440108 
L 454.725447 316.459056 
L 456.887655 317.408817 
L 459.049863 320.082423 
L 461.212071 322.017529 
L 463.374279 320.581098 
L 465.536487 316.160497 
L 467.698695 309.791552 
L 469.860903 301.721505 
L 472.023111 292.757195 
L 474.18532 286.668785 
L 476.347528 291.717956 
L 478.509736 304.904777 
L 480.671944 317.114117 
L 482.834152 323.13368 
L 487.158568 312.42963 
L 489.320776 311.738704 
L 491.482984 314.558819 
L 493.645193 314.038663 
L 495.807401 309.517948 
L 497.969609 305.410512 
L 500.131817 303.4209 
L 502.294025 305.270764 
L 504.456233 310.667253 
L 506.618441 315.7345 
L 508.780649 317.786673 
L 510.942857 315.661845 
L 513.105065 311.530057 
L 515.267274 309.341033 
L 517.429482 312.20828 
L 519.59169 317.565472 
L 521.753898 319.260481 
L 523.916106 317.234257 
L 526.078314 315.372212 
L 528.240522 315.578904 
L 530.40273 318.0883 
L 532.564938 321.659676 
L 534.727147 324.61237 
L 536.889355 323.87812 
L 539.051563 321.931789 
L 541.213771 320.747242 
L 543.375979 320.146396 
L 545.538187 320.495958 
L 547.700395 321.622876 
L 552.024811 323.393172 
L 554.18702 324.472788 
L 556.349228 325.153502 
L 558.511436 324.802735 
L 560.673644 323.221128 
L 562.835852 320.704271 
L 564.99806 318.454444 
L 567.160268 318.173758 
L 569.322476 319.341853 
L 571.484684 320.354113 
L 573.646892 321.85625 
L 575.809101 323.712189 
L 577.971309 325.10406 
L 580.133517 325.096919 
L 582.295725 324.061278 
L 584.457933 323.95041 
L 588.782349 325.345354 
L 593.106765 326.238792 
L 595.268974 326.121975 
L 597.431182 325.240785 
L 599.59339 324.64063 
L 601.755598 324.991001 
L 603.917806 325.723409 
L 608.242222 321.711442 
L 610.40443 320.230211 
L 612.566638 319.022171 
L 614.728847 318.340566 
L 616.891055 319.013132 
L 621.215471 322.881371 
L 623.377679 323.712537 
L 625.539887 324.116423 
L 629.864303 325.166058 
L 634.188719 326.177901 
L 636.350928 326.093836 
L 638.513136 325.885318 
L 640.675344 325.861557 
L 644.99976 326.011846 
L 647.161968 325.806847 
L 649 325.3536 
L 649 325.3536 
" clip-path="url(#p31d94f6503)" style="fill: none; stroke: #1f77b4; stroke-linecap: square"/>
   </g>
   <g id="line2d_26">
    <path d="M 39.58149 323.932195 
L 41.743698 323.285071 
L 43.905906 320.001494 
L 46.068114 309.356625 
L 48.230322 296.164962 
L 50.392531 297.039328 
L 52.554739 314.721332 
L 54.716947 263.883961 
L 56.879155 279.706246 
L 59.041363 314.648092 
L 61.203571 293.12324 
L 63.365779 302.435315 
L 67.690195 325.565385 
L 69.852404 322.787803 
L 72.014612 317.550379 
L 74.17682 311.248338 
L 76.339028 210.392791 
L 78.501236 147.470651 
L 80.663444 220.559774 
L 82.825652 243.291036 
L 84.98786 247.64886 
L 87.150068 292.882715 
L 89.312276 225.45208 
L 91.474485 176.513031 
L 93.636693 259.519254 
L 95.798901 314.084072 
L 97.961109 291.778413 
L 100.123317 293.480508 
L 102.285525 312.238776 
L 104.447733 315.91998 
L 106.609941 287.933619 
L 108.772149 272.699594 
L 110.934358 296.679085 
L 113.096566 322.901117 
L 115.258774 285.981626 
L 117.420982 155.413984 
L 119.58319 83.530279 
L 121.745398 233.250134 
L 123.907606 302.818454 
L 126.069814 290.472027 
L 128.232022 180.543269 
L 130.394231 147.423786 
L 132.556439 250.241107 
L 134.718647 297.403703 
L 136.880855 313.992644 
L 139.043063 321.638251 
L 141.205271 303.647476 
L 143.367479 311.696808 
L 145.529687 307.339312 
L 147.691895 240.070203 
L 149.854103 224.639738 
L 152.016312 297.960383 
L 154.17852 271.017392 
L 156.340728 307.088511 
L 158.502936 318.600001 
L 160.665144 317.971057 
L 162.827352 309.17551 
L 164.98956 272.81049 
L 167.151768 268.036153 
L 169.313976 302.304713 
L 171.476185 319.5515 
L 173.638393 319.056387 
L 175.800601 304.245442 
L 177.962809 314.523497 
L 180.125017 261.271687 
L 182.287225 172.754454 
L 184.449433 159.263942 
L 186.611641 199.991158 
L 188.773849 272.367669 
L 190.936058 318.27824 
L 193.098266 301.248871 
L 195.260474 244.472812 
L 197.422682 231.829456 
L 199.58489 285.13836 
L 201.747098 292.485742 
L 203.909306 268.648519 
L 206.071514 249.478468 
L 210.39593 324.43032 
L 212.558139 319.216752 
L 214.720347 314.890918 
L 216.882555 276.291451 
L 219.044763 189.435034 
L 221.206971 185.735445 
L 223.369179 254.99803 
L 225.531387 269.827305 
L 227.693595 266.873945 
L 229.855803 290.167564 
L 232.018012 308.436513 
L 234.18022 305.37096 
L 236.342428 304.598187 
L 238.504636 314.622598 
L 240.666844 321.939553 
L 242.829052 324.565871 
L 244.99126 325.178382 
L 249.315676 311.123244 
L 251.477885 315.636503 
L 253.640093 313.441285 
L 255.802301 302.433976 
L 257.964509 303.899017 
L 260.126717 319.375188 
L 262.288925 319.211046 
L 264.451133 296.946034 
L 266.613341 262.558577 
L 268.775549 258.933765 
L 270.937757 286.515603 
L 273.099966 320.844181 
L 275.262174 300.849842 
L 277.424382 284.232575 
L 279.58659 292.133936 
L 281.748798 285.383188 
L 283.911006 265.667379 
L 286.073214 274.606304 
L 288.235422 291.565863 
L 290.39763 282.272562 
L 292.559839 266.574116 
L 294.722047 280.665449 
L 296.884255 308.360995 
L 299.046463 308.605904 
L 301.208671 297.932463 
L 303.370879 307.557689 
L 305.533087 320.59736 
L 307.695295 324.120915 
L 309.857503 322.450423 
L 312.019712 320.126408 
L 314.18192 316.487132 
L 316.344128 314.139043 
L 318.506336 310.953994 
L 320.668544 307.04022 
L 322.830752 309.145074 
L 324.99296 310.681117 
L 327.155168 315.781526 
L 329.317376 312.766698 
L 331.479584 318.220596 
L 333.641793 318.243461 
L 335.804001 304.803739 
L 337.966209 308.743251 
L 340.128417 311.104694 
L 342.290625 296.282111 
L 344.452833 267.047398 
L 346.615041 251.394105 
L 348.777249 268.666296 
L 350.939457 270.744284 
L 353.101666 250.183734 
L 355.263874 257.192862 
L 357.426082 279.39815 
L 359.58829 298.661128 
L 361.750498 313.752639 
L 363.912706 320.959362 
L 366.074914 323.700231 
L 368.237122 324.615329 
L 370.39933 325.164309 
L 372.561539 324.438961 
L 374.723747 322.340355 
L 376.885955 319.211985 
L 379.048163 316.748212 
L 381.210371 316.827166 
L 383.372579 314.373193 
L 385.534787 312.228059 
L 387.696995 317.689138 
L 389.859203 323.849267 
L 394.18362 298.102153 
L 396.345828 295.368064 
L 398.508036 307.684062 
L 400.670244 291.872286 
L 402.832452 265.943027 
L 404.99466 259.281837 
L 407.156868 271.737985 
L 409.319076 277.060394 
L 411.481284 279.295652 
L 415.805701 313.64889 
L 417.967909 321.400439 
L 420.130117 320.660609 
L 422.292325 312.525482 
L 424.454533 301.196715 
L 426.616741 295.009733 
L 428.778949 296.846986 
L 430.941157 307.949001 
L 433.103366 322.680089 
L 435.265574 310.549432 
L 437.427782 295.192692 
L 439.58999 295.911641 
L 443.914406 315.478637 
L 446.076614 324.417516 
L 448.238822 321.693582 
L 450.40103 319.962479 
L 452.563238 322.885034 
L 454.725447 317.375558 
L 456.887655 314.08444 
L 459.049863 316.290838 
L 461.212071 319.314711 
L 463.374279 320.650685 
L 465.536487 320.42672 
L 467.698695 319.207292 
L 469.860903 318.255119 
L 472.023111 319.114151 
L 474.18532 321.035297 
L 476.347528 323.252592 
L 478.509736 324.131717 
L 482.834152 321.368878 
L 484.99636 321.203552 
L 487.158568 322.248936 
L 489.320776 323.84399 
L 491.482984 322.047444 
L 495.807401 314.533423 
L 497.969609 312.596563 
L 500.131817 312.353257 
L 502.294025 313.003826 
L 504.456233 314.516483 
L 506.618441 315.279906 
L 508.780649 313.08461 
L 510.942857 306.050985 
L 513.105065 296.002011 
L 515.267274 290.5289 
L 517.429482 296.267813 
L 519.59169 307.581406 
L 521.753898 314.848554 
L 523.916106 318.229714 
L 526.078314 320.727643 
L 528.240522 321.851963 
L 530.40273 322.110528 
L 532.564938 324.195391 
L 534.727147 321.788255 
L 536.889355 315.409855 
L 539.051563 311.673198 
L 541.213771 312.490281 
L 543.375979 315.594549 
L 545.538187 319.173645 
L 547.700395 322.009926 
L 549.862603 322.49533 
L 552.024811 322.258812 
L 554.18702 322.632897 
L 556.349228 323.191077 
L 558.511436 323.297161 
L 560.673644 322.813822 
L 562.835852 322.084884 
L 564.99806 321.837388 
L 569.322476 322.940387 
L 571.484684 322.998291 
L 573.646892 322.658708 
L 575.809101 322.696688 
L 577.971309 323.31164 
L 580.133517 322.994445 
L 582.295725 322.111393 
L 584.457933 322.15507 
L 586.620141 322.891747 
L 590.944557 324.755422 
L 593.106765 325.04472 
L 597.431182 323.471907 
L 599.59339 323.419025 
L 601.755598 324.091804 
L 603.917806 324.005229 
L 606.080014 322.293796 
L 608.242222 320.780007 
L 610.40443 320.545477 
L 612.566638 321.555407 
L 614.728847 323.17637 
L 616.891055 324.620712 
L 619.053263 325.158839 
L 621.215471 325.140353 
L 625.539887 325.533379 
L 627.702095 325.186943 
L 629.864303 324.438514 
L 632.026511 323.992548 
L 634.188719 324.29184 
L 636.350928 325.110355 
L 638.513136 325.425016 
L 640.675344 325.240793 
L 644.99976 325.267992 
L 649 325.40157 
L 649 325.40157 
" clip-path="url(#p31d94f6503)" style="fill: none; stroke: #ff7f0e; stroke-linecap: square"/>
   </g>
   <g id="line2d_27">
    <path d="M 39.58149 321.530788 
L 41.743698 319.781447 
L 43.905906 312.54597 
L 46.068114 294.910046 
L 48.230322 268.897086 
L 50.392531 262.435995 
L 52.554739 286.066918 
L 54.716947 295.452427 
L 56.879155 311.868277 
L 59.041363 304.254829 
L 61.203571 299.404403 
L 63.365779 265.182411 
L 65.527987 280.458486 
L 67.690195 322.592081 
L 69.852404 320.604045 
L 72.014612 319.960109 
L 74.17682 322.382296 
L 76.339028 315.577268 
L 78.501236 312.802114 
L 80.663444 310.917965 
L 82.825652 283.193861 
L 84.98786 295.638993 
L 87.150068 293.415748 
L 89.312276 206.474482 
L 91.474485 193.157384 
L 93.636693 276.173513 
L 95.798901 313.205407 
L 97.961109 278.41185 
L 100.123317 281.114494 
L 102.285525 301.703018 
L 104.447733 310.302346 
L 106.609941 293.503555 
L 108.772149 294.990397 
L 110.934358 317.366694 
L 113.096566 323.21844 
L 115.258774 322.532629 
L 117.420982 299.573571 
L 119.58319 288.031864 
L 121.745398 288.984548 
L 123.907606 288.759012 
L 126.069814 297.247522 
L 128.232022 231.895521 
L 130.394231 211.575594 
L 132.556439 284.759138 
L 134.718647 312.110648 
L 136.880855 314.265477 
L 139.043063 296.447468 
L 141.205271 172.718563 
L 143.367479 27.104534 
L 145.529687 117.556962 
L 147.691895 167.296523 
L 149.854103 125.415121 
L 152.016312 177.51538 
L 154.17852 254.649418 
L 156.340728 314.580778 
L 158.502936 322.391037 
L 160.665144 317.205491 
L 162.827352 311.708154 
L 164.98956 279.473961 
L 167.151768 274.053138 
L 169.313976 302.330575 
L 171.476185 315.604011 
L 173.638393 315.216924 
L 175.800601 307.762199 
L 177.962809 315.721273 
L 180.125017 269.222723 
L 182.287225 181.098459 
L 184.449433 149.336079 
L 186.611641 175.162778 
L 188.773849 257.280102 
L 190.936058 313.965449 
L 193.098266 305.447487 
L 195.260474 262.726313 
L 197.422682 251.898799 
L 199.58489 257.963983 
L 201.747098 242.843136 
L 203.909306 286.244853 
L 208.233722 260.486231 
L 210.39593 275.474954 
L 212.558139 308.006522 
L 214.720347 314.098056 
L 216.882555 286.192206 
L 219.044763 213.658546 
L 221.206971 220.324266 
L 223.369179 304.667499 
L 225.531387 265.163121 
L 227.693595 215.497391 
L 229.855803 237.249987 
L 232.018012 281.993451 
L 234.18022 282.959215 
L 236.342428 276.62846 
L 238.504636 296.868577 
L 240.666844 311.886529 
L 242.829052 307.522623 
L 244.99126 302.042914 
L 247.153468 311.427708 
L 249.315676 307.348583 
L 251.477885 311.883716 
L 253.640093 305.506117 
L 255.802301 293.456618 
L 257.964509 300.365055 
L 260.126717 319.239629 
L 262.288925 321.980733 
L 264.451133 310.840699 
L 266.613341 294.983796 
L 268.775549 271.190075 
L 270.937757 264.129209 
L 273.099966 281.429604 
L 275.262174 275.908072 
L 277.424382 261.775421 
L 279.58659 277.315928 
L 281.748798 296.477471 
L 283.911006 305.685752 
L 286.073214 303.326818 
L 288.235422 280.80852 
L 290.39763 218.874582 
L 292.559839 163.91377 
L 294.722047 203.031506 
L 296.884255 272.524357 
L 299.046463 308.636459 
L 301.208671 318.57426 
L 303.370879 306.89592 
L 305.533087 315.115118 
L 307.695295 317.620611 
L 309.857503 305.178922 
L 312.019712 296.359545 
L 314.18192 300.067882 
L 316.344128 309.948674 
L 318.506336 316.836812 
L 320.668544 318.938228 
L 322.830752 319.431401 
L 324.99296 314.387392 
L 327.155168 304.797542 
L 329.317376 303.392235 
L 331.479584 305.323438 
L 333.641793 282.85542 
L 335.804001 252.832447 
L 337.966209 253.714371 
L 340.128417 287.83606 
L 342.290625 297.885037 
L 344.452833 271.096746 
L 346.615041 268.422213 
L 348.777249 292.789257 
L 350.939457 311.268403 
L 353.101666 307.120448 
L 355.263874 302.062195 
L 357.426082 305.61788 
L 359.58829 309.916161 
L 361.750498 310.5755 
L 366.074914 316.668949 
L 368.237122 315.671668 
L 370.39933 312.710299 
L 372.561539 302.369109 
L 374.723747 284.247544 
L 376.885955 276.461053 
L 379.048163 288.755698 
L 381.210371 304.115 
L 383.372579 312.415522 
L 385.534787 312.32086 
L 387.696995 303.092018 
L 389.859203 297.538395 
L 392.021411 300.21197 
L 394.18362 291.750944 
L 396.345828 285.632432 
L 398.508036 299.623025 
L 400.670244 307.151664 
L 402.832452 305.898303 
L 404.99466 310.437793 
L 407.156868 316.356793 
L 409.319076 321.092136 
L 411.481284 320.341111 
L 413.643493 318.437209 
L 415.805701 319.258503 
L 417.967909 312.720654 
L 420.130117 302.855006 
L 422.292325 295.056758 
L 424.454533 293.234834 
L 426.616741 302.150236 
L 428.778949 315.741516 
L 430.941157 318.188859 
L 433.103366 303.134914 
L 435.265574 291.687009 
L 437.427782 289.909143 
L 439.58999 302.266417 
L 441.752198 317.575865 
L 443.914406 318.06299 
L 446.076614 316.695646 
L 448.238822 315.879418 
L 450.40103 316.930501 
L 452.563238 311.267306 
L 454.725447 297.799522 
L 456.887655 294.535278 
L 459.049863 302.745854 
L 461.212071 311.852525 
L 463.374279 317.922232 
L 465.536487 322.247482 
L 467.698695 323.072419 
L 469.860903 322.363194 
L 472.023111 321.884414 
L 474.18532 321.823422 
L 476.347528 323.174984 
L 478.509736 325.604401 
L 480.671944 325.054617 
L 482.834152 323.859554 
L 484.99636 323.825852 
L 487.158568 324.653133 
L 489.320776 325.15107 
L 491.482984 325.468226 
L 493.645193 324.699739 
L 495.807401 322.857223 
L 497.969609 321.650818 
L 500.131817 321.745648 
L 502.294025 322.215918 
L 504.456233 321.922508 
L 506.618441 320.948552 
L 508.780649 318.459592 
L 510.942857 310.643461 
L 513.105065 299.785734 
L 515.267274 293.479207 
L 517.429482 297.572646 
L 519.59169 306.890739 
L 521.753898 313.889226 
L 523.916106 318.233149 
L 526.078314 320.051763 
L 528.240522 319.748202 
L 530.40273 318.901888 
L 532.564938 316.020396 
L 536.889355 307.112629 
L 539.051563 306.555718 
L 541.213771 311.649482 
L 543.375979 317.68215 
L 545.538187 319.949427 
L 547.700395 319.54392 
L 549.862603 318.495552 
L 552.024811 318.522045 
L 554.18702 320.437459 
L 556.349228 322.849954 
L 558.511436 324.285542 
L 560.673644 324.09607 
L 564.99806 321.717923 
L 567.160268 321.274201 
L 569.322476 322.066964 
L 573.646892 325.529634 
L 575.809101 324.943267 
L 577.971309 323.235133 
L 580.133517 321.981844 
L 582.295725 321.818898 
L 584.457933 322.804485 
L 586.620141 324.096894 
L 588.782349 324.804539 
L 593.106765 324.987348 
L 597.431182 326.161207 
L 599.59339 326.011736 
L 601.755598 325.522023 
L 603.917806 325.302399 
L 606.080014 326.009526 
L 608.242222 325.289562 
L 610.40443 322.618 
L 612.566638 320.288119 
L 614.728847 319.163921 
L 616.891055 319.676454 
L 619.053263 321.446603 
L 623.377679 325.870758 
L 625.539887 325.412648 
L 627.702095 324.248877 
L 629.864303 323.696789 
L 632.026511 323.379131 
L 634.188719 323.649288 
L 636.350928 324.536738 
L 638.513136 325.597791 
L 640.675344 326.267443 
L 644.99976 325.536784 
L 649 325.672009 
L 649 325.672009 
" clip-path="url(#p31d94f6503)" style="fill: none; stroke: #2ca02c; stroke-linecap: square"/>
   </g>
   <g id="line2d_28">
    <path d="M 39.58149 325.648424 
L 41.743698 325.152025 
L 43.905906 323.435113 
L 46.068114 318.498859 
L 48.230322 307.299451 
L 50.392531 314.414728 
L 52.554739 310.552522 
L 54.716947 322.040909 
L 56.879155 321.719613 
L 59.041363 319.571153 
L 61.203571 297.606367 
L 63.365779 305.115072 
L 65.527987 324.032315 
L 67.690195 326.391881 
L 69.852404 323.002343 
L 72.014612 322.705574 
L 74.17682 320.138628 
L 76.339028 293.072519 
L 78.501236 312.020919 
L 82.825652 235.858517 
L 84.98786 257.580076 
L 87.150068 292.020517 
L 89.312276 221.585866 
L 91.474485 257.057938 
L 93.636693 286.816467 
L 95.798901 312.905078 
L 97.961109 321.95567 
L 102.285525 283.066036 
L 104.447733 301.633544 
L 106.609941 304.300211 
L 108.772149 309.778226 
L 110.934358 311.479668 
L 113.096566 275.245214 
L 115.258774 301.436521 
L 117.420982 242.793318 
L 119.58319 191.213874 
L 121.745398 186.611889 
L 123.907606 209.723432 
L 126.069814 296.42234 
L 128.232022 298.630061 
L 132.556439 302.375343 
L 134.718647 305.575846 
L 136.880855 321.678875 
L 139.043063 322.904455 
L 141.205271 283.711718 
L 143.367479 239.022323 
L 145.529687 293.775787 
L 147.691895 225.844656 
L 149.854103 162.364113 
L 152.016312 236.752256 
L 154.17852 303.449156 
L 156.340728 318.168547 
L 158.502936 310.593231 
L 160.665144 300.43863 
L 162.827352 307.940319 
L 164.98956 313.655934 
L 167.151768 313.132919 
L 169.313976 318.991939 
L 171.476185 302.342178 
L 173.638393 280.31787 
L 175.800601 251.355642 
L 177.962809 229.243319 
L 180.125017 243.414221 
L 182.287225 244.810049 
L 184.449433 265.942477 
L 186.611641 317.875376 
L 188.773849 304.366059 
L 190.936058 318.56424 
L 193.098266 302.050012 
L 195.260474 244.045023 
L 197.422682 230.514588 
L 199.58489 287.220254 
L 201.747098 264.072272 
L 203.909306 290.893121 
L 206.071514 316.189362 
L 208.233722 312.855169 
L 210.39593 321.25464 
L 212.558139 316.846304 
L 214.720347 308.219578 
L 216.882555 295.12597 
L 219.044763 235.957423 
L 221.206971 232.966265 
L 223.369179 280.945135 
L 225.531387 291.660926 
L 227.693595 279.636118 
L 229.855803 285.113608 
L 232.018012 304.886326 
L 234.18022 308.523859 
L 236.342428 297.077721 
L 238.504636 288.72732 
L 240.666844 304.527896 
L 242.829052 316.929851 
L 244.99126 319.943223 
L 247.153468 320.894719 
L 249.315676 321.455737 
L 251.477885 314.742071 
L 253.640093 298.839687 
L 255.802301 297.023603 
L 260.126717 322.117873 
L 262.288925 321.326817 
L 264.451133 311.223733 
L 266.613341 297.995787 
L 268.775549 303.532737 
L 270.937757 307.448927 
L 273.099966 315.095603 
L 275.262174 306.797103 
L 277.424382 291.148384 
L 279.58659 272.81947 
L 281.748798 268.72637 
L 286.073214 314.467445 
L 288.235422 320.213904 
L 292.559839 283.693268 
L 294.722047 293.667007 
L 296.884255 313.760123 
L 299.046463 303.807406 
L 301.208671 292.076823 
L 303.370879 303.547538 
L 305.533087 319.060053 
L 307.695295 319.813333 
L 309.857503 309.046562 
L 312.019712 310.89985 
L 314.18192 311.429594 
L 316.344128 311.321264 
L 318.506336 320.711553 
L 320.668544 325.332079 
L 322.830752 322.173799 
L 324.99296 321.308176 
L 327.155168 319.788994 
L 329.317376 320.131594 
L 331.479584 302.084925 
L 335.804001 241.620819 
L 337.966209 245.193859 
L 340.128417 274.62468 
L 342.290625 289.682903 
L 344.452833 282.41733 
L 346.615041 271.391353 
L 348.777249 281.261049 
L 350.939457 285.495761 
L 353.101666 274.827814 
L 355.263874 290.3403 
L 357.426082 315.330166 
L 359.58829 308.87288 
L 361.750498 311.855153 
L 363.912706 319.797529 
L 366.074914 323.06007 
L 368.237122 321.726427 
L 370.39933 320.111052 
L 372.561539 315.019353 
L 374.723747 303.304391 
L 376.885955 286.299036 
L 379.048163 279.370798 
L 381.210371 293.467482 
L 383.372579 311.073554 
L 385.534787 319.22649 
L 387.696995 315.812107 
L 389.859203 319.952693 
L 392.021411 309.298844 
L 394.18362 280.167481 
L 396.345828 255.235892 
L 398.508036 259.709627 
L 400.670244 289.52236 
L 402.832452 320.919368 
L 404.99466 318.276678 
L 407.156868 317.660444 
L 409.319076 316.691932 
L 411.481284 311.615469 
L 413.643493 307.009801 
L 415.805701 307.754668 
L 417.967909 310.156322 
L 420.130117 311.950152 
L 422.292325 296.26388 
L 424.454533 284.101129 
L 426.616741 295.191683 
L 428.778949 312.494798 
L 430.941157 311.641827 
L 433.103366 312.263865 
L 435.265574 315.706954 
L 437.427782 314.407693 
L 439.58999 308.907727 
L 441.752198 304.709877 
L 443.914406 299.469447 
L 446.076614 289.34708 
L 448.238822 271.278833 
L 450.40103 259.219261 
L 452.563238 268.657883 
L 454.725447 288.842398 
L 456.887655 305.8961 
L 459.049863 317.338551 
L 461.212071 323.679219 
L 463.374279 323.565799 
L 465.536487 321.083426 
L 467.698695 322.167397 
L 469.860903 325.160813 
L 472.023111 325.529002 
L 474.18532 322.630023 
L 476.347528 319.995535 
L 478.509736 318.555514 
L 480.671944 318.65863 
L 482.834152 319.766091 
L 484.99636 316.946352 
L 487.158568 311.197129 
L 489.320776 308.88062 
L 491.482984 312.212566 
L 493.645193 316.791813 
L 495.807401 318.44746 
L 497.969609 319.473649 
L 500.131817 322.193212 
L 502.294025 323.470293 
L 504.456233 322.190564 
L 506.618441 320.279734 
L 508.780649 316.960374 
L 510.942857 312.267266 
L 513.105065 306.505311 
L 515.267274 302.666765 
L 517.429482 304.745181 
L 519.59169 310.489067 
L 521.753898 315.909753 
L 523.916106 320.064854 
L 526.078314 321.306384 
L 528.240522 319.163526 
L 530.40273 317.999338 
L 532.564938 319.348444 
L 534.727147 322.047709 
L 536.889355 324.293627 
L 539.051563 325.491566 
L 541.213771 325.202095 
L 543.375979 323.79457 
L 545.538187 322.548318 
L 547.700395 322.432147 
L 549.862603 323.451293 
L 552.024811 324.779576 
L 554.18702 325.6753 
L 556.349228 326.045097 
L 558.511436 326.09139 
L 560.673644 325.952148 
L 562.835852 325.684026 
L 564.99806 325.101511 
L 567.160268 323.960186 
L 569.322476 322.445128 
L 571.484684 321.357566 
L 573.646892 321.489372 
L 575.809101 322.742244 
L 577.971309 324.212873 
L 580.133517 324.381733 
L 582.295725 323.315702 
L 584.457933 322.890643 
L 586.620141 323.540091 
L 588.782349 324.561135 
L 590.944557 324.975572 
L 593.106765 324.457644 
L 595.268974 323.43645 
L 597.431182 322.18074 
L 599.59339 321.335362 
L 601.755598 321.955705 
L 603.917806 323.618935 
L 606.080014 323.08934 
L 608.242222 321.575093 
L 612.566638 320.286489 
L 614.728847 319.972411 
L 616.891055 321.070216 
L 619.053263 323.241838 
L 621.215471 324.284553 
L 623.377679 323.450549 
L 625.539887 322.737813 
L 627.702095 322.717605 
L 629.864303 323.342491 
L 634.188719 325.299449 
L 636.350928 325.63217 
L 640.675344 325.608928 
L 644.99976 325.662133 
L 647.161968 325.459952 
L 649 325.107717 
L 649 325.107717 
" clip-path="url(#p31d94f6503)" style="fill: none; stroke: #d62728; stroke-linecap: square"/>
   </g>
   <g id="line2d_29">
    <path d="M 39.58149 324.077238 
L 41.743698 323.251241 
L 43.905906 319.761074 
L 46.068114 311.161437 
L 48.230322 297.680236 
L 50.392531 293.200083 
L 52.554739 309.549993 
L 54.716947 303.768117 
L 56.879155 310.356861 
L 59.041363 318.472183 
L 61.203571 299.261698 
L 63.365779 311.458526 
L 65.527987 315.427607 
L 67.690195 323.589377 
L 69.852404 325.497228 
L 72.014612 326.528273 
L 74.17682 323.848629 
L 76.339028 294.193422 
L 78.501236 238.211026 
L 80.663444 218.259479 
L 82.825652 233.608998 
L 84.98786 263.441477 
L 87.150068 272.468616 
L 89.312276 215.610257 
L 91.474485 247.508417 
L 93.636693 264.859616 
L 95.798901 320.143181 
L 97.961109 326.399687 
L 100.123317 326.270408 
L 102.285525 324.929612 
L 104.447733 314.928825 
L 106.609941 243.300418 
L 108.772149 179.104685 
L 110.934358 236.600203 
L 113.096566 312.653744 
L 115.258774 318.102643 
L 117.420982 262.00321 
L 119.58319 227.192266 
L 121.745398 257.626409 
L 123.907606 298.114173 
L 126.069814 318.212828 
L 128.232022 287.602555 
L 130.394231 288.187942 
L 132.556439 276.359039 
L 134.718647 302.539292 
L 136.880855 323.516855 
L 139.043063 324.175024 
L 141.205271 300.996338 
L 143.367479 281.034912 
L 145.529687 309.272676 
L 147.691895 310.221378 
L 149.854103 315.22212 
L 152.016312 227.808715 
L 154.17852 219.974568 
L 156.340728 273.88539 
L 158.502936 306.880027 
L 160.665144 304.312791 
L 162.827352 313.528941 
L 164.98956 289.384249 
L 167.151768 281.339014 
L 169.313976 303.337194 
L 171.476185 315.503627 
L 173.638393 319.856641 
L 175.800601 294.436592 
L 177.962809 293.308245 
L 180.125017 304.464699 
L 182.287225 270.586399 
L 184.449433 233.427822 
L 186.611641 215.41003 
L 190.936058 309.36475 
L 193.098266 319.636389 
L 195.260474 319.129691 
L 197.422682 317.906032 
L 199.58489 302.538033 
L 201.747098 255.696416 
L 203.909306 220.161228 
L 206.071514 197.100018 
L 210.39593 296.675828 
L 212.558139 312.365706 
L 214.720347 305.30645 
L 216.882555 258.666477 
L 219.044763 176.626768 
L 221.206971 184.515063 
L 223.369179 262.920219 
L 225.531387 292.302576 
L 227.693595 300.17194 
L 229.855803 301.259787 
L 232.018012 299.244327 
L 234.18022 279.967738 
L 236.342428 251.724209 
L 238.504636 267.86688 
L 240.666844 295.714006 
L 242.829052 310.30127 
L 244.99126 316.11856 
L 247.153468 306.458488 
L 249.315676 271.494688 
L 251.477885 250.412278 
L 253.640093 277.417078 
L 255.802301 279.664461 
L 257.964509 274.937386 
L 260.126717 300.867181 
L 262.288925 317.474145 
L 264.451133 321.368115 
L 266.613341 321.759514 
L 268.775549 319.674033 
L 270.937757 319.301029 
L 273.099966 319.551278 
L 275.262174 312.264515 
L 277.424382 302.127625 
L 281.748798 285.567505 
L 283.911006 283.074477 
L 286.073214 301.186948 
L 288.235422 318.275316 
L 290.39763 317.166739 
L 292.559839 312.611681 
L 294.722047 314.110409 
L 296.884255 321.111536 
L 299.046463 315.28997 
L 301.208671 308.497749 
L 303.370879 314.347695 
L 305.533087 323.560658 
L 307.695295 322.237083 
L 309.857503 317.467709 
L 314.18192 321.158786 
L 316.344128 320.390887 
L 320.668544 320.050234 
L 322.830752 316.167388 
L 324.99296 296.14729 
L 327.155168 259.178946 
L 329.317376 235.696117 
L 331.479584 261.381885 
L 333.641793 301.561553 
L 335.804001 305.636179 
L 337.966209 306.496623 
L 340.128417 317.656059 
L 342.290625 320.522038 
L 346.615041 300.688328 
L 348.777249 303.803954 
L 350.939457 301.552786 
L 353.101666 295.299893 
L 355.263874 305.586987 
L 357.426082 320.405857 
L 359.58829 317.29385 
L 361.750498 311.09844 
L 363.912706 313.843262 
L 366.074914 320.442452 
L 368.237122 324.74231 
L 370.39933 321.608704 
L 372.561539 312.219507 
L 374.723747 297.954473 
L 376.885955 290.345533 
L 379.048163 297.743434 
L 381.210371 310.093484 
L 383.372579 319.908605 
L 385.534787 325.444628 
L 387.696995 324.385072 
L 389.859203 319.275744 
L 392.021411 312.768708 
L 394.18362 302.961232 
L 396.345828 291.322189 
L 398.508036 287.92917 
L 400.670244 288.394104 
L 402.832452 290.307265 
L 404.99466 299.507962 
L 407.156868 311.087032 
L 409.319076 317.632175 
L 411.481284 316.723384 
L 413.643493 306.753199 
L 415.805701 298.086 
L 417.967909 290.45465 
L 420.130117 294.391056 
L 422.292325 310.371049 
L 424.454533 298.900173 
L 426.616741 290.017786 
L 428.778949 292.132087 
L 430.941157 296.102343 
L 433.103366 299.566259 
L 435.265574 309.244362 
L 437.427782 319.837722 
L 439.58999 324.651624 
L 441.752198 322.787213 
L 443.914406 316.816482 
L 446.076614 306.181817 
L 448.238822 292.026086 
L 450.40103 285.221335 
L 452.563238 295.569744 
L 454.725447 311.200632 
L 456.887655 314.621136 
L 459.049863 315.222398 
L 463.374279 320.221896 
L 465.536487 324.034924 
L 467.698695 323.468972 
L 472.023111 315.155789 
L 474.18532 310.485377 
L 476.347528 310.289157 
L 478.509736 314.824805 
L 480.671944 320.900791 
L 482.834152 325.909389 
L 484.99636 322.880606 
L 487.158568 320.722846 
L 489.320776 320.976037 
L 491.482984 322.208321 
L 493.645193 321.348142 
L 495.807401 319.498815 
L 497.969609 318.052814 
L 500.131817 316.9034 
L 502.294025 316.259085 
L 504.456233 316.598146 
L 506.618441 317.182137 
L 508.780649 315.25631 
L 510.942857 306.49465 
L 513.105065 293.42182 
L 515.267274 284.867564 
L 517.429482 288.504693 
L 521.753898 310.40214 
L 523.916106 318.262479 
L 526.078314 323.841055 
L 528.240522 325.539975 
L 530.40273 324.501767 
L 532.564938 325.104181 
L 534.727147 322.515305 
L 536.889355 318.63876 
L 539.051563 316.970605 
L 541.213771 318.749946 
L 543.375979 322.366828 
L 545.538187 325.696094 
L 549.862603 316.829883 
L 552.024811 315.833529 
L 554.18702 318.236348 
L 556.349228 321.41806 
L 558.511436 323.424628 
L 560.673644 323.598643 
L 564.99806 321.459729 
L 567.160268 321.089065 
L 571.484684 321.708979 
L 575.809101 321.358029 
L 577.971309 322.254768 
L 580.133517 323.729314 
L 582.295725 324.803905 
L 584.457933 325.432539 
L 586.620141 325.869939 
L 588.782349 326.12819 
L 593.106765 326.300546 
L 595.268974 325.981802 
L 597.431182 325.346466 
L 599.59339 324.449007 
L 601.755598 323.363904 
L 603.917806 322.610282 
L 606.080014 322.903736 
L 608.242222 324.11812 
L 610.40443 324.814544 
L 612.566638 324.254038 
L 614.728847 323.934688 
L 616.891055 324.204091 
L 619.053263 324.674759 
L 621.215471 324.76584 
L 623.377679 324.643563 
L 625.539887 324.887389 
L 629.864303 326.242567 
L 632.026511 326.563218 
L 634.188719 326.339475 
L 636.350928 325.646366 
L 638.513136 324.797332 
L 640.675344 324.349572 
L 642.837552 324.418903 
L 647.161968 324.854674 
L 649 324.958911 
L 649 324.958911 
" clip-path="url(#p31d94f6503)" style="fill: none; stroke: #9467bd; stroke-linecap: square"/>
   </g>
   <g id="line2d_30">
    <path d="M 39.58149 323.582597 
L 41.743698 322.529026 
L 43.905906 318.151942 
L 46.068114 306.653527 
L 48.230322 291.832203 
L 50.392531 292.41298 
L 52.554739 302.918658 
L 54.716947 314.890599 
L 56.879155 316.93009 
L 59.041363 315.940793 
L 61.203571 309.804541 
L 63.365779 276.341943 
L 65.527987 286.209732 
L 67.690195 322.743108 
L 69.852404 326.290301 
L 72.014612 326.052642 
L 74.17682 315.924994 
L 78.501236 221.336567 
L 80.663444 239.644399 
L 82.825652 286.570063 
L 84.98786 311.229761 
L 87.150068 307.618494 
L 89.312276 247.402968 
L 91.474485 144.866969 
L 93.636693 226.62892 
L 95.798901 315.460018 
L 97.961109 302.169109 
L 100.123317 299.190571 
L 102.285525 308.455444 
L 104.447733 325.675917 
L 108.772149 228.973626 
L 110.934358 257.174259 
L 113.096566 290.969315 
L 115.258774 311.650849 
L 117.420982 285.187182 
L 119.58319 255.537515 
L 121.745398 298.176479 
L 123.907606 306.450608 
L 126.069814 274.006383 
L 128.232022 120.642242 
L 130.394231 90.384535 
L 132.556439 253.124354 
L 134.718647 298.324301 
L 136.880855 308.867412 
L 139.043063 318.105037 
L 141.205271 288.897485 
L 143.367479 250.504814 
L 145.529687 294.481376 
L 147.691895 290.857346 
L 149.854103 300.405096 
L 152.016312 240.258814 
L 154.17852 242.986075 
L 156.340728 317.758822 
L 158.502936 320.396393 
L 160.665144 310.408161 
L 162.827352 307.337095 
L 164.98956 290.605482 
L 167.151768 286.773856 
L 169.313976 308.675012 
L 171.476185 319.122933 
L 173.638393 314.242698 
L 175.800601 289.492673 
L 177.962809 275.398296 
L 180.125017 288.00666 
L 182.287225 264.567876 
L 184.449433 237.783942 
L 186.611641 248.521442 
L 188.773849 294.54769 
L 190.936058 323.094517 
L 193.098266 313.686123 
L 195.260474 286.443335 
L 197.422682 282.531592 
L 199.58489 299.855959 
L 201.747098 282.608879 
L 203.909306 255.428365 
L 206.071514 233.639509 
L 208.233722 261.622973 
L 210.39593 295.876382 
L 212.558139 319.021058 
L 214.720347 288.527869 
L 216.882555 267.566224 
L 219.044763 259.451389 
L 221.206971 274.891584 
L 223.369179 295.493865 
L 225.531387 285.580414 
L 227.693595 260.878193 
L 229.855803 266.098131 
L 232.018012 289.293333 
L 234.18022 284.347061 
L 236.342428 248.803264 
L 238.504636 249.690656 
L 240.666844 291.923353 
L 242.829052 299.485272 
L 244.99126 308.236243 
L 247.153468 312.181008 
L 249.315676 307.496858 
L 251.477885 301.818389 
L 253.640093 305.358619 
L 255.802301 308.052461 
L 257.964509 308.731555 
L 260.126717 316.976737 
L 262.288925 324.641678 
L 264.451133 313.069163 
L 266.613341 273.78148 
L 268.775549 222.20959 
L 270.937757 214.87453 
L 273.099966 268.813432 
L 275.262174 303.929925 
L 279.58659 280.102901 
L 281.748798 301.980924 
L 283.911006 303.930508 
L 286.073214 299.854881 
L 288.235422 318.237479 
L 290.39763 313.74965 
L 292.559839 313.306014 
L 296.884255 323.458334 
L 299.046463 323.787491 
L 301.208671 323.326723 
L 303.370879 325.946576 
L 305.533087 321.620593 
L 307.695295 314.162748 
L 309.857503 311.108704 
L 312.019712 318.504017 
L 314.18192 320.783713 
L 316.344128 320.114651 
L 318.506336 318.12213 
L 320.668544 312.24101 
L 324.99296 302.208875 
L 327.155168 289.053209 
L 329.317376 264.85664 
L 331.479584 277.289134 
L 333.641793 306.977949 
L 335.804001 319.857268 
L 337.966209 317.720111 
L 340.128417 322.644077 
L 342.290625 323.812875 
L 346.615041 292.996857 
L 348.777249 288.15653 
L 350.939457 266.274953 
L 353.101666 239.901437 
L 355.263874 251.377463 
L 357.426082 282.571389 
L 359.58829 303.544793 
L 361.750498 309.004968 
L 363.912706 310.864032 
L 366.074914 317.043421 
L 368.237122 321.607784 
L 370.39933 324.817978 
L 372.561539 324.404019 
L 374.723747 318.510271 
L 376.885955 313.806653 
L 379.048163 314.293532 
L 381.210371 317.093898 
L 383.372579 317.954337 
L 385.534787 315.124776 
L 387.696995 305.126759 
L 389.859203 297.707917 
L 392.021411 294.842015 
L 394.18362 279.694063 
L 396.345828 269.952082 
L 398.508036 288.339283 
L 400.670244 314.982437 
L 402.832452 316.104548 
L 404.99466 307.031289 
L 407.156868 305.156872 
L 409.319076 296.060292 
L 411.481284 281.083862 
L 413.643493 273.198446 
L 420.130117 285.579984 
L 422.292325 294.543106 
L 424.454533 300.262542 
L 426.616741 301.766411 
L 428.778949 302.521098 
L 430.941157 307.384837 
L 433.103366 313.9909 
L 435.265574 318.365878 
L 437.427782 320.349456 
L 439.58999 321.265779 
L 441.752198 317.932299 
L 443.914406 312.214454 
L 446.076614 303.930565 
L 448.238822 291.710778 
L 450.40103 286.297011 
L 452.563238 298.089142 
L 454.725447 313.627127 
L 456.887655 313.792393 
L 459.049863 315.481739 
L 461.212071 319.86773 
L 463.374279 320.805995 
L 465.536487 320.341842 
L 467.698695 323.778086 
L 469.860903 321.897558 
L 472.023111 312.69985 
L 474.18532 304.490583 
L 476.347528 303.980995 
L 478.509736 310.369318 
L 480.671944 317.810799 
L 482.834152 323.935917 
L 484.99636 322.134793 
L 487.158568 317.0532 
L 489.320776 315.649187 
L 491.482984 318.114081 
L 493.645193 320.79453 
L 495.807401 321.546228 
L 497.969609 321.245182 
L 500.131817 320.67567 
L 502.294025 319.95532 
L 504.456233 319.52465 
L 508.780649 320.38905 
L 510.942857 313.50631 
L 513.105065 301.932683 
L 515.267274 293.67179 
L 517.429482 294.63925 
L 519.59169 300.736959 
L 526.078314 315.727977 
L 528.240522 318.538043 
L 530.40273 318.665317 
L 532.564938 318.46924 
L 534.727147 319.116594 
L 536.889355 320.018149 
L 539.051563 321.454497 
L 541.213771 322.654973 
L 545.538187 318.523372 
L 547.700395 318.584121 
L 549.862603 320.174136 
L 552.024811 322.035321 
L 554.18702 323.315984 
L 556.349228 323.433616 
L 558.511436 322.527769 
L 560.673644 320.773866 
L 562.835852 318.585425 
L 564.99806 317.279216 
L 567.160268 317.921178 
L 569.322476 319.96353 
L 571.484684 321.541279 
L 573.646892 321.514943 
L 580.133517 320.305457 
L 582.295725 319.662892 
L 584.457933 319.575385 
L 586.620141 320.750892 
L 588.782349 322.747823 
L 590.944557 324.562223 
L 593.106765 325.074275 
L 595.268974 324.005525 
L 599.59339 320.794232 
L 601.755598 320.281244 
L 603.917806 321.112161 
L 606.080014 322.490105 
L 608.242222 324.103537 
L 610.40443 325.871999 
L 612.566638 325.211163 
L 614.728847 324.156741 
L 616.891055 324.025303 
L 619.053263 324.480561 
L 621.215471 324.806179 
L 625.539887 324.548537 
L 629.864303 325.102887 
L 632.026511 325.138661 
L 636.350928 325.69465 
L 640.675344 324.849345 
L 642.837552 324.728827 
L 649 324.951234 
L 649 324.951234 
" clip-path="url(#p31d94f6503)" style="fill: none; stroke: #8c564b; stroke-linecap: square"/>
   </g>
   <g id="line2d_31">
    <path d="M 39.58149 323.180843 
L 41.743698 322.002312 
L 43.905906 317.074391 
L 46.068114 304.954767 
L 48.230322 287.417701 
L 50.392531 280.456857 
L 52.554739 298.20515 
L 54.716947 294.48222 
L 56.879155 305.24769 
L 59.041363 305.444921 
L 61.203571 309.615441 
L 63.365779 310.796091 
L 65.527987 308.614752 
L 67.690195 325.274921 
L 69.852404 326.062158 
L 72.014612 324.435413 
L 74.17682 319.011302 
L 76.339028 300.122623 
L 78.501236 308.895859 
L 80.663444 300.480051 
L 82.825652 269.793357 
L 84.98786 281.019026 
L 87.150068 289.47401 
L 89.312276 273.540497 
L 91.474485 204.644177 
L 93.636693 252.447104 
L 95.798901 312.150948 
L 97.961109 278.621319 
L 100.123317 273.047523 
L 102.285525 280.98345 
L 104.447733 311.672761 
L 106.609941 300.12199 
L 108.772149 265.118559 
L 110.934358 281.768983 
L 113.096566 293.860869 
L 115.258774 289.279747 
L 117.420982 251.704369 
L 119.58319 231.663446 
L 121.745398 290.318908 
L 123.907606 319.402061 
L 126.069814 308.356584 
L 128.232022 244.70987 
L 130.394231 244.148605 
L 132.556439 290.333301 
L 134.718647 307.364243 
L 136.880855 320.769435 
L 139.043063 303.981016 
L 141.205271 256.474657 
L 143.367479 204.932376 
L 145.529687 244.495567 
L 147.691895 288.300079 
L 149.854103 293.287771 
L 152.016312 304.547089 
L 154.17852 321.730925 
L 156.340728 318.466087 
L 158.502936 317.822303 
L 160.665144 311.261639 
L 162.827352 306.582023 
L 164.98956 287.110187 
L 167.151768 288.111905 
L 169.313976 313.346357 
L 171.476185 321.579873 
L 173.638393 309.45069 
L 177.962809 250.922328 
L 180.125017 223.534614 
L 182.287225 235.955693 
L 184.449433 275.736217 
L 186.611641 265.293775 
L 188.773849 299.339091 
L 190.936058 324.243134 
L 193.098266 311.780992 
L 195.260474 277.238392 
L 197.422682 270.76876 
L 199.58489 305.646375 
L 201.747098 296.464158 
L 203.909306 315.4626 
L 206.071514 285.489919 
L 210.39593 320.39184 
L 212.558139 315.272256 
L 214.720347 277.479705 
L 216.882555 258.061948 
L 219.044763 300.280499 
L 221.206971 301.198384 
L 223.369179 299.612451 
L 225.531387 284.280033 
L 227.693595 263.983217 
L 229.855803 272.523398 
L 232.018012 294.693845 
L 234.18022 286.653623 
L 236.342428 252.518547 
L 238.504636 252.944021 
L 240.666844 293.670579 
L 242.829052 308.732795 
L 244.99126 316.000756 
L 247.153468 318.134256 
L 251.477885 292.36232 
L 253.640093 300.736408 
L 255.802301 302.870213 
L 257.964509 298.6202 
L 260.126717 314.980105 
L 262.288925 323.481514 
L 264.451133 306.309053 
L 266.613341 282.831176 
L 268.775549 279.036786 
L 270.937757 291.926956 
L 273.099966 314.693379 
L 275.262174 317.054467 
L 277.424382 296.403065 
L 279.58659 282.380718 
L 281.748798 310.723106 
L 283.911006 263.723682 
L 286.073214 261.203936 
L 288.235422 300.086586 
L 290.39763 289.749342 
L 292.559839 247.970379 
L 294.722047 265.33491 
L 296.884255 302.481188 
L 299.046463 316.19202 
L 301.208671 313.906798 
L 303.370879 317.128679 
L 305.533087 317.498698 
L 307.695295 311.133714 
L 309.857503 306.525575 
L 312.019712 313.240058 
L 314.18192 323.397875 
L 316.344128 322.512424 
L 318.506336 319.345767 
L 320.668544 320.236933 
L 322.830752 319.157241 
L 324.99296 309.28963 
L 327.155168 296.199679 
L 329.317376 289.544762 
L 331.479584 297.564557 
L 333.641793 302.343555 
L 335.804001 289.120019 
L 337.966209 289.976722 
L 340.128417 303.242069 
L 342.290625 283.149173 
L 344.452833 243.187284 
L 346.615041 231.075619 
L 348.777249 263.809476 
L 350.939457 300.195968 
L 353.101666 323.09615 
L 355.263874 312.233085 
L 357.426082 299.939451 
L 359.58829 301.388429 
L 361.750498 309.008606 
L 366.074914 322.937296 
L 368.237122 323.827895 
L 370.39933 314.848741 
L 372.561539 301.231105 
L 374.723747 276.451772 
L 376.885955 240.256133 
L 379.048163 226.003428 
L 381.210371 253.727479 
L 383.372579 287.209447 
L 385.534787 304.277405 
L 387.696995 310.883268 
L 389.859203 311.8113 
L 392.021411 313.021889 
L 394.18362 315.249707 
L 396.345828 314.705505 
L 398.508036 313.56579 
L 400.670244 317.486984 
L 402.832452 323.388103 
L 404.99466 318.807666 
L 409.319076 313.883006 
L 411.481284 315.289378 
L 413.643493 319.592877 
L 415.805701 309.120186 
L 420.130117 268.789746 
L 422.292325 258.680003 
L 424.454533 264.245904 
L 426.616741 290.627181 
L 428.778949 314.267969 
L 430.941157 310.596742 
L 433.103366 305.914927 
L 435.265574 302.675122 
L 437.427782 304.050653 
L 439.58999 310.473341 
L 441.752198 317.605405 
L 443.914406 323.24819 
L 446.076614 316.870263 
L 448.238822 307.004779 
L 450.40103 301.015793 
L 452.563238 304.39179 
L 454.725447 312.586428 
L 456.887655 319.473984 
L 459.049863 324.146383 
L 461.212071 325.754051 
L 463.374279 322.642364 
L 465.536487 320.079479 
L 467.698695 319.133006 
L 469.860903 320.537263 
L 472.023111 324.487371 
L 474.18532 323.77889 
L 476.347528 322.092356 
L 478.509736 322.682572 
L 480.671944 323.655501 
L 482.834152 324.470945 
L 484.99636 324.195683 
L 487.158568 324.08518 
L 489.320776 325.901617 
L 491.482984 321.360952 
L 495.807401 310.6242 
L 497.969609 305.734766 
L 500.131817 302.16147 
L 502.294025 302.976127 
L 504.456233 307.304018 
L 506.618441 309.850908 
L 508.780649 308.683732 
L 510.942857 304.56362 
L 513.105065 298.088433 
L 515.267274 293.958485 
L 517.429482 297.704173 
L 519.59169 305.226353 
L 523.916106 315.980822 
L 526.078314 322.473034 
L 528.240522 325.204138 
L 530.40273 322.031981 
L 532.564938 321.489648 
L 534.727147 322.723148 
L 539.051563 325.876609 
L 541.213771 325.684373 
L 545.538187 322.616349 
L 547.700395 321.396751 
L 549.862603 321.04807 
L 552.024811 321.648324 
L 556.349228 323.770642 
L 558.511436 324.449122 
L 560.673644 324.418015 
L 562.835852 323.55411 
L 564.99806 322.180188 
L 567.160268 320.965666 
L 569.322476 320.439289 
L 571.484684 320.682362 
L 573.646892 321.399589 
L 575.809101 321.941362 
L 577.971309 321.919858 
L 580.133517 321.555069 
L 582.295725 321.374773 
L 584.457933 321.956377 
L 588.782349 324.465164 
L 590.944557 325.306717 
L 595.268974 326.243068 
L 597.431182 325.519066 
L 599.59339 323.776745 
L 601.755598 321.730846 
L 603.917806 319.872728 
L 606.080014 318.538563 
L 608.242222 318.240615 
L 610.40443 319.398061 
L 614.728847 323.980436 
L 616.891055 325.820449 
L 619.053263 326.122308 
L 621.215471 325.255076 
L 623.377679 324.916789 
L 625.539887 325.318867 
L 627.702095 325.534544 
L 632.026511 323.526579 
L 634.188719 323.40004 
L 638.513136 324.965744 
L 640.675344 325.130368 
L 642.837552 325.095309 
L 647.161968 325.31962 
L 649 325.307949 
L 649 325.307949 
" clip-path="url(#p31d94f6503)" style="fill: none; stroke: #e377c2; stroke-linecap: square"/>
   </g>
   <g id="line2d_32">
    <path d="M 39.58149 326.546939 
L 41.743698 325.807508 
L 43.905906 324.033581 
L 46.068114 319.970027 
L 48.230322 317.502969 
L 50.392531 311.871857 
L 52.554739 316.920139 
L 54.716947 322.366017 
L 56.879155 309.883757 
L 59.041363 308.703433 
L 61.203571 296.743917 
L 63.365779 303.402164 
L 65.527987 321.726778 
L 67.690195 326.13802 
L 69.852404 323.682819 
L 72.014612 324.32289 
L 74.17682 321.004623 
L 76.339028 300.62398 
L 78.501236 300.447442 
L 80.663444 303.43779 
L 82.825652 248.94959 
L 84.98786 269.943536 
L 87.150068 231.38887 
L 89.312276 170.140727 
L 91.474485 245.910426 
L 93.636693 279.966343 
L 95.798901 320.06633 
L 100.123317 322.108638 
L 102.285525 322.25738 
L 104.447733 316.576614 
L 106.609941 237.861108 
L 108.772149 126.734866 
L 110.934358 180.289606 
L 113.096566 299.453183 
L 115.258774 316.666605 
L 117.420982 266.250497 
L 119.58319 226.663531 
L 121.745398 199.357592 
L 123.907606 212.685449 
L 126.069814 283.889619 
L 128.232022 245.900951 
L 130.394231 256.291519 
L 132.556439 300.035264 
L 134.718647 311.355756 
L 136.880855 319.332716 
L 139.043063 323.807661 
L 143.367479 233.56607 
L 145.529687 285.466164 
L 147.691895 275.056709 
L 149.854103 243.868494 
L 152.016312 296.042091 
L 154.17852 306.546326 
L 156.340728 292.778427 
L 158.502936 306.975357 
L 160.665144 299.105422 
L 162.827352 310.208865 
L 164.98956 295.226222 
L 167.151768 294.488558 
L 169.313976 312.606462 
L 171.476185 314.347468 
L 173.638393 310.809901 
L 175.800601 309.128967 
L 177.962809 316.343692 
L 180.125017 276.56232 
L 182.287225 207.61221 
L 184.449433 161.839392 
L 186.611641 158.826063 
L 188.773849 239.360276 
L 190.936058 307.154524 
L 193.098266 318.468602 
L 195.260474 285.019962 
L 197.422682 275.931549 
L 199.58489 302.491367 
L 201.747098 280.612937 
L 203.909306 292.444779 
L 206.071514 313.198252 
L 208.233722 303.631862 
L 210.39593 290.914304 
L 214.720347 309.852854 
L 216.882555 283.105844 
L 219.044763 270.451497 
L 221.206971 289.894716 
L 223.369179 319.330489 
L 225.531387 293.434748 
L 227.693595 274.772892 
L 229.855803 285.675886 
L 232.018012 300.984329 
L 234.18022 288.389833 
L 236.342428 265.193711 
L 238.504636 272.348908 
L 240.666844 300.499696 
L 242.829052 317.776814 
L 244.99126 309.296523 
L 247.153468 299.776826 
L 249.315676 270.946815 
L 251.477885 266.684736 
L 253.640093 303.69196 
L 255.802301 319.836034 
L 257.964509 302.985232 
L 260.126717 309.021051 
L 262.288925 318.786137 
L 264.451133 320.730938 
L 266.613341 312.271798 
L 268.775549 296.689541 
L 270.937757 294.731519 
L 273.099966 304.032884 
L 275.262174 301.987943 
L 277.424382 295.546399 
L 279.58659 305.091369 
L 281.748798 317.709791 
L 283.911006 312.975872 
L 286.073214 305.104198 
L 288.235422 305.986384 
L 290.39763 311.289135 
L 292.559839 314.640913 
L 294.722047 319.215971 
L 296.884255 323.464669 
L 299.046463 322.018237 
L 301.208671 319.880507 
L 303.370879 323.080296 
L 305.533087 325.303824 
L 307.695295 318.58794 
L 309.857503 310.275195 
L 312.019712 313.118912 
L 314.18192 321.993113 
L 316.344128 321.026849 
L 318.506336 321.46309 
L 320.668544 319.731689 
L 322.830752 312.746424 
L 324.99296 297.275377 
L 327.155168 264.913984 
L 329.317376 239.2101 
L 331.479584 257.018309 
L 333.641793 276.438069 
L 335.804001 258.237203 
L 337.966209 263.625014 
L 340.128417 294.799294 
L 342.290625 298.464715 
L 344.452833 277.315449 
L 346.615041 276.117119 
L 348.777249 294.546301 
L 350.939457 308.000521 
L 353.101666 313.387053 
L 355.263874 321.372938 
L 359.58829 284.289384 
L 361.750498 287.936717 
L 363.912706 306.506858 
L 366.074914 321.433601 
L 368.237122 323.76672 
L 372.561539 320.321599 
L 376.885955 307.782179 
L 379.048163 306.633045 
L 381.210371 312.710561 
L 383.372579 319.274429 
L 385.534787 320.482362 
L 387.696995 316.715594 
L 389.859203 316.84242 
L 392.021411 325.28889 
L 394.18362 307.959989 
L 396.345828 281.140767 
L 398.508036 257.238955 
L 400.670244 250.452485 
L 402.832452 259.640087 
L 404.99466 274.072004 
L 407.156868 291.389852 
L 409.319076 307.713198 
L 411.481284 322.283232 
L 413.643493 319.053352 
L 415.805701 309.726313 
L 417.967909 301.144326 
L 420.130117 299.469459 
L 422.292325 308.569591 
L 424.454533 312.927921 
L 426.616741 304.584946 
L 428.778949 294.937106 
L 430.941157 290.17825 
L 433.103366 297.120209 
L 435.265574 311.506883 
L 437.427782 318.364841 
L 439.58999 316.742583 
L 441.752198 316.742323 
L 443.914406 315.474698 
L 446.076614 309.268644 
L 448.238822 294.180107 
L 450.40103 273.357665 
L 452.563238 256.521198 
L 454.725447 247.690189 
L 456.887655 257.05047 
L 459.049863 281.888128 
L 461.212071 303.249783 
L 463.374279 314.570204 
L 465.536487 315.986272 
L 467.698695 311.622701 
L 469.860903 309.573334 
L 472.023111 311.50436 
L 474.18532 315.091905 
L 476.347528 319.890479 
L 478.509736 323.150311 
L 480.671944 323.190976 
L 482.834152 323.373174 
L 484.99636 323.935575 
L 487.158568 324.642054 
L 489.320776 324.378285 
L 491.482984 322.781107 
L 495.807401 318.915511 
L 497.969609 317.876235 
L 500.131817 317.746063 
L 502.294025 317.776393 
L 504.456233 317.536828 
L 506.618441 315.755154 
L 510.942857 309.520165 
L 513.105065 306.242712 
L 515.267274 305.768706 
L 517.429482 311.487327 
L 519.59169 319.42243 
L 521.753898 322.387539 
L 523.916106 322.776039 
L 526.078314 323.648994 
L 528.240522 322.288633 
L 530.40273 321.840263 
L 532.564938 323.165594 
L 534.727147 324.863429 
L 536.889355 325.224058 
L 539.051563 324.137 
L 543.375979 319.838173 
L 545.538187 318.852061 
L 547.700395 317.635379 
L 549.862603 316.05419 
L 552.024811 316.134731 
L 554.18702 317.979912 
L 556.349228 320.604476 
L 558.511436 322.899804 
L 560.673644 324.684781 
L 562.835852 324.855376 
L 564.99806 322.638715 
L 567.160268 321.244752 
L 569.322476 321.454374 
L 573.646892 322.557056 
L 575.809101 323.580483 
L 577.971309 324.465263 
L 580.133517 324.647965 
L 584.457933 323.980287 
L 586.620141 324.167047 
L 588.782349 324.840513 
L 590.944557 325.155318 
L 593.106765 324.383168 
L 595.268974 322.747672 
L 599.59339 318.185236 
L 601.755598 317.502622 
L 603.917806 318.907423 
L 606.080014 320.967153 
L 608.242222 322.044552 
L 610.40443 322.143456 
L 612.566638 322.57342 
L 616.891055 324.617789 
L 619.053263 325.112768 
L 629.864303 325.141108 
L 634.188719 324.49969 
L 636.350928 324.420284 
L 638.513136 324.828456 
L 640.675344 325.560801 
L 642.837552 326.082267 
L 644.99976 325.999393 
L 649 325.319999 
L 649 325.319999 
" clip-path="url(#p31d94f6503)" style="fill: none; stroke: #7f7f7f; stroke-linecap: square"/>
   </g>
   <g id="patch_3">
    <path d="M 39.58149 326.64351 
L 39.58149 18.118365 
" style="fill: none; stroke: #000000; stroke-width: 0.8; stroke-linejoin: miter; stroke-linecap: square"/>
   </g>
   <g id="patch_4">
    <path d="M 644.99976 326.64351 
L 644.99976 18.118365 
" style="fill: none; stroke: #000000; stroke-width: 0.8; stroke-linejoin: miter; stroke-linecap: square"/>
   </g>
   <g id="patch_5">
    <path d="M 39.58149 326.64351 
L 644.99976 326.64351 
" style="fill: none; stroke: #000000; stroke-width: 0.8; stroke-linejoin: miter; stroke-linecap: square"/>
   </g>
   <g id="patch_6">
    <path d="M 39.58149 18.118365 
L 644.99976 18.118365 
" style="fill: none; stroke: #000000; stroke-width: 0.8; stroke-linejoin: miter; stroke-linecap: square"/>
   </g>
   <g id="text_15">
    <!-- CalculiX high-frequency response - HPF 100 Hz / LPF 5 kHz / 50 ms -->
    <g transform="translate(141.96375 12.118365) scale(0.12 -0.12)">
     <defs>
      <path id="DejaVuSans-43" d="M 4122 4306 
L 4122 3641 
Q 3803 3938 3442 4084 
Q 3081 4231 2675 4231 
Q 1875 4231 1450 3742 
Q 1025 3253 1025 2328 
Q 1025 1406 1450 917 
Q 1875 428 2675 428 
Q 3081 428 3442 575 
Q 3803 722 4122 1019 
L 4122 359 
Q 3791 134 3420 21 
Q 3050 -91 2638 -91 
Q 1578 -91 968 557 
Q 359 1206 359 2328 
Q 359 3453 968 4101 
Q 1578 4750 2638 4750 
Q 3056 4750 3426 4639 
Q 3797 4528 4122 4306 
z
" transform="scale(0.015625)"/>
      <path id="DejaVuSans-58" d="M 403 4666 
L 1081 4666 
L 2241 2931 
L 3406 4666 
L 4084 4666 
L 2584 2425 
L 4184 0 
L 3506 0 
L 2194 1984 
L 872 0 
L 191 0 
L 1856 2491 
L 403 4666 
z
" transform="scale(0.015625)"/>
      <path id="DejaVuSans-68" d="M 3513 2113 
L 3513 0 
L 2938 0 
L 2938 2094 
Q 2938 2591 2744 2837 
Q 2550 3084 2163 3084 
Q 1697 3084 1428 2787 
Q 1159 2491 1159 1978 
L 1159 0 
L 581 0 
L 581 4863 
L 1159 4863 
L 1159 2956 
Q 1366 3272 1645 3428 
Q 1925 3584 2291 3584 
Q 2894 3584 3203 3211 
Q 3513 2838 3513 2113 
z
" transform="scale(0.015625)"/>
      <path id="DejaVuSans-67" d="M 2906 1791 
Q 2906 2416 2648 2759 
Q 2391 3103 1925 3103 
Q 1463 3103 1205 2759 
Q 947 2416 947 1791 
Q 947 1169 1205 825 
Q 1463 481 1925 481 
Q 2391 481 2648 825 
Q 2906 1169 2906 1791 
z
M 3481 434 
Q 3481 -459 3084 -895 
Q 2688 -1331 1869 -1331 
Q 1566 -1331 1297 -1286 
Q 1028 -1241 775 -1147 
L 775 -588 
Q 1028 -725 1275 -790 
Q 1522 -856 1778 -856 
Q 2344 -856 2625 -561 
Q 2906 -266 2906 331 
L 2906 616 
Q 2728 306 2450 153 
Q 2172 0 1784 0 
Q 1141 0 747 490 
Q 353 981 353 1791 
Q 353 2603 747 3093 
Q 1141 3584 1784 3584 
Q 2172 3584 2450 3431 
Q 2728 3278 2906 2969 
L 2906 3500 
L 3481 3500 
L 3481 434 
z
" transform="scale(0.015625)"/>
      <path id="DejaVuSans-2d" d="M 313 2009 
L 1997 2009 
L 1997 1497 
L 313 1497 
L 313 2009 
z
" transform="scale(0.015625)"/>
      <path id="DejaVuSans-50" d="M 1259 4147 
L 1259 2394 
L 2053 2394 
Q 2494 2394 2734 2622 
Q 2975 2850 2975 3272 
Q 2975 3691 2734 3919 
Q 2494 4147 2053 4147 
L 1259 4147 
z
M 628 4666 
L 2053 4666 
Q 2838 4666 3239 4311 
Q 3641 3956 3641 3272 
Q 3641 2581 3239 2228 
Q 2838 1875 2053 1875 
L 1259 1875 
L 1259 0 
L 628 0 
L 628 4666 
z
" transform="scale(0.015625)"/>
      <path id="DejaVuSans-46" d="M 628 4666 
L 3309 4666 
L 3309 4134 
L 1259 4134 
L 1259 2759 
L 3109 2759 
L 3109 2228 
L 1259 2228 
L 1259 0 
L 628 0 
L 628 4666 
z
" transform="scale(0.015625)"/>
      <path id="DejaVuSans-2f" d="M 1625 4666 
L 2156 4666 
L 531 -594 
L 0 -594 
L 1625 4666 
z
" transform="scale(0.015625)"/>
      <path id="DejaVuSans-4c" d="M 628 4666 
L 1259 4666 
L 1259 531 
L 3531 531 
L 3531 0 
L 628 0 
L 628 4666 
z
" transform="scale(0.015625)"/>
      <path id="DejaVuSans-6b" d="M 581 4863 
L 1159 4863 
L 1159 1991 
L 2875 3500 
L 3609 3500 
L 1753 1863 
L 3688 0 
L 2938 0 
L 1159 1709 
L 1159 0 
L 581 0 
L 581 4863 
z
" transform="scale(0.015625)"/>
     </defs>
     <use xlink:href="#DejaVuSans-43"/>
     <use xlink:href="#DejaVuSans-61" x="69.824219"/>
     <use xlink:href="#DejaVuSans-6c" x="131.103516"/>
     <use xlink:href="#DejaVuSans-63" x="158.886719"/>
     <use xlink:href="#DejaVuSans-75" x="213.867188"/>
     <use xlink:href="#DejaVuSans-6c" x="277.246094"/>
     <use xlink:href="#DejaVuSans-69" x="305.029297"/>
     <use xlink:href="#DejaVuSans-58" x="332.8125"/>
     <use xlink:href="#DejaVuSans-20" x="401.318359"/>
     <use xlink:href="#DejaVuSans-68" x="433.105469"/>
     <use xlink:href="#DejaVuSans-69" x="496.484375"/>
     <use xlink:href="#DejaVuSans-67" x="524.267578"/>
     <use xlink:href="#DejaVuSans-68" x="587.744141"/>
     <use xlink:href="#DejaVuSans-2d" x="651.123047"/>
     <use xlink:href="#DejaVuSans-66" x="687.207031"/>
     <use xlink:href="#DejaVuSans-72" x="722.412109"/>
     <use xlink:href="#DejaVuSans-65" x="761.275391"/>
     <use xlink:href="#DejaVuSans-71" x="822.798828"/>
     <use xlink:href="#DejaVuSans-75" x="886.275391"/>
     <use xlink:href="#DejaVuSans-65" x="949.654297"/>
     <use xlink:href="#DejaVuSans-6e" x="1011.177734"/>
     <use xlink:href="#DejaVuSans-63" x="1074.556641"/>
     <use xlink:href="#DejaVuSans-79" x="1129.537109"/>
     <use xlink:href="#DejaVuSans-20" x="1188.716797"/>
     <use xlink:href="#DejaVuSans-72" x="1220.503906"/>
     <use xlink:href="#DejaVuSans-65" x="1259.367188"/>
     <use xlink:href="#DejaVuSans-73" x="1320.890625"/>
     <use xlink:href="#DejaVuSans-70" x="1372.990234"/>
     <use xlink:href="#DejaVuSans-6f" x="1436.466797"/>
     <use xlink:href="#DejaVuSans-6e" x="1497.648438"/>
     <use xlink:href="#DejaVuSans-73" x="1561.027344"/>
     <use xlink:href="#DejaVuSans-65" x="1613.126953"/>
     <use xlink:href="#DejaVuSans-20" x="1674.650391"/>
     <use xlink:href="#DejaVuSans-2d" x="1706.4375"/>
     <use xlink:href="#DejaVuSans-20" x="1742.521484"/>
     <use xlink:href="#DejaVuSans-48" x="1774.308594"/>
     <use xlink:href="#DejaVuSans-50" x="1849.503906"/>
     <use xlink:href="#DejaVuSans-46" x="1909.806641"/>
     <use xlink:href="#DejaVuSans-20" x="1967.326172"/>
     <use xlink:href="#DejaVuSans-31" x="1999.113281"/>
     <use xlink:href="#DejaVuSans-30" x="2062.736328"/>
     <use xlink:href="#DejaVuSans-30" x="2126.359375"/>
     <use xlink:href="#DejaVuSans-20" x="2189.982422"/>
     <use xlink:href="#DejaVuSans-48" x="2221.769531"/>
     <use xlink:href="#DejaVuSans-7a" x="2296.964844"/>
     <use xlink:href="#DejaVuSans-20" x="2349.455078"/>
     <use xlink:href="#DejaVuSans-2f" x="2381.242188"/>
     <use xlink:href="#DejaVuSans-20" x="2414.933594"/>
     <use xlink:href="#DejaVuSans-4c" x="2446.720703"/>
     <use xlink:href="#DejaVuSans-50" x="2502.433594"/>
     <use xlink:href="#DejaVuSans-46" x="2562.736328"/>
     <use xlink:href="#DejaVuSans-20" x="2620.255859"/>
     <use xlink:href="#DejaVuSans-35" x="2652.042969"/>
     <use xlink:href="#DejaVuSans-20" x="2715.666016"/>
     <use xlink:href="#DejaVuSans-6b" x="2747.453125"/>
     <use xlink:href="#DejaVuSans-48" x="2805.363281"/>
     <use xlink:href="#DejaVuSans-7a" x="2880.558594"/>
     <use xlink:href="#DejaVuSans-20" x="2933.048828"/>
     <use xlink:href="#DejaVuSans-2f" x="2964.835938"/>
     <use xlink:href="#DejaVuSans-20" x="2998.527344"/>
     <use xlink:href="#DejaVuSans-35" x="3030.314453"/>
     <use xlink:href="#DejaVuSans-30" x="3093.9375"/>
     <use xlink:href="#DejaVuSans-20" x="3157.560547"/>
     <use xlink:href="#DejaVuSans-6d" x="3189.347656"/>
     <use xlink:href="#DejaVuSans-73" x="3286.759766"/>
    </g>
   </g>
   <g id="legend_1">
    <g id="patch_7">
     <path d="M 406.41851 55.474615 
L 637.99976 55.474615 
Q 639.99976 55.474615 639.99976 53.474615 
L 639.99976 25.118365 
Q 639.99976 23.118365 637.99976 23.118365 
L 406.41851 23.118365 
Q 404.41851 23.118365 404.41851 25.118365 
L 404.41851 53.474615 
Q 404.41851 55.474615 406.41851 55.474615 
z
" style="fill: #ffffff; opacity: 0.8; stroke: #cccccc; stroke-linejoin: miter"/>
    </g>
    <g id="line2d_33">
     <path d="M 408.41851 31.216803 
L 418.41851 31.216803 
L 428.41851 31.216803 
" style="fill: none; stroke: #1f77b4; stroke-linecap: square"/>
    </g>
    <g id="text_16">
     <!-- C4 -->
     <g transform="translate(436.41851 34.716803) scale(0.1 -0.1)">
      <use xlink:href="#DejaVuSans-43"/>
      <use xlink:href="#DejaVuSans-34" x="69.824219"/>
     </g>
    </g>
    <g id="line2d_34">
     <path d="M 408.41851 45.894928 
L 418.41851 45.894928 
L 428.41851 45.894928 
" style="fill: none; stroke: #ff7f0e; stroke-linecap: square"/>
    </g>
    <g id="text_17">
     <!-- D4 -->
     <g transform="translate(436.41851 49.394928) scale(0.1 -0.1)">
      <defs>
       <path id="DejaVuSans-44" d="M 1259 4147 
L 1259 519 
L 2022 519 
Q 2988 519 3436 956 
Q 3884 1394 3884 2338 
Q 3884 3275 3436 3711 
Q 2988 4147 2022 4147 
L 1259 4147 
z
M 628 4666 
L 1925 4666 
Q 3281 4666 3915 4102 
Q 4550 3538 4550 2338 
Q 4550 1131 3912 565 
Q 3275 0 1925 0 
L 628 0 
L 628 4666 
z
" transform="scale(0.015625)"/>
      </defs>
      <use xlink:href="#DejaVuSans-44"/>
      <use xlink:href="#DejaVuSans-34" x="77.001953"/>
     </g>
    </g>
    <g id="line2d_35">
     <path d="M 470.48101 31.216803 
L 480.48101 31.216803 
L 490.48101 31.216803 
" style="fill: none; stroke: #2ca02c; stroke-linecap: square"/>
    </g>
    <g id="text_18">
     <!-- E4 -->
     <g transform="translate(498.48101 34.716803) scale(0.1 -0.1)">
      <defs>
       <path id="DejaVuSans-45" d="M 628 4666 
L 3578 4666 
L 3578 4134 
L 1259 4134 
L 1259 2753 
L 3481 2753 
L 3481 2222 
L 1259 2222 
L 1259 531 
L 3634 531 
L 3634 0 
L 628 0 
L 628 4666 
z
" transform="scale(0.015625)"/>
      </defs>
      <use xlink:href="#DejaVuSans-45"/>
      <use xlink:href="#DejaVuSans-34" x="63.183594"/>
     </g>
    </g>
    <g id="line2d_36">
     <path d="M 470.48101 45.894928 
L 480.48101 45.894928 
L 490.48101 45.894928 
" style="fill: none; stroke: #d62728; stroke-linecap: square"/>
    </g>
    <g id="text_19">
     <!-- G4 -->
     <g transform="translate(498.48101 49.394928) scale(0.1 -0.1)">
      <defs>
       <path id="DejaVuSans-47" d="M 3809 666 
L 3809 1919 
L 2778 1919 
L 2778 2438 
L 4434 2438 
L 4434 434 
Q 4069 175 3628 42 
Q 3188 -91 2688 -91 
Q 1594 -91 976 548 
Q 359 1188 359 2328 
Q 359 3472 976 4111 
Q 1594 4750 2688 4750 
Q 3144 4750 3555 4637 
Q 3966 4525 4313 4306 
L 4313 3634 
Q 3963 3931 3569 4081 
Q 3175 4231 2741 4231 
Q 1884 4231 1454 3753 
Q 1025 3275 1025 2328 
Q 1025 1384 1454 906 
Q 1884 428 2741 428 
Q 3075 428 3337 486 
Q 3600 544 3809 666 
z
" transform="scale(0.015625)"/>
      </defs>
      <use xlink:href="#DejaVuSans-47"/>
      <use xlink:href="#DejaVuSans-34" x="77.490234"/>
     </g>
    </g>
    <g id="line2d_37">
     <path d="M 532.591948 31.216803 
L 542.591948 31.216803 
L 552.591948 31.216803 
" style="fill: none; stroke: #9467bd; stroke-linecap: square"/>
    </g>
    <g id="text_20">
     <!-- A4 -->
     <g transform="translate(560.591948 34.716803) scale(0.1 -0.1)">
      <defs>
       <path id="DejaVuSans-41" d="M 2188 4044 
L 1331 1722 
L 3047 1722 
L 2188 4044 
z
M 1831 4666 
L 2547 4666 
L 4325 0 
L 3669 0 
L 3244 1197 
L 1141 1197 
L 716 0 
L 50 0 
L 1831 4666 
z
" transform="scale(0.015625)"/>
      </defs>
      <use xlink:href="#DejaVuSans-41"/>
      <use xlink:href="#DejaVuSans-34" x="68.408203"/>
     </g>
    </g>
    <g id="line2d_38">
     <path d="M 532.591948 45.894928 
L 542.591948 45.894928 
L 552.591948 45.894928 
" style="fill: none; stroke: #8c564b; stroke-linecap: square"/>
    </g>
    <g id="text_21">
     <!-- C5 -->
     <g transform="translate(560.591948 49.394928) scale(0.1 -0.1)">
      <use xlink:href="#DejaVuSans-43"/>
      <use xlink:href="#DejaVuSans-35" x="69.824219"/>
     </g>
    </g>
    <g id="line2d_39">
     <path d="M 593.93726 31.216803 
L 603.93726 31.216803 
L 613.93726 31.216803 
" style="fill: none; stroke: #e377c2; stroke-linecap: square"/>
    </g>
    <g id="text_22">
     <!-- D5 -->
     <g transform="translate(621.93726 34.716803) scale(0.1 -0.1)">
      <use xlink:href="#DejaVuSans-44"/>
      <use xlink:href="#DejaVuSans-35" x="77.001953"/>
     </g>
    </g>
    <g id="line2d_40">
     <path d="M 593.93726 45.894928 
L 603.93726 45.894928 
L 613.93726 45.894928 
" style="fill: none; stroke: #7f7f7f; stroke-linecap: square"/>
    </g>
    <g id="text_23">
     <!-- E5 -->
     <g transform="translate(621.93726 49.394928) scale(0.1 -0.1)">
      <use xlink:href="#DejaVuSans-45"/>
      <use xlink:href="#DejaVuSans-35" x="63.183594"/>
     </g>
    </g>
   </g>
  </g>
 </g>
 <defs>
  <clipPath id="p31d94f6503">
   <rect x="39.58149" y="18.118365" width="605.41827" height="308.525145"/>
  </clipPath>
 </defs>
</svg>
