<?xml version="1.0" encoding="utf-8" standalone="no"?>
<!DOCTYPE svg PUBLIC "-//W3C//DTD SVG 1.1//EN"
  "http://www.w3.org/Graphics/SVG/1.1/DTD/svg11.dtd">
<svg xmlns:xlink="http://www.w3.org/1999/xlink" width="648pt" height="360pt" viewBox="0 0 648 360" xmlns="http://www.w3.org/2000/svg" version="1.1">
 <metadata>
  <rdf:RDF xmlns:dc="http://purl.org/dc/elements/1.1/" xmlns:cc="http://creativecommons.org/ns#" xmlns:rdf="http://www.w3.org/1999/02/22-rdf-syntax-ns#">
   <cc:Work>
    <dc:type rdf:resource="http://purl.org/dc/dcmitype/StillImage"/>
    <dc:format>image/svg+xml</dc:format>
    <dc:creator>
     <cc:Agent>
      <dc:title>Matplotlib v3.6.3, https://matplotlib.org/</dc:title>
     </cc:Agent>
    </dc:creator>
   </cc:Work>
  </rdf:RDF>
 </metadata>
 <defs>
  <style type="text/css">*{stroke-linejoin: round; stroke-linecap: butt}</style>
 </defs>
 <g id="figure_1">
  <g id="patch_1">
   <path d="M 0 360 
L 648 360 
L 648 0 
L 0 0 
z
" style="fill: #ffffff"/>
  </g>
  <g id="axes_1">
   <g id="patch_2">
    <path d="M 39.58149 326.64351 
L 644.99976 326.64351 
L 644.99976 18.118365 
L 39.58149 18.118365 
z
" style="fill: #ffffff"/>
   </g>
   <g id="matplotlib.axis_1">
    <g id="xtick_1">
     <g id="line2d_1">
      <path d="M 39.58149 326.64351 
L 39.58149 18.118365 
" clip-path="url(#p6bf84d83c6)" style="fill: none; stroke: #b0b0b0; stroke-opacity: 0.22; stroke-width: 0.8; stroke-linecap: square"/>
     </g>
     <g id="line2d_2">
      <defs>
       <path id="mb1be395b39" d="M 0 0 
L 0 3.5 
" style="stroke: #000000; stroke-width: 0.8"/>
      </defs>
      <g>
       <use xlink:href="#mb1be395b39" x="39.58149" y="326.64351" style="stroke: #000000; stroke-width: 0.8"/>
      </g>
     </g>
     <g id="text_1">
      <!-- 0 -->
      <g transform="translate(36.40024 341.241947) scale(0.1 -0.1)">
       <defs>
        <path id="DejaVuSans-30" d="M 2034 4250 
Q 1547 4250 1301 3770 
Q 1056 3291 1056 2328 
Q 1056 1369 1301 889 
Q 1547 409 2034 409 
Q 2525 409 2770 889 
Q 3016 1369 3016 2328 
Q 3016 3291 2770 3770 
Q 2525 4250 2034 4250 
z
M 2034 4750 
Q 2819 4750 3233 4129 
Q 3647 3509 3647 2328 
Q 3647 1150 3233 529 
Q 2819 -91 2034 -91 
Q 1250 -91 836 529 
Q 422 1150 422 2328 
Q 422 3509 836 4129 
Q 1250 4750 2034 4750 
z
" transform="scale(0.015625)"/>
       </defs>
       <use xlink:href="#DejaVuSans-30"/>
      </g>
     </g>
    </g>
    <g id="xtick_2">
     <g id="line2d_3">
      <path d="M 147.691895 326.64351 
L 147.691895 18.118365 
" clip-path="url(#p6bf84d83c6)" style="fill: none; stroke: #b0b0b0; stroke-opacity: 0.22; stroke-width: 0.8; stroke-linecap: square"/>
     </g>
     <g id="line2d_4">
      <g>
       <use xlink:href="#mb1be395b39" x="147.691895" y="326.64351" style="stroke: #000000; stroke-width: 0.8"/>
      </g>
     </g>
     <g id="text_2">
      <!-- 1000 -->
      <g transform="translate(134.966895 341.241947) scale(0.1 -0.1)">
       <defs>
        <path id="DejaVuSans-31" d="M 794 531 
L 1825 531 
L 1825 4091 
L 703 3866 
L 703 4441 
L 1819 4666 
L 2450 4666 
L 2450 531 
L 3481 531 
L 3481 0 
L 794 0 
L 794 531 
z
" transform="scale(0.015625)"/>
       </defs>
       <use xlink:href="#DejaVuSans-31"/>
       <use xlink:href="#DejaVuSans-30" x="63.623047"/>
       <use xlink:href="#DejaVuSans-30" x="127.246094"/>
       <use xlink:href="#DejaVuSans-30" x="190.869141"/>
      </g>
     </g>
    </g>
    <g id="xtick_3">
     <g id="line2d_5">
      <path d="M 255.802301 326.64351 
L 255.802301 18.118365 
" clip-path="url(#p6bf84d83c6)" style="fill: none; stroke: #b0b0b0; stroke-opacity: 0.22; stroke-width: 0.8; stroke-linecap: square"/>
     </g>
     <g id="line2d_6">
      <g>
       <use xlink:href="#mb1be395b39" x="255.802301" y="326.64351" style="stroke: #000000; stroke-width: 0.8"/>
      </g>
     </g>
     <g id="text_3">
      <!-- 2000 -->
      <g transform="translate(243.077301 341.241947) scale(0.1 -0.1)">
       <defs>
        <path id="DejaVuSans-32" d="M 1228 531 
L 3431 531 
L 3431 0 
L 469 0 
L 469 531 
Q 828 903 1448 1529 
Q 2069 2156 2228 2338 
Q 2531 2678 2651 2914 
Q 2772 3150 2772 3378 
Q 2772 3750 2511 3984 
Q 2250 4219 1831 4219 
Q 1534 4219 1204 4116 
Q 875 4013 500 3803 
L 500 4441 
Q 881 4594 1212 4672 
Q 1544 4750 1819 4750 
Q 2544 4750 2975 4387 
Q 3406 4025 3406 3419 
Q 3406 3131 3298 2873 
Q 3191 2616 2906 2266 
Q 2828 2175 2409 1742 
Q 1991 1309 1228 531 
z
" transform="scale(0.015625)"/>
       </defs>
       <use xlink:href="#DejaVuSans-32"/>
       <use xlink:href="#DejaVuSans-30" x="63.623047"/>
       <use xlink:href="#DejaVuSans-30" x="127.246094"/>
       <use xlink:href="#DejaVuSans-30" x="190.869141"/>
      </g>
     </g>
    </g>
    <g id="xtick_4">
     <g id="line2d_7">
      <path d="M 363.912706 326.64351 
L 363.912706 18.118365 
" clip-path="url(#p6bf84d83c6)" style="fill: none; stroke: #b0b0b0; stroke-opacity: 0.22; stroke-width: 0.8; stroke-linecap: square"/>
     </g>
     <g id="line2d_8">
      <g>
       <use xlink:href="#mb1be395b39" x="363.912706" y="326.64351" style="stroke: #000000; stroke-width: 0.8"/>
      </g>
     </g>
     <g id="text_4">
      <!-- 3000 -->
      <g transform="translate(351.187706 341.241947) scale(0.1 -0.1)">
       <defs>
        <path id="DejaVuSans-33" d="M 2597 2516 
Q 3050 2419 3304 2112 
Q 3559 1806 3559 1356 
Q 3559 666 3084 287 
Q 2609 -91 1734 -91 
Q 1441 -91 1130 -33 
Q 819 25 488 141 
L 488 750 
Q 750 597 1062 519 
Q 1375 441 1716 441 
Q 2309 441 2620 675 
Q 2931 909 2931 1356 
Q 2931 1769 2642 2001 
Q 2353 2234 1838 2234 
L 1294 2234 
L 1294 2753 
L 1863 2753 
Q 2328 2753 2575 2939 
Q 2822 3125 2822 3475 
Q 2822 3834 2567 4026 
Q 2313 4219 1838 4219 
Q 1578 4219 1281 4162 
Q 984 4106 628 3988 
L 628 4550 
Q 988 4650 1302 4700 
Q 1616 4750 1894 4750 
Q 2613 4750 3031 4423 
Q 3450 4097 3450 3541 
Q 3450 3153 3228 2886 
Q 3006 2619 2597 2516 
z
" transform="scale(0.015625)"/>
       </defs>
       <use xlink:href="#DejaVuSans-33"/>
       <use xlink:href="#DejaVuSans-30" x="63.623047"/>
       <use xlink:href="#DejaVuSans-30" x="127.246094"/>
       <use xlink:href="#DejaVuSans-30" x="190.869141"/>
      </g>
     </g>
    </g>
    <g id="xtick_5">
     <g id="line2d_9">
      <path d="M 472.023111 326.64351 
L 472.023111 18.118365 
" clip-path="url(#p6bf84d83c6)" style="fill: none; stroke: #b0b0b0; stroke-opacity: 0.22; stroke-width: 0.8; stroke-linecap: square"/>
     </g>
     <g id="line2d_10">
      <g>
       <use xlink:href="#mb1be395b39" x="472.023111" y="326.64351" style="stroke: #000000; stroke-width: 0.8"/>
      </g>
     </g>
     <g id="text_5">
      <!-- 4000 -->
      <g transform="translate(459.298111 341.241947) scale(0.1 -0.1)">
       <defs>
        <path id="DejaVuSans-34" d="M 2419 4116 
L 825 1625 
L 2419 1625 
L 2419 4116 
z
M 2253 4666 
L 3047 4666 
L 3047 1625 
L 3713 1625 
L 3713 1100 
L 3047 1100 
L 3047 0 
L 2419 0 
L 2419 1100 
L 313 1100 
L 313 1709 
L 2253 4666 
z
" transform="scale(0.015625)"/>
       </defs>
       <use xlink:href="#DejaVuSans-34"/>
       <use xlink:href="#DejaVuSans-30" x="63.623047"/>
       <use xlink:href="#DejaVuSans-30" x="127.246094"/>
       <use xlink:href="#DejaVuSans-30" x="190.869141"/>
      </g>
     </g>
    </g>
    <g id="xtick_6">
     <g id="line2d_11">
      <path d="M 580.133517 326.64351 
L 580.133517 18.118365 
" clip-path="url(#p6bf84d83c6)" style="fill: none; stroke: #b0b0b0; stroke-opacity: 0.22; stroke-width: 0.8; stroke-linecap: square"/>
     </g>
     <g id="line2d_12">
      <g>
       <use xlink:href="#mb1be395b39" x="580.133517" y="326.64351" style="stroke: #000000; stroke-width: 0.8"/>
      </g>
     </g>
     <g id="text_6">
      <!-- 5000 -->
      <g transform="translate(567.408517 341.241947) scale(0.1 -0.1)">
       <defs>
        <path id="DejaVuSans-35" d="M 691 4666 
L 3169 4666 
L 3169 4134 
L 1269 4134 
L 1269 2991 
Q 1406 3038 1543 3061 
Q 1681 3084 1819 3084 
Q 2600 3084 3056 2656 
Q 3513 2228 3513 1497 
Q 3513 744 3044 326 
Q 2575 -91 1722 -91 
Q 1428 -91 1123 -41 
Q 819 9 494 109 
L 494 744 
Q 775 591 1075 516 
Q 1375 441 1709 441 
Q 2250 441 2565 725 
Q 2881 1009 2881 1497 
Q 2881 1984 2565 2268 
Q 2250 2553 1709 2553 
Q 1456 2553 1204 2497 
Q 953 2441 691 2322 
L 691 4666 
z
" transform="scale(0.015625)"/>
       </defs>
       <use xlink:href="#DejaVuSans-35"/>
       <use xlink:href="#DejaVuSans-30" x="63.623047"/>
       <use xlink:href="#DejaVuSans-30" x="127.246094"/>
       <use xlink:href="#DejaVuSans-30" x="190.869141"/>
      </g>
     </g>
    </g>
    <g id="text_7">
     <!-- frequency [Hz] -->
     <g transform="translate(305.339063 354.920073) scale(0.1 -0.1)">
      <defs>
       <path id="DejaVuSans-66" d="M 2375 4863 
L 2375 4384 
L 1825 4384 
Q 1516 4384 1395 4259 
Q 1275 4134 1275 3809 
L 1275 3500 
L 2222 3500 
L 2222 3053 
L 1275 3053 
L 1275 0 
L 697 0 
L 697 3053 
L 147 3053 
L 147 3500 
L 697 3500 
L 697 3744 
Q 697 4328 969 4595 
Q 1241 4863 1831 4863 
L 2375 4863 
z
" transform="scale(0.015625)"/>
       <path id="DejaVuSans-72" d="M 2631 2963 
Q 2534 3019 2420 3045 
Q 2306 3072 2169 3072 
Q 1681 3072 1420 2755 
Q 1159 2438 1159 1844 
L 1159 0 
L 581 0 
L 581 3500 
L 1159 3500 
L 1159 2956 
Q 1341 3275 1631 3429 
Q 1922 3584 2338 3584 
Q 2397 3584 2469 3576 
Q 2541 3569 2628 3553 
L 2631 2963 
z
" transform="scale(0.015625)"/>
       <path id="DejaVuSans-65" d="M 3597 1894 
L 3597 1613 
L 953 1613 
Q 991 1019 1311 708 
Q 1631 397 2203 397 
Q 2534 397 2845 478 
Q 3156 559 3463 722 
L 3463 178 
Q 3153 47 2828 -22 
Q 2503 -91 2169 -91 
Q 1331 -91 842 396 
Q 353 884 353 1716 
Q 353 2575 817 3079 
Q 1281 3584 2069 3584 
Q 2775 3584 3186 3129 
Q 3597 2675 3597 1894 
z
M 3022 2063 
Q 3016 2534 2758 2815 
Q 2500 3097 2075 3097 
Q 1594 3097 1305 2825 
Q 1016 2553 972 2059 
L 3022 2063 
z
" transform="scale(0.015625)"/>
       <path id="DejaVuSans-71" d="M 947 1747 
Q 947 1113 1208 752 
Q 1469 391 1925 391 
Q 2381 391 2643 752 
Q 2906 1113 2906 1747 
Q 2906 2381 2643 2742 
Q 2381 3103 1925 3103 
Q 1469 3103 1208 2742 
Q 947 2381 947 1747 
z
M 2906 525 
Q 2725 213 2448 61 
Q 2172 -91 1784 -91 
Q 1150 -91 751 415 
Q 353 922 353 1747 
Q 353 2572 751 3078 
Q 1150 3584 1784 3584 
Q 2172 3584 2448 3432 
Q 2725 3281 2906 2969 
L 2906 3500 
L 3481 3500 
L 3481 -1331 
L 2906 -1331 
L 2906 525 
z
" transform="scale(0.015625)"/>
       <path id="DejaVuSans-75" d="M 544 1381 
L 544 3500 
L 1119 3500 
L 1119 1403 
Q 1119 906 1312 657 
Q 1506 409 1894 409 
Q 2359 409 2629 706 
Q 2900 1003 2900 1516 
L 2900 3500 
L 3475 3500 
L 3475 0 
L 2900 0 
L 2900 538 
Q 2691 219 2414 64 
Q 2138 -91 1772 -91 
Q 1169 -91 856 284 
Q 544 659 544 1381 
z
M 1991 3584 
L 1991 3584 
z
" transform="scale(0.015625)"/>
       <path id="DejaVuSans-6e" d="M 3513 2113 
L 3513 0 
L 2938 0 
L 2938 2094 
Q 2938 2591 2744 2837 
Q 2550 3084 2163 3084 
Q 1697 3084 1428 2787 
Q 1159 2491 1159 1978 
L 1159 0 
L 581 0 
L 581 3500 
L 1159 3500 
L 1159 2956 
Q 1366 3272 1645 3428 
Q 1925 3584 2291 3584 
Q 2894 3584 3203 3211 
Q 3513 2838 3513 2113 
z
" transform="scale(0.015625)"/>
       <path id="DejaVuSans-63" d="M 3122 3366 
L 3122 2828 
Q 2878 2963 2633 3030 
Q 2388 3097 2138 3097 
Q 1578 3097 1268 2742 
Q 959 2388 959 1747 
Q 959 1106 1268 751 
Q 1578 397 2138 397 
Q 2388 397 2633 464 
Q 2878 531 3122 666 
L 3122 134 
Q 2881 22 2623 -34 
Q 2366 -91 2075 -91 
Q 1284 -91 818 406 
Q 353 903 353 1747 
Q 353 2603 823 3093 
Q 1294 3584 2113 3584 
Q 2378 3584 2631 3529 
Q 2884 3475 3122 3366 
z
" transform="scale(0.015625)"/>
       <path id="DejaVuSans-79" d="M 2059 -325 
Q 1816 -950 1584 -1140 
Q 1353 -1331 966 -1331 
L 506 -1331 
L 506 -850 
L 844 -850 
Q 1081 -850 1212 -737 
Q 1344 -625 1503 -206 
L 1606 56 
L 191 3500 
L 800 3500 
L 1894 763 
L 2988 3500 
L 3597 3500 
L 2059 -325 
z
" transform="scale(0.015625)"/>
       <path id="DejaVuSans-20" transform="scale(0.015625)"/>
       <path id="DejaVuSans-5b" d="M 550 4863 
L 1875 4863 
L 1875 4416 
L 1125 4416 
L 1125 -397 
L 1875 -397 
L 1875 -844 
L 550 -844 
L 550 4863 
z
" transform="scale(0.015625)"/>
       <path id="DejaVuSans-48" d="M 628 4666 
L 1259 4666 
L 1259 2753 
L 3553 2753 
L 3553 4666 
L 4184 4666 
L 4184 0 
L 3553 0 
L 3553 2222 
L 1259 2222 
L 1259 0 
L 628 0 
L 628 4666 
z
" transform="scale(0.015625)"/>
       <path id="DejaVuSans-7a" d="M 353 3500 
L 3084 3500 
L 3084 2975 
L 922 459 
L 3084 459 
L 3084 0 
L 275 0 
L 275 525 
L 2438 3041 
L 353 3041 
L 353 3500 
z
" transform="scale(0.015625)"/>
       <path id="DejaVuSans-5d" d="M 1947 4863 
L 1947 -844 
L 622 -844 
L 622 -397 
L 1369 -397 
L 1369 4416 
L 622 4416 
L 622 4863 
L 1947 4863 
z
" transform="scale(0.015625)"/>
      </defs>
      <use xlink:href="#DejaVuSans-66"/>
      <use xlink:href="#DejaVuSans-72" x="35.205078"/>
      <use xlink:href="#DejaVuSans-65" x="74.068359"/>
      <use xlink:href="#DejaVuSans-71" x="135.591797"/>
      <use xlink:href="#DejaVuSans-75" x="199.068359"/>
      <use xlink:href="#DejaVuSans-65" x="262.447266"/>
      <use xlink:href="#DejaVuSans-6e" x="323.970703"/>
      <use xlink:href="#DejaVuSans-63" x="387.349609"/>
      <use xlink:href="#DejaVuSans-79" x="442.330078"/>
      <use xlink:href="#DejaVuSans-20" x="501.509766"/>
      <use xlink:href="#DejaVuSans-5b" x="533.296875"/>
      <use xlink:href="#DejaVuSans-48" x="572.310547"/>
      <use xlink:href="#DejaVuSans-7a" x="647.505859"/>
      <use xlink:href="#DejaVuSans-5d" x="699.996094"/>
     </g>
    </g>
   </g>
   <g id="matplotlib.axis_2">
    <g id="ytick_1">
     <g id="line2d_13">
      <path d="M 39.58149 326.64351 
L 644.99976 326.64351 
" clip-path="url(#p6bf84d83c6)" style="fill: none; stroke: #b0b0b0; stroke-opacity: 0.22; stroke-width: 0.8; stroke-linecap: square"/>
     </g>
     <g id="line2d_14">
      <defs>
       <path id="m4f6f07d80f" d="M 0 0 
L -3.5 0 
" style="stroke: #000000; stroke-width: 0.8"/>
      </defs>
      <g>
       <use xlink:href="#m4f6f07d80f" x="39.58149" y="326.64351" style="stroke: #000000; stroke-width: 0.8"/>
      </g>
     </g>
     <g id="text_8">
      <!-- 0.0 -->
      <g transform="translate(16.678365 330.442729) scale(0.1 -0.1)">
       <defs>
        <path id="DejaVuSans-2e" d="M 684 794 
L 1344 794 
L 1344 0 
L 684 0 
L 684 794 
z
" transform="scale(0.015625)"/>
       </defs>
       <use xlink:href="#DejaVuSans-30"/>
       <use xlink:href="#DejaVuSans-2e" x="63.623047"/>
       <use xlink:href="#DejaVuSans-30" x="95.410156"/>
      </g>
     </g>
    </g>
    <g id="ytick_2">
     <g id="line2d_15">
      <path d="M 39.58149 266.735715 
L 644.99976 266.735715 
" clip-path="url(#p6bf84d83c6)" style="fill: none; stroke: #b0b0b0; stroke-opacity: 0.22; stroke-width: 0.8; stroke-linecap: square"/>
     </g>
     <g id="line2d_16">
      <g>
       <use xlink:href="#m4f6f07d80f" x="39.58149" y="266.735715" style="stroke: #000000; stroke-width: 0.8"/>
      </g>
     </g>
     <g id="text_9">
      <!-- 0.2 -->
      <g transform="translate(16.678365 270.534934) scale(0.1 -0.1)">
       <use xlink:href="#DejaVuSans-30"/>
       <use xlink:href="#DejaVuSans-2e" x="63.623047"/>
       <use xlink:href="#DejaVuSans-32" x="95.410156"/>
      </g>
     </g>
    </g>
    <g id="ytick_3">
     <g id="line2d_17">
      <path d="M 39.58149 206.82792 
L 644.99976 206.82792 
" clip-path="url(#p6bf84d83c6)" style="fill: none; stroke: #b0b0b0; stroke-opacity: 0.22; stroke-width: 0.8; stroke-linecap: square"/>
     </g>
     <g id="line2d_18">
      <g>
       <use xlink:href="#m4f6f07d80f" x="39.58149" y="206.82792" style="stroke: #000000; stroke-width: 0.8"/>
      </g>
     </g>
     <g id="text_10">
      <!-- 0.4 -->
      <g transform="translate(16.678365 210.627138) scale(0.1 -0.1)">
       <use xlink:href="#DejaVuSans-30"/>
       <use xlink:href="#DejaVuSans-2e" x="63.623047"/>
       <use xlink:href="#DejaVuSans-34" x="95.410156"/>
      </g>
     </g>
    </g>
    <g id="ytick_4">
     <g id="line2d_19">
      <path d="M 39.58149 146.920125 
L 644.99976 146.920125 
" clip-path="url(#p6bf84d83c6)" style="fill: none; stroke: #b0b0b0; stroke-opacity: 0.22; stroke-width: 0.8; stroke-linecap: square"/>
     </g>
     <g id="line2d_20">
      <g>
       <use xlink:href="#m4f6f07d80f" x="39.58149" y="146.920125" style="stroke: #000000; stroke-width: 0.8"/>
      </g>
     </g>
     <g id="text_11">
      <!-- 0.6 -->
      <g transform="translate(16.678365 150.719343) scale(0.1 -0.1)">
       <defs>
        <path id="DejaVuSans-36" d="M 2113 2584 
Q 1688 2584 1439 2293 
Q 1191 2003 1191 1497 
Q 1191 994 1439 701 
Q 1688 409 2113 409 
Q 2538 409 2786 701 
Q 3034 994 3034 1497 
Q 3034 2003 2786 2293 
Q 2538 2584 2113 2584 
z
M 3366 4563 
L 3366 3988 
Q 3128 4100 2886 4159 
Q 2644 4219 2406 4219 
Q 1781 4219 1451 3797 
Q 1122 3375 1075 2522 
Q 1259 2794 1537 2939 
Q 1816 3084 2150 3084 
Q 2853 3084 3261 2657 
Q 3669 2231 3669 1497 
Q 3669 778 3244 343 
Q 2819 -91 2113 -91 
Q 1303 -91 875 529 
Q 447 1150 447 2328 
Q 447 3434 972 4092 
Q 1497 4750 2381 4750 
Q 2619 4750 2861 4703 
Q 3103 4656 3366 4563 
z
" transform="scale(0.015625)"/>
       </defs>
       <use xlink:href="#DejaVuSans-30"/>
       <use xlink:href="#DejaVuSans-2e" x="63.623047"/>
       <use xlink:href="#DejaVuSans-36" x="95.410156"/>
      </g>
     </g>
    </g>
    <g id="ytick_5">
     <g id="line2d_21">
      <path d="M 39.58149 87.012329 
L 644.99976 87.012329 
" clip-path="url(#p6bf84d83c6)" style="fill: none; stroke: #b0b0b0; stroke-opacity: 0.22; stroke-width: 0.8; stroke-linecap: square"/>
     </g>
     <g id="line2d_22">
      <g>
       <use xlink:href="#m4f6f07d80f" x="39.58149" y="87.012329" style="stroke: #000000; stroke-width: 0.8"/>
      </g>
     </g>
     <g id="text_12">
      <!-- 0.8 -->
      <g transform="translate(16.678365 90.811548) scale(0.1 -0.1)">
       <defs>
        <path id="DejaVuSans-38" d="M 2034 2216 
Q 1584 2216 1326 1975 
Q 1069 1734 1069 1313 
Q 1069 891 1326 650 
Q 1584 409 2034 409 
Q 2484 409 2743 651 
Q 3003 894 3003 1313 
Q 3003 1734 2745 1975 
Q 2488 2216 2034 2216 
z
M 1403 2484 
Q 997 2584 770 2862 
Q 544 3141 544 3541 
Q 544 4100 942 4425 
Q 1341 4750 2034 4750 
Q 2731 4750 3128 4425 
Q 3525 4100 3525 3541 
Q 3525 3141 3298 2862 
Q 3072 2584 2669 2484 
Q 3125 2378 3379 2068 
Q 3634 1759 3634 1313 
Q 3634 634 3220 271 
Q 2806 -91 2034 -91 
Q 1263 -91 848 271 
Q 434 634 434 1313 
Q 434 1759 690 2068 
Q 947 2378 1403 2484 
z
M 1172 3481 
Q 1172 3119 1398 2916 
Q 1625 2713 2034 2713 
Q 2441 2713 2670 2916 
Q 2900 3119 2900 3481 
Q 2900 3844 2670 4047 
Q 2441 4250 2034 4250 
Q 1625 4250 1398 4047 
Q 1172 3844 1172 3481 
z
" transform="scale(0.015625)"/>
       </defs>
       <use xlink:href="#DejaVuSans-30"/>
       <use xlink:href="#DejaVuSans-2e" x="63.623047"/>
       <use xlink:href="#DejaVuSans-38" x="95.410156"/>
      </g>
     </g>
    </g>
    <g id="ytick_6">
     <g id="line2d_23">
      <path d="M 39.58149 27.104534 
L 644.99976 27.104534 
" clip-path="url(#p6bf84d83c6)" style="fill: none; stroke: #b0b0b0; stroke-opacity: 0.22; stroke-width: 0.8; stroke-linecap: square"/>
     </g>
     <g id="line2d_24">
      <g>
       <use xlink:href="#m4f6f07d80f" x="39.58149" y="27.104534" style="stroke: #000000; stroke-width: 0.8"/>
      </g>
     </g>
     <g id="text_13">
      <!-- 1.0 -->
      <g transform="translate(16.678365 30.903753) scale(0.1 -0.1)">
       <use xlink:href="#DejaVuSans-31"/>
       <use xlink:href="#DejaVuSans-2e" x="63.623047"/>
       <use xlink:href="#DejaVuSans-30" x="95.410156"/>
      </g>
     </g>
    </g>
    <g id="text_14">
     <!-- normalized acceleration spectrum -->
     <g transform="translate(10.598678 257.803594) rotate(-90) scale(0.1 -0.1)">
      <defs>
       <path id="DejaVuSans-6f" d="M 1959 3097 
Q 1497 3097 1228 2736 
Q 959 2375 959 1747 
Q 959 1119 1226 758 
Q 1494 397 1959 397 
Q 2419 397 2687 759 
Q 2956 1122 2956 1747 
Q 2956 2369 2687 2733 
Q 2419 3097 1959 3097 
z
M 1959 3584 
Q 2709 3584 3137 3096 
Q 3566 2609 3566 1747 
Q 3566 888 3137 398 
Q 2709 -91 1959 -91 
Q 1206 -91 779 398 
Q 353 888 353 1747 
Q 353 2609 779 3096 
Q 1206 3584 1959 3584 
z
" transform="scale(0.015625)"/>
       <path id="DejaVuSans-6d" d="M 3328 2828 
Q 3544 3216 3844 3400 
Q 4144 3584 4550 3584 
Q 5097 3584 5394 3201 
Q 5691 2819 5691 2113 
L 5691 0 
L 5113 0 
L 5113 2094 
Q 5113 2597 4934 2840 
Q 4756 3084 4391 3084 
Q 3944 3084 3684 2787 
Q 3425 2491 3425 1978 
L 3425 0 
L 2847 0 
L 2847 2094 
Q 2847 2600 2669 2842 
Q 2491 3084 2119 3084 
Q 1678 3084 1418 2786 
Q 1159 2488 1159 1978 
L 1159 0 
L 581 0 
L 581 3500 
L 1159 3500 
L 1159 2956 
Q 1356 3278 1631 3431 
Q 1906 3584 2284 3584 
Q 2666 3584 2933 3390 
Q 3200 3197 3328 2828 
z
" transform="scale(0.015625)"/>
       <path id="DejaVuSans-61" d="M 2194 1759 
Q 1497 1759 1228 1600 
Q 959 1441 959 1056 
Q 959 750 1161 570 
Q 1363 391 1709 391 
Q 2188 391 2477 730 
Q 2766 1069 2766 1631 
L 2766 1759 
L 2194 1759 
z
M 3341 1997 
L 3341 0 
L 2766 0 
L 2766 531 
Q 2569 213 2275 61 
Q 1981 -91 1556 -91 
Q 1019 -91 701 211 
Q 384 513 384 1019 
Q 384 1609 779 1909 
Q 1175 2209 1959 2209 
L 2766 2209 
L 2766 2266 
Q 2766 2663 2505 2880 
Q 2244 3097 1772 3097 
Q 1472 3097 1187 3025 
Q 903 2953 641 2809 
L 641 3341 
Q 956 3463 1253 3523 
Q 1550 3584 1831 3584 
Q 2591 3584 2966 3190 
Q 3341 2797 3341 1997 
z
" transform="scale(0.015625)"/>
       <path id="DejaVuSans-6c" d="M 603 4863 
L 1178 4863 
L 1178 0 
L 603 0 
L 603 4863 
z
" transform="scale(0.015625)"/>
       <path id="DejaVuSans-69" d="M 603 3500 
L 1178 3500 
L 1178 0 
L 603 0 
L 603 3500 
z
M 603 4863 
L 1178 4863 
L 1178 4134 
L 603 4134 
L 603 4863 
z
" transform="scale(0.015625)"/>
       <path id="DejaVuSans-64" d="M 2906 2969 
L 2906 4863 
L 3481 4863 
L 3481 0 
L 2906 0 
L 2906 525 
Q 2725 213 2448 61 
Q 2172 -91 1784 -91 
Q 1150 -91 751 415 
Q 353 922 353 1747 
Q 353 2572 751 3078 
Q 1150 3584 1784 3584 
Q 2172 3584 2448 3432 
Q 2725 3281 2906 2969 
z
M 947 1747 
Q 947 1113 1208 752 
Q 1469 391 1925 391 
Q 2381 391 2643 752 
Q 2906 1113 2906 1747 
Q 2906 2381 2643 2742 
Q 2381 3103 1925 3103 
Q 1469 3103 1208 2742 
Q 947 2381 947 1747 
z
" transform="scale(0.015625)"/>
       <path id="DejaVuSans-74" d="M 1172 4494 
L 1172 3500 
L 2356 3500 
L 2356 3053 
L 1172 3053 
L 1172 1153 
Q 1172 725 1289 603 
Q 1406 481 1766 481 
L 2356 481 
L 2356 0 
L 1766 0 
Q 1100 0 847 248 
Q 594 497 594 1153 
L 594 3053 
L 172 3053 
L 172 3500 
L 594 3500 
L 594 4494 
L 1172 4494 
z
" transform="scale(0.015625)"/>
       <path id="DejaVuSans-73" d="M 2834 3397 
L 2834 2853 
Q 2591 2978 2328 3040 
Q 2066 3103 1784 3103 
Q 1356 3103 1142 2972 
Q 928 2841 928 2578 
Q 928 2378 1081 2264 
Q 1234 2150 1697 2047 
L 1894 2003 
Q 2506 1872 2764 1633 
Q 3022 1394 3022 966 
Q 3022 478 2636 193 
Q 2250 -91 1575 -91 
Q 1294 -91 989 -36 
Q 684 19 347 128 
L 347 722 
Q 666 556 975 473 
Q 1284 391 1588 391 
Q 1994 391 2212 530 
Q 2431 669 2431 922 
Q 2431 1156 2273 1281 
Q 2116 1406 1581 1522 
L 1381 1569 
Q 847 1681 609 1914 
Q 372 2147 372 2553 
Q 372 3047 722 3315 
Q 1072 3584 1716 3584 
Q 2034 3584 2315 3537 
Q 2597 3491 2834 3397 
z
" transform="scale(0.015625)"/>
       <path id="DejaVuSans-70" d="M 1159 525 
L 1159 -1331 
L 581 -1331 
L 581 3500 
L 1159 3500 
L 1159 2969 
Q 1341 3281 1617 3432 
Q 1894 3584 2278 3584 
Q 2916 3584 3314 3078 
Q 3713 2572 3713 1747 
Q 3713 922 3314 415 
Q 2916 -91 2278 -91 
Q 1894 -91 1617 61 
Q 1341 213 1159 525 
z
M 3116 1747 
Q 3116 2381 2855 2742 
Q 2594 3103 2138 3103 
Q 1681 3103 1420 2742 
Q 1159 2381 1159 1747 
Q 1159 1113 1420 752 
Q 1681 391 2138 391 
Q 2594 391 2855 752 
Q 3116 1113 3116 1747 
z
" transform="scale(0.015625)"/>
      </defs>
      <use xlink:href="#DejaVuSans-6e"/>
      <use xlink:href="#DejaVuSans-6f" x="63.378906"/>
      <use xlink:href="#DejaVuSans-72" x="124.560547"/>
      <use xlink:href="#DejaVuSans-6d" x="163.923828"/>
      <use xlink:href="#DejaVuSans-61" x="261.335938"/>
      <use xlink:href="#DejaVuSans-6c" x="322.615234"/>
      <use xlink:href="#DejaVuSans-69" x="350.398438"/>
      <use xlink:href="#DejaVuSans-7a" x="378.181641"/>
      <use xlink:href="#DejaVuSans-65" x="430.671875"/>
      <use xlink:href="#DejaVuSans-64" x="492.195312"/>
      <use xlink:href="#DejaVuSans-20" x="555.671875"/>
      <use xlink:href="#DejaVuSans-61" x="587.458984"/>
      <use xlink:href="#DejaVuSans-63" x="648.738281"/>
      <use xlink:href="#DejaVuSans-63" x="703.71875"/>
      <use xlink:href="#DejaVuSans-65" x="758.699219"/>
      <use xlink:href="#DejaVuSans-6c" x="820.222656"/>
      <use xlink:href="#DejaVuSans-65" x="848.005859"/>
      <use xlink:href="#DejaVuSans-72" x="909.529297"/>
      <use xlink:href="#DejaVuSans-61" x="950.642578"/>
      <use xlink:href="#DejaVuSans-74" x="1011.921875"/>
      <use xlink:href="#DejaVuSans-69" x="1051.130859"/>
      <use xlink:href="#DejaVuSans-6f" x="1078.914062"/>
      <use xlink:href="#DejaVuSans-6e" x="1140.095703"/>
      <use xlink:href="#DejaVuSans-20" x="1203.474609"/>
      <use xlink:href="#DejaVuSans-73" x="1235.261719"/>
      <use xlink:href="#DejaVuSans-70" x="1287.361328"/>
      <use xlink:href="#DejaVuSans-65" x="1350.837891"/>
      <use xlink:href="#DejaVuSans-63" x="1412.361328"/>
      <use xlink:href="#DejaVuSans-74" x="1467.341797"/>
      <use xlink:href="#DejaVuSans-72" x="1506.550781"/>
      <use xlink:href="#DejaVuSans-75" x="1547.664062"/>
      <use xlink:href="#DejaVuSans-6d" x="1611.042969"/>
     </g>
    </g>
   </g>
   <g id="line2d_25">
    <path d="M 39.58149 326.379371 
L 41.743698 326.254563 
L 43.905906 325.701642 
L 46.068114 324.810239 
L 48.230322 324.551062 
L 50.392531 323.13481 
L 52.554739 319.662232 
L 54.716947 298.227931 
L 56.879155 298.454252 
L 59.041363 320.507289 
L 61.203571 323.184897 
L 63.365779 308.060528 
L 65.527987 268.084098 
L 67.690195 148.518682 
L 69.852404 161.912694 
L 72.014612 284.051582 
L 74.17682 319.012895 
L 76.339028 316.107029 
L 78.501236 322.339555 
L 80.663444 322.865952 
L 82.825652 296.583363 
L 84.98786 250.623987 
L 87.150068 275.247107 
L 89.312276 278.524227 
L 91.474485 136.426338 
L 93.636693 101.560386 
L 95.798901 282.338051 
L 97.961109 316.73481 
L 100.123317 313.698359 
L 102.285525 281.882213 
L 104.447733 290.124908 
L 106.609941 307.646471 
L 108.772149 275.422181 
L 110.934358 274.294493 
L 113.096566 211.152479 
L 115.258774 189.63739 
L 117.420982 266.592382 
L 119.58319 313.90641 
L 121.745398 305.251052 
L 123.907606 319.180416 
L 126.069814 316.092209 
L 128.232022 322.095915 
L 130.394231 281.632085 
L 132.556439 208.606544 
L 134.718647 194.221948 
L 136.880855 271.43529 
L 139.043063 276.304367 
L 141.205271 285.024951 
L 143.367479 253.066112 
L 145.529687 226.359243 
L 147.691895 240.562318 
L 149.854103 257.799472 
L 152.016312 305.760038 
L 154.17852 317.173924 
L 156.340728 311.790838 
L 158.502936 315.151837 
L 160.665144 296.807521 
L 162.827352 274.535629 
L 164.98956 246.324426 
L 167.151768 240.224582 
L 169.313976 259.929896 
L 171.476185 239.572139 
L 173.638393 241.824462 
L 175.800601 285.285402 
L 177.962809 304.800996 
L 180.125017 293.535535 
L 182.287225 272.125291 
L 184.449433 279.676192 
L 186.611641 313.956671 
L 188.773849 316.861096 
L 190.936058 285.08733 
L 193.098266 262.713466 
L 195.260474 264.12219 
L 197.422682 296.637967 
L 199.58489 277.550335 
L 201.747098 260.662386 
L 203.909306 297.434237 
L 206.071514 300.14134 
L 208.233722 311.302868 
L 210.39593 318.676472 
L 212.558139 317.798683 
L 214.720347 320.027144 
L 216.882555 321.671916 
L 219.044763 319.747463 
L 221.206971 315.202906 
L 223.369179 316.931096 
L 225.531387 307.554015 
L 227.693595 299.542639 
L 229.855803 310.64304 
L 232.018012 311.35288 
L 234.18022 308.672913 
L 236.342428 307.82959 
L 238.504636 305.39367 
L 240.666844 306.122896 
L 242.829052 296.750443 
L 244.99126 257.899136 
L 247.153468 232.977037 
L 249.315676 253.665208 
L 251.477885 248.284655 
L 253.640093 263.823306 
L 255.802301 292.879259 
L 257.964509 311.386064 
L 260.126717 315.909066 
L 262.288925 309.743413 
L 264.451133 284.671499 
L 266.613341 248.641587 
L 268.775549 258.912168 
L 270.937757 302.860455 
L 273.099966 297.360787 
L 275.262174 260.94529 
L 279.58659 253.067593 
L 281.748798 242.264442 
L 283.911006 228.495115 
L 286.073214 245.250697 
L 288.235422 292.4077 
L 290.39763 312.618988 
L 292.559839 304.099292 
L 294.722047 306.563267 
L 296.884255 305.789401 
L 299.046463 288.7276 
L 301.208671 282.065686 
L 303.370879 291.46523 
L 305.533087 296.74706 
L 307.695295 286.934685 
L 309.857503 285.654281 
L 312.019712 302.883405 
L 314.18192 315.549814 
L 316.344128 314.419881 
L 318.506336 308.992076 
L 320.668544 306.606018 
L 322.830752 309.290444 
L 324.99296 314.691615 
L 327.155168 311.132487 
L 329.317376 298.71914 
L 331.479584 282.171892 
L 333.641793 263.601069 
L 335.804001 267.120615 
L 337.966209 297.191416 
L 340.128417 317.572531 
L 342.290625 304.374951 
L 344.452833 301.217618 
L 346.615041 306.485908 
L 348.777249 295.842399 
L 350.939457 284.399362 
L 353.101666 283.317875 
L 355.263874 296.038823 
L 357.426082 306.87058 
L 359.58829 303.265413 
L 361.750498 294.128313 
L 363.912706 297.337051 
L 366.074914 308.720026 
L 368.237122 305.984158 
L 370.39933 301.178515 
L 372.561539 305.518556 
L 374.723747 316.021558 
L 376.885955 319.211872 
L 379.048163 314.625872 
L 381.210371 312.410748 
L 383.372579 312.252034 
L 385.534787 314.170541 
L 387.696995 316.95138 
L 389.859203 320.781404 
L 392.021411 321.631165 
L 394.18362 315.555097 
L 396.345828 305.898481 
L 398.508036 302.015147 
L 400.670244 304.351425 
L 402.832452 310.127518 
L 404.99466 319.716565 
L 407.156868 323.786508 
L 409.319076 318.390975 
L 411.481284 318.954123 
L 413.643493 322.045228 
L 415.805701 324.800856 
L 417.967909 324.120665 
L 420.130117 320.06063 
L 422.292325 320.157193 
L 424.454533 315.651005 
L 426.616741 303.971003 
L 428.778949 295.754411 
L 430.941157 290.376777 
L 433.103366 294.497485 
L 435.265574 306.833976 
L 437.427782 313.095831 
L 439.58999 315.549541 
L 441.752198 319.42033 
L 443.914406 323.522309 
L 446.076614 324.301098 
L 448.238822 322.826999 
L 450.40103 323.022464 
L 452.563238 322.612654 
L 454.725447 317.457322 
L 456.887655 308.035896 
L 459.049863 299.119321 
L 461.212071 295.087539 
L 463.374279 297.523154 
L 465.536487 305.463211 
L 467.698695 312.837675 
L 469.860903 316.408172 
L 474.18532 317.611228 
L 476.347528 317.995877 
L 480.671944 315.951975 
L 482.834152 315.113777 
L 484.99636 312.342893 
L 487.158568 310.248121 
L 489.320776 311.774051 
L 491.482984 314.283525 
L 493.645193 314.143785 
L 495.807401 310.731973 
L 497.969609 306.001169 
L 500.131817 304.2465 
L 502.294025 307.148248 
L 504.456233 309.85709 
L 506.618441 309.017468 
L 508.780649 306.643027 
L 510.942857 305.964024 
L 513.105065 308.685546 
L 515.267274 312.589211 
L 517.429482 314.889091 
L 519.59169 317.680982 
L 521.753898 321.159686 
L 523.916106 322.615819 
L 526.078314 321.585753 
L 528.240522 320.894558 
L 530.40273 321.326411 
L 532.564938 321.979693 
L 536.889355 322.827653 
L 539.051563 324.184941 
L 541.213771 326.564431 
L 543.375979 324.034821 
L 545.538187 323.261039 
L 547.700395 323.89937 
L 549.862603 323.93392 
L 552.024811 324.705099 
L 554.18702 322.30804 
L 556.349228 320.331611 
L 558.511436 321.180006 
L 560.673644 323.17541 
L 562.835852 323.833714 
L 564.99806 322.698504 
L 567.160268 322.362192 
L 569.322476 323.432937 
L 571.484684 325.114193 
L 573.646892 326.478364 
L 575.809101 324.953435 
L 577.971309 323.96005 
L 580.133517 323.459494 
L 582.295725 322.803227 
L 586.620141 320.685273 
L 588.782349 320.153621 
L 590.944557 319.746281 
L 593.106765 319.109204 
L 595.268974 319.222718 
L 597.431182 320.291269 
L 599.59339 321.691758 
L 601.755598 323.841345 
L 603.917806 325.358284 
L 606.080014 323.14105 
L 608.242222 321.954277 
L 610.40443 322.058623 
L 612.566638 322.850067 
L 614.728847 323.859045 
L 616.891055 324.721477 
L 619.053263 325.290433 
L 623.377679 325.660616 
L 627.702095 326.496407 
L 629.864303 325.87976 
L 632.026511 325.393186 
L 636.350928 324.733784 
L 638.513136 324.557025 
L 640.675344 324.751358 
L 644.99976 326.043679 
L 647.161968 325.640717 
L 649 324.932976 
L 649 324.932976 
" clip-path="url(#p6bf84d83c6)" style="fill: none; stroke: #1f77b4; stroke-linecap: square"/>
   </g>
   <g id="line2d_26">
    <path d="M 39.58149 326.294304 
L 41.743698 324.96189 
L 43.905906 320.645301 
L 46.068114 311.11103 
L 48.230322 304.395964 
L 50.392531 313.288015 
L 52.554739 286.701479 
L 54.716947 285.49457 
L 56.879155 312.056617 
L 59.041363 321.772192 
L 61.203571 316.906134 
L 63.365779 243.870816 
L 65.527987 181.245256 
L 67.690195 285.429928 
L 69.852404 255.64849 
L 72.014612 277.862924 
L 74.17682 214.115414 
L 76.339028 281.26706 
L 78.501236 294.444595 
L 80.663444 294.734325 
L 82.825652 310.908601 
L 84.98786 285.495944 
L 87.150068 300.742231 
L 89.312276 292.694979 
L 91.474485 139.773679 
L 93.636693 118.728909 
L 95.798901 279.566772 
L 97.961109 199.418037 
L 100.123317 160.667295 
L 102.285525 277.499156 
L 104.447733 303.580464 
L 106.609941 313.203485 
L 108.772149 301.315624 
L 110.934358 266.604862 
L 113.096566 224.377055 
L 115.258774 292.721544 
L 117.420982 275.496593 
L 119.58319 311.13123 
L 121.745398 298.595864 
L 123.907606 254.814249 
L 126.069814 266.891774 
L 128.232022 310.12026 
L 130.394231 299.796269 
L 132.556439 299.140831 
L 134.718647 191.969165 
L 136.880855 126.247642 
L 139.043063 196.489849 
L 141.205271 310.99541 
L 143.367479 243.009789 
L 145.529687 201.773052 
L 147.691895 251.461115 
L 149.854103 236.397886 
L 152.016312 241.371269 
L 154.17852 312.793358 
L 156.340728 319.653678 
L 158.502936 237.715789 
L 160.665144 130.168946 
L 162.827352 184.659754 
L 164.98956 257.349492 
L 167.151768 264.065451 
L 169.313976 289.065201 
L 171.476185 295.490881 
L 173.638393 309.449488 
L 175.800601 321.006971 
L 177.962809 321.856828 
L 180.125017 309.061485 
L 182.287225 318.487616 
L 184.449433 298.911163 
L 186.611641 292.929057 
L 188.773849 317.678915 
L 190.936058 268.286625 
L 193.098266 222.851508 
L 195.260474 264.021876 
L 197.422682 311.360608 
L 199.58489 272.059673 
L 201.747098 292.393734 
L 203.909306 253.827545 
L 206.071514 253.605671 
L 208.233722 255.657953 
L 210.39593 238.373795 
L 212.558139 274.363671 
L 214.720347 286.611289 
L 216.882555 291.171302 
L 219.044763 317.479813 
L 221.206971 322.888553 
L 223.369179 317.474498 
L 225.531387 308.026102 
L 227.693595 299.69837 
L 229.855803 295.9329 
L 232.018012 299.751325 
L 234.18022 301.368248 
L 236.342428 312.918729 
L 238.504636 302.426421 
L 240.666844 299.77504 
L 242.829052 295.47154 
L 244.99126 238.075007 
L 247.153468 208.432358 
L 249.315676 227.196594 
L 251.477885 205.047732 
L 253.640093 233.048817 
L 255.802301 283.620534 
L 257.964509 312.599442 
L 260.126717 320.317015 
L 262.288925 323.771726 
L 264.451133 322.804199 
L 268.775549 310.655647 
L 270.937757 306.066776 
L 273.099966 302.088194 
L 275.262174 316.237317 
L 277.424382 301.837378 
L 279.58659 276.336363 
L 281.748798 300.986302 
L 283.911006 265.378008 
L 286.073214 214.364576 
L 288.235422 224.37469 
L 290.39763 235.809803 
L 292.559839 270.116486 
L 294.722047 309.407831 
L 296.884255 314.562577 
L 301.208671 268.496692 
L 303.370879 275.178435 
L 305.533087 311.125955 
L 307.695295 291.327519 
L 309.857503 275.748093 
L 312.019712 293.85932 
L 314.18192 314.981106 
L 316.344128 320.920871 
L 318.506336 320.167129 
L 320.668544 312.164668 
L 322.830752 305.255203 
L 324.99296 311.864605 
L 327.155168 316.973827 
L 329.317376 315.520697 
L 331.479584 314.266532 
L 333.641793 317.809962 
L 335.804001 321.67257 
L 337.966209 319.980724 
L 340.128417 316.436705 
L 342.290625 317.801818 
L 344.452833 322.663345 
L 346.615041 314.245467 
L 348.777249 304.328258 
L 350.939457 299.791683 
L 353.101666 299.434668 
L 355.263874 301.830171 
L 357.426082 299.610414 
L 359.58829 280.127415 
L 361.750498 255.867712 
L 363.912706 262.871537 
L 366.074914 291.991762 
L 368.237122 307.185714 
L 370.39933 313.556059 
L 372.561539 315.909267 
L 374.723747 319.048569 
L 376.885955 302.446692 
L 379.048163 293.14371 
L 381.210371 299.770501 
L 383.372579 309.64046 
L 385.534787 315.742932 
L 387.696995 315.173677 
L 389.859203 315.768848 
L 392.021411 316.998733 
L 394.18362 315.936151 
L 396.345828 314.459963 
L 398.508036 315.721392 
L 400.670244 317.560708 
L 402.832452 317.539953 
L 404.99466 317.680729 
L 407.156868 315.608431 
L 409.319076 312.068739 
L 411.481284 313.639438 
L 413.643493 317.962066 
L 415.805701 321.231888 
L 417.967909 319.432086 
L 420.130117 317.17296 
L 422.292325 315.734567 
L 424.454533 308.209235 
L 426.616741 299.858523 
L 428.778949 300.883482 
L 433.103366 319.213019 
L 435.265574 321.891801 
L 437.427782 321.983751 
L 439.58999 320.214863 
L 441.752198 315.430683 
L 443.914406 314.514362 
L 446.076614 319.354722 
L 448.238822 319.127858 
L 450.40103 316.962084 
L 452.563238 317.103908 
L 454.725447 317.535521 
L 456.887655 316.750347 
L 459.049863 313.411738 
L 461.212071 307.938924 
L 463.374279 303.951726 
L 465.536487 304.852305 
L 467.698695 309.056915 
L 469.860903 315.999408 
L 472.023111 321.368439 
L 474.18532 322.845333 
L 476.347528 323.673198 
L 478.509736 319.42192 
L 480.671944 316.296057 
L 482.834152 316.988014 
L 487.158568 323.300052 
L 489.320776 325.772961 
L 491.482984 325.383615 
L 493.645193 323.622438 
L 495.807401 322.349457 
L 497.969609 321.762344 
L 500.131817 321.972517 
L 502.294025 322.613188 
L 504.456233 322.551765 
L 506.618441 321.510853 
L 508.780649 320.255326 
L 510.942857 319.907136 
L 513.105065 320.216254 
L 515.267274 318.684612 
L 517.429482 314.700338 
L 519.59169 311.689602 
L 521.753898 312.8259 
L 523.916106 316.867319 
L 526.078314 320.66373 
L 528.240522 323.621056 
L 530.40273 324.483888 
L 532.564938 322.740836 
L 534.727147 322.117294 
L 536.889355 320.642792 
L 539.051563 316.80882 
L 541.213771 314.255492 
L 543.375979 315.283474 
L 545.538187 318.808635 
L 547.700395 322.741035 
L 549.862603 324.946745 
L 552.024811 322.525091 
L 554.18702 320.365243 
L 556.349228 319.839247 
L 558.511436 320.251487 
L 560.673644 320.236889 
L 562.835852 319.965441 
L 564.99806 320.571758 
L 569.322476 323.453886 
L 571.484684 324.23161 
L 573.646892 324.187306 
L 575.809101 323.888113 
L 577.971309 323.820544 
L 580.133517 323.917402 
L 582.295725 323.761337 
L 584.457933 323.486702 
L 586.620141 323.849563 
L 588.782349 325.24425 
L 590.944557 326.025637 
L 593.106765 324.225167 
L 595.268974 323.267433 
L 597.431182 323.501854 
L 603.917806 326.073404 
L 606.080014 325.209742 
L 608.242222 323.954015 
L 614.728847 320.617957 
L 616.891055 320.078418 
L 619.053263 320.891688 
L 621.215471 322.464314 
L 623.377679 323.813916 
L 625.539887 324.745351 
L 627.702095 325.494829 
L 629.864303 325.943818 
L 632.026511 325.757095 
L 634.188719 325.389012 
L 640.675344 323.909391 
L 642.837552 323.878859 
L 644.99976 324.2251 
L 649 325.288391 
L 649 325.288391 
" clip-path="url(#p6bf84d83c6)" style="fill: none; stroke: #ff7f0e; stroke-linecap: square"/>
   </g>
   <g id="line2d_27">
    <path d="M 39.58149 325.275795 
L 41.743698 324.686778 
L 43.905906 321.980737 
L 46.068114 314.058404 
L 48.230322 305.225296 
L 50.392531 299.487676 
L 52.554739 318.968794 
L 54.716947 276.465494 
L 56.879155 290.385696 
L 59.041363 320.550832 
L 61.203571 320.88635 
L 63.365779 321.620837 
L 65.527987 313.518864 
L 67.690195 295.443583 
L 69.852404 300.713129 
L 72.014612 255.341659 
L 74.17682 225.419618 
L 76.339028 272.035608 
L 78.501236 280.725128 
L 80.663444 281.538934 
L 82.825652 302.593255 
L 84.98786 291.365176 
L 87.150068 304.488462 
L 89.312276 321.176309 
L 91.474485 295.842391 
L 93.636693 272.507028 
L 95.798901 280.017779 
L 97.961109 244.546943 
L 100.123317 215.355197 
L 102.285525 287.821457 
L 104.447733 297.29558 
L 106.609941 200.767418 
L 108.772149 27.104534 
L 110.934358 92.231175 
L 115.258774 142.707986 
L 117.420982 271.716173 
L 119.58319 318.635754 
L 121.745398 299.440276 
L 123.907606 260.223861 
L 126.069814 272.24373 
L 128.232022 310.479214 
L 130.394231 303.061379 
L 132.556439 302.895402 
L 134.718647 198.787993 
L 136.880855 108.354981 
L 139.043063 166.96117 
L 141.205271 298.817626 
L 143.367479 263.436211 
L 145.529687 245.094097 
L 147.691895 235.98537 
L 149.854103 271.850779 
L 152.016312 250.223099 
L 154.17852 240.183526 
L 156.340728 298.412533 
L 158.502936 249.597741 
L 160.665144 161.398528 
L 162.827352 238.917332 
L 164.98956 198.19402 
L 167.151768 178.818943 
L 169.313976 239.509042 
L 171.476185 248.053681 
L 173.638393 268.694994 
L 175.800601 297.8159 
L 177.962809 288.127694 
L 180.125017 295.146847 
L 182.287225 300.01693 
L 184.449433 284.788895 
L 186.611641 287.155838 
L 188.773849 321.323531 
L 190.936058 296.763191 
L 193.098266 256.097147 
L 195.260474 240.545639 
L 197.422682 248.938323 
L 199.58489 234.759258 
L 201.747098 248.253945 
L 203.909306 275.64829 
L 206.071514 266.242562 
L 208.233722 161.733926 
L 210.39593 90.952094 
L 214.720347 302.439222 
L 216.882555 297.094737 
L 219.044763 310.637446 
L 221.206971 298.730847 
L 223.369179 278.203924 
L 225.531387 291.290218 
L 227.693595 307.710644 
L 229.855803 311.601639 
L 232.018012 300.476198 
L 234.18022 290.677666 
L 236.342428 296.04055 
L 238.504636 236.151977 
L 240.666844 206.893252 
L 242.829052 258.187854 
L 244.99126 242.266664 
L 247.153468 243.289471 
L 249.315676 295.923195 
L 251.477885 294.040464 
L 253.640093 285.228277 
L 255.802301 294.130756 
L 257.964509 300.58307 
L 260.126717 306.048641 
L 262.288925 301.472623 
L 264.451133 277.737907 
L 266.613341 241.676787 
L 268.775549 253.818079 
L 270.937757 291.171503 
L 273.099966 300.387074 
L 275.262174 282.777636 
L 277.424382 275.510431 
L 279.58659 262.769405 
L 281.748798 270.856557 
L 283.911006 284.865651 
L 286.073214 290.688476 
L 288.235422 307.891619 
L 290.39763 318.667406 
L 292.559839 310.803527 
L 294.722047 304.110872 
L 296.884255 284.041306 
L 299.046463 269.230053 
L 301.208671 279.467598 
L 303.370879 315.120289 
L 305.533087 295.190145 
L 307.695295 266.49758 
L 309.857503 279.571831 
L 312.019712 313.929705 
L 314.18192 308.091943 
L 316.344128 305.728304 
L 318.506336 308.281456 
L 320.668544 280.916176 
L 322.830752 272.684647 
L 327.155168 314.465072 
L 329.317376 321.494409 
L 331.479584 318.026556 
L 333.641793 318.322539 
L 335.804001 321.314882 
L 337.966209 324.591702 
L 340.128417 321.546098 
L 342.290625 322.322079 
L 344.452833 323.386814 
L 346.615041 322.890092 
L 348.777249 318.99548 
L 350.939457 316.068266 
L 353.101666 316.052298 
L 355.263874 315.744203 
L 357.426082 312.492588 
L 359.58829 290.986823 
L 361.750498 264.145055 
L 363.912706 266.985866 
L 366.074914 291.15763 
L 368.237122 307.91152 
L 370.39933 310.13811 
L 372.561539 304.535859 
L 374.723747 294.211756 
L 376.885955 280.975426 
L 379.048163 283.089029 
L 381.210371 302.866619 
L 383.372579 313.869777 
L 385.534787 309.296258 
L 387.696995 305.941287 
L 389.859203 311.030302 
L 392.021411 318.441511 
L 394.18362 318.651465 
L 396.345828 314.055052 
L 398.508036 312.351229 
L 400.670244 316.584256 
L 402.832452 322.177117 
L 404.99466 318.419577 
L 407.156868 312.221528 
L 409.319076 310.973877 
L 411.481284 315.348992 
L 413.643493 318.701802 
L 415.805701 320.143102 
L 417.967909 323.494483 
L 420.130117 325.317273 
L 422.292325 322.17271 
L 424.454533 322.983121 
L 426.616741 319.902534 
L 428.778949 303.86428 
L 430.941157 292.987 
L 433.103366 295.595832 
L 435.265574 308.968059 
L 437.427782 325.092611 
L 439.58999 314.961321 
L 441.752198 309.857738 
L 443.914406 309.741716 
L 446.076614 315.828092 
L 448.238822 324.37483 
L 450.40103 320.570442 
L 452.563238 317.771884 
L 454.725447 318.356471 
L 456.887655 319.254337 
L 459.049863 321.521993 
L 461.212071 322.310077 
L 463.374279 322.411582 
L 465.536487 322.292062 
L 467.698695 317.464796 
L 469.860903 314.349389 
L 472.023111 316.062092 
L 474.18532 320.432966 
L 476.347528 324.517588 
L 478.509736 325.706149 
L 480.671944 324.278564 
L 482.834152 324.132728 
L 487.158568 324.570306 
L 489.320776 324.854084 
L 493.645193 321.029605 
L 495.807401 321.566144 
L 497.969609 322.404887 
L 500.131817 321.093162 
L 502.294025 320.229037 
L 504.456233 319.203307 
L 506.618441 317.774194 
L 508.780649 317.481343 
L 510.942857 318.093566 
L 513.105065 317.280338 
L 515.267274 315.786122 
L 517.429482 315.861499 
L 519.59169 317.611482 
L 521.753898 319.117125 
L 523.916106 319.535362 
L 526.078314 319.360871 
L 528.240522 318.746861 
L 530.40273 317.249827 
L 532.564938 316.367259 
L 534.727147 316.824691 
L 536.889355 316.877213 
L 539.051563 315.818087 
L 545.538187 311.686997 
L 547.700395 311.530462 
L 549.862603 312.616909 
L 554.18702 315.945145 
L 556.349228 317.436521 
L 558.511436 319.302133 
L 560.673644 320.952673 
L 562.835852 322.101391 
L 564.99806 323.551273 
L 567.160268 324.85766 
L 569.322476 324.719738 
L 573.646892 323.055643 
L 575.809101 322.613975 
L 577.971309 322.684013 
L 582.295725 323.573421 
L 584.457933 323.73933 
L 588.782349 323.726637 
L 590.944557 323.423906 
L 593.106765 322.69122 
L 595.268974 321.830818 
L 597.431182 321.64349 
L 599.59339 322.59409 
L 601.755598 324.146591 
L 603.917806 324.79411 
L 606.080014 324.623736 
L 608.242222 325.017228 
L 610.40443 325.11234 
L 612.566638 324.571074 
L 614.728847 324.542017 
L 616.891055 325.067018 
L 619.053263 325.066187 
L 621.215471 324.491393 
L 623.377679 324.443319 
L 625.539887 324.648178 
L 627.702095 324.285894 
L 629.864303 323.741848 
L 638.513136 322.212758 
L 640.675344 322.069646 
L 642.837552 322.159776 
L 644.99976 322.128944 
L 647.161968 321.909115 
L 649 321.926461 
L 649 321.926461 
" clip-path="url(#p6bf84d83c6)" style="fill: none; stroke: #2ca02c; stroke-linecap: square"/>
   </g>
   <g id="line2d_28">
    <path d="M 39.58149 324.108471 
L 41.743698 323.290149 
L 43.905906 319.724435 
L 46.068114 310.494052 
L 48.230322 297.998066 
L 50.392531 293.247836 
L 52.554739 314.570479 
L 54.716947 295.999484 
L 56.879155 314.189473 
L 59.041363 324.030499 
L 61.203571 320.794004 
L 63.365779 304.774001 
L 65.527987 297.117367 
L 67.690195 265.132744 
L 69.852404 258.157044 
L 72.014612 245.104756 
L 74.17682 289.772775 
L 76.339028 303.389763 
L 78.501236 315.089521 
L 80.663444 292.175034 
L 82.825652 292.511155 
L 84.98786 299.81673 
L 87.150068 291.014484 
L 89.312276 266.725874 
L 91.474485 217.761853 
L 93.636693 134.63197 
L 95.798901 176.002371 
L 97.961109 269.36033 
L 100.123317 291.49945 
L 102.285525 293.446537 
L 104.447733 312.046047 
L 106.609941 299.069599 
L 108.772149 238.624402 
L 110.934358 227.294226 
L 113.096566 148.008388 
L 115.258774 213.060925 
L 117.420982 304.666622 
L 119.58319 308.072923 
L 121.745398 303.609163 
L 123.907606 320.514436 
L 126.069814 324.524844 
L 128.232022 289.221996 
L 130.394231 226.868122 
L 132.556439 176.096327 
L 134.718647 179.245573 
L 136.880855 243.244594 
L 139.043063 295.752919 
L 141.205271 313.671462 
L 143.367479 243.844006 
L 145.529687 191.828443 
L 147.691895 226.168449 
L 149.854103 267.922194 
L 152.016312 312.724104 
L 154.17852 316.305017 
L 156.340728 303.652383 
L 158.502936 260.080333 
L 160.665144 192.022207 
L 164.98956 264.817011 
L 167.151768 267.782033 
L 169.313976 290.930044 
L 171.476185 291.296926 
L 173.638393 277.634665 
L 175.800601 300.701367 
L 177.962809 314.411344 
L 180.125017 319.483265 
L 182.287225 307.297439 
L 184.449433 285.917753 
L 186.611641 299.2264 
L 188.773849 317.623407 
L 190.936058 296.621435 
L 193.098266 282.653816 
L 197.422682 301.875631 
L 199.58489 262.948051 
L 201.747098 228.652855 
L 203.909306 258.253039 
L 206.071514 311.181888 
L 208.233722 291.767299 
L 210.39593 262.388941 
L 212.558139 288.488472 
L 214.720347 280.928359 
L 216.882555 283.533883 
L 219.044763 317.506077 
L 221.206971 306.854951 
L 223.369179 300.8828 
L 225.531387 301.700475 
L 227.693595 316.09402 
L 229.855803 321.442377 
L 232.018012 315.102242 
L 234.18022 317.26723 
L 236.342428 285.218866 
L 238.504636 216.723024 
L 240.666844 197.589496 
L 242.829052 244.086766 
L 244.99126 252.102803 
L 247.153468 233.811696 
L 249.315676 248.930479 
L 251.477885 243.655948 
L 253.640093 286.326756 
L 255.802301 297.210097 
L 257.964509 305.362126 
L 260.126717 317.607714 
L 262.288925 314.653855 
L 264.451133 302.166212 
L 266.613341 269.587258 
L 268.775549 248.283693 
L 273.099966 307.487246 
L 275.262174 305.722629 
L 277.424382 307.780215 
L 279.58659 239.951438 
L 281.748798 216.663439 
L 283.911006 273.946374 
L 286.073214 321.662954 
L 288.235422 310.318392 
L 290.39763 304.00242 
L 292.559839 293.385816 
L 294.722047 294.813523 
L 296.884255 300.432078 
L 299.046463 264.608801 
L 301.208671 267.099964 
L 303.370879 296.032325 
L 305.533087 299.304576 
L 307.695295 312.625864 
L 309.857503 300.627033 
L 312.019712 286.018558 
L 314.18192 264.612826 
L 316.344128 225.643707 
L 318.506336 211.995663 
L 320.668544 250.125904 
L 322.830752 292.442683 
L 324.99296 318.151318 
L 327.155168 319.611344 
L 329.317376 318.096715 
L 331.479584 321.734903 
L 333.641793 320.934026 
L 335.804001 316.025522 
L 337.966209 311.611522 
L 340.128417 310.912887 
L 342.290625 301.069235 
L 344.452833 292.986287 
L 346.615041 300.367605 
L 348.777249 308.240339 
L 350.939457 314.158353 
L 353.101666 320.951422 
L 355.263874 317.914042 
L 357.426082 311.390437 
L 359.58829 296.516416 
L 361.750498 279.611406 
L 363.912706 280.263476 
L 366.074914 296.50546 
L 368.237122 311.577744 
L 370.39933 314.575296 
L 372.561539 309.244519 
L 374.723747 312.98198 
L 376.885955 320.488319 
L 379.048163 324.337429 
L 381.210371 321.722928 
L 383.372579 317.799343 
L 385.534787 318.128465 
L 387.696995 321.656477 
L 389.859203 324.362406 
L 392.021411 325.535436 
L 394.18362 324.639175 
L 396.345828 321.740186 
L 400.670244 311.03738 
L 402.832452 311.012997 
L 404.99466 317.094728 
L 407.156868 321.797195 
L 409.319076 316.657576 
L 411.481284 315.377538 
L 413.643493 318.86112 
L 415.805701 319.021818 
L 417.967909 314.293716 
L 420.130117 308.317377 
L 422.292325 308.187031 
L 424.454533 307.875265 
L 426.616741 299.457759 
L 428.778949 297.325174 
L 430.941157 297.318671 
L 433.103366 305.791545 
L 435.265574 317.88155 
L 437.427782 309.471936 
L 439.58999 304.334485 
L 441.752198 307.610756 
L 443.914406 314.51475 
L 446.076614 317.980976 
L 448.238822 317.710293 
L 450.40103 317.837097 
L 452.563238 317.745017 
L 456.887655 311.455532 
L 459.049863 312.469585 
L 461.212071 310.316288 
L 463.374279 306.088948 
L 465.536487 306.102308 
L 467.698695 307.821385 
L 469.860903 311.699548 
L 472.023111 317.382537 
L 474.18532 322.093063 
L 476.347528 323.226621 
L 480.671944 318.959886 
L 482.834152 316.209286 
L 484.99636 311.438292 
L 487.158568 309.128794 
L 489.320776 313.050974 
L 491.482984 319.847504 
L 493.645193 324.435505 
L 495.807401 324.096206 
L 497.969609 320.70026 
L 500.131817 317.783429 
L 502.294025 317.959921 
L 506.618441 321.081109 
L 508.780649 319.561241 
L 510.942857 314.806411 
L 513.105065 313.137653 
L 515.267274 314.691941 
L 517.429482 315.183595 
L 519.59169 316.631386 
L 521.753898 319.460572 
L 523.916106 321.870226 
L 526.078314 322.014214 
L 528.240522 320.283179 
L 530.40273 319.047358 
L 532.564938 319.690023 
L 534.727147 321.729817 
L 536.889355 322.046322 
L 539.051563 319.232208 
L 541.213771 314.954529 
L 543.375979 309.799193 
L 545.538187 305.555056 
L 547.700395 305.432846 
L 549.862603 309.206262 
L 552.024811 314.309616 
L 554.18702 318.708015 
L 556.349228 321.358805 
L 558.511436 322.078892 
L 560.673644 321.751418 
L 562.835852 321.615869 
L 564.99806 322.328767 
L 567.160268 323.476291 
L 569.322476 324.346725 
L 571.484684 324.64673 
L 577.971309 324.239019 
L 582.295725 324.893984 
L 584.457933 325.309909 
L 586.620141 325.903735 
L 588.782349 326.010012 
L 590.944557 325.115598 
L 593.106765 323.633132 
L 595.268974 321.900786 
L 597.431182 320.911367 
L 599.59339 321.358165 
L 601.755598 322.337429 
L 603.917806 322.307713 
L 606.080014 321.910035 
L 608.242222 322.198124 
L 614.728847 324.602126 
L 616.891055 324.893695 
L 619.053263 324.752702 
L 625.539887 323.864634 
L 627.702095 323.748866 
L 629.864303 323.995178 
L 636.350928 325.639583 
L 638.513136 325.739796 
L 640.675344 325.559767 
L 642.837552 325.532769 
L 647.161968 326.371602 
L 649 325.717892 
L 649 325.717892 
" clip-path="url(#p6bf84d83c6)" style="fill: none; stroke: #d62728; stroke-linecap: square"/>
   </g>
   <g id="line2d_29">
    <path d="M 39.58149 326.053727 
L 41.743698 325.829173 
L 43.905906 324.830415 
L 46.068114 322.018638 
L 48.230322 322.197782 
L 50.392531 313.538029 
L 52.554739 323.847631 
L 54.716947 301.58305 
L 56.879155 310.54944 
L 59.041363 325.257457 
L 61.203571 324.560092 
L 63.365779 300.779817 
L 65.527987 241.50385 
L 67.690195 199.639407 
L 69.852404 243.992935 
L 74.17682 203.022849 
L 76.339028 276.886486 
L 78.501236 324.72323 
L 80.663444 325.262618 
L 82.825652 296.172515 
L 84.98786 225.780038 
L 87.150068 231.661226 
L 89.312276 311.854405 
L 91.474485 277.710832 
L 93.636693 262.853237 
L 95.798901 279.866401 
L 97.961109 297.853588 
L 100.123317 255.675463 
L 102.285525 271.539288 
L 104.447733 311.744554 
L 106.609941 312.693462 
L 108.772149 282.968299 
L 110.934358 297.037218 
L 113.096566 298.818473 
L 115.258774 207.08217 
L 117.420982 221.235549 
L 119.58319 285.362878 
L 121.745398 292.89111 
L 123.907606 271.459039 
L 126.069814 277.600014 
L 128.232022 312.194478 
L 130.394231 295.84948 
L 132.556439 300.044751 
L 134.718647 284.791003 
L 136.880855 204.032804 
L 139.043063 201.679381 
L 141.205271 282.773754 
L 143.367479 313.133005 
L 145.529687 309.223115 
L 147.691895 252.611653 
L 149.854103 161.927119 
L 152.016312 163.805981 
L 154.17852 262.833344 
L 156.340728 296.515091 
L 158.502936 213.376717 
L 160.665144 116.604935 
L 162.827352 189.226758 
L 164.98956 284.070156 
L 167.151768 288.411805 
L 169.313976 266.912969 
L 171.476185 224.344482 
L 173.638393 235.19752 
L 175.800601 283.03998 
L 177.962809 298.770566 
L 180.125017 251.416086 
L 182.287225 220.580266 
L 184.449433 244.067855 
L 186.611641 250.024042 
L 188.773849 293.407667 
L 190.936058 315.313809 
L 193.098266 318.519037 
L 195.260474 314.146718 
L 197.422682 308.829805 
L 199.58489 298.788926 
L 201.747098 280.898093 
L 203.909306 264.840969 
L 206.071514 288.776203 
L 208.233722 308.996917 
L 210.39593 303.343973 
L 212.558139 309.598787 
L 214.720347 303.630451 
L 216.882555 304.340819 
L 219.044763 321.178998 
L 221.206971 317.543311 
L 223.369179 315.647818 
L 225.531387 314.672284 
L 227.693595 313.014877 
L 229.855803 308.523636 
L 232.018012 260.535007 
L 234.18022 193.046427 
L 236.342428 220.437542 
L 238.504636 290.163274 
L 240.666844 292.309694 
L 242.829052 313.682243 
L 244.99126 305.871773 
L 247.153468 287.833437 
L 249.315676 285.725312 
L 251.477885 280.608518 
L 253.640093 309.566775 
L 255.802301 309.023796 
L 257.964509 300.715792 
L 260.126717 313.969389 
L 262.288925 323.400905 
L 264.451133 298.557289 
L 266.613341 267.542789 
L 268.775549 273.175763 
L 270.937757 303.316886 
L 273.099966 320.045533 
L 275.262174 316.566846 
L 277.424382 300.497011 
L 279.58659 278.107298 
L 281.748798 264.076494 
L 283.911006 268.518669 
L 286.073214 282.130917 
L 288.235422 301.374551 
L 290.39763 317.527991 
L 292.559839 294.099752 
L 294.722047 268.269112 
L 296.884255 275.045069 
L 299.046463 294.317644 
L 301.208671 262.53679 
L 303.370879 264.968036 
L 305.533087 279.764468 
L 307.695295 301.332386 
L 309.857503 319.355259 
L 312.019712 317.69117 
L 314.18192 297.099306 
L 316.344128 265.160412 
L 318.506336 260.844243 
L 320.668544 294.447216 
L 322.830752 306.736538 
L 324.99296 309.162489 
L 327.155168 316.729769 
L 329.317376 321.558179 
L 331.479584 314.478097 
L 333.641793 305.302673 
L 335.804001 301.300253 
L 337.966209 311.900978 
L 340.128417 326.130711 
L 342.290625 318.080966 
L 344.452833 317.8014 
L 346.615041 318.56891 
L 348.777249 313.713291 
L 350.939457 309.774051 
L 353.101666 307.031745 
L 355.263874 306.589564 
L 357.426082 304.509771 
L 359.58829 281.482593 
L 361.750498 249.268148 
L 363.912706 249.106049 
L 366.074914 279.085804 
L 368.237122 306.190517 
L 370.39933 323.045033 
L 372.561539 322.862501 
L 374.723747 319.647598 
L 376.885955 309.248697 
L 379.048163 306.153975 
L 381.210371 314.568363 
L 383.372579 321.22131 
L 385.534787 306.137788 
L 387.696995 298.036183 
L 389.859203 305.151686 
L 392.021411 315.358249 
L 394.18362 317.267105 
L 396.345828 312.977636 
L 398.508036 310.592541 
L 400.670244 312.204516 
L 404.99466 314.565946 
L 407.156868 318.892997 
L 409.319076 321.898742 
L 415.805701 325.668455 
L 417.967909 323.956985 
L 420.130117 319.686702 
L 422.292325 314.185704 
L 424.454533 312.135899 
L 426.616741 316.22362 
L 428.778949 317.354891 
L 430.941157 315.258234 
L 435.265574 317.631188 
L 437.427782 316.832705 
L 439.58999 318.976223 
L 441.752198 322.567621 
L 443.914406 322.397972 
L 448.238822 309.815862 
L 450.40103 309.530447 
L 452.563238 313.006979 
L 454.725447 315.736293 
L 456.887655 316.412992 
L 459.049863 316.673188 
L 461.212071 319.914769 
L 463.374279 322.469177 
L 465.536487 318.063211 
L 467.698695 314.591655 
L 469.860903 315.370521 
L 472.023111 318.333575 
L 474.18532 320.365961 
L 476.347528 322.600909 
L 478.509736 325.302337 
L 480.671944 323.892815 
L 484.99636 319.403823 
L 487.158568 316.621403 
L 489.320776 314.380089 
L 491.482984 310.205576 
L 493.645193 305.100263 
L 495.807401 306.750066 
L 497.969609 313.732309 
L 500.131817 317.161808 
L 502.294025 317.742092 
L 504.456233 317.654097 
L 506.618441 316.829574 
L 508.780649 318.25966 
L 510.942857 323.392249 
L 513.105065 321.511394 
L 515.267274 317.117973 
L 517.429482 315.967121 
L 519.59169 317.118748 
L 521.753898 318.971235 
L 528.240522 325.828742 
L 530.40273 323.292224 
L 532.564938 319.274269 
L 534.727147 317.96461 
L 536.889355 320.77446 
L 539.051563 323.794815 
L 541.213771 320.674112 
L 543.375979 317.784618 
L 547.700395 313.46826 
L 549.862603 312.421151 
L 552.024811 313.666501 
L 554.18702 316.404236 
L 556.349228 318.721911 
L 558.511436 320.395475 
L 560.673644 321.496986 
L 562.835852 322.176214 
L 564.99806 323.275647 
L 567.160268 324.94607 
L 569.322476 325.905087 
L 571.484684 324.379544 
L 573.646892 322.671306 
L 575.809101 321.450698 
L 577.971309 321.369681 
L 580.133517 322.229771 
L 584.457933 324.269944 
L 586.620141 324.878887 
L 588.782349 324.733582 
L 590.944557 324.083602 
L 593.106765 323.558147 
L 595.268974 323.756786 
L 597.431182 324.340108 
L 599.59339 324.139866 
L 601.755598 322.409751 
L 603.917806 320.010917 
L 606.080014 318.448499 
L 608.242222 318.708581 
L 610.40443 320.275316 
L 612.566638 322.212835 
L 614.728847 323.910193 
L 616.891055 324.498864 
L 619.053263 324.250811 
L 621.215471 324.448745 
L 623.377679 325.167768 
L 625.539887 325.687933 
L 627.702095 325.491966 
L 632.026511 324.480277 
L 634.188719 324.319874 
L 636.350928 324.643667 
L 638.513136 325.259934 
L 640.675344 325.696423 
L 642.837552 325.806242 
L 649 325.30095 
L 649 325.30095 
" clip-path="url(#p6bf84d83c6)" style="fill: none; stroke: #9467bd; stroke-linecap: square"/>
   </g>
   <g id="line2d_30">
    <path d="M 39.58149 325.388638 
L 41.743698 324.63393 
L 43.905906 321.462493 
L 46.068114 312.916833 
L 48.230322 302.26825 
L 50.392531 299.447066 
L 52.554739 310.53414 
L 54.716947 280.65261 
L 56.879155 293.872121 
L 59.041363 317.78035 
L 61.203571 324.639848 
L 63.365779 287.951571 
L 65.527987 237.235207 
L 67.690195 261.371861 
L 69.852404 300.881076 
L 72.014612 250.069928 
L 74.17682 171.795682 
L 76.339028 250.90704 
L 78.501236 303.240488 
L 80.663444 296.530456 
L 82.825652 303.242375 
L 84.98786 260.965329 
L 87.150068 242.46021 
L 89.312276 277.677876 
L 91.474485 277.045116 
L 93.636693 268.581851 
L 95.798901 298.646746 
L 97.961109 158.273523 
L 100.123317 83.24141 
L 102.285525 255.856656 
L 104.447733 295.115968 
L 106.609941 302.749063 
L 108.772149 253.456865 
L 110.934358 270.368746 
L 113.096566 299.234952 
L 115.258774 236.56701 
L 117.420982 265.680182 
L 119.58319 308.547976 
L 121.745398 308.44989 
L 123.907606 280.88999 
L 126.069814 284.987553 
L 128.232022 315.493298 
L 130.394231 284.31153 
L 132.556439 249.956527 
L 134.718647 235.561298 
L 136.880855 209.389432 
L 139.043063 253.188283 
L 141.205271 320.63551 
L 143.367479 285.167065 
L 145.529687 274.973725 
L 147.691895 293.43991 
L 149.854103 218.385944 
L 152.016312 202.14212 
L 154.17852 265.892403 
L 156.340728 289.896942 
L 158.502936 254.284778 
L 160.665144 248.059229 
L 162.827352 268.062357 
L 164.98956 249.2374 
L 167.151768 236.436354 
L 169.313976 257.819816 
L 171.476185 228.457 
L 173.638393 224.440574 
L 175.800601 274.978808 
L 177.962809 301.807388 
L 180.125017 297.568999 
L 182.287225 291.004068 
L 184.449433 301.221036 
L 186.611641 301.62804 
L 188.773849 314.892567 
L 190.936058 292.451894 
L 193.098266 202.599552 
L 195.260474 164.845966 
L 197.422682 251.745665 
L 199.58489 260.313934 
L 201.747098 252.780261 
L 203.909306 291.811538 
L 206.071514 286.234692 
L 208.233722 304.085674 
L 210.39593 307.128435 
L 212.558139 318.065389 
L 214.720347 321.192446 
L 216.882555 323.999717 
L 219.044763 316.356515 
L 221.206971 304.714984 
L 223.369179 317.721085 
L 225.531387 314.560462 
L 227.693595 307.239333 
L 229.855803 294.335697 
L 232.018012 273.619602 
L 234.18022 232.845127 
L 236.342428 245.768312 
L 238.504636 304.630486 
L 240.666844 311.251921 
L 242.829052 322.177948 
L 244.99126 302.212348 
L 247.153468 271.169895 
L 249.315676 237.270688 
L 251.477885 196.578844 
L 253.640093 235.348228 
L 255.802301 295.180112 
L 257.964509 299.766818 
L 260.126717 307.316468 
L 262.288925 319.430595 
L 264.451133 322.560968 
L 266.613341 310.930181 
L 268.775549 308.358874 
L 270.937757 309.963136 
L 273.099966 304.841103 
L 275.262174 282.716131 
L 277.424382 267.016298 
L 279.58659 240.194207 
L 281.748798 252.516412 
L 283.911006 302.1553 
L 286.073214 292.831192 
L 288.235422 279.545623 
L 290.39763 250.944306 
L 292.559839 233.139508 
L 294.722047 239.161544 
L 296.884255 256.065847 
L 299.046463 277.066472 
L 301.208671 281.331904 
L 303.370879 282.153562 
L 305.533087 295.030137 
L 307.695295 305.823774 
L 309.857503 312.172014 
L 312.019712 307.091019 
L 314.18192 290.005314 
L 316.344128 264.330336 
L 318.506336 263.550813 
L 320.668544 298.890372 
L 322.830752 306.291689 
L 324.99296 311.147195 
L 327.155168 313.795833 
L 329.317376 319.186008 
L 331.479584 314.624575 
L 333.641793 292.05941 
L 335.804001 285.547748 
L 337.966209 301.657868 
L 340.128417 319.512507 
L 342.290625 312.757622 
L 344.452833 307.106208 
L 346.615041 313.321932 
L 348.777249 317.777065 
L 350.939457 317.339544 
L 353.101666 315.395522 
L 355.263874 313.216619 
L 357.426082 313.890134 
L 359.58829 298.745331 
L 361.750498 270.628086 
L 363.912706 263.289959 
L 366.074914 276.414429 
L 368.237122 291.927055 
L 370.39933 304.322283 
L 372.561539 307.330637 
L 374.723747 307.201326 
L 376.885955 310.274043 
L 379.048163 316.366848 
L 381.210371 316.152069 
L 383.372579 308.554625 
L 385.534787 309.382107 
L 387.696995 315.250253 
L 389.859203 318.686593 
L 392.021411 316.431794 
L 396.345828 303.917559 
L 398.508036 305.230259 
L 400.670244 311.633435 
L 402.832452 311.342509 
L 404.99466 309.12296 
L 407.156868 307.286827 
L 409.319076 304.415298 
L 411.481284 305.540459 
L 413.643493 313.329233 
L 415.805701 319.36774 
L 417.967909 315.337956 
L 420.130117 306.718789 
L 422.292325 302.129408 
L 424.454533 307.087396 
L 426.616741 316.603782 
L 428.778949 320.508223 
L 430.941157 314.38111 
L 433.103366 314.495779 
L 435.265574 318.465193 
L 437.427782 317.792586 
L 439.58999 316.811616 
L 441.752198 318.456057 
L 443.914406 319.058023 
L 446.076614 317.993127 
L 448.238822 313.979398 
L 450.40103 312.006782 
L 452.563238 312.633427 
L 454.725447 313.695744 
L 456.887655 314.123594 
L 459.049863 312.010713 
L 463.374279 302.768849 
L 465.536487 301.261673 
L 467.698695 302.299614 
L 469.860903 308.190856 
L 472.023111 316.026261 
L 474.18532 319.811286 
L 476.347528 321.839668 
L 478.509736 322.80988 
L 480.671944 322.385757 
L 482.834152 320.769742 
L 484.99636 317.464274 
L 487.158568 312.977069 
L 489.320776 308.99914 
L 491.482984 305.857064 
L 493.645193 303.827895 
L 495.807401 304.956027 
L 497.969609 308.866024 
L 502.294025 318.625094 
L 504.456233 321.146774 
L 506.618441 320.237155 
L 508.780649 318.626388 
L 510.942857 318.336999 
L 513.105065 319.285746 
L 515.267274 317.467528 
L 517.429482 312.505985 
L 519.59169 310.86497 
L 521.753898 314.358533 
L 523.916106 319.57769 
L 526.078314 323.116215 
L 528.240522 322.946264 
L 532.564938 319.883327 
L 534.727147 318.814058 
L 536.889355 319.094092 
L 539.051563 320.845205 
L 541.213771 323.49067 
L 543.375979 323.888722 
L 545.538187 320.862879 
L 547.700395 318.616461 
L 549.862603 318.071006 
L 552.024811 319.089799 
L 554.18702 320.373362 
L 558.511436 321.531507 
L 560.673644 322.042401 
L 562.835852 322.227536 
L 564.99806 323.071726 
L 567.160268 324.479659 
L 569.322476 325.199515 
L 571.484684 324.4432 
L 573.646892 322.994981 
L 575.809101 321.710337 
L 577.971309 321.204091 
L 580.133517 321.634445 
L 582.295725 322.326586 
L 586.620141 323.210699 
L 588.782349 324.112791 
L 590.944557 325.163956 
L 593.106765 324.541689 
L 595.268974 322.907349 
L 597.431182 321.807838 
L 599.59339 321.791933 
L 601.755598 322.623915 
L 603.917806 323.760368 
L 606.080014 325.057916 
L 608.242222 325.952436 
L 612.566638 324.252274 
L 616.891055 322.158787 
L 619.053263 321.704891 
L 621.215471 322.051126 
L 627.702095 324.20049 
L 629.864303 324.487983 
L 632.026511 324.599091 
L 634.188719 324.248997 
L 636.350928 323.731172 
L 638.513136 323.576205 
L 640.675344 323.89319 
L 647.161968 325.853845 
L 649 326.024783 
L 649 326.024783 
" clip-path="url(#p6bf84d83c6)" style="fill: none; stroke: #8c564b; stroke-linecap: square"/>
   </g>
   <g id="line2d_31">
    <path d="M 39.58149 325.907002 
L 41.743698 324.517281 
L 43.905906 320.540195 
L 46.068114 311.467318 
L 48.230322 300.030827 
L 50.392531 296.315125 
L 52.554739 306.821202 
L 54.716947 295.577492 
L 56.879155 312.243553 
L 59.041363 323.071596 
L 61.203571 323.142223 
L 63.365779 311.926937 
L 65.527987 305.02996 
L 67.690195 284.347445 
L 69.852404 272.309364 
L 72.014612 244.872843 
L 74.17682 203.959763 
L 76.339028 250.276535 
L 78.501236 275.536052 
L 80.663444 263.928755 
L 82.825652 291.617213 
L 84.98786 283.532385 
L 87.150068 267.225486 
L 89.312276 288.606161 
L 91.474485 253.057951 
L 93.636693 240.1622 
L 95.798901 301.084532 
L 97.961109 255.889615 
L 100.123317 215.396994 
L 102.285525 264.915725 
L 104.447733 309.579323 
L 106.609941 257.655346 
L 108.772149 187.003512 
L 110.934358 230.216622 
L 113.096566 293.811609 
L 115.258774 300.369962 
L 117.420982 315.623522 
L 119.58319 308.58739 
L 121.745398 312.404862 
L 123.907606 280.757475 
L 126.069814 290.120809 
L 128.232022 310.482939 
L 130.394231 270.244363 
L 132.556439 202.585216 
L 134.718647 182.936573 
L 136.880855 228.148977 
L 139.043063 267.629576 
L 141.205271 323.493758 
L 143.367479 276.024816 
L 145.529687 248.862386 
L 147.691895 274.336555 
L 149.854103 312.403762 
L 152.016312 286.173742 
L 154.17852 325.802078 
L 156.340728 276.025301 
L 158.502936 240.292098 
L 160.665144 278.778548 
L 162.827352 275.002504 
L 164.98956 249.694634 
L 167.151768 244.081832 
L 169.313976 263.45977 
L 171.476185 233.219841 
L 173.638393 231.487086 
L 175.800601 285.19581 
L 177.962809 309.346042 
L 180.125017 300.348256 
L 182.287225 277.740148 
L 184.449433 282.435547 
L 186.611641 284.420675 
L 188.773849 317.359073 
L 190.936058 287.312939 
L 193.098266 253.351202 
L 195.260474 273.341558 
L 197.422682 317.091191 
L 199.58489 277.469801 
L 201.747098 261.873859 
L 203.909306 240.13757 
L 206.071514 240.23537 
L 208.233722 263.595867 
L 210.39593 206.181761 
L 212.558139 261.100557 
L 214.720347 304.063803 
L 216.882555 310.090321 
L 219.044763 310.434891 
L 221.206971 297.83747 
L 223.369179 306.587438 
L 225.531387 323.612394 
L 227.693595 313.611782 
L 229.855803 312.169605 
L 232.018012 294.750359 
L 234.18022 272.802042 
L 236.342428 276.873605 
L 238.504636 274.61109 
L 240.666844 260.641398 
L 242.829052 268.075109 
L 244.99126 199.23115 
L 247.153468 183.325659 
L 249.315676 259.871388 
L 251.477885 320.73685 
L 253.640093 287.626601 
L 255.802301 280.221932 
L 260.126717 318.723967 
L 262.288925 313.693359 
L 264.451133 276.944413 
L 266.613341 209.207357 
L 268.775549 167.063332 
L 270.937757 220.990218 
L 273.099966 281.988517 
L 275.262174 306.99709 
L 277.424382 306.575382 
L 279.58659 311.318719 
L 281.748798 307.800122 
L 283.911006 312.699033 
L 286.073214 315.062189 
L 288.235422 305.791946 
L 290.39763 305.084495 
L 292.559839 317.81481 
L 294.722047 274.58979 
L 296.884255 226.669718 
L 299.046463 210.966198 
L 301.208671 250.506104 
L 303.370879 294.728085 
L 305.533087 288.096998 
L 307.695295 284.745061 
L 309.857503 295.534638 
L 312.019712 311.649921 
L 314.18192 314.802675 
L 316.344128 293.190131 
L 318.506336 284.93638 
L 320.668544 299.87306 
L 322.830752 316.532979 
L 324.99296 324.964279 
L 327.155168 317.259546 
L 329.317376 313.962978 
L 331.479584 319.977768 
L 333.641793 321.492422 
L 335.804001 315.891833 
L 337.966209 318.926018 
L 340.128417 323.173489 
L 342.290625 320.490107 
L 344.452833 324.37814 
L 346.615041 313.23918 
L 348.777249 297.061338 
L 350.939457 282.883122 
L 353.101666 278.417259 
L 355.263874 287.606601 
L 357.426082 290.667568 
L 359.58829 278.596897 
L 361.750498 261.046958 
L 363.912706 264.064642 
L 368.237122 303.846851 
L 370.39933 322.701272 
L 372.561539 317.63834 
L 374.723747 315.851671 
L 376.885955 320.313217 
L 379.048163 325.890034 
L 381.210371 321.512947 
L 383.372579 315.873928 
L 385.534787 312.482563 
L 387.696995 313.77863 
L 389.859203 317.253649 
L 392.021411 320.244559 
L 394.18362 320.208226 
L 396.345828 316.567906 
L 398.508036 311.970871 
L 400.670244 309.428134 
L 402.832452 310.339321 
L 404.99466 311.72814 
L 407.156868 310.86605 
L 409.319076 310.172557 
L 411.481284 313.842886 
L 413.643493 320.060518 
L 415.805701 325.018431 
L 417.967909 323.700176 
L 420.130117 316.606527 
L 424.454533 294.458661 
L 426.616741 291.007978 
L 428.778949 299.810578 
L 430.941157 314.720892 
L 433.103366 324.701818 
L 435.265574 318.533083 
L 437.427782 315.968411 
L 439.58999 318.370868 
L 441.752198 314.182362 
L 443.914406 309.186067 
L 446.076614 313.01629 
L 448.238822 317.96876 
L 450.40103 316.897226 
L 454.725447 317.207581 
L 456.887655 315.182523 
L 459.049863 311.274777 
L 461.212071 307.856867 
L 463.374279 307.293883 
L 465.536487 309.926147 
L 467.698695 313.629443 
L 469.860903 318.492682 
L 472.023111 320.292891 
L 474.18532 320.243334 
L 476.347528 322.697402 
L 478.509736 325.354589 
L 480.671944 323.4414 
L 482.834152 319.604765 
L 487.158568 307.635386 
L 489.320776 305.772829 
L 491.482984 305.360228 
L 493.645193 302.244377 
L 495.807401 301.065875 
L 497.969609 303.687429 
L 500.131817 308.462224 
L 502.294025 313.547828 
L 504.456233 316.727191 
L 506.618441 318.499553 
L 508.780649 319.911985 
L 513.105065 321.107571 
L 515.267274 322.781065 
L 517.429482 325.188259 
L 519.59169 325.824137 
L 521.753898 324.858772 
L 523.916106 325.763507 
L 526.078314 325.266271 
L 528.240522 323.228682 
L 530.40273 321.956941 
L 532.564938 321.048058 
L 534.727147 320.709477 
L 536.889355 321.991319 
L 539.051563 322.943887 
L 541.213771 323.590562 
L 543.375979 325.961484 
L 545.538187 322.477668 
L 547.700395 320.747708 
L 549.862603 321.581104 
L 552.024811 321.85061 
L 554.18702 319.967048 
L 556.349228 320.098357 
L 558.511436 322.626572 
L 560.673644 324.74815 
L 562.835852 323.36685 
L 564.99806 322.255746 
L 567.160268 322.888511 
L 569.322476 324.405218 
L 571.484684 325.378034 
L 575.809101 325.600127 
L 577.971309 325.917683 
L 580.133517 326.365055 
L 582.295725 326.055796 
L 584.457933 325.297472 
L 588.782349 324.171599 
L 593.106765 322.648432 
L 595.268974 322.698219 
L 597.431182 323.808627 
L 599.59339 325.256699 
L 601.755598 326.383542 
L 606.080014 324.501214 
L 608.242222 324.177953 
L 610.40443 324.330494 
L 614.728847 325.084116 
L 616.891055 325.086999 
L 623.377679 324.141592 
L 625.539887 324.213189 
L 627.702095 324.677197 
L 632.026511 326.289335 
L 634.188719 325.316086 
L 638.513136 324.010397 
L 640.675344 323.064226 
L 642.837552 322.561123 
L 644.99976 322.780841 
L 647.161968 323.170684 
L 649 323.234535 
L 649 323.234535 
" clip-path="url(#p6bf84d83c6)" style="fill: none; stroke: #e377c2; stroke-linecap: square"/>
   </g>
   <g id="line2d_32">
    <path d="M 39.58149 326.014952 
L 41.743698 325.680259 
L 43.905906 324.432284 
L 46.068114 321.877388 
L 48.230322 319.567357 
L 50.392531 319.174716 
L 52.554739 307.461619 
L 54.716947 294.412261 
L 56.879155 313.756142 
L 59.041363 324.379267 
L 61.203571 322.95851 
L 63.365779 310.245532 
L 65.527987 303.386923 
L 67.690195 279.233785 
L 69.852404 305.685629 
L 72.014612 203.826348 
L 74.17682 192.28067 
L 76.339028 284.850645 
L 78.501236 323.655027 
L 80.663444 326.51947 
L 82.825652 299.683146 
L 84.98786 193.451925 
L 87.150068 174.68326 
L 89.312276 278.636454 
L 91.474485 251.842279 
L 93.636693 175.082563 
L 95.798901 186.976309 
L 97.961109 224.27743 
L 100.123317 227.554645 
L 102.285525 278.953241 
L 104.447733 309.355231 
L 106.609941 295.905003 
L 108.772149 236.135041 
L 110.934358 252.564965 
L 113.096566 237.627864 
L 115.258774 277.622176 
L 117.420982 291.239573 
L 119.58319 283.830566 
L 121.745398 287.011063 
L 123.907606 280.594027 
L 126.069814 294.181281 
L 128.232022 309.041814 
L 130.394231 301.084767 
L 132.556439 311.023663 
L 134.718647 227.724927 
L 136.880855 119.918999 
L 139.043063 144.134501 
L 141.205271 277.583513 
L 143.367479 290.533328 
L 145.529687 254.554475 
L 147.691895 260.772985 
L 149.854103 272.232255 
L 152.016312 291.724206 
L 154.17852 278.823429 
L 156.340728 284.209774 
L 158.502936 262.258665 
L 160.665144 252.787884 
L 162.827352 294.184183 
L 164.98956 265.340581 
L 167.151768 260.091796 
L 169.313976 271.575221 
L 171.476185 247.718843 
L 173.638393 259.226814 
L 175.800601 316.674868 
L 177.962809 292.343336 
L 180.125017 248.513899 
L 182.287225 251.25783 
L 184.449433 317.274261 
L 186.611641 293.216499 
L 188.773849 303.335175 
L 190.936058 314.141804 
L 193.098266 291.395396 
L 195.260474 281.078016 
L 197.422682 290.361638 
L 199.58489 282.372432 
L 203.909306 315.83802 
L 206.071514 296.135691 
L 208.233722 304.86985 
L 210.39593 314.63419 
L 212.558139 320.006339 
L 214.720347 317.025277 
L 216.882555 317.973746 
L 219.044763 321.426136 
L 221.206971 305.232329 
L 223.369179 307.460992 
L 225.531387 318.88736 
L 227.693595 315.376515 
L 229.855803 304.152161 
L 232.018012 263.389403 
L 234.18022 199.601428 
L 236.342428 208.238189 
L 238.504636 227.881715 
L 240.666844 218.769387 
L 242.829052 266.684751 
L 244.99126 248.745008 
L 247.153468 250.779191 
L 249.315676 290.096909 
L 251.477885 307.353978 
L 253.640093 301.672434 
L 255.802301 265.024179 
L 257.964509 276.695104 
L 260.126717 314.123272 
L 262.288925 318.614625 
L 264.451133 312.269279 
L 266.613341 296.617925 
L 268.775549 292.946002 
L 270.937757 308.173958 
L 273.099966 314.255507 
L 275.262174 307.959225 
L 277.424382 319.431732 
L 279.58659 277.025128 
L 281.748798 211.612288 
L 283.911006 190.2714 
L 286.073214 220.773278 
L 288.235422 267.105198 
L 290.39763 309.262855 
L 292.559839 312.671422 
L 294.722047 290.624255 
L 296.884255 284.233291 
L 299.046463 301.882487 
L 301.208671 290.399136 
L 303.370879 269.374535 
L 305.533087 273.340877 
L 307.695295 297.881769 
L 309.857503 305.601654 
L 312.019712 307.295327 
L 314.18192 299.254891 
L 316.344128 266.070869 
L 318.506336 218.677875 
L 320.668544 188.601379 
L 322.830752 208.222308 
L 324.99296 265.589591 
L 327.155168 299.651758 
L 329.317376 300.018558 
L 331.479584 299.639959 
L 333.641793 307.419008 
L 335.804001 316.61885 
L 337.966209 320.946534 
L 340.128417 321.86531 
L 342.290625 324.106494 
L 344.452833 322.823742 
L 346.615041 317.598821 
L 348.777249 312.920123 
L 350.939457 310.806584 
L 353.101666 309.86298 
L 355.263874 307.704696 
L 357.426082 300.741013 
L 359.58829 289.559215 
L 361.750498 280.941282 
L 363.912706 292.558113 
L 366.074914 312.233026 
L 368.237122 316.496751 
L 370.39933 319.699692 
L 372.561539 317.329993 
L 374.723747 320.435627 
L 376.885955 322.487366 
L 379.048163 318.477763 
L 381.210371 311.059147 
L 383.372579 304.436121 
L 385.534787 298.638876 
L 387.696995 297.897852 
L 389.859203 304.5192 
L 392.021411 314.31287 
L 394.18362 322.598739 
L 396.345828 318.594744 
L 398.508036 312.205376 
L 400.670244 312.376152 
L 402.832452 314.519004 
L 404.99466 318.911536 
L 407.156868 320.726967 
L 409.319076 318.824263 
L 411.481284 317.842661 
L 413.643493 320.071046 
L 415.805701 319.088098 
L 417.967909 310.524857 
L 420.130117 297.732704 
L 422.292325 291.245747 
L 424.454533 298.265379 
L 426.616741 306.038985 
L 428.778949 308.50597 
L 430.941157 313.248935 
L 433.103366 317.175289 
L 435.265574 317.16644 
L 437.427782 316.875762 
L 439.58999 318.191536 
L 441.752198 318.18336 
L 443.914406 316.053371 
L 446.076614 315.842625 
L 448.238822 320.163044 
L 450.40103 323.092274 
L 452.563238 320.270333 
L 454.725447 315.888985 
L 456.887655 313.261073 
L 459.049863 315.886811 
L 461.212071 318.022094 
L 463.374279 317.926975 
L 465.536487 320.295586 
L 467.698695 322.087512 
L 469.860903 321.561806 
L 472.023111 322.464852 
L 474.18532 324.395894 
L 476.347528 324.501643 
L 478.509736 324.406657 
L 480.671944 322.93273 
L 482.834152 317.659593 
L 484.99636 311.160829 
L 487.158568 307.703724 
L 489.320776 312.559022 
L 491.482984 323.296441 
L 493.645193 319.252572 
L 495.807401 313.040936 
L 497.969609 312.552041 
L 500.131817 316.384815 
L 502.294025 321.671426 
L 504.456233 321.444127 
L 506.618441 315.790421 
L 508.780649 312.178914 
L 510.942857 313.230601 
L 513.105065 316.072818 
L 515.267274 317.648415 
L 519.59169 318.818376 
L 523.916106 319.304857 
L 526.078314 319.585143 
L 528.240522 319.62666 
L 530.40273 319.387556 
L 532.564938 318.377752 
L 534.727147 317.498617 
L 539.051563 320.351471 
L 541.213771 320.291801 
L 543.375979 321.313099 
L 545.538187 323.444028 
L 547.700395 325.246391 
L 549.862603 323.193211 
L 554.18702 313.942819 
L 556.349228 311.524811 
L 562.835852 311.552339 
L 564.99806 314.031587 
L 567.160268 318.068401 
L 569.322476 321.617047 
L 571.484684 323.934935 
L 573.646892 324.442077 
L 575.809101 323.831566 
L 577.971309 323.729078 
L 582.295725 324.667227 
L 584.457933 324.764511 
L 590.944557 323.143367 
L 593.106765 322.469335 
L 595.268974 321.361144 
L 597.431182 319.989749 
L 599.59339 319.462712 
L 601.755598 320.565533 
L 603.917806 322.549602 
L 606.080014 324.375935 
L 608.242222 325.23168 
L 610.40443 324.946896 
L 612.566638 324.935016 
L 614.728847 325.309857 
L 616.891055 325.237678 
L 619.053263 324.815445 
L 621.215471 324.742762 
L 623.377679 324.978733 
L 629.864303 325.246117 
L 634.188719 326.563159 
L 636.350928 325.719087 
L 638.513136 325.03218 
L 640.675344 324.629996 
L 642.837552 324.650317 
L 644.99976 325.116105 
L 647.161968 325.71901 
L 649 325.606212 
L 649 325.606212 
" clip-path="url(#p6bf84d83c6)" style="fill: none; stroke: #7f7f7f; stroke-linecap: square"/>
   </g>
   <g id="patch_3">
    <path d="M 39.58149 326.64351 
L 39.58149 18.118365 
" style="fill: none; stroke: #000000; stroke-width: 0.8; stroke-linejoin: miter; stroke-linecap: square"/>
   </g>
   <g id="patch_4">
    <path d="M 644.99976 326.64351 
L 644.99976 18.118365 
" style="fill: none; stroke: #000000; stroke-width: 0.8; stroke-linejoin: miter; stroke-linecap: square"/>
   </g>
   <g id="patch_5">
    <path d="M 39.58149 326.64351 
L 644.99976 326.64351 
" style="fill: none; stroke: #000000; stroke-width: 0.8; stroke-linejoin: miter; stroke-linecap: square"/>
   </g>
   <g id="patch_6">
    <path d="M 39.58149 18.118365 
L 644.99976 18.118365 
" style="fill: none; stroke: #000000; stroke-width: 0.8; stroke-linejoin: miter; stroke-linecap: square"/>
   </g>
   <g id="text_15">
    <!-- CalculiX high-frequency response - HPF 100 Hz / LPF 5 kHz / 50 ms -->
    <g transform="translate(141.96375 12.118365) scale(0.12 -0.12)">
     <defs>
      <path id="DejaVuSans-43" d="M 4122 4306 
L 4122 3641 
Q 3803 3938 3442 4084 
Q 3081 4231 2675 4231 
Q 1875 4231 1450 3742 
Q 1025 3253 1025 2328 
Q 1025 1406 1450 917 
Q 1875 428 2675 428 
Q 3081 428 3442 575 
Q 3803 722 4122 1019 
L 4122 359 
Q 3791 134 3420 21 
Q 3050 -91 2638 -91 
Q 1578 -91 968 557 
Q 359 1206 359 2328 
Q 359 3453 968 4101 
Q 1578 4750 2638 4750 
Q 3056 4750 3426 4639 
Q 3797 4528 4122 4306 
z
" transform="scale(0.015625)"/>
      <path id="DejaVuSans-58" d="M 403 4666 
L 1081 4666 
L 2241 2931 
L 3406 4666 
L 4084 4666 
L 2584 2425 
L 4184 0 
L 3506 0 
L 2194 1984 
L 872 0 
L 191 0 
L 1856 2491 
L 403 4666 
z
" transform="scale(0.015625)"/>
      <path id="DejaVuSans-68" d="M 3513 2113 
L 3513 0 
L 2938 0 
L 2938 2094 
Q 2938 2591 2744 2837 
Q 2550 3084 2163 3084 
Q 1697 3084 1428 2787 
Q 1159 2491 1159 1978 
L 1159 0 
L 581 0 
L 581 4863 
L 1159 4863 
L 1159 2956 
Q 1366 3272 1645 3428 
Q 1925 3584 2291 3584 
Q 2894 3584 3203 3211 
Q 3513 2838 3513 2113 
z
" transform="scale(0.015625)"/>
      <path id="DejaVuSans-67" d="M 2906 1791 
Q 2906 2416 2648 2759 
Q 2391 3103 1925 3103 
Q 1463 3103 1205 2759 
Q 947 2416 947 1791 
Q 947 1169 1205 825 
Q 1463 481 1925 481 
Q 2391 481 2648 825 
Q 2906 1169 2906 1791 
z
M 3481 434 
Q 3481 -459 3084 -895 
Q 2688 -1331 1869 -1331 
Q 1566 -1331 1297 -1286 
Q 1028 -1241 775 -1147 
L 775 -588 
Q 1028 -725 1275 -790 
Q 1522 -856 1778 -856 
Q 2344 -856 2625 -561 
Q 2906 -266 2906 331 
L 2906 616 
Q 2728 306 2450 153 
Q 2172 0 1784 0 
Q 1141 0 747 490 
Q 353 981 353 1791 
Q 353 2603 747 3093 
Q 1141 3584 1784 3584 
Q 2172 3584 2450 3431 
Q 2728 3278 2906 2969 
L 2906 3500 
L 3481 3500 
L 3481 434 
z
" transform="scale(0.015625)"/>
      <path id="DejaVuSans-2d" d="M 313 2009 
L 1997 2009 
L 1997 1497 
L 313 1497 
L 313 2009 
z
" transform="scale(0.015625)"/>
      <path id="DejaVuSans-50" d="M 1259 4147 
L 1259 2394 
L 2053 2394 
Q 2494 2394 2734 2622 
Q 2975 2850 2975 3272 
Q 2975 3691 2734 3919 
Q 2494 4147 2053 4147 
L 1259 4147 
z
M 628 4666 
L 2053 4666 
Q 2838 4666 3239 4311 
Q 3641 3956 3641 3272 
Q 3641 2581 3239 2228 
Q 2838 1875 2053 1875 
L 1259 1875 
L 1259 0 
L 628 0 
L 628 4666 
z
" transform="scale(0.015625)"/>
      <path id="DejaVuSans-46" d="M 628 4666 
L 3309 4666 
L 3309 4134 
L 1259 4134 
L 1259 2759 
L 3109 2759 
L 3109 2228 
L 1259 2228 
L 1259 0 
L 628 0 
L 628 4666 
z
" transform="scale(0.015625)"/>
      <path id="DejaVuSans-2f" d="M 1625 4666 
L 2156 4666 
L 531 -594 
L 0 -594 
L 1625 4666 
z
" transform="scale(0.015625)"/>
      <path id="DejaVuSans-4c" d="M 628 4666 
L 1259 4666 
L 1259 531 
L 3531 531 
L 3531 0 
L 628 0 
L 628 4666 
z
" transform="scale(0.015625)"/>
      <path id="DejaVuSans-6b" d="M 581 4863 
L 1159 4863 
L 1159 1991 
L 2875 3500 
L 3609 3500 
L 1753 1863 
L 3688 0 
L 2938 0 
L 1159 1709 
L 1159 0 
L 581 0 
L 581 4863 
z
" transform="scale(0.015625)"/>
     </defs>
     <use xlink:href="#DejaVuSans-43"/>
     <use xlink:href="#DejaVuSans-61" x="69.824219"/>
     <use xlink:href="#DejaVuSans-6c" x="131.103516"/>
     <use xlink:href="#DejaVuSans-63" x="158.886719"/>
     <use xlink:href="#DejaVuSans-75" x="213.867188"/>
     <use xlink:href="#DejaVuSans-6c" x="277.246094"/>
     <use xlink:href="#DejaVuSans-69" x="305.029297"/>
     <use xlink:href="#DejaVuSans-58" x="332.8125"/>
     <use xlink:href="#DejaVuSans-20" x="401.318359"/>
     <use xlink:href="#DejaVuSans-68" x="433.105469"/>
     <use xlink:href="#DejaVuSans-69" x="496.484375"/>
     <use xlink:href="#DejaVuSans-67" x="524.267578"/>
     <use xlink:href="#DejaVuSans-68" x="587.744141"/>
     <use xlink:href="#DejaVuSans-2d" x="651.123047"/>
     <use xlink:href="#DejaVuSans-66" x="687.207031"/>
     <use xlink:href="#DejaVuSans-72" x="722.412109"/>
     <use xlink:href="#DejaVuSans-65" x="761.275391"/>
     <use xlink:href="#DejaVuSans-71" x="822.798828"/>
     <use xlink:href="#DejaVuSans-75" x="886.275391"/>
     <use xlink:href="#DejaVuSans-65" x="949.654297"/>
     <use xlink:href="#DejaVuSans-6e" x="1011.177734"/>
     <use xlink:href="#DejaVuSans-63" x="1074.556641"/>
     <use xlink:href="#DejaVuSans-79" x="1129.537109"/>
     <use xlink:href="#DejaVuSans-20" x="1188.716797"/>
     <use xlink:href="#DejaVuSans-72" x="1220.503906"/>
     <use xlink:href="#DejaVuSans-65" x="1259.367188"/>
     <use xlink:href="#DejaVuSans-73" x="1320.890625"/>
     <use xlink:href="#DejaVuSans-70" x="1372.990234"/>
     <use xlink:href="#DejaVuSans-6f" x="1436.466797"/>
     <use xlink:href="#DejaVuSans-6e" x="1497.648438"/>
     <use xlink:href="#DejaVuSans-73" x="1561.027344"/>
     <use xlink:href="#DejaVuSans-65" x="1613.126953"/>
     <use xlink:href="#DejaVuSans-20" x="1674.650391"/>
     <use xlink:href="#DejaVuSans-2d" x="1706.4375"/>
     <use xlink:href="#DejaVuSans-20" x="1742.521484"/>
     <use xlink:href="#DejaVuSans-48" x="1774.308594"/>
     <use xlink:href="#DejaVuSans-50" x="1849.503906"/>
     <use xlink:href="#DejaVuSans-46" x="1909.806641"/>
     <use xlink:href="#DejaVuSans-20" x="1967.326172"/>
     <use xlink:href="#DejaVuSans-31" x="1999.113281"/>
     <use xlink:href="#DejaVuSans-30" x="2062.736328"/>
     <use xlink:href="#DejaVuSans-30" x="2126.359375"/>
     <use xlink:href="#DejaVuSans-20" x="2189.982422"/>
     <use xlink:href="#DejaVuSans-48" x="2221.769531"/>
     <use xlink:href="#DejaVuSans-7a" x="2296.964844"/>
     <use xlink:href="#DejaVuSans-20" x="2349.455078"/>
     <use xlink:href="#DejaVuSans-2f" x="2381.242188"/>
     <use xlink:href="#DejaVuSans-20" x="2414.933594"/>
     <use xlink:href="#DejaVuSans-4c" x="2446.720703"/>
     <use xlink:href="#DejaVuSans-50" x="2502.433594"/>
     <use xlink:href="#DejaVuSans-46" x="2562.736328"/>
     <use xlink:href="#DejaVuSans-20" x="2620.255859"/>
     <use xlink:href="#DejaVuSans-35" x="2652.042969"/>
     <use xlink:href="#DejaVuSans-20" x="2715.666016"/>
     <use xlink:href="#DejaVuSans-6b" x="2747.453125"/>
     <use xlink:href="#DejaVuSans-48" x="2805.363281"/>
     <use xlink:href="#DejaVuSans-7a" x="2880.558594"/>
     <use xlink:href="#DejaVuSans-20" x="2933.048828"/>
     <use xlink:href="#DejaVuSans-2f" x="2964.835938"/>
     <use xlink:href="#DejaVuSans-20" x="2998.527344"/>
     <use xlink:href="#DejaVuSans-35" x="3030.314453"/>
     <use xlink:href="#DejaVuSans-30" x="3093.9375"/>
     <use xlink:href="#DejaVuSans-20" x="3157.560547"/>
     <use xlink:href="#DejaVuSans-6d" x="3189.347656"/>
     <use xlink:href="#DejaVuSans-73" x="3286.759766"/>
    </g>
   </g>
   <g id="legend_1">
    <g id="patch_7">
     <path d="M 406.41851 55.474615 
L 637.99976 55.474615 
Q 639.99976 55.474615 639.99976 53.474615 
L 639.99976 25.118365 
Q 639.99976 23.118365 637.99976 23.118365 
L 406.41851 23.118365 
Q 404.41851 23.118365 404.41851 25.118365 
L 404.41851 53.474615 
Q 404.41851 55.474615 406.41851 55.474615 
z
" style="fill: #ffffff; opacity: 0.8; stroke: #cccccc; stroke-linejoin: miter"/>
    </g>
    <g id="line2d_33">
     <path d="M 408.41851 31.216803 
L 418.41851 31.216803 
L 428.41851 31.216803 
" style="fill: none; stroke: #1f77b4; stroke-linecap: square"/>
    </g>
    <g id="text_16">
     <!-- C4 -->
     <g transform="translate(436.41851 34.716803) scale(0.1 -0.1)">
      <use xlink:href="#DejaVuSans-43"/>
      <use xlink:href="#DejaVuSans-34" x="69.824219"/>
     </g>
    </g>
    <g id="line2d_34">
     <path d="M 408.41851 45.894928 
L 418.41851 45.894928 
L 428.41851 45.894928 
" style="fill: none; stroke: #ff7f0e; stroke-linecap: square"/>
    </g>
    <g id="text_17">
     <!-- D4 -->
     <g transform="translate(436.41851 49.394928) scale(0.1 -0.1)">
      <defs>
       <path id="DejaVuSans-44" d="M 1259 4147 
L 1259 519 
L 2022 519 
Q 2988 519 3436 956 
Q 3884 1394 3884 2338 
Q 3884 3275 3436 3711 
Q 2988 4147 2022 4147 
L 1259 4147 
z
M 628 4666 
L 1925 4666 
Q 3281 4666 3915 4102 
Q 4550 3538 4550 2338 
Q 4550 1131 3912 565 
Q 3275 0 1925 0 
L 628 0 
L 628 4666 
z
" transform="scale(0.015625)"/>
      </defs>
      <use xlink:href="#DejaVuSans-44"/>
      <use xlink:href="#DejaVuSans-34" x="77.001953"/>
     </g>
    </g>
    <g id="line2d_35">
     <path d="M 470.48101 31.216803 
L 480.48101 31.216803 
L 490.48101 31.216803 
" style="fill: none; stroke: #2ca02c; stroke-linecap: square"/>
    </g>
    <g id="text_18">
     <!-- E4 -->
     <g transform="translate(498.48101 34.716803) scale(0.1 -0.1)">
      <defs>
       <path id="DejaVuSans-45" d="M 628 4666 
L 3578 4666 
L 3578 4134 
L 1259 4134 
L 1259 2753 
L 3481 2753 
L 3481 2222 
L 1259 2222 
L 1259 531 
L 3634 531 
L 3634 0 
L 628 0 
L 628 4666 
z
" transform="scale(0.015625)"/>
      </defs>
      <use xlink:href="#DejaVuSans-45"/>
      <use xlink:href="#DejaVuSans-34" x="63.183594"/>
     </g>
    </g>
    <g id="line2d_36">
     <path d="M 470.48101 45.894928 
L 480.48101 45.894928 
L 490.48101 45.894928 
" style="fill: none; stroke: #d62728; stroke-linecap: square"/>
    </g>
    <g id="text_19">
     <!-- G4 -->
     <g transform="translate(498.48101 49.394928) scale(0.1 -0.1)">
      <defs>
       <path id="DejaVuSans-47" d="M 3809 666 
L 3809 1919 
L 2778 1919 
L 2778 2438 
L 4434 2438 
L 4434 434 
Q 4069 175 3628 42 
Q 3188 -91 2688 -91 
Q 1594 -91 976 548 
Q 359 1188 359 2328 
Q 359 3472 976 4111 
Q 1594 4750 2688 4750 
Q 3144 4750 3555 4637 
Q 3966 4525 4313 4306 
L 4313 3634 
Q 3963 3931 3569 4081 
Q 3175 4231 2741 4231 
Q 1884 4231 1454 3753 
Q 1025 3275 1025 2328 
Q 1025 1384 1454 906 
Q 1884 428 2741 428 
Q 3075 428 3337 486 
Q 3600 544 3809 666 
z
" transform="scale(0.015625)"/>
      </defs>
      <use xlink:href="#DejaVuSans-47"/>
      <use xlink:href="#DejaVuSans-34" x="77.490234"/>
     </g>
    </g>
    <g id="line2d_37">
     <path d="M 532.591948 31.216803 
L 542.591948 31.216803 
L 552.591948 31.216803 
" style="fill: none; stroke: #9467bd; stroke-linecap: square"/>
    </g>
    <g id="text_20">
     <!-- A4 -->
     <g transform="translate(560.591948 34.716803) scale(0.1 -0.1)">
      <defs>
       <path id="DejaVuSans-41" d="M 2188 4044 
L 1331 1722 
L 3047 1722 
L 2188 4044 
z
M 1831 4666 
L 2547 4666 
L 4325 0 
L 3669 0 
L 3244 1197 
L 1141 1197 
L 716 0 
L 50 0 
L 1831 4666 
z
" transform="scale(0.015625)"/>
      </defs>
      <use xlink:href="#DejaVuSans-41"/>
      <use xlink:href="#DejaVuSans-34" x="68.408203"/>
     </g>
    </g>
    <g id="line2d_38">
     <path d="M 532.591948 45.894928 
L 542.591948 45.894928 
L 552.591948 45.894928 
" style="fill: none; stroke: #8c564b; stroke-linecap: square"/>
    </g>
    <g id="text_21">
     <!-- C5 -->
     <g transform="translate(560.591948 49.394928) scale(0.1 -0.1)">
      <use xlink:href="#DejaVuSans-43"/>
      <use xlink:href="#DejaVuSans-35" x="69.824219"/>
     </g>
    </g>
    <g id="line2d_39">
     <path d="M 593.93726 31.216803 
L 603.93726 31.216803 
L 613.93726 31.216803 
" style="fill: none; stroke: #e377c2; stroke-linecap: square"/>
    </g>
    <g id="text_22">
     <!-- D5 -->
     <g transform="translate(621.93726 34.716803) scale(0.1 -0.1)">
      <use xlink:href="#DejaVuSans-44"/>
      <use xlink:href="#DejaVuSans-35" x="77.001953"/>
     </g>
    </g>
    <g id="line2d_40">
     <path d="M 593.93726 45.894928 
L 603.93726 45.894928 
L 613.93726 45.894928 
" style="fill: none; stroke: #7f7f7f; stroke-linecap: square"/>
    </g>
    <g id="text_23">
     <!-- E5 -->
     <g transform="translate(621.93726 49.394928) scale(0.1 -0.1)">
      <use xlink:href="#DejaVuSans-45"/>
      <use xlink:href="#DejaVuSans-35" x="63.183594"/>
     </g>
    </g>
   </g>
  </g>
 </g>
 <defs>
  <clipPath id="p6bf84d83c6">
   <rect x="39.58149" y="18.118365" width="605.41827" height="308.525145"/>
  </clipPath>
 </defs>
</svg>
