<?xml version="1.0" encoding="utf-8" standalone="no"?>
<!DOCTYPE svg PUBLIC "-//W3C//DTD SVG 1.1//EN"
  "http://www.w3.org/Graphics/SVG/1.1/DTD/svg11.dtd">
<svg xmlns:xlink="http://www.w3.org/1999/xlink" width="648pt" height="360pt" viewBox="0 0 648 360" xmlns="http://www.w3.org/2000/svg" version="1.1">
 <metadata>
  <rdf:RDF xmlns:dc="http://purl.org/dc/elements/1.1/" xmlns:cc="http://creativecommons.org/ns#" xmlns:rdf="http://www.w3.org/1999/02/22-rdf-syntax-ns#">
   <cc:Work>
    <dc:type rdf:resource="http://purl.org/dc/dcmitype/StillImage"/>
    <dc:format>image/svg+xml</dc:format>
    <dc:creator>
     <cc:Agent>
      <dc:title>Matplotlib v3.6.3, https://matplotlib.org/</dc:title>
     </cc:Agent>
    </dc:creator>
   </cc:Work>
  </rdf:RDF>
 </metadata>
 <defs>
  <style type="text/css">*{stroke-linejoin: round; stroke-linecap: butt}</style>
 </defs>
 <g id="figure_1">
  <g id="patch_1">
   <path d="M 0 360 
L 648 360 
L 648 0 
L 0 0 
z
" style="fill: #ffffff"/>
  </g>
  <g id="axes_1">
   <g id="patch_2">
    <path d="M 39.58149 326.64351 
L 644.99976 326.64351 
L 644.99976 18.118365 
L 39.58149 18.118365 
z
" style="fill: #ffffff"/>
   </g>
   <g id="matplotlib.axis_1">
    <g id="xtick_1">
     <g id="line2d_1">
      <path d="M 39.58149 326.64351 
L 39.58149 18.118365 
" clip-path="url(#p4da1d1a6a5)" style="fill: none; stroke: #b0b0b0; stroke-opacity: 0.22; stroke-width: 0.8; stroke-linecap: square"/>
     </g>
     <g id="line2d_2">
      <defs>
       <path id="mbc41f80f08" d="M 0 0 
L 0 3.5 
" style="stroke: #000000; stroke-width: 0.8"/>
      </defs>
      <g>
       <use xlink:href="#mbc41f80f08" x="39.58149" y="326.64351" style="stroke: #000000; stroke-width: 0.8"/>
      </g>
     </g>
     <g id="text_1">
      <!-- 0 -->
      <g transform="translate(36.40024 341.241947) scale(0.1 -0.1)">
       <defs>
        <path id="DejaVuSans-30" d="M 2034 4250 
Q 1547 4250 1301 3770 
Q 1056 3291 1056 2328 
Q 1056 1369 1301 889 
Q 1547 409 2034 409 
Q 2525 409 2770 889 
Q 3016 1369 3016 2328 
Q 3016 3291 2770 3770 
Q 2525 4250 2034 4250 
z
M 2034 4750 
Q 2819 4750 3233 4129 
Q 3647 3509 3647 2328 
Q 3647 1150 3233 529 
Q 2819 -91 2034 -91 
Q 1250 -91 836 529 
Q 422 1150 422 2328 
Q 422 3509 836 4129 
Q 1250 4750 2034 4750 
z
" transform="scale(0.015625)"/>
       </defs>
       <use xlink:href="#DejaVuSans-30"/>
      </g>
     </g>
    </g>
    <g id="xtick_2">
     <g id="line2d_3">
      <path d="M 147.691895 326.64351 
L 147.691895 18.118365 
" clip-path="url(#p4da1d1a6a5)" style="fill: none; stroke: #b0b0b0; stroke-opacity: 0.22; stroke-width: 0.8; stroke-linecap: square"/>
     </g>
     <g id="line2d_4">
      <g>
       <use xlink:href="#mbc41f80f08" x="147.691895" y="326.64351" style="stroke: #000000; stroke-width: 0.8"/>
      </g>
     </g>
     <g id="text_2">
      <!-- 1000 -->
      <g transform="translate(134.966895 341.241947) scale(0.1 -0.1)">
       <defs>
        <path id="DejaVuSans-31" d="M 794 531 
L 1825 531 
L 1825 4091 
L 703 3866 
L 703 4441 
L 1819 4666 
L 2450 4666 
L 2450 531 
L 3481 531 
L 3481 0 
L 794 0 
L 794 531 
z
" transform="scale(0.015625)"/>
       </defs>
       <use xlink:href="#DejaVuSans-31"/>
       <use xlink:href="#DejaVuSans-30" x="63.623047"/>
       <use xlink:href="#DejaVuSans-30" x="127.246094"/>
       <use xlink:href="#DejaVuSans-30" x="190.869141"/>
      </g>
     </g>
    </g>
    <g id="xtick_3">
     <g id="line2d_5">
      <path d="M 255.802301 326.64351 
L 255.802301 18.118365 
" clip-path="url(#p4da1d1a6a5)" style="fill: none; stroke: #b0b0b0; stroke-opacity: 0.22; stroke-width: 0.8; stroke-linecap: square"/>
     </g>
     <g id="line2d_6">
      <g>
       <use xlink:href="#mbc41f80f08" x="255.802301" y="326.64351" style="stroke: #000000; stroke-width: 0.8"/>
      </g>
     </g>
     <g id="text_3">
      <!-- 2000 -->
      <g transform="translate(243.077301 341.241947) scale(0.1 -0.1)">
       <defs>
        <path id="DejaVuSans-32" d="M 1228 531 
L 3431 531 
L 3431 0 
L 469 0 
L 469 531 
Q 828 903 1448 1529 
Q 2069 2156 2228 2338 
Q 2531 2678 2651 2914 
Q 2772 3150 2772 3378 
Q 2772 3750 2511 3984 
Q 2250 4219 1831 4219 
Q 1534 4219 1204 4116 
Q 875 4013 500 3803 
L 500 4441 
Q 881 4594 1212 4672 
Q 1544 4750 1819 4750 
Q 2544 4750 2975 4387 
Q 3406 4025 3406 3419 
Q 3406 3131 3298 2873 
Q 3191 2616 2906 2266 
Q 2828 2175 2409 1742 
Q 1991 1309 1228 531 
z
" transform="scale(0.015625)"/>
       </defs>
       <use xlink:href="#DejaVuSans-32"/>
       <use xlink:href="#DejaVuSans-30" x="63.623047"/>
       <use xlink:href="#DejaVuSans-30" x="127.246094"/>
       <use xlink:href="#DejaVuSans-30" x="190.869141"/>
      </g>
     </g>
    </g>
    <g id="xtick_4">
     <g id="line2d_7">
      <path d="M 363.912706 326.64351 
L 363.912706 18.118365 
" clip-path="url(#p4da1d1a6a5)" style="fill: none; stroke: #b0b0b0; stroke-opacity: 0.22; stroke-width: 0.8; stroke-linecap: square"/>
     </g>
     <g id="line2d_8">
      <g>
       <use xlink:href="#mbc41f80f08" x="363.912706" y="326.64351" style="stroke: #000000; stroke-width: 0.8"/>
      </g>
     </g>
     <g id="text_4">
      <!-- 3000 -->
      <g transform="translate(351.187706 341.241947) scale(0.1 -0.1)">
       <defs>
        <path id="DejaVuSans-33" d="M 2597 2516 
Q 3050 2419 3304 2112 
Q 3559 1806 3559 1356 
Q 3559 666 3084 287 
Q 2609 -91 1734 -91 
Q 1441 -91 1130 -33 
Q 819 25 488 141 
L 488 750 
Q 750 597 1062 519 
Q 1375 441 1716 441 
Q 2309 441 2620 675 
Q 2931 909 2931 1356 
Q 2931 1769 2642 2001 
Q 2353 2234 1838 2234 
L 1294 2234 
L 1294 2753 
L 1863 2753 
Q 2328 2753 2575 2939 
Q 2822 3125 2822 3475 
Q 2822 3834 2567 4026 
Q 2313 4219 1838 4219 
Q 1578 4219 1281 4162 
Q 984 4106 628 3988 
L 628 4550 
Q 988 4650 1302 4700 
Q 1616 4750 1894 4750 
Q 2613 4750 3031 4423 
Q 3450 4097 3450 3541 
Q 3450 3153 3228 2886 
Q 3006 2619 2597 2516 
z
" transform="scale(0.015625)"/>
       </defs>
       <use xlink:href="#DejaVuSans-33"/>
       <use xlink:href="#DejaVuSans-30" x="63.623047"/>
       <use xlink:href="#DejaVuSans-30" x="127.246094"/>
       <use xlink:href="#DejaVuSans-30" x="190.869141"/>
      </g>
     </g>
    </g>
    <g id="xtick_5">
     <g id="line2d_9">
      <path d="M 472.023111 326.64351 
L 472.023111 18.118365 
" clip-path="url(#p4da1d1a6a5)" style="fill: none; stroke: #b0b0b0; stroke-opacity: 0.22; stroke-width: 0.8; stroke-linecap: square"/>
     </g>
     <g id="line2d_10">
      <g>
       <use xlink:href="#mbc41f80f08" x="472.023111" y="326.64351" style="stroke: #000000; stroke-width: 0.8"/>
      </g>
     </g>
     <g id="text_5">
      <!-- 4000 -->
      <g transform="translate(459.298111 341.241947) scale(0.1 -0.1)">
       <defs>
        <path id="DejaVuSans-34" d="M 2419 4116 
L 825 1625 
L 2419 1625 
L 2419 4116 
z
M 2253 4666 
L 3047 4666 
L 3047 1625 
L 3713 1625 
L 3713 1100 
L 3047 1100 
L 3047 0 
L 2419 0 
L 2419 1100 
L 313 1100 
L 313 1709 
L 2253 4666 
z
" transform="scale(0.015625)"/>
       </defs>
       <use xlink:href="#DejaVuSans-34"/>
       <use xlink:href="#DejaVuSans-30" x="63.623047"/>
       <use xlink:href="#DejaVuSans-30" x="127.246094"/>
       <use xlink:href="#DejaVuSans-30" x="190.869141"/>
      </g>
     </g>
    </g>
    <g id="xtick_6">
     <g id="line2d_11">
      <path d="M 580.133517 326.64351 
L 580.133517 18.118365 
" clip-path="url(#p4da1d1a6a5)" style="fill: none; stroke: #b0b0b0; stroke-opacity: 0.22; stroke-width: 0.8; stroke-linecap: square"/>
     </g>
     <g id="line2d_12">
      <g>
       <use xlink:href="#mbc41f80f08" x="580.133517" y="326.64351" style="stroke: #000000; stroke-width: 0.8"/>
      </g>
     </g>
     <g id="text_6">
      <!-- 5000 -->
      <g transform="translate(567.408517 341.241947) scale(0.1 -0.1)">
       <defs>
        <path id="DejaVuSans-35" d="M 691 4666 
L 3169 4666 
L 3169 4134 
L 1269 4134 
L 1269 2991 
Q 1406 3038 1543 3061 
Q 1681 3084 1819 3084 
Q 2600 3084 3056 2656 
Q 3513 2228 3513 1497 
Q 3513 744 3044 326 
Q 2575 -91 1722 -91 
Q 1428 -91 1123 -41 
Q 819 9 494 109 
L 494 744 
Q 775 591 1075 516 
Q 1375 441 1709 441 
Q 2250 441 2565 725 
Q 2881 1009 2881 1497 
Q 2881 1984 2565 2268 
Q 2250 2553 1709 2553 
Q 1456 2553 1204 2497 
Q 953 2441 691 2322 
L 691 4666 
z
" transform="scale(0.015625)"/>
       </defs>
       <use xlink:href="#DejaVuSans-35"/>
       <use xlink:href="#DejaVuSans-30" x="63.623047"/>
       <use xlink:href="#DejaVuSans-30" x="127.246094"/>
       <use xlink:href="#DejaVuSans-30" x="190.869141"/>
      </g>
     </g>
    </g>
    <g id="text_7">
     <!-- frequency [Hz] -->
     <g transform="translate(305.339063 354.920073) scale(0.1 -0.1)">
      <defs>
       <path id="DejaVuSans-66" d="M 2375 4863 
L 2375 4384 
L 1825 4384 
Q 1516 4384 1395 4259 
Q 1275 4134 1275 3809 
L 1275 3500 
L 2222 3500 
L 2222 3053 
L 1275 3053 
L 1275 0 
L 697 0 
L 697 3053 
L 147 3053 
L 147 3500 
L 697 3500 
L 697 3744 
Q 697 4328 969 4595 
Q 1241 4863 1831 4863 
L 2375 4863 
z
" transform="scale(0.015625)"/>
       <path id="DejaVuSans-72" d="M 2631 2963 
Q 2534 3019 2420 3045 
Q 2306 3072 2169 3072 
Q 1681 3072 1420 2755 
Q 1159 2438 1159 1844 
L 1159 0 
L 581 0 
L 581 3500 
L 1159 3500 
L 1159 2956 
Q 1341 3275 1631 3429 
Q 1922 3584 2338 3584 
Q 2397 3584 2469 3576 
Q 2541 3569 2628 3553 
L 2631 2963 
z
" transform="scale(0.015625)"/>
       <path id="DejaVuSans-65" d="M 3597 1894 
L 3597 1613 
L 953 1613 
Q 991 1019 1311 708 
Q 1631 397 2203 397 
Q 2534 397 2845 478 
Q 3156 559 3463 722 
L 3463 178 
Q 3153 47 2828 -22 
Q 2503 -91 2169 -91 
Q 1331 -91 842 396 
Q 353 884 353 1716 
Q 353 2575 817 3079 
Q 1281 3584 2069 3584 
Q 2775 3584 3186 3129 
Q 3597 2675 3597 1894 
z
M 3022 2063 
Q 3016 2534 2758 2815 
Q 2500 3097 2075 3097 
Q 1594 3097 1305 2825 
Q 1016 2553 972 2059 
L 3022 2063 
z
" transform="scale(0.015625)"/>
       <path id="DejaVuSans-71" d="M 947 1747 
Q 947 1113 1208 752 
Q 1469 391 1925 391 
Q 2381 391 2643 752 
Q 2906 1113 2906 1747 
Q 2906 2381 2643 2742 
Q 2381 3103 1925 3103 
Q 1469 3103 1208 2742 
Q 947 2381 947 1747 
z
M 2906 525 
Q 2725 213 2448 61 
Q 2172 -91 1784 -91 
Q 1150 -91 751 415 
Q 353 922 353 1747 
Q 353 2572 751 3078 
Q 1150 3584 1784 3584 
Q 2172 3584 2448 3432 
Q 2725 3281 2906 2969 
L 2906 3500 
L 3481 3500 
L 3481 -1331 
L 2906 -1331 
L 2906 525 
z
" transform="scale(0.015625)"/>
       <path id="DejaVuSans-75" d="M 544 1381 
L 544 3500 
L 1119 3500 
L 1119 1403 
Q 1119 906 1312 657 
Q 1506 409 1894 409 
Q 2359 409 2629 706 
Q 2900 1003 2900 1516 
L 2900 3500 
L 3475 3500 
L 3475 0 
L 2900 0 
L 2900 538 
Q 2691 219 2414 64 
Q 2138 -91 1772 -91 
Q 1169 -91 856 284 
Q 544 659 544 1381 
z
M 1991 3584 
L 1991 3584 
z
" transform="scale(0.015625)"/>
       <path id="DejaVuSans-6e" d="M 3513 2113 
L 3513 0 
L 2938 0 
L 2938 2094 
Q 2938 2591 2744 2837 
Q 2550 3084 2163 3084 
Q 1697 3084 1428 2787 
Q 1159 2491 1159 1978 
L 1159 0 
L 581 0 
L 581 3500 
L 1159 3500 
L 1159 2956 
Q 1366 3272 1645 3428 
Q 1925 3584 2291 3584 
Q 2894 3584 3203 3211 
Q 3513 2838 3513 2113 
z
" transform="scale(0.015625)"/>
       <path id="DejaVuSans-63" d="M 3122 3366 
L 3122 2828 
Q 2878 2963 2633 3030 
Q 2388 3097 2138 3097 
Q 1578 3097 1268 2742 
Q 959 2388 959 1747 
Q 959 1106 1268 751 
Q 1578 397 2138 397 
Q 2388 397 2633 464 
Q 2878 531 3122 666 
L 3122 134 
Q 2881 22 2623 -34 
Q 2366 -91 2075 -91 
Q 1284 -91 818 406 
Q 353 903 353 1747 
Q 353 2603 823 3093 
Q 1294 3584 2113 3584 
Q 2378 3584 2631 3529 
Q 2884 3475 3122 3366 
z
" transform="scale(0.015625)"/>
       <path id="DejaVuSans-79" d="M 2059 -325 
Q 1816 -950 1584 -1140 
Q 1353 -1331 966 -1331 
L 506 -1331 
L 506 -850 
L 844 -850 
Q 1081 -850 1212 -737 
Q 1344 -625 1503 -206 
L 1606 56 
L 191 3500 
L 800 3500 
L 1894 763 
L 2988 3500 
L 3597 3500 
L 2059 -325 
z
" transform="scale(0.015625)"/>
       <path id="DejaVuSans-20" transform="scale(0.015625)"/>
       <path id="DejaVuSans-5b" d="M 550 4863 
L 1875 4863 
L 1875 4416 
L 1125 4416 
L 1125 -397 
L 1875 -397 
L 1875 -844 
L 550 -844 
L 550 4863 
z
" transform="scale(0.015625)"/>
       <path id="DejaVuSans-48" d="M 628 4666 
L 1259 4666 
L 1259 2753 
L 3553 2753 
L 3553 4666 
L 4184 4666 
L 4184 0 
L 3553 0 
L 3553 2222 
L 1259 2222 
L 1259 0 
L 628 0 
L 628 4666 
z
" transform="scale(0.015625)"/>
       <path id="DejaVuSans-7a" d="M 353 3500 
L 3084 3500 
L 3084 2975 
L 922 459 
L 3084 459 
L 3084 0 
L 275 0 
L 275 525 
L 2438 3041 
L 353 3041 
L 353 3500 
z
" transform="scale(0.015625)"/>
       <path id="DejaVuSans-5d" d="M 1947 4863 
L 1947 -844 
L 622 -844 
L 622 -397 
L 1369 -397 
L 1369 4416 
L 622 4416 
L 622 4863 
L 1947 4863 
z
" transform="scale(0.015625)"/>
      </defs>
      <use xlink:href="#DejaVuSans-66"/>
      <use xlink:href="#DejaVuSans-72" x="35.205078"/>
      <use xlink:href="#DejaVuSans-65" x="74.068359"/>
      <use xlink:href="#DejaVuSans-71" x="135.591797"/>
      <use xlink:href="#DejaVuSans-75" x="199.068359"/>
      <use xlink:href="#DejaVuSans-65" x="262.447266"/>
      <use xlink:href="#DejaVuSans-6e" x="323.970703"/>
      <use xlink:href="#DejaVuSans-63" x="387.349609"/>
      <use xlink:href="#DejaVuSans-79" x="442.330078"/>
      <use xlink:href="#DejaVuSans-20" x="501.509766"/>
      <use xlink:href="#DejaVuSans-5b" x="533.296875"/>
      <use xlink:href="#DejaVuSans-48" x="572.310547"/>
      <use xlink:href="#DejaVuSans-7a" x="647.505859"/>
      <use xlink:href="#DejaVuSans-5d" x="699.996094"/>
     </g>
    </g>
   </g>
   <g id="matplotlib.axis_2">
    <g id="ytick_1">
     <g id="line2d_13">
      <path d="M 39.58149 326.64351 
L 644.99976 326.64351 
" clip-path="url(#p4da1d1a6a5)" style="fill: none; stroke: #b0b0b0; stroke-opacity: 0.22; stroke-width: 0.8; stroke-linecap: square"/>
     </g>
     <g id="line2d_14">
      <defs>
       <path id="md4e61828a3" d="M 0 0 
L -3.5 0 
" style="stroke: #000000; stroke-width: 0.8"/>
      </defs>
      <g>
       <use xlink:href="#md4e61828a3" x="39.58149" y="326.64351" style="stroke: #000000; stroke-width: 0.8"/>
      </g>
     </g>
     <g id="text_8">
      <!-- 0.0 -->
      <g transform="translate(16.678365 330.442729) scale(0.1 -0.1)">
       <defs>
        <path id="DejaVuSans-2e" d="M 684 794 
L 1344 794 
L 1344 0 
L 684 0 
L 684 794 
z
" transform="scale(0.015625)"/>
       </defs>
       <use xlink:href="#DejaVuSans-30"/>
       <use xlink:href="#DejaVuSans-2e" x="63.623047"/>
       <use xlink:href="#DejaVuSans-30" x="95.410156"/>
      </g>
     </g>
    </g>
    <g id="ytick_2">
     <g id="line2d_15">
      <path d="M 39.58149 266.735715 
L 644.99976 266.735715 
" clip-path="url(#p4da1d1a6a5)" style="fill: none; stroke: #b0b0b0; stroke-opacity: 0.22; stroke-width: 0.8; stroke-linecap: square"/>
     </g>
     <g id="line2d_16">
      <g>
       <use xlink:href="#md4e61828a3" x="39.58149" y="266.735715" style="stroke: #000000; stroke-width: 0.8"/>
      </g>
     </g>
     <g id="text_9">
      <!-- 0.2 -->
      <g transform="translate(16.678365 270.534934) scale(0.1 -0.1)">
       <use xlink:href="#DejaVuSans-30"/>
       <use xlink:href="#DejaVuSans-2e" x="63.623047"/>
       <use xlink:href="#DejaVuSans-32" x="95.410156"/>
      </g>
     </g>
    </g>
    <g id="ytick_3">
     <g id="line2d_17">
      <path d="M 39.58149 206.82792 
L 644.99976 206.82792 
" clip-path="url(#p4da1d1a6a5)" style="fill: none; stroke: #b0b0b0; stroke-opacity: 0.22; stroke-width: 0.8; stroke-linecap: square"/>
     </g>
     <g id="line2d_18">
      <g>
       <use xlink:href="#md4e61828a3" x="39.58149" y="206.82792" style="stroke: #000000; stroke-width: 0.8"/>
      </g>
     </g>
     <g id="text_10">
      <!-- 0.4 -->
      <g transform="translate(16.678365 210.627138) scale(0.1 -0.1)">
       <use xlink:href="#DejaVuSans-30"/>
       <use xlink:href="#DejaVuSans-2e" x="63.623047"/>
       <use xlink:href="#DejaVuSans-34" x="95.410156"/>
      </g>
     </g>
    </g>
    <g id="ytick_4">
     <g id="line2d_19">
      <path d="M 39.58149 146.920125 
L 644.99976 146.920125 
" clip-path="url(#p4da1d1a6a5)" style="fill: none; stroke: #b0b0b0; stroke-opacity: 0.22; stroke-width: 0.8; stroke-linecap: square"/>
     </g>
     <g id="line2d_20">
      <g>
       <use xlink:href="#md4e61828a3" x="39.58149" y="146.920125" style="stroke: #000000; stroke-width: 0.8"/>
      </g>
     </g>
     <g id="text_11">
      <!-- 0.6 -->
      <g transform="translate(16.678365 150.719343) scale(0.1 -0.1)">
       <defs>
        <path id="DejaVuSans-36" d="M 2113 2584 
Q 1688 2584 1439 2293 
Q 1191 2003 1191 1497 
Q 1191 994 1439 701 
Q 1688 409 2113 409 
Q 2538 409 2786 701 
Q 3034 994 3034 1497 
Q 3034 2003 2786 2293 
Q 2538 2584 2113 2584 
z
M 3366 4563 
L 3366 3988 
Q 3128 4100 2886 4159 
Q 2644 4219 2406 4219 
Q 1781 4219 1451 3797 
Q 1122 3375 1075 2522 
Q 1259 2794 1537 2939 
Q 1816 3084 2150 3084 
Q 2853 3084 3261 2657 
Q 3669 2231 3669 1497 
Q 3669 778 3244 343 
Q 2819 -91 2113 -91 
Q 1303 -91 875 529 
Q 447 1150 447 2328 
Q 447 3434 972 4092 
Q 1497 4750 2381 4750 
Q 2619 4750 2861 4703 
Q 3103 4656 3366 4563 
z
" transform="scale(0.015625)"/>
       </defs>
       <use xlink:href="#DejaVuSans-30"/>
       <use xlink:href="#DejaVuSans-2e" x="63.623047"/>
       <use xlink:href="#DejaVuSans-36" x="95.410156"/>
      </g>
     </g>
    </g>
    <g id="ytick_5">
     <g id="line2d_21">
      <path d="M 39.58149 87.012329 
L 644.99976 87.012329 
" clip-path="url(#p4da1d1a6a5)" style="fill: none; stroke: #b0b0b0; stroke-opacity: 0.22; stroke-width: 0.8; stroke-linecap: square"/>
     </g>
     <g id="line2d_22">
      <g>
       <use xlink:href="#md4e61828a3" x="39.58149" y="87.012329" style="stroke: #000000; stroke-width: 0.8"/>
      </g>
     </g>
     <g id="text_12">
      <!-- 0.8 -->
      <g transform="translate(16.678365 90.811548) scale(0.1 -0.1)">
       <defs>
        <path id="DejaVuSans-38" d="M 2034 2216 
Q 1584 2216 1326 1975 
Q 1069 1734 1069 1313 
Q 1069 891 1326 650 
Q 1584 409 2034 409 
Q 2484 409 2743 651 
Q 3003 894 3003 1313 
Q 3003 1734 2745 1975 
Q 2488 2216 2034 2216 
z
M 1403 2484 
Q 997 2584 770 2862 
Q 544 3141 544 3541 
Q 544 4100 942 4425 
Q 1341 4750 2034 4750 
Q 2731 4750 3128 4425 
Q 3525 4100 3525 3541 
Q 3525 3141 3298 2862 
Q 3072 2584 2669 2484 
Q 3125 2378 3379 2068 
Q 3634 1759 3634 1313 
Q 3634 634 3220 271 
Q 2806 -91 2034 -91 
Q 1263 -91 848 271 
Q 434 634 434 1313 
Q 434 1759 690 2068 
Q 947 2378 1403 2484 
z
M 1172 3481 
Q 1172 3119 1398 2916 
Q 1625 2713 2034 2713 
Q 2441 2713 2670 2916 
Q 2900 3119 2900 3481 
Q 2900 3844 2670 4047 
Q 2441 4250 2034 4250 
Q 1625 4250 1398 4047 
Q 1172 3844 1172 3481 
z
" transform="scale(0.015625)"/>
       </defs>
       <use xlink:href="#DejaVuSans-30"/>
       <use xlink:href="#DejaVuSans-2e" x="63.623047"/>
       <use xlink:href="#DejaVuSans-38" x="95.410156"/>
      </g>
     </g>
    </g>
    <g id="ytick_6">
     <g id="line2d_23">
      <path d="M 39.58149 27.104534 
L 644.99976 27.104534 
" clip-path="url(#p4da1d1a6a5)" style="fill: none; stroke: #b0b0b0; stroke-opacity: 0.22; stroke-width: 0.8; stroke-linecap: square"/>
     </g>
     <g id="line2d_24">
      <g>
       <use xlink:href="#md4e61828a3" x="39.58149" y="27.104534" style="stroke: #000000; stroke-width: 0.8"/>
      </g>
     </g>
     <g id="text_13">
      <!-- 1.0 -->
      <g transform="translate(16.678365 30.903753) scale(0.1 -0.1)">
       <use xlink:href="#DejaVuSans-31"/>
       <use xlink:href="#DejaVuSans-2e" x="63.623047"/>
       <use xlink:href="#DejaVuSans-30" x="95.410156"/>
      </g>
     </g>
    </g>
    <g id="text_14">
     <!-- normalized acceleration spectrum -->
     <g transform="translate(10.598678 257.803594) rotate(-90) scale(0.1 -0.1)">
      <defs>
       <path id="DejaVuSans-6f" d="M 1959 3097 
Q 1497 3097 1228 2736 
Q 959 2375 959 1747 
Q 959 1119 1226 758 
Q 1494 397 1959 397 
Q 2419 397 2687 759 
Q 2956 1122 2956 1747 
Q 2956 2369 2687 2733 
Q 2419 3097 1959 3097 
z
M 1959 3584 
Q 2709 3584 3137 3096 
Q 3566 2609 3566 1747 
Q 3566 888 3137 398 
Q 2709 -91 1959 -91 
Q 1206 -91 779 398 
Q 353 888 353 1747 
Q 353 2609 779 3096 
Q 1206 3584 1959 3584 
z
" transform="scale(0.015625)"/>
       <path id="DejaVuSans-6d" d="M 3328 2828 
Q 3544 3216 3844 3400 
Q 4144 3584 4550 3584 
Q 5097 3584 5394 3201 
Q 5691 2819 5691 2113 
L 5691 0 
L 5113 0 
L 5113 2094 
Q 5113 2597 4934 2840 
Q 4756 3084 4391 3084 
Q 3944 3084 3684 2787 
Q 3425 2491 3425 1978 
L 3425 0 
L 2847 0 
L 2847 2094 
Q 2847 2600 2669 2842 
Q 2491 3084 2119 3084 
Q 1678 3084 1418 2786 
Q 1159 2488 1159 1978 
L 1159 0 
L 581 0 
L 581 3500 
L 1159 3500 
L 1159 2956 
Q 1356 3278 1631 3431 
Q 1906 3584 2284 3584 
Q 2666 3584 2933 3390 
Q 3200 3197 3328 2828 
z
" transform="scale(0.015625)"/>
       <path id="DejaVuSans-61" d="M 2194 1759 
Q 1497 1759 1228 1600 
Q 959 1441 959 1056 
Q 959 750 1161 570 
Q 1363 391 1709 391 
Q 2188 391 2477 730 
Q 2766 1069 2766 1631 
L 2766 1759 
L 2194 1759 
z
M 3341 1997 
L 3341 0 
L 2766 0 
L 2766 531 
Q 2569 213 2275 61 
Q 1981 -91 1556 -91 
Q 1019 -91 701 211 
Q 384 513 384 1019 
Q 384 1609 779 1909 
Q 1175 2209 1959 2209 
L 2766 2209 
L 2766 2266 
Q 2766 2663 2505 2880 
Q 2244 3097 1772 3097 
Q 1472 3097 1187 3025 
Q 903 2953 641 2809 
L 641 3341 
Q 956 3463 1253 3523 
Q 1550 3584 1831 3584 
Q 2591 3584 2966 3190 
Q 3341 2797 3341 1997 
z
" transform="scale(0.015625)"/>
       <path id="DejaVuSans-6c" d="M 603 4863 
L 1178 4863 
L 1178 0 
L 603 0 
L 603 4863 
z
" transform="scale(0.015625)"/>
       <path id="DejaVuSans-69" d="M 603 3500 
L 1178 3500 
L 1178 0 
L 603 0 
L 603 3500 
z
M 603 4863 
L 1178 4863 
L 1178 4134 
L 603 4134 
L 603 4863 
z
" transform="scale(0.015625)"/>
       <path id="DejaVuSans-64" d="M 2906 2969 
L 2906 4863 
L 3481 4863 
L 3481 0 
L 2906 0 
L 2906 525 
Q 2725 213 2448 61 
Q 2172 -91 1784 -91 
Q 1150 -91 751 415 
Q 353 922 353 1747 
Q 353 2572 751 3078 
Q 1150 3584 1784 3584 
Q 2172 3584 2448 3432 
Q 2725 3281 2906 2969 
z
M 947 1747 
Q 947 1113 1208 752 
Q 1469 391 1925 391 
Q 2381 391 2643 752 
Q 2906 1113 2906 1747 
Q 2906 2381 2643 2742 
Q 2381 3103 1925 3103 
Q 1469 3103 1208 2742 
Q 947 2381 947 1747 
z
" transform="scale(0.015625)"/>
       <path id="DejaVuSans-74" d="M 1172 4494 
L 1172 3500 
L 2356 3500 
L 2356 3053 
L 1172 3053 
L 1172 1153 
Q 1172 725 1289 603 
Q 1406 481 1766 481 
L 2356 481 
L 2356 0 
L 1766 0 
Q 1100 0 847 248 
Q 594 497 594 1153 
L 594 3053 
L 172 3053 
L 172 3500 
L 594 3500 
L 594 4494 
L 1172 4494 
z
" transform="scale(0.015625)"/>
       <path id="DejaVuSans-73" d="M 2834 3397 
L 2834 2853 
Q 2591 2978 2328 3040 
Q 2066 3103 1784 3103 
Q 1356 3103 1142 2972 
Q 928 2841 928 2578 
Q 928 2378 1081 2264 
Q 1234 2150 1697 2047 
L 1894 2003 
Q 2506 1872 2764 1633 
Q 3022 1394 3022 966 
Q 3022 478 2636 193 
Q 2250 -91 1575 -91 
Q 1294 -91 989 -36 
Q 684 19 347 128 
L 347 722 
Q 666 556 975 473 
Q 1284 391 1588 391 
Q 1994 391 2212 530 
Q 2431 669 2431 922 
Q 2431 1156 2273 1281 
Q 2116 1406 1581 1522 
L 1381 1569 
Q 847 1681 609 1914 
Q 372 2147 372 2553 
Q 372 3047 722 3315 
Q 1072 3584 1716 3584 
Q 2034 3584 2315 3537 
Q 2597 3491 2834 3397 
z
" transform="scale(0.015625)"/>
       <path id="DejaVuSans-70" d="M 1159 525 
L 1159 -1331 
L 581 -1331 
L 581 3500 
L 1159 3500 
L 1159 2969 
Q 1341 3281 1617 3432 
Q 1894 3584 2278 3584 
Q 2916 3584 3314 3078 
Q 3713 2572 3713 1747 
Q 3713 922 3314 415 
Q 2916 -91 2278 -91 
Q 1894 -91 1617 61 
Q 1341 213 1159 525 
z
M 3116 1747 
Q 3116 2381 2855 2742 
Q 2594 3103 2138 3103 
Q 1681 3103 1420 2742 
Q 1159 2381 1159 1747 
Q 1159 1113 1420 752 
Q 1681 391 2138 391 
Q 2594 391 2855 752 
Q 3116 1113 3116 1747 
z
" transform="scale(0.015625)"/>
      </defs>
      <use xlink:href="#DejaVuSans-6e"/>
      <use xlink:href="#DejaVuSans-6f" x="63.378906"/>
      <use xlink:href="#DejaVuSans-72" x="124.560547"/>
      <use xlink:href="#DejaVuSans-6d" x="163.923828"/>
      <use xlink:href="#DejaVuSans-61" x="261.335938"/>
      <use xlink:href="#DejaVuSans-6c" x="322.615234"/>
      <use xlink:href="#DejaVuSans-69" x="350.398438"/>
      <use xlink:href="#DejaVuSans-7a" x="378.181641"/>
      <use xlink:href="#DejaVuSans-65" x="430.671875"/>
      <use xlink:href="#DejaVuSans-64" x="492.195312"/>
      <use xlink:href="#DejaVuSans-20" x="555.671875"/>
      <use xlink:href="#DejaVuSans-61" x="587.458984"/>
      <use xlink:href="#DejaVuSans-63" x="648.738281"/>
      <use xlink:href="#DejaVuSans-63" x="703.71875"/>
      <use xlink:href="#DejaVuSans-65" x="758.699219"/>
      <use xlink:href="#DejaVuSans-6c" x="820.222656"/>
      <use xlink:href="#DejaVuSans-65" x="848.005859"/>
      <use xlink:href="#DejaVuSans-72" x="909.529297"/>
      <use xlink:href="#DejaVuSans-61" x="950.642578"/>
      <use xlink:href="#DejaVuSans-74" x="1011.921875"/>
      <use xlink:href="#DejaVuSans-69" x="1051.130859"/>
      <use xlink:href="#DejaVuSans-6f" x="1078.914062"/>
      <use xlink:href="#DejaVuSans-6e" x="1140.095703"/>
      <use xlink:href="#DejaVuSans-20" x="1203.474609"/>
      <use xlink:href="#DejaVuSans-73" x="1235.261719"/>
      <use xlink:href="#DejaVuSans-70" x="1287.361328"/>
      <use xlink:href="#DejaVuSans-65" x="1350.837891"/>
      <use xlink:href="#DejaVuSans-63" x="1412.361328"/>
      <use xlink:href="#DejaVuSans-74" x="1467.341797"/>
      <use xlink:href="#DejaVuSans-72" x="1506.550781"/>
      <use xlink:href="#DejaVuSans-75" x="1547.664062"/>
      <use xlink:href="#DejaVuSans-6d" x="1611.042969"/>
     </g>
    </g>
   </g>
   <g id="line2d_25">
    <path d="M 39.58149 326.381537 
L 41.743698 326.257748 
L 43.905906 325.709333 
L 46.068114 324.825137 
L 48.230322 324.567949 
L 50.392531 323.162875 
L 52.554739 319.71746 
L 54.716947 298.449778 
L 56.879155 298.670962 
L 59.041363 320.553631 
L 61.203571 323.210493 
L 63.365779 308.194943 
L 65.527987 268.496927 
L 67.690195 149.73889 
L 69.852404 163.005656 
L 72.014612 284.324313 
L 74.17682 319.059868 
L 76.339028 316.169113 
L 78.501236 322.363712 
L 80.663444 322.886037 
L 82.825652 296.733817 
L 84.98786 250.979542 
L 87.150068 275.469811 
L 89.312276 278.715398 
L 91.474485 137.110443 
L 93.636693 102.281516 
L 95.798901 282.461886 
L 97.961109 316.758293 
L 100.123317 313.723325 
L 102.285525 281.948055 
L 104.447733 290.161317 
L 106.609941 307.656097 
L 108.772149 275.422181 
L 110.934358 274.26711 
L 113.096566 211.029754 
L 115.258774 189.415626 
L 117.420982 266.4608 
L 119.58319 313.870998 
L 121.745398 305.17862 
L 123.907606 319.150503 
L 126.069814 316.043178 
L 128.232022 322.071802 
L 130.394231 281.363154 
L 132.556439 207.819973 
L 134.718647 193.246055 
L 136.880855 270.98853 
L 139.043063 275.859781 
L 141.205271 284.625901 
L 143.367479 252.303722 
L 145.529687 225.240852 
L 147.691895 239.532809 
L 149.854103 256.919343 
L 152.016312 305.475476 
L 154.17852 317.036755 
L 156.340728 311.562679 
L 158.502936 314.965039 
L 160.665144 296.295355 
L 162.827352 273.592768 
L 164.98956 244.795129 
L 167.151768 238.495889 
L 169.313976 258.529936 
L 171.476185 237.658027 
L 173.638393 239.873659 
L 175.800601 284.291414 
L 177.962809 304.253063 
L 180.125017 292.669581 
L 182.287225 270.640038 
L 184.449433 278.344713 
L 186.611641 313.582752 
L 188.773849 316.561607 
L 190.936058 283.766868 
L 193.098266 260.60672 
L 195.260474 261.987031 
L 197.422682 295.576782 
L 199.58489 275.753513 
L 201.747098 258.164819 
L 203.909306 296.291456 
L 206.071514 299.070285 
L 208.233722 310.662817 
L 210.39593 318.333489 
L 212.558139 317.406 
L 214.720347 319.724361 
L 216.882555 321.437518 
L 219.044763 319.412649 
L 221.206971 314.631161 
L 223.369179 316.431705 
L 225.531387 306.544559 
L 227.693595 298.069378 
L 229.855803 309.749193 
L 232.018012 310.475426 
L 234.18022 307.61397 
L 236.342428 306.691581 
L 238.504636 304.074715 
L 240.666844 304.816341 
L 242.829052 294.798661 
L 244.99126 253.297785 
L 247.153468 226.551818 
L 249.315676 248.536298 
L 251.477885 242.644091 
L 253.640093 259.192932 
L 255.802301 290.331616 
L 257.964509 310.207878 
L 260.126717 315.060959 
L 262.288925 308.3776 
L 264.451133 281.202633 
L 266.613341 242.050519 
L 268.775549 253.062072 
L 270.937757 300.761195 
L 273.099966 294.719958 
L 275.262174 254.892998 
L 279.58659 245.999412 
L 281.748798 233.989229 
L 283.911006 218.670489 
L 286.073214 236.936409 
L 288.235422 288.839531 
L 290.39763 311.12791 
L 292.559839 301.654634 
L 294.722047 304.342783 
L 296.884255 303.438184 
L 299.046463 284.369742 
L 301.208671 276.843516 
L 303.370879 287.265526 
L 305.533087 293.110354 
L 307.695295 282.013671 
L 309.857503 280.479978 
L 312.019712 299.828611 
L 314.18192 314.09737 
L 316.344128 312.790388 
L 318.506336 306.596543 
L 320.668544 303.837947 
L 322.830752 306.850584 
L 324.99296 312.981503 
L 327.155168 308.874235 
L 329.317376 294.582897 
L 331.479584 275.470833 
L 333.641793 253.938783 
L 335.804001 257.842355 
L 337.966209 292.522837 
L 340.128417 316.110489 
L 342.290625 300.725839 
L 344.452833 296.982032 
L 346.615041 303.072624 
L 348.777249 290.541484 
L 350.939457 277.010841 
L 353.101666 275.617732 
L 355.263874 290.512177 
L 357.426082 303.242953 
L 359.58829 298.908317 
L 361.750498 287.972716 
L 363.912706 291.701933 
L 366.074914 305.21994 
L 368.237122 301.8873 
L 370.39933 296.050869 
L 372.561539 301.199657 
L 374.723747 313.816865 
L 376.885955 317.645992 
L 379.048163 312.055549 
L 381.210371 309.321037 
L 383.372579 309.081299 
L 385.534787 311.381746 
L 387.696995 314.752381 
L 389.859203 319.431863 
L 392.021411 320.460405 
L 394.18362 312.927498 
L 396.345828 300.911521 
L 398.508036 296.009512 
L 400.670244 298.837694 
L 402.832452 305.984264 
L 404.99466 317.954216 
L 407.156868 323.049377 
L 409.319076 316.231849 
L 411.481284 316.914212 
L 413.643493 320.80838 
L 415.805701 324.298352 
L 417.967909 323.423181 
L 420.130117 318.215691 
L 422.292325 318.314467 
L 424.454533 312.485588 
L 426.616741 297.353706 
L 428.778949 286.617303 
L 430.941157 279.504752 
L 433.103366 284.731769 
L 435.265574 300.735762 
L 437.427782 308.869904 
L 439.58999 312.043233 
L 441.752198 317.10733 
L 443.914406 322.509725 
L 446.076614 323.531235 
L 448.238822 321.556321 
L 450.40103 321.801222 
L 452.563238 321.235625 
L 454.725447 314.2787 
L 459.049863 289.349782 
L 461.212071 283.744223 
L 463.374279 286.922442 
L 465.536487 297.655358 
L 467.698695 307.684143 
L 469.860903 312.539437 
L 474.18532 314.111292 
L 476.347528 314.603283 
L 480.671944 311.652977 
L 482.834152 310.420591 
L 484.99636 306.450273 
L 487.158568 303.409564 
L 489.320776 305.496197 
L 491.482984 309.001606 
L 493.645193 308.737279 
L 495.807401 303.766418 
L 497.969609 296.855507 
L 500.131817 294.203946 
L 502.294025 298.301844 
L 504.456233 302.148671 
L 506.618441 300.826834 
L 508.780649 297.238324 
L 510.942857 296.124531 
L 513.105065 300.039746 
L 515.267274 305.742857 
L 517.429482 309.095597 
L 519.59169 313.211611 
L 521.753898 318.392976 
L 523.916106 320.559984 
L 526.078314 318.974014 
L 528.240522 317.891327 
L 530.40273 318.516509 
L 532.564938 319.48646 
L 536.889355 320.740328 
L 539.051563 322.824587 
L 541.213771 326.520173 
L 543.375979 322.558083 
L 545.538187 321.32437 
L 547.700395 322.310246 
L 549.862603 322.346926 
L 552.024811 323.556871 
L 554.18702 319.710758 
L 556.349228 316.507468 
L 558.511436 317.832454 
L 560.673644 321.026488 
L 562.835852 322.073086 
L 564.99806 320.198758 
L 567.160268 319.618901 
L 569.322476 321.352688 
L 571.484684 324.112212 
L 573.646892 326.368955 
L 575.809101 323.821286 
L 577.971309 322.14245 
L 580.133517 321.278891 
L 582.295725 320.144001 
L 586.620141 316.467639 
L 588.782349 315.508924 
L 590.944557 314.755635 
L 593.106765 313.597567 
L 595.268974 313.73444 
L 597.431182 315.541692 
L 599.59339 317.948734 
L 601.755598 321.699997 
L 603.917806 324.365406 
L 606.080014 320.405732 
L 608.242222 318.252178 
L 610.40443 318.399466 
L 612.566638 319.789607 
L 614.728847 321.588185 
L 616.891055 323.136951 
L 619.053263 324.162856 
L 623.377679 324.823693 
L 627.702095 326.368429 
L 629.864303 325.208134 
L 632.026511 324.281822 
L 636.350928 322.999554 
L 638.513136 322.641904 
L 640.675344 322.995949 
L 644.99976 325.475189 
L 647.161968 324.680134 
L 649 323.278432 
L 649 323.278432 
" clip-path="url(#p4da1d1a6a5)" style="fill: none; stroke: #1f77b4; stroke-linecap: square"/>
   </g>
   <g id="line2d_26">
    <path d="M 39.58149 326.297166 
L 41.743698 324.975662 
L 43.905906 320.694281 
L 46.068114 311.237247 
L 48.230322 304.575506 
L 50.392531 313.394839 
L 52.554739 287.017453 
L 54.716947 285.81583 
L 56.879155 312.168757 
L 59.041363 321.808981 
L 61.203571 316.978198 
L 63.365779 244.469528 
L 65.527987 182.270278 
L 67.690195 285.712254 
L 69.852404 256.11953 
L 72.014612 278.175283 
L 74.17682 214.808118 
L 76.339028 281.53443 
L 78.501236 294.625315 
L 80.663444 294.903983 
L 82.825652 310.987356 
L 84.98786 285.688397 
L 87.150068 300.854463 
L 89.312276 292.829852 
L 91.474485 140.445746 
L 93.636693 119.395034 
L 95.798901 279.698352 
L 97.961109 199.719554 
L 100.123317 160.987397 
L 102.285525 277.571445 
L 104.447733 303.603458 
L 106.609941 313.210295 
L 108.772149 301.315624 
L 110.934358 266.573456 
L 113.096566 224.268382 
L 115.258774 292.666637 
L 117.420982 275.384522 
L 119.58319 311.088103 
L 121.745398 298.5009 
L 123.907606 254.526354 
L 126.069814 266.614113 
L 128.232022 310.032646 
L 130.394231 299.635864 
L 132.556439 298.95756 
L 134.718647 190.976669 
L 136.880855 124.625986 
L 139.043063 195.340356 
L 141.205271 310.845371 
L 143.367479 242.143198 
L 145.529687 200.38047 
L 147.691895 250.561953 
L 149.854103 235.244151 
L 152.016312 240.209333 
L 154.17852 312.592736 
L 156.340728 319.546304 
L 158.502936 236.270263 
L 160.665144 126.796258 
L 162.827352 182.090642 
L 164.98956 256.030115 
L 167.151768 262.813661 
L 169.313976 288.276634 
L 171.476185 294.806045 
L 173.638393 309.054032 
L 175.800601 320.871504 
L 177.962809 321.736751 
L 180.125017 308.601619 
L 182.287225 318.265423 
L 184.449433 298.124977 
L 186.611641 291.935391 
L 188.773849 317.404463 
L 190.936058 266.432315 
L 193.098266 219.431153 
L 195.260474 261.883291 
L 197.422682 310.820108 
L 199.58489 270.061892 
L 201.747098 291.097286 
L 203.909306 250.978699 
L 206.071514 250.65393 
L 208.233722 252.696251 
L 210.39593 234.57376 
L 212.558139 272.042608 
L 214.720347 284.77931 
L 216.882555 289.498876 
L 219.044763 317.034901 
L 221.206971 322.700899 
L 223.369179 317.003047 
L 225.531387 307.04161 
L 227.693595 298.233575 
L 229.855803 294.217291 
L 232.018012 298.208113 
L 234.18022 299.878868 
L 236.342428 312.088549 
L 238.504636 300.923292 
L 240.666844 298.064314 
L 242.829052 293.436256 
L 244.99126 232.146743 
L 247.153468 200.323454 
L 249.315676 220.207472 
L 251.477885 196.294813 
L 253.640093 226.150107 
L 255.802301 280.374285 
L 257.964509 311.514953 
L 260.126717 319.817171 
L 262.288925 323.539637 
L 264.451133 322.486891 
L 268.775549 309.274742 
L 270.937757 304.250529 
L 273.099966 299.873701 
L 275.262174 315.278671 
L 277.424382 299.503531 
L 279.58659 271.503532 
L 281.748798 298.470051 
L 283.911006 259.245349 
L 286.073214 202.895267 
L 288.235422 213.715897 
L 290.39763 226.152424 
L 292.559839 263.986789 
L 294.722047 307.501901 
L 296.884255 313.200501 
L 301.208671 261.684951 
L 303.370879 269.034359 
L 305.533087 309.238346 
L 307.695295 286.950897 
L 309.857503 269.323276 
L 312.019712 289.644316 
L 314.18192 313.454204 
L 316.344128 320.158004 
L 318.506336 319.288198 
L 320.668544 310.164494 
L 322.830752 302.247983 
L 324.99296 309.749997 
L 327.155168 315.566017 
L 329.317376 313.873152 
L 331.479584 312.401548 
L 333.641793 316.456077 
L 335.804001 320.897714 
L 337.966209 318.924577 
L 340.128417 314.791593 
L 342.290625 316.352945 
L 344.452833 322.000306 
L 346.615041 312.146108 
L 348.777249 300.487772 
L 350.939457 295.095285 
L 353.101666 294.598917 
L 355.263874 297.349336 
L 357.426082 294.650805 
L 359.58829 271.457971 
L 361.750498 242.468829 
L 363.912706 250.609305 
L 366.074914 285.224992 
L 368.237122 303.327129 
L 370.39933 310.920762 
L 372.561539 313.7147 
L 374.723747 317.472163 
L 376.885955 297.348314 
L 379.048163 285.978797 
L 381.210371 293.936788 
L 383.372579 305.894343 
L 385.534787 313.305703 
L 387.696995 312.571344 
L 389.859203 313.265345 
L 392.021411 314.745951 
L 394.18362 313.398849 
L 396.345828 311.531123 
L 398.508036 313.05803 
L 400.670244 315.314165 
L 402.832452 315.256206 
L 404.99466 315.400425 
L 407.156868 312.761285 
L 409.319076 308.255514 
L 411.481284 310.1896 
L 413.643493 315.626927 
L 415.805701 319.756103 
L 417.967909 317.438364 
L 420.130117 314.518714 
L 422.292325 312.635398 
L 424.454533 302.900876 
L 426.616741 292.04094 
L 428.778949 293.263571 
L 433.103366 316.955692 
L 435.265574 320.429023 
L 437.427782 320.530232 
L 439.58999 318.183054 
L 441.752198 311.840122 
L 443.914406 310.579409 
L 446.076614 316.959173 
L 448.238822 316.625578 
L 450.40103 313.696904 
L 452.563238 313.844971 
L 454.725447 314.383958 
L 456.887655 313.283166 
L 459.049863 308.715204 
L 461.212071 301.215251 
L 463.374279 295.691213 
L 465.536487 296.819249 
L 467.698695 302.492076 
L 469.860903 311.976169 
L 472.023111 319.349599 
L 474.18532 321.37357 
L 476.347528 322.507902 
L 478.509736 316.553636 
L 480.671944 312.135412 
L 482.834152 313.057737 
L 487.158568 321.905487 
L 489.320776 325.405417 
L 491.482984 324.845212 
L 493.645193 322.315733 
L 495.807401 320.46966 
L 497.969609 319.599726 
L 500.131817 319.878099 
L 502.294025 320.78434 
L 504.456233 320.672813 
L 506.618441 319.125761 
L 508.780649 317.25145 
L 510.942857 316.701906 
L 513.105065 317.121873 
L 515.267274 314.807547 
L 517.429482 308.813812 
L 519.59169 304.232491 
L 521.753898 305.854612 
L 526.078314 317.575874 
L 528.240522 322.042138 
L 530.40273 323.342603 
L 532.564938 320.654503 
L 534.727147 319.669638 
L 536.889355 317.36032 
L 539.051563 311.367174 
L 541.213771 307.322311 
L 543.375979 308.852733 
L 545.538187 314.322693 
L 547.700395 320.481121 
L 549.862603 323.952958 
L 552.024811 320.085524 
L 554.18702 316.604075 
L 556.349228 315.716798 
L 558.511436 316.33502 
L 560.673644 316.267186 
L 562.835852 315.780938 
L 564.99806 316.724405 
L 569.322476 321.387211 
L 571.484684 322.651375 
L 573.646892 322.560079 
L 575.809101 322.042326 
L 577.971309 321.908452 
L 580.133517 322.050402 
L 582.295725 321.765561 
L 584.457933 321.276544 
L 586.620141 321.871822 
L 588.782349 324.242825 
L 590.944557 325.578562 
L 593.106765 322.456056 
L 595.268974 320.77055 
L 597.431182 321.152834 
L 599.59339 322.689999 
L 601.755598 324.39845 
L 603.917806 325.632979 
L 606.080014 324.090013 
L 608.242222 321.830686 
L 614.728847 315.703842 
L 616.891055 314.666148 
L 619.053263 316.098451 
L 621.215471 318.943879 
L 623.377679 321.404549 
L 625.539887 323.111615 
L 627.702095 324.495486 
L 629.864303 325.328523 
L 632.026511 324.969195 
L 634.188719 324.261927 
L 640.675344 321.372865 
L 642.837552 321.286472 
L 644.99976 321.933053 
L 649 323.979242 
L 649 323.979242 
" clip-path="url(#p4da1d1a6a5)" style="fill: none; stroke: #ff7f0e; stroke-linecap: square"/>
   </g>
   <g id="line2d_27">
    <path d="M 39.58149 325.287007 
L 41.743698 324.702803 
L 43.905906 322.018812 
L 46.068114 314.16067 
L 48.230322 305.398146 
L 50.392531 299.704881 
L 52.554739 319.029508 
L 54.716947 276.857245 
L 56.879155 290.664434 
L 59.041363 320.596845 
L 61.203571 320.928957 
L 63.365779 321.657167 
L 65.527987 313.611389 
L 67.690195 295.657311 
L 69.852404 300.885173 
L 72.014612 255.79823 
L 74.17682 226.042735 
L 76.339028 272.357372 
L 78.501236 280.98285 
L 80.663444 281.778751 
L 82.825652 302.713629 
L 84.98786 291.530178 
L 87.150068 304.584461 
L 89.312276 321.198029 
L 91.474485 295.953165 
L 93.636693 272.680473 
L 95.798901 280.148098 
L 97.961109 244.741507 
L 100.123317 215.569828 
L 102.285525 287.878563 
L 104.447733 297.32484 
L 106.609941 200.831198 
L 108.772149 27.104534 
L 110.934358 92.108554 
L 115.258774 142.41026 
L 117.420982 271.595819 
L 119.58319 318.613491 
L 121.745398 299.34817 
L 123.907606 259.957647 
L 126.069814 271.990939 
L 128.232022 310.393503 
L 130.394231 302.920482 
L 132.556439 302.73715 
L 134.718647 197.84575 
L 136.880855 106.588532 
L 139.043063 165.550885 
L 141.205271 298.550823 
L 143.367479 262.781273 
L 145.529687 244.184641 
L 147.691895 234.901122 
L 149.854103 271.150288 
L 152.016312 249.181779 
L 154.17852 238.931136 
L 156.340728 297.978864 
L 158.502936 248.345356 
L 160.665144 158.561928 
L 162.827352 237.329978 
L 164.98956 195.748308 
L 167.151768 175.861912 
L 169.313976 237.680558 
L 171.476185 246.32602 
L 173.638393 267.362202 
L 175.800601 297.123066 
L 177.962809 287.1615 
L 180.125017 294.323037 
L 182.287225 299.291535 
L 184.449433 283.602356 
L 186.611641 285.992018 
L 188.773849 321.16066 
L 190.936058 295.813733 
L 193.098266 253.772366 
L 195.260474 237.605319 
L 197.422682 246.190177 
L 199.58489 231.396274 
L 201.747098 245.286685 
L 203.909306 273.653157 
L 206.071514 263.801526 
L 208.233722 154.853467 
L 210.39593 80.805515 
L 214.720347 301.33157 
L 216.882555 295.701587 
L 219.044763 309.860327 
L 221.206971 297.335911 
L 223.369179 275.713264 
L 225.531387 289.420729 
L 227.693595 306.681414 
L 229.855803 310.761344 
L 232.018012 298.974583 
L 234.18022 288.558329 
L 236.342428 294.189449 
L 238.504636 230.535264 
L 240.666844 199.268706 
L 242.829052 253.718239 
L 244.99126 236.618965 
L 247.153468 237.571652 
L 249.315676 293.764173 
L 251.477885 291.693575 
L 253.640093 282.175628 
L 255.802301 291.677543 
L 257.964509 298.570673 
L 260.126717 304.421481 
L 262.288925 299.43839 
L 264.451133 273.696 
L 266.613341 234.497202 
L 268.775549 247.527996 
L 270.937757 288.040494 
L 273.099966 298.019167 
L 275.262174 278.736597 
L 277.424382 270.699654 
L 279.58659 256.633243 
L 281.748798 265.385426 
L 283.911006 280.683699 
L 286.073214 287.015664 
L 288.235422 305.937235 
L 290.39763 317.819392 
L 292.559839 309.085866 
L 294.722047 301.619202 
L 296.884255 279.23808 
L 299.046463 262.631248 
L 301.208671 273.941069 
L 303.370879 313.744608 
L 305.533087 291.36405 
L 307.695295 259.043847 
L 309.857503 273.629707 
L 312.019712 312.295115 
L 314.18192 305.663076 
L 316.344128 302.940165 
L 318.506336 305.789483 
L 320.668544 274.599191 
L 322.830752 265.09797 
L 327.155168 312.692012 
L 329.317376 320.731709 
L 331.479584 316.728139 
L 333.641793 317.047214 
L 335.804001 320.484271 
L 337.966209 324.266461 
L 340.128417 320.724508 
L 342.290625 321.613934 
L 344.452833 322.844295 
L 346.615041 322.254527 
L 348.777249 317.679243 
L 350.939457 314.218651 
L 353.101666 314.169952 
L 355.263874 313.775988 
L 357.426082 309.896399 
L 359.58829 284.341303 
L 361.750498 252.313193 
L 363.912706 255.514747 
L 366.074914 284.227971 
L 368.237122 304.196867 
L 370.39933 306.814573 
L 372.561539 300.016052 
L 374.723747 287.480222 
L 376.885955 271.352954 
L 379.048163 273.773629 
L 381.210371 297.705026 
L 383.372579 311.055464 
L 385.534787 305.417636 
L 387.696995 301.244263 
L 389.859203 307.435918 
L 392.021411 316.525727 
L 394.18362 316.757606 
L 396.345828 311.028874 
L 398.508036 308.866051 
L 400.670244 314.096198 
L 402.832452 321.056664 
L 404.99466 316.327251 
L 407.156868 308.500531 
L 409.319076 306.874202 
L 411.481284 312.35268 
L 413.643493 316.565637 
L 415.805701 318.3704 
L 417.967909 322.623881 
L 420.130117 324.945577 
L 422.292325 320.902581 
L 424.454533 321.92907 
L 426.616741 317.935083 
L 428.778949 297.126101 
L 430.941157 282.897467 
L 433.103366 286.163785 
L 435.265574 303.526806 
L 437.427782 324.608839 
L 439.58999 311.269102 
L 441.752198 304.482614 
L 443.914406 304.258415 
L 446.076614 312.273473 
L 448.238822 323.61949 
L 450.40103 318.522226 
L 452.563238 314.741142 
L 454.725447 315.488974 
L 456.887655 316.66471 
L 459.049863 319.704142 
L 461.212071 320.752353 
L 463.374279 320.871029 
L 465.536487 320.687955 
L 467.698695 314.038506 
L 469.860903 309.702477 
L 472.023111 312.012442 
L 474.18532 318.026429 
L 476.347528 323.683558 
L 478.509736 325.333846 
L 480.671944 323.327634 
L 482.834152 323.110712 
L 487.158568 323.705567 
L 489.320776 324.098592 
L 493.645193 318.601423 
L 495.807401 319.343437 
L 497.969609 320.52695 
L 500.131817 318.604452 
L 502.294025 317.318329 
L 504.456233 315.786724 
L 506.618441 313.652717 
L 508.780649 313.173074 
L 510.942857 314.025423 
L 513.105065 312.772472 
L 515.267274 310.497098 
L 517.429482 310.547283 
L 519.59169 313.107452 
L 521.753898 315.319898 
L 523.916106 315.907184 
L 526.078314 315.60024 
L 528.240522 314.621681 
L 530.40273 312.285592 
L 532.564938 310.87367 
L 534.727147 311.514937 
L 536.889355 311.53492 
L 539.051563 309.828258 
L 545.538187 303.123485 
L 547.700395 302.778533 
L 549.862603 304.401593 
L 554.18702 309.535998 
L 556.349228 311.858351 
L 558.511436 314.803987 
L 560.673644 317.426488 
L 562.835852 319.255282 
L 564.99806 321.591883 
L 567.160268 323.713361 
L 569.322476 323.473256 
L 573.646892 320.678691 
L 575.809101 319.914667 
L 577.971309 320.002109 
L 582.295725 321.44752 
L 584.457933 321.706043 
L 586.620141 321.751191 
L 588.782349 321.639084 
L 590.944557 321.094289 
L 593.106765 319.799967 
L 595.268974 318.271441 
L 597.431182 317.90497 
L 599.59339 319.533137 
L 601.755598 322.238505 
L 603.917806 323.365388 
L 606.080014 323.046353 
L 608.242222 323.733296 
L 610.40443 323.890328 
L 612.566638 322.899081 
L 614.728847 322.828153 
L 616.891055 323.767356 
L 619.053263 323.751737 
L 621.215471 322.678511 
L 623.377679 322.569883 
L 625.539887 322.930806 
L 627.702095 322.234788 
L 629.864303 321.190183 
L 638.513136 318.145908 
L 640.675344 317.82633 
L 642.837552 317.95542 
L 644.99976 317.850267 
L 647.161968 317.373995 
L 649 317.366841 
L 649 317.366841 
" clip-path="url(#p4da1d1a6a5)" style="fill: none; stroke: #2ca02c; stroke-linecap: square"/>
   </g>
   <g id="line2d_28">
    <path d="M 39.58149 324.129252 
L 41.743698 323.317612 
L 43.905906 319.780935 
L 46.068114 310.625282 
L 48.230322 298.22924 
L 50.392531 293.514951 
L 52.554739 314.665987 
L 54.716947 296.238729 
L 56.879155 314.285215 
L 59.041363 324.050233 
L 61.203571 320.837295 
L 63.365779 304.932188 
L 65.527987 297.325518 
L 67.690195 265.554111 
L 69.852404 258.61144 
L 72.014612 245.626877 
L 74.17682 289.999745 
L 76.339028 303.526781 
L 78.501236 315.154369 
L 80.663444 292.3583 
L 82.825652 292.681991 
L 84.98786 299.942203 
L 87.150068 291.168867 
L 89.312276 266.963918 
L 91.474485 218.15344 
L 93.636693 135.247144 
L 95.798901 176.423415 
L 97.961109 269.496088 
L 100.123317 291.567228 
L 102.285525 293.495368 
L 104.447733 312.060601 
L 106.609941 299.08357 
L 108.772149 238.624402 
L 110.934358 227.242257 
L 113.096566 147.818564 
L 115.258774 212.877075 
L 117.420982 304.618468 
L 119.58319 308.021293 
L 121.745398 303.531173 
L 123.907606 320.48987 
L 126.069814 324.514999 
L 128.232022 289.023569 
L 130.394231 226.27199 
L 132.556439 175.093116 
L 134.718647 178.15931 
L 136.880855 242.569708 
L 139.043063 295.480099 
L 141.205271 313.547083 
L 143.367479 242.986058 
L 145.529687 190.324957 
L 147.691895 224.966793 
L 149.854103 267.171478 
L 152.016312 312.534436 
L 154.17852 316.155261 
L 156.340728 303.299206 
L 158.502936 258.998344 
L 160.665144 189.711293 
L 164.98956 263.639819 
L 167.151768 266.604589 
L 169.313976 290.180611 
L 171.476185 290.519893 
L 173.638393 276.507482 
L 175.800601 300.077882 
L 177.962809 314.104493 
L 180.125017 319.295986 
L 182.287225 306.770389 
L 184.449433 284.763216 
L 186.611641 298.418337 
L 188.773849 317.347256 
L 190.936058 295.667473 
L 193.098266 281.204182 
L 197.422682 300.999683 
L 199.58489 260.616783 
L 201.747098 224.943639 
L 203.909306 255.577335 
L 206.071514 310.557024 
L 208.233722 290.312173 
L 210.39593 259.622765 
L 212.558139 286.794507 
L 214.720347 278.836314 
L 216.882555 281.501372 
L 219.044763 317.06244 
L 221.206971 305.866018 
L 223.369179 299.55824 
L 225.531387 300.381482 
L 227.693595 315.520527 
L 229.855803 321.151822 
L 232.018012 314.439944 
L 234.18022 316.714719 
L 236.342428 282.713187 
L 238.504636 209.900377 
L 240.666844 189.372576 
L 242.829052 238.696461 
L 244.99126 247.113479 
L 247.153468 227.443733 
L 249.315676 243.468813 
L 251.477885 237.682193 
L 253.640093 283.355075 
L 255.802301 294.989233 
L 257.964509 303.71877 
L 260.126717 316.893814 
L 262.288925 313.684889 
L 264.451133 300.143234 
L 266.613341 264.766073 
L 268.775549 241.515593 
L 273.099966 305.759661 
L 275.262174 303.795342 
L 277.424382 306.005491 
L 279.58659 231.623234 
L 281.748798 205.877488 
L 283.911006 268.671406 
L 286.073214 321.154189 
L 288.235422 308.616935 
L 290.39763 301.595235 
L 292.559839 289.779407 
L 294.722047 291.293747 
L 296.884255 297.476845 
L 299.046463 257.478852 
L 301.208671 260.1246 
L 303.370879 292.377857 
L 305.533087 295.978974 
L 307.695295 310.888693 
L 309.857503 297.342826 
L 312.019712 280.795482 
L 314.18192 256.491448 
L 316.344128 212.179747 
L 318.506336 196.436434 
L 320.668544 239.555409 
L 322.830752 287.634009 
L 324.99296 316.936231 
L 327.155168 318.58753 
L 329.317376 316.830738 
L 331.479584 320.995266 
L 333.641793 320.058954 
L 335.804001 314.37042 
L 337.966209 309.228737 
L 340.128417 308.377458 
L 342.290625 296.878422 
L 344.452833 287.379481 
L 346.615041 295.91831 
L 348.777249 305.073127 
L 350.939457 311.974693 
L 353.101666 319.939783 
L 355.263874 316.337659 
L 357.426082 308.592042 
L 359.58829 290.901474 
L 361.750498 270.707548 
L 363.912706 271.345409 
L 366.074914 290.620121 
L 368.237122 308.590123 
L 370.39933 312.145233 
L 372.561539 305.687376 
L 374.723747 310.146394 
L 376.885955 319.191392 
L 379.048163 323.844207 
L 381.210371 320.654746 
L 383.372579 315.850793 
L 385.534787 316.224611 
L 387.696995 320.524994 
L 389.859203 323.837264 
L 392.021411 325.276617 
L 394.18362 324.164212 
L 396.345828 320.561461 
L 400.670244 307.177355 
L 402.832452 307.091877 
L 404.99466 314.665335 
L 407.156868 320.546803 
L 409.319076 314.044937 
L 411.481284 312.388799 
L 413.643493 316.767809 
L 415.805701 316.943333 
L 417.967909 310.879403 
L 420.130117 303.181238 
L 422.292325 302.943648 
L 424.454533 302.470736 
L 426.616741 291.523207 
L 428.778949 288.652702 
L 430.941157 288.527685 
L 433.103366 299.456877 
L 435.265574 315.184247 
L 437.427782 304.115608 
L 439.58999 297.283597 
L 441.752198 301.516106 
L 443.914406 310.579923 
L 446.076614 315.133928 
L 448.238822 314.736046 
L 450.40103 314.867027 
L 452.563238 314.705097 
L 456.887655 306.132718 
L 459.049863 307.438639 
L 461.212071 304.447198 
L 463.374279 298.60645 
L 465.536487 298.53005 
L 467.698695 300.795339 
L 469.860903 306.051054 
L 472.023111 313.838239 
L 474.18532 320.329801 
L 476.347528 321.886126 
L 480.671944 315.87035 
L 482.834152 311.962026 
L 484.99636 305.172927 
L 487.158568 301.823363 
L 489.320776 307.312235 
L 491.482984 316.943297 
L 493.645193 323.480477 
L 495.807401 322.981079 
L 497.969609 318.067083 
L 500.131817 313.810674 
L 502.294025 314.01955 
L 506.618441 318.496321 
L 508.780649 316.230989 
L 510.942857 309.174209 
L 513.105065 306.635305 
L 515.267274 308.869902 
L 517.429482 309.535256 
L 519.59169 311.638609 
L 521.753898 315.836622 
L 523.916106 319.433823 
L 526.078314 319.623724 
L 528.240522 316.960566 
L 530.40273 315.033056 
L 532.564938 315.972754 
L 534.727147 319.072623 
L 536.889355 319.531599 
L 539.051563 315.131451 
L 541.213771 308.412576 
L 543.375979 300.263886 
L 545.538187 293.480635 
L 547.700395 293.149803 
L 549.862603 298.993346 
L 552.024811 307.00357 
L 554.18702 313.95404 
L 556.349228 318.157 
L 558.511436 319.282098 
L 560.673644 318.720155 
L 562.835852 318.46553 
L 564.99806 319.594739 
L 567.160268 321.446867 
L 569.322476 322.858554 
L 571.484684 323.338474 
L 573.646892 323.059974 
L 575.809101 322.619543 
L 577.971309 322.610375 
L 582.295725 323.682514 
L 584.457933 324.376223 
L 586.620141 325.380074 
L 588.782349 325.556629 
L 590.944557 324.010043 
L 593.106765 321.430924 
L 595.268974 318.393156 
L 597.431182 316.625437 
L 599.59339 317.362978 
L 601.755598 319.046826 
L 603.917806 318.958167 
L 606.080014 318.213332 
L 608.242222 318.688538 
L 610.40443 320.100424 
L 612.566638 321.6594 
L 614.728847 322.937283 
L 616.891055 323.451145 
L 619.053263 323.177012 
L 625.539887 321.47287 
L 627.702095 321.23055 
L 629.864303 321.666287 
L 636.350928 324.727912 
L 638.513136 324.910304 
L 640.675344 324.554345 
L 642.837552 324.491238 
L 647.161968 326.11114 
L 649 324.822156 
L 649 324.822156 
" clip-path="url(#p4da1d1a6a5)" style="fill: none; stroke: #d62728; stroke-linecap: square"/>
   </g>
   <g id="line2d_29">
    <path d="M 39.58149 326.058562 
L 41.743698 325.835842 
L 43.905906 324.84522 
L 46.068114 322.056219 
L 48.230322 322.23366 
L 50.392531 313.642853 
L 52.554739 323.869748 
L 54.716947 301.778703 
L 56.879155 310.673166 
L 59.041363 325.267925 
L 61.203571 324.575511 
L 63.365779 300.966895 
L 65.527987 242.104063 
L 67.690195 200.509423 
L 69.852404 244.541308 
L 74.17682 203.783836 
L 76.339028 277.179667 
L 78.501236 324.734008 
L 80.663444 325.26996 
L 82.825652 296.325025 
L 84.98786 226.251791 
L 87.150068 232.072792 
L 89.312276 311.91316 
L 91.474485 277.886816 
L 93.636693 263.057611 
L 95.798901 279.997144 
L 97.961109 297.921819 
L 100.123317 255.812332 
L 102.285525 271.620344 
L 104.447733 311.759409 
L 106.609941 312.70053 
L 108.772149 282.968299 
L 110.934358 297.021731 
L 113.096566 298.788905 
L 115.258774 206.888643 
L 117.420982 221.004584 
L 119.58319 285.248109 
L 121.745398 292.77683 
L 123.907606 271.237856 
L 126.069814 277.372113 
L 128.232022 312.117863 
L 130.394231 295.665494 
L 132.556439 299.867503 
L 134.718647 284.482567 
L 136.880855 203.040606 
L 139.043063 200.575721 
L 141.205271 282.353118 
L 143.367479 312.993012 
L 145.529687 309.028839 
L 147.691895 251.726251 
L 149.854103 159.821321 
L 152.016312 161.587126 
L 154.17852 261.909041 
L 156.340728 296.052274 
L 158.502936 211.535557 
L 160.665144 112.999407 
L 162.827352 186.740284 
L 164.98956 283.259548 
L 167.151768 287.647031 
L 169.313976 265.659546 
L 171.476185 222.095617 
L 173.638393 233.0943 
L 175.800601 281.992026 
L 177.962809 298.071356 
L 180.125017 249.448478 
L 182.287225 217.690758 
L 184.449433 241.726912 
L 186.611641 247.765839 
L 188.773849 292.39015 
L 190.936058 314.953804 
L 193.098266 318.251303 
L 195.260474 313.719941 
L 197.422682 308.1998 
L 199.58489 297.769442 
L 201.747098 279.166504 
L 203.909306 262.423011 
L 206.071514 287.245839 
L 208.233722 308.260655 
L 210.39593 302.340922 
L 212.558139 308.842054 
L 214.720347 302.577313 
L 216.882555 303.289304 
L 219.044763 320.913688 
L 221.206971 317.088529 
L 223.369179 315.082443 
L 225.531387 314.039243 
L 227.693595 312.273995 
L 229.855803 307.511392 
L 232.018012 256.741361 
L 234.18022 185.174032 
L 236.342428 214.013394 
L 238.504636 287.898985 
L 240.666844 290.123646 
L 242.829052 312.835975 
L 244.99126 304.481433 
L 247.153468 285.171191 
L 249.315676 282.849584 
L 251.477885 277.294747 
L 253.640093 308.308077 
L 255.802301 307.69432 
L 257.964509 298.713644 
L 260.126717 312.968032 
L 262.288925 323.138848 
L 264.451133 296.236044 
L 266.613341 262.548849 
L 268.775549 268.557643 
L 270.937757 301.257913 
L 273.099966 319.450502 
L 275.262174 315.638557 
L 277.424382 298.037058 
L 279.58659 273.444594 
L 281.748798 257.94043 
L 283.911006 262.700389 
L 286.073214 277.583949 
L 288.235422 298.740937 
L 290.39763 316.558835 
L 292.559839 290.57076 
L 294.722047 261.814041 
L 296.884255 269.227553 
L 299.046463 290.602276 
L 301.208671 255.026863 
L 303.370879 257.605008 
L 305.533087 274.06194 
L 307.695295 298.195642 
L 309.857503 318.435221 
L 312.019712 316.540184 
L 314.18192 293.231226 
L 316.344128 256.964297 
L 318.506336 251.914413 
L 320.668544 289.999471 
L 322.830752 303.937595 
L 324.99296 306.661254 
L 327.155168 315.286425 
L 329.317376 320.804925 
L 331.479584 312.644992 
L 333.641793 302.031841 
L 335.804001 297.349818 
L 337.966209 309.564076 
L 340.128417 326.048059 
L 342.290625 316.677836 
L 344.452833 316.328433 
L 346.615041 317.201639 
L 348.777249 311.487982 
L 350.939457 306.823575 
L 353.101666 303.546201 
L 355.263874 302.968189 
L 357.426082 300.44902 
L 359.58829 273.06572 
L 361.750498 234.619873 
L 363.912706 234.196955 
L 366.074914 269.798767 
L 368.237122 302.13458 
L 370.39933 322.320441 
L 372.561539 322.089491 
L 374.723747 318.195527 
L 376.885955 305.583531 
L 379.048163 301.771688 
L 381.210371 311.947036 
L 383.372579 320.026689 
L 385.534787 301.552973 
L 387.696995 291.545609 
L 389.859203 300.20396 
L 392.021411 312.722291 
L 394.18362 315.045197 
L 396.345828 309.692456 
L 398.508036 306.678508 
L 400.670244 308.633171 
L 402.832452 310.134312 
L 404.99466 311.493181 
L 407.156868 316.893297 
L 409.319076 320.65736 
L 415.805701 325.402551 
L 417.967909 323.214249 
L 420.130117 317.736965 
L 422.292325 310.646511 
L 424.454533 307.958267 
L 426.616741 313.182425 
L 428.778949 314.607284 
L 430.941157 311.845161 
L 435.265574 314.856813 
L 437.427782 313.772421 
L 439.58999 316.552935 
L 441.752198 321.262444 
L 443.914406 321.020629 
L 448.238822 304.213223 
L 450.40103 303.758857 
L 452.563238 308.348442 
L 454.725447 311.962159 
L 456.887655 312.827581 
L 459.049863 313.134285 
L 461.212071 317.496012 
L 463.374279 320.94959 
L 465.536487 314.900191 
L 467.698695 310.092861 
L 469.860903 311.109576 
L 472.023111 315.153252 
L 474.18532 317.933461 
L 476.347528 321.014937 
L 478.509736 324.769647 
L 480.671944 322.786778 
L 484.99636 316.420684 
L 487.158568 312.441158 
L 489.320776 309.202499 
L 491.482984 303.180985 
L 493.645193 295.782162 
L 495.807401 298.04136 
L 497.969609 308.011956 
L 500.131817 312.910324 
L 502.294025 313.702878 
L 504.456233 313.526108 
L 506.618441 312.269142 
L 508.780649 314.317375 
L 510.942857 321.845268 
L 513.105065 319.040554 
L 515.267274 312.477741 
L 517.429482 310.704964 
L 519.59169 312.369005 
L 521.753898 315.100403 
L 528.240522 325.40311 
L 530.40273 321.521186 
L 532.564938 315.334741 
L 534.727147 313.271293 
L 536.889355 317.564012 
L 539.051563 322.2186 
L 541.213771 317.333229 
L 543.375979 312.769736 
L 547.700395 305.838505 
L 549.862603 304.091181 
L 552.024811 305.979502 
L 554.18702 310.270118 
L 556.349228 313.922511 
L 558.511436 316.567231 
L 560.673644 318.308071 
L 562.835852 319.37699 
L 564.99806 321.141607 
L 567.160268 323.858421 
L 569.322476 325.426635 
L 571.484684 322.896233 
L 573.646892 320.039733 
L 575.809101 317.972134 
L 577.971309 317.797535 
L 580.133517 319.206981 
L 584.457933 322.608153 
L 586.620141 323.62977 
L 588.782349 323.36668 
L 590.944557 322.231322 
L 593.106765 321.301085 
L 595.268974 321.621818 
L 597.431182 322.617852 
L 599.59339 322.247364 
L 601.755598 319.174414 
L 603.917806 314.887022 
L 606.080014 312.04844 
L 608.242222 312.444039 
L 610.40443 315.192917 
L 612.566638 318.638271 
L 614.728847 321.681048 
L 616.891055 322.730815 
L 619.053263 322.256873 
L 621.215471 322.599938 
L 623.377679 323.911191 
L 625.539887 324.865474 
L 627.702095 324.490133 
L 632.026511 322.557464 
L 634.188719 322.232237 
L 636.350928 322.827601 
L 638.513136 323.989992 
L 640.675344 324.817781 
L 642.837552 325.021144 
L 644.99976 324.726467 
L 649 324.002982 
L 649 324.002982 
" clip-path="url(#p4da1d1a6a5)" style="fill: none; stroke: #9467bd; stroke-linecap: square"/>
   </g>
   <g id="line2d_30">
    <path d="M 39.58149 325.398925 
L 41.743698 324.650388 
L 43.905906 321.5048 
L 46.068114 313.028376 
L 48.230322 302.464963 
L 50.392531 299.664596 
L 52.554739 310.661578 
L 54.716947 281.011671 
L 56.879155 294.124057 
L 59.041363 317.847286 
L 61.203571 324.654676 
L 63.365779 288.231438 
L 65.527987 237.865513 
L 67.690195 261.818991 
L 69.852404 301.052005 
L 72.014612 250.560256 
L 74.17682 172.748899 
L 76.339028 251.353299 
L 78.501236 303.37184 
L 80.663444 296.690565 
L 82.825652 303.3595 
L 84.98786 261.272515 
L 87.150068 242.824983 
L 89.312276 277.872409 
L 91.474485 277.223494 
L 93.636693 268.767871 
L 95.798901 298.724997 
L 97.961109 158.67255 
L 100.123317 83.710835 
L 102.285525 255.960781 
L 104.447733 295.147401 
L 106.609941 302.761171 
L 108.772149 253.456865 
L 110.934358 270.339308 
L 113.096566 299.205827 
L 115.258774 236.421208 
L 117.420982 265.546602 
L 119.58319 308.497667 
L 121.745398 308.388289 
L 123.907606 280.706608 
L 126.069814 284.793981 
L 128.232022 315.434175 
L 130.394231 284.058608 
L 132.556439 249.445502 
L 134.718647 234.890059 
L 136.880855 208.440581 
L 139.043063 252.53954 
L 141.205271 320.577903 
L 143.367479 284.737297 
L 145.529687 274.397492 
L 147.691895 293.042803 
L 149.854103 217.001937 
L 152.016312 200.44564 
L 154.17852 265.012411 
L 156.340728 289.33246 
L 158.502936 253.108582 
L 160.665144 246.710249 
L 162.827352 267.002366 
L 164.98956 247.763568 
L 167.151768 234.631882 
L 169.313976 256.375576 
L 171.476185 226.298541 
L 173.638393 222.089949 
L 175.800601 273.737114 
L 177.962809 301.184358 
L 180.125017 296.808542 
L 182.287225 290.033134 
L 184.449433 300.500332 
L 186.611641 300.89076 
L 188.773849 314.532811 
L 190.936058 291.365444 
L 193.098266 198.511815 
L 195.260474 159.320435 
L 197.422682 249.096804 
L 199.58489 257.886256 
L 201.747098 249.984334 
L 203.909306 290.448774 
L 206.071514 284.601615 
L 208.233722 303.144502 
L 210.39593 306.288306 
L 212.558139 317.684547 
L 214.720347 320.942991 
L 216.882555 323.875069 
L 219.044763 315.857065 
L 221.206971 303.619106 
L 223.369179 317.262313 
L 225.531387 313.921508 
L 227.693595 306.184481 
L 229.855803 292.530862 
L 232.018012 270.576818 
L 234.18022 227.317925 
L 236.342428 240.876363 
L 238.504636 303.264162 
L 240.666844 310.271932 
L 242.829052 321.886381 
L 244.99126 300.577067 
L 247.153468 267.364584 
L 249.315676 230.989573 
L 251.477885 187.216303 
L 253.640093 228.619003 
L 255.802301 292.806077 
L 257.964509 297.691389 
L 260.126717 305.789476 
L 262.288925 318.84767 
L 264.451133 322.223558 
L 266.613341 309.602423 
L 268.775549 306.779593 
L 270.937757 308.490809 
L 273.099966 302.874878 
L 275.262174 278.669425 
L 277.424382 261.406364 
L 279.58659 231.889325 
L 281.748798 245.246628 
L 283.911006 299.704037 
L 286.073214 289.377259 
L 288.235422 274.636926 
L 290.39763 242.896018 
L 292.559839 223.000089 
L 294.722047 229.487744 
L 296.884255 248.108501 
L 299.046463 271.368344 
L 301.208671 276.023774 
L 303.370879 276.8422 
L 305.533087 291.184578 
L 307.695295 303.243636 
L 309.857503 310.345196 
L 312.019712 304.577191 
L 314.18192 285.208452 
L 316.344128 256.023566 
L 318.506336 254.988299 
L 320.668544 295.056425 
L 322.830752 303.4302 
L 324.99296 308.929938 
L 327.155168 311.925337 
L 329.317376 318.081381 
L 331.479584 312.813542 
L 333.641793 286.758831 
L 335.804001 279.141857 
L 337.966209 297.697286 
L 340.128417 318.363147 
L 342.290625 310.482164 
L 344.452833 303.851576 
L 346.615041 311.066191 
L 348.777249 316.251137 
L 350.939457 315.712276 
L 353.101666 313.396449 
L 355.263874 310.791968 
L 357.426082 311.550344 
L 359.58829 293.545804 
L 361.750498 260.023556 
L 363.912706 251.108183 
L 366.074914 266.605728 
L 368.237122 285.042598 
L 370.39933 299.827668 
L 372.561539 303.382209 
L 374.723747 303.165907 
L 376.885955 306.824922 
L 379.048163 314.168884 
L 381.210371 313.874541 
L 383.372579 304.569276 
L 385.534787 305.52268 
L 387.696995 312.665293 
L 389.859203 316.854797 
L 392.021411 314.04659 
L 396.345828 298.4544 
L 398.508036 300.00863 
L 400.670244 307.920838 
L 402.832452 307.504051 
L 404.99466 304.665395 
L 407.156868 302.292634 
L 409.319076 298.599689 
L 411.481284 299.94205 
L 413.643493 309.747953 
L 415.805701 317.383591 
L 417.967909 312.212341 
L 420.130117 301.134624 
L 422.292325 295.165089 
L 424.454533 301.45599 
L 426.616741 313.673543 
L 428.778949 318.693383 
L 430.941157 310.705093 
L 433.103366 310.805391 
L 435.265574 315.94756 
L 437.427782 315.031718 
L 439.58999 313.704192 
L 441.752198 315.834278 
L 443.914406 316.597129 
L 446.076614 315.150073 
L 448.238822 309.762978 
L 450.40103 307.070366 
L 452.563238 307.847276 
L 454.725447 309.215535 
L 456.887655 309.735835 
L 459.049863 306.816894 
L 463.374279 294.077733 
L 465.536487 291.904975 
L 467.698695 293.212367 
L 469.860903 301.216153 
L 472.023111 311.962898 
L 474.18532 317.163854 
L 476.347528 319.95505 
L 478.509736 321.287232 
L 480.671944 320.673741 
L 482.834152 318.378821 
L 484.99636 313.681937 
L 487.158568 307.276762 
L 489.320776 301.549724 
L 491.482984 296.974179 
L 493.645193 293.959457 
L 495.807401 295.461949 
L 497.969609 300.989647 
L 502.294025 314.986561 
L 504.456233 318.622641 
L 506.618441 317.26019 
L 508.780649 314.856546 
L 510.942857 314.384683 
L 513.105065 315.743376 
L 515.267274 312.997578 
L 517.429482 305.537912 
L 519.59169 302.996637 
L 521.753898 308.160492 
L 523.916106 315.971118 
L 526.078314 321.294781 
L 528.240522 321.014837 
L 532.564938 316.269396 
L 534.727147 314.5801 
L 536.889355 314.964461 
L 539.051563 317.636936 
L 541.213771 321.726125 
L 543.375979 322.329279 
L 545.538187 317.553117 
L 547.700395 313.968018 
L 549.862603 313.050129 
L 552.024811 314.615319 
L 554.18702 316.617059 
L 556.349228 317.596722 
L 560.673644 319.191439 
L 562.835852 319.460471 
L 564.99806 320.808473 
L 567.160268 323.093153 
L 569.322476 324.263898 
L 571.484684 323.001595 
L 573.646892 320.577842 
L 575.809101 318.405699 
L 577.971309 317.519784 
L 580.133517 318.20394 
L 582.295725 319.337308 
L 586.620141 320.780729 
L 588.782349 322.301601 
L 590.944557 324.093392 
L 593.106765 323.004125 
L 595.268974 320.144154 
L 597.431182 318.1922 
L 599.59339 318.124631 
L 601.755598 319.552236 
L 603.917806 321.533046 
L 606.080014 323.819615 
L 608.242222 325.40684 
L 612.566638 322.323082 
L 614.728847 320.489106 
L 616.891055 318.461576 
L 619.053263 317.589329 
L 621.215471 318.182634 
L 623.377679 319.538226 
L 625.539887 321.041057 
L 627.702095 322.075083 
L 629.864303 322.592455 
L 632.026511 322.781886 
L 634.188719 322.097682 
L 636.350928 321.086466 
L 638.513136 320.76082 
L 640.675344 321.341634 
L 642.837552 322.655857 
L 644.99976 324.128098 
L 647.161968 325.097418 
L 649 325.426966 
L 649 325.426966 
" clip-path="url(#p4da1d1a6a5)" style="fill: none; stroke: #8c564b; stroke-linecap: square"/>
   </g>
   <g id="line2d_31">
    <path d="M 39.58149 325.913039 
L 41.743698 324.534694 
L 43.905906 320.590034 
L 46.068114 311.59064 
L 48.230322 300.245596 
L 50.392531 296.557706 
L 52.554739 306.978013 
L 54.716947 295.820032 
L 56.879155 312.354255 
L 59.041363 323.098571 
L 61.203571 323.168135 
L 63.365779 312.033385 
L 65.527987 305.18233 
L 67.690195 284.637186 
L 69.852404 272.669862 
L 72.014612 245.396449 
L 74.17682 204.714983 
L 76.339028 250.726509 
L 78.501236 275.822899 
L 80.663444 264.262203 
L 82.825652 291.792522 
L 84.98786 283.734022 
L 87.150068 267.482949 
L 89.312276 288.757277 
L 91.474485 253.322597 
L 93.636693 240.439272 
L 95.798901 301.15597 
L 97.961109 256.057297 
L 100.123317 215.611544 
L 102.285525 265.006524 
L 104.447733 309.596336 
L 106.609941 257.690301 
L 108.772149 187.003512 
L 110.934358 230.166182 
L 113.096566 293.776721 
L 115.258774 300.327434 
L 117.420982 315.599376 
L 119.58319 308.53719 
L 121.745398 312.356653 
L 123.907606 280.573561 
L 126.069814 289.951091 
L 128.232022 310.397248 
L 130.394231 269.907392 
L 132.556439 201.758521 
L 134.718647 181.877511 
L 136.880855 227.351934 
L 139.043063 267.108375 
L 141.205271 323.463557 
L 143.367479 275.500318 
L 145.529687 247.994954 
L 147.691895 273.710977 
L 149.854103 312.221715 
L 152.016312 285.622293 
L 154.17852 325.78989 
L 156.340728 275.24773 
L 158.502936 238.888449 
L 160.665144 277.956897 
L 162.827352 274.06809 
L 164.98956 248.229507 
L 167.151768 242.430297 
L 169.313976 262.133883 
L 171.476185 231.166085 
L 173.638393 229.298528 
L 175.800601 284.199668 
L 177.962809 308.912124 
L 180.125017 299.660491 
L 182.287225 276.407861 
L 184.449433 281.182293 
L 186.611641 283.176243 
L 188.773849 317.07483 
L 190.936058 286.063196 
L 193.098266 250.935932 
L 195.260474 271.521248 
L 197.422682 316.753361 
L 199.58489 275.670032 
L 201.747098 259.42215 
L 203.909306 236.753118 
L 206.071514 236.743284 
L 208.233722 260.965354 
L 210.39593 200.995851 
L 212.558139 258.190653 
L 214.720347 303.030497 
L 216.882555 309.30988 
L 219.044763 309.647937 
L 221.206971 296.397888 
L 223.369179 305.556198 
L 225.531387 323.452108 
L 227.693595 312.90335 
L 229.855803 311.361038 
L 232.018012 292.920166 
L 234.18022 269.629358 
L 236.342428 273.863141 
L 238.504636 271.381493 
L 240.666844 256.439018 
L 242.829052 264.251054 
L 244.99126 190.702903 
L 247.153468 173.494516 
L 249.315676 255.178648 
L 251.477885 320.311667 
L 253.640093 284.750728 
L 255.802301 276.719245 
L 260.126717 318.09826 
L 262.288925 312.646768 
L 264.451133 272.836926 
L 266.613341 199.284144 
L 268.775549 153.280061 
L 270.937757 211.664514 
L 273.099966 277.961358 
L 275.262174 305.18721 
L 277.424382 304.687303 
L 279.58659 309.84652 
L 281.748798 305.952116 
L 283.911006 311.303195 
L 286.073214 313.879155 
L 288.235422 303.618728 
L 290.39763 302.792355 
L 292.559839 316.85744 
L 294.722047 268.833663 
L 296.884255 215.398077 
L 299.046463 197.670846 
L 301.208671 241.586816 
L 303.370879 290.917913 
L 305.533087 283.408068 
L 307.695295 279.552692 
L 309.857503 291.607589 
L 312.019712 309.722223 
L 314.18192 313.252412 
L 316.344128 288.730568 
L 318.506336 279.276171 
L 320.668544 296.174866 
L 322.830752 315.111428 
L 324.99296 324.72401 
L 327.155168 315.893333 
L 329.317376 312.084699 
L 331.479584 318.973362 
L 333.641793 320.702933 
L 335.804001 314.215892 
L 337.966209 317.702685 
L 340.128417 322.614198 
L 342.290625 319.481759 
L 344.452833 324.000762 
L 346.615041 310.969426 
L 348.777249 291.970204 
L 350.939457 275.229409 
L 353.101666 269.846144 
L 355.263874 280.55725 
L 357.426082 284.067267 
L 359.58829 269.642202 
L 361.750498 248.628582 
L 363.912706 252.031823 
L 368.237122 299.326152 
L 370.39933 321.907461 
L 372.561539 315.797274 
L 374.723747 313.611717 
L 376.885955 318.979396 
L 379.048163 325.728881 
L 381.210371 320.399181 
L 383.372579 313.50117 
L 385.534787 309.316358 
L 387.696995 310.859781 
L 389.859203 315.091969 
L 392.021411 318.749922 
L 394.18362 318.683269 
L 396.345828 314.145802 
L 398.508036 308.392943 
L 400.670244 305.170078 
L 402.832452 306.2492 
L 404.99466 307.933383 
L 407.156868 306.795328 
L 409.319076 305.863231 
L 411.481284 310.447021 
L 413.643493 318.289821 
L 415.805701 324.575262 
L 417.967909 322.88644 
L 420.130117 313.793531 
L 424.454533 285.190667 
L 426.616741 280.607236 
L 428.778949 291.873298 
L 430.941157 311.146735 
L 433.103366 324.111947 
L 435.265574 316.03635 
L 437.427782 312.638528 
L 439.58999 315.756254 
L 441.752198 310.192066 
L 443.914406 303.522502 
L 446.076614 308.537537 
L 448.238822 315.080568 
L 450.40103 313.610173 
L 452.563238 313.846507 
L 454.725447 313.942544 
L 456.887655 311.16588 
L 459.049863 305.819742 
L 461.212071 301.103698 
L 463.374279 300.250019 
L 465.536487 303.7635 
L 467.698695 308.771467 
L 469.860903 315.411846 
L 472.023111 317.862424 
L 474.18532 317.763317 
L 476.347528 321.149287 
L 478.509736 324.842654 
L 480.671944 322.153852 
L 482.834152 316.739638 
L 487.158568 299.70705 
L 489.320776 296.961272 
L 491.482984 296.265025 
L 493.645193 291.69102 
L 495.807401 289.868816 
L 497.969609 293.516657 
L 500.131817 300.30995 
L 502.294025 307.605373 
L 504.456233 312.173562 
L 506.618441 314.715143 
L 508.780649 316.746662 
L 513.105065 318.442313 
L 515.267274 320.89953 
L 517.429482 324.470998 
L 519.59169 325.415538 
L 521.753898 323.958332 
L 523.916106 325.314332 
L 526.078314 324.555087 
L 528.240522 321.44479 
L 530.40273 319.480252 
L 532.564938 318.056781 
L 534.727147 317.500511 
L 536.889355 319.44651 
L 539.051563 320.896844 
L 541.213771 321.881924 
L 543.375979 325.575399 
L 545.538187 320.09247 
L 547.700395 317.333463 
L 549.862603 318.616076 
L 552.024811 319.011511 
L 554.18702 315.967331 
L 556.349228 316.132894 
L 558.511436 320.165347 
L 560.673644 323.573737 
L 562.835852 321.313682 
L 564.99806 319.475449 
L 567.160268 320.482462 
L 569.322476 322.954947 
L 571.484684 324.548917 
L 575.809101 324.901185 
L 577.971309 325.426056 
L 580.133517 326.174353 
L 582.295725 325.648831 
L 584.457933 324.355077 
L 588.782349 322.402497 
L 593.106765 319.725878 
L 595.268974 319.780356 
L 597.431182 321.688982 
L 599.59339 324.20841 
L 601.755598 326.184881 
L 606.080014 322.828144 
L 608.242222 322.231422 
L 610.40443 322.484496 
L 614.728847 323.812358 
L 616.891055 323.80381 
L 619.053263 323.268675 
L 621.215471 322.536035 
L 623.377679 322.011238 
L 625.539887 322.121423 
L 627.702095 322.966521 
L 629.864303 324.568235 
L 632.026511 325.974523 
L 634.188719 324.123482 
L 638.513136 321.593543 
L 640.675344 319.743615 
L 642.837552 318.733108 
L 644.99976 319.119999 
L 647.161968 319.844034 
L 649 319.939412 
L 649 319.939412 
" clip-path="url(#p4da1d1a6a5)" style="fill: none; stroke: #e377c2; stroke-linecap: square"/>
   </g>
   <g id="line2d_32">
    <path d="M 39.58149 326.020105 
L 41.743698 325.688148 
L 43.905906 324.450341 
L 46.068114 321.916118 
L 48.230322 319.624463 
L 50.392531 319.234455 
L 52.554739 307.613364 
L 54.716947 294.663898 
L 56.879155 313.855216 
L 59.041363 324.396366 
L 61.203571 322.985781 
L 63.365779 310.364142 
L 65.527987 303.550876 
L 67.690195 279.558556 
L 69.852404 305.824681 
L 72.014612 204.612789 
L 74.17682 193.107784 
L 76.339028 285.096899 
L 78.501236 323.6718 
L 80.663444 326.52013 
L 82.825652 299.818085 
L 84.98786 194.074882 
L 87.150068 175.341715 
L 89.312276 278.827178 
L 91.474485 252.111298 
L 93.636693 175.56814 
L 95.798901 187.366681 
L 97.961109 224.520032 
L 100.123317 227.745748 
L 102.285525 279.023391 
L 104.447733 309.372467 
L 106.609941 295.920578 
L 108.772149 236.135041 
L 110.934358 252.526214 
L 113.096566 237.533273 
L 115.258774 277.542828 
L 117.420982 291.161997 
L 119.58319 283.711537 
L 121.745398 286.876875 
L 123.907606 280.409458 
L 126.069814 294.030431 
L 128.232022 308.948482 
L 130.394231 300.93206 
L 132.556439 310.919575 
L 134.718647 226.995937 
L 136.880855 118.246129 
L 139.043063 142.522615 
L 141.205271 277.113111 
L 143.367479 290.159164 
L 145.529687 253.750523 
L 147.691895 259.985191 
L 149.854103 271.53664 
L 152.016312 291.248389 
L 154.17852 278.130745 
L 156.340728 283.557929 
L 158.502936 261.212084 
L 160.665144 251.520076 
L 162.827352 293.596851 
L 164.98956 264.173357 
L 167.151768 258.760519 
L 169.313976 270.419633 
L 171.476185 245.983822 
L 173.638393 257.676258 
L 175.800601 316.435285 
L 177.962809 291.482894 
L 180.125017 246.470383 
L 182.287225 249.204078 
L 184.449433 317.008652 
L 186.611641 292.231306 
L 188.773849 302.62159 
L 190.936058 313.744558 
L 193.098266 290.233832 
L 195.260474 279.521914 
L 197.422682 289.078482 
L 199.58489 280.7521 
L 203.909306 315.415267 
L 206.071514 294.902752 
L 208.233722 303.961396 
L 210.39593 314.117186 
L 212.558139 319.711669 
L 214.720347 316.585122 
L 216.882555 317.564988 
L 219.044763 321.172824 
L 221.206971 304.162305 
L 223.369179 306.474668 
L 225.531387 318.477213 
L 227.693595 314.764017 
L 229.855803 302.89571 
L 232.018012 259.759557 
L 234.18022 192.115296 
L 236.342428 201.076132 
L 238.504636 221.751676 
L 240.666844 211.900999 
L 242.829052 262.769916 
L 244.99126 243.530933 
L 247.153468 245.575143 
L 249.315676 287.528417 
L 251.477885 305.965446 
L 253.640093 299.831857 
L 255.802301 260.374762 
L 257.964509 272.83807 
L 260.126717 313.134073 
L 262.288925 317.965756 
L 264.451133 311.08129 
L 266.613341 294.080799 
L 268.775549 290.035479 
L 270.937757 306.543705 
L 273.099966 313.138309 
L 275.262174 306.23798 
L 277.424382 318.753224 
L 279.58659 272.258464 
L 281.748798 200.330961 
L 283.911006 176.620591 
L 286.073214 209.958619 
L 288.235422 260.899918 
L 290.39763 307.414955 
L 292.559839 311.156311 
L 294.722047 286.641228 
L 296.884255 279.45171 
L 299.046463 299.036583 
L 301.208671 286.153207 
L 303.370879 262.53757 
L 305.533087 266.856962 
L 307.695295 294.317399 
L 309.857503 302.945422 
L 312.019712 304.807767 
L 314.18192 295.669032 
L 316.344128 257.996124 
L 318.506336 204.02551 
L 320.668544 169.531603 
L 322.830752 191.572156 
L 324.99296 256.853819 
L 327.155168 295.722025 
L 329.317376 296.074789 
L 331.479584 295.571018 
L 333.641793 304.472539 
L 335.804001 315.056234 
L 337.966209 320.043482 
L 340.128417 321.095169 
L 342.290625 323.690758 
L 344.452833 322.187424 
L 346.615041 316.067285 
L 348.777249 310.558308 
L 350.939457 308.036698 
L 353.101666 306.880624 
L 355.263874 304.284692 
L 357.426082 295.98883 
L 359.58829 282.647624 
L 361.750498 272.289188 
L 363.912706 286.004089 
L 366.074914 309.418957 
L 368.237122 314.484594 
L 370.39933 318.301481 
L 372.561539 315.425888 
L 374.723747 319.147118 
L 376.885955 321.611648 
L 379.048163 316.731279 
L 381.210371 307.676024 
L 383.372579 299.543381 
L 385.534787 292.377402 
L 387.696995 291.375893 
L 389.859203 299.425868 
L 392.021411 311.432737 
L 394.18362 321.640257 
L 396.345828 316.659878 
L 398.508036 308.684633 
L 400.670244 308.847259 
L 402.832452 311.477413 
L 404.99466 316.944373 
L 407.156868 319.200447 
L 409.319076 316.778499 
L 411.481284 315.507893 
L 413.643493 318.303182 
L 415.805701 317.027689 
L 417.967909 306.068577 
L 420.130117 289.630071 
L 422.292325 281.189441 
L 424.454533 290.093574 
L 426.616741 300.025258 
L 428.778949 303.14082 
L 430.941157 309.233516 
L 433.103366 314.298916 
L 435.265574 314.248996 
L 437.427782 313.828909 
L 439.58999 315.520244 
L 441.752198 315.474259 
L 443.914406 312.617706 
L 446.076614 312.292782 
L 448.238822 318.005421 
L 450.40103 321.894577 
L 452.563238 318.093116 
L 454.725447 312.167685 
L 456.887655 308.571034 
L 459.049863 312.068788 
L 461.212071 314.922984 
L 463.374279 314.753886 
L 465.536487 317.955503 
L 467.698695 320.386819 
L 469.860903 319.641032 
L 472.023111 320.865624 
L 474.18532 323.524961 
L 476.347528 323.661357 
L 478.509736 323.51822 
L 480.671944 321.440649 
L 482.834152 314.002682 
L 484.99636 304.781135 
L 487.158568 299.803892 
L 489.320776 306.612581 
L 491.482984 321.866104 
L 493.645193 316.05577 
L 495.807401 307.086169 
L 497.969609 306.308766 
L 500.131817 311.784937 
L 502.294025 319.415233 
L 504.456233 319.056541 
L 506.618441 310.747105 
L 508.780649 305.377316 
L 510.942857 306.848614 
L 513.105065 310.983594 
L 515.267274 313.266581 
L 519.59169 314.916192 
L 523.916106 315.559025 
L 526.078314 315.940323 
L 528.240522 315.961085 
L 530.40273 315.553037 
L 532.564938 313.958954 
L 534.727147 312.553304 
L 539.051563 316.870013 
L 541.213771 316.736951 
L 543.375979 318.295635 
L 545.538187 321.61213 
L 547.700395 324.437322 
L 549.862603 321.172386 
L 554.18702 306.334123 
L 556.349228 302.364956 
L 558.511436 302.228328 
L 560.673644 301.967287 
L 562.835852 302.096157 
L 564.99806 306.040068 
L 567.160268 312.573825 
L 569.322476 318.360217 
L 571.484684 322.160324 
L 573.646892 322.983634 
L 575.809101 321.947898 
L 577.971309 321.755032 
L 582.295725 323.298739 
L 584.457933 323.448977 
L 586.620141 322.53961 
L 588.782349 321.474513 
L 590.944557 320.61076 
L 593.106765 319.415765 
L 595.268974 317.454405 
L 597.431182 315.014725 
L 599.59339 314.034754 
L 601.755598 315.920888 
L 603.917806 319.386924 
L 606.080014 322.605027 
L 608.242222 324.117055 
L 610.40443 323.592843 
L 612.566638 323.556643 
L 614.728847 324.222201 
L 616.891055 324.078708 
L 619.053263 323.29204 
L 621.215471 323.141626 
L 623.377679 323.561195 
L 625.539887 323.650011 
L 627.702095 323.558192 
L 629.864303 324.017277 
L 634.188719 326.490969 
L 636.350928 324.879615 
L 638.513136 323.553191 
L 640.675344 322.761996 
L 642.837552 322.781319 
L 644.99976 323.668507 
L 647.161968 324.833424 
L 649 324.603354 
L 649 324.603354 
" clip-path="url(#p4da1d1a6a5)" style="fill: none; stroke: #7f7f7f; stroke-linecap: square"/>
   </g>
   <g id="patch_3">
    <path d="M 39.58149 326.64351 
L 39.58149 18.118365 
" style="fill: none; stroke: #000000; stroke-width: 0.8; stroke-linejoin: miter; stroke-linecap: square"/>
   </g>
   <g id="patch_4">
    <path d="M 644.99976 326.64351 
L 644.99976 18.118365 
" style="fill: none; stroke: #000000; stroke-width: 0.8; stroke-linejoin: miter; stroke-linecap: square"/>
   </g>
   <g id="patch_5">
    <path d="M 39.58149 326.64351 
L 644.99976 326.64351 
" style="fill: none; stroke: #000000; stroke-width: 0.8; stroke-linejoin: miter; stroke-linecap: square"/>
   </g>
   <g id="patch_6">
    <path d="M 39.58149 18.118365 
L 644.99976 18.118365 
" style="fill: none; stroke: #000000; stroke-width: 0.8; stroke-linejoin: miter; stroke-linecap: square"/>
   </g>
   <g id="text_15">
    <!-- CalculiX high-frequency response - HPF 100 Hz / LPF 5 kHz / 50 ms -->
    <g transform="translate(141.96375 12.118365) scale(0.12 -0.12)">
     <defs>
      <path id="DejaVuSans-43" d="M 4122 4306 
L 4122 3641 
Q 3803 3938 3442 4084 
Q 3081 4231 2675 4231 
Q 1875 4231 1450 3742 
Q 1025 3253 1025 2328 
Q 1025 1406 1450 917 
Q 1875 428 2675 428 
Q 3081 428 3442 575 
Q 3803 722 4122 1019 
L 4122 359 
Q 3791 134 3420 21 
Q 3050 -91 2638 -91 
Q 1578 -91 968 557 
Q 359 1206 359 2328 
Q 359 3453 968 4101 
Q 1578 4750 2638 4750 
Q 3056 4750 3426 4639 
Q 3797 4528 4122 4306 
z
" transform="scale(0.015625)"/>
      <path id="DejaVuSans-58" d="M 403 4666 
L 1081 4666 
L 2241 2931 
L 3406 4666 
L 4084 4666 
L 2584 2425 
L 4184 0 
L 3506 0 
L 2194 1984 
L 872 0 
L 191 0 
L 1856 2491 
L 403 4666 
z
" transform="scale(0.015625)"/>
      <path id="DejaVuSans-68" d="M 3513 2113 
L 3513 0 
L 2938 0 
L 2938 2094 
Q 2938 2591 2744 2837 
Q 2550 3084 2163 3084 
Q 1697 3084 1428 2787 
Q 1159 2491 1159 1978 
L 1159 0 
L 581 0 
L 581 4863 
L 1159 4863 
L 1159 2956 
Q 1366 3272 1645 3428 
Q 1925 3584 2291 3584 
Q 2894 3584 3203 3211 
Q 3513 2838 3513 2113 
z
" transform="scale(0.015625)"/>
      <path id="DejaVuSans-67" d="M 2906 1791 
Q 2906 2416 2648 2759 
Q 2391 3103 1925 3103 
Q 1463 3103 1205 2759 
Q 947 2416 947 1791 
Q 947 1169 1205 825 
Q 1463 481 1925 481 
Q 2391 481 2648 825 
Q 2906 1169 2906 1791 
z
M 3481 434 
Q 3481 -459 3084 -895 
Q 2688 -1331 1869 -1331 
Q 1566 -1331 1297 -1286 
Q 1028 -1241 775 -1147 
L 775 -588 
Q 1028 -725 1275 -790 
Q 1522 -856 1778 -856 
Q 2344 -856 2625 -561 
Q 2906 -266 2906 331 
L 2906 616 
Q 2728 306 2450 153 
Q 2172 0 1784 0 
Q 1141 0 747 490 
Q 353 981 353 1791 
Q 353 2603 747 3093 
Q 1141 3584 1784 3584 
Q 2172 3584 2450 3431 
Q 2728 3278 2906 2969 
L 2906 3500 
L 3481 3500 
L 3481 434 
z
" transform="scale(0.015625)"/>
      <path id="DejaVuSans-2d" d="M 313 2009 
L 1997 2009 
L 1997 1497 
L 313 1497 
L 313 2009 
z
" transform="scale(0.015625)"/>
      <path id="DejaVuSans-50" d="M 1259 4147 
L 1259 2394 
L 2053 2394 
Q 2494 2394 2734 2622 
Q 2975 2850 2975 3272 
Q 2975 3691 2734 3919 
Q 2494 4147 2053 4147 
L 1259 4147 
z
M 628 4666 
L 2053 4666 
Q 2838 4666 3239 4311 
Q 3641 3956 3641 3272 
Q 3641 2581 3239 2228 
Q 2838 1875 2053 1875 
L 1259 1875 
L 1259 0 
L 628 0 
L 628 4666 
z
" transform="scale(0.015625)"/>
      <path id="DejaVuSans-46" d="M 628 4666 
L 3309 4666 
L 3309 4134 
L 1259 4134 
L 1259 2759 
L 3109 2759 
L 3109 2228 
L 1259 2228 
L 1259 0 
L 628 0 
L 628 4666 
z
" transform="scale(0.015625)"/>
      <path id="DejaVuSans-2f" d="M 1625 4666 
L 2156 4666 
L 531 -594 
L 0 -594 
L 1625 4666 
z
" transform="scale(0.015625)"/>
      <path id="DejaVuSans-4c" d="M 628 4666 
L 1259 4666 
L 1259 531 
L 3531 531 
L 3531 0 
L 628 0 
L 628 4666 
z
" transform="scale(0.015625)"/>
      <path id="DejaVuSans-6b" d="M 581 4863 
L 1159 4863 
L 1159 1991 
L 2875 3500 
L 3609 3500 
L 1753 1863 
L 3688 0 
L 2938 0 
L 1159 1709 
L 1159 0 
L 581 0 
L 581 4863 
z
" transform="scale(0.015625)"/>
     </defs>
     <use xlink:href="#DejaVuSans-43"/>
     <use xlink:href="#DejaVuSans-61" x="69.824219"/>
     <use xlink:href="#DejaVuSans-6c" x="131.103516"/>
     <use xlink:href="#DejaVuSans-63" x="158.886719"/>
     <use xlink:href="#DejaVuSans-75" x="213.867188"/>
     <use xlink:href="#DejaVuSans-6c" x="277.246094"/>
     <use xlink:href="#DejaVuSans-69" x="305.029297"/>
     <use xlink:href="#DejaVuSans-58" x="332.8125"/>
     <use xlink:href="#DejaVuSans-20" x="401.318359"/>
     <use xlink:href="#DejaVuSans-68" x="433.105469"/>
     <use xlink:href="#DejaVuSans-69" x="496.484375"/>
     <use xlink:href="#DejaVuSans-67" x="524.267578"/>
     <use xlink:href="#DejaVuSans-68" x="587.744141"/>
     <use xlink:href="#DejaVuSans-2d" x="651.123047"/>
     <use xlink:href="#DejaVuSans-66" x="687.207031"/>
     <use xlink:href="#DejaVuSans-72" x="722.412109"/>
     <use xlink:href="#DejaVuSans-65" x="761.275391"/>
     <use xlink:href="#DejaVuSans-71" x="822.798828"/>
     <use xlink:href="#DejaVuSans-75" x="886.275391"/>
     <use xlink:href="#DejaVuSans-65" x="949.654297"/>
     <use xlink:href="#DejaVuSans-6e" x="1011.177734"/>
     <use xlink:href="#DejaVuSans-63" x="1074.556641"/>
     <use xlink:href="#DejaVuSans-79" x="1129.537109"/>
     <use xlink:href="#DejaVuSans-20" x="1188.716797"/>
     <use xlink:href="#DejaVuSans-72" x="1220.503906"/>
     <use xlink:href="#DejaVuSans-65" x="1259.367188"/>
     <use xlink:href="#DejaVuSans-73" x="1320.890625"/>
     <use xlink:href="#DejaVuSans-70" x="1372.990234"/>
     <use xlink:href="#DejaVuSans-6f" x="1436.466797"/>
     <use xlink:href="#DejaVuSans-6e" x="1497.648438"/>
     <use xlink:href="#DejaVuSans-73" x="1561.027344"/>
     <use xlink:href="#DejaVuSans-65" x="1613.126953"/>
     <use xlink:href="#DejaVuSans-20" x="1674.650391"/>
     <use xlink:href="#DejaVuSans-2d" x="1706.4375"/>
     <use xlink:href="#DejaVuSans-20" x="1742.521484"/>
     <use xlink:href="#DejaVuSans-48" x="1774.308594"/>
     <use xlink:href="#DejaVuSans-50" x="1849.503906"/>
     <use xlink:href="#DejaVuSans-46" x="1909.806641"/>
     <use xlink:href="#DejaVuSans-20" x="1967.326172"/>
     <use xlink:href="#DejaVuSans-31" x="1999.113281"/>
     <use xlink:href="#DejaVuSans-30" x="2062.736328"/>
     <use xlink:href="#DejaVuSans-30" x="2126.359375"/>
     <use xlink:href="#DejaVuSans-20" x="2189.982422"/>
     <use xlink:href="#DejaVuSans-48" x="2221.769531"/>
     <use xlink:href="#DejaVuSans-7a" x="2296.964844"/>
     <use xlink:href="#DejaVuSans-20" x="2349.455078"/>
     <use xlink:href="#DejaVuSans-2f" x="2381.242188"/>
     <use xlink:href="#DejaVuSans-20" x="2414.933594"/>
     <use xlink:href="#DejaVuSans-4c" x="2446.720703"/>
     <use xlink:href="#DejaVuSans-50" x="2502.433594"/>
     <use xlink:href="#DejaVuSans-46" x="2562.736328"/>
     <use xlink:href="#DejaVuSans-20" x="2620.255859"/>
     <use xlink:href="#DejaVuSans-35" x="2652.042969"/>
     <use xlink:href="#DejaVuSans-20" x="2715.666016"/>
     <use xlink:href="#DejaVuSans-6b" x="2747.453125"/>
     <use xlink:href="#DejaVuSans-48" x="2805.363281"/>
     <use xlink:href="#DejaVuSans-7a" x="2880.558594"/>
     <use xlink:href="#DejaVuSans-20" x="2933.048828"/>
     <use xlink:href="#DejaVuSans-2f" x="2964.835938"/>
     <use xlink:href="#DejaVuSans-20" x="2998.527344"/>
     <use xlink:href="#DejaVuSans-35" x="3030.314453"/>
     <use xlink:href="#DejaVuSans-30" x="3093.9375"/>
     <use xlink:href="#DejaVuSans-20" x="3157.560547"/>
     <use xlink:href="#DejaVuSans-6d" x="3189.347656"/>
     <use xlink:href="#DejaVuSans-73" x="3286.759766"/>
    </g>
   </g>
   <g id="legend_1">
    <g id="patch_7">
     <path d="M 406.41851 55.474615 
L 637.99976 55.474615 
Q 639.99976 55.474615 639.99976 53.474615 
L 639.99976 25.118365 
Q 639.99976 23.118365 637.99976 23.118365 
L 406.41851 23.118365 
Q 404.41851 23.118365 404.41851 25.118365 
L 404.41851 53.474615 
Q 404.41851 55.474615 406.41851 55.474615 
z
" style="fill: #ffffff; opacity: 0.8; stroke: #cccccc; stroke-linejoin: miter"/>
    </g>
    <g id="line2d_33">
     <path d="M 408.41851 31.216803 
L 418.41851 31.216803 
L 428.41851 31.216803 
" style="fill: none; stroke: #1f77b4; stroke-linecap: square"/>
    </g>
    <g id="text_16">
     <!-- C4 -->
     <g transform="translate(436.41851 34.716803) scale(0.1 -0.1)">
      <use xlink:href="#DejaVuSans-43"/>
      <use xlink:href="#DejaVuSans-34" x="69.824219"/>
     </g>
    </g>
    <g id="line2d_34">
     <path d="M 408.41851 45.894928 
L 418.41851 45.894928 
L 428.41851 45.894928 
" style="fill: none; stroke: #ff7f0e; stroke-linecap: square"/>
    </g>
    <g id="text_17">
     <!-- D4 -->
     <g transform="translate(436.41851 49.394928) scale(0.1 -0.1)">
      <defs>
       <path id="DejaVuSans-44" d="M 1259 4147 
L 1259 519 
L 2022 519 
Q 2988 519 3436 956 
Q 3884 1394 3884 2338 
Q 3884 3275 3436 3711 
Q 2988 4147 2022 4147 
L 1259 4147 
z
M 628 4666 
L 1925 4666 
Q 3281 4666 3915 4102 
Q 4550 3538 4550 2338 
Q 4550 1131 3912 565 
Q 3275 0 1925 0 
L 628 0 
L 628 4666 
z
" transform="scale(0.015625)"/>
      </defs>
      <use xlink:href="#DejaVuSans-44"/>
      <use xlink:href="#DejaVuSans-34" x="77.001953"/>
     </g>
    </g>
    <g id="line2d_35">
     <path d="M 470.48101 31.216803 
L 480.48101 31.216803 
L 490.48101 31.216803 
" style="fill: none; stroke: #2ca02c; stroke-linecap: square"/>
    </g>
    <g id="text_18">
     <!-- E4 -->
     <g transform="translate(498.48101 34.716803) scale(0.1 -0.1)">
      <defs>
       <path id="DejaVuSans-45" d="M 628 4666 
L 3578 4666 
L 3578 4134 
L 1259 4134 
L 1259 2753 
L 3481 2753 
L 3481 2222 
L 1259 2222 
L 1259 531 
L 3634 531 
L 3634 0 
L 628 0 
L 628 4666 
z
" transform="scale(0.015625)"/>
      </defs>
      <use xlink:href="#DejaVuSans-45"/>
      <use xlink:href="#DejaVuSans-34" x="63.183594"/>
     </g>
    </g>
    <g id="line2d_36">
     <path d="M 470.48101 45.894928 
L 480.48101 45.894928 
L 490.48101 45.894928 
" style="fill: none; stroke: #d62728; stroke-linecap: square"/>
    </g>
    <g id="text_19">
     <!-- G4 -->
     <g transform="translate(498.48101 49.394928) scale(0.1 -0.1)">
      <defs>
       <path id="DejaVuSans-47" d="M 3809 666 
L 3809 1919 
L 2778 1919 
L 2778 2438 
L 4434 2438 
L 4434 434 
Q 4069 175 3628 42 
Q 3188 -91 2688 -91 
Q 1594 -91 976 548 
Q 359 1188 359 2328 
Q 359 3472 976 4111 
Q 1594 4750 2688 4750 
Q 3144 4750 3555 4637 
Q 3966 4525 4313 4306 
L 4313 3634 
Q 3963 3931 3569 4081 
Q 3175 4231 2741 4231 
Q 1884 4231 1454 3753 
Q 1025 3275 1025 2328 
Q 1025 1384 1454 906 
Q 1884 428 2741 428 
Q 3075 428 3337 486 
Q 3600 544 3809 666 
z
" transform="scale(0.015625)"/>
      </defs>
      <use xlink:href="#DejaVuSans-47"/>
      <use xlink:href="#DejaVuSans-34" x="77.490234"/>
     </g>
    </g>
    <g id="line2d_37">
     <path d="M 532.591948 31.216803 
L 542.591948 31.216803 
L 552.591948 31.216803 
" style="fill: none; stroke: #9467bd; stroke-linecap: square"/>
    </g>
    <g id="text_20">
     <!-- A4 -->
     <g transform="translate(560.591948 34.716803) scale(0.1 -0.1)">
      <defs>
       <path id="DejaVuSans-41" d="M 2188 4044 
L 1331 1722 
L 3047 1722 
L 2188 4044 
z
M 1831 4666 
L 2547 4666 
L 4325 0 
L 3669 0 
L 3244 1197 
L 1141 1197 
L 716 0 
L 50 0 
L 1831 4666 
z
" transform="scale(0.015625)"/>
      </defs>
      <use xlink:href="#DejaVuSans-41"/>
      <use xlink:href="#DejaVuSans-34" x="68.408203"/>
     </g>
    </g>
    <g id="line2d_38">
     <path d="M 532.591948 45.894928 
L 542.591948 45.894928 
L 552.591948 45.894928 
" style="fill: none; stroke: #8c564b; stroke-linecap: square"/>
    </g>
    <g id="text_21">
     <!-- C5 -->
     <g transform="translate(560.591948 49.394928) scale(0.1 -0.1)">
      <use xlink:href="#DejaVuSans-43"/>
      <use xlink:href="#DejaVuSans-35" x="69.824219"/>
     </g>
    </g>
    <g id="line2d_39">
     <path d="M 593.93726 31.216803 
L 603.93726 31.216803 
L 613.93726 31.216803 
" style="fill: none; stroke: #e377c2; stroke-linecap: square"/>
    </g>
    <g id="text_22">
     <!-- D5 -->
     <g transform="translate(621.93726 34.716803) scale(0.1 -0.1)">
      <use xlink:href="#DejaVuSans-44"/>
      <use xlink:href="#DejaVuSans-35" x="77.001953"/>
     </g>
    </g>
    <g id="line2d_40">
     <path d="M 593.93726 45.894928 
L 603.93726 45.894928 
L 613.93726 45.894928 
" style="fill: none; stroke: #7f7f7f; stroke-linecap: square"/>
    </g>
    <g id="text_23">
     <!-- E5 -->
     <g transform="translate(621.93726 49.394928) scale(0.1 -0.1)">
      <use xlink:href="#DejaVuSans-45"/>
      <use xlink:href="#DejaVuSans-35" x="63.183594"/>
     </g>
    </g>
   </g>
  </g>
 </g>
 <defs>
  <clipPath id="p4da1d1a6a5">
   <rect x="39.58149" y="18.118365" width="605.41827" height="308.525145"/>
  </clipPath>
 </defs>
</svg>
