<?xml version="1.0" encoding="utf-8" standalone="no"?>
<!DOCTYPE svg PUBLIC "-//W3C//DTD SVG 1.1//EN"
  "http://www.w3.org/Graphics/SVG/1.1/DTD/svg11.dtd">
<svg xmlns:xlink="http://www.w3.org/1999/xlink" width="460.8pt" height="234pt" viewBox="0 0 460.8 234" xmlns="http://www.w3.org/2000/svg" version="1.1">
 <metadata>
  <rdf:RDF xmlns:dc="http://purl.org/dc/elements/1.1/" xmlns:cc="http://creativecommons.org/ns#" xmlns:rdf="http://www.w3.org/1999/02/22-rdf-syntax-ns#">
   <cc:Work>
    <dc:type rdf:resource="http://purl.org/dc/dcmitype/StillImage"/>
    <dc:format>image/svg+xml</dc:format>
    <dc:creator>
     <cc:Agent>
      <dc:title>Matplotlib v3.10.3, https://matplotlib.org/</dc:title>
     </cc:Agent>
    </dc:creator>
   </cc:Work>
  </rdf:RDF>
 </metadata>
 <defs>
  <style type="text/css">*{stroke-linejoin: round; stroke-linecap: butt}</style>
 </defs>
 <g id="figure_1">
  <g id="patch_1">
   <path d="M 0 234 
L 460.8 234 
L 460.8 0 
L 0 0 
z
" style="fill: #ffffff"/>
  </g>
  <g id="axes_1">
   <g id="patch_2">
    <path d="M 42.765865 195.906855 
L 378.151959 195.906855 
L 378.151959 28.213808 
L 42.765865 28.213808 
z
" style="fill: #ffffff"/>
   </g>
   <g id="QuadContourSet_1">
    <path clip-path="url(#pbc1ff0281a)" style="fill: #053061"/>
    <path clip-path="url(#pbc1ff0281a)" style="fill: #0e4179"/>
    <path clip-path="url(#pbc1ff0281a)" style="fill: #1f63a8"/>
    <path clip-path="url(#pbc1ff0281a)" style="fill: #3480b9"/>
    <path clip-path="url(#pbc1ff0281a)" style="fill: #529dc8"/>
    <path clip-path="url(#pbc1ff0281a)" style="fill: #84bcd9"/>
    <path clip-path="url(#pbc1ff0281a)" style="fill: #aed3e6"/>
    <path d="M 46.958191 28.213808 
L 51.150517 28.213808 
L 55.342844 28.213808 
L 59.53517 28.213808 
L 63.727496 28.213808 
L 67.919822 28.213808 
L 72.112148 28.213808 
L 76.304474 28.213808 
L 80.496801 28.213808 
L 84.689127 28.213808 
L 88.881453 28.213808 
L 93.073779 28.213808 
L 97.266105 28.213808 
L 101.458431 28.213808 
L 105.650758 28.213808 
L 109.843084 28.213808 
L 114.03541 28.213808 
L 118.227736 28.213808 
L 122.420062 28.213808 
L 126.612388 28.213808 
L 129.801607 28.213808 
L 129.515634 32.406134 
L 128.946303 36.59846 
L 128.09904 40.790787 
L 126.982424 44.983113 
L 126.612388 46.106706 
L 125.597895 49.175439 
L 123.965469 53.367765 
L 122.420062 56.851292 
L 122.103753 57.560091 
L 120.012382 61.752418 
L 118.227736 65.038502 
L 117.731251 65.944744 
L 115.255668 70.13707 
L 114.03541 72.087218 
L 112.614804 74.329396 
L 109.843084 78.515016 
L 109.838563 78.521722 
L 106.891569 82.714048 
L 105.650758 84.434014 
L 103.825223 86.906375 
L 101.458431 90.05309 
L 100.648205 91.098701 
L 97.359312 95.291027 
L 97.266105 95.408754 
L 93.918446 99.483353 
L 93.073779 100.512366 
L 90.357211 103.675679 
L 88.881453 105.404779 
L 86.661864 107.868005 
L 84.689127 110.081841 
L 82.808288 112.060332 
L 80.496801 114.530842 
L 78.757199 116.252658 
L 76.304474 118.730707 
L 74.445575 120.444984 
L 72.112148 122.651632 
L 69.770555 124.63731 
L 67.919822 126.254118 
L 64.557058 128.829636 
L 63.727496 129.487281 
L 59.53517 132.307677 
L 58.23051 133.021962 
L 55.342844 134.663455 
L 51.150517 136.478117 
L 48.627322 137.214289 
L 46.958191 137.721592 
L 42.765865 138.361992 
L 42.765865 137.214289 
L 42.765865 133.021962 
L 42.765865 128.829636 
L 42.765865 124.63731 
L 42.765865 120.444984 
L 42.765865 116.252658 
L 42.765865 112.060332 
L 42.765865 107.868005 
L 42.765865 103.675679 
L 42.765865 99.483353 
L 42.765865 95.291027 
L 42.765865 91.098701 
L 42.765865 86.906375 
L 42.765865 82.714048 
L 42.765865 78.521722 
L 42.765865 74.329396 
L 42.765865 70.13707 
L 42.765865 65.944744 
L 42.765865 61.752418 
L 42.765865 57.560091 
L 42.765865 53.367765 
L 42.765865 49.175439 
L 42.765865 44.983113 
L 42.765865 40.790787 
L 42.765865 36.59846 
L 42.765865 32.406134 
L 42.765865 28.213808 
z
" clip-path="url(#pbc1ff0281a)" style="fill: #d4e6f1"/>
    <path d="M 130.804715 28.213808 
L 134.997041 28.213808 
L 139.189367 28.213808 
L 143.381693 28.213808 
L 147.574019 28.213808 
L 151.766345 28.213808 
L 155.958672 28.213808 
L 160.150998 28.213808 
L 164.343324 28.213808 
L 168.53565 28.213808 
L 172.727976 28.213808 
L 176.920302 28.213808 
L 181.112629 28.213808 
L 185.304955 28.213808 
L 189.497281 28.213808 
L 193.689607 28.213808 
L 197.881933 28.213808 
L 202.07426 28.213808 
L 206.266586 28.213808 
L 210.458912 28.213808 
L 214.651238 28.213808 
L 218.843564 28.213808 
L 223.03589 28.213808 
L 227.228217 28.213808 
L 231.420543 28.213808 
L 235.612869 28.213808 
L 239.805195 28.213808 
L 243.997521 28.213808 
L 248.189847 28.213808 
L 252.382174 28.213808 
L 256.5745 28.213808 
L 260.766826 28.213808 
L 264.959152 28.213808 
L 269.151478 28.213808 
L 273.343804 28.213808 
L 277.536131 28.213808 
L 281.728457 28.213808 
L 285.920783 28.213808 
L 290.113109 28.213808 
L 294.305435 28.213808 
L 294.305435 28.213808 
L 294.305435 32.406134 
L 294.305435 36.59846 
L 294.305435 40.790787 
L 294.305435 44.983113 
L 294.305435 44.983113 
L 290.113109 44.983113 
L 285.920783 44.983113 
L 281.728457 44.983113 
L 277.536131 44.983113 
L 273.343804 44.983113 
L 269.151478 44.983113 
L 264.959152 44.983113 
L 260.766826 44.983113 
L 256.5745 44.983113 
L 252.382174 44.983113 
L 248.189847 44.983113 
L 243.997521 44.983113 
L 239.805195 44.983113 
L 235.612869 44.983113 
L 231.420543 44.983113 
L 227.228217 44.983113 
L 223.03589 44.983113 
L 218.843564 44.983113 
L 214.651238 44.983113 
L 210.458912 44.983113 
L 206.266586 46.463994 
L 202.735756 49.175439 
L 202.07426 49.467915 
L 197.881933 52.327145 
L 196.720176 53.367765 
L 193.689607 55.413845 
L 191.131763 57.560091 
L 189.497281 58.694586 
L 185.808444 61.752418 
L 185.304955 62.11689 
L 181.112629 65.625516 
L 180.774036 65.944744 
L 176.920302 69.242833 
L 175.980273 70.13707 
L 172.727976 73.015017 
L 171.37238 74.329396 
L 168.53565 76.936516 
L 166.941705 78.521722 
L 164.343324 81.008341 
L 162.677915 82.714048 
L 160.150998 85.235653 
L 158.571102 86.906375 
L 155.958672 89.626678 
L 154.612694 91.098701 
L 151.766345 94.192251 
L 150.795833 95.291027 
L 147.574019 98.94569 
L 147.115524 99.483353 
L 143.567858 103.675679 
L 143.381693 103.8985 
L 140.145047 107.868005 
L 139.189367 109.067477 
L 136.846396 112.060332 
L 134.997041 114.492731 
L 133.673733 116.252658 
L 130.804715 120.204787 
L 130.631178 120.444984 
L 127.698016 124.63731 
L 126.612388 126.262435 
L 124.892203 128.829636 
L 122.420062 132.722024 
L 122.227814 133.021962 
L 119.668059 137.214289 
L 118.227736 139.733386 
L 117.254784 141.406615 
L 114.975022 145.598941 
L 114.03541 147.462554 
L 112.832052 149.791267 
L 110.840193 153.983593 
L 109.843084 156.28801 
L 108.999244 158.175919 
L 107.306844 162.368246 
L 105.807807 166.560572 
L 105.650758 167.060196 
L 104.440248 170.752898 
L 103.264265 174.945224 
L 102.286718 179.13755 
L 101.506356 183.329876 
L 101.458431 183.672524 
L 100.890649 187.522203 
L 100.47877 191.714529 
L 100.272971 195.906855 
L 97.266105 195.906855 
L 93.073779 195.906855 
L 88.881453 195.906855 
L 84.689127 195.906855 
L 80.496801 195.906855 
L 76.304474 195.906855 
L 72.112148 195.906855 
L 67.919822 195.906855 
L 63.727496 195.906855 
L 59.53517 195.906855 
L 55.342844 195.906855 
L 51.150517 195.906855 
L 46.958191 195.906855 
L 42.765865 195.906855 
L 42.765865 191.714529 
L 42.765865 187.522203 
L 42.765865 183.329876 
L 42.765865 179.13755 
L 42.765865 174.945224 
L 42.765865 170.752898 
L 42.765865 166.560572 
L 42.765865 162.368246 
L 42.765865 158.175919 
L 42.765865 153.983593 
L 42.765865 149.791267 
L 42.765865 145.598941 
L 42.765865 141.406615 
L 42.765865 138.361992 
L 46.958191 137.721592 
L 48.627322 137.214289 
L 51.150517 136.478117 
L 55.342844 134.663455 
L 58.23051 133.021962 
L 59.53517 132.307677 
L 63.727496 129.487281 
L 64.557058 128.829636 
L 67.919822 126.254118 
L 69.770555 124.63731 
L 72.112148 122.651632 
L 74.445575 120.444984 
L 76.304474 118.730707 
L 78.757199 116.252658 
L 80.496801 114.530842 
L 82.808288 112.060332 
L 84.689127 110.081841 
L 86.661864 107.868005 
L 88.881453 105.404779 
L 90.357211 103.675679 
L 93.073779 100.512366 
L 93.918446 99.483353 
L 97.266105 95.408754 
L 97.359312 95.291027 
L 100.648205 91.098701 
L 101.458431 90.05309 
L 103.825223 86.906375 
L 105.650758 84.434014 
L 106.891569 82.714048 
L 109.838563 78.521722 
L 109.843084 78.515016 
L 112.614804 74.329396 
L 114.03541 72.087218 
L 115.255668 70.13707 
L 117.731251 65.944744 
L 118.227736 65.038502 
L 120.012382 61.752418 
L 122.103753 57.560091 
L 122.420062 56.851292 
L 123.965469 53.367765 
L 125.597895 49.175439 
L 126.612388 46.106706 
L 126.982424 44.983113 
L 128.09904 40.790787 
L 128.946303 36.59846 
L 129.515634 32.406134 
L 129.801607 28.213808 
z
" clip-path="url(#pbc1ff0281a)" style="fill: #ecf2f5"/>
    <path d="M 298.497761 28.213808 
L 302.690088 28.213808 
L 306.882414 28.213808 
L 311.07474 28.213808 
L 315.267066 28.213808 
L 319.459392 28.213808 
L 323.651719 28.213808 
L 327.844045 28.213808 
L 332.036371 28.213808 
L 336.228697 28.213808 
L 340.421023 28.213808 
L 344.613349 28.213808 
L 348.805676 28.213808 
L 352.998002 28.213808 
L 354.770607 28.213808 
L 353.354392 32.406134 
L 352.998002 32.934868 
L 350.821661 36.59846 
L 348.805676 38.870994 
L 347.267712 40.790787 
L 344.613349 43.289815 
L 342.957774 44.983113 
L 340.421023 47.07111 
L 338.029701 49.175439 
L 336.228697 50.503239 
L 332.540219 53.367765 
L 332.036371 53.704595 
L 327.844045 56.611685 
L 326.508798 57.560091 
L 323.651719 59.337033 
L 319.787671 61.752418 
L 319.459392 61.935293 
L 315.267066 64.242921 
L 312.067989 65.944744 
L 311.07474 66.424549 
L 306.882414 68.349172 
L 302.697262 70.13707 
L 302.690088 70.139928 
L 298.497761 71.672867 
L 294.305435 73.073056 
L 290.19512 74.329396 
L 290.113109 74.353479 
L 285.920783 75.464699 
L 281.728457 76.498088 
L 277.536131 77.473523 
L 273.343804 78.408671 
L 272.807364 78.521722 
L 269.151478 79.270057 
L 264.959152 80.109745 
L 260.766826 80.946367 
L 256.5745 81.790898 
L 252.382174 82.653822 
L 252.089385 82.714048 
L 248.189847 83.500607 
L 243.997521 84.38093 
L 239.805195 85.31005 
L 235.612869 86.301693 
L 233.202571 86.906375 
L 231.420543 87.350674 
L 227.228217 88.463905 
L 223.03589 89.689349 
L 218.843564 91.051073 
L 218.706758 91.098701 
L 214.651238 92.517398 
L 210.458912 94.163772 
L 207.869385 95.291027 
L 206.266586 95.997388 
L 202.07426 98.024583 
L 199.354924 99.483353 
L 197.881933 100.288357 
L 193.689607 102.789646 
L 192.323225 103.675679 
L 189.497281 105.553292 
L 186.294253 107.868005 
L 185.304955 108.605128 
L 181.112629 111.957234 
L 180.990889 112.060332 
L 176.920302 115.633893 
L 176.254547 116.252658 
L 172.727976 119.670974 
L 171.966863 120.444984 
L 168.53565 124.106069 
L 168.057216 124.63731 
L 164.47585 128.829636 
L 164.343324 128.993767 
L 161.183578 133.021962 
L 160.150998 134.430197 
L 158.154911 137.214289 
L 155.958672 140.513879 
L 155.374103 141.406615 
L 152.818998 145.598941 
L 151.766345 147.479305 
L 150.4824 149.791267 
L 148.358882 153.983593 
L 147.574019 155.693557 
L 146.434993 158.175919 
L 144.711527 162.368246 
L 143.381693 166.03994 
L 143.19183 166.560572 
L 141.850071 170.752898 
L 140.708819 174.945224 
L 139.764061 179.13755 
L 139.189367 182.337758 
L 139.008066 183.329876 
L 138.43289 187.522203 
L 138.050534 191.714529 
L 137.859684 195.906855 
L 134.997041 195.906855 
L 130.804715 195.906855 
L 126.612388 195.906855 
L 122.420062 195.906855 
L 118.227736 195.906855 
L 114.03541 195.906855 
L 109.843084 195.906855 
L 105.650758 195.906855 
L 101.458431 195.906855 
L 100.272971 195.906855 
L 100.47877 191.714529 
L 100.890649 187.522203 
L 101.458431 183.672524 
L 101.506356 183.329876 
L 102.286718 179.13755 
L 103.264265 174.945224 
L 104.440248 170.752898 
L 105.650758 167.060196 
L 105.807807 166.560572 
L 107.306844 162.368246 
L 108.999244 158.175919 
L 109.843084 156.28801 
L 110.840193 153.983593 
L 112.832052 149.791267 
L 114.03541 147.462554 
L 114.975022 145.598941 
L 117.254784 141.406615 
L 118.227736 139.733386 
L 119.668059 137.214289 
L 122.227814 133.021962 
L 122.420062 132.722024 
L 124.892203 128.829636 
L 126.612388 126.262435 
L 127.698016 124.63731 
L 130.631178 120.444984 
L 130.804715 120.204787 
L 133.673733 116.252658 
L 134.997041 114.492731 
L 136.846396 112.060332 
L 139.189367 109.067477 
L 140.145047 107.868005 
L 143.381693 103.8985 
L 143.567858 103.675679 
L 147.115524 99.483353 
L 147.574019 98.94569 
L 150.795833 95.291027 
L 151.766345 94.192251 
L 154.612694 91.098701 
L 155.958672 89.626678 
L 158.571102 86.906375 
L 160.150998 85.235653 
L 162.677915 82.714048 
L 164.343324 81.008341 
L 166.941705 78.521722 
L 168.53565 76.936516 
L 171.37238 74.329396 
L 172.727976 73.015017 
L 175.980273 70.13707 
L 176.920302 69.242833 
L 180.774036 65.944744 
L 181.112629 65.625516 
L 185.304955 62.11689 
L 185.808444 61.752418 
L 189.497281 58.694586 
L 191.131763 57.560091 
L 193.689607 55.413845 
L 196.720176 53.367765 
L 197.881933 52.327145 
L 202.07426 49.467915 
L 202.735756 49.175439 
L 206.266586 46.463994 
L 210.458912 44.983113 
L 214.651238 44.983113 
L 218.843564 44.983113 
L 223.03589 44.983113 
L 227.228217 44.983113 
L 231.420543 44.983113 
L 235.612869 44.983113 
L 239.805195 44.983113 
L 243.997521 44.983113 
L 248.189847 44.983113 
L 252.382174 44.983113 
L 256.5745 44.983113 
L 260.766826 44.983113 
L 264.959152 44.983113 
L 269.151478 44.983113 
L 273.343804 44.983113 
L 277.536131 44.983113 
L 281.728457 44.983113 
L 285.920783 44.983113 
L 290.113109 44.983113 
L 294.305435 44.983113 
L 294.305435 44.983113 
L 294.305435 40.790787 
L 294.305435 36.59846 
L 294.305435 32.406134 
L 294.305435 28.213808 
z
" clip-path="url(#pbc1ff0281a)" style="fill: #f9eee7"/>
    <path d="M 357.190328 28.213808 
L 361.382654 28.213808 
L 365.57498 28.213808 
L 369.767306 28.213808 
L 373.959633 28.213808 
L 378.151959 28.213808 
L 378.151959 32.406134 
L 378.151959 36.59846 
L 378.151959 40.790787 
L 378.151959 44.983113 
L 378.151959 49.175439 
L 378.151959 53.367765 
L 378.151959 57.560091 
L 378.151959 61.752418 
L 378.151959 63.664448 
L 373.959633 63.921962 
L 369.767306 64.433317 
L 365.57498 65.191264 
L 362.399033 65.944744 
L 361.382654 66.165678 
L 357.190328 67.282932 
L 352.998002 68.588496 
L 348.805676 70.064446 
L 348.619413 70.13707 
L 344.613349 71.582181 
L 340.421023 73.213494 
L 337.719424 74.329396 
L 336.228697 74.90515 
L 332.036371 76.599756 
L 327.844045 78.340592 
L 327.4161 78.521722 
L 323.651719 80.029424 
L 319.459392 81.713344 
L 316.950328 82.714048 
L 315.267066 83.358239 
L 311.07474 84.939787 
L 306.882414 86.484706 
L 305.702446 86.906375 
L 302.690088 87.958257 
L 298.497761 89.378078 
L 294.305435 90.757337 
L 293.229943 91.098701 
L 290.113109 92.081274 
L 285.920783 93.36972 
L 281.728457 94.638133 
L 279.531024 95.291027 
L 277.536131 95.886584 
L 273.343804 97.122531 
L 269.151478 98.366393 
L 265.431594 99.483353 
L 264.959152 99.627175 
L 260.766826 100.902064 
L 256.5745 102.215176 
L 252.382174 103.57846 
L 252.087848 103.675679 
L 248.189847 104.992822 
L 243.997521 106.480004 
L 240.289424 107.868005 
L 239.805195 108.054816 
L 235.612869 109.727296 
L 231.420543 111.518589 
L 230.211492 112.060332 
L 227.228217 113.44872 
L 223.03589 115.534884 
L 221.670739 116.252658 
L 218.843564 117.806947 
L 214.651238 120.281083 
L 214.386566 120.444984 
L 210.458912 123.004444 
L 208.11236 124.63731 
L 206.266586 125.997213 
L 202.639741 128.829636 
L 202.07426 129.300178 
L 197.881933 132.970145 
L 197.825316 133.021962 
L 193.689607 137.081739 
L 193.560264 137.214289 
L 189.76282 141.406615 
L 189.497281 141.725257 
L 186.372675 145.598941 
L 185.304955 147.051456 
L 183.344645 149.791267 
L 181.112629 153.246166 
L 180.646451 153.983593 
L 178.248022 158.175919 
L 176.920302 160.793884 
L 176.132683 162.368246 
L 174.280951 166.560572 
L 172.727976 170.645126 
L 172.68726 170.752898 
L 171.328804 174.945224 
L 170.209773 179.13755 
L 169.322969 183.329876 
L 168.662731 187.522203 
L 168.53565 188.735379 
L 168.221332 191.714529 
L 168.000573 195.906855 
L 164.343324 195.906855 
L 160.150998 195.906855 
L 155.958672 195.906855 
L 151.766345 195.906855 
L 147.574019 195.906855 
L 143.381693 195.906855 
L 139.189367 195.906855 
L 137.859684 195.906855 
L 138.050534 191.714529 
L 138.43289 187.522203 
L 139.008066 183.329876 
L 139.189367 182.337758 
L 139.764061 179.13755 
L 140.708819 174.945224 
L 141.850071 170.752898 
L 143.19183 166.560572 
L 143.381693 166.03994 
L 144.711527 162.368246 
L 146.434993 158.175919 
L 147.574019 155.693557 
L 148.358882 153.983593 
L 150.4824 149.791267 
L 151.766345 147.479305 
L 152.818998 145.598941 
L 155.374103 141.406615 
L 155.958672 140.513879 
L 158.154911 137.214289 
L 160.150998 134.430197 
L 161.183578 133.021962 
L 164.343324 128.993767 
L 164.47585 128.829636 
L 168.057216 124.63731 
L 168.53565 124.106069 
L 171.966863 120.444984 
L 172.727976 119.670974 
L 176.254547 116.252658 
L 176.920302 115.633893 
L 180.990889 112.060332 
L 181.112629 111.957234 
L 185.304955 108.605128 
L 186.294253 107.868005 
L 189.497281 105.553292 
L 192.323225 103.675679 
L 193.689607 102.789646 
L 197.881933 100.288357 
L 199.354924 99.483353 
L 202.07426 98.024583 
L 206.266586 95.997388 
L 207.869385 95.291027 
L 210.458912 94.163772 
L 214.651238 92.517398 
L 218.706758 91.098701 
L 218.843564 91.051073 
L 223.03589 89.689349 
L 227.228217 88.463905 
L 231.420543 87.350674 
L 233.202571 86.906375 
L 235.612869 86.301693 
L 239.805195 85.31005 
L 243.997521 84.38093 
L 248.189847 83.500607 
L 252.089385 82.714048 
L 252.382174 82.653822 
L 256.5745 81.790898 
L 260.766826 80.946367 
L 264.959152 80.109745 
L 269.151478 79.270057 
L 272.807364 78.521722 
L 273.343804 78.408671 
L 277.536131 77.473523 
L 281.728457 76.498088 
L 285.920783 75.464699 
L 290.113109 74.353479 
L 290.19512 74.329396 
L 294.305435 73.073056 
L 298.497761 71.672867 
L 302.690088 70.139928 
L 302.697262 70.13707 
L 306.882414 68.349172 
L 311.07474 66.424549 
L 312.067989 65.944744 
L 315.267066 64.242921 
L 319.459392 61.935293 
L 319.787671 61.752418 
L 323.651719 59.337033 
L 326.508798 57.560091 
L 327.844045 56.611685 
L 332.036371 53.704595 
L 332.540219 53.367765 
L 336.228697 50.503239 
L 338.029701 49.175439 
L 340.421023 47.07111 
L 342.957774 44.983113 
L 344.613349 43.289815 
L 347.267712 40.790787 
L 348.805676 38.870994 
L 350.821661 36.59846 
L 352.998002 32.934868 
L 353.354392 32.406134 
L 354.770607 28.213808 
z
" clip-path="url(#pbc1ff0281a)" style="fill: #fddcc9"/>
    <path d="M 365.57498 65.191264 
L 369.767306 64.433317 
L 373.959633 63.921962 
L 378.151959 63.664448 
L 378.151959 65.944744 
L 378.151959 70.13707 
L 378.151959 74.329396 
L 378.151959 78.521722 
L 378.151959 82.714048 
L 378.151959 84.100699 
L 373.959633 84.275339 
L 369.767306 84.62217 
L 365.57498 85.136347 
L 361.382654 85.810733 
L 357.190328 86.636045 
L 356.019482 86.906375 
L 352.998002 87.577939 
L 348.805676 88.633855 
L 344.613349 89.799222 
L 340.421023 91.059402 
L 340.298668 91.098701 
L 336.228697 92.367397 
L 332.036371 93.738521 
L 327.844045 95.159353 
L 327.466399 95.291027 
L 323.651719 96.595753 
L 319.459392 98.055761 
L 315.403982 99.483353 
L 315.267066 99.531139 
L 311.07474 101.004198 
L 306.882414 102.481482 
L 303.493094 103.675679 
L 302.690088 103.959864 
L 298.497761 105.438593 
L 294.305435 106.92011 
L 291.623143 107.868005 
L 290.113109 108.410522 
L 285.920783 109.916476 
L 281.728457 111.439507 
L 280.028969 112.060332 
L 277.536131 112.995834 
L 273.343804 114.590238 
L 269.151478 116.226134 
L 269.084098 116.252658 
L 264.959152 117.936177 
L 260.766826 119.708512 
L 259.068886 120.444984 
L 256.5745 121.575255 
L 252.382174 123.542555 
L 250.133775 124.63731 
L 248.189847 125.633611 
L 243.997521 127.867661 
L 242.263277 128.829636 
L 239.805195 130.275827 
L 235.612869 132.865648 
L 235.368288 133.021962 
L 231.420543 135.718924 
L 229.334654 137.214289 
L 227.228217 138.840339 
L 224.04761 141.406615 
L 223.03589 142.292539 
L 219.408386 145.598941 
L 218.843564 146.162481 
L 215.334649 149.791267 
L 214.651238 150.572301 
L 211.759181 153.983593 
L 210.458912 155.696857 
L 208.628202 158.175919 
L 206.266586 161.793106 
L 205.899671 162.368246 
L 203.539551 166.560572 
L 202.07426 169.591954 
L 201.521969 170.752898 
L 199.824673 174.945224 
L 198.433455 179.13755 
L 197.881933 181.232825 
L 197.333569 183.329876 
L 196.515686 187.522203 
L 195.974314 191.714529 
L 195.704782 195.906855 
L 193.689607 195.906855 
L 189.497281 195.906855 
L 185.304955 195.906855 
L 181.112629 195.906855 
L 176.920302 195.906855 
L 172.727976 195.906855 
L 168.53565 195.906855 
L 168.000573 195.906855 
L 168.221332 191.714529 
L 168.53565 188.735379 
L 168.662731 187.522203 
L 169.322969 183.329876 
L 170.209773 179.13755 
L 171.328804 174.945224 
L 172.68726 170.752898 
L 172.727976 170.645126 
L 174.280951 166.560572 
L 176.132683 162.368246 
L 176.920302 160.793884 
L 178.248022 158.175919 
L 180.646451 153.983593 
L 181.112629 153.246166 
L 183.344645 149.791267 
L 185.304955 147.051456 
L 186.372675 145.598941 
L 189.497281 141.725257 
L 189.76282 141.406615 
L 193.560264 137.214289 
L 193.689607 137.081739 
L 197.825316 133.021962 
L 197.881933 132.970145 
L 202.07426 129.300178 
L 202.639741 128.829636 
L 206.266586 125.997213 
L 208.11236 124.63731 
L 210.458912 123.004444 
L 214.386566 120.444984 
L 214.651238 120.281083 
L 218.843564 117.806947 
L 221.670739 116.252658 
L 223.03589 115.534884 
L 227.228217 113.44872 
L 230.211492 112.060332 
L 231.420543 111.518589 
L 235.612869 109.727296 
L 239.805195 108.054816 
L 240.289424 107.868005 
L 243.997521 106.480004 
L 248.189847 104.992822 
L 252.087848 103.675679 
L 252.382174 103.57846 
L 256.5745 102.215176 
L 260.766826 100.902064 
L 264.959152 99.627175 
L 265.431594 99.483353 
L 269.151478 98.366393 
L 273.343804 97.122531 
L 277.536131 95.886584 
L 279.531024 95.291027 
L 281.728457 94.638133 
L 285.920783 93.36972 
L 290.113109 92.081274 
L 293.229943 91.098701 
L 294.305435 90.757337 
L 298.497761 89.378078 
L 302.690088 87.958257 
L 305.702446 86.906375 
L 306.882414 86.484706 
L 311.07474 84.939787 
L 315.267066 83.358239 
L 316.950328 82.714048 
L 319.459392 81.713344 
L 323.651719 80.029424 
L 327.4161 78.521722 
L 327.844045 78.340592 
L 332.036371 76.599756 
L 336.228697 74.90515 
L 337.719424 74.329396 
L 340.421023 73.213494 
L 344.613349 71.582181 
L 348.619413 70.13707 
L 348.805676 70.064446 
L 352.998002 68.588496 
L 357.190328 67.282932 
L 361.382654 66.165678 
L 362.399033 65.944744 
z
" clip-path="url(#pbc1ff0281a)" style="fill: #f8bb9e"/>
    <path d="M 357.190328 86.636045 
L 361.382654 85.810733 
L 365.57498 85.136347 
L 369.767306 84.62217 
L 373.959633 84.275339 
L 378.151959 84.100699 
L 378.151959 86.906375 
L 378.151959 91.098701 
L 378.151959 95.291027 
L 378.151959 99.483353 
L 378.151959 101.003045 
L 373.959633 101.150423 
L 369.767306 101.443332 
L 365.57498 101.878123 
L 361.382654 102.449445 
L 357.190328 103.150389 
L 354.515213 103.675679 
L 352.998002 103.970702 
L 348.805676 104.899163 
L 344.613349 105.929486 
L 340.421023 107.051204 
L 337.576041 107.868005 
L 336.228697 108.254082 
L 332.036371 109.529079 
L 327.844045 110.865927 
L 324.241561 112.060332 
L 323.651719 112.257367 
L 319.459392 113.705407 
L 315.267066 115.194115 
L 312.35387 116.252658 
L 311.07474 116.725959 
L 306.882414 118.308295 
L 302.690088 119.923638 
L 301.357458 120.444984 
L 298.497761 121.596847 
L 294.305435 123.317725 
L 291.154723 124.63731 
L 290.113109 125.090549 
L 285.920783 126.945374 
L 281.777262 128.829636 
L 281.728457 128.8529 
L 277.536131 130.883969 
L 273.343804 132.984625 
L 273.270644 133.021962 
L 269.151478 135.248112 
L 265.644051 137.214289 
L 264.959152 137.623999 
L 260.766826 140.19898 
L 258.866539 141.406615 
L 256.5745 142.975653 
L 252.879432 145.598941 
L 252.382174 145.982604 
L 248.189847 149.319462 
L 247.61585 149.791267 
L 243.997521 153.058862 
L 243.006469 153.983593 
L 239.805195 157.301751 
L 238.986685 158.175919 
L 235.612869 162.229791 
L 235.500701 162.368246 
L 232.503838 166.560572 
L 231.420543 168.320331 
L 229.954124 170.752898 
L 227.820086 174.945224 
L 227.228217 176.3551 
L 226.077526 179.13755 
L 224.705661 183.329876 
L 223.68881 187.522203 
L 223.03589 191.59328 
L 223.016571 191.714529 
L 222.682606 195.906855 
L 218.843564 195.906855 
L 214.651238 195.906855 
L 210.458912 195.906855 
L 206.266586 195.906855 
L 202.07426 195.906855 
L 197.881933 195.906855 
L 195.704782 195.906855 
L 195.974314 191.714529 
L 196.515686 187.522203 
L 197.333569 183.329876 
L 197.881933 181.232825 
L 198.433455 179.13755 
L 199.824673 174.945224 
L 201.521969 170.752898 
L 202.07426 169.591954 
L 203.539551 166.560572 
L 205.899671 162.368246 
L 206.266586 161.793106 
L 208.628202 158.175919 
L 210.458912 155.696857 
L 211.759181 153.983593 
L 214.651238 150.572301 
L 215.334649 149.791267 
L 218.843564 146.162481 
L 219.408386 145.598941 
L 223.03589 142.292539 
L 224.04761 141.406615 
L 227.228217 138.840339 
L 229.334654 137.214289 
L 231.420543 135.718924 
L 235.368288 133.021962 
L 235.612869 132.865648 
L 239.805195 130.275827 
L 242.263277 128.829636 
L 243.997521 127.867661 
L 248.189847 125.633611 
L 250.133775 124.63731 
L 252.382174 123.542555 
L 256.5745 121.575255 
L 259.068886 120.444984 
L 260.766826 119.708512 
L 264.959152 117.936177 
L 269.084098 116.252658 
L 269.151478 116.226134 
L 273.343804 114.590238 
L 277.536131 112.995834 
L 280.028969 112.060332 
L 281.728457 111.439507 
L 285.920783 109.916476 
L 290.113109 108.410522 
L 291.623143 107.868005 
L 294.305435 106.92011 
L 298.497761 105.438593 
L 302.690088 103.959864 
L 303.493094 103.675679 
L 306.882414 102.481482 
L 311.07474 101.004198 
L 315.267066 99.531139 
L 315.403982 99.483353 
L 319.459392 98.055761 
L 323.651719 96.595753 
L 327.466399 95.291027 
L 327.844045 95.159353 
L 332.036371 93.738521 
L 336.228697 92.367397 
L 340.298668 91.098701 
L 340.421023 91.059402 
L 344.613349 89.799222 
L 348.805676 88.633855 
L 352.998002 87.577939 
L 356.019482 86.906375 
z
" clip-path="url(#pbc1ff0281a)" style="fill: #ee9677"/>
    <path d="M 357.190328 103.150389 
L 361.382654 102.449445 
L 365.57498 101.878123 
L 369.767306 101.443332 
L 373.959633 101.150423 
L 378.151959 101.003045 
L 378.151959 103.675679 
L 378.151959 107.868005 
L 378.151959 112.060332 
L 378.151959 116.252658 
L 378.151959 117.106475 
L 373.959633 117.2463 
L 369.767306 117.524507 
L 365.57498 117.938249 
L 361.382654 118.483375 
L 357.190328 119.154559 
L 352.998002 119.945474 
L 350.682377 120.444984 
L 348.805676 120.856065 
L 344.613349 121.882675 
L 340.421023 123.008859 
L 336.228697 124.226725 
L 334.907299 124.63731 
L 332.036371 125.55097 
L 327.844045 126.965328 
L 323.651719 128.45333 
L 322.636749 128.829636 
L 319.459392 130.047792 
L 315.267066 131.721585 
L 312.127405 133.021962 
L 311.07474 133.476935 
L 306.882414 135.349227 
L 302.847452 137.214289 
L 302.690088 137.290923 
L 298.497761 139.390133 
L 294.604967 141.406615 
L 294.305435 141.571736 
L 290.113109 143.94505 
L 287.285479 145.598941 
L 285.920783 146.45751 
L 281.728457 149.175198 
L 280.80461 149.791267 
L 277.536131 152.16269 
L 275.105039 153.983593 
L 273.343804 155.43517 
L 270.118289 158.175919 
L 269.151478 159.091664 
L 265.79031 162.368246 
L 264.959152 163.285315 
L 262.068945 166.560572 
L 260.766826 168.261953 
L 258.906267 170.752898 
L 256.5745 174.437463 
L 256.26007 174.945224 
L 254.107159 179.13755 
L 252.408715 183.329876 
L 252.382174 183.417577 
L 251.15791 187.522203 
L 250.330739 191.714529 
L 249.919101 195.906855 
L 248.189847 195.906855 
L 243.997521 195.906855 
L 239.805195 195.906855 
L 235.612869 195.906855 
L 231.420543 195.906855 
L 227.228217 195.906855 
L 223.03589 195.906855 
L 222.682606 195.906855 
L 223.016571 191.714529 
L 223.03589 191.59328 
L 223.68881 187.522203 
L 224.705661 183.329876 
L 226.077526 179.13755 
L 227.228217 176.3551 
L 227.820086 174.945224 
L 229.954124 170.752898 
L 231.420543 168.320331 
L 232.503838 166.560572 
L 235.500701 162.368246 
L 235.612869 162.229791 
L 238.986685 158.175919 
L 239.805195 157.301751 
L 243.006469 153.983593 
L 243.997521 153.058862 
L 247.61585 149.791267 
L 248.189847 149.319462 
L 252.382174 145.982604 
L 252.879432 145.598941 
L 256.5745 142.975653 
L 258.866539 141.406615 
L 260.766826 140.19898 
L 264.959152 137.623999 
L 265.644051 137.214289 
L 269.151478 135.248112 
L 273.270644 133.021962 
L 273.343804 132.984625 
L 277.536131 130.883969 
L 281.728457 128.8529 
L 281.777262 128.829636 
L 285.920783 126.945374 
L 290.113109 125.090549 
L 291.154723 124.63731 
L 294.305435 123.317725 
L 298.497761 121.596847 
L 301.357458 120.444984 
L 302.690088 119.923638 
L 306.882414 118.308295 
L 311.07474 116.725959 
L 312.35387 116.252658 
L 315.267066 115.194115 
L 319.459392 113.705407 
L 323.651719 112.257367 
L 324.241561 112.060332 
L 327.844045 110.865927 
L 332.036371 109.529079 
L 336.228697 108.254082 
L 337.576041 107.868005 
L 340.421023 107.051204 
L 344.613349 105.929486 
L 348.805676 104.899163 
L 352.998002 103.970702 
L 354.515213 103.675679 
z
" clip-path="url(#pbc1ff0281a)" style="fill: #db6b55"/>
    <path d="M 352.998002 119.945474 
L 357.190328 119.154559 
L 361.382654 118.483375 
L 365.57498 117.938249 
L 369.767306 117.524507 
L 373.959633 117.2463 
L 378.151959 117.106475 
L 378.151959 120.444984 
L 378.151959 124.63731 
L 378.151959 128.829636 
L 378.151959 133.021962 
L 378.151959 133.962511 
L 373.959633 134.111437 
L 369.767306 134.4081 
L 365.57498 134.850166 
L 361.382654 135.434239 
L 357.190328 136.155992 
L 352.998002 137.010321 
L 352.127126 137.214289 
L 348.805676 138.025437 
L 344.613349 139.17605 
L 340.421023 140.447011 
L 337.516452 141.406615 
L 336.228697 141.854277 
L 332.036371 143.425982 
L 327.844045 145.106901 
L 326.686974 145.598941 
L 323.651719 146.97164 
L 319.459392 148.974285 
L 317.830516 149.791267 
L 315.267066 151.173939 
L 311.07474 153.543473 
L 310.327412 153.983593 
L 306.882414 156.19289 
L 303.916323 158.175919 
L 302.690088 159.08038 
L 298.497761 162.295541 
L 298.406167 162.368246 
L 294.305435 166.019352 
L 293.718195 166.560572 
L 290.113109 170.357423 
L 289.749454 170.752898 
L 286.448971 174.945224 
L 285.920783 175.752868 
L 283.769078 179.13755 
L 281.728457 183.177973 
L 281.653652 183.329876 
L 280.106199 187.522203 
L 279.080125 191.714529 
L 278.568745 195.906855 
L 277.536131 195.906855 
L 273.343804 195.906855 
L 269.151478 195.906855 
L 264.959152 195.906855 
L 260.766826 195.906855 
L 256.5745 195.906855 
L 252.382174 195.906855 
L 249.919101 195.906855 
L 250.330739 191.714529 
L 251.15791 187.522203 
L 252.382174 183.417577 
L 252.408715 183.329876 
L 254.107159 179.13755 
L 256.26007 174.945224 
L 256.5745 174.437463 
L 258.906267 170.752898 
L 260.766826 168.261953 
L 262.068945 166.560572 
L 264.959152 163.285315 
L 265.79031 162.368246 
L 269.151478 159.091664 
L 270.118289 158.175919 
L 273.343804 155.43517 
L 275.105039 153.983593 
L 277.536131 152.16269 
L 280.80461 149.791267 
L 281.728457 149.175198 
L 285.920783 146.45751 
L 287.285479 145.598941 
L 290.113109 143.94505 
L 294.305435 141.571736 
L 294.604967 141.406615 
L 298.497761 139.390133 
L 302.690088 137.290923 
L 302.847452 137.214289 
L 306.882414 135.349227 
L 311.07474 133.476935 
L 312.127405 133.021962 
L 315.267066 131.721585 
L 319.459392 130.047792 
L 322.636749 128.829636 
L 323.651719 128.45333 
L 327.844045 126.965328 
L 332.036371 125.55097 
L 334.907299 124.63731 
L 336.228697 124.226725 
L 340.421023 123.008859 
L 344.613349 121.882675 
L 348.805676 120.856065 
L 350.682377 120.444984 
z
" clip-path="url(#pbc1ff0281a)" style="fill: #c53e3d"/>
    <path d="M 352.998002 137.010321 
L 357.190328 136.155992 
L 361.382654 135.434239 
L 365.57498 134.850166 
L 369.767306 134.4081 
L 373.959633 134.111437 
L 378.151959 133.962511 
L 378.151959 137.214289 
L 378.151959 141.406615 
L 378.151959 145.598941 
L 378.151959 149.791267 
L 378.151959 153.869692 
L 375.514418 153.983593 
L 373.959633 154.056089 
L 369.767306 154.445949 
L 365.57498 155.028002 
L 361.382654 155.79909 
L 357.190328 156.755211 
L 352.998002 157.891684 
L 352.089471 158.175919 
L 348.805676 159.2994 
L 344.613349 160.919738 
L 341.240316 162.368246 
L 340.421023 162.7589 
L 336.228697 164.950817 
L 333.392405 166.560572 
L 332.036371 167.431288 
L 327.844045 170.328299 
L 327.26855 170.752898 
L 323.651719 173.844695 
L 322.439201 174.945224 
L 319.459392 178.176455 
L 318.619866 179.13755 
L 315.683183 183.329876 
L 315.267066 184.120883 
L 313.562345 187.522203 
L 312.162386 191.714529 
L 311.4629 195.906855 
L 311.07474 195.906855 
L 306.882414 195.906855 
L 302.690088 195.906855 
L 298.497761 195.906855 
L 294.305435 195.906855 
L 290.113109 195.906855 
L 285.920783 195.906855 
L 281.728457 195.906855 
L 278.568745 195.906855 
L 279.080125 191.714529 
L 280.106199 187.522203 
L 281.653652 183.329876 
L 281.728457 183.177973 
L 283.769078 179.13755 
L 285.920783 175.752868 
L 286.448971 174.945224 
L 289.749454 170.752898 
L 290.113109 170.357423 
L 293.718195 166.560572 
L 294.305435 166.019352 
L 298.406167 162.368246 
L 298.497761 162.295541 
L 302.690088 159.08038 
L 303.916323 158.175919 
L 306.882414 156.19289 
L 310.327412 153.983593 
L 311.07474 153.543473 
L 315.267066 151.173939 
L 317.830516 149.791267 
L 319.459392 148.974285 
L 323.651719 146.97164 
L 326.686974 145.598941 
L 327.844045 145.106901 
L 332.036371 143.425982 
L 336.228697 141.854277 
L 337.516452 141.406615 
L 340.421023 140.447011 
L 344.613349 139.17605 
L 348.805676 138.025437 
L 352.127126 137.214289 
z
" clip-path="url(#pbc1ff0281a)" style="fill: #ab162a"/>
    <path d="M 378.151959 153.869692 
L 378.151959 153.983593 
L 378.151959 158.175919 
L 378.151959 162.368246 
L 378.151959 166.560572 
L 378.151959 170.752898 
L 378.151959 174.945224 
L 378.151959 179.13755 
L 378.151959 183.329876 
L 378.151959 187.522203 
L 378.151959 191.714529 
L 378.151959 195.906855 
L 373.959633 195.906855 
L 369.767306 195.906855 
L 365.57498 195.906855 
L 361.382654 195.906855 
L 357.190328 195.906855 
L 352.998002 195.906855 
L 348.805676 195.906855 
L 344.613349 195.906855 
L 340.421023 195.906855 
L 336.228697 195.906855 
L 332.036371 195.906855 
L 327.844045 195.906855 
L 323.651719 195.906855 
L 319.459392 195.906855 
L 315.267066 195.906855 
L 311.4629 195.906855 
L 312.162386 191.714529 
L 313.562345 187.522203 
L 315.267066 184.120883 
L 315.683183 183.329876 
L 318.619866 179.13755 
L 319.459392 178.176455 
L 322.439201 174.945224 
L 323.651719 173.844695 
L 327.26855 170.752898 
L 327.844045 170.328299 
L 332.036371 167.431288 
L 333.392405 166.560572 
L 336.228697 164.950817 
L 340.421023 162.7589 
L 341.240316 162.368246 
L 344.613349 160.919738 
L 348.805676 159.2994 
L 352.089471 158.175919 
L 352.998002 157.891684 
L 357.190328 156.755211 
L 361.382654 155.79909 
L 365.57498 155.028002 
L 369.767306 154.445949 
L 373.959633 154.056089 
L 375.514418 153.983593 
z
" clip-path="url(#pbc1ff0281a)" style="fill: #7c0722"/>
    <path clip-path="url(#pbc1ff0281a)" style="fill: #67001f"/>
   </g>
   <g id="patch_3">
    <path d="M 210.458912 28.213808 
L 294.305435 28.213808 
L 294.305435 44.983113 
L 210.458912 44.983113 
z
" clip-path="url(#pbc1ff0281a)" style="fill: url(#h4c76c69d74); opacity: 0.35; stroke: #111827; stroke-width: 1.2; stroke-linejoin: miter"/>
   </g>
   <g id="PathCollection_1">
    <defs>
     <path id="m851e259aad" d="M -0 4.582576 
L 4.582576 0 
L 0 -4.582576 
L -4.582576 -0 
z
" style="stroke: #111827; stroke-width: 0.7"/>
    </defs>
    <g clip-path="url(#pbc1ff0281a)">
     <use xlink:href="#m851e259aad" x="210.458912" y="112.060332" style="fill: #f5b942; stroke: #111827; stroke-width: 0.7"/>
    </g>
   </g>
   <g id="matplotlib.axis_1">
    <g id="xtick_1">
     <g id="line2d_1">
      <defs>
       <path id="m07e260cb57" d="M 0 0 
L 0 3.5 
" style="stroke: #000000; stroke-width: 0.8"/>
      </defs>
      <g>
       <use xlink:href="#m07e260cb57" x="42.765865" y="195.906855" style="stroke: #000000; stroke-width: 0.8"/>
      </g>
     </g>
     <g id="text_1">
      <!-- 0 -->
      <g transform="translate(39.584615 210.505292) scale(0.1 -0.1)">
       <defs>
        <path id="DejaVuSans-30" d="M 2034 4250 
Q 1547 4250 1301 3770 
Q 1056 3291 1056 2328 
Q 1056 1369 1301 889 
Q 1547 409 2034 409 
Q 2525 409 2770 889 
Q 3016 1369 3016 2328 
Q 3016 3291 2770 3770 
Q 2525 4250 2034 4250 
z
M 2034 4750 
Q 2819 4750 3233 4129 
Q 3647 3509 3647 2328 
Q 3647 1150 3233 529 
Q 2819 -91 2034 -91 
Q 1250 -91 836 529 
Q 422 1150 422 2328 
Q 422 3509 836 4129 
Q 1250 4750 2034 4750 
z
" transform="scale(0.015625)"/>
       </defs>
       <use xlink:href="#DejaVuSans-30"/>
      </g>
     </g>
    </g>
    <g id="xtick_2">
     <g id="line2d_2">
      <g>
       <use xlink:href="#m07e260cb57" x="126.612388" y="195.906855" style="stroke: #000000; stroke-width: 0.8"/>
      </g>
     </g>
     <g id="text_2">
      <!-- 100 -->
      <g transform="translate(117.068638 210.505292) scale(0.1 -0.1)">
       <defs>
        <path id="DejaVuSans-31" d="M 794 531 
L 1825 531 
L 1825 4091 
L 703 3866 
L 703 4441 
L 1819 4666 
L 2450 4666 
L 2450 531 
L 3481 531 
L 3481 0 
L 794 0 
L 794 531 
z
" transform="scale(0.015625)"/>
       </defs>
       <use xlink:href="#DejaVuSans-31"/>
       <use xlink:href="#DejaVuSans-30" transform="translate(63.623047 0)"/>
       <use xlink:href="#DejaVuSans-30" transform="translate(127.246094 0)"/>
      </g>
     </g>
    </g>
    <g id="xtick_3">
     <g id="line2d_3">
      <g>
       <use xlink:href="#m07e260cb57" x="210.458912" y="195.906855" style="stroke: #000000; stroke-width: 0.8"/>
      </g>
     </g>
     <g id="text_3">
      <!-- 200 -->
      <g transform="translate(200.915162 210.505292) scale(0.1 -0.1)">
       <defs>
        <path id="DejaVuSans-32" d="M 1228 531 
L 3431 531 
L 3431 0 
L 469 0 
L 469 531 
Q 828 903 1448 1529 
Q 2069 2156 2228 2338 
Q 2531 2678 2651 2914 
Q 2772 3150 2772 3378 
Q 2772 3750 2511 3984 
Q 2250 4219 1831 4219 
Q 1534 4219 1204 4116 
Q 875 4013 500 3803 
L 500 4441 
Q 881 4594 1212 4672 
Q 1544 4750 1819 4750 
Q 2544 4750 2975 4387 
Q 3406 4025 3406 3419 
Q 3406 3131 3298 2873 
Q 3191 2616 2906 2266 
Q 2828 2175 2409 1742 
Q 1991 1309 1228 531 
z
" transform="scale(0.015625)"/>
       </defs>
       <use xlink:href="#DejaVuSans-32"/>
       <use xlink:href="#DejaVuSans-30" transform="translate(63.623047 0)"/>
       <use xlink:href="#DejaVuSans-30" transform="translate(127.246094 0)"/>
      </g>
     </g>
    </g>
    <g id="xtick_4">
     <g id="line2d_4">
      <g>
       <use xlink:href="#m07e260cb57" x="294.305435" y="195.906855" style="stroke: #000000; stroke-width: 0.8"/>
      </g>
     </g>
     <g id="text_4">
      <!-- 300 -->
      <g transform="translate(284.761685 210.505292) scale(0.1 -0.1)">
       <defs>
        <path id="DejaVuSans-33" d="M 2597 2516 
Q 3050 2419 3304 2112 
Q 3559 1806 3559 1356 
Q 3559 666 3084 287 
Q 2609 -91 1734 -91 
Q 1441 -91 1130 -33 
Q 819 25 488 141 
L 488 750 
Q 750 597 1062 519 
Q 1375 441 1716 441 
Q 2309 441 2620 675 
Q 2931 909 2931 1356 
Q 2931 1769 2642 2001 
Q 2353 2234 1838 2234 
L 1294 2234 
L 1294 2753 
L 1863 2753 
Q 2328 2753 2575 2939 
Q 2822 3125 2822 3475 
Q 2822 3834 2567 4026 
Q 2313 4219 1838 4219 
Q 1578 4219 1281 4162 
Q 984 4106 628 3988 
L 628 4550 
Q 988 4650 1302 4700 
Q 1616 4750 1894 4750 
Q 2613 4750 3031 4423 
Q 3450 4097 3450 3541 
Q 3450 3153 3228 2886 
Q 3006 2619 2597 2516 
z
" transform="scale(0.015625)"/>
       </defs>
       <use xlink:href="#DejaVuSans-33"/>
       <use xlink:href="#DejaVuSans-30" transform="translate(63.623047 0)"/>
       <use xlink:href="#DejaVuSans-30" transform="translate(127.246094 0)"/>
      </g>
     </g>
    </g>
    <g id="xtick_5">
     <g id="line2d_5">
      <g>
       <use xlink:href="#m07e260cb57" x="378.151959" y="195.906855" style="stroke: #000000; stroke-width: 0.8"/>
      </g>
     </g>
     <g id="text_5">
      <!-- 400 -->
      <g transform="translate(368.608209 210.505292) scale(0.1 -0.1)">
       <defs>
        <path id="DejaVuSans-34" d="M 2419 4116 
L 825 1625 
L 2419 1625 
L 2419 4116 
z
M 2253 4666 
L 3047 4666 
L 3047 1625 
L 3713 1625 
L 3713 1100 
L 3047 1100 
L 3047 0 
L 2419 0 
L 2419 1100 
L 313 1100 
L 313 1709 
L 2253 4666 
z
" transform="scale(0.015625)"/>
       </defs>
       <use xlink:href="#DejaVuSans-34"/>
       <use xlink:href="#DejaVuSans-30" transform="translate(63.623047 0)"/>
       <use xlink:href="#DejaVuSans-30" transform="translate(127.246094 0)"/>
      </g>
     </g>
    </g>
    <g id="text_6">
     <!-- x [mm] -->
     <g transform="translate(192.268287 224.183417) scale(0.1 -0.1)">
      <defs>
       <path id="DejaVuSans-78" d="M 3513 3500 
L 2247 1797 
L 3578 0 
L 2900 0 
L 1881 1375 
L 863 0 
L 184 0 
L 1544 1831 
L 300 3500 
L 978 3500 
L 1906 2253 
L 2834 3500 
L 3513 3500 
z
" transform="scale(0.015625)"/>
       <path id="DejaVuSans-20" transform="scale(0.015625)"/>
       <path id="DejaVuSans-5b" d="M 550 4863 
L 1875 4863 
L 1875 4416 
L 1125 4416 
L 1125 -397 
L 1875 -397 
L 1875 -844 
L 550 -844 
L 550 4863 
z
" transform="scale(0.015625)"/>
       <path id="DejaVuSans-6d" d="M 3328 2828 
Q 3544 3216 3844 3400 
Q 4144 3584 4550 3584 
Q 5097 3584 5394 3201 
Q 5691 2819 5691 2113 
L 5691 0 
L 5113 0 
L 5113 2094 
Q 5113 2597 4934 2840 
Q 4756 3084 4391 3084 
Q 3944 3084 3684 2787 
Q 3425 2491 3425 1978 
L 3425 0 
L 2847 0 
L 2847 2094 
Q 2847 2600 2669 2842 
Q 2491 3084 2119 3084 
Q 1678 3084 1418 2786 
Q 1159 2488 1159 1978 
L 1159 0 
L 581 0 
L 581 3500 
L 1159 3500 
L 1159 2956 
Q 1356 3278 1631 3431 
Q 1906 3584 2284 3584 
Q 2666 3584 2933 3390 
Q 3200 3197 3328 2828 
z
" transform="scale(0.015625)"/>
       <path id="DejaVuSans-5d" d="M 1947 4863 
L 1947 -844 
L 622 -844 
L 622 -397 
L 1369 -397 
L 1369 4416 
L 622 4416 
L 622 4863 
L 1947 4863 
z
" transform="scale(0.015625)"/>
      </defs>
      <use xlink:href="#DejaVuSans-78"/>
      <use xlink:href="#DejaVuSans-20" transform="translate(59.179688 0)"/>
      <use xlink:href="#DejaVuSans-5b" transform="translate(90.966797 0)"/>
      <use xlink:href="#DejaVuSans-6d" transform="translate(129.980469 0)"/>
      <use xlink:href="#DejaVuSans-6d" transform="translate(227.392578 0)"/>
      <use xlink:href="#DejaVuSans-5d" transform="translate(324.804688 0)"/>
     </g>
    </g>
   </g>
   <g id="matplotlib.axis_2">
    <g id="ytick_1">
     <g id="line2d_6">
      <defs>
       <path id="m233507d61f" d="M 0 0 
L -3.5 0 
" style="stroke: #000000; stroke-width: 0.8"/>
      </defs>
      <g>
       <use xlink:href="#m233507d61f" x="42.765865" y="28.213808" style="stroke: #000000; stroke-width: 0.8"/>
      </g>
     </g>
     <g id="text_7">
      <!-- 0 -->
      <g transform="translate(29.403365 32.013027) scale(0.1 -0.1)">
       <use xlink:href="#DejaVuSans-30"/>
      </g>
     </g>
    </g>
    <g id="ytick_2">
     <g id="line2d_7">
      <g>
       <use xlink:href="#m233507d61f" x="42.765865" y="112.060332" style="stroke: #000000; stroke-width: 0.8"/>
      </g>
     </g>
     <g id="text_8">
      <!-- 100 -->
      <g transform="translate(16.678365 115.85955) scale(0.1 -0.1)">
       <use xlink:href="#DejaVuSans-31"/>
       <use xlink:href="#DejaVuSans-30" transform="translate(63.623047 0)"/>
       <use xlink:href="#DejaVuSans-30" transform="translate(127.246094 0)"/>
      </g>
     </g>
    </g>
    <g id="ytick_3">
     <g id="line2d_8">
      <g>
       <use xlink:href="#m233507d61f" x="42.765865" y="195.906855" style="stroke: #000000; stroke-width: 0.8"/>
      </g>
     </g>
     <g id="text_9">
      <!-- 200 -->
      <g transform="translate(16.678365 199.706074) scale(0.1 -0.1)">
       <use xlink:href="#DejaVuSans-32"/>
       <use xlink:href="#DejaVuSans-30" transform="translate(63.623047 0)"/>
       <use xlink:href="#DejaVuSans-30" transform="translate(127.246094 0)"/>
      </g>
     </g>
    </g>
    <g id="text_10">
     <!-- y [mm] -->
     <g transform="translate(10.598678 130.250957) rotate(-90) scale(0.1 -0.1)">
      <defs>
       <path id="DejaVuSans-79" d="M 2059 -325 
Q 1816 -950 1584 -1140 
Q 1353 -1331 966 -1331 
L 506 -1331 
L 506 -850 
L 844 -850 
Q 1081 -850 1212 -737 
Q 1344 -625 1503 -206 
L 1606 56 
L 191 3500 
L 800 3500 
L 1894 763 
L 2988 3500 
L 3597 3500 
L 2059 -325 
z
" transform="scale(0.015625)"/>
      </defs>
      <use xlink:href="#DejaVuSans-79"/>
      <use xlink:href="#DejaVuSans-20" transform="translate(59.179688 0)"/>
      <use xlink:href="#DejaVuSans-5b" transform="translate(90.966797 0)"/>
      <use xlink:href="#DejaVuSans-6d" transform="translate(129.980469 0)"/>
      <use xlink:href="#DejaVuSans-6d" transform="translate(227.392578 0)"/>
      <use xlink:href="#DejaVuSans-5d" transform="translate(324.804688 0)"/>
     </g>
    </g>
   </g>
   <g id="QuadContourSet_2">
    <path d="M 100.272971 195.906855 
L 100.47877 191.714529 
L 100.890649 187.522203 
L 101.458431 183.672524 
L 101.506356 183.329876 
L 102.286718 179.13755 
L 103.264265 174.945224 
L 104.440248 170.752898 
L 105.650758 167.060196 
L 105.807807 166.560572 
L 107.306844 162.368246 
L 108.999244 158.175919 
L 109.843084 156.28801 
L 110.840193 153.983593 
L 112.832052 149.791267 
L 114.03541 147.462554 
L 114.975022 145.598941 
L 117.254784 141.406615 
L 118.227736 139.733386 
L 119.668059 137.214289 
L 122.227814 133.021962 
L 122.420062 132.722024 
L 124.892203 128.829636 
L 126.612388 126.262435 
L 127.698016 124.63731 
L 130.631178 120.444984 
L 130.804715 120.204787 
L 133.673733 116.252658 
L 134.997041 114.492731 
L 136.846396 112.060332 
L 139.189367 109.067477 
L 140.145047 107.868005 
L 143.381693 103.8985 
L 143.567858 103.675679 
L 147.115524 99.483353 
L 147.574019 98.94569 
L 150.795833 95.291027 
L 151.766345 94.192251 
L 154.612694 91.098701 
L 155.958672 89.626678 
L 158.571102 86.906375 
L 160.150998 85.235653 
L 162.677915 82.714048 
L 164.343324 81.008341 
L 166.941705 78.521722 
L 168.53565 76.936516 
L 171.37238 74.329396 
L 172.727976 73.015017 
L 175.980273 70.13707 
L 176.920302 69.242833 
L 180.774036 65.944744 
L 181.112629 65.625516 
L 185.304955 62.11689 
L 185.808444 61.752418 
L 189.497281 58.694586 
L 191.131763 57.560091 
L 193.689607 55.413845 
L 196.720176 53.367765 
L 197.881933 52.327145 
L 202.07426 49.467915 
L 202.735756 49.175439 
L 206.266586 46.463994 
L 210.458912 44.983113 
L 214.651238 44.983113 
L 218.843564 44.983113 
L 223.03589 44.983113 
L 227.228217 44.983113 
L 231.420543 44.983113 
L 235.612869 44.983113 
L 239.805195 44.983113 
L 243.997521 44.983113 
L 248.189847 44.983113 
L 252.382174 44.983113 
L 256.5745 44.983113 
L 260.766826 44.983113 
L 264.959152 44.983113 
L 269.151478 44.983113 
L 273.343804 44.983113 
L 277.536131 44.983113 
L 281.728457 44.983113 
L 285.920783 44.983113 
L 290.113109 44.983113 
L 294.305435 44.983113 
L 294.305435 44.983113 
L 294.305435 40.790787 
L 294.305435 36.59846 
L 294.305435 32.406134 
L 294.305435 28.213808 
" clip-path="url(#pbc1ff0281a)" style="fill: none; stroke: #18202b; stroke-width: 0.75"/>
   </g>
   <g id="patch_4">
    <path d="M 42.765865 195.906855 
L 42.765865 28.213808 
" style="fill: none; stroke: #000000; stroke-width: 0.8; stroke-linejoin: miter; stroke-linecap: square"/>
   </g>
   <g id="patch_5">
    <path d="M 378.151959 195.906855 
L 378.151959 28.213808 
" style="fill: none; stroke: #000000; stroke-width: 0.8; stroke-linejoin: miter; stroke-linecap: square"/>
   </g>
   <g id="patch_6">
    <path d="M 42.765865 195.906855 
L 378.151959 195.906855 
" style="fill: none; stroke: #000000; stroke-width: 0.8; stroke-linejoin: miter; stroke-linecap: square"/>
   </g>
   <g id="patch_7">
    <path d="M 42.765865 28.213808 
L 378.151959 28.213808 
" style="fill: none; stroke: #000000; stroke-width: 0.8; stroke-linejoin: miter; stroke-linecap: square"/>
   </g>
   <g id="text_11">
    <!-- Mode 2   38.7 Hz -->
    <g transform="translate(159.737349 22.213808) scale(0.12 -0.12)">
     <defs>
      <path id="DejaVuSans-4d" d="M 628 4666 
L 1569 4666 
L 2759 1491 
L 3956 4666 
L 4897 4666 
L 4897 0 
L 4281 0 
L 4281 4097 
L 3078 897 
L 2444 897 
L 1241 4097 
L 1241 0 
L 628 0 
L 628 4666 
z
" transform="scale(0.015625)"/>
      <path id="DejaVuSans-6f" d="M 1959 3097 
Q 1497 3097 1228 2736 
Q 959 2375 959 1747 
Q 959 1119 1226 758 
Q 1494 397 1959 397 
Q 2419 397 2687 759 
Q 2956 1122 2956 1747 
Q 2956 2369 2687 2733 
Q 2419 3097 1959 3097 
z
M 1959 3584 
Q 2709 3584 3137 3096 
Q 3566 2609 3566 1747 
Q 3566 888 3137 398 
Q 2709 -91 1959 -91 
Q 1206 -91 779 398 
Q 353 888 353 1747 
Q 353 2609 779 3096 
Q 1206 3584 1959 3584 
z
" transform="scale(0.015625)"/>
      <path id="DejaVuSans-64" d="M 2906 2969 
L 2906 4863 
L 3481 4863 
L 3481 0 
L 2906 0 
L 2906 525 
Q 2725 213 2448 61 
Q 2172 -91 1784 -91 
Q 1150 -91 751 415 
Q 353 922 353 1747 
Q 353 2572 751 3078 
Q 1150 3584 1784 3584 
Q 2172 3584 2448 3432 
Q 2725 3281 2906 2969 
z
M 947 1747 
Q 947 1113 1208 752 
Q 1469 391 1925 391 
Q 2381 391 2643 752 
Q 2906 1113 2906 1747 
Q 2906 2381 2643 2742 
Q 2381 3103 1925 3103 
Q 1469 3103 1208 2742 
Q 947 2381 947 1747 
z
" transform="scale(0.015625)"/>
      <path id="DejaVuSans-65" d="M 3597 1894 
L 3597 1613 
L 953 1613 
Q 991 1019 1311 708 
Q 1631 397 2203 397 
Q 2534 397 2845 478 
Q 3156 559 3463 722 
L 3463 178 
Q 3153 47 2828 -22 
Q 2503 -91 2169 -91 
Q 1331 -91 842 396 
Q 353 884 353 1716 
Q 353 2575 817 3079 
Q 1281 3584 2069 3584 
Q 2775 3584 3186 3129 
Q 3597 2675 3597 1894 
z
M 3022 2063 
Q 3016 2534 2758 2815 
Q 2500 3097 2075 3097 
Q 1594 3097 1305 2825 
Q 1016 2553 972 2059 
L 3022 2063 
z
" transform="scale(0.015625)"/>
      <path id="DejaVuSans-38" d="M 2034 2216 
Q 1584 2216 1326 1975 
Q 1069 1734 1069 1313 
Q 1069 891 1326 650 
Q 1584 409 2034 409 
Q 2484 409 2743 651 
Q 3003 894 3003 1313 
Q 3003 1734 2745 1975 
Q 2488 2216 2034 2216 
z
M 1403 2484 
Q 997 2584 770 2862 
Q 544 3141 544 3541 
Q 544 4100 942 4425 
Q 1341 4750 2034 4750 
Q 2731 4750 3128 4425 
Q 3525 4100 3525 3541 
Q 3525 3141 3298 2862 
Q 3072 2584 2669 2484 
Q 3125 2378 3379 2068 
Q 3634 1759 3634 1313 
Q 3634 634 3220 271 
Q 2806 -91 2034 -91 
Q 1263 -91 848 271 
Q 434 634 434 1313 
Q 434 1759 690 2068 
Q 947 2378 1403 2484 
z
M 1172 3481 
Q 1172 3119 1398 2916 
Q 1625 2713 2034 2713 
Q 2441 2713 2670 2916 
Q 2900 3119 2900 3481 
Q 2900 3844 2670 4047 
Q 2441 4250 2034 4250 
Q 1625 4250 1398 4047 
Q 1172 3844 1172 3481 
z
" transform="scale(0.015625)"/>
      <path id="DejaVuSans-2e" d="M 684 794 
L 1344 794 
L 1344 0 
L 684 0 
L 684 794 
z
" transform="scale(0.015625)"/>
      <path id="DejaVuSans-37" d="M 525 4666 
L 3525 4666 
L 3525 4397 
L 1831 0 
L 1172 0 
L 2766 4134 
L 525 4134 
L 525 4666 
z
" transform="scale(0.015625)"/>
      <path id="DejaVuSans-48" d="M 628 4666 
L 1259 4666 
L 1259 2753 
L 3553 2753 
L 3553 4666 
L 4184 4666 
L 4184 0 
L 3553 0 
L 3553 2222 
L 1259 2222 
L 1259 0 
L 628 0 
L 628 4666 
z
" transform="scale(0.015625)"/>
      <path id="DejaVuSans-7a" d="M 353 3500 
L 3084 3500 
L 3084 2975 
L 922 459 
L 3084 459 
L 3084 0 
L 275 0 
L 275 525 
L 2438 3041 
L 353 3041 
L 353 3500 
z
" transform="scale(0.015625)"/>
     </defs>
     <use xlink:href="#DejaVuSans-4d"/>
     <use xlink:href="#DejaVuSans-6f" transform="translate(86.279297 0)"/>
     <use xlink:href="#DejaVuSans-64" transform="translate(147.460938 0)"/>
     <use xlink:href="#DejaVuSans-65" transform="translate(210.9375 0)"/>
     <use xlink:href="#DejaVuSans-20" transform="translate(272.460938 0)"/>
     <use xlink:href="#DejaVuSans-32" transform="translate(304.248047 0)"/>
     <use xlink:href="#DejaVuSans-20" transform="translate(367.871094 0)"/>
     <use xlink:href="#DejaVuSans-20" transform="translate(399.658203 0)"/>
     <use xlink:href="#DejaVuSans-20" transform="translate(431.445312 0)"/>
     <use xlink:href="#DejaVuSans-33" transform="translate(463.232422 0)"/>
     <use xlink:href="#DejaVuSans-38" transform="translate(526.855469 0)"/>
     <use xlink:href="#DejaVuSans-2e" transform="translate(590.478516 0)"/>
     <use xlink:href="#DejaVuSans-37" transform="translate(622.265625 0)"/>
     <use xlink:href="#DejaVuSans-20" transform="translate(685.888672 0)"/>
     <use xlink:href="#DejaVuSans-48" transform="translate(717.675781 0)"/>
     <use xlink:href="#DejaVuSans-7a" transform="translate(792.871094 0)"/>
    </g>
   </g>
  </g>
  <g id="axes_2">
   <g id="patch_8">
    <path d="M 397.757292 189.393851 
L 406.263979 189.393851 
L 406.263979 34.726812 
L 397.757292 34.726812 
z
" style="fill: #ffffff"/>
   </g>
   <g id="patch_9">
    <path d="M 397.757292 189.393851 
L 402.010635 197.127203 
L 406.263979 189.393851 
" style="fill: #053061"/>
   </g>
   <g id="patch_10">
    <path d="M 397.757292 34.726812 
L 402.010635 26.99346 
L 406.263979 34.726812 
" style="fill: #67001f"/>
   </g>
   <g id="QuadMesh_1">
    <path d="M 397.757292 189.393851 
L 406.263979 189.393851 
L 406.263979 179.727161 
L 397.757292 179.727161 
L 397.757292 189.393851 
" clip-path="url(#p0c9570fcb1)" style="fill: #0e4179"/>
    <path d="M 397.757292 179.727161 
L 406.263979 179.727161 
L 406.263979 170.060471 
L 397.757292 170.060471 
L 397.757292 179.727161 
" clip-path="url(#p0c9570fcb1)" style="fill: #1f63a8"/>
    <path d="M 397.757292 170.060471 
L 406.263979 170.060471 
L 406.263979 160.393781 
L 397.757292 160.393781 
L 397.757292 170.060471 
" clip-path="url(#p0c9570fcb1)" style="fill: #3480b9"/>
    <path d="M 397.757292 160.393781 
L 406.263979 160.393781 
L 406.263979 150.727091 
L 397.757292 150.727091 
L 397.757292 160.393781 
" clip-path="url(#p0c9570fcb1)" style="fill: #529dc8"/>
    <path d="M 397.757292 150.727091 
L 406.263979 150.727091 
L 406.263979 141.060401 
L 397.757292 141.060401 
L 397.757292 150.727091 
" clip-path="url(#p0c9570fcb1)" style="fill: #84bcd9"/>
    <path d="M 397.757292 141.060401 
L 406.263979 141.060401 
L 406.263979 131.393711 
L 397.757292 131.393711 
L 397.757292 141.060401 
" clip-path="url(#p0c9570fcb1)" style="fill: #aed3e6"/>
    <path d="M 397.757292 131.393711 
L 406.263979 131.393711 
L 406.263979 121.727021 
L 397.757292 121.727021 
L 397.757292 131.393711 
" clip-path="url(#p0c9570fcb1)" style="fill: #d4e6f1"/>
    <path d="M 397.757292 121.727021 
L 406.263979 121.727021 
L 406.263979 112.060332 
L 397.757292 112.060332 
L 397.757292 121.727021 
" clip-path="url(#p0c9570fcb1)" style="fill: #ecf2f5"/>
    <path d="M 397.757292 112.060332 
L 406.263979 112.060332 
L 406.263979 102.393642 
L 397.757292 102.393642 
L 397.757292 112.060332 
" clip-path="url(#p0c9570fcb1)" style="fill: #f9eee7"/>
    <path d="M 397.757292 102.393642 
L 406.263979 102.393642 
L 406.263979 92.726952 
L 397.757292 92.726952 
L 397.757292 102.393642 
" clip-path="url(#p0c9570fcb1)" style="fill: #fddcc9"/>
    <path d="M 397.757292 92.726952 
L 406.263979 92.726952 
L 406.263979 83.060262 
L 397.757292 83.060262 
L 397.757292 92.726952 
" clip-path="url(#p0c9570fcb1)" style="fill: #f8bb9e"/>
    <path d="M 397.757292 83.060262 
L 406.263979 83.060262 
L 406.263979 73.393572 
L 397.757292 73.393572 
L 397.757292 83.060262 
" clip-path="url(#p0c9570fcb1)" style="fill: #ee9677"/>
    <path d="M 397.757292 73.393572 
L 406.263979 73.393572 
L 406.263979 63.726882 
L 397.757292 63.726882 
L 397.757292 73.393572 
" clip-path="url(#p0c9570fcb1)" style="fill: #db6b55"/>
    <path d="M 397.757292 63.726882 
L 406.263979 63.726882 
L 406.263979 54.060192 
L 397.757292 54.060192 
L 397.757292 63.726882 
" clip-path="url(#p0c9570fcb1)" style="fill: #c53e3d"/>
    <path d="M 397.757292 54.060192 
L 406.263979 54.060192 
L 406.263979 44.393502 
L 397.757292 44.393502 
L 397.757292 54.060192 
" clip-path="url(#p0c9570fcb1)" style="fill: #ab162a"/>
    <path d="M 397.757292 44.393502 
L 406.263979 44.393502 
L 406.263979 34.726812 
L 397.757292 34.726812 
L 397.757292 44.393502 
" clip-path="url(#p0c9570fcb1)" style="fill: #7c0722"/>
   </g>
   <g id="matplotlib.axis_3"/>
   <g id="matplotlib.axis_4">
    <g id="ytick_4">
     <g id="line2d_9">
      <defs>
       <path id="mb9e77335c4" d="M 0 0 
L 3.5 0 
" style="stroke: #000000; stroke-width: 0.8"/>
      </defs>
      <g>
       <use xlink:href="#mb9e77335c4" x="406.263979" y="189.393851" style="stroke: #000000; stroke-width: 0.8"/>
      </g>
     </g>
     <g id="text_12">
      <!-- −1.00 -->
      <g transform="translate(413.263979 193.19307) scale(0.1 -0.1)">
       <defs>
        <path id="DejaVuSans-2212" d="M 678 2272 
L 4684 2272 
L 4684 1741 
L 678 1741 
L 678 2272 
z
" transform="scale(0.015625)"/>
       </defs>
       <use xlink:href="#DejaVuSans-2212"/>
       <use xlink:href="#DejaVuSans-31" transform="translate(83.789062 0)"/>
       <use xlink:href="#DejaVuSans-2e" transform="translate(147.412109 0)"/>
       <use xlink:href="#DejaVuSans-30" transform="translate(179.199219 0)"/>
       <use xlink:href="#DejaVuSans-30" transform="translate(242.822266 0)"/>
      </g>
     </g>
    </g>
    <g id="ytick_5">
     <g id="line2d_10">
      <g>
       <use xlink:href="#mb9e77335c4" x="406.263979" y="170.060471" style="stroke: #000000; stroke-width: 0.8"/>
      </g>
     </g>
     <g id="text_13">
      <!-- −0.75 -->
      <g transform="translate(413.263979 173.85969) scale(0.1 -0.1)">
       <defs>
        <path id="DejaVuSans-35" d="M 691 4666 
L 3169 4666 
L 3169 4134 
L 1269 4134 
L 1269 2991 
Q 1406 3038 1543 3061 
Q 1681 3084 1819 3084 
Q 2600 3084 3056 2656 
Q 3513 2228 3513 1497 
Q 3513 744 3044 326 
Q 2575 -91 1722 -91 
Q 1428 -91 1123 -41 
Q 819 9 494 109 
L 494 744 
Q 775 591 1075 516 
Q 1375 441 1709 441 
Q 2250 441 2565 725 
Q 2881 1009 2881 1497 
Q 2881 1984 2565 2268 
Q 2250 2553 1709 2553 
Q 1456 2553 1204 2497 
Q 953 2441 691 2322 
L 691 4666 
z
" transform="scale(0.015625)"/>
       </defs>
       <use xlink:href="#DejaVuSans-2212"/>
       <use xlink:href="#DejaVuSans-30" transform="translate(83.789062 0)"/>
       <use xlink:href="#DejaVuSans-2e" transform="translate(147.412109 0)"/>
       <use xlink:href="#DejaVuSans-37" transform="translate(179.199219 0)"/>
       <use xlink:href="#DejaVuSans-35" transform="translate(242.822266 0)"/>
      </g>
     </g>
    </g>
    <g id="ytick_6">
     <g id="line2d_11">
      <g>
       <use xlink:href="#mb9e77335c4" x="406.263979" y="150.727091" style="stroke: #000000; stroke-width: 0.8"/>
      </g>
     </g>
     <g id="text_14">
      <!-- −0.50 -->
      <g transform="translate(413.263979 154.52631) scale(0.1 -0.1)">
       <use xlink:href="#DejaVuSans-2212"/>
       <use xlink:href="#DejaVuSans-30" transform="translate(83.789062 0)"/>
       <use xlink:href="#DejaVuSans-2e" transform="translate(147.412109 0)"/>
       <use xlink:href="#DejaVuSans-35" transform="translate(179.199219 0)"/>
       <use xlink:href="#DejaVuSans-30" transform="translate(242.822266 0)"/>
      </g>
     </g>
    </g>
    <g id="ytick_7">
     <g id="line2d_12">
      <g>
       <use xlink:href="#mb9e77335c4" x="406.263979" y="131.393711" style="stroke: #000000; stroke-width: 0.8"/>
      </g>
     </g>
     <g id="text_15">
      <!-- −0.25 -->
      <g transform="translate(413.263979 135.19293) scale(0.1 -0.1)">
       <use xlink:href="#DejaVuSans-2212"/>
       <use xlink:href="#DejaVuSans-30" transform="translate(83.789062 0)"/>
       <use xlink:href="#DejaVuSans-2e" transform="translate(147.412109 0)"/>
       <use xlink:href="#DejaVuSans-32" transform="translate(179.199219 0)"/>
       <use xlink:href="#DejaVuSans-35" transform="translate(242.822266 0)"/>
      </g>
     </g>
    </g>
    <g id="ytick_8">
     <g id="line2d_13">
      <g>
       <use xlink:href="#mb9e77335c4" x="406.263979" y="112.060332" style="stroke: #000000; stroke-width: 0.8"/>
      </g>
     </g>
     <g id="text_16">
      <!-- 0.00 -->
      <g transform="translate(413.263979 115.85955) scale(0.1 -0.1)">
       <use xlink:href="#DejaVuSans-30"/>
       <use xlink:href="#DejaVuSans-2e" transform="translate(63.623047 0)"/>
       <use xlink:href="#DejaVuSans-30" transform="translate(95.410156 0)"/>
       <use xlink:href="#DejaVuSans-30" transform="translate(159.033203 0)"/>
      </g>
     </g>
    </g>
    <g id="ytick_9">
     <g id="line2d_14">
      <g>
       <use xlink:href="#mb9e77335c4" x="406.263979" y="92.726952" style="stroke: #000000; stroke-width: 0.8"/>
      </g>
     </g>
     <g id="text_17">
      <!-- 0.25 -->
      <g transform="translate(413.263979 96.52617) scale(0.1 -0.1)">
       <use xlink:href="#DejaVuSans-30"/>
       <use xlink:href="#DejaVuSans-2e" transform="translate(63.623047 0)"/>
       <use xlink:href="#DejaVuSans-32" transform="translate(95.410156 0)"/>
       <use xlink:href="#DejaVuSans-35" transform="translate(159.033203 0)"/>
      </g>
     </g>
    </g>
    <g id="ytick_10">
     <g id="line2d_15">
      <g>
       <use xlink:href="#mb9e77335c4" x="406.263979" y="73.393572" style="stroke: #000000; stroke-width: 0.8"/>
      </g>
     </g>
     <g id="text_18">
      <!-- 0.50 -->
      <g transform="translate(413.263979 77.192791) scale(0.1 -0.1)">
       <use xlink:href="#DejaVuSans-30"/>
       <use xlink:href="#DejaVuSans-2e" transform="translate(63.623047 0)"/>
       <use xlink:href="#DejaVuSans-35" transform="translate(95.410156 0)"/>
       <use xlink:href="#DejaVuSans-30" transform="translate(159.033203 0)"/>
      </g>
     </g>
    </g>
    <g id="ytick_11">
     <g id="line2d_16">
      <g>
       <use xlink:href="#mb9e77335c4" x="406.263979" y="54.060192" style="stroke: #000000; stroke-width: 0.8"/>
      </g>
     </g>
     <g id="text_19">
      <!-- 0.75 -->
      <g transform="translate(413.263979 57.859411) scale(0.1 -0.1)">
       <use xlink:href="#DejaVuSans-30"/>
       <use xlink:href="#DejaVuSans-2e" transform="translate(63.623047 0)"/>
       <use xlink:href="#DejaVuSans-37" transform="translate(95.410156 0)"/>
       <use xlink:href="#DejaVuSans-35" transform="translate(159.033203 0)"/>
      </g>
     </g>
    </g>
    <g id="ytick_12">
     <g id="line2d_17">
      <g>
       <use xlink:href="#mb9e77335c4" x="406.263979" y="34.726812" style="stroke: #000000; stroke-width: 0.8"/>
      </g>
     </g>
     <g id="text_20">
      <!-- 1.00 -->
      <g transform="translate(413.263979 38.526031) scale(0.1 -0.1)">
       <use xlink:href="#DejaVuSans-31"/>
       <use xlink:href="#DejaVuSans-2e" transform="translate(63.623047 0)"/>
       <use xlink:href="#DejaVuSans-30" transform="translate(95.410156 0)"/>
       <use xlink:href="#DejaVuSans-30" transform="translate(159.033203 0)"/>
      </g>
     </g>
    </g>
    <g id="text_21">
     <!-- normalized deflection -->
     <g transform="translate(455.507729 166.236113) rotate(-90) scale(0.1 -0.1)">
      <defs>
       <path id="DejaVuSans-6e" d="M 3513 2113 
L 3513 0 
L 2938 0 
L 2938 2094 
Q 2938 2591 2744 2837 
Q 2550 3084 2163 3084 
Q 1697 3084 1428 2787 
Q 1159 2491 1159 1978 
L 1159 0 
L 581 0 
L 581 3500 
L 1159 3500 
L 1159 2956 
Q 1366 3272 1645 3428 
Q 1925 3584 2291 3584 
Q 2894 3584 3203 3211 
Q 3513 2838 3513 2113 
z
" transform="scale(0.015625)"/>
       <path id="DejaVuSans-72" d="M 2631 2963 
Q 2534 3019 2420 3045 
Q 2306 3072 2169 3072 
Q 1681 3072 1420 2755 
Q 1159 2438 1159 1844 
L 1159 0 
L 581 0 
L 581 3500 
L 1159 3500 
L 1159 2956 
Q 1341 3275 1631 3429 
Q 1922 3584 2338 3584 
Q 2397 3584 2469 3576 
Q 2541 3569 2628 3553 
L 2631 2963 
z
" transform="scale(0.015625)"/>
       <path id="DejaVuSans-61" d="M 2194 1759 
Q 1497 1759 1228 1600 
Q 959 1441 959 1056 
Q 959 750 1161 570 
Q 1363 391 1709 391 
Q 2188 391 2477 730 
Q 2766 1069 2766 1631 
L 2766 1759 
L 2194 1759 
z
M 3341 1997 
L 3341 0 
L 2766 0 
L 2766 531 
Q 2569 213 2275 61 
Q 1981 -91 1556 -91 
Q 1019 -91 701 211 
Q 384 513 384 1019 
Q 384 1609 779 1909 
Q 1175 2209 1959 2209 
L 2766 2209 
L 2766 2266 
Q 2766 2663 2505 2880 
Q 2244 3097 1772 3097 
Q 1472 3097 1187 3025 
Q 903 2953 641 2809 
L 641 3341 
Q 956 3463 1253 3523 
Q 1550 3584 1831 3584 
Q 2591 3584 2966 3190 
Q 3341 2797 3341 1997 
z
" transform="scale(0.015625)"/>
       <path id="DejaVuSans-6c" d="M 603 4863 
L 1178 4863 
L 1178 0 
L 603 0 
L 603 4863 
z
" transform="scale(0.015625)"/>
       <path id="DejaVuSans-69" d="M 603 3500 
L 1178 3500 
L 1178 0 
L 603 0 
L 603 3500 
z
M 603 4863 
L 1178 4863 
L 1178 4134 
L 603 4134 
L 603 4863 
z
" transform="scale(0.015625)"/>
       <path id="DejaVuSans-66" d="M 2375 4863 
L 2375 4384 
L 1825 4384 
Q 1516 4384 1395 4259 
Q 1275 4134 1275 3809 
L 1275 3500 
L 2222 3500 
L 2222 3053 
L 1275 3053 
L 1275 0 
L 697 0 
L 697 3053 
L 147 3053 
L 147 3500 
L 697 3500 
L 697 3744 
Q 697 4328 969 4595 
Q 1241 4863 1831 4863 
L 2375 4863 
z
" transform="scale(0.015625)"/>
       <path id="DejaVuSans-63" d="M 3122 3366 
L 3122 2828 
Q 2878 2963 2633 3030 
Q 2388 3097 2138 3097 
Q 1578 3097 1268 2742 
Q 959 2388 959 1747 
Q 959 1106 1268 751 
Q 1578 397 2138 397 
Q 2388 397 2633 464 
Q 2878 531 3122 666 
L 3122 134 
Q 2881 22 2623 -34 
Q 2366 -91 2075 -91 
Q 1284 -91 818 406 
Q 353 903 353 1747 
Q 353 2603 823 3093 
Q 1294 3584 2113 3584 
Q 2378 3584 2631 3529 
Q 2884 3475 3122 3366 
z
" transform="scale(0.015625)"/>
       <path id="DejaVuSans-74" d="M 1172 4494 
L 1172 3500 
L 2356 3500 
L 2356 3053 
L 1172 3053 
L 1172 1153 
Q 1172 725 1289 603 
Q 1406 481 1766 481 
L 2356 481 
L 2356 0 
L 1766 0 
Q 1100 0 847 248 
Q 594 497 594 1153 
L 594 3053 
L 172 3053 
L 172 3500 
L 594 3500 
L 594 4494 
L 1172 4494 
z
" transform="scale(0.015625)"/>
      </defs>
      <use xlink:href="#DejaVuSans-6e"/>
      <use xlink:href="#DejaVuSans-6f" transform="translate(63.378906 0)"/>
      <use xlink:href="#DejaVuSans-72" transform="translate(124.560547 0)"/>
      <use xlink:href="#DejaVuSans-6d" transform="translate(163.923828 0)"/>
      <use xlink:href="#DejaVuSans-61" transform="translate(261.335938 0)"/>
      <use xlink:href="#DejaVuSans-6c" transform="translate(322.615234 0)"/>
      <use xlink:href="#DejaVuSans-69" transform="translate(350.398438 0)"/>
      <use xlink:href="#DejaVuSans-7a" transform="translate(378.181641 0)"/>
      <use xlink:href="#DejaVuSans-65" transform="translate(430.671875 0)"/>
      <use xlink:href="#DejaVuSans-64" transform="translate(492.195312 0)"/>
      <use xlink:href="#DejaVuSans-20" transform="translate(555.671875 0)"/>
      <use xlink:href="#DejaVuSans-64" transform="translate(587.458984 0)"/>
      <use xlink:href="#DejaVuSans-65" transform="translate(650.935547 0)"/>
      <use xlink:href="#DejaVuSans-66" transform="translate(712.458984 0)"/>
      <use xlink:href="#DejaVuSans-6c" transform="translate(747.664062 0)"/>
      <use xlink:href="#DejaVuSans-65" transform="translate(775.447266 0)"/>
      <use xlink:href="#DejaVuSans-63" transform="translate(836.970703 0)"/>
      <use xlink:href="#DejaVuSans-74" transform="translate(891.951172 0)"/>
      <use xlink:href="#DejaVuSans-69" transform="translate(931.160156 0)"/>
      <use xlink:href="#DejaVuSans-6f" transform="translate(958.943359 0)"/>
      <use xlink:href="#DejaVuSans-6e" transform="translate(1020.125 0)"/>
     </g>
    </g>
   </g>
   <g id="LineCollection_1"/>
   <g id="patch_11">
    <path d="M 397.757292 189.393851 
L 402.010635 197.127203 
L 406.263979 189.393851 
L 406.263979 34.726812 
L 402.010635 26.99346 
L 397.757292 34.726812 
L 397.757292 189.393851 
z
" style="fill: none; stroke: #000000; stroke-width: 0.8; stroke-linejoin: miter; stroke-linecap: square"/>
   </g>
  </g>
 </g>
 <defs>
  <clipPath id="pbc1ff0281a">
   <rect x="42.765865" y="28.213808" width="335.386094" height="167.693047"/>
  </clipPath>
  <clipPath id="p0c9570fcb1">
   <rect x="397.757292" y="34.726812" width="8.506687" height="154.667039"/>
  </clipPath>
 </defs>
 <defs>
  <pattern id="h4c76c69d74" patternUnits="userSpaceOnUse" x="0" y="0" width="72" height="72">
   <rect x="0" y="0" width="73" height="73" fill="#333333"/>
   <path d="M -36 36 
L 36 -36 
M -33 39 
L 39 -33 
M -30 42 
L 42 -30 
M -27 45 
L 45 -27 
M -24 48 
L 48 -24 
M -21 51 
L 51 -21 
M -18 54 
L 54 -18 
M -15 57 
L 57 -15 
M -12 60 
L 60 -12 
M -9 63 
L 63 -9 
M -6 66 
L 66 -6 
M -3 69 
L 69 -3 
M 0 72 
L 72 0 
M 3 75 
L 75 3 
M 6 78 
L 78 6 
M 9 81 
L 81 9 
M 12 84 
L 84 12 
M 15 87 
L 87 15 
M 18 90 
L 90 18 
M 21 93 
L 93 21 
M 24 96 
L 96 24 
M 27 99 
L 99 27 
M 30 102 
L 102 30 
M 33 105 
L 105 33 
M 36 108 
L 108 36 
" style="fill: #111827; stroke: #111827; stroke-width: 1.0; stroke-linecap: butt; stroke-linejoin: miter; stroke-opacity: 0.35"/>
  </pattern>
 </defs>
</svg>
