<?xml version="1.0" encoding="utf-8" standalone="no"?>
<!DOCTYPE svg PUBLIC "-//W3C//DTD SVG 1.1//EN"
  "http://www.w3.org/Graphics/SVG/1.1/DTD/svg11.dtd">
<svg xmlns:xlink="http://www.w3.org/1999/xlink" width="460.8pt" height="234pt" viewBox="0 0 460.8 234" xmlns="http://www.w3.org/2000/svg" version="1.1">
 <metadata>
  <rdf:RDF xmlns:dc="http://purl.org/dc/elements/1.1/" xmlns:cc="http://creativecommons.org/ns#" xmlns:rdf="http://www.w3.org/1999/02/22-rdf-syntax-ns#">
   <cc:Work>
    <dc:type rdf:resource="http://purl.org/dc/dcmitype/StillImage"/>
    <dc:format>image/svg+xml</dc:format>
    <dc:creator>
     <cc:Agent>
      <dc:title>Matplotlib v3.10.3, https://matplotlib.org/</dc:title>
     </cc:Agent>
    </dc:creator>
   </cc:Work>
  </rdf:RDF>
 </metadata>
 <defs>
  <style type="text/css">*{stroke-linejoin: round; stroke-linecap: butt}</style>
 </defs>
 <g id="figure_1">
  <g id="patch_1">
   <path d="M 0 234 
L 460.8 234 
L 460.8 0 
L 0 0 
z
" style="fill: #ffffff"/>
  </g>
  <g id="axes_1">
   <g id="patch_2">
    <path d="M 42.765865 195.906855 
L 378.151959 195.906855 
L 378.151959 28.213808 
L 42.765865 28.213808 
z
" style="fill: #ffffff"/>
   </g>
   <g id="QuadContourSet_1">
    <path d="M 42.765865 195.906855 
L 42.765865 195.906855 
L 42.765865 195.906855 
z
" clip-path="url(#p6e88242586)" style="fill: #053061"/>
    <path d="M 43.490393 95.291027 
L 46.958191 96.037587 
L 51.150517 97.827766 
L 53.766015 99.483353 
L 55.342844 100.459442 
L 59.298825 103.675679 
L 59.53517 103.86437 
L 63.613109 107.868005 
L 63.727496 107.978746 
L 67.30308 112.060332 
L 67.919822 112.757532 
L 70.620095 116.252658 
L 72.112148 118.173716 
L 73.686698 120.444984 
L 76.304474 124.218831 
L 76.56797 124.63731 
L 79.182097 128.829636 
L 80.496801 130.963527 
L 81.663161 133.021962 
L 83.992525 137.214289 
L 84.689127 138.504718 
L 86.144979 141.406615 
L 88.178329 145.598941 
L 88.881453 147.11626 
L 90.043298 149.791267 
L 91.769029 153.983593 
L 93.073779 157.361632 
L 93.370626 158.175919 
L 94.779432 162.368246 
L 96.065189 166.560572 
L 97.216606 170.752898 
L 97.266105 170.959858 
L 98.169638 174.945224 
L 98.974915 179.13755 
L 99.628013 183.329876 
L 100.123065 187.522203 
L 100.455606 191.714529 
L 100.622632 195.906855 
L 97.266105 195.906855 
L 93.073779 195.906855 
L 88.881453 195.906855 
L 84.689127 195.906855 
L 80.496801 195.906855 
L 76.304474 195.906855 
L 72.112148 195.906855 
L 67.919822 195.906855 
L 63.727496 195.906855 
L 59.53517 195.906855 
L 55.342844 195.906855 
L 51.150517 195.906855 
L 46.958191 195.906855 
L 42.765865 195.906855 
L 42.765865 195.906855 
L 42.765865 191.714529 
L 42.765865 187.522203 
L 42.765865 183.329876 
L 42.765865 179.13755 
L 42.765865 174.945224 
L 42.765865 170.752898 
L 42.765865 166.560572 
L 42.765865 162.368246 
L 42.765865 158.175919 
L 42.765865 153.983593 
L 42.765865 149.791267 
L 42.765865 145.598941 
L 42.765865 141.406615 
L 42.765865 137.214289 
L 42.765865 133.021962 
L 42.765865 128.829636 
L 42.765865 124.63731 
L 42.765865 120.444984 
L 42.765865 116.252658 
L 42.765865 112.060332 
L 42.765865 107.868005 
L 42.765865 103.675679 
L 42.765865 99.483353 
L 42.765865 95.291027 
L 42.765865 95.131219 
z
" clip-path="url(#p6e88242586)" style="fill: #0e4179"/>
    <path d="M 46.958191 28.213808 
L 51.150517 28.213808 
L 55.342844 28.213808 
L 59.53517 28.213808 
L 63.727496 28.213808 
L 67.919822 28.213808 
L 72.112148 28.213808 
L 74.695578 28.213808 
L 74.895285 32.406134 
L 75.294503 36.59846 
L 75.892823 40.790787 
L 76.304474 42.960756 
L 76.64973 44.983113 
L 77.541142 49.175439 
L 78.608515 53.367765 
L 79.850259 57.560091 
L 80.496801 59.484532 
L 81.194445 61.752418 
L 82.634137 65.944744 
L 84.225109 70.13707 
L 84.689127 71.263813 
L 85.86104 74.329396 
L 87.591171 78.521722 
L 88.881453 81.44491 
L 89.40719 82.714048 
L 91.2429 86.906375 
L 93.073779 90.864087 
L 93.1766 91.098701 
L 95.085441 95.291027 
L 97.076941 99.483353 
L 97.266105 99.871655 
L 99.036212 103.675679 
L 101.043847 107.868005 
L 101.458431 108.721652 
L 103.017627 112.060332 
L 105.004685 116.252658 
L 105.650758 117.611715 
L 106.953228 120.444984 
L 108.881164 124.63731 
L 109.843084 126.746205 
L 110.766374 128.829636 
L 112.595727 133.021962 
L 114.03541 136.386561 
L 114.380856 137.214289 
L 116.072735 141.406615 
L 117.707342 145.598941 
L 118.227736 147.00066 
L 119.24071 149.791267 
L 120.678386 153.983593 
L 122.024568 158.175919 
L 122.420062 159.514063 
L 123.246347 162.368246 
L 124.348408 166.560572 
L 125.332406 170.752898 
L 126.190615 174.945224 
L 126.612388 177.385085 
L 126.909337 179.13755 
L 127.483268 183.329876 
L 127.917613 187.522203 
L 128.209039 191.714529 
L 128.355312 195.906855 
L 126.612388 195.906855 
L 122.420062 195.906855 
L 118.227736 195.906855 
L 114.03541 195.906855 
L 109.843084 195.906855 
L 105.650758 195.906855 
L 101.458431 195.906855 
L 100.622632 195.906855 
L 100.455606 191.714529 
L 100.123065 187.522203 
L 99.628013 183.329876 
L 98.974915 179.13755 
L 98.169638 174.945224 
L 97.266105 170.959858 
L 97.216606 170.752898 
L 96.065189 166.560572 
L 94.779432 162.368246 
L 93.370626 158.175919 
L 93.073779 157.361632 
L 91.769029 153.983593 
L 90.043298 149.791267 
L 88.881453 147.11626 
L 88.178329 145.598941 
L 86.144979 141.406615 
L 84.689127 138.504718 
L 83.992525 137.214289 
L 81.663161 133.021962 
L 80.496801 130.963527 
L 79.182097 128.829636 
L 76.56797 124.63731 
L 76.304474 124.218831 
L 73.686698 120.444984 
L 72.112148 118.173716 
L 70.620095 116.252658 
L 67.919822 112.757532 
L 67.30308 112.060332 
L 63.727496 107.978746 
L 63.613109 107.868005 
L 59.53517 103.86437 
L 59.298825 103.675679 
L 55.342844 100.459442 
L 53.766015 99.483353 
L 51.150517 97.827766 
L 46.958191 96.037587 
L 43.490393 95.291027 
L 42.765865 95.131219 
L 42.765865 91.098701 
L 42.765865 86.906375 
L 42.765865 82.714048 
L 42.765865 78.521722 
L 42.765865 74.329396 
L 42.765865 70.13707 
L 42.765865 65.944744 
L 42.765865 61.752418 
L 42.765865 57.560091 
L 42.765865 53.367765 
L 42.765865 49.175439 
L 42.765865 44.983113 
L 42.765865 40.790787 
L 42.765865 36.59846 
L 42.765865 32.406134 
L 42.765865 28.213808 
z
" clip-path="url(#p6e88242586)" style="fill: #1f63a8"/>
    <path d="M 76.304474 28.213808 
L 80.496801 28.213808 
L 84.689127 28.213808 
L 88.881453 28.213808 
L 93.073779 28.213808 
L 97.266105 28.213808 
L 101.458431 28.213808 
L 102.940733 28.213808 
L 103.079741 32.406134 
L 103.35763 36.59846 
L 103.774129 40.790787 
L 104.328787 44.983113 
L 105.020926 49.175439 
L 105.650758 52.366708 
L 105.840412 53.367765 
L 106.759999 57.560091 
L 107.807171 61.752418 
L 108.979772 65.944744 
L 109.843084 68.748066 
L 110.257662 70.13707 
L 111.61557 74.329396 
L 113.084207 78.521722 
L 114.03541 81.066225 
L 114.636947 82.714048 
L 116.253369 86.906375 
L 117.959765 91.098701 
L 118.227736 91.733488 
L 119.703463 95.291027 
L 121.510624 99.483353 
L 122.420062 101.536627 
L 123.355616 103.675679 
L 125.227754 107.868005 
L 126.612388 110.916677 
L 127.127371 112.060332 
L 129.024003 116.252658 
L 130.804715 120.165858 
L 130.93105 120.444984 
L 132.807802 124.63731 
L 134.670095 128.829636 
L 134.997041 129.582658 
L 136.484691 133.021962 
L 138.253622 137.214289 
L 139.189367 139.510483 
L 139.960464 141.406615 
L 141.591155 145.598941 
L 143.143281 149.791267 
L 143.381693 150.478032 
L 144.596505 153.983593 
L 145.948142 158.175919 
L 147.190861 162.368246 
L 147.574019 163.799096 
L 148.312353 166.560572 
L 149.307406 170.752898 
L 150.171804 174.945224 
L 150.900235 179.13755 
L 151.488278 183.329876 
L 151.766345 185.955999 
L 151.9318 187.522203 
L 152.22823 191.714529 
L 152.376862 195.906855 
L 151.766345 195.906855 
L 147.574019 195.906855 
L 143.381693 195.906855 
L 139.189367 195.906855 
L 134.997041 195.906855 
L 130.804715 195.906855 
L 128.355312 195.906855 
L 128.209039 191.714529 
L 127.917613 187.522203 
L 127.483268 183.329876 
L 126.909337 179.13755 
L 126.612388 177.385085 
L 126.190615 174.945224 
L 125.332406 170.752898 
L 124.348408 166.560572 
L 123.246347 162.368246 
L 122.420062 159.514063 
L 122.024568 158.175919 
L 120.678386 153.983593 
L 119.24071 149.791267 
L 118.227736 147.00066 
L 117.707342 145.598941 
L 116.072735 141.406615 
L 114.380856 137.214289 
L 114.03541 136.386561 
L 112.595727 133.021962 
L 110.766374 128.829636 
L 109.843084 126.746205 
L 108.881164 124.63731 
L 106.953228 120.444984 
L 105.650758 117.611715 
L 105.004685 116.252658 
L 103.017627 112.060332 
L 101.458431 108.721652 
L 101.043847 107.868005 
L 99.036212 103.675679 
L 97.266105 99.871655 
L 97.076941 99.483353 
L 95.085441 95.291027 
L 93.1766 91.098701 
L 93.073779 90.864087 
L 91.2429 86.906375 
L 89.40719 82.714048 
L 88.881453 81.44491 
L 87.591171 78.521722 
L 85.86104 74.329396 
L 84.689127 71.263813 
L 84.225109 70.13707 
L 82.634137 65.944744 
L 81.194445 61.752418 
L 80.496801 59.484532 
L 79.850259 57.560091 
L 78.608515 53.367765 
L 77.541142 49.175439 
L 76.64973 44.983113 
L 76.304474 42.960756 
L 75.892823 40.790787 
L 75.294503 36.59846 
L 74.895285 32.406134 
L 74.695578 28.213808 
z
" clip-path="url(#p6e88242586)" style="fill: #3480b9"/>
    <path d="M 105.650758 28.213808 
L 109.843084 28.213808 
L 114.03541 28.213808 
L 118.227736 28.213808 
L 122.420062 28.213808 
L 123.408367 28.213808 
L 123.545453 32.406134 
L 123.819517 36.59846 
L 124.230322 40.790787 
L 124.777455 44.983113 
L 125.460264 49.175439 
L 126.277772 53.367765 
L 126.612388 54.850952 
L 127.214742 57.560091 
L 128.273002 61.752418 
L 129.457711 65.944744 
L 130.765645 70.13707 
L 130.804715 70.253137 
L 132.16891 74.329396 
L 133.684178 78.521722 
L 134.997041 81.923629 
L 135.302132 82.714048 
L 137.00216 86.906375 
L 138.79208 91.098701 
L 139.189367 91.998501 
L 140.650808 95.291027 
L 142.575074 99.483353 
L 143.381693 101.203233 
L 144.551682 103.675679 
L 146.568229 107.868005 
L 147.574019 109.941452 
L 148.61375 112.060332 
L 150.672867 116.252658 
L 151.766345 118.490809 
L 152.733649 120.444984 
L 154.780338 124.63731 
L 155.958672 127.098019 
L 156.799423 128.829636 
L 158.776983 133.021962 
L 160.150998 136.034498 
L 160.696712 137.214289 
L 162.550615 141.406615 
L 164.315786 145.598941 
L 164.343324 145.668494 
L 165.996633 149.791267 
L 167.566471 153.983593 
L 168.53565 156.786693 
L 169.022196 158.175919 
L 170.359415 162.368246 
L 171.561608 166.560572 
L 172.623834 170.752898 
L 172.727976 171.228852 
L 173.550789 174.945224 
L 174.328904 179.13755 
L 174.954411 183.329876 
L 175.425281 187.522203 
L 175.740017 191.714529 
L 175.897631 195.906855 
L 172.727976 195.906855 
L 168.53565 195.906855 
L 164.343324 195.906855 
L 160.150998 195.906855 
L 155.958672 195.906855 
L 152.376862 195.906855 
L 152.22823 191.714529 
L 151.9318 187.522203 
L 151.766345 185.955999 
L 151.488278 183.329876 
L 150.900235 179.13755 
L 150.171804 174.945224 
L 149.307406 170.752898 
L 148.312353 166.560572 
L 147.574019 163.799096 
L 147.190861 162.368246 
L 145.948142 158.175919 
L 144.596505 153.983593 
L 143.381693 150.478032 
L 143.143281 149.791267 
L 141.591155 145.598941 
L 139.960464 141.406615 
L 139.189367 139.510483 
L 138.253622 137.214289 
L 136.484691 133.021962 
L 134.997041 129.582658 
L 134.670095 128.829636 
L 132.807802 124.63731 
L 130.93105 120.444984 
L 130.804715 120.165858 
L 129.024003 116.252658 
L 127.127371 112.060332 
L 126.612388 110.916677 
L 125.227754 107.868005 
L 123.355616 103.675679 
L 122.420062 101.536627 
L 121.510624 99.483353 
L 119.703463 95.291027 
L 118.227736 91.733488 
L 117.959765 91.098701 
L 116.253369 86.906375 
L 114.636947 82.714048 
L 114.03541 81.066225 
L 113.084207 78.521722 
L 111.61557 74.329396 
L 110.257662 70.13707 
L 109.843084 68.748066 
L 108.979772 65.944744 
L 107.807171 61.752418 
L 106.759999 57.560091 
L 105.840412 53.367765 
L 105.650758 52.366708 
L 105.020926 49.175439 
L 104.328787 44.983113 
L 103.774129 40.790787 
L 103.35763 36.59846 
L 103.079741 32.406134 
L 102.940733 28.213808 
z
" clip-path="url(#p6e88242586)" style="fill: #529dc8"/>
    <path d="M 126.612388 28.213808 
L 130.804715 28.213808 
L 134.997041 28.213808 
L 139.189367 28.213808 
L 141.416639 28.213808 
L 141.567761 32.406134 
L 141.869925 36.59846 
L 142.322942 40.790787 
L 142.926439 44.983113 
L 143.381693 47.523436 
L 143.678134 49.175439 
L 144.575511 53.367765 
L 145.619615 57.560091 
L 146.808135 61.752418 
L 147.574019 64.178831 
L 148.137881 65.944744 
L 149.604941 70.13707 
L 151.203372 74.329396 
L 151.766345 75.711945 
L 152.932446 78.521722 
L 154.780424 82.714048 
L 155.958672 85.257318 
L 156.741393 86.906375 
L 158.807564 91.098701 
L 160.150998 93.738275 
L 160.963551 95.291027 
L 163.201398 99.483353 
L 164.343324 101.593079 
L 165.504348 103.675679 
L 167.852598 107.868005 
L 168.53565 109.092027 
L 170.242005 112.060332 
L 172.62917 116.252658 
L 172.727976 116.429649 
L 175.034919 120.444984 
L 176.920302 123.808719 
L 177.398502 124.63731 
L 179.734662 128.829636 
L 181.112629 131.403658 
L 182.002978 133.021962 
L 184.199497 137.214289 
L 185.304955 139.443699 
L 186.30352 141.406615 
L 188.304182 145.598941 
L 189.497281 148.284158 
L 190.183411 149.791267 
L 191.944292 153.983593 
L 193.550942 158.175919 
L 193.689607 158.575738 
L 195.035401 162.368246 
L 196.359195 166.560572 
L 197.518168 170.752898 
L 197.881933 172.284959 
L 198.528309 174.945224 
L 199.377375 179.13755 
L 200.056116 183.329876 
L 200.564873 187.522203 
L 200.9039 191.714529 
L 201.07337 195.906855 
L 197.881933 195.906855 
L 193.689607 195.906855 
L 189.497281 195.906855 
L 185.304955 195.906855 
L 181.112629 195.906855 
L 176.920302 195.906855 
L 175.897631 195.906855 
L 175.740017 191.714529 
L 175.425281 187.522203 
L 174.954411 183.329876 
L 174.328904 179.13755 
L 173.550789 174.945224 
L 172.727976 171.228852 
L 172.623834 170.752898 
L 171.561608 166.560572 
L 170.359415 162.368246 
L 169.022196 158.175919 
L 168.53565 156.786693 
L 167.566471 153.983593 
L 165.996633 149.791267 
L 164.343324 145.668494 
L 164.315786 145.598941 
L 162.550615 141.406615 
L 160.696712 137.214289 
L 160.150998 136.034498 
L 158.776983 133.021962 
L 156.799423 128.829636 
L 155.958672 127.098019 
L 154.780338 124.63731 
L 152.733649 120.444984 
L 151.766345 118.490809 
L 150.672867 116.252658 
L 148.61375 112.060332 
L 147.574019 109.941452 
L 146.568229 107.868005 
L 144.551682 103.675679 
L 143.381693 101.203233 
L 142.575074 99.483353 
L 140.650808 95.291027 
L 139.189367 91.998501 
L 138.79208 91.098701 
L 137.00216 86.906375 
L 135.302132 82.714048 
L 134.997041 81.923629 
L 133.684178 78.521722 
L 132.16891 74.329396 
L 130.804715 70.253137 
L 130.765645 70.13707 
L 129.457711 65.944744 
L 128.273002 61.752418 
L 127.214742 57.560091 
L 126.612388 54.850952 
L 126.277772 53.367765 
L 125.460264 49.175439 
L 124.777455 44.983113 
L 124.230322 40.790787 
L 123.819517 36.59846 
L 123.545453 32.406134 
L 123.408367 28.213808 
z
" clip-path="url(#p6e88242586)" style="fill: #84bcd9"/>
    <path d="M 143.381693 28.213808 
L 147.574019 28.213808 
L 151.766345 28.213808 
L 155.958672 28.213808 
L 158.836988 28.213808 
L 159.013714 32.406134 
L 159.367343 36.59846 
L 159.898153 40.790787 
L 160.150998 42.292966 
L 160.613533 44.983113 
L 161.512865 49.175439 
L 162.591527 53.367765 
L 163.847781 57.560091 
L 164.343324 59.023308 
L 165.299156 61.752418 
L 166.934306 65.944744 
L 168.53565 69.681193 
L 168.739518 70.13707 
L 170.749383 74.329396 
L 172.727976 78.189912 
L 172.906619 78.521722 
L 175.261885 82.714048 
L 176.920302 85.554235 
L 177.752204 86.906375 
L 180.38831 91.098701 
L 181.112629 92.235966 
L 183.161426 95.291027 
L 185.304955 98.480591 
L 186.014856 99.483353 
L 188.95293 103.675679 
L 189.497281 104.464799 
L 191.958443 107.868005 
L 193.689607 110.325221 
L 194.968757 112.060332 
L 197.881933 116.155191 
L 197.954317 116.252658 
L 200.944582 120.444984 
L 202.07426 122.107254 
L 203.859755 124.63731 
L 206.266586 128.247039 
L 206.669104 128.829636 
L 209.398967 133.021962 
L 210.458912 134.763482 
L 211.999409 137.214289 
L 214.439905 141.406615 
L 214.651238 141.797958 
L 216.766909 145.598941 
L 218.843564 149.69508 
L 218.893808 149.791267 
L 220.897496 153.983593 
L 222.692329 158.175919 
L 223.03589 159.071458 
L 224.339167 162.368246 
L 225.796274 166.560572 
L 227.056507 170.752898 
L 227.228217 171.421516 
L 228.162637 174.945224 
L 229.08149 179.13755 
L 229.810928 183.329876 
L 230.354782 187.522203 
L 230.71584 191.714529 
L 230.895921 195.906855 
L 227.228217 195.906855 
L 223.03589 195.906855 
L 218.843564 195.906855 
L 214.651238 195.906855 
L 210.458912 195.906855 
L 206.266586 195.906855 
L 202.07426 195.906855 
L 201.07337 195.906855 
L 200.9039 191.714529 
L 200.564873 187.522203 
L 200.056116 183.329876 
L 199.377375 179.13755 
L 198.528309 174.945224 
L 197.881933 172.284959 
L 197.518168 170.752898 
L 196.359195 166.560572 
L 195.035401 162.368246 
L 193.689607 158.575738 
L 193.550942 158.175919 
L 191.944292 153.983593 
L 190.183411 149.791267 
L 189.497281 148.284158 
L 188.304182 145.598941 
L 186.30352 141.406615 
L 185.304955 139.443699 
L 184.199497 137.214289 
L 182.002978 133.021962 
L 181.112629 131.403658 
L 179.734662 128.829636 
L 177.398502 124.63731 
L 176.920302 123.808719 
L 175.034919 120.444984 
L 172.727976 116.429649 
L 172.62917 116.252658 
L 170.242005 112.060332 
L 168.53565 109.092027 
L 167.852598 107.868005 
L 165.504348 103.675679 
L 164.343324 101.593079 
L 163.201398 99.483353 
L 160.963551 95.291027 
L 160.150998 93.738275 
L 158.807564 91.098701 
L 156.741393 86.906375 
L 155.958672 85.257318 
L 154.780424 82.714048 
L 152.932446 78.521722 
L 151.766345 75.711945 
L 151.203372 74.329396 
L 149.604941 70.13707 
L 148.137881 65.944744 
L 147.574019 64.178831 
L 146.808135 61.752418 
L 145.619615 57.560091 
L 144.575511 53.367765 
L 143.678134 49.175439 
L 143.381693 47.523436 
L 142.926439 44.983113 
L 142.322942 40.790787 
L 141.869925 36.59846 
L 141.567761 32.406134 
L 141.416639 28.213808 
z
" clip-path="url(#p6e88242586)" style="fill: #aed3e6"/>
    <path d="M 160.150998 28.213808 
L 164.343324 28.213808 
L 168.53565 28.213808 
L 172.727976 28.213808 
L 176.920302 28.213808 
L 177.499458 28.213808 
L 177.724102 32.406134 
L 178.175098 36.59846 
L 178.856251 40.790787 
L 179.773533 44.983113 
L 180.933643 49.175439 
L 181.112629 49.712157 
L 182.414829 53.367765 
L 184.164981 57.560091 
L 185.304955 59.96397 
L 186.22656 61.752418 
L 188.612498 65.944744 
L 189.497281 67.387076 
L 191.349529 70.13707 
L 193.689607 73.442558 
L 194.38306 74.329396 
L 197.737604 78.521722 
L 197.881933 78.699878 
L 201.435475 82.714048 
L 202.07426 83.440624 
L 205.381935 86.906375 
L 206.266586 87.85312 
L 209.529103 91.098701 
L 210.458912 92.053723 
L 213.816495 95.291027 
L 214.651238 96.128974 
L 218.177694 99.483353 
L 218.843564 100.14727 
L 222.547252 103.675679 
L 223.03589 104.166504 
L 226.865775 107.868005 
L 227.228217 108.239332 
L 231.082703 112.060332 
L 231.420543 112.417189 
L 235.157082 116.252658 
L 235.612869 116.753763 
L 239.056989 120.444984 
L 239.805195 121.30843 
L 242.75815 124.63731 
L 243.997521 126.150084 
L 246.242226 128.829636 
L 248.189847 131.361825 
L 249.49502 133.021962 
L 252.382174 137.047121 
L 252.504778 137.214289 
L 255.337632 141.406615 
L 256.5745 143.436422 
L 257.926091 145.598941 
L 260.280874 149.791267 
L 260.766826 150.75132 
L 262.451289 153.983593 
L 264.380062 158.175919 
L 264.959152 159.597668 
L 266.126076 162.368246 
L 267.663249 166.560572 
L 268.975306 170.752898 
L 269.151478 171.415133 
L 270.12951 174.945224 
L 271.082155 179.13755 
L 271.833085 183.329876 
L 272.38993 187.522203 
L 272.758195 191.714529 
L 272.941449 195.906855 
L 269.151478 195.906855 
L 264.959152 195.906855 
L 260.766826 195.906855 
L 256.5745 195.906855 
L 252.382174 195.906855 
L 248.189847 195.906855 
L 243.997521 195.906855 
L 239.805195 195.906855 
L 235.612869 195.906855 
L 231.420543 195.906855 
L 230.895921 195.906855 
L 230.71584 191.714529 
L 230.354782 187.522203 
L 229.810928 183.329876 
L 229.08149 179.13755 
L 228.162637 174.945224 
L 227.228217 171.421516 
L 227.056507 170.752898 
L 225.796274 166.560572 
L 224.339167 162.368246 
L 223.03589 159.071458 
L 222.692329 158.175919 
L 220.897496 153.983593 
L 218.893808 149.791267 
L 218.843564 149.69508 
L 216.766909 145.598941 
L 214.651238 141.797958 
L 214.439905 141.406615 
L 211.999409 137.214289 
L 210.458912 134.763482 
L 209.398967 133.021962 
L 206.669104 128.829636 
L 206.266586 128.247039 
L 203.859755 124.63731 
L 202.07426 122.107254 
L 200.944582 120.444984 
L 197.954317 116.252658 
L 197.881933 116.155191 
L 194.968757 112.060332 
L 193.689607 110.325221 
L 191.958443 107.868005 
L 189.497281 104.464799 
L 188.95293 103.675679 
L 186.014856 99.483353 
L 185.304955 98.480591 
L 183.161426 95.291027 
L 181.112629 92.235966 
L 180.38831 91.098701 
L 177.752204 86.906375 
L 176.920302 85.554235 
L 175.261885 82.714048 
L 172.906619 78.521722 
L 172.727976 78.189912 
L 170.749383 74.329396 
L 168.739518 70.13707 
L 168.53565 69.681193 
L 166.934306 65.944744 
L 165.299156 61.752418 
L 164.343324 59.023308 
L 163.847781 57.560091 
L 162.591527 53.367765 
L 161.512865 49.175439 
L 160.613533 44.983113 
L 160.150998 42.292966 
L 159.898153 40.790787 
L 159.367343 36.59846 
L 159.013714 32.406134 
L 158.836988 28.213808 
z
" clip-path="url(#p6e88242586)" style="fill: #d4e6f1"/>
    <path d="M 181.112629 28.213808 
L 185.304955 28.213808 
L 189.497281 28.213808 
L 193.689607 28.213808 
L 197.881933 28.213808 
L 202.07426 28.213808 
L 206.266586 28.213808 
L 210.458912 28.213808 
L 214.651238 28.213808 
L 218.843564 28.213808 
L 223.03589 28.213808 
L 227.228217 28.213808 
L 231.420543 28.213808 
L 235.612869 28.213808 
L 239.805195 28.213808 
L 243.997521 28.213808 
L 248.189847 28.213808 
L 252.382174 28.213808 
L 256.5745 28.213808 
L 260.766826 28.213808 
L 264.959152 28.213808 
L 269.151478 28.213808 
L 273.343804 28.213808 
L 277.536131 28.213808 
L 281.728457 28.213808 
L 285.920783 28.213808 
L 290.113109 28.213808 
L 294.305435 28.213808 
L 294.305435 28.213808 
L 294.305435 32.406134 
L 294.305435 36.59846 
L 294.305435 40.790787 
L 294.305435 44.983113 
L 295.663772 49.175439 
L 298.497761 52.377809 
L 299.037392 53.367765 
L 302.690088 57.41232 
L 302.792805 57.560091 
L 306.805572 61.752418 
L 306.882414 61.817222 
L 311.013917 65.944744 
L 311.07474 65.996849 
L 315.267066 70.045849 
L 315.353467 70.13707 
L 319.459392 73.997019 
L 319.790515 74.329396 
L 323.651719 77.886983 
L 324.310018 78.521722 
L 327.844045 81.721992 
L 328.909501 82.714048 
L 332.036371 85.497385 
L 333.601292 86.906375 
L 336.228697 89.199682 
L 338.414604 91.098701 
L 340.421023 92.807288 
L 343.400613 95.291027 
L 344.613349 96.290602 
L 348.642655 99.483353 
L 348.805676 99.611945 
L 352.998002 102.676846 
L 354.485593 103.675679 
L 357.190328 105.482741 
L 361.194424 107.868005 
L 361.382654 107.979919 
L 365.57498 110.043601 
L 369.767306 111.680871 
L 371.18206 112.060332 
L 373.959633 112.794166 
L 378.151959 113.358719 
L 378.151959 116.252658 
L 378.151959 120.444984 
L 378.151959 124.63731 
L 378.151959 128.829636 
L 378.151959 133.021962 
L 378.151959 137.214289 
L 378.151959 141.406615 
L 378.151959 145.598941 
L 378.151959 149.791267 
L 378.151959 153.983593 
L 378.151959 158.175919 
L 378.151959 162.368246 
L 378.151959 166.560572 
L 378.151959 170.752898 
L 378.151959 174.945224 
L 378.151959 179.13755 
L 378.151959 183.329876 
L 378.151959 187.522203 
L 378.151959 191.714529 
L 378.151959 195.906855 
L 373.959633 195.906855 
L 369.767306 195.906855 
L 365.57498 195.906855 
L 361.382654 195.906855 
L 357.190328 195.906855 
L 352.998002 195.906855 
L 348.805676 195.906855 
L 344.613349 195.906855 
L 340.421023 195.906855 
L 336.228697 195.906855 
L 332.036371 195.906855 
L 327.844045 195.906855 
L 323.651719 195.906855 
L 319.459392 195.906855 
L 315.267066 195.906855 
L 311.07474 195.906855 
L 306.882414 195.906855 
L 302.690088 195.906855 
L 298.497761 195.906855 
L 294.305435 195.906855 
L 290.113109 195.906855 
L 285.920783 195.906855 
L 281.728457 195.906855 
L 277.536131 195.906855 
L 273.343804 195.906855 
L 272.941449 195.906855 
L 272.758195 191.714529 
L 272.38993 187.522203 
L 271.833085 183.329876 
L 271.082155 179.13755 
L 270.12951 174.945224 
L 269.151478 171.415133 
L 268.975306 170.752898 
L 267.663249 166.560572 
L 266.126076 162.368246 
L 264.959152 159.597668 
L 264.380062 158.175919 
L 262.451289 153.983593 
L 260.766826 150.75132 
L 260.280874 149.791267 
L 257.926091 145.598941 
L 256.5745 143.436422 
L 255.337632 141.406615 
L 252.504778 137.214289 
L 252.382174 137.047121 
L 249.49502 133.021962 
L 248.189847 131.361825 
L 246.242226 128.829636 
L 243.997521 126.150084 
L 242.75815 124.63731 
L 239.805195 121.30843 
L 239.056989 120.444984 
L 235.612869 116.753763 
L 235.157082 116.252658 
L 231.420543 112.417189 
L 231.082703 112.060332 
L 227.228217 108.239332 
L 226.865775 107.868005 
L 223.03589 104.166504 
L 222.547252 103.675679 
L 218.843564 100.14727 
L 218.177694 99.483353 
L 214.651238 96.128974 
L 213.816495 95.291027 
L 210.458912 92.053723 
L 209.529103 91.098701 
L 206.266586 87.85312 
L 205.381935 86.906375 
L 202.07426 83.440624 
L 201.435475 82.714048 
L 197.881933 78.699878 
L 197.737604 78.521722 
L 194.38306 74.329396 
L 193.689607 73.442558 
L 191.349529 70.13707 
L 189.497281 67.387076 
L 188.612498 65.944744 
L 186.22656 61.752418 
L 185.304955 59.96397 
L 184.164981 57.560091 
L 182.414829 53.367765 
L 181.112629 49.712157 
L 180.933643 49.175439 
L 179.773533 44.983113 
L 178.856251 40.790787 
L 178.175098 36.59846 
L 177.724102 32.406134 
L 177.499458 28.213808 
z
" clip-path="url(#p6e88242586)" style="fill: #ecf2f5"/>
    <path d="M 298.497761 28.213808 
L 302.690088 28.213808 
L 306.882414 28.213808 
L 311.07474 28.213808 
L 315.267066 28.213808 
L 319.459392 28.213808 
L 323.651719 28.213808 
L 327.844045 28.213808 
L 332.036371 28.213808 
L 336.228697 28.213808 
L 340.421023 28.213808 
L 344.613349 28.213808 
L 348.805676 28.213808 
L 352.998002 28.213808 
L 357.190328 28.213808 
L 361.382654 28.213808 
L 365.57498 28.213808 
L 369.767306 28.213808 
L 373.959633 28.213808 
L 378.151959 28.213808 
L 378.151959 32.406134 
L 378.151959 36.59846 
L 378.151959 40.790787 
L 378.151959 44.983113 
L 378.151959 49.175439 
L 378.151959 53.367765 
L 378.151959 57.560091 
L 378.151959 61.752418 
L 378.151959 65.944744 
L 378.151959 70.13707 
L 378.151959 74.329396 
L 378.151959 78.521722 
L 378.151959 82.714048 
L 378.151959 86.906375 
L 378.151959 91.098701 
L 378.151959 95.291027 
L 378.151959 99.483353 
L 378.151959 103.675679 
L 378.151959 107.868005 
L 378.151959 112.060332 
L 378.151959 113.358719 
L 373.959633 112.794166 
L 371.18206 112.060332 
L 369.767306 111.680871 
L 365.57498 110.043601 
L 361.382654 107.979919 
L 361.194424 107.868005 
L 357.190328 105.482741 
L 354.485593 103.675679 
L 352.998002 102.676846 
L 348.805676 99.611945 
L 348.642655 99.483353 
L 344.613349 96.290602 
L 343.400613 95.291027 
L 340.421023 92.807288 
L 338.414604 91.098701 
L 336.228697 89.199682 
L 333.601292 86.906375 
L 332.036371 85.497385 
L 328.909501 82.714048 
L 327.844045 81.721992 
L 324.310018 78.521722 
L 323.651719 77.886983 
L 319.790515 74.329396 
L 319.459392 73.997019 
L 315.353467 70.13707 
L 315.267066 70.045849 
L 311.07474 65.996849 
L 311.013917 65.944744 
L 306.882414 61.817222 
L 306.805572 61.752418 
L 302.792805 57.560091 
L 302.690088 57.41232 
L 299.037392 53.367765 
L 298.497761 52.377809 
L 295.663772 49.175439 
L 294.305435 44.983113 
L 294.305435 40.790787 
L 294.305435 36.59846 
L 294.305435 32.406134 
L 294.305435 28.213808 
z
" clip-path="url(#p6e88242586)" style="fill: #f9eee7"/>
    <path clip-path="url(#p6e88242586)" style="fill: #fddcc9"/>
    <path clip-path="url(#p6e88242586)" style="fill: #f8bb9e"/>
    <path clip-path="url(#p6e88242586)" style="fill: #ee9677"/>
    <path clip-path="url(#p6e88242586)" style="fill: #db6b55"/>
    <path clip-path="url(#p6e88242586)" style="fill: #c53e3d"/>
    <path clip-path="url(#p6e88242586)" style="fill: #ab162a"/>
    <path clip-path="url(#p6e88242586)" style="fill: #7c0722"/>
    <path clip-path="url(#p6e88242586)" style="fill: #67001f"/>
   </g>
   <g id="patch_3">
    <path d="M 210.458912 28.213808 
L 294.305435 28.213808 
L 294.305435 44.983113 
L 210.458912 44.983113 
z
" clip-path="url(#p6e88242586)" style="fill: url(#h95ba8247b8); opacity: 0.35; stroke: #111827; stroke-width: 1.2; stroke-linejoin: miter"/>
   </g>
   <g id="PathCollection_1">
    <defs>
     <path id="m03364b88e6" d="M -0 4.582576 
L 4.582576 0 
L 0 -4.582576 
L -4.582576 -0 
z
" style="stroke: #111827; stroke-width: 0.7"/>
    </defs>
    <g clip-path="url(#p6e88242586)">
     <use xlink:href="#m03364b88e6" x="210.458912" y="112.060332" style="fill: #f5b942; stroke: #111827; stroke-width: 0.7"/>
    </g>
   </g>
   <g id="matplotlib.axis_1">
    <g id="xtick_1">
     <g id="line2d_1">
      <defs>
       <path id="m811897554a" d="M 0 0 
L 0 3.5 
" style="stroke: #000000; stroke-width: 0.8"/>
      </defs>
      <g>
       <use xlink:href="#m811897554a" x="42.765865" y="195.906855" style="stroke: #000000; stroke-width: 0.8"/>
      </g>
     </g>
     <g id="text_1">
      <!-- 0 -->
      <g transform="translate(39.584615 210.505292) scale(0.1 -0.1)">
       <defs>
        <path id="DejaVuSans-30" d="M 2034 4250 
Q 1547 4250 1301 3770 
Q 1056 3291 1056 2328 
Q 1056 1369 1301 889 
Q 1547 409 2034 409 
Q 2525 409 2770 889 
Q 3016 1369 3016 2328 
Q 3016 3291 2770 3770 
Q 2525 4250 2034 4250 
z
M 2034 4750 
Q 2819 4750 3233 4129 
Q 3647 3509 3647 2328 
Q 3647 1150 3233 529 
Q 2819 -91 2034 -91 
Q 1250 -91 836 529 
Q 422 1150 422 2328 
Q 422 3509 836 4129 
Q 1250 4750 2034 4750 
z
" transform="scale(0.015625)"/>
       </defs>
       <use xlink:href="#DejaVuSans-30"/>
      </g>
     </g>
    </g>
    <g id="xtick_2">
     <g id="line2d_2">
      <g>
       <use xlink:href="#m811897554a" x="126.612388" y="195.906855" style="stroke: #000000; stroke-width: 0.8"/>
      </g>
     </g>
     <g id="text_2">
      <!-- 100 -->
      <g transform="translate(117.068638 210.505292) scale(0.1 -0.1)">
       <defs>
        <path id="DejaVuSans-31" d="M 794 531 
L 1825 531 
L 1825 4091 
L 703 3866 
L 703 4441 
L 1819 4666 
L 2450 4666 
L 2450 531 
L 3481 531 
L 3481 0 
L 794 0 
L 794 531 
z
" transform="scale(0.015625)"/>
       </defs>
       <use xlink:href="#DejaVuSans-31"/>
       <use xlink:href="#DejaVuSans-30" transform="translate(63.623047 0)"/>
       <use xlink:href="#DejaVuSans-30" transform="translate(127.246094 0)"/>
      </g>
     </g>
    </g>
    <g id="xtick_3">
     <g id="line2d_3">
      <g>
       <use xlink:href="#m811897554a" x="210.458912" y="195.906855" style="stroke: #000000; stroke-width: 0.8"/>
      </g>
     </g>
     <g id="text_3">
      <!-- 200 -->
      <g transform="translate(200.915162 210.505292) scale(0.1 -0.1)">
       <defs>
        <path id="DejaVuSans-32" d="M 1228 531 
L 3431 531 
L 3431 0 
L 469 0 
L 469 531 
Q 828 903 1448 1529 
Q 2069 2156 2228 2338 
Q 2531 2678 2651 2914 
Q 2772 3150 2772 3378 
Q 2772 3750 2511 3984 
Q 2250 4219 1831 4219 
Q 1534 4219 1204 4116 
Q 875 4013 500 3803 
L 500 4441 
Q 881 4594 1212 4672 
Q 1544 4750 1819 4750 
Q 2544 4750 2975 4387 
Q 3406 4025 3406 3419 
Q 3406 3131 3298 2873 
Q 3191 2616 2906 2266 
Q 2828 2175 2409 1742 
Q 1991 1309 1228 531 
z
" transform="scale(0.015625)"/>
       </defs>
       <use xlink:href="#DejaVuSans-32"/>
       <use xlink:href="#DejaVuSans-30" transform="translate(63.623047 0)"/>
       <use xlink:href="#DejaVuSans-30" transform="translate(127.246094 0)"/>
      </g>
     </g>
    </g>
    <g id="xtick_4">
     <g id="line2d_4">
      <g>
       <use xlink:href="#m811897554a" x="294.305435" y="195.906855" style="stroke: #000000; stroke-width: 0.8"/>
      </g>
     </g>
     <g id="text_4">
      <!-- 300 -->
      <g transform="translate(284.761685 210.505292) scale(0.1 -0.1)">
       <defs>
        <path id="DejaVuSans-33" d="M 2597 2516 
Q 3050 2419 3304 2112 
Q 3559 1806 3559 1356 
Q 3559 666 3084 287 
Q 2609 -91 1734 -91 
Q 1441 -91 1130 -33 
Q 819 25 488 141 
L 488 750 
Q 750 597 1062 519 
Q 1375 441 1716 441 
Q 2309 441 2620 675 
Q 2931 909 2931 1356 
Q 2931 1769 2642 2001 
Q 2353 2234 1838 2234 
L 1294 2234 
L 1294 2753 
L 1863 2753 
Q 2328 2753 2575 2939 
Q 2822 3125 2822 3475 
Q 2822 3834 2567 4026 
Q 2313 4219 1838 4219 
Q 1578 4219 1281 4162 
Q 984 4106 628 3988 
L 628 4550 
Q 988 4650 1302 4700 
Q 1616 4750 1894 4750 
Q 2613 4750 3031 4423 
Q 3450 4097 3450 3541 
Q 3450 3153 3228 2886 
Q 3006 2619 2597 2516 
z
" transform="scale(0.015625)"/>
       </defs>
       <use xlink:href="#DejaVuSans-33"/>
       <use xlink:href="#DejaVuSans-30" transform="translate(63.623047 0)"/>
       <use xlink:href="#DejaVuSans-30" transform="translate(127.246094 0)"/>
      </g>
     </g>
    </g>
    <g id="xtick_5">
     <g id="line2d_5">
      <g>
       <use xlink:href="#m811897554a" x="378.151959" y="195.906855" style="stroke: #000000; stroke-width: 0.8"/>
      </g>
     </g>
     <g id="text_5">
      <!-- 400 -->
      <g transform="translate(368.608209 210.505292) scale(0.1 -0.1)">
       <defs>
        <path id="DejaVuSans-34" d="M 2419 4116 
L 825 1625 
L 2419 1625 
L 2419 4116 
z
M 2253 4666 
L 3047 4666 
L 3047 1625 
L 3713 1625 
L 3713 1100 
L 3047 1100 
L 3047 0 
L 2419 0 
L 2419 1100 
L 313 1100 
L 313 1709 
L 2253 4666 
z
" transform="scale(0.015625)"/>
       </defs>
       <use xlink:href="#DejaVuSans-34"/>
       <use xlink:href="#DejaVuSans-30" transform="translate(63.623047 0)"/>
       <use xlink:href="#DejaVuSans-30" transform="translate(127.246094 0)"/>
      </g>
     </g>
    </g>
    <g id="text_6">
     <!-- x [mm] -->
     <g transform="translate(192.268287 224.183417) scale(0.1 -0.1)">
      <defs>
       <path id="DejaVuSans-78" d="M 3513 3500 
L 2247 1797 
L 3578 0 
L 2900 0 
L 1881 1375 
L 863 0 
L 184 0 
L 1544 1831 
L 300 3500 
L 978 3500 
L 1906 2253 
L 2834 3500 
L 3513 3500 
z
" transform="scale(0.015625)"/>
       <path id="DejaVuSans-20" transform="scale(0.015625)"/>
       <path id="DejaVuSans-5b" d="M 550 4863 
L 1875 4863 
L 1875 4416 
L 1125 4416 
L 1125 -397 
L 1875 -397 
L 1875 -844 
L 550 -844 
L 550 4863 
z
" transform="scale(0.015625)"/>
       <path id="DejaVuSans-6d" d="M 3328 2828 
Q 3544 3216 3844 3400 
Q 4144 3584 4550 3584 
Q 5097 3584 5394 3201 
Q 5691 2819 5691 2113 
L 5691 0 
L 5113 0 
L 5113 2094 
Q 5113 2597 4934 2840 
Q 4756 3084 4391 3084 
Q 3944 3084 3684 2787 
Q 3425 2491 3425 1978 
L 3425 0 
L 2847 0 
L 2847 2094 
Q 2847 2600 2669 2842 
Q 2491 3084 2119 3084 
Q 1678 3084 1418 2786 
Q 1159 2488 1159 1978 
L 1159 0 
L 581 0 
L 581 3500 
L 1159 3500 
L 1159 2956 
Q 1356 3278 1631 3431 
Q 1906 3584 2284 3584 
Q 2666 3584 2933 3390 
Q 3200 3197 3328 2828 
z
" transform="scale(0.015625)"/>
       <path id="DejaVuSans-5d" d="M 1947 4863 
L 1947 -844 
L 622 -844 
L 622 -397 
L 1369 -397 
L 1369 4416 
L 622 4416 
L 622 4863 
L 1947 4863 
z
" transform="scale(0.015625)"/>
      </defs>
      <use xlink:href="#DejaVuSans-78"/>
      <use xlink:href="#DejaVuSans-20" transform="translate(59.179688 0)"/>
      <use xlink:href="#DejaVuSans-5b" transform="translate(90.966797 0)"/>
      <use xlink:href="#DejaVuSans-6d" transform="translate(129.980469 0)"/>
      <use xlink:href="#DejaVuSans-6d" transform="translate(227.392578 0)"/>
      <use xlink:href="#DejaVuSans-5d" transform="translate(324.804688 0)"/>
     </g>
    </g>
   </g>
   <g id="matplotlib.axis_2">
    <g id="ytick_1">
     <g id="line2d_6">
      <defs>
       <path id="m41a773ab97" d="M 0 0 
L -3.5 0 
" style="stroke: #000000; stroke-width: 0.8"/>
      </defs>
      <g>
       <use xlink:href="#m41a773ab97" x="42.765865" y="28.213808" style="stroke: #000000; stroke-width: 0.8"/>
      </g>
     </g>
     <g id="text_7">
      <!-- 0 -->
      <g transform="translate(29.403365 32.013027) scale(0.1 -0.1)">
       <use xlink:href="#DejaVuSans-30"/>
      </g>
     </g>
    </g>
    <g id="ytick_2">
     <g id="line2d_7">
      <g>
       <use xlink:href="#m41a773ab97" x="42.765865" y="112.060332" style="stroke: #000000; stroke-width: 0.8"/>
      </g>
     </g>
     <g id="text_8">
      <!-- 100 -->
      <g transform="translate(16.678365 115.85955) scale(0.1 -0.1)">
       <use xlink:href="#DejaVuSans-31"/>
       <use xlink:href="#DejaVuSans-30" transform="translate(63.623047 0)"/>
       <use xlink:href="#DejaVuSans-30" transform="translate(127.246094 0)"/>
      </g>
     </g>
    </g>
    <g id="ytick_3">
     <g id="line2d_8">
      <g>
       <use xlink:href="#m41a773ab97" x="42.765865" y="195.906855" style="stroke: #000000; stroke-width: 0.8"/>
      </g>
     </g>
     <g id="text_9">
      <!-- 200 -->
      <g transform="translate(16.678365 199.706074) scale(0.1 -0.1)">
       <use xlink:href="#DejaVuSans-32"/>
       <use xlink:href="#DejaVuSans-30" transform="translate(63.623047 0)"/>
       <use xlink:href="#DejaVuSans-30" transform="translate(127.246094 0)"/>
      </g>
     </g>
    </g>
    <g id="text_10">
     <!-- y [mm] -->
     <g transform="translate(10.598678 130.250957) rotate(-90) scale(0.1 -0.1)">
      <defs>
       <path id="DejaVuSans-79" d="M 2059 -325 
Q 1816 -950 1584 -1140 
Q 1353 -1331 966 -1331 
L 506 -1331 
L 506 -850 
L 844 -850 
Q 1081 -850 1212 -737 
Q 1344 -625 1503 -206 
L 1606 56 
L 191 3500 
L 800 3500 
L 1894 763 
L 2988 3500 
L 3597 3500 
L 2059 -325 
z
" transform="scale(0.015625)"/>
      </defs>
      <use xlink:href="#DejaVuSans-79"/>
      <use xlink:href="#DejaVuSans-20" transform="translate(59.179688 0)"/>
      <use xlink:href="#DejaVuSans-5b" transform="translate(90.966797 0)"/>
      <use xlink:href="#DejaVuSans-6d" transform="translate(129.980469 0)"/>
      <use xlink:href="#DejaVuSans-6d" transform="translate(227.392578 0)"/>
      <use xlink:href="#DejaVuSans-5d" transform="translate(324.804688 0)"/>
     </g>
    </g>
   </g>
   <g id="QuadContourSet_2">
    <path d="M 378.151959 113.358719 
L 373.959633 112.794166 
L 371.18206 112.060332 
L 369.767306 111.680871 
L 365.57498 110.043601 
L 361.382654 107.979919 
L 361.194424 107.868005 
L 357.190328 105.482741 
L 354.485593 103.675679 
L 352.998002 102.676846 
L 348.805676 99.611945 
L 348.642655 99.483353 
L 344.613349 96.290602 
L 343.400613 95.291027 
L 340.421023 92.807288 
L 338.414604 91.098701 
L 336.228697 89.199682 
L 333.601292 86.906375 
L 332.036371 85.497385 
L 328.909501 82.714048 
L 327.844045 81.721992 
L 324.310018 78.521722 
L 323.651719 77.886983 
L 319.790515 74.329396 
L 319.459392 73.997019 
L 315.353467 70.13707 
L 315.267066 70.045849 
L 311.07474 65.996849 
L 311.013917 65.944744 
L 306.882414 61.817222 
L 306.805572 61.752418 
L 302.792805 57.560091 
L 302.690088 57.41232 
L 299.037392 53.367765 
L 298.497761 52.377809 
L 295.663772 49.175439 
L 294.305435 44.983113 
L 294.305435 40.790787 
L 294.305435 36.59846 
L 294.305435 32.406134 
L 294.305435 28.213808 
" clip-path="url(#p6e88242586)" style="fill: none; stroke: #18202b; stroke-width: 0.75"/>
   </g>
   <g id="patch_4">
    <path d="M 42.765865 195.906855 
L 42.765865 28.213808 
" style="fill: none; stroke: #000000; stroke-width: 0.8; stroke-linejoin: miter; stroke-linecap: square"/>
   </g>
   <g id="patch_5">
    <path d="M 378.151959 195.906855 
L 378.151959 28.213808 
" style="fill: none; stroke: #000000; stroke-width: 0.8; stroke-linejoin: miter; stroke-linecap: square"/>
   </g>
   <g id="patch_6">
    <path d="M 42.765865 195.906855 
L 378.151959 195.906855 
" style="fill: none; stroke: #000000; stroke-width: 0.8; stroke-linejoin: miter; stroke-linecap: square"/>
   </g>
   <g id="patch_7">
    <path d="M 42.765865 28.213808 
L 378.151959 28.213808 
" style="fill: none; stroke: #000000; stroke-width: 0.8; stroke-linejoin: miter; stroke-linecap: square"/>
   </g>
   <g id="text_11">
    <!-- Mode 1   22.6 Hz -->
    <g transform="translate(159.737349 22.213808) scale(0.12 -0.12)">
     <defs>
      <path id="DejaVuSans-4d" d="M 628 4666 
L 1569 4666 
L 2759 1491 
L 3956 4666 
L 4897 4666 
L 4897 0 
L 4281 0 
L 4281 4097 
L 3078 897 
L 2444 897 
L 1241 4097 
L 1241 0 
L 628 0 
L 628 4666 
z
" transform="scale(0.015625)"/>
      <path id="DejaVuSans-6f" d="M 1959 3097 
Q 1497 3097 1228 2736 
Q 959 2375 959 1747 
Q 959 1119 1226 758 
Q 1494 397 1959 397 
Q 2419 397 2687 759 
Q 2956 1122 2956 1747 
Q 2956 2369 2687 2733 
Q 2419 3097 1959 3097 
z
M 1959 3584 
Q 2709 3584 3137 3096 
Q 3566 2609 3566 1747 
Q 3566 888 3137 398 
Q 2709 -91 1959 -91 
Q 1206 -91 779 398 
Q 353 888 353 1747 
Q 353 2609 779 3096 
Q 1206 3584 1959 3584 
z
" transform="scale(0.015625)"/>
      <path id="DejaVuSans-64" d="M 2906 2969 
L 2906 4863 
L 3481 4863 
L 3481 0 
L 2906 0 
L 2906 525 
Q 2725 213 2448 61 
Q 2172 -91 1784 -91 
Q 1150 -91 751 415 
Q 353 922 353 1747 
Q 353 2572 751 3078 
Q 1150 3584 1784 3584 
Q 2172 3584 2448 3432 
Q 2725 3281 2906 2969 
z
M 947 1747 
Q 947 1113 1208 752 
Q 1469 391 1925 391 
Q 2381 391 2643 752 
Q 2906 1113 2906 1747 
Q 2906 2381 2643 2742 
Q 2381 3103 1925 3103 
Q 1469 3103 1208 2742 
Q 947 2381 947 1747 
z
" transform="scale(0.015625)"/>
      <path id="DejaVuSans-65" d="M 3597 1894 
L 3597 1613 
L 953 1613 
Q 991 1019 1311 708 
Q 1631 397 2203 397 
Q 2534 397 2845 478 
Q 3156 559 3463 722 
L 3463 178 
Q 3153 47 2828 -22 
Q 2503 -91 2169 -91 
Q 1331 -91 842 396 
Q 353 884 353 1716 
Q 353 2575 817 3079 
Q 1281 3584 2069 3584 
Q 2775 3584 3186 3129 
Q 3597 2675 3597 1894 
z
M 3022 2063 
Q 3016 2534 2758 2815 
Q 2500 3097 2075 3097 
Q 1594 3097 1305 2825 
Q 1016 2553 972 2059 
L 3022 2063 
z
" transform="scale(0.015625)"/>
      <path id="DejaVuSans-2e" d="M 684 794 
L 1344 794 
L 1344 0 
L 684 0 
L 684 794 
z
" transform="scale(0.015625)"/>
      <path id="DejaVuSans-36" d="M 2113 2584 
Q 1688 2584 1439 2293 
Q 1191 2003 1191 1497 
Q 1191 994 1439 701 
Q 1688 409 2113 409 
Q 2538 409 2786 701 
Q 3034 994 3034 1497 
Q 3034 2003 2786 2293 
Q 2538 2584 2113 2584 
z
M 3366 4563 
L 3366 3988 
Q 3128 4100 2886 4159 
Q 2644 4219 2406 4219 
Q 1781 4219 1451 3797 
Q 1122 3375 1075 2522 
Q 1259 2794 1537 2939 
Q 1816 3084 2150 3084 
Q 2853 3084 3261 2657 
Q 3669 2231 3669 1497 
Q 3669 778 3244 343 
Q 2819 -91 2113 -91 
Q 1303 -91 875 529 
Q 447 1150 447 2328 
Q 447 3434 972 4092 
Q 1497 4750 2381 4750 
Q 2619 4750 2861 4703 
Q 3103 4656 3366 4563 
z
" transform="scale(0.015625)"/>
      <path id="DejaVuSans-48" d="M 628 4666 
L 1259 4666 
L 1259 2753 
L 3553 2753 
L 3553 4666 
L 4184 4666 
L 4184 0 
L 3553 0 
L 3553 2222 
L 1259 2222 
L 1259 0 
L 628 0 
L 628 4666 
z
" transform="scale(0.015625)"/>
      <path id="DejaVuSans-7a" d="M 353 3500 
L 3084 3500 
L 3084 2975 
L 922 459 
L 3084 459 
L 3084 0 
L 275 0 
L 275 525 
L 2438 3041 
L 353 3041 
L 353 3500 
z
" transform="scale(0.015625)"/>
     </defs>
     <use xlink:href="#DejaVuSans-4d"/>
     <use xlink:href="#DejaVuSans-6f" transform="translate(86.279297 0)"/>
     <use xlink:href="#DejaVuSans-64" transform="translate(147.460938 0)"/>
     <use xlink:href="#DejaVuSans-65" transform="translate(210.9375 0)"/>
     <use xlink:href="#DejaVuSans-20" transform="translate(272.460938 0)"/>
     <use xlink:href="#DejaVuSans-31" transform="translate(304.248047 0)"/>
     <use xlink:href="#DejaVuSans-20" transform="translate(367.871094 0)"/>
     <use xlink:href="#DejaVuSans-20" transform="translate(399.658203 0)"/>
     <use xlink:href="#DejaVuSans-20" transform="translate(431.445312 0)"/>
     <use xlink:href="#DejaVuSans-32" transform="translate(463.232422 0)"/>
     <use xlink:href="#DejaVuSans-32" transform="translate(526.855469 0)"/>
     <use xlink:href="#DejaVuSans-2e" transform="translate(590.478516 0)"/>
     <use xlink:href="#DejaVuSans-36" transform="translate(622.265625 0)"/>
     <use xlink:href="#DejaVuSans-20" transform="translate(685.888672 0)"/>
     <use xlink:href="#DejaVuSans-48" transform="translate(717.675781 0)"/>
     <use xlink:href="#DejaVuSans-7a" transform="translate(792.871094 0)"/>
    </g>
   </g>
  </g>
  <g id="axes_2">
   <g id="patch_8">
    <path d="M 397.757292 189.393851 
L 406.263979 189.393851 
L 406.263979 34.726812 
L 397.757292 34.726812 
z
" style="fill: #ffffff"/>
   </g>
   <g id="patch_9">
    <path d="M 397.757292 189.393851 
L 402.010635 197.127203 
L 406.263979 189.393851 
" style="fill: #053061"/>
   </g>
   <g id="patch_10">
    <path d="M 397.757292 34.726812 
L 402.010635 26.99346 
L 406.263979 34.726812 
" style="fill: #67001f"/>
   </g>
   <g id="QuadMesh_1">
    <path d="M 397.757292 189.393851 
L 406.263979 189.393851 
L 406.263979 179.727161 
L 397.757292 179.727161 
L 397.757292 189.393851 
" clip-path="url(#p2ba3a066d6)" style="fill: #0e4179"/>
    <path d="M 397.757292 179.727161 
L 406.263979 179.727161 
L 406.263979 170.060471 
L 397.757292 170.060471 
L 397.757292 179.727161 
" clip-path="url(#p2ba3a066d6)" style="fill: #1f63a8"/>
    <path d="M 397.757292 170.060471 
L 406.263979 170.060471 
L 406.263979 160.393781 
L 397.757292 160.393781 
L 397.757292 170.060471 
" clip-path="url(#p2ba3a066d6)" style="fill: #3480b9"/>
    <path d="M 397.757292 160.393781 
L 406.263979 160.393781 
L 406.263979 150.727091 
L 397.757292 150.727091 
L 397.757292 160.393781 
" clip-path="url(#p2ba3a066d6)" style="fill: #529dc8"/>
    <path d="M 397.757292 150.727091 
L 406.263979 150.727091 
L 406.263979 141.060401 
L 397.757292 141.060401 
L 397.757292 150.727091 
" clip-path="url(#p2ba3a066d6)" style="fill: #84bcd9"/>
    <path d="M 397.757292 141.060401 
L 406.263979 141.060401 
L 406.263979 131.393711 
L 397.757292 131.393711 
L 397.757292 141.060401 
" clip-path="url(#p2ba3a066d6)" style="fill: #aed3e6"/>
    <path d="M 397.757292 131.393711 
L 406.263979 131.393711 
L 406.263979 121.727021 
L 397.757292 121.727021 
L 397.757292 131.393711 
" clip-path="url(#p2ba3a066d6)" style="fill: #d4e6f1"/>
    <path d="M 397.757292 121.727021 
L 406.263979 121.727021 
L 406.263979 112.060332 
L 397.757292 112.060332 
L 397.757292 121.727021 
" clip-path="url(#p2ba3a066d6)" style="fill: #ecf2f5"/>
    <path d="M 397.757292 112.060332 
L 406.263979 112.060332 
L 406.263979 102.393642 
L 397.757292 102.393642 
L 397.757292 112.060332 
" clip-path="url(#p2ba3a066d6)" style="fill: #f9eee7"/>
    <path d="M 397.757292 102.393642 
L 406.263979 102.393642 
L 406.263979 92.726952 
L 397.757292 92.726952 
L 397.757292 102.393642 
" clip-path="url(#p2ba3a066d6)" style="fill: #fddcc9"/>
    <path d="M 397.757292 92.726952 
L 406.263979 92.726952 
L 406.263979 83.060262 
L 397.757292 83.060262 
L 397.757292 92.726952 
" clip-path="url(#p2ba3a066d6)" style="fill: #f8bb9e"/>
    <path d="M 397.757292 83.060262 
L 406.263979 83.060262 
L 406.263979 73.393572 
L 397.757292 73.393572 
L 397.757292 83.060262 
" clip-path="url(#p2ba3a066d6)" style="fill: #ee9677"/>
    <path d="M 397.757292 73.393572 
L 406.263979 73.393572 
L 406.263979 63.726882 
L 397.757292 63.726882 
L 397.757292 73.393572 
" clip-path="url(#p2ba3a066d6)" style="fill: #db6b55"/>
    <path d="M 397.757292 63.726882 
L 406.263979 63.726882 
L 406.263979 54.060192 
L 397.757292 54.060192 
L 397.757292 63.726882 
" clip-path="url(#p2ba3a066d6)" style="fill: #c53e3d"/>
    <path d="M 397.757292 54.060192 
L 406.263979 54.060192 
L 406.263979 44.393502 
L 397.757292 44.393502 
L 397.757292 54.060192 
" clip-path="url(#p2ba3a066d6)" style="fill: #ab162a"/>
    <path d="M 397.757292 44.393502 
L 406.263979 44.393502 
L 406.263979 34.726812 
L 397.757292 34.726812 
L 397.757292 44.393502 
" clip-path="url(#p2ba3a066d6)" style="fill: #7c0722"/>
   </g>
   <g id="matplotlib.axis_3"/>
   <g id="matplotlib.axis_4">
    <g id="ytick_4">
     <g id="line2d_9">
      <defs>
       <path id="m118873e955" d="M 0 0 
L 3.5 0 
" style="stroke: #000000; stroke-width: 0.8"/>
      </defs>
      <g>
       <use xlink:href="#m118873e955" x="406.263979" y="189.393851" style="stroke: #000000; stroke-width: 0.8"/>
      </g>
     </g>
     <g id="text_12">
      <!-- −1.00 -->
      <g transform="translate(413.263979 193.19307) scale(0.1 -0.1)">
       <defs>
        <path id="DejaVuSans-2212" d="M 678 2272 
L 4684 2272 
L 4684 1741 
L 678 1741 
L 678 2272 
z
" transform="scale(0.015625)"/>
       </defs>
       <use xlink:href="#DejaVuSans-2212"/>
       <use xlink:href="#DejaVuSans-31" transform="translate(83.789062 0)"/>
       <use xlink:href="#DejaVuSans-2e" transform="translate(147.412109 0)"/>
       <use xlink:href="#DejaVuSans-30" transform="translate(179.199219 0)"/>
       <use xlink:href="#DejaVuSans-30" transform="translate(242.822266 0)"/>
      </g>
     </g>
    </g>
    <g id="ytick_5">
     <g id="line2d_10">
      <g>
       <use xlink:href="#m118873e955" x="406.263979" y="170.060471" style="stroke: #000000; stroke-width: 0.8"/>
      </g>
     </g>
     <g id="text_13">
      <!-- −0.75 -->
      <g transform="translate(413.263979 173.85969) scale(0.1 -0.1)">
       <defs>
        <path id="DejaVuSans-37" d="M 525 4666 
L 3525 4666 
L 3525 4397 
L 1831 0 
L 1172 0 
L 2766 4134 
L 525 4134 
L 525 4666 
z
" transform="scale(0.015625)"/>
        <path id="DejaVuSans-35" d="M 691 4666 
L 3169 4666 
L 3169 4134 
L 1269 4134 
L 1269 2991 
Q 1406 3038 1543 3061 
Q 1681 3084 1819 3084 
Q 2600 3084 3056 2656 
Q 3513 2228 3513 1497 
Q 3513 744 3044 326 
Q 2575 -91 1722 -91 
Q 1428 -91 1123 -41 
Q 819 9 494 109 
L 494 744 
Q 775 591 1075 516 
Q 1375 441 1709 441 
Q 2250 441 2565 725 
Q 2881 1009 2881 1497 
Q 2881 1984 2565 2268 
Q 2250 2553 1709 2553 
Q 1456 2553 1204 2497 
Q 953 2441 691 2322 
L 691 4666 
z
" transform="scale(0.015625)"/>
       </defs>
       <use xlink:href="#DejaVuSans-2212"/>
       <use xlink:href="#DejaVuSans-30" transform="translate(83.789062 0)"/>
       <use xlink:href="#DejaVuSans-2e" transform="translate(147.412109 0)"/>
       <use xlink:href="#DejaVuSans-37" transform="translate(179.199219 0)"/>
       <use xlink:href="#DejaVuSans-35" transform="translate(242.822266 0)"/>
      </g>
     </g>
    </g>
    <g id="ytick_6">
     <g id="line2d_11">
      <g>
       <use xlink:href="#m118873e955" x="406.263979" y="150.727091" style="stroke: #000000; stroke-width: 0.8"/>
      </g>
     </g>
     <g id="text_14">
      <!-- −0.50 -->
      <g transform="translate(413.263979 154.52631) scale(0.1 -0.1)">
       <use xlink:href="#DejaVuSans-2212"/>
       <use xlink:href="#DejaVuSans-30" transform="translate(83.789062 0)"/>
       <use xlink:href="#DejaVuSans-2e" transform="translate(147.412109 0)"/>
       <use xlink:href="#DejaVuSans-35" transform="translate(179.199219 0)"/>
       <use xlink:href="#DejaVuSans-30" transform="translate(242.822266 0)"/>
      </g>
     </g>
    </g>
    <g id="ytick_7">
     <g id="line2d_12">
      <g>
       <use xlink:href="#m118873e955" x="406.263979" y="131.393711" style="stroke: #000000; stroke-width: 0.8"/>
      </g>
     </g>
     <g id="text_15">
      <!-- −0.25 -->
      <g transform="translate(413.263979 135.19293) scale(0.1 -0.1)">
       <use xlink:href="#DejaVuSans-2212"/>
       <use xlink:href="#DejaVuSans-30" transform="translate(83.789062 0)"/>
       <use xlink:href="#DejaVuSans-2e" transform="translate(147.412109 0)"/>
       <use xlink:href="#DejaVuSans-32" transform="translate(179.199219 0)"/>
       <use xlink:href="#DejaVuSans-35" transform="translate(242.822266 0)"/>
      </g>
     </g>
    </g>
    <g id="ytick_8">
     <g id="line2d_13">
      <g>
       <use xlink:href="#m118873e955" x="406.263979" y="112.060332" style="stroke: #000000; stroke-width: 0.8"/>
      </g>
     </g>
     <g id="text_16">
      <!-- 0.00 -->
      <g transform="translate(413.263979 115.85955) scale(0.1 -0.1)">
       <use xlink:href="#DejaVuSans-30"/>
       <use xlink:href="#DejaVuSans-2e" transform="translate(63.623047 0)"/>
       <use xlink:href="#DejaVuSans-30" transform="translate(95.410156 0)"/>
       <use xlink:href="#DejaVuSans-30" transform="translate(159.033203 0)"/>
      </g>
     </g>
    </g>
    <g id="ytick_9">
     <g id="line2d_14">
      <g>
       <use xlink:href="#m118873e955" x="406.263979" y="92.726952" style="stroke: #000000; stroke-width: 0.8"/>
      </g>
     </g>
     <g id="text_17">
      <!-- 0.25 -->
      <g transform="translate(413.263979 96.52617) scale(0.1 -0.1)">
       <use xlink:href="#DejaVuSans-30"/>
       <use xlink:href="#DejaVuSans-2e" transform="translate(63.623047 0)"/>
       <use xlink:href="#DejaVuSans-32" transform="translate(95.410156 0)"/>
       <use xlink:href="#DejaVuSans-35" transform="translate(159.033203 0)"/>
      </g>
     </g>
    </g>
    <g id="ytick_10">
     <g id="line2d_15">
      <g>
       <use xlink:href="#m118873e955" x="406.263979" y="73.393572" style="stroke: #000000; stroke-width: 0.8"/>
      </g>
     </g>
     <g id="text_18">
      <!-- 0.50 -->
      <g transform="translate(413.263979 77.192791) scale(0.1 -0.1)">
       <use xlink:href="#DejaVuSans-30"/>
       <use xlink:href="#DejaVuSans-2e" transform="translate(63.623047 0)"/>
       <use xlink:href="#DejaVuSans-35" transform="translate(95.410156 0)"/>
       <use xlink:href="#DejaVuSans-30" transform="translate(159.033203 0)"/>
      </g>
     </g>
    </g>
    <g id="ytick_11">
     <g id="line2d_16">
      <g>
       <use xlink:href="#m118873e955" x="406.263979" y="54.060192" style="stroke: #000000; stroke-width: 0.8"/>
      </g>
     </g>
     <g id="text_19">
      <!-- 0.75 -->
      <g transform="translate(413.263979 57.859411) scale(0.1 -0.1)">
       <use xlink:href="#DejaVuSans-30"/>
       <use xlink:href="#DejaVuSans-2e" transform="translate(63.623047 0)"/>
       <use xlink:href="#DejaVuSans-37" transform="translate(95.410156 0)"/>
       <use xlink:href="#DejaVuSans-35" transform="translate(159.033203 0)"/>
      </g>
     </g>
    </g>
    <g id="ytick_12">
     <g id="line2d_17">
      <g>
       <use xlink:href="#m118873e955" x="406.263979" y="34.726812" style="stroke: #000000; stroke-width: 0.8"/>
      </g>
     </g>
     <g id="text_20">
      <!-- 1.00 -->
      <g transform="translate(413.263979 38.526031) scale(0.1 -0.1)">
       <use xlink:href="#DejaVuSans-31"/>
       <use xlink:href="#DejaVuSans-2e" transform="translate(63.623047 0)"/>
       <use xlink:href="#DejaVuSans-30" transform="translate(95.410156 0)"/>
       <use xlink:href="#DejaVuSans-30" transform="translate(159.033203 0)"/>
      </g>
     </g>
    </g>
    <g id="text_21">
     <!-- normalized deflection -->
     <g transform="translate(455.507729 166.236113) rotate(-90) scale(0.1 -0.1)">
      <defs>
       <path id="DejaVuSans-6e" d="M 3513 2113 
L 3513 0 
L 2938 0 
L 2938 2094 
Q 2938 2591 2744 2837 
Q 2550 3084 2163 3084 
Q 1697 3084 1428 2787 
Q 1159 2491 1159 1978 
L 1159 0 
L 581 0 
L 581 3500 
L 1159 3500 
L 1159 2956 
Q 1366 3272 1645 3428 
Q 1925 3584 2291 3584 
Q 2894 3584 3203 3211 
Q 3513 2838 3513 2113 
z
" transform="scale(0.015625)"/>
       <path id="DejaVuSans-72" d="M 2631 2963 
Q 2534 3019 2420 3045 
Q 2306 3072 2169 3072 
Q 1681 3072 1420 2755 
Q 1159 2438 1159 1844 
L 1159 0 
L 581 0 
L 581 3500 
L 1159 3500 
L 1159 2956 
Q 1341 3275 1631 3429 
Q 1922 3584 2338 3584 
Q 2397 3584 2469 3576 
Q 2541 3569 2628 3553 
L 2631 2963 
z
" transform="scale(0.015625)"/>
       <path id="DejaVuSans-61" d="M 2194 1759 
Q 1497 1759 1228 1600 
Q 959 1441 959 1056 
Q 959 750 1161 570 
Q 1363 391 1709 391 
Q 2188 391 2477 730 
Q 2766 1069 2766 1631 
L 2766 1759 
L 2194 1759 
z
M 3341 1997 
L 3341 0 
L 2766 0 
L 2766 531 
Q 2569 213 2275 61 
Q 1981 -91 1556 -91 
Q 1019 -91 701 211 
Q 384 513 384 1019 
Q 384 1609 779 1909 
Q 1175 2209 1959 2209 
L 2766 2209 
L 2766 2266 
Q 2766 2663 2505 2880 
Q 2244 3097 1772 3097 
Q 1472 3097 1187 3025 
Q 903 2953 641 2809 
L 641 3341 
Q 956 3463 1253 3523 
Q 1550 3584 1831 3584 
Q 2591 3584 2966 3190 
Q 3341 2797 3341 1997 
z
" transform="scale(0.015625)"/>
       <path id="DejaVuSans-6c" d="M 603 4863 
L 1178 4863 
L 1178 0 
L 603 0 
L 603 4863 
z
" transform="scale(0.015625)"/>
       <path id="DejaVuSans-69" d="M 603 3500 
L 1178 3500 
L 1178 0 
L 603 0 
L 603 3500 
z
M 603 4863 
L 1178 4863 
L 1178 4134 
L 603 4134 
L 603 4863 
z
" transform="scale(0.015625)"/>
       <path id="DejaVuSans-66" d="M 2375 4863 
L 2375 4384 
L 1825 4384 
Q 1516 4384 1395 4259 
Q 1275 4134 1275 3809 
L 1275 3500 
L 2222 3500 
L 2222 3053 
L 1275 3053 
L 1275 0 
L 697 0 
L 697 3053 
L 147 3053 
L 147 3500 
L 697 3500 
L 697 3744 
Q 697 4328 969 4595 
Q 1241 4863 1831 4863 
L 2375 4863 
z
" transform="scale(0.015625)"/>
       <path id="DejaVuSans-63" d="M 3122 3366 
L 3122 2828 
Q 2878 2963 2633 3030 
Q 2388 3097 2138 3097 
Q 1578 3097 1268 2742 
Q 959 2388 959 1747 
Q 959 1106 1268 751 
Q 1578 397 2138 397 
Q 2388 397 2633 464 
Q 2878 531 3122 666 
L 3122 134 
Q 2881 22 2623 -34 
Q 2366 -91 2075 -91 
Q 1284 -91 818 406 
Q 353 903 353 1747 
Q 353 2603 823 3093 
Q 1294 3584 2113 3584 
Q 2378 3584 2631 3529 
Q 2884 3475 3122 3366 
z
" transform="scale(0.015625)"/>
       <path id="DejaVuSans-74" d="M 1172 4494 
L 1172 3500 
L 2356 3500 
L 2356 3053 
L 1172 3053 
L 1172 1153 
Q 1172 725 1289 603 
Q 1406 481 1766 481 
L 2356 481 
L 2356 0 
L 1766 0 
Q 1100 0 847 248 
Q 594 497 594 1153 
L 594 3053 
L 172 3053 
L 172 3500 
L 594 3500 
L 594 4494 
L 1172 4494 
z
" transform="scale(0.015625)"/>
      </defs>
      <use xlink:href="#DejaVuSans-6e"/>
      <use xlink:href="#DejaVuSans-6f" transform="translate(63.378906 0)"/>
      <use xlink:href="#DejaVuSans-72" transform="translate(124.560547 0)"/>
      <use xlink:href="#DejaVuSans-6d" transform="translate(163.923828 0)"/>
      <use xlink:href="#DejaVuSans-61" transform="translate(261.335938 0)"/>
      <use xlink:href="#DejaVuSans-6c" transform="translate(322.615234 0)"/>
      <use xlink:href="#DejaVuSans-69" transform="translate(350.398438 0)"/>
      <use xlink:href="#DejaVuSans-7a" transform="translate(378.181641 0)"/>
      <use xlink:href="#DejaVuSans-65" transform="translate(430.671875 0)"/>
      <use xlink:href="#DejaVuSans-64" transform="translate(492.195312 0)"/>
      <use xlink:href="#DejaVuSans-20" transform="translate(555.671875 0)"/>
      <use xlink:href="#DejaVuSans-64" transform="translate(587.458984 0)"/>
      <use xlink:href="#DejaVuSans-65" transform="translate(650.935547 0)"/>
      <use xlink:href="#DejaVuSans-66" transform="translate(712.458984 0)"/>
      <use xlink:href="#DejaVuSans-6c" transform="translate(747.664062 0)"/>
      <use xlink:href="#DejaVuSans-65" transform="translate(775.447266 0)"/>
      <use xlink:href="#DejaVuSans-63" transform="translate(836.970703 0)"/>
      <use xlink:href="#DejaVuSans-74" transform="translate(891.951172 0)"/>
      <use xlink:href="#DejaVuSans-69" transform="translate(931.160156 0)"/>
      <use xlink:href="#DejaVuSans-6f" transform="translate(958.943359 0)"/>
      <use xlink:href="#DejaVuSans-6e" transform="translate(1020.125 0)"/>
     </g>
    </g>
   </g>
   <g id="LineCollection_1"/>
   <g id="patch_11">
    <path d="M 397.757292 189.393851 
L 402.010635 197.127203 
L 406.263979 189.393851 
L 406.263979 34.726812 
L 402.010635 26.99346 
L 397.757292 34.726812 
L 397.757292 189.393851 
z
" style="fill: none; stroke: #000000; stroke-width: 0.8; stroke-linejoin: miter; stroke-linecap: square"/>
   </g>
  </g>
 </g>
 <defs>
  <clipPath id="p6e88242586">
   <rect x="42.765865" y="28.213808" width="335.386094" height="167.693047"/>
  </clipPath>
  <clipPath id="p2ba3a066d6">
   <rect x="397.757292" y="34.726812" width="8.506687" height="154.667039"/>
  </clipPath>
 </defs>
 <defs>
  <pattern id="h95ba8247b8" patternUnits="userSpaceOnUse" x="0" y="0" width="72" height="72">
   <rect x="0" y="0" width="73" height="73" fill="#333333"/>
   <path d="M -36 36 
L 36 -36 
M -33 39 
L 39 -33 
M -30 42 
L 42 -30 
M -27 45 
L 45 -27 
M -24 48 
L 48 -24 
M -21 51 
L 51 -21 
M -18 54 
L 54 -18 
M -15 57 
L 57 -15 
M -12 60 
L 60 -12 
M -9 63 
L 63 -9 
M -6 66 
L 66 -6 
M -3 69 
L 69 -3 
M 0 72 
L 72 0 
M 3 75 
L 75 3 
M 6 78 
L 78 6 
M 9 81 
L 81 9 
M 12 84 
L 84 12 
M 15 87 
L 87 15 
M 18 90 
L 90 18 
M 21 93 
L 93 21 
M 24 96 
L 96 24 
M 27 99 
L 99 27 
M 30 102 
L 102 30 
M 33 105 
L 105 33 
M 36 108 
L 108 36 
" style="fill: #111827; stroke: #111827; stroke-width: 1.0; stroke-linecap: butt; stroke-linejoin: miter; stroke-opacity: 0.35"/>
  </pattern>
 </defs>
</svg>
