<?xml version="1.0" encoding="utf-8" standalone="no"?>
<!DOCTYPE svg PUBLIC "-//W3C//DTD SVG 1.1//EN"
  "http://www.w3.org/Graphics/SVG/1.1/DTD/svg11.dtd">
<svg xmlns:xlink="http://www.w3.org/1999/xlink" width="460.8pt" height="234pt" viewBox="0 0 460.8 234" xmlns="http://www.w3.org/2000/svg" version="1.1">
 <metadata>
  <rdf:RDF xmlns:dc="http://purl.org/dc/elements/1.1/" xmlns:cc="http://creativecommons.org/ns#" xmlns:rdf="http://www.w3.org/1999/02/22-rdf-syntax-ns#">
   <cc:Work>
    <dc:type rdf:resource="http://purl.org/dc/dcmitype/StillImage"/>
    <dc:format>image/svg+xml</dc:format>
    <dc:creator>
     <cc:Agent>
      <dc:title>Matplotlib v3.10.3, https://matplotlib.org/</dc:title>
     </cc:Agent>
    </dc:creator>
   </cc:Work>
  </rdf:RDF>
 </metadata>
 <defs>
  <style type="text/css">*{stroke-linejoin: round; stroke-linecap: butt}</style>
 </defs>
 <g id="figure_1">
  <g id="patch_1">
   <path d="M 0 234 
L 460.8 234 
L 460.8 0 
L 0 0 
z
" style="fill: #ffffff"/>
  </g>
  <g id="axes_1">
   <g id="patch_2">
    <path d="M 42.765865 195.906855 
L 378.151959 195.906855 
L 378.151959 28.213808 
L 42.765865 28.213808 
z
" style="fill: #ffffff"/>
   </g>
   <g id="QuadContourSet_1">
    <path clip-path="url(#p85da1a8255)" style="fill: #053061"/>
    <path clip-path="url(#p85da1a8255)" style="fill: #0e4179"/>
    <path clip-path="url(#p85da1a8255)" style="fill: #1f63a8"/>
    <path clip-path="url(#p85da1a8255)" style="fill: #3480b9"/>
    <path clip-path="url(#p85da1a8255)" style="fill: #529dc8"/>
    <path d="M 302.690088 191.368203 
L 306.882414 191.241194 
L 309.024965 191.714529 
L 311.07474 192.573608 
L 315.201395 195.906855 
L 311.07474 195.906855 
L 306.882414 195.906855 
L 302.690088 195.906855 
L 298.497761 195.906855 
L 297.043525 195.906855 
L 298.497761 193.874555 
L 301.636391 191.714529 
z
" clip-path="url(#p85da1a8255)" style="fill: #84bcd9"/>
    <path d="M 46.655326 149.791267 
L 46.958191 149.920988 
L 51.150517 153.536973 
L 51.494351 153.983593 
L 54.461117 158.175919 
L 55.342844 159.551649 
L 56.699536 162.368246 
L 58.498779 166.560572 
L 59.53517 169.315391 
L 59.971561 170.752898 
L 61.067768 174.945224 
L 61.980352 179.13755 
L 62.709826 183.329876 
L 63.25659 187.522203 
L 63.620939 191.714529 
L 63.727496 194.165992 
L 63.791861 195.906855 
L 63.727496 195.906855 
L 59.53517 195.906855 
L 55.342844 195.906855 
L 51.150517 195.906855 
L 46.958191 195.906855 
L 42.765865 195.906855 
L 42.765865 191.714529 
L 42.765865 187.522203 
L 42.765865 183.329876 
L 42.765865 179.13755 
L 42.765865 174.945224 
L 42.765865 170.752898 
L 42.765865 166.560572 
L 42.765865 162.368246 
L 42.765865 158.175919 
L 42.765865 153.983593 
L 42.765865 149.791267 
L 42.765865 148.230368 
z
M 285.920783 157.515824 
L 290.113109 157.197016 
L 294.305435 157.327585 
L 298.497761 157.815228 
L 300.415639 158.175919 
L 302.690088 158.606856 
L 306.882414 159.645958 
L 311.07474 160.847061 
L 315.267066 162.15676 
L 315.888924 162.368246 
L 319.459392 163.630663 
L 323.651719 165.151437 
L 327.543113 166.560572 
L 327.844045 166.677007 
L 332.036371 168.318835 
L 336.228697 169.894434 
L 338.619205 170.752898 
L 340.421023 171.468763 
L 344.613349 173.041084 
L 348.805676 174.474156 
L 350.32881 174.945224 
L 352.998002 175.897385 
L 357.190328 177.210626 
L 361.382654 178.319524 
L 365.205277 179.13755 
L 365.57498 179.233837 
L 369.767306 180.068014 
L 373.959633 180.627124 
L 378.151959 180.907559 
L 378.151959 183.329876 
L 378.151959 187.522203 
L 378.151959 191.714529 
L 378.151959 195.906855 
L 373.959633 195.906855 
L 369.767306 195.906855 
L 365.57498 195.906855 
L 361.382654 195.906855 
L 357.190328 195.906855 
L 352.998002 195.906855 
L 348.805676 195.906855 
L 344.613349 195.906855 
L 340.421023 195.906855 
L 336.228697 195.906855 
L 332.036371 195.906855 
L 327.844045 195.906855 
L 323.651719 195.906855 
L 319.459392 195.906855 
L 315.267066 195.906855 
L 315.201395 195.906855 
L 311.07474 192.573608 
L 309.024965 191.714529 
L 306.882414 191.241194 
L 302.690088 191.368203 
L 301.636391 191.714529 
L 298.497761 193.874555 
L 297.043525 195.906855 
L 294.305435 195.906855 
L 290.113109 195.906855 
L 285.920783 195.906855 
L 281.728457 195.906855 
L 277.536131 195.906855 
L 273.343804 195.906855 
L 269.151478 195.906855 
L 264.959152 195.906855 
L 260.766826 195.906855 
L 258.85964 195.906855 
L 259.150095 191.714529 
L 259.737077 187.522203 
L 260.633058 183.329876 
L 260.766826 182.862037 
L 261.959631 179.13755 
L 263.699648 174.945224 
L 264.959152 172.494551 
L 266.008304 170.752898 
L 269.093244 166.560572 
L 269.151478 166.492827 
L 273.343804 162.608898 
L 273.689127 162.368246 
L 277.536131 160.057938 
L 281.728457 158.404793 
L 282.709772 158.175919 
z
" clip-path="url(#p85da1a8255)" style="fill: #aed3e6"/>
    <path d="M 46.958191 85.003517 
L 50.348033 86.906375 
L 51.150517 87.344191 
L 55.342844 90.825789 
L 55.587078 91.098701 
L 59.367543 95.291027 
L 59.53517 95.476528 
L 62.40967 99.483353 
L 63.727496 101.345058 
L 65.098091 103.675679 
L 67.508917 107.868005 
L 67.919822 108.594952 
L 69.602451 112.060332 
L 71.561102 116.252658 
L 72.112148 117.467328 
L 73.303534 120.444984 
L 74.909221 124.63731 
L 76.304474 128.4773 
L 76.41989 128.829636 
L 77.741973 133.021962 
L 78.983304 137.214289 
L 80.143531 141.406615 
L 80.496801 142.763149 
L 81.176898 145.598941 
L 82.111326 149.791267 
L 82.968781 153.983593 
L 83.749134 158.175919 
L 84.45223 162.368246 
L 84.689127 163.944804 
L 85.058789 166.560572 
L 85.579813 170.752898 
L 86.02678 174.945224 
L 86.39954 179.13755 
L 86.697951 183.329876 
L 86.921885 187.522203 
L 87.071235 191.714529 
L 87.14593 195.906855 
L 84.689127 195.906855 
L 80.496801 195.906855 
L 76.304474 195.906855 
L 72.112148 195.906855 
L 67.919822 195.906855 
L 63.791861 195.906855 
L 63.727496 194.165992 
L 63.620939 191.714529 
L 63.25659 187.522203 
L 62.709826 183.329876 
L 61.980352 179.13755 
L 61.067768 174.945224 
L 59.971561 170.752898 
L 59.53517 169.315391 
L 58.498779 166.560572 
L 56.699536 162.368246 
L 55.342844 159.551649 
L 54.461117 158.175919 
L 51.494351 153.983593 
L 51.150517 153.536973 
L 46.958191 149.920988 
L 46.655326 149.791267 
L 42.765865 148.230368 
L 42.765865 145.598941 
L 42.765865 141.406615 
L 42.765865 137.214289 
L 42.765865 133.021962 
L 42.765865 128.829636 
L 42.765865 124.63731 
L 42.765865 120.444984 
L 42.765865 116.252658 
L 42.765865 112.060332 
L 42.765865 107.868005 
L 42.765865 103.675679 
L 42.765865 99.483353 
L 42.765865 95.291027 
L 42.765865 91.098701 
L 42.765865 86.906375 
L 42.765865 83.84234 
z
M 269.151478 132.876824 
L 273.343804 132.113621 
L 277.536131 132.035741 
L 281.728457 132.508694 
L 284.016675 133.021962 
L 285.920783 133.409905 
L 290.113109 134.63316 
L 294.305435 136.109183 
L 297.040576 137.214289 
L 298.497761 137.763108 
L 302.690088 139.532332 
L 306.882414 141.372668 
L 306.9546 141.406615 
L 311.07474 143.259752 
L 315.267066 145.141667 
L 316.268345 145.598941 
L 319.459392 147.023096 
L 323.651719 148.856546 
L 325.843829 149.791267 
L 327.844045 150.642791 
L 332.036371 152.368026 
L 336.228697 153.979974 
L 336.238575 153.983593 
L 340.421023 155.552733 
L 344.613349 156.986604 
L 348.479328 158.175919 
L 348.805676 158.281041 
L 352.998002 159.500583 
L 357.190328 160.55282 
L 361.382654 161.434063 
L 365.57498 162.141657 
L 367.350542 162.368246 
L 369.767306 162.702282 
L 373.959633 163.09091 
L 378.151959 163.285454 
L 378.151959 166.560572 
L 378.151959 170.752898 
L 378.151959 174.945224 
L 378.151959 179.13755 
L 378.151959 180.907559 
L 373.959633 180.627124 
L 369.767306 180.068014 
L 365.57498 179.233837 
L 365.205277 179.13755 
L 361.382654 178.319524 
L 357.190328 177.210626 
L 352.998002 175.897385 
L 350.32881 174.945224 
L 348.805676 174.474156 
L 344.613349 173.041084 
L 340.421023 171.468763 
L 338.619205 170.752898 
L 336.228697 169.894434 
L 332.036371 168.318835 
L 327.844045 166.677007 
L 327.543113 166.560572 
L 323.651719 165.151437 
L 319.459392 163.630663 
L 315.888924 162.368246 
L 315.267066 162.15676 
L 311.07474 160.847061 
L 306.882414 159.645958 
L 302.690088 158.606856 
L 300.415639 158.175919 
L 298.497761 157.815228 
L 294.305435 157.327585 
L 290.113109 157.197016 
L 285.920783 157.515824 
L 282.709772 158.175919 
L 281.728457 158.404793 
L 277.536131 160.057938 
L 273.689127 162.368246 
L 273.343804 162.608898 
L 269.151478 166.492827 
L 269.093244 166.560572 
L 266.008304 170.752898 
L 264.959152 172.494551 
L 263.699648 174.945224 
L 261.959631 179.13755 
L 260.766826 182.862037 
L 260.633058 183.329876 
L 259.737077 187.522203 
L 259.150095 191.714529 
L 258.85964 195.906855 
L 256.5745 195.906855 
L 252.382174 195.906855 
L 248.189847 195.906855 
L 243.997521 195.906855 
L 239.805195 195.906855 
L 239.088352 195.906855 
L 239.232176 191.714529 
L 239.520734 187.522203 
L 239.805195 184.770479 
L 239.960113 183.329876 
L 240.561941 179.13755 
L 241.323353 174.945224 
L 242.25065 170.752898 
L 243.35161 166.560572 
L 243.997521 164.41628 
L 244.66756 162.368246 
L 246.22756 158.175919 
L 248.019839 153.983593 
L 248.189847 153.618483 
L 250.216787 149.791267 
L 252.382174 146.19048 
L 252.802981 145.598941 
L 256.091203 141.406615 
L 256.5745 140.841388 
L 260.557236 137.214289 
L 260.766826 137.038094 
L 264.959152 134.448017 
L 268.743057 133.021962 
z
" clip-path="url(#p85da1a8255)" style="fill: #d4e6f1"/>
    <path d="M 46.958191 28.213808 
L 51.150517 28.213808 
L 55.342844 28.213808 
L 59.53517 28.213808 
L 63.727496 28.213808 
L 67.919822 28.213808 
L 72.112148 28.213808 
L 76.304474 28.213808 
L 80.496801 28.213808 
L 83.531392 28.213808 
L 83.6549 32.406134 
L 83.898857 36.59846 
L 84.257367 40.790787 
L 84.689127 44.681389 
L 84.721054 44.983113 
L 85.263394 49.175439 
L 85.886527 53.367765 
L 86.578436 57.560091 
L 87.327108 61.752418 
L 88.120992 65.944744 
L 88.881453 69.783921 
L 88.947805 70.13707 
L 89.780494 74.329396 
L 90.626917 78.521722 
L 91.479841 82.714048 
L 92.333138 86.906375 
L 93.073779 90.550085 
L 93.180087 91.098701 
L 94.006217 95.291027 
L 94.818232 99.483353 
L 95.613409 103.675679 
L 96.389456 107.868005 
L 97.144395 112.060332 
L 97.266105 112.740858 
L 97.871791 116.252658 
L 98.573041 120.444984 
L 99.247707 124.63731 
L 99.894542 128.829636 
L 100.512305 133.021962 
L 101.099747 137.214289 
L 101.458431 139.899772 
L 101.655779 141.406615 
L 102.178979 145.598941 
L 102.667728 149.791267 
L 103.120865 153.983593 
L 103.537238 158.175919 
L 103.915721 162.368246 
L 104.255233 166.560572 
L 104.554759 170.752898 
L 104.813366 174.945224 
L 105.030221 179.13755 
L 105.204603 183.329876 
L 105.335923 187.522203 
L 105.423725 191.714529 
L 105.467704 195.906855 
L 101.458431 195.906855 
L 97.266105 195.906855 
L 93.073779 195.906855 
L 88.881453 195.906855 
L 87.14593 195.906855 
L 87.071235 191.714529 
L 86.921885 187.522203 
L 86.697951 183.329876 
L 86.39954 179.13755 
L 86.02678 174.945224 
L 85.579813 170.752898 
L 85.058789 166.560572 
L 84.689127 163.944804 
L 84.45223 162.368246 
L 83.749134 158.175919 
L 82.968781 153.983593 
L 82.111326 149.791267 
L 81.176898 145.598941 
L 80.496801 142.763149 
L 80.143531 141.406615 
L 78.983304 137.214289 
L 77.741973 133.021962 
L 76.41989 128.829636 
L 76.304474 128.4773 
L 74.909221 124.63731 
L 73.303534 120.444984 
L 72.112148 117.467328 
L 71.561102 116.252658 
L 69.602451 112.060332 
L 67.919822 108.594952 
L 67.508917 107.868005 
L 65.098091 103.675679 
L 63.727496 101.345058 
L 62.40967 99.483353 
L 59.53517 95.476528 
L 59.367543 95.291027 
L 55.587078 91.098701 
L 55.342844 90.825789 
L 51.150517 87.344191 
L 50.348033 86.906375 
L 46.958191 85.003517 
L 42.765865 83.84234 
L 42.765865 82.714048 
L 42.765865 78.521722 
L 42.765865 74.329396 
L 42.765865 70.13707 
L 42.765865 65.944744 
L 42.765865 61.752418 
L 42.765865 57.560091 
L 42.765865 53.367765 
L 42.765865 49.175439 
L 42.765865 44.983113 
L 42.765865 40.790787 
L 42.765865 36.59846 
L 42.765865 32.406134 
L 42.765865 28.213808 
z
M 210.458912 28.213808 
L 214.651238 28.213808 
L 218.843564 28.213808 
L 223.03589 28.213808 
L 227.228217 28.213808 
L 231.420543 28.213808 
L 235.612869 28.213808 
L 239.805195 28.213808 
L 243.997521 28.213808 
L 248.189847 28.213808 
L 252.382174 28.213808 
L 256.5745 28.213808 
L 260.766826 28.213808 
L 264.959152 28.213808 
L 269.151478 28.213808 
L 273.343804 28.213808 
L 277.536131 28.213808 
L 281.728457 28.213808 
L 285.920783 28.213808 
L 290.113109 28.213808 
L 294.305435 28.213808 
L 294.305435 28.213808 
L 294.305435 32.406134 
L 294.305435 36.59846 
L 294.305435 40.790787 
L 294.305435 44.983113 
L 294.305435 44.983113 
L 290.113109 44.983113 
L 285.920783 44.983113 
L 281.728457 44.983113 
L 279.741676 49.175439 
L 277.536131 52.662434 
L 277.30074 53.367765 
L 275.090657 57.560091 
L 273.780433 61.752418 
L 273.343804 63.702058 
L 272.778388 65.944744 
L 272.159942 70.13707 
L 272.077197 74.329396 
L 272.526751 78.521722 
L 273.343804 81.727678 
L 273.50782 82.714048 
L 274.761776 86.906375 
L 276.682639 91.098701 
L 277.536131 92.402859 
L 278.985683 95.291027 
L 281.728457 99.218066 
L 281.880398 99.483353 
L 285.045135 103.675679 
L 285.920783 104.58331 
L 288.682006 107.868005 
L 290.113109 109.240748 
L 292.774166 112.060332 
L 294.305435 113.409601 
L 297.318896 116.252658 
L 298.497761 117.203908 
L 302.348163 120.444984 
L 302.690088 120.697467 
L 306.882414 123.906383 
L 307.829745 124.63731 
L 311.07474 126.895916 
L 313.89538 128.829636 
L 315.267066 129.695854 
L 319.459392 132.301567 
L 320.651567 133.021962 
L 323.651719 134.732791 
L 327.844045 136.99336 
L 328.270815 137.214289 
L 332.036371 139.095788 
L 336.228697 141.025923 
L 337.114354 141.406615 
L 340.421023 142.807875 
L 344.613349 144.417965 
L 348.061264 145.598941 
L 348.805676 145.855467 
L 352.998002 147.147121 
L 357.190328 148.252919 
L 361.382654 149.173044 
L 364.901347 149.791267 
L 365.57498 149.913662 
L 369.767306 150.490959 
L 373.959633 150.875595 
L 378.151959 151.067837 
L 378.151959 153.983593 
L 378.151959 158.175919 
L 378.151959 162.368246 
L 378.151959 163.285454 
L 373.959633 163.09091 
L 369.767306 162.702282 
L 367.350542 162.368246 
L 365.57498 162.141657 
L 361.382654 161.434063 
L 357.190328 160.55282 
L 352.998002 159.500583 
L 348.805676 158.281041 
L 348.479328 158.175919 
L 344.613349 156.986604 
L 340.421023 155.552733 
L 336.238575 153.983593 
L 336.228697 153.979974 
L 332.036371 152.368026 
L 327.844045 150.642791 
L 325.843829 149.791267 
L 323.651719 148.856546 
L 319.459392 147.023096 
L 316.268345 145.598941 
L 315.267066 145.141667 
L 311.07474 143.259752 
L 306.9546 141.406615 
L 306.882414 141.372668 
L 302.690088 139.532332 
L 298.497761 137.763108 
L 297.040576 137.214289 
L 294.305435 136.109183 
L 290.113109 134.63316 
L 285.920783 133.409905 
L 284.016675 133.021962 
L 281.728457 132.508694 
L 277.536131 132.035741 
L 273.343804 132.113621 
L 269.151478 132.876824 
L 268.743057 133.021962 
L 264.959152 134.448017 
L 260.766826 137.038094 
L 260.557236 137.214289 
L 256.5745 140.841388 
L 256.091203 141.406615 
L 252.802981 145.598941 
L 252.382174 146.19048 
L 250.216787 149.791267 
L 248.189847 153.618483 
L 248.019839 153.983593 
L 246.22756 158.175919 
L 244.66756 162.368246 
L 243.997521 164.41628 
L 243.35161 166.560572 
L 242.25065 170.752898 
L 241.323353 174.945224 
L 240.561941 179.13755 
L 239.960113 183.329876 
L 239.805195 184.770479 
L 239.520734 187.522203 
L 239.232176 191.714529 
L 239.088352 195.906855 
L 235.612869 195.906855 
L 231.420543 195.906855 
L 227.228217 195.906855 
L 223.03589 195.906855 
L 221.498634 195.906855 
L 221.579431 191.714529 
L 221.740751 187.522203 
L 221.982031 183.329876 
L 222.302385 179.13755 
L 222.700545 174.945224 
L 223.03589 171.964907 
L 223.173505 170.752898 
L 223.717299 166.560572 
L 224.333051 162.368246 
L 225.017756 158.175919 
L 225.767568 153.983593 
L 226.577636 149.791267 
L 227.228217 146.605997 
L 227.444636 145.598941 
L 228.370518 141.406615 
L 229.340732 137.214289 
L 230.345548 133.021962 
L 231.373271 128.829636 
L 231.420543 128.62777 
L 232.455384 124.63731 
L 233.543201 120.444984 
L 234.616879 116.252658 
L 235.612869 112.223052 
L 235.659822 112.060332 
L 236.733828 107.868005 
L 237.735982 103.675679 
L 238.638886 99.483353 
L 239.415305 95.291027 
L 239.805195 92.567822 
L 240.079406 91.098701 
L 240.614182 86.906375 
L 240.934292 82.714048 
L 241.024399 78.521722 
L 240.879566 74.329396 
L 240.50488 70.13707 
L 239.913155 65.944744 
L 239.805195 65.18944 
L 239.234355 61.752418 
L 238.411351 57.560091 
L 237.425465 53.367765 
L 236.272072 49.175439 
L 235.612869 44.983113 
L 231.420543 44.983113 
L 227.228217 44.983113 
L 223.03589 44.983113 
L 218.843564 44.983113 
L 214.651238 44.983113 
L 210.458912 44.983113 
L 210.458912 44.983113 
L 210.458912 40.790787 
L 210.458912 36.59846 
L 210.458912 32.406134 
L 210.458912 28.213808 
z
" clip-path="url(#p85da1a8255)" style="fill: #ecf2f5"/>
    <path d="M 84.689127 28.213808 
L 88.881453 28.213808 
L 93.073779 28.213808 
L 97.266105 28.213808 
L 101.458431 28.213808 
L 105.650758 28.213808 
L 109.843084 28.213808 
L 114.03541 28.213808 
L 118.227736 28.213808 
L 122.420062 28.213808 
L 126.612388 28.213808 
L 130.804715 28.213808 
L 134.997041 28.213808 
L 139.189367 28.213808 
L 143.381693 28.213808 
L 147.574019 28.213808 
L 151.766345 28.213808 
L 155.958672 28.213808 
L 160.150998 28.213808 
L 164.343324 28.213808 
L 168.53565 28.213808 
L 172.727976 28.213808 
L 176.920302 28.213808 
L 181.112629 28.213808 
L 185.304955 28.213808 
L 189.497281 28.213808 
L 193.689607 28.213808 
L 197.881933 28.213808 
L 202.07426 28.213808 
L 206.266586 28.213808 
L 210.458912 28.213808 
L 210.458912 32.406134 
L 210.458912 36.59846 
L 210.458912 40.790787 
L 210.458912 44.983113 
L 210.458912 44.983113 
L 214.651238 44.983113 
L 218.843564 44.983113 
L 223.03589 44.983113 
L 227.228217 44.983113 
L 231.420543 44.983113 
L 235.612869 44.983113 
L 236.272072 49.175439 
L 237.425465 53.367765 
L 238.411351 57.560091 
L 239.234355 61.752418 
L 239.805195 65.18944 
L 239.913155 65.944744 
L 240.50488 70.13707 
L 240.879566 74.329396 
L 241.024399 78.521722 
L 240.934292 82.714048 
L 240.614182 86.906375 
L 240.079406 91.098701 
L 239.805195 92.567822 
L 239.415305 95.291027 
L 238.638886 99.483353 
L 237.735982 103.675679 
L 236.733828 107.868005 
L 235.659822 112.060332 
L 235.612869 112.223052 
L 234.616879 116.252658 
L 233.543201 120.444984 
L 232.455384 124.63731 
L 231.420543 128.62777 
L 231.373271 128.829636 
L 230.345548 133.021962 
L 229.340732 137.214289 
L 228.370518 141.406615 
L 227.444636 145.598941 
L 227.228217 146.605997 
L 226.577636 149.791267 
L 225.767568 153.983593 
L 225.017756 158.175919 
L 224.333051 162.368246 
L 223.717299 166.560572 
L 223.173505 170.752898 
L 223.03589 171.964907 
L 222.700545 174.945224 
L 222.302385 179.13755 
L 221.982031 183.329876 
L 221.740751 187.522203 
L 221.579431 191.714529 
L 221.498634 195.906855 
L 218.843564 195.906855 
L 214.651238 195.906855 
L 210.458912 195.906855 
L 206.266586 195.906855 
L 202.472946 195.906855 
L 202.509016 191.714529 
L 202.580254 187.522203 
L 202.684833 183.329876 
L 202.81996 179.13755 
L 202.981814 174.945224 
L 203.165466 170.752898 
L 203.364777 166.560572 
L 203.572282 162.368246 
L 203.779065 158.175919 
L 203.974617 153.983593 
L 204.146698 149.791267 
L 204.2812 145.598941 
L 204.362023 141.406615 
L 204.370974 137.214289 
L 204.287699 133.021962 
L 204.089656 128.829636 
L 203.752147 124.63731 
L 203.248397 120.444984 
L 202.549704 116.252658 
L 202.07426 114.051968 
L 201.605773 112.060332 
L 200.380365 107.868005 
L 198.868914 103.675679 
L 197.881933 101.366417 
L 197.008843 99.483353 
L 194.780226 95.291027 
L 193.689607 93.467863 
L 192.163006 91.098701 
L 189.497281 87.303652 
L 189.196665 86.906375 
L 185.869166 82.714048 
L 185.304955 82.02488 
L 182.25807 78.521722 
L 181.112629 77.199701 
L 178.458818 74.329396 
L 176.920302 72.602329 
L 174.551947 70.13707 
L 172.727976 68.102626 
L 170.604109 65.944744 
L 168.53565 63.622055 
L 166.659196 61.752418 
L 164.343324 59.122197 
L 162.734461 57.560091 
L 160.150998 54.606437 
L 158.812662 53.367765 
L 155.958672 50.141737 
L 154.805241 49.175439 
L 151.766345 45.925785 
L 150.351017 44.983113 
L 147.574019 42.481755 
L 143.381693 41.175175 
L 139.189367 43.212011 
L 138.001625 44.983113 
L 135.065629 49.175439 
L 134.997041 49.270056 
L 133.177955 53.367765 
L 131.402318 57.560091 
L 130.804715 59.011169 
L 129.974675 61.752418 
L 128.768269 65.944744 
L 127.674045 70.13707 
L 126.700714 74.329396 
L 126.612388 74.739668 
L 125.944277 78.521722 
L 125.293827 82.714048 
L 124.736168 86.906375 
L 124.267456 91.098701 
L 123.882431 95.291027 
L 123.574998 99.483353 
L 123.33863 103.675679 
L 123.166641 107.868005 
L 123.052367 112.060332 
L 122.989281 116.252658 
L 122.971057 120.444984 
L 122.991608 124.63731 
L 123.045106 128.829636 
L 123.125992 133.021962 
L 123.228978 137.214289 
L 123.349051 141.406615 
L 123.481472 145.598941 
L 123.621781 149.791267 
L 123.765801 153.983593 
L 123.909648 158.175919 
L 124.049736 162.368246 
L 124.182792 166.560572 
L 124.305861 170.752898 
L 124.416327 174.945224 
L 124.511916 179.13755 
L 124.590715 183.329876 
L 124.65118 187.522203 
L 124.692141 191.714529 
L 124.712819 195.906855 
L 122.420062 195.906855 
L 118.227736 195.906855 
L 114.03541 195.906855 
L 109.843084 195.906855 
L 105.650758 195.906855 
L 105.467704 195.906855 
L 105.423725 191.714529 
L 105.335923 187.522203 
L 105.204603 183.329876 
L 105.030221 179.13755 
L 104.813366 174.945224 
L 104.554759 170.752898 
L 104.255233 166.560572 
L 103.915721 162.368246 
L 103.537238 158.175919 
L 103.120865 153.983593 
L 102.667728 149.791267 
L 102.178979 145.598941 
L 101.655779 141.406615 
L 101.458431 139.899772 
L 101.099747 137.214289 
L 100.512305 133.021962 
L 99.894542 128.829636 
L 99.247707 124.63731 
L 98.573041 120.444984 
L 97.871791 116.252658 
L 97.266105 112.740858 
L 97.144395 112.060332 
L 96.389456 107.868005 
L 95.613409 103.675679 
L 94.818232 99.483353 
L 94.006217 95.291027 
L 93.180087 91.098701 
L 93.073779 90.550085 
L 92.333138 86.906375 
L 91.479841 82.714048 
L 90.626917 78.521722 
L 89.780494 74.329396 
L 88.947805 70.13707 
L 88.881453 69.783921 
L 88.120992 65.944744 
L 87.327108 61.752418 
L 86.578436 57.560091 
L 85.886527 53.367765 
L 85.263394 49.175439 
L 84.721054 44.983113 
L 84.689127 44.681389 
L 84.257367 40.790787 
L 83.898857 36.59846 
L 83.6549 32.406134 
L 83.531392 28.213808 
z
M 298.497761 28.213808 
L 302.690088 28.213808 
L 306.882414 28.213808 
L 309.182315 28.213808 
L 309.091776 32.406134 
L 308.896843 36.59846 
L 308.568427 40.790787 
L 308.061129 44.983113 
L 307.326057 49.175439 
L 306.882414 51.219951 
L 306.320455 53.367765 
L 305.126393 57.560091 
L 303.944399 61.752418 
L 302.881598 65.944744 
L 302.690088 66.893656 
L 301.903218 70.13707 
L 301.211294 74.329396 
L 300.874268 78.521722 
L 300.923435 82.714048 
L 301.394768 86.906375 
L 302.332715 91.098701 
L 302.690088 92.157022 
L 303.685235 95.291027 
L 305.5462 99.483353 
L 306.882414 101.794969 
L 307.942317 103.675679 
L 310.903226 107.868005 
L 311.07474 108.072898 
L 314.420324 112.060332 
L 315.267066 112.923542 
L 318.604462 116.252658 
L 319.459392 117.004182 
L 323.531287 120.444984 
L 323.651719 120.536942 
L 327.844045 123.620062 
L 329.325892 124.63731 
L 332.036371 126.366533 
L 336.228697 128.819066 
L 336.248117 128.829636 
L 340.421023 130.992799 
L 344.613349 132.922934 
L 344.851382 133.021962 
L 348.805676 134.62337 
L 352.998002 136.09694 
L 356.731552 137.214289 
L 357.190328 137.350634 
L 361.382654 138.402468 
L 365.57498 139.23924 
L 369.767306 139.863987 
L 373.959633 140.279105 
L 378.151959 140.486243 
L 378.151959 141.406615 
L 378.151959 145.598941 
L 378.151959 149.791267 
L 378.151959 151.067837 
L 373.959633 150.875595 
L 369.767306 150.490959 
L 365.57498 149.913662 
L 364.901347 149.791267 
L 361.382654 149.173044 
L 357.190328 148.252919 
L 352.998002 147.147121 
L 348.805676 145.855467 
L 348.061264 145.598941 
L 344.613349 144.417965 
L 340.421023 142.807875 
L 337.114354 141.406615 
L 336.228697 141.025923 
L 332.036371 139.095788 
L 328.270815 137.214289 
L 327.844045 136.99336 
L 323.651719 134.732791 
L 320.651567 133.021962 
L 319.459392 132.301567 
L 315.267066 129.695854 
L 313.89538 128.829636 
L 311.07474 126.895916 
L 307.829745 124.63731 
L 306.882414 123.906383 
L 302.690088 120.697467 
L 302.348163 120.444984 
L 298.497761 117.203908 
L 297.318896 116.252658 
L 294.305435 113.409601 
L 292.774166 112.060332 
L 290.113109 109.240748 
L 288.682006 107.868005 
L 285.920783 104.58331 
L 285.045135 103.675679 
L 281.880398 99.483353 
L 281.728457 99.218066 
L 278.985683 95.291027 
L 277.536131 92.402859 
L 276.682639 91.098701 
L 274.761776 86.906375 
L 273.50782 82.714048 
L 273.343804 81.727678 
L 272.526751 78.521722 
L 272.077197 74.329396 
L 272.159942 70.13707 
L 272.778388 65.944744 
L 273.343804 63.702058 
L 273.780433 61.752418 
L 275.090657 57.560091 
L 277.30074 53.367765 
L 277.536131 52.662434 
L 279.741676 49.175439 
L 281.728457 44.983113 
L 285.920783 44.983113 
L 290.113109 44.983113 
L 294.305435 44.983113 
L 294.305435 44.983113 
L 294.305435 40.790787 
L 294.305435 36.59846 
L 294.305435 32.406134 
L 294.305435 28.213808 
z
" clip-path="url(#p85da1a8255)" style="fill: #f9eee7"/>
    <path d="M 311.07474 28.213808 
L 315.267066 28.213808 
L 317.554392 28.213808 
L 317.480639 32.406134 
L 317.328637 36.59846 
L 317.090773 40.790787 
L 316.759989 44.983113 
L 316.337395 49.175439 
L 315.842851 53.367765 
L 315.315196 57.560091 
L 315.267066 57.972174 
L 314.773529 61.752418 
L 314.312526 65.944744 
L 314.00059 70.13707 
L 313.899467 74.329396 
L 314.067144 78.521722 
L 314.559203 82.714048 
L 315.267066 86.147397 
L 315.422402 86.906375 
L 316.666027 91.098701 
L 318.390558 95.291027 
L 319.459392 97.320793 
L 320.625102 99.483353 
L 323.43351 103.675679 
L 323.651719 103.952612 
L 326.881547 107.868005 
L 327.844045 108.873064 
L 331.097203 112.060332 
L 332.036371 112.877341 
L 336.228697 116.240397 
L 336.245328 116.252658 
L 340.421023 119.077338 
L 342.691716 120.444984 
L 344.613349 121.528461 
L 348.805676 123.626205 
L 351.132611 124.63731 
L 352.998002 125.414258 
L 357.190328 126.911586 
L 361.382654 128.142261 
L 364.328979 128.829636 
L 365.57498 129.115504 
L 369.767306 129.839418 
L 373.959633 130.31933 
L 378.151959 130.558473 
L 378.151959 133.021962 
L 378.151959 137.214289 
L 378.151959 140.486243 
L 373.959633 140.279105 
L 369.767306 139.863987 
L 365.57498 139.23924 
L 361.382654 138.402468 
L 357.190328 137.350634 
L 356.731552 137.214289 
L 352.998002 136.09694 
L 348.805676 134.62337 
L 344.851382 133.021962 
L 344.613349 132.922934 
L 340.421023 130.992799 
L 336.248117 128.829636 
L 336.228697 128.819066 
L 332.036371 126.366533 
L 329.325892 124.63731 
L 327.844045 123.620062 
L 323.651719 120.536942 
L 323.531287 120.444984 
L 319.459392 117.004182 
L 318.604462 116.252658 
L 315.267066 112.923542 
L 314.420324 112.060332 
L 311.07474 108.072898 
L 310.903226 107.868005 
L 307.942317 103.675679 
L 306.882414 101.794969 
L 305.5462 99.483353 
L 303.685235 95.291027 
L 302.690088 92.157022 
L 302.332715 91.098701 
L 301.394768 86.906375 
L 300.923435 82.714048 
L 300.874268 78.521722 
L 301.211294 74.329396 
L 301.903218 70.13707 
L 302.690088 66.893656 
L 302.881598 65.944744 
L 303.944399 61.752418 
L 305.126393 57.560091 
L 306.320455 53.367765 
L 306.882414 51.219951 
L 307.326057 49.175439 
L 308.061129 44.983113 
L 308.568427 40.790787 
L 308.896843 36.59846 
L 309.091776 32.406134 
L 309.182315 28.213808 
z
M 139.189367 43.212011 
L 143.381693 41.175175 
L 147.574019 42.481755 
L 150.351017 44.983113 
L 151.766345 45.925785 
L 154.805241 49.175439 
L 155.958672 50.141737 
L 158.812662 53.367765 
L 160.150998 54.606437 
L 162.734461 57.560091 
L 164.343324 59.122197 
L 166.659196 61.752418 
L 168.53565 63.622055 
L 170.604109 65.944744 
L 172.727976 68.102626 
L 174.551947 70.13707 
L 176.920302 72.602329 
L 178.458818 74.329396 
L 181.112629 77.199701 
L 182.25807 78.521722 
L 185.304955 82.02488 
L 185.869166 82.714048 
L 189.196665 86.906375 
L 189.497281 87.303652 
L 192.163006 91.098701 
L 193.689607 93.467863 
L 194.780226 95.291027 
L 197.008843 99.483353 
L 197.881933 101.366417 
L 198.868914 103.675679 
L 200.380365 107.868005 
L 201.605773 112.060332 
L 202.07426 114.051968 
L 202.549704 116.252658 
L 203.248397 120.444984 
L 203.752147 124.63731 
L 204.089656 128.829636 
L 204.287699 133.021962 
L 204.370974 137.214289 
L 204.362023 141.406615 
L 204.2812 145.598941 
L 204.146698 149.791267 
L 203.974617 153.983593 
L 203.779065 158.175919 
L 203.572282 162.368246 
L 203.364777 166.560572 
L 203.165466 170.752898 
L 202.981814 174.945224 
L 202.81996 179.13755 
L 202.684833 183.329876 
L 202.580254 187.522203 
L 202.509016 191.714529 
L 202.472946 195.906855 
L 202.07426 195.906855 
L 197.881933 195.906855 
L 193.689607 195.906855 
L 189.497281 195.906855 
L 185.304955 195.906855 
L 181.112629 195.906855 
L 176.920302 195.906855 
L 172.727976 195.906855 
L 168.53565 195.906855 
L 164.343324 195.906855 
L 160.150998 195.906855 
L 155.958672 195.906855 
L 151.766345 195.906855 
L 147.574019 195.906855 
L 143.381693 195.906855 
L 139.189367 195.906855 
L 134.997041 195.906855 
L 130.804715 195.906855 
L 126.612388 195.906855 
L 124.712819 195.906855 
L 124.692141 191.714529 
L 124.65118 187.522203 
L 124.590715 183.329876 
L 124.511916 179.13755 
L 124.416327 174.945224 
L 124.305861 170.752898 
L 124.182792 166.560572 
L 124.049736 162.368246 
L 123.909648 158.175919 
L 123.765801 153.983593 
L 123.621781 149.791267 
L 123.481472 145.598941 
L 123.349051 141.406615 
L 123.228978 137.214289 
L 123.125992 133.021962 
L 123.045106 128.829636 
L 122.991608 124.63731 
L 122.971057 120.444984 
L 122.989281 116.252658 
L 123.052367 112.060332 
L 123.166641 107.868005 
L 123.33863 103.675679 
L 123.574998 99.483353 
L 123.882431 95.291027 
L 124.267456 91.098701 
L 124.736168 86.906375 
L 125.293827 82.714048 
L 125.944277 78.521722 
L 126.612388 74.739668 
L 126.700714 74.329396 
L 127.674045 70.13707 
L 128.768269 65.944744 
L 129.974675 61.752418 
L 130.804715 59.011169 
L 131.402318 57.560091 
L 133.177955 53.367765 
L 134.997041 49.270056 
L 135.065629 49.175439 
L 138.001625 44.983113 
z
" clip-path="url(#p85da1a8255)" style="fill: #fddcc9"/>
    <path d="M 319.459392 28.213808 
L 323.651719 28.213808 
L 324.927509 28.213808 
L 324.882192 32.406134 
L 324.791625 36.59846 
L 324.657052 40.790787 
L 324.483138 44.983113 
L 324.281037 49.175439 
L 324.071199 53.367765 
L 323.884156 57.560091 
L 323.759403 61.752418 
L 323.743324 65.944744 
L 323.887064 70.13707 
L 324.24487 74.329396 
L 324.873148 78.521722 
L 325.830235 82.714048 
L 327.176808 86.906375 
L 327.844045 88.513589 
L 328.974027 91.098701 
L 331.292059 95.291027 
L 332.036371 96.408301 
L 334.239062 99.483353 
L 336.228697 101.832482 
L 337.938953 103.675679 
L 340.421023 106.018446 
L 342.60993 107.868005 
L 344.613349 109.391747 
L 348.616253 112.060332 
L 348.805676 112.176588 
L 352.998002 114.443196 
L 357.007224 116.252658 
L 357.190328 116.330752 
L 361.382654 117.830641 
L 365.57498 119.010522 
L 369.767306 119.883809 
L 373.845862 120.444984 
L 373.959633 120.460266 
L 378.151959 120.74287 
L 378.151959 124.63731 
L 378.151959 128.829636 
L 378.151959 130.558473 
L 373.959633 130.31933 
L 369.767306 129.839418 
L 365.57498 129.115504 
L 364.328979 128.829636 
L 361.382654 128.142261 
L 357.190328 126.911586 
L 352.998002 125.414258 
L 351.132611 124.63731 
L 348.805676 123.626205 
L 344.613349 121.528461 
L 342.691716 120.444984 
L 340.421023 119.077338 
L 336.245328 116.252658 
L 336.228697 116.240397 
L 332.036371 112.877341 
L 331.097203 112.060332 
L 327.844045 108.873064 
L 326.881547 107.868005 
L 323.651719 103.952612 
L 323.43351 103.675679 
L 320.625102 99.483353 
L 319.459392 97.320793 
L 318.390558 95.291027 
L 316.666027 91.098701 
L 315.422402 86.906375 
L 315.267066 86.147397 
L 314.559203 82.714048 
L 314.067144 78.521722 
L 313.899467 74.329396 
L 314.00059 70.13707 
L 314.312526 65.944744 
L 314.773529 61.752418 
L 315.267066 57.972174 
L 315.315196 57.560091 
L 315.842851 53.367765 
L 316.337395 49.175439 
L 316.759989 44.983113 
L 317.090773 40.790787 
L 317.328637 36.59846 
L 317.480639 32.406134 
L 317.554392 28.213808 
z
" clip-path="url(#p85da1a8255)" style="fill: #f8bb9e"/>
    <path d="M 327.844045 28.213808 
L 332.036371 28.213808 
L 332.070857 28.213808 
L 332.056984 32.406134 
L 332.036371 35.827885 
L 332.031771 36.59846 
L 332.001177 40.790787 
L 331.97444 44.983113 
L 331.966752 49.175439 
L 332.000118 53.367765 
L 332.036371 54.865284 
L 332.105103 57.560091 
L 332.319392 61.752418 
L 332.68594 65.944744 
L 333.25402 70.13707 
L 334.077739 74.329396 
L 335.215456 78.521722 
L 336.228697 81.374444 
L 336.745205 82.714048 
L 338.763206 86.906375 
L 340.421023 89.685613 
L 341.35586 91.098701 
L 344.613349 95.22208 
L 344.67506 95.291027 
L 348.805676 99.300623 
L 349.024148 99.483353 
L 352.998002 102.454306 
L 354.948841 103.675679 
L 357.190328 104.959291 
L 361.382654 106.926752 
L 363.935611 107.868005 
L 365.57498 108.435929 
L 369.767306 109.519594 
L 373.959633 110.23267 
L 378.151959 110.586425 
L 378.151959 112.060332 
L 378.151959 116.252658 
L 378.151959 120.444984 
L 378.151959 120.74287 
L 373.959633 120.460266 
L 373.845862 120.444984 
L 369.767306 119.883809 
L 365.57498 119.010522 
L 361.382654 117.830641 
L 357.190328 116.330752 
L 357.007224 116.252658 
L 352.998002 114.443196 
L 348.805676 112.176588 
L 348.616253 112.060332 
L 344.613349 109.391747 
L 342.60993 107.868005 
L 340.421023 106.018446 
L 337.938953 103.675679 
L 336.228697 101.832482 
L 334.239062 99.483353 
L 332.036371 96.408301 
L 331.292059 95.291027 
L 328.974027 91.098701 
L 327.844045 88.513589 
L 327.176808 86.906375 
L 325.830235 82.714048 
L 324.873148 78.521722 
L 324.24487 74.329396 
L 323.887064 70.13707 
L 323.743324 65.944744 
L 323.759403 61.752418 
L 323.884156 57.560091 
L 324.071199 53.367765 
L 324.281037 49.175439 
L 324.483138 44.983113 
L 324.657052 40.790787 
L 324.791625 36.59846 
L 324.882192 32.406134 
L 324.927509 28.213808 
z
" clip-path="url(#p85da1a8255)" style="fill: #ee9677"/>
    <path d="M 336.228697 28.213808 
L 339.459678 28.213808 
L 339.481435 32.406134 
L 339.528693 36.59846 
L 339.609317 40.790787 
L 339.73595 44.983113 
L 339.926793 49.175439 
L 340.206293 53.367765 
L 340.421023 55.657554 
L 340.61555 57.560091 
L 341.201892 61.752418 
L 341.999713 65.944744 
L 343.061696 70.13707 
L 344.446616 74.329396 
L 344.613349 74.741461 
L 346.33429 78.521722 
L 348.722992 82.714048 
L 348.805676 82.837311 
L 351.957167 86.906375 
L 352.998002 88.052293 
L 356.28532 91.098701 
L 357.190328 91.836753 
L 361.382654 94.638214 
L 362.63069 95.291027 
L 365.57498 96.695045 
L 369.767306 98.164409 
L 373.959633 99.124489 
L 377.126388 99.483353 
L 378.151959 99.592961 
L 378.151959 103.675679 
L 378.151959 107.868005 
L 378.151959 110.586425 
L 373.959633 110.23267 
L 369.767306 109.519594 
L 365.57498 108.435929 
L 363.935611 107.868005 
L 361.382654 106.926752 
L 357.190328 104.959291 
L 354.948841 103.675679 
L 352.998002 102.454306 
L 349.024148 99.483353 
L 348.805676 99.300623 
L 344.67506 95.291027 
L 344.613349 95.22208 
L 341.35586 91.098701 
L 340.421023 89.685613 
L 338.763206 86.906375 
L 336.745205 82.714048 
L 336.228697 81.374444 
L 335.215456 78.521722 
L 334.077739 74.329396 
L 333.25402 70.13707 
L 332.68594 65.944744 
L 332.319392 61.752418 
L 332.105103 57.560091 
L 332.036371 54.865284 
L 332.000118 53.367765 
L 331.966752 49.175439 
L 331.97444 44.983113 
L 332.001177 40.790787 
L 332.031771 36.59846 
L 332.036371 35.827885 
L 332.056984 32.406134 
L 332.070857 28.213808 
z
" clip-path="url(#p85da1a8255)" style="fill: #db6b55"/>
    <path d="M 340.421023 28.213808 
L 344.613349 28.213808 
L 347.594011 28.213808 
L 347.660057 32.406134 
L 347.79715 36.59846 
L 348.015526 40.790787 
L 348.331073 44.983113 
L 348.765834 49.175439 
L 348.805676 49.469681 
L 349.402896 53.367765 
L 350.244997 57.560091 
L 351.334676 61.752418 
L 352.726359 65.944744 
L 352.998002 66.61669 
L 354.671446 70.13707 
L 357.138652 74.329396 
L 357.190328 74.403996 
L 360.675325 78.521722 
L 361.382654 79.236238 
L 365.57498 82.545464 
L 365.86624 82.714048 
L 369.767306 84.727342 
L 373.959633 86.129331 
L 378.151959 86.81787 
L 378.151959 86.906375 
L 378.151959 91.098701 
L 378.151959 95.291027 
L 378.151959 99.483353 
L 378.151959 99.592961 
L 377.126388 99.483353 
L 373.959633 99.124489 
L 369.767306 98.164409 
L 365.57498 96.695045 
L 362.63069 95.291027 
L 361.382654 94.638214 
L 357.190328 91.836753 
L 356.28532 91.098701 
L 352.998002 88.052293 
L 351.957167 86.906375 
L 348.805676 82.837311 
L 348.722992 82.714048 
L 346.33429 78.521722 
L 344.613349 74.741461 
L 344.446616 74.329396 
L 343.061696 70.13707 
L 341.999713 65.944744 
L 341.201892 61.752418 
L 340.61555 57.560091 
L 340.421023 55.657554 
L 340.206293 53.367765 
L 339.926793 49.175439 
L 339.73595 44.983113 
L 339.609317 40.790787 
L 339.528693 36.59846 
L 339.481435 32.406134 
L 339.459678 28.213808 
z
" clip-path="url(#p85da1a8255)" style="fill: #c53e3d"/>
    <path d="M 348.805676 28.213808 
L 352.998002 28.213808 
L 357.190328 28.213808 
L 357.508263 28.213808 
L 357.663533 32.406134 
L 357.981898 36.59846 
L 358.479199 40.790787 
L 359.179645 44.983113 
L 360.116263 49.175439 
L 361.331379 53.367765 
L 361.382654 53.511007 
L 363.210732 57.560091 
L 365.57498 61.743165 
L 365.582073 61.752418 
L 369.430901 65.944744 
L 369.767306 66.254827 
L 373.959633 68.792727 
L 378.151959 70.025644 
L 378.151959 70.13707 
L 378.151959 74.329396 
L 378.151959 78.521722 
L 378.151959 82.714048 
L 378.151959 86.81787 
L 373.959633 86.129331 
L 369.767306 84.727342 
L 365.86624 82.714048 
L 365.57498 82.545464 
L 361.382654 79.236238 
L 360.675325 78.521722 
L 357.190328 74.403996 
L 357.138652 74.329396 
L 354.671446 70.13707 
L 352.998002 66.61669 
L 352.726359 65.944744 
L 351.334676 61.752418 
L 350.244997 57.560091 
L 349.402896 53.367765 
L 348.805676 49.469681 
L 348.765834 49.175439 
L 348.331073 44.983113 
L 348.015526 40.790787 
L 347.79715 36.59846 
L 347.660057 32.406134 
L 347.594011 28.213808 
z
" clip-path="url(#p85da1a8255)" style="fill: #ab162a"/>
    <path d="M 361.382654 28.213808 
L 365.57498 28.213808 
L 369.767306 28.213808 
L 373.959633 28.213808 
L 378.151959 28.213808 
L 378.151959 32.406134 
L 378.151959 36.59846 
L 378.151959 40.790787 
L 378.151959 44.983113 
L 378.151959 49.175439 
L 378.151959 53.367765 
L 378.151959 57.560091 
L 378.151959 61.752418 
L 378.151959 65.944744 
L 378.151959 70.025644 
L 373.959633 68.792727 
L 369.767306 66.254827 
L 369.430901 65.944744 
L 365.582073 61.752418 
L 365.57498 61.743165 
L 363.210732 57.560091 
L 361.382654 53.511007 
L 361.331379 53.367765 
L 360.116263 49.175439 
L 359.179645 44.983113 
L 358.479199 40.790787 
L 357.981898 36.59846 
L 357.663533 32.406134 
L 357.508263 28.213808 
z
" clip-path="url(#p85da1a8255)" style="fill: #7c0722"/>
    <path clip-path="url(#p85da1a8255)" style="fill: #67001f"/>
   </g>
   <g id="patch_3">
    <path d="M 210.458912 28.213808 
L 294.305435 28.213808 
L 294.305435 44.983113 
L 210.458912 44.983113 
z
" clip-path="url(#p85da1a8255)" style="fill: url(#hb5ae7af52e); opacity: 0.35; stroke: #111827; stroke-width: 1.2; stroke-linejoin: miter"/>
   </g>
   <g id="PathCollection_1">
    <defs>
     <path id="m1714bda0ce" d="M -0 4.582576 
L 4.582576 0 
L 0 -4.582576 
L -4.582576 -0 
z
" style="stroke: #111827; stroke-width: 0.7"/>
    </defs>
    <g clip-path="url(#p85da1a8255)">
     <use xlink:href="#m1714bda0ce" x="210.458912" y="112.060332" style="fill: #f5b942; stroke: #111827; stroke-width: 0.7"/>
    </g>
   </g>
   <g id="matplotlib.axis_1">
    <g id="xtick_1">
     <g id="line2d_1">
      <defs>
       <path id="m617ff482a0" d="M 0 0 
L 0 3.5 
" style="stroke: #000000; stroke-width: 0.8"/>
      </defs>
      <g>
       <use xlink:href="#m617ff482a0" x="42.765865" y="195.906855" style="stroke: #000000; stroke-width: 0.8"/>
      </g>
     </g>
     <g id="text_1">
      <!-- 0 -->
      <g transform="translate(39.584615 210.505292) scale(0.1 -0.1)">
       <defs>
        <path id="DejaVuSans-30" d="M 2034 4250 
Q 1547 4250 1301 3770 
Q 1056 3291 1056 2328 
Q 1056 1369 1301 889 
Q 1547 409 2034 409 
Q 2525 409 2770 889 
Q 3016 1369 3016 2328 
Q 3016 3291 2770 3770 
Q 2525 4250 2034 4250 
z
M 2034 4750 
Q 2819 4750 3233 4129 
Q 3647 3509 3647 2328 
Q 3647 1150 3233 529 
Q 2819 -91 2034 -91 
Q 1250 -91 836 529 
Q 422 1150 422 2328 
Q 422 3509 836 4129 
Q 1250 4750 2034 4750 
z
" transform="scale(0.015625)"/>
       </defs>
       <use xlink:href="#DejaVuSans-30"/>
      </g>
     </g>
    </g>
    <g id="xtick_2">
     <g id="line2d_2">
      <g>
       <use xlink:href="#m617ff482a0" x="126.612388" y="195.906855" style="stroke: #000000; stroke-width: 0.8"/>
      </g>
     </g>
     <g id="text_2">
      <!-- 100 -->
      <g transform="translate(117.068638 210.505292) scale(0.1 -0.1)">
       <defs>
        <path id="DejaVuSans-31" d="M 794 531 
L 1825 531 
L 1825 4091 
L 703 3866 
L 703 4441 
L 1819 4666 
L 2450 4666 
L 2450 531 
L 3481 531 
L 3481 0 
L 794 0 
L 794 531 
z
" transform="scale(0.015625)"/>
       </defs>
       <use xlink:href="#DejaVuSans-31"/>
       <use xlink:href="#DejaVuSans-30" transform="translate(63.623047 0)"/>
       <use xlink:href="#DejaVuSans-30" transform="translate(127.246094 0)"/>
      </g>
     </g>
    </g>
    <g id="xtick_3">
     <g id="line2d_3">
      <g>
       <use xlink:href="#m617ff482a0" x="210.458912" y="195.906855" style="stroke: #000000; stroke-width: 0.8"/>
      </g>
     </g>
     <g id="text_3">
      <!-- 200 -->
      <g transform="translate(200.915162 210.505292) scale(0.1 -0.1)">
       <defs>
        <path id="DejaVuSans-32" d="M 1228 531 
L 3431 531 
L 3431 0 
L 469 0 
L 469 531 
Q 828 903 1448 1529 
Q 2069 2156 2228 2338 
Q 2531 2678 2651 2914 
Q 2772 3150 2772 3378 
Q 2772 3750 2511 3984 
Q 2250 4219 1831 4219 
Q 1534 4219 1204 4116 
Q 875 4013 500 3803 
L 500 4441 
Q 881 4594 1212 4672 
Q 1544 4750 1819 4750 
Q 2544 4750 2975 4387 
Q 3406 4025 3406 3419 
Q 3406 3131 3298 2873 
Q 3191 2616 2906 2266 
Q 2828 2175 2409 1742 
Q 1991 1309 1228 531 
z
" transform="scale(0.015625)"/>
       </defs>
       <use xlink:href="#DejaVuSans-32"/>
       <use xlink:href="#DejaVuSans-30" transform="translate(63.623047 0)"/>
       <use xlink:href="#DejaVuSans-30" transform="translate(127.246094 0)"/>
      </g>
     </g>
    </g>
    <g id="xtick_4">
     <g id="line2d_4">
      <g>
       <use xlink:href="#m617ff482a0" x="294.305435" y="195.906855" style="stroke: #000000; stroke-width: 0.8"/>
      </g>
     </g>
     <g id="text_4">
      <!-- 300 -->
      <g transform="translate(284.761685 210.505292) scale(0.1 -0.1)">
       <defs>
        <path id="DejaVuSans-33" d="M 2597 2516 
Q 3050 2419 3304 2112 
Q 3559 1806 3559 1356 
Q 3559 666 3084 287 
Q 2609 -91 1734 -91 
Q 1441 -91 1130 -33 
Q 819 25 488 141 
L 488 750 
Q 750 597 1062 519 
Q 1375 441 1716 441 
Q 2309 441 2620 675 
Q 2931 909 2931 1356 
Q 2931 1769 2642 2001 
Q 2353 2234 1838 2234 
L 1294 2234 
L 1294 2753 
L 1863 2753 
Q 2328 2753 2575 2939 
Q 2822 3125 2822 3475 
Q 2822 3834 2567 4026 
Q 2313 4219 1838 4219 
Q 1578 4219 1281 4162 
Q 984 4106 628 3988 
L 628 4550 
Q 988 4650 1302 4700 
Q 1616 4750 1894 4750 
Q 2613 4750 3031 4423 
Q 3450 4097 3450 3541 
Q 3450 3153 3228 2886 
Q 3006 2619 2597 2516 
z
" transform="scale(0.015625)"/>
       </defs>
       <use xlink:href="#DejaVuSans-33"/>
       <use xlink:href="#DejaVuSans-30" transform="translate(63.623047 0)"/>
       <use xlink:href="#DejaVuSans-30" transform="translate(127.246094 0)"/>
      </g>
     </g>
    </g>
    <g id="xtick_5">
     <g id="line2d_5">
      <g>
       <use xlink:href="#m617ff482a0" x="378.151959" y="195.906855" style="stroke: #000000; stroke-width: 0.8"/>
      </g>
     </g>
     <g id="text_5">
      <!-- 400 -->
      <g transform="translate(368.608209 210.505292) scale(0.1 -0.1)">
       <defs>
        <path id="DejaVuSans-34" d="M 2419 4116 
L 825 1625 
L 2419 1625 
L 2419 4116 
z
M 2253 4666 
L 3047 4666 
L 3047 1625 
L 3713 1625 
L 3713 1100 
L 3047 1100 
L 3047 0 
L 2419 0 
L 2419 1100 
L 313 1100 
L 313 1709 
L 2253 4666 
z
" transform="scale(0.015625)"/>
       </defs>
       <use xlink:href="#DejaVuSans-34"/>
       <use xlink:href="#DejaVuSans-30" transform="translate(63.623047 0)"/>
       <use xlink:href="#DejaVuSans-30" transform="translate(127.246094 0)"/>
      </g>
     </g>
    </g>
    <g id="text_6">
     <!-- x [mm] -->
     <g transform="translate(192.268287 224.183417) scale(0.1 -0.1)">
      <defs>
       <path id="DejaVuSans-78" d="M 3513 3500 
L 2247 1797 
L 3578 0 
L 2900 0 
L 1881 1375 
L 863 0 
L 184 0 
L 1544 1831 
L 300 3500 
L 978 3500 
L 1906 2253 
L 2834 3500 
L 3513 3500 
z
" transform="scale(0.015625)"/>
       <path id="DejaVuSans-20" transform="scale(0.015625)"/>
       <path id="DejaVuSans-5b" d="M 550 4863 
L 1875 4863 
L 1875 4416 
L 1125 4416 
L 1125 -397 
L 1875 -397 
L 1875 -844 
L 550 -844 
L 550 4863 
z
" transform="scale(0.015625)"/>
       <path id="DejaVuSans-6d" d="M 3328 2828 
Q 3544 3216 3844 3400 
Q 4144 3584 4550 3584 
Q 5097 3584 5394 3201 
Q 5691 2819 5691 2113 
L 5691 0 
L 5113 0 
L 5113 2094 
Q 5113 2597 4934 2840 
Q 4756 3084 4391 3084 
Q 3944 3084 3684 2787 
Q 3425 2491 3425 1978 
L 3425 0 
L 2847 0 
L 2847 2094 
Q 2847 2600 2669 2842 
Q 2491 3084 2119 3084 
Q 1678 3084 1418 2786 
Q 1159 2488 1159 1978 
L 1159 0 
L 581 0 
L 581 3500 
L 1159 3500 
L 1159 2956 
Q 1356 3278 1631 3431 
Q 1906 3584 2284 3584 
Q 2666 3584 2933 3390 
Q 3200 3197 3328 2828 
z
" transform="scale(0.015625)"/>
       <path id="DejaVuSans-5d" d="M 1947 4863 
L 1947 -844 
L 622 -844 
L 622 -397 
L 1369 -397 
L 1369 4416 
L 622 4416 
L 622 4863 
L 1947 4863 
z
" transform="scale(0.015625)"/>
      </defs>
      <use xlink:href="#DejaVuSans-78"/>
      <use xlink:href="#DejaVuSans-20" transform="translate(59.179688 0)"/>
      <use xlink:href="#DejaVuSans-5b" transform="translate(90.966797 0)"/>
      <use xlink:href="#DejaVuSans-6d" transform="translate(129.980469 0)"/>
      <use xlink:href="#DejaVuSans-6d" transform="translate(227.392578 0)"/>
      <use xlink:href="#DejaVuSans-5d" transform="translate(324.804688 0)"/>
     </g>
    </g>
   </g>
   <g id="matplotlib.axis_2">
    <g id="ytick_1">
     <g id="line2d_6">
      <defs>
       <path id="m5f62cda88d" d="M 0 0 
L -3.5 0 
" style="stroke: #000000; stroke-width: 0.8"/>
      </defs>
      <g>
       <use xlink:href="#m5f62cda88d" x="42.765865" y="28.213808" style="stroke: #000000; stroke-width: 0.8"/>
      </g>
     </g>
     <g id="text_7">
      <!-- 0 -->
      <g transform="translate(29.403365 32.013027) scale(0.1 -0.1)">
       <use xlink:href="#DejaVuSans-30"/>
      </g>
     </g>
    </g>
    <g id="ytick_2">
     <g id="line2d_7">
      <g>
       <use xlink:href="#m5f62cda88d" x="42.765865" y="112.060332" style="stroke: #000000; stroke-width: 0.8"/>
      </g>
     </g>
     <g id="text_8">
      <!-- 100 -->
      <g transform="translate(16.678365 115.85955) scale(0.1 -0.1)">
       <use xlink:href="#DejaVuSans-31"/>
       <use xlink:href="#DejaVuSans-30" transform="translate(63.623047 0)"/>
       <use xlink:href="#DejaVuSans-30" transform="translate(127.246094 0)"/>
      </g>
     </g>
    </g>
    <g id="ytick_3">
     <g id="line2d_8">
      <g>
       <use xlink:href="#m5f62cda88d" x="42.765865" y="195.906855" style="stroke: #000000; stroke-width: 0.8"/>
      </g>
     </g>
     <g id="text_9">
      <!-- 200 -->
      <g transform="translate(16.678365 199.706074) scale(0.1 -0.1)">
       <use xlink:href="#DejaVuSans-32"/>
       <use xlink:href="#DejaVuSans-30" transform="translate(63.623047 0)"/>
       <use xlink:href="#DejaVuSans-30" transform="translate(127.246094 0)"/>
      </g>
     </g>
    </g>
    <g id="text_10">
     <!-- y [mm] -->
     <g transform="translate(10.598678 130.250957) rotate(-90) scale(0.1 -0.1)">
      <defs>
       <path id="DejaVuSans-79" d="M 2059 -325 
Q 1816 -950 1584 -1140 
Q 1353 -1331 966 -1331 
L 506 -1331 
L 506 -850 
L 844 -850 
Q 1081 -850 1212 -737 
Q 1344 -625 1503 -206 
L 1606 56 
L 191 3500 
L 800 3500 
L 1894 763 
L 2988 3500 
L 3597 3500 
L 2059 -325 
z
" transform="scale(0.015625)"/>
      </defs>
      <use xlink:href="#DejaVuSans-79"/>
      <use xlink:href="#DejaVuSans-20" transform="translate(59.179688 0)"/>
      <use xlink:href="#DejaVuSans-5b" transform="translate(90.966797 0)"/>
      <use xlink:href="#DejaVuSans-6d" transform="translate(129.980469 0)"/>
      <use xlink:href="#DejaVuSans-6d" transform="translate(227.392578 0)"/>
      <use xlink:href="#DejaVuSans-5d" transform="translate(324.804688 0)"/>
     </g>
    </g>
   </g>
   <g id="QuadContourSet_2">
    <path d="M 210.458912 28.213808 
L 210.458912 44.983113 
L 210.458912 44.983113 
L 235.612869 44.983113 
L 236.272072 49.175439 
L 237.425465 53.367765 
L 238.411351 57.560091 
L 239.805195 65.18944 
L 240.50488 70.13707 
L 240.879566 74.329396 
L 241.024399 78.521722 
L 240.934292 82.714048 
L 240.614182 86.906375 
L 239.805195 92.567822 
L 239.415305 95.291027 
L 238.638886 99.483353 
L 236.733828 107.868005 
L 230.345548 133.021962 
L 227.444636 145.598941 
L 226.577636 149.791267 
L 225.017756 158.175919 
L 223.717299 166.560572 
L 222.700545 174.945224 
L 221.982031 183.329876 
L 221.579431 191.714529 
L 221.498634 195.906855 
M 378.151959 151.067837 
L 373.959633 150.875595 
L 369.767306 150.490959 
L 364.901347 149.791267 
L 361.382654 149.173044 
L 357.190328 148.252919 
L 352.998002 147.147121 
L 348.061264 145.598941 
L 344.613349 144.417965 
L 340.421023 142.807875 
L 336.228697 141.025923 
L 332.036371 139.095788 
L 327.844045 136.99336 
L 320.651567 133.021962 
L 313.89538 128.829636 
L 306.882414 123.906383 
L 302.348163 120.444984 
L 297.318896 116.252658 
L 292.774166 112.060332 
L 288.682006 107.868005 
L 285.045135 103.675679 
L 281.728457 99.218066 
L 278.985683 95.291027 
L 277.536131 92.402859 
L 276.682639 91.098701 
L 274.761776 86.906375 
L 273.50782 82.714048 
L 273.343804 81.727678 
L 272.526751 78.521722 
L 272.077197 74.329396 
L 272.159942 70.13707 
L 272.778388 65.944744 
L 273.780433 61.752418 
L 275.090657 57.560091 
L 277.30074 53.367765 
L 277.536131 52.662434 
L 279.741676 49.175439 
L 281.728457 44.983113 
L 294.305435 44.983113 
L 294.305435 44.983113 
L 294.305435 28.213808 
M 105.467704 195.906855 
L 105.335923 187.522203 
L 105.030221 179.13755 
L 104.554759 170.752898 
L 103.915721 162.368246 
L 103.120865 153.983593 
L 101.655779 141.406615 
L 100.512305 133.021962 
L 98.573041 120.444984 
L 96.389456 107.868005 
L 93.073779 90.550085 
L 87.327108 61.752418 
L 85.886527 53.367765 
L 84.689127 44.681389 
L 83.898857 36.59846 
L 83.6549 32.406134 
L 83.531392 28.213808 
L 83.531392 28.213808 
" clip-path="url(#p85da1a8255)" style="fill: none; stroke: #18202b; stroke-width: 0.75"/>
   </g>
   <g id="patch_4">
    <path d="M 42.765865 195.906855 
L 42.765865 28.213808 
" style="fill: none; stroke: #000000; stroke-width: 0.8; stroke-linejoin: miter; stroke-linecap: square"/>
   </g>
   <g id="patch_5">
    <path d="M 378.151959 195.906855 
L 378.151959 28.213808 
" style="fill: none; stroke: #000000; stroke-width: 0.8; stroke-linejoin: miter; stroke-linecap: square"/>
   </g>
   <g id="patch_6">
    <path d="M 42.765865 195.906855 
L 378.151959 195.906855 
" style="fill: none; stroke: #000000; stroke-width: 0.8; stroke-linejoin: miter; stroke-linecap: square"/>
   </g>
   <g id="patch_7">
    <path d="M 42.765865 28.213808 
L 378.151959 28.213808 
" style="fill: none; stroke: #000000; stroke-width: 0.8; stroke-linejoin: miter; stroke-linecap: square"/>
   </g>
   <g id="text_11">
    <!-- Mode 5   125.6 Hz -->
    <g transform="translate(155.919849 22.213808) scale(0.12 -0.12)">
     <defs>
      <path id="DejaVuSans-4d" d="M 628 4666 
L 1569 4666 
L 2759 1491 
L 3956 4666 
L 4897 4666 
L 4897 0 
L 4281 0 
L 4281 4097 
L 3078 897 
L 2444 897 
L 1241 4097 
L 1241 0 
L 628 0 
L 628 4666 
z
" transform="scale(0.015625)"/>
      <path id="DejaVuSans-6f" d="M 1959 3097 
Q 1497 3097 1228 2736 
Q 959 2375 959 1747 
Q 959 1119 1226 758 
Q 1494 397 1959 397 
Q 2419 397 2687 759 
Q 2956 1122 2956 1747 
Q 2956 2369 2687 2733 
Q 2419 3097 1959 3097 
z
M 1959 3584 
Q 2709 3584 3137 3096 
Q 3566 2609 3566 1747 
Q 3566 888 3137 398 
Q 2709 -91 1959 -91 
Q 1206 -91 779 398 
Q 353 888 353 1747 
Q 353 2609 779 3096 
Q 1206 3584 1959 3584 
z
" transform="scale(0.015625)"/>
      <path id="DejaVuSans-64" d="M 2906 2969 
L 2906 4863 
L 3481 4863 
L 3481 0 
L 2906 0 
L 2906 525 
Q 2725 213 2448 61 
Q 2172 -91 1784 -91 
Q 1150 -91 751 415 
Q 353 922 353 1747 
Q 353 2572 751 3078 
Q 1150 3584 1784 3584 
Q 2172 3584 2448 3432 
Q 2725 3281 2906 2969 
z
M 947 1747 
Q 947 1113 1208 752 
Q 1469 391 1925 391 
Q 2381 391 2643 752 
Q 2906 1113 2906 1747 
Q 2906 2381 2643 2742 
Q 2381 3103 1925 3103 
Q 1469 3103 1208 2742 
Q 947 2381 947 1747 
z
" transform="scale(0.015625)"/>
      <path id="DejaVuSans-65" d="M 3597 1894 
L 3597 1613 
L 953 1613 
Q 991 1019 1311 708 
Q 1631 397 2203 397 
Q 2534 397 2845 478 
Q 3156 559 3463 722 
L 3463 178 
Q 3153 47 2828 -22 
Q 2503 -91 2169 -91 
Q 1331 -91 842 396 
Q 353 884 353 1716 
Q 353 2575 817 3079 
Q 1281 3584 2069 3584 
Q 2775 3584 3186 3129 
Q 3597 2675 3597 1894 
z
M 3022 2063 
Q 3016 2534 2758 2815 
Q 2500 3097 2075 3097 
Q 1594 3097 1305 2825 
Q 1016 2553 972 2059 
L 3022 2063 
z
" transform="scale(0.015625)"/>
      <path id="DejaVuSans-35" d="M 691 4666 
L 3169 4666 
L 3169 4134 
L 1269 4134 
L 1269 2991 
Q 1406 3038 1543 3061 
Q 1681 3084 1819 3084 
Q 2600 3084 3056 2656 
Q 3513 2228 3513 1497 
Q 3513 744 3044 326 
Q 2575 -91 1722 -91 
Q 1428 -91 1123 -41 
Q 819 9 494 109 
L 494 744 
Q 775 591 1075 516 
Q 1375 441 1709 441 
Q 2250 441 2565 725 
Q 2881 1009 2881 1497 
Q 2881 1984 2565 2268 
Q 2250 2553 1709 2553 
Q 1456 2553 1204 2497 
Q 953 2441 691 2322 
L 691 4666 
z
" transform="scale(0.015625)"/>
      <path id="DejaVuSans-2e" d="M 684 794 
L 1344 794 
L 1344 0 
L 684 0 
L 684 794 
z
" transform="scale(0.015625)"/>
      <path id="DejaVuSans-36" d="M 2113 2584 
Q 1688 2584 1439 2293 
Q 1191 2003 1191 1497 
Q 1191 994 1439 701 
Q 1688 409 2113 409 
Q 2538 409 2786 701 
Q 3034 994 3034 1497 
Q 3034 2003 2786 2293 
Q 2538 2584 2113 2584 
z
M 3366 4563 
L 3366 3988 
Q 3128 4100 2886 4159 
Q 2644 4219 2406 4219 
Q 1781 4219 1451 3797 
Q 1122 3375 1075 2522 
Q 1259 2794 1537 2939 
Q 1816 3084 2150 3084 
Q 2853 3084 3261 2657 
Q 3669 2231 3669 1497 
Q 3669 778 3244 343 
Q 2819 -91 2113 -91 
Q 1303 -91 875 529 
Q 447 1150 447 2328 
Q 447 3434 972 4092 
Q 1497 4750 2381 4750 
Q 2619 4750 2861 4703 
Q 3103 4656 3366 4563 
z
" transform="scale(0.015625)"/>
      <path id="DejaVuSans-48" d="M 628 4666 
L 1259 4666 
L 1259 2753 
L 3553 2753 
L 3553 4666 
L 4184 4666 
L 4184 0 
L 3553 0 
L 3553 2222 
L 1259 2222 
L 1259 0 
L 628 0 
L 628 4666 
z
" transform="scale(0.015625)"/>
      <path id="DejaVuSans-7a" d="M 353 3500 
L 3084 3500 
L 3084 2975 
L 922 459 
L 3084 459 
L 3084 0 
L 275 0 
L 275 525 
L 2438 3041 
L 353 3041 
L 353 3500 
z
" transform="scale(0.015625)"/>
     </defs>
     <use xlink:href="#DejaVuSans-4d"/>
     <use xlink:href="#DejaVuSans-6f" transform="translate(86.279297 0)"/>
     <use xlink:href="#DejaVuSans-64" transform="translate(147.460938 0)"/>
     <use xlink:href="#DejaVuSans-65" transform="translate(210.9375 0)"/>
     <use xlink:href="#DejaVuSans-20" transform="translate(272.460938 0)"/>
     <use xlink:href="#DejaVuSans-35" transform="translate(304.248047 0)"/>
     <use xlink:href="#DejaVuSans-20" transform="translate(367.871094 0)"/>
     <use xlink:href="#DejaVuSans-20" transform="translate(399.658203 0)"/>
     <use xlink:href="#DejaVuSans-20" transform="translate(431.445312 0)"/>
     <use xlink:href="#DejaVuSans-31" transform="translate(463.232422 0)"/>
     <use xlink:href="#DejaVuSans-32" transform="translate(526.855469 0)"/>
     <use xlink:href="#DejaVuSans-35" transform="translate(590.478516 0)"/>
     <use xlink:href="#DejaVuSans-2e" transform="translate(654.101562 0)"/>
     <use xlink:href="#DejaVuSans-36" transform="translate(685.888672 0)"/>
     <use xlink:href="#DejaVuSans-20" transform="translate(749.511719 0)"/>
     <use xlink:href="#DejaVuSans-48" transform="translate(781.298828 0)"/>
     <use xlink:href="#DejaVuSans-7a" transform="translate(856.494141 0)"/>
    </g>
   </g>
  </g>
  <g id="axes_2">
   <g id="patch_8">
    <path d="M 397.757292 189.393851 
L 406.263979 189.393851 
L 406.263979 34.726812 
L 397.757292 34.726812 
z
" style="fill: #ffffff"/>
   </g>
   <g id="patch_9">
    <path d="M 397.757292 189.393851 
L 402.010635 197.127203 
L 406.263979 189.393851 
" style="fill: #053061"/>
   </g>
   <g id="patch_10">
    <path d="M 397.757292 34.726812 
L 402.010635 26.99346 
L 406.263979 34.726812 
" style="fill: #67001f"/>
   </g>
   <g id="QuadMesh_1">
    <path d="M 397.757292 189.393851 
L 406.263979 189.393851 
L 406.263979 179.727161 
L 397.757292 179.727161 
L 397.757292 189.393851 
" clip-path="url(#pba4d1fa1de)" style="fill: #0e4179"/>
    <path d="M 397.757292 179.727161 
L 406.263979 179.727161 
L 406.263979 170.060471 
L 397.757292 170.060471 
L 397.757292 179.727161 
" clip-path="url(#pba4d1fa1de)" style="fill: #1f63a8"/>
    <path d="M 397.757292 170.060471 
L 406.263979 170.060471 
L 406.263979 160.393781 
L 397.757292 160.393781 
L 397.757292 170.060471 
" clip-path="url(#pba4d1fa1de)" style="fill: #3480b9"/>
    <path d="M 397.757292 160.393781 
L 406.263979 160.393781 
L 406.263979 150.727091 
L 397.757292 150.727091 
L 397.757292 160.393781 
" clip-path="url(#pba4d1fa1de)" style="fill: #529dc8"/>
    <path d="M 397.757292 150.727091 
L 406.263979 150.727091 
L 406.263979 141.060401 
L 397.757292 141.060401 
L 397.757292 150.727091 
" clip-path="url(#pba4d1fa1de)" style="fill: #84bcd9"/>
    <path d="M 397.757292 141.060401 
L 406.263979 141.060401 
L 406.263979 131.393711 
L 397.757292 131.393711 
L 397.757292 141.060401 
" clip-path="url(#pba4d1fa1de)" style="fill: #aed3e6"/>
    <path d="M 397.757292 131.393711 
L 406.263979 131.393711 
L 406.263979 121.727021 
L 397.757292 121.727021 
L 397.757292 131.393711 
" clip-path="url(#pba4d1fa1de)" style="fill: #d4e6f1"/>
    <path d="M 397.757292 121.727021 
L 406.263979 121.727021 
L 406.263979 112.060332 
L 397.757292 112.060332 
L 397.757292 121.727021 
" clip-path="url(#pba4d1fa1de)" style="fill: #ecf2f5"/>
    <path d="M 397.757292 112.060332 
L 406.263979 112.060332 
L 406.263979 102.393642 
L 397.757292 102.393642 
L 397.757292 112.060332 
" clip-path="url(#pba4d1fa1de)" style="fill: #f9eee7"/>
    <path d="M 397.757292 102.393642 
L 406.263979 102.393642 
L 406.263979 92.726952 
L 397.757292 92.726952 
L 397.757292 102.393642 
" clip-path="url(#pba4d1fa1de)" style="fill: #fddcc9"/>
    <path d="M 397.757292 92.726952 
L 406.263979 92.726952 
L 406.263979 83.060262 
L 397.757292 83.060262 
L 397.757292 92.726952 
" clip-path="url(#pba4d1fa1de)" style="fill: #f8bb9e"/>
    <path d="M 397.757292 83.060262 
L 406.263979 83.060262 
L 406.263979 73.393572 
L 397.757292 73.393572 
L 397.757292 83.060262 
" clip-path="url(#pba4d1fa1de)" style="fill: #ee9677"/>
    <path d="M 397.757292 73.393572 
L 406.263979 73.393572 
L 406.263979 63.726882 
L 397.757292 63.726882 
L 397.757292 73.393572 
" clip-path="url(#pba4d1fa1de)" style="fill: #db6b55"/>
    <path d="M 397.757292 63.726882 
L 406.263979 63.726882 
L 406.263979 54.060192 
L 397.757292 54.060192 
L 397.757292 63.726882 
" clip-path="url(#pba4d1fa1de)" style="fill: #c53e3d"/>
    <path d="M 397.757292 54.060192 
L 406.263979 54.060192 
L 406.263979 44.393502 
L 397.757292 44.393502 
L 397.757292 54.060192 
" clip-path="url(#pba4d1fa1de)" style="fill: #ab162a"/>
    <path d="M 397.757292 44.393502 
L 406.263979 44.393502 
L 406.263979 34.726812 
L 397.757292 34.726812 
L 397.757292 44.393502 
" clip-path="url(#pba4d1fa1de)" style="fill: #7c0722"/>
   </g>
   <g id="matplotlib.axis_3"/>
   <g id="matplotlib.axis_4">
    <g id="ytick_4">
     <g id="line2d_9">
      <defs>
       <path id="md2165d3372" d="M 0 0 
L 3.5 0 
" style="stroke: #000000; stroke-width: 0.8"/>
      </defs>
      <g>
       <use xlink:href="#md2165d3372" x="406.263979" y="189.393851" style="stroke: #000000; stroke-width: 0.8"/>
      </g>
     </g>
     <g id="text_12">
      <!-- −1.00 -->
      <g transform="translate(413.263979 193.19307) scale(0.1 -0.1)">
       <defs>
        <path id="DejaVuSans-2212" d="M 678 2272 
L 4684 2272 
L 4684 1741 
L 678 1741 
L 678 2272 
z
" transform="scale(0.015625)"/>
       </defs>
       <use xlink:href="#DejaVuSans-2212"/>
       <use xlink:href="#DejaVuSans-31" transform="translate(83.789062 0)"/>
       <use xlink:href="#DejaVuSans-2e" transform="translate(147.412109 0)"/>
       <use xlink:href="#DejaVuSans-30" transform="translate(179.199219 0)"/>
       <use xlink:href="#DejaVuSans-30" transform="translate(242.822266 0)"/>
      </g>
     </g>
    </g>
    <g id="ytick_5">
     <g id="line2d_10">
      <g>
       <use xlink:href="#md2165d3372" x="406.263979" y="170.060471" style="stroke: #000000; stroke-width: 0.8"/>
      </g>
     </g>
     <g id="text_13">
      <!-- −0.75 -->
      <g transform="translate(413.263979 173.85969) scale(0.1 -0.1)">
       <defs>
        <path id="DejaVuSans-37" d="M 525 4666 
L 3525 4666 
L 3525 4397 
L 1831 0 
L 1172 0 
L 2766 4134 
L 525 4134 
L 525 4666 
z
" transform="scale(0.015625)"/>
       </defs>
       <use xlink:href="#DejaVuSans-2212"/>
       <use xlink:href="#DejaVuSans-30" transform="translate(83.789062 0)"/>
       <use xlink:href="#DejaVuSans-2e" transform="translate(147.412109 0)"/>
       <use xlink:href="#DejaVuSans-37" transform="translate(179.199219 0)"/>
       <use xlink:href="#DejaVuSans-35" transform="translate(242.822266 0)"/>
      </g>
     </g>
    </g>
    <g id="ytick_6">
     <g id="line2d_11">
      <g>
       <use xlink:href="#md2165d3372" x="406.263979" y="150.727091" style="stroke: #000000; stroke-width: 0.8"/>
      </g>
     </g>
     <g id="text_14">
      <!-- −0.50 -->
      <g transform="translate(413.263979 154.52631) scale(0.1 -0.1)">
       <use xlink:href="#DejaVuSans-2212"/>
       <use xlink:href="#DejaVuSans-30" transform="translate(83.789062 0)"/>
       <use xlink:href="#DejaVuSans-2e" transform="translate(147.412109 0)"/>
       <use xlink:href="#DejaVuSans-35" transform="translate(179.199219 0)"/>
       <use xlink:href="#DejaVuSans-30" transform="translate(242.822266 0)"/>
      </g>
     </g>
    </g>
    <g id="ytick_7">
     <g id="line2d_12">
      <g>
       <use xlink:href="#md2165d3372" x="406.263979" y="131.393711" style="stroke: #000000; stroke-width: 0.8"/>
      </g>
     </g>
     <g id="text_15">
      <!-- −0.25 -->
      <g transform="translate(413.263979 135.19293) scale(0.1 -0.1)">
       <use xlink:href="#DejaVuSans-2212"/>
       <use xlink:href="#DejaVuSans-30" transform="translate(83.789062 0)"/>
       <use xlink:href="#DejaVuSans-2e" transform="translate(147.412109 0)"/>
       <use xlink:href="#DejaVuSans-32" transform="translate(179.199219 0)"/>
       <use xlink:href="#DejaVuSans-35" transform="translate(242.822266 0)"/>
      </g>
     </g>
    </g>
    <g id="ytick_8">
     <g id="line2d_13">
      <g>
       <use xlink:href="#md2165d3372" x="406.263979" y="112.060332" style="stroke: #000000; stroke-width: 0.8"/>
      </g>
     </g>
     <g id="text_16">
      <!-- 0.00 -->
      <g transform="translate(413.263979 115.85955) scale(0.1 -0.1)">
       <use xlink:href="#DejaVuSans-30"/>
       <use xlink:href="#DejaVuSans-2e" transform="translate(63.623047 0)"/>
       <use xlink:href="#DejaVuSans-30" transform="translate(95.410156 0)"/>
       <use xlink:href="#DejaVuSans-30" transform="translate(159.033203 0)"/>
      </g>
     </g>
    </g>
    <g id="ytick_9">
     <g id="line2d_14">
      <g>
       <use xlink:href="#md2165d3372" x="406.263979" y="92.726952" style="stroke: #000000; stroke-width: 0.8"/>
      </g>
     </g>
     <g id="text_17">
      <!-- 0.25 -->
      <g transform="translate(413.263979 96.52617) scale(0.1 -0.1)">
       <use xlink:href="#DejaVuSans-30"/>
       <use xlink:href="#DejaVuSans-2e" transform="translate(63.623047 0)"/>
       <use xlink:href="#DejaVuSans-32" transform="translate(95.410156 0)"/>
       <use xlink:href="#DejaVuSans-35" transform="translate(159.033203 0)"/>
      </g>
     </g>
    </g>
    <g id="ytick_10">
     <g id="line2d_15">
      <g>
       <use xlink:href="#md2165d3372" x="406.263979" y="73.393572" style="stroke: #000000; stroke-width: 0.8"/>
      </g>
     </g>
     <g id="text_18">
      <!-- 0.50 -->
      <g transform="translate(413.263979 77.192791) scale(0.1 -0.1)">
       <use xlink:href="#DejaVuSans-30"/>
       <use xlink:href="#DejaVuSans-2e" transform="translate(63.623047 0)"/>
       <use xlink:href="#DejaVuSans-35" transform="translate(95.410156 0)"/>
       <use xlink:href="#DejaVuSans-30" transform="translate(159.033203 0)"/>
      </g>
     </g>
    </g>
    <g id="ytick_11">
     <g id="line2d_16">
      <g>
       <use xlink:href="#md2165d3372" x="406.263979" y="54.060192" style="stroke: #000000; stroke-width: 0.8"/>
      </g>
     </g>
     <g id="text_19">
      <!-- 0.75 -->
      <g transform="translate(413.263979 57.859411) scale(0.1 -0.1)">
       <use xlink:href="#DejaVuSans-30"/>
       <use xlink:href="#DejaVuSans-2e" transform="translate(63.623047 0)"/>
       <use xlink:href="#DejaVuSans-37" transform="translate(95.410156 0)"/>
       <use xlink:href="#DejaVuSans-35" transform="translate(159.033203 0)"/>
      </g>
     </g>
    </g>
    <g id="ytick_12">
     <g id="line2d_17">
      <g>
       <use xlink:href="#md2165d3372" x="406.263979" y="34.726812" style="stroke: #000000; stroke-width: 0.8"/>
      </g>
     </g>
     <g id="text_20">
      <!-- 1.00 -->
      <g transform="translate(413.263979 38.526031) scale(0.1 -0.1)">
       <use xlink:href="#DejaVuSans-31"/>
       <use xlink:href="#DejaVuSans-2e" transform="translate(63.623047 0)"/>
       <use xlink:href="#DejaVuSans-30" transform="translate(95.410156 0)"/>
       <use xlink:href="#DejaVuSans-30" transform="translate(159.033203 0)"/>
      </g>
     </g>
    </g>
    <g id="text_21">
     <!-- normalized deflection -->
     <g transform="translate(455.507729 166.236113) rotate(-90) scale(0.1 -0.1)">
      <defs>
       <path id="DejaVuSans-6e" d="M 3513 2113 
L 3513 0 
L 2938 0 
L 2938 2094 
Q 2938 2591 2744 2837 
Q 2550 3084 2163 3084 
Q 1697 3084 1428 2787 
Q 1159 2491 1159 1978 
L 1159 0 
L 581 0 
L 581 3500 
L 1159 3500 
L 1159 2956 
Q 1366 3272 1645 3428 
Q 1925 3584 2291 3584 
Q 2894 3584 3203 3211 
Q 3513 2838 3513 2113 
z
" transform="scale(0.015625)"/>
       <path id="DejaVuSans-72" d="M 2631 2963 
Q 2534 3019 2420 3045 
Q 2306 3072 2169 3072 
Q 1681 3072 1420 2755 
Q 1159 2438 1159 1844 
L 1159 0 
L 581 0 
L 581 3500 
L 1159 3500 
L 1159 2956 
Q 1341 3275 1631 3429 
Q 1922 3584 2338 3584 
Q 2397 3584 2469 3576 
Q 2541 3569 2628 3553 
L 2631 2963 
z
" transform="scale(0.015625)"/>
       <path id="DejaVuSans-61" d="M 2194 1759 
Q 1497 1759 1228 1600 
Q 959 1441 959 1056 
Q 959 750 1161 570 
Q 1363 391 1709 391 
Q 2188 391 2477 730 
Q 2766 1069 2766 1631 
L 2766 1759 
L 2194 1759 
z
M 3341 1997 
L 3341 0 
L 2766 0 
L 2766 531 
Q 2569 213 2275 61 
Q 1981 -91 1556 -91 
Q 1019 -91 701 211 
Q 384 513 384 1019 
Q 384 1609 779 1909 
Q 1175 2209 1959 2209 
L 2766 2209 
L 2766 2266 
Q 2766 2663 2505 2880 
Q 2244 3097 1772 3097 
Q 1472 3097 1187 3025 
Q 903 2953 641 2809 
L 641 3341 
Q 956 3463 1253 3523 
Q 1550 3584 1831 3584 
Q 2591 3584 2966 3190 
Q 3341 2797 3341 1997 
z
" transform="scale(0.015625)"/>
       <path id="DejaVuSans-6c" d="M 603 4863 
L 1178 4863 
L 1178 0 
L 603 0 
L 603 4863 
z
" transform="scale(0.015625)"/>
       <path id="DejaVuSans-69" d="M 603 3500 
L 1178 3500 
L 1178 0 
L 603 0 
L 603 3500 
z
M 603 4863 
L 1178 4863 
L 1178 4134 
L 603 4134 
L 603 4863 
z
" transform="scale(0.015625)"/>
       <path id="DejaVuSans-66" d="M 2375 4863 
L 2375 4384 
L 1825 4384 
Q 1516 4384 1395 4259 
Q 1275 4134 1275 3809 
L 1275 3500 
L 2222 3500 
L 2222 3053 
L 1275 3053 
L 1275 0 
L 697 0 
L 697 3053 
L 147 3053 
L 147 3500 
L 697 3500 
L 697 3744 
Q 697 4328 969 4595 
Q 1241 4863 1831 4863 
L 2375 4863 
z
" transform="scale(0.015625)"/>
       <path id="DejaVuSans-63" d="M 3122 3366 
L 3122 2828 
Q 2878 2963 2633 3030 
Q 2388 3097 2138 3097 
Q 1578 3097 1268 2742 
Q 959 2388 959 1747 
Q 959 1106 1268 751 
Q 1578 397 2138 397 
Q 2388 397 2633 464 
Q 2878 531 3122 666 
L 3122 134 
Q 2881 22 2623 -34 
Q 2366 -91 2075 -91 
Q 1284 -91 818 406 
Q 353 903 353 1747 
Q 353 2603 823 3093 
Q 1294 3584 2113 3584 
Q 2378 3584 2631 3529 
Q 2884 3475 3122 3366 
z
" transform="scale(0.015625)"/>
       <path id="DejaVuSans-74" d="M 1172 4494 
L 1172 3500 
L 2356 3500 
L 2356 3053 
L 1172 3053 
L 1172 1153 
Q 1172 725 1289 603 
Q 1406 481 1766 481 
L 2356 481 
L 2356 0 
L 1766 0 
Q 1100 0 847 248 
Q 594 497 594 1153 
L 594 3053 
L 172 3053 
L 172 3500 
L 594 3500 
L 594 4494 
L 1172 4494 
z
" transform="scale(0.015625)"/>
      </defs>
      <use xlink:href="#DejaVuSans-6e"/>
      <use xlink:href="#DejaVuSans-6f" transform="translate(63.378906 0)"/>
      <use xlink:href="#DejaVuSans-72" transform="translate(124.560547 0)"/>
      <use xlink:href="#DejaVuSans-6d" transform="translate(163.923828 0)"/>
      <use xlink:href="#DejaVuSans-61" transform="translate(261.335938 0)"/>
      <use xlink:href="#DejaVuSans-6c" transform="translate(322.615234 0)"/>
      <use xlink:href="#DejaVuSans-69" transform="translate(350.398438 0)"/>
      <use xlink:href="#DejaVuSans-7a" transform="translate(378.181641 0)"/>
      <use xlink:href="#DejaVuSans-65" transform="translate(430.671875 0)"/>
      <use xlink:href="#DejaVuSans-64" transform="translate(492.195312 0)"/>
      <use xlink:href="#DejaVuSans-20" transform="translate(555.671875 0)"/>
      <use xlink:href="#DejaVuSans-64" transform="translate(587.458984 0)"/>
      <use xlink:href="#DejaVuSans-65" transform="translate(650.935547 0)"/>
      <use xlink:href="#DejaVuSans-66" transform="translate(712.458984 0)"/>
      <use xlink:href="#DejaVuSans-6c" transform="translate(747.664062 0)"/>
      <use xlink:href="#DejaVuSans-65" transform="translate(775.447266 0)"/>
      <use xlink:href="#DejaVuSans-63" transform="translate(836.970703 0)"/>
      <use xlink:href="#DejaVuSans-74" transform="translate(891.951172 0)"/>
      <use xlink:href="#DejaVuSans-69" transform="translate(931.160156 0)"/>
      <use xlink:href="#DejaVuSans-6f" transform="translate(958.943359 0)"/>
      <use xlink:href="#DejaVuSans-6e" transform="translate(1020.125 0)"/>
     </g>
    </g>
   </g>
   <g id="LineCollection_1"/>
   <g id="patch_11">
    <path d="M 397.757292 189.393851 
L 402.010635 197.127203 
L 406.263979 189.393851 
L 406.263979 34.726812 
L 402.010635 26.99346 
L 397.757292 34.726812 
L 397.757292 189.393851 
z
" style="fill: none; stroke: #000000; stroke-width: 0.8; stroke-linejoin: miter; stroke-linecap: square"/>
   </g>
  </g>
 </g>
 <defs>
  <clipPath id="p85da1a8255">
   <rect x="42.765865" y="28.213808" width="335.386094" height="167.693047"/>
  </clipPath>
  <clipPath id="pba4d1fa1de">
   <rect x="397.757292" y="34.726812" width="8.506687" height="154.667039"/>
  </clipPath>
 </defs>
 <defs>
  <pattern id="hb5ae7af52e" patternUnits="userSpaceOnUse" x="0" y="0" width="72" height="72">
   <rect x="0" y="0" width="73" height="73" fill="#333333"/>
   <path d="M -36 36 
L 36 -36 
M -33 39 
L 39 -33 
M -30 42 
L 42 -30 
M -27 45 
L 45 -27 
M -24 48 
L 48 -24 
M -21 51 
L 51 -21 
M -18 54 
L 54 -18 
M -15 57 
L 57 -15 
M -12 60 
L 60 -12 
M -9 63 
L 63 -9 
M -6 66 
L 66 -6 
M -3 69 
L 69 -3 
M 0 72 
L 72 0 
M 3 75 
L 75 3 
M 6 78 
L 78 6 
M 9 81 
L 81 9 
M 12 84 
L 84 12 
M 15 87 
L 87 15 
M 18 90 
L 90 18 
M 21 93 
L 93 21 
M 24 96 
L 96 24 
M 27 99 
L 99 27 
M 30 102 
L 102 30 
M 33 105 
L 105 33 
M 36 108 
L 108 36 
" style="fill: #111827; stroke: #111827; stroke-width: 1.0; stroke-linecap: butt; stroke-linejoin: miter; stroke-opacity: 0.35"/>
  </pattern>
 </defs>
</svg>
