<?xml version="1.0" encoding="utf-8" standalone="no"?>
<!DOCTYPE svg PUBLIC "-//W3C//DTD SVG 1.1//EN"
  "http://www.w3.org/Graphics/SVG/1.1/DTD/svg11.dtd">
<svg xmlns:xlink="http://www.w3.org/1999/xlink" width="460.8pt" height="234pt" viewBox="0 0 460.8 234" xmlns="http://www.w3.org/2000/svg" version="1.1">
 <metadata>
  <rdf:RDF xmlns:dc="http://purl.org/dc/elements/1.1/" xmlns:cc="http://creativecommons.org/ns#" xmlns:rdf="http://www.w3.org/1999/02/22-rdf-syntax-ns#">
   <cc:Work>
    <dc:type rdf:resource="http://purl.org/dc/dcmitype/StillImage"/>
    <dc:format>image/svg+xml</dc:format>
    <dc:creator>
     <cc:Agent>
      <dc:title>Matplotlib v3.10.3, https://matplotlib.org/</dc:title>
     </cc:Agent>
    </dc:creator>
   </cc:Work>
  </rdf:RDF>
 </metadata>
 <defs>
  <style type="text/css">*{stroke-linejoin: round; stroke-linecap: butt}</style>
 </defs>
 <g id="figure_1">
  <g id="patch_1">
   <path d="M 0 234 
L 460.8 234 
L 460.8 0 
L 0 0 
z
" style="fill: #ffffff"/>
  </g>
  <g id="axes_1">
   <g id="patch_2">
    <path d="M 42.765865 195.906855 
L 378.151959 195.906855 
L 378.151959 28.213808 
L 42.765865 28.213808 
z
" style="fill: #ffffff"/>
   </g>
   <g id="QuadContourSet_1">
    <path d="M 42.765865 195.906855 
L 42.765865 195.906855 
L 42.765865 195.906855 
z
" clip-path="url(#pb9bc7a86a8)" style="fill: #053061"/>
    <path d="M 46.958191 167.641469 
L 51.150517 168.672222 
L 55.342844 170.232939 
L 56.385537 170.752898 
L 59.53517 172.581895 
L 62.755496 174.945224 
L 63.727496 175.803933 
L 66.854159 179.13755 
L 67.919822 180.569528 
L 69.67974 183.329876 
L 71.662226 187.522203 
L 72.112148 188.959155 
L 72.873065 191.714529 
L 73.449377 195.906855 
L 72.112148 195.906855 
L 67.919822 195.906855 
L 63.727496 195.906855 
L 59.53517 195.906855 
L 55.342844 195.906855 
L 51.150517 195.906855 
L 46.958191 195.906855 
L 42.765865 195.906855 
L 42.765865 195.906855 
L 42.765865 191.714529 
L 42.765865 187.522203 
L 42.765865 183.329876 
L 42.765865 179.13755 
L 42.765865 174.945224 
L 42.765865 170.752898 
L 42.765865 167.128973 
z
" clip-path="url(#pb9bc7a86a8)" style="fill: #0e4179"/>
    <path d="M 46.210065 153.983593 
L 46.958191 154.045003 
L 51.150517 154.735469 
L 55.342844 155.780867 
L 59.53517 157.193192 
L 61.844391 158.175919 
L 63.727496 159.06162 
L 67.919822 161.459097 
L 69.267248 162.368246 
L 72.112148 164.534122 
L 74.412856 166.560572 
L 76.304474 168.480533 
L 78.281119 170.752898 
L 80.496801 173.76549 
L 81.276639 174.945224 
L 83.561072 179.13755 
L 84.689127 181.766006 
L 85.303789 183.329876 
L 86.53024 187.522203 
L 87.338668 191.714529 
L 87.740158 195.906855 
L 84.689127 195.906855 
L 80.496801 195.906855 
L 76.304474 195.906855 
L 73.449377 195.906855 
L 72.873065 191.714529 
L 72.112148 188.959155 
L 71.662226 187.522203 
L 69.67974 183.329876 
L 67.919822 180.569528 
L 66.854159 179.13755 
L 63.727496 175.803933 
L 62.755496 174.945224 
L 59.53517 172.581895 
L 56.385537 170.752898 
L 55.342844 170.232939 
L 51.150517 168.672222 
L 46.958191 167.641469 
L 42.765865 167.128973 
L 42.765865 166.560572 
L 42.765865 162.368246 
L 42.765865 158.175919 
L 42.765865 153.983593 
L 42.765865 153.721608 
z
" clip-path="url(#pb9bc7a86a8)" style="fill: #1f63a8"/>
    <path d="M 46.958191 143.213222 
L 51.150517 143.726101 
L 55.342844 144.502559 
L 59.53517 145.551429 
L 59.686669 145.598941 
L 63.727496 146.955229 
L 67.919822 148.67862 
L 70.203856 149.791267 
L 72.112148 150.80167 
L 76.304474 153.385128 
L 77.157249 153.983593 
L 80.496801 156.574828 
L 82.324596 158.175919 
L 84.689127 160.502221 
L 86.395973 162.368246 
L 88.881453 165.47612 
L 89.672898 166.560572 
L 92.309291 170.752898 
L 93.073779 172.196079 
L 94.424305 174.945224 
L 96.108612 179.13755 
L 97.266105 182.808966 
L 97.420687 183.329876 
L 98.349666 187.522203 
L 98.961867 191.714529 
L 99.265863 195.906855 
L 97.266105 195.906855 
L 93.073779 195.906855 
L 88.881453 195.906855 
L 87.740158 195.906855 
L 87.338668 191.714529 
L 86.53024 187.522203 
L 85.303789 183.329876 
L 84.689127 181.766006 
L 83.561072 179.13755 
L 81.276639 174.945224 
L 80.496801 173.76549 
L 78.281119 170.752898 
L 76.304474 168.480533 
L 74.412856 166.560572 
L 72.112148 164.534122 
L 69.267248 162.368246 
L 67.919822 161.459097 
L 63.727496 159.06162 
L 61.844391 158.175919 
L 59.53517 157.193192 
L 55.342844 155.780867 
L 51.150517 154.735469 
L 46.958191 154.045003 
L 46.210065 153.983593 
L 42.765865 153.721608 
L 42.765865 149.791267 
L 42.765865 145.598941 
L 42.765865 142.958191 
z
" clip-path="url(#pb9bc7a86a8)" style="fill: #3480b9"/>
    <path d="M 46.958191 133.57386 
L 51.150517 133.991931 
L 55.342844 134.624742 
L 59.53517 135.479357 
L 63.727496 136.565579 
L 65.789978 137.214289 
L 67.919822 137.922069 
L 72.112148 139.573708 
L 76.0712 141.406615 
L 76.304474 141.522325 
L 80.496801 143.887194 
L 83.15457 145.598941 
L 84.689127 146.674005 
L 88.645225 149.791267 
L 88.881453 149.996368 
L 93.023808 153.983593 
L 93.073779 154.037359 
L 96.588616 158.175919 
L 97.266105 159.082228 
L 99.537412 162.368246 
L 101.458431 165.585966 
L 102.002366 166.560572 
L 104.019224 170.752898 
L 105.650758 174.833857 
L 105.69296 174.945224 
L 107.008975 179.13755 
L 108.03946 183.329876 
L 108.799686 187.522203 
L 109.300619 191.714529 
L 109.549346 195.906855 
L 105.650758 195.906855 
L 101.458431 195.906855 
L 99.265863 195.906855 
L 98.961867 191.714529 
L 98.349666 187.522203 
L 97.420687 183.329876 
L 97.266105 182.808966 
L 96.108612 179.13755 
L 94.424305 174.945224 
L 93.073779 172.196079 
L 92.309291 170.752898 
L 89.672898 166.560572 
L 88.881453 165.47612 
L 86.395973 162.368246 
L 84.689127 160.502221 
L 82.324596 158.175919 
L 80.496801 156.574828 
L 77.157249 153.983593 
L 76.304474 153.385128 
L 72.112148 150.80167 
L 70.203856 149.791267 
L 67.919822 148.67862 
L 63.727496 146.955229 
L 59.686669 145.598941 
L 59.53517 145.551429 
L 55.342844 144.502559 
L 51.150517 143.726101 
L 46.958191 143.213222 
L 42.765865 142.958191 
L 42.765865 141.406615 
L 42.765865 137.214289 
L 42.765865 133.365949 
z
" clip-path="url(#pb9bc7a86a8)" style="fill: #529dc8"/>
    <path d="M 378.151959 107.133371 
L 378.151959 107.868005 
L 378.151959 112.060332 
L 378.151959 116.252658 
L 378.151959 120.444984 
L 378.151959 124.63731 
L 378.151959 128.829636 
L 378.151959 133.021962 
L 378.151959 137.214289 
L 378.151959 141.406615 
L 378.151959 145.598941 
L 378.151959 149.791267 
L 378.151959 153.983593 
L 378.151959 158.175919 
L 378.151959 162.368246 
L 378.151959 166.560572 
L 378.151959 170.752898 
L 378.151959 174.945224 
L 378.151959 179.13755 
L 378.151959 183.329876 
L 378.151959 187.522203 
L 378.151959 191.714529 
L 378.151959 195.906855 
L 373.959633 195.906855 
L 369.767306 195.906855 
L 365.57498 195.906855 
L 361.382654 195.906855 
L 360.973433 195.906855 
L 360.974696 191.714529 
L 360.978205 187.522203 
L 360.98593 183.329876 
L 361.000833 179.13755 
L 361.026879 174.945224 
L 361.069039 170.752898 
L 361.133303 166.560572 
L 361.226676 162.368246 
L 361.357177 158.175919 
L 361.382654 157.564286 
L 361.56937 153.983593 
L 361.856763 149.791267 
L 362.226677 145.598941 
L 362.693338 141.406615 
L 363.271655 137.214289 
L 363.976912 133.021962 
L 364.82434 128.829636 
L 365.57498 125.681044 
L 365.909494 124.63731 
L 367.458013 120.444984 
L 369.244354 116.252658 
L 369.767306 115.160176 
L 372.015412 112.060332 
L 373.959633 109.645011 
L 376.855839 107.868005 
z
M 46.958191 124.594004 
L 47.497398 124.63731 
L 51.150517 124.937554 
L 55.342844 125.458563 
L 59.53517 126.161928 
L 63.727496 127.055495 
L 67.919822 128.149602 
L 70.121948 128.829636 
L 72.112148 129.472234 
L 76.304474 131.046452 
L 80.496801 132.877343 
L 80.792245 133.021962 
L 84.689127 135.050129 
L 88.333442 137.214289 
L 88.881453 137.564015 
L 93.073779 140.536888 
L 94.18006 141.406615 
L 97.266105 144.054696 
L 98.902243 145.598941 
L 101.458431 148.265676 
L 102.803464 149.791267 
L 105.650758 153.410852 
L 106.069661 153.983593 
L 108.803099 158.175919 
L 109.843084 160.003451 
L 111.112228 162.368246 
L 113.055345 166.560572 
L 114.03541 169.044073 
L 114.679927 170.752898 
L 116.012217 174.945224 
L 117.093043 179.13755 
L 117.939197 183.329876 
L 118.227736 185.257 
L 118.558357 187.522203 
L 118.963423 191.714529 
L 119.164519 195.906855 
L 118.227736 195.906855 
L 114.03541 195.906855 
L 109.843084 195.906855 
L 109.549346 195.906855 
L 109.300619 191.714529 
L 108.799686 187.522203 
L 108.03946 183.329876 
L 107.008975 179.13755 
L 105.69296 174.945224 
L 105.650758 174.833857 
L 104.019224 170.752898 
L 102.002366 166.560572 
L 101.458431 165.585966 
L 99.537412 162.368246 
L 97.266105 159.082228 
L 96.588616 158.175919 
L 93.073779 154.037359 
L 93.023808 153.983593 
L 88.881453 149.996368 
L 88.645225 149.791267 
L 84.689127 146.674005 
L 83.15457 145.598941 
L 80.496801 143.887194 
L 76.304474 141.522325 
L 76.0712 141.406615 
L 72.112148 139.573708 
L 67.919822 137.922069 
L 65.789978 137.214289 
L 63.727496 136.565579 
L 59.53517 135.479357 
L 55.342844 134.624742 
L 51.150517 133.991931 
L 46.958191 133.57386 
L 42.765865 133.365949 
L 42.765865 133.021962 
L 42.765865 128.829636 
L 42.765865 124.63731 
L 42.765865 124.425677 
z
" clip-path="url(#pb9bc7a86a8)" style="fill: #84bcd9"/>
    <path d="M 357.190328 28.213808 
L 361.382654 28.213808 
L 365.57498 28.213808 
L 369.767306 28.213808 
L 373.959633 28.213808 
L 378.151959 28.213808 
L 378.151959 32.406134 
L 378.151959 36.59846 
L 378.151959 40.790787 
L 378.151959 44.983113 
L 378.151959 49.175439 
L 378.151959 53.367765 
L 378.151959 57.560091 
L 378.151959 61.752418 
L 378.151959 65.944744 
L 378.151959 70.13707 
L 378.151959 74.329396 
L 378.151959 78.521722 
L 378.151959 82.714048 
L 378.151959 86.906375 
L 378.151959 91.098701 
L 378.151959 95.291027 
L 378.151959 99.483353 
L 378.151959 103.675679 
L 378.151959 107.133371 
L 376.855839 107.868005 
L 373.959633 109.645011 
L 372.015412 112.060332 
L 369.767306 115.160176 
L 369.244354 116.252658 
L 367.458013 120.444984 
L 365.909494 124.63731 
L 365.57498 125.681044 
L 364.82434 128.829636 
L 363.976912 133.021962 
L 363.271655 137.214289 
L 362.693338 141.406615 
L 362.226677 145.598941 
L 361.856763 149.791267 
L 361.56937 153.983593 
L 361.382654 157.564286 
L 361.357177 158.175919 
L 361.226676 162.368246 
L 361.133303 166.560572 
L 361.069039 170.752898 
L 361.026879 174.945224 
L 361.000833 179.13755 
L 360.98593 183.329876 
L 360.978205 187.522203 
L 360.974696 191.714529 
L 360.973433 195.906855 
L 357.190328 195.906855 
L 352.998002 195.906855 
L 348.805676 195.906855 
L 344.613349 195.906855 
L 340.421023 195.906855 
L 339.075058 195.906855 
L 339.051746 191.714529 
L 339.005587 187.522203 
L 338.937511 183.329876 
L 338.848931 179.13755 
L 338.741747 174.945224 
L 338.618375 170.752898 
L 338.481763 166.560572 
L 338.335423 162.368246 
L 338.183464 158.175919 
L 338.030625 153.983593 
L 337.882314 149.791267 
L 337.744644 145.598941 
L 337.624461 141.406615 
L 337.529369 137.214289 
L 337.467726 133.021962 
L 337.448619 128.829636 
L 337.481788 124.63731 
L 337.577492 120.444984 
L 337.746282 116.252658 
L 337.998669 112.060332 
L 338.344655 107.868005 
L 338.793109 103.675679 
L 339.350981 99.483353 
L 340.022379 95.291027 
L 340.421023 93.142093 
L 340.833439 91.098701 
L 341.785417 86.906375 
L 342.83964 82.714048 
L 343.978811 78.521722 
L 344.613349 76.298411 
L 345.225447 74.329396 
L 346.558468 70.13707 
L 347.893667 65.944744 
L 348.805676 63.011954 
L 349.237573 61.752418 
L 350.60415 57.560091 
L 351.867322 53.367765 
L 352.998002 49.178184 
L 352.998837 49.175439 
L 354.103619 44.983113 
L 355.011322 40.790787 
L 355.705592 36.59846 
L 356.174697 32.406134 
L 356.411093 28.213808 
z
M 46.958191 115.942842 
L 51.150517 116.225221 
L 51.422052 116.252658 
L 55.342844 116.654408 
L 59.53517 117.233668 
L 63.727496 117.969034 
L 67.919822 118.868657 
L 72.112148 119.942995 
L 73.804541 120.444984 
L 76.304474 121.213374 
L 80.496801 122.695435 
L 84.689127 124.404427 
L 85.202884 124.63731 
L 88.881453 126.394452 
L 93.073779 128.677067 
L 93.329132 128.829636 
L 97.266105 131.344249 
L 99.616487 133.021962 
L 101.458431 134.442933 
L 104.713655 137.214289 
L 105.650758 138.08664 
L 108.920239 141.406615 
L 109.843084 142.444247 
L 112.443309 145.598941 
L 114.03541 147.767411 
L 115.426718 149.791267 
L 117.966577 153.983593 
L 118.227736 154.468826 
L 120.122472 158.175919 
L 121.96399 162.368246 
L 122.420062 163.56313 
L 123.521033 166.560572 
L 124.828924 170.752898 
L 125.91407 174.945224 
L 126.612388 178.25866 
L 126.793577 179.13755 
L 127.479813 183.329876 
L 127.985844 187.522203 
L 128.319183 191.714529 
L 128.484667 195.906855 
L 126.612388 195.906855 
L 122.420062 195.906855 
L 119.164519 195.906855 
L 118.963423 191.714529 
L 118.558357 187.522203 
L 118.227736 185.257 
L 117.939197 183.329876 
L 117.093043 179.13755 
L 116.012217 174.945224 
L 114.679927 170.752898 
L 114.03541 169.044073 
L 113.055345 166.560572 
L 111.112228 162.368246 
L 109.843084 160.003451 
L 108.803099 158.175919 
L 106.069661 153.983593 
L 105.650758 153.410852 
L 102.803464 149.791267 
L 101.458431 148.265676 
L 98.902243 145.598941 
L 97.266105 144.054696 
L 94.18006 141.406615 
L 93.073779 140.536888 
L 88.881453 137.564015 
L 88.333442 137.214289 
L 84.689127 135.050129 
L 80.792245 133.021962 
L 80.496801 132.877343 
L 76.304474 131.046452 
L 72.112148 129.472234 
L 70.121948 128.829636 
L 67.919822 128.149602 
L 63.727496 127.055495 
L 59.53517 126.161928 
L 55.342844 125.458563 
L 51.150517 124.937554 
L 47.497398 124.63731 
L 46.958191 124.594004 
L 42.765865 124.425677 
L 42.765865 120.444984 
L 42.765865 116.252658 
L 42.765865 115.802358 
z
" clip-path="url(#pb9bc7a86a8)" style="fill: #aed3e6"/>
    <path d="M 332.036371 28.213808 
L 336.228697 28.213808 
L 340.421023 28.213808 
L 344.613349 28.213808 
L 348.805676 28.213808 
L 352.998002 28.213808 
L 356.411093 28.213808 
L 356.174697 32.406134 
L 355.705592 36.59846 
L 355.011322 40.790787 
L 354.103619 44.983113 
L 352.998837 49.175439 
L 352.998002 49.178184 
L 351.867322 53.367765 
L 350.60415 57.560091 
L 349.237573 61.752418 
L 348.805676 63.011954 
L 347.893667 65.944744 
L 346.558468 70.13707 
L 345.225447 74.329396 
L 344.613349 76.298411 
L 343.978811 78.521722 
L 342.83964 82.714048 
L 341.785417 86.906375 
L 340.833439 91.098701 
L 340.421023 93.142093 
L 340.022379 95.291027 
L 339.350981 99.483353 
L 338.793109 103.675679 
L 338.344655 107.868005 
L 337.998669 112.060332 
L 337.746282 116.252658 
L 337.577492 120.444984 
L 337.481788 124.63731 
L 337.448619 128.829636 
L 337.467726 133.021962 
L 337.529369 137.214289 
L 337.624461 141.406615 
L 337.744644 145.598941 
L 337.882314 149.791267 
L 338.030625 153.983593 
L 338.183464 158.175919 
L 338.335423 162.368246 
L 338.481763 166.560572 
L 338.618375 170.752898 
L 338.741747 174.945224 
L 338.848931 179.13755 
L 338.937511 183.329876 
L 339.005587 187.522203 
L 339.051746 191.714529 
L 339.075058 195.906855 
L 336.228697 195.906855 
L 332.036371 195.906855 
L 327.844045 195.906855 
L 323.986423 195.906855 
L 323.945508 191.714529 
L 323.863955 187.522203 
L 323.742326 183.329876 
L 323.651719 180.962008 
L 323.584069 179.13755 
L 323.392472 174.945224 
L 323.16557 170.752898 
L 322.905087 166.560572 
L 322.6131 162.368246 
L 322.292082 158.175919 
L 321.944943 153.983593 
L 321.575087 149.791267 
L 321.186478 145.598941 
L 320.78372 141.406615 
L 320.372145 137.214289 
L 319.95792 133.021962 
L 319.548161 128.829636 
L 319.459392 127.872841 
L 319.157861 124.63731 
L 318.790064 120.444984 
L 318.45299 116.252658 
L 318.158349 112.060332 
L 317.919341 107.868005 
L 317.750632 103.675679 
L 317.668182 99.483353 
L 317.688841 95.291027 
L 317.829592 91.098701 
L 318.106317 86.906375 
L 318.531956 82.714048 
L 319.113992 78.521722 
L 319.459392 76.53125 
L 319.843816 74.329396 
L 320.700425 70.13707 
L 321.661695 65.944744 
L 322.688855 61.752418 
L 323.651719 57.891557 
L 323.733389 57.560091 
L 324.732342 53.367765 
L 325.654574 49.175439 
L 326.464455 44.983113 
L 327.136141 40.790787 
L 327.652453 36.59846 
L 327.844045 34.302611 
L 328.002265 32.406134 
L 328.178613 28.213808 
z
M 46.958191 107.373145 
L 51.150517 107.606214 
L 54.272782 107.868005 
L 55.342844 107.957933 
L 59.53517 108.429692 
L 63.727496 109.027876 
L 67.919822 109.758631 
L 72.112148 110.629863 
L 76.304474 111.651591 
L 77.778219 112.060332 
L 80.496801 112.835324 
L 84.689127 114.19674 
L 88.881453 115.755924 
L 90.085117 116.252658 
L 93.073779 117.542471 
L 97.266105 119.584536 
L 98.860307 120.444984 
L 101.458431 121.933119 
L 105.650758 124.634785 
L 105.654373 124.63731 
L 109.843084 127.792177 
L 111.090129 128.829636 
L 114.03541 131.503797 
L 115.56718 133.021962 
L 118.227736 135.936578 
L 119.3081 137.214289 
L 122.420062 141.338746 
L 122.467997 141.406615 
L 125.153996 145.598941 
L 126.612388 148.206647 
L 127.454643 149.791267 
L 129.426941 153.983593 
L 130.804715 157.373347 
L 131.119119 158.175919 
L 132.569358 162.368246 
L 133.801894 166.560572 
L 134.839758 170.752898 
L 134.997041 171.504457 
L 135.705866 174.945224 
L 136.409106 179.13755 
L 136.959513 183.329876 
L 137.365453 187.522203 
L 137.632895 191.714529 
L 137.765677 195.906855 
L 134.997041 195.906855 
L 130.804715 195.906855 
L 128.484667 195.906855 
L 128.319183 191.714529 
L 127.985844 187.522203 
L 127.479813 183.329876 
L 126.793577 179.13755 
L 126.612388 178.25866 
L 125.91407 174.945224 
L 124.828924 170.752898 
L 123.521033 166.560572 
L 122.420062 163.56313 
L 121.96399 162.368246 
L 120.122472 158.175919 
L 118.227736 154.468826 
L 117.966577 153.983593 
L 115.426718 149.791267 
L 114.03541 147.767411 
L 112.443309 145.598941 
L 109.843084 142.444247 
L 108.920239 141.406615 
L 105.650758 138.08664 
L 104.713655 137.214289 
L 101.458431 134.442933 
L 99.616487 133.021962 
L 97.266105 131.344249 
L 93.329132 128.829636 
L 93.073779 128.677067 
L 88.881453 126.394452 
L 85.202884 124.63731 
L 84.689127 124.404427 
L 80.496801 122.695435 
L 76.304474 121.213374 
L 73.804541 120.444984 
L 72.112148 119.942995 
L 67.919822 118.868657 
L 63.727496 117.969034 
L 59.53517 117.233668 
L 55.342844 116.654408 
L 51.422052 116.252658 
L 51.150517 116.225221 
L 46.958191 115.942842 
L 42.765865 115.802358 
L 42.765865 112.060332 
L 42.765865 107.868005 
L 42.765865 107.257147 
z
" clip-path="url(#pb9bc7a86a8)" style="fill: #d4e6f1"/>
    <path d="M 210.458912 28.213808 
L 214.651238 28.213808 
L 218.843564 28.213808 
L 223.03589 28.213808 
L 227.228217 28.213808 
L 231.420543 28.213808 
L 235.612869 28.213808 
L 239.805195 28.213808 
L 243.997521 28.213808 
L 248.189847 28.213808 
L 252.382174 28.213808 
L 256.5745 28.213808 
L 260.766826 28.213808 
L 264.959152 28.213808 
L 269.151478 28.213808 
L 273.343804 28.213808 
L 277.536131 28.213808 
L 281.728457 28.213808 
L 285.920783 28.213808 
L 290.113109 28.213808 
L 294.305435 28.213808 
L 298.497761 28.213808 
L 302.690088 28.213808 
L 306.882414 28.213808 
L 311.07474 28.213808 
L 315.267066 28.213808 
L 319.459392 28.213808 
L 323.651719 28.213808 
L 327.844045 28.213808 
L 328.178613 28.213808 
L 328.002265 32.406134 
L 327.844045 34.302611 
L 327.652453 36.59846 
L 327.136141 40.790787 
L 326.464455 44.983113 
L 325.654574 49.175439 
L 324.732342 53.367765 
L 323.733389 57.560091 
L 323.651719 57.891557 
L 322.688855 61.752418 
L 321.661695 65.944744 
L 320.700425 70.13707 
L 319.843816 74.329396 
L 319.459392 76.53125 
L 319.113992 78.521722 
L 318.531956 82.714048 
L 318.106317 86.906375 
L 317.829592 91.098701 
L 317.688841 95.291027 
L 317.668182 99.483353 
L 317.750632 103.675679 
L 317.919341 107.868005 
L 318.158349 112.060332 
L 318.45299 116.252658 
L 318.790064 120.444984 
L 319.157861 124.63731 
L 319.459392 127.872841 
L 319.548161 128.829636 
L 319.95792 133.021962 
L 320.372145 137.214289 
L 320.78372 141.406615 
L 321.186478 145.598941 
L 321.575087 149.791267 
L 321.944943 153.983593 
L 322.292082 158.175919 
L 322.6131 162.368246 
L 322.905087 166.560572 
L 323.16557 170.752898 
L 323.392472 174.945224 
L 323.584069 179.13755 
L 323.651719 180.962008 
L 323.742326 183.329876 
L 323.863955 187.522203 
L 323.945508 191.714529 
L 323.986423 195.906855 
L 323.651719 195.906855 
L 319.459392 195.906855 
L 315.267066 195.906855 
L 311.07474 195.906855 
L 310.825866 195.906855 
L 310.768874 191.714529 
L 310.654987 187.522203 
L 310.484395 183.329876 
L 310.257388 179.13755 
L 309.974359 174.945224 
L 309.635809 170.752898 
L 309.242357 166.560572 
L 308.794753 162.368246 
L 308.293897 158.175919 
L 307.740859 153.983593 
L 307.136917 149.791267 
L 306.882414 148.137383 
L 306.485414 145.598941 
L 305.787035 141.406615 
L 305.042323 137.214289 
L 304.253487 133.021962 
L 303.423212 128.829636 
L 302.690088 125.272874 
L 302.553797 124.63731 
L 301.642859 120.444984 
L 300.698755 116.252658 
L 299.726489 112.060332 
L 298.732375 107.868005 
L 298.497761 106.855633 
L 297.702885 103.675679 
L 296.654391 99.483353 
L 295.602501 95.291027 
L 294.560103 91.098701 
L 294.305435 89.991552 
L 293.495418 86.906375 
L 292.442867 82.714048 
L 291.436928 78.521722 
L 290.504613 74.329396 
L 290.113109 72.205971 
L 289.61317 70.13707 
L 288.784104 65.944744 
L 288.10913 61.752418 
L 287.642772 57.560091 
L 287.456497 53.367765 
L 287.676498 49.175439 
L 285.920783 44.983113 
L 281.728457 44.983113 
L 277.536131 44.983113 
L 273.343804 44.983113 
L 269.151478 44.983113 
L 264.959152 44.983113 
L 260.766826 44.983113 
L 256.5745 44.983113 
L 252.382174 44.983113 
L 248.189847 44.983113 
L 243.997521 44.983113 
L 239.805195 44.983113 
L 235.612869 44.983113 
L 231.420543 44.983113 
L 227.228217 44.983113 
L 223.03589 44.983113 
L 218.843564 44.983113 
L 214.651238 44.983113 
L 210.458912 44.983113 
L 210.458912 44.983113 
L 210.458912 40.790787 
L 210.458912 36.59846 
L 210.458912 32.406134 
L 210.458912 28.213808 
z
M 46.958191 98.669121 
L 51.150517 98.856098 
L 55.342844 99.138418 
L 59.152835 99.483353 
L 59.53517 99.51774 
L 63.727496 99.989609 
L 67.919822 100.564603 
L 72.112148 101.248111 
L 76.304474 102.046992 
L 80.496801 102.969921 
L 83.324202 103.675679 
L 84.689127 104.023145 
L 88.881453 105.213448 
L 93.073779 106.567198 
L 96.642192 107.868005 
L 97.266105 108.104231 
L 101.458431 109.841294 
L 105.650758 111.824344 
L 106.110583 112.060332 
L 109.843084 114.09245 
L 113.342962 116.252658 
L 114.03541 116.711335 
L 118.227736 119.764924 
L 119.076548 120.444984 
L 122.420062 123.377668 
L 123.72718 124.63731 
L 126.612388 127.724118 
L 127.564492 128.829636 
L 130.770076 133.021962 
L 130.804715 133.072182 
L 133.486323 137.214289 
L 134.997041 139.906057 
L 135.795891 141.406615 
L 137.77814 145.598941 
L 139.189367 149.056559 
L 139.478314 149.791267 
L 140.954259 153.983593 
L 142.219305 158.175919 
L 143.30139 162.368246 
L 143.381693 162.723342 
L 144.237601 166.560572 
L 145.027498 170.752898 
L 145.683292 174.945224 
L 146.215622 179.13755 
L 146.632635 183.329876 
L 146.940418 187.522203 
L 147.143301 191.714529 
L 147.244063 195.906855 
L 143.381693 195.906855 
L 139.189367 195.906855 
L 137.765677 195.906855 
L 137.632895 191.714529 
L 137.365453 187.522203 
L 136.959513 183.329876 
L 136.409106 179.13755 
L 135.705866 174.945224 
L 134.997041 171.504457 
L 134.839758 170.752898 
L 133.801894 166.560572 
L 132.569358 162.368246 
L 131.119119 158.175919 
L 130.804715 157.373347 
L 129.426941 153.983593 
L 127.454643 149.791267 
L 126.612388 148.206647 
L 125.153996 145.598941 
L 122.467997 141.406615 
L 122.420062 141.338746 
L 119.3081 137.214289 
L 118.227736 135.936578 
L 115.56718 133.021962 
L 114.03541 131.503797 
L 111.090129 128.829636 
L 109.843084 127.792177 
L 105.654373 124.63731 
L 105.650758 124.634785 
L 101.458431 121.933119 
L 98.860307 120.444984 
L 97.266105 119.584536 
L 93.073779 117.542471 
L 90.085117 116.252658 
L 88.881453 115.755924 
L 84.689127 114.19674 
L 80.496801 112.835324 
L 77.778219 112.060332 
L 76.304474 111.651591 
L 72.112148 110.629863 
L 67.919822 109.758631 
L 63.727496 109.027876 
L 59.53517 108.429692 
L 55.342844 107.957933 
L 54.272782 107.868005 
L 51.150517 107.606214 
L 46.958191 107.373145 
L 42.765865 107.257147 
L 42.765865 103.675679 
L 42.765865 99.483353 
L 42.765865 98.575997 
z
" clip-path="url(#pb9bc7a86a8)" style="fill: #ecf2f5"/>
    <path d="M 181.112629 28.213808 
L 185.304955 28.213808 
L 189.497281 28.213808 
L 193.689607 28.213808 
L 197.881933 28.213808 
L 202.07426 28.213808 
L 206.266586 28.213808 
L 210.458912 28.213808 
L 210.458912 32.406134 
L 210.458912 36.59846 
L 210.458912 40.790787 
L 210.458912 44.983113 
L 210.458912 44.983113 
L 214.651238 44.983113 
L 218.843564 44.983113 
L 223.03589 44.983113 
L 227.228217 44.983113 
L 231.420543 44.983113 
L 235.612869 44.983113 
L 239.805195 44.983113 
L 243.997521 44.983113 
L 248.189847 44.983113 
L 252.382174 44.983113 
L 256.5745 44.983113 
L 260.766826 44.983113 
L 264.959152 44.983113 
L 269.151478 44.983113 
L 273.343804 44.983113 
L 277.536131 44.983113 
L 281.728457 44.983113 
L 285.920783 44.983113 
L 287.676498 49.175439 
L 287.456497 53.367765 
L 287.642772 57.560091 
L 288.10913 61.752418 
L 288.784104 65.944744 
L 289.61317 70.13707 
L 290.113109 72.205971 
L 290.504613 74.329396 
L 291.436928 78.521722 
L 292.442867 82.714048 
L 293.495418 86.906375 
L 294.305435 89.991552 
L 294.560103 91.098701 
L 295.602501 95.291027 
L 296.654391 99.483353 
L 297.702885 103.675679 
L 298.497761 106.855633 
L 298.732375 107.868005 
L 299.726489 112.060332 
L 300.698755 116.252658 
L 301.642859 120.444984 
L 302.553797 124.63731 
L 302.690088 125.272874 
L 303.423212 128.829636 
L 304.253487 133.021962 
L 305.042323 137.214289 
L 305.787035 141.406615 
L 306.485414 145.598941 
L 306.882414 148.137383 
L 307.136917 149.791267 
L 307.740859 153.983593 
L 308.293897 158.175919 
L 308.794753 162.368246 
L 309.242357 166.560572 
L 309.635809 170.752898 
L 309.974359 174.945224 
L 310.257388 179.13755 
L 310.484395 183.329876 
L 310.654987 187.522203 
L 310.768874 191.714529 
L 310.825866 195.906855 
L 306.882414 195.906855 
L 302.690088 195.906855 
L 298.497761 195.906855 
L 298.229756 195.906855 
L 298.151908 191.714529 
L 297.996113 187.522203 
L 297.76217 183.329876 
L 297.449768 179.13755 
L 297.058468 174.945224 
L 296.587688 170.752898 
L 296.036679 166.560572 
L 295.404497 162.368246 
L 294.689969 158.175919 
L 294.305435 156.137737 
L 293.885257 153.983593 
L 292.987289 149.791267 
L 291.999408 145.598941 
L 290.918543 141.406615 
L 290.113109 138.514285 
L 289.731837 137.214289 
L 288.420294 133.021962 
L 286.996299 128.829636 
L 285.920783 125.877968 
L 285.435248 124.63731 
L 283.698009 120.444984 
L 281.803983 116.252658 
L 281.728457 116.092016 
L 279.639373 112.060332 
L 277.536131 108.351836 
L 277.228731 107.868005 
L 274.406608 103.675679 
L 273.343804 102.208321 
L 271.067365 99.483353 
L 269.151478 97.351371 
L 266.969991 95.291027 
L 264.959152 93.509251 
L 261.680022 91.098701 
L 260.766826 90.462077 
L 256.5745 88.008782 
L 254.286139 86.906375 
L 252.382174 86.018752 
L 248.189847 84.371972 
L 243.997521 83.004948 
L 242.982138 82.714048 
L 239.805195 81.809941 
L 235.612869 80.756485 
L 231.420543 79.800565 
L 227.228217 78.891435 
L 225.545238 78.521722 
L 223.03589 77.961178 
L 218.843564 76.968221 
L 214.651238 75.865268 
L 210.458912 74.580433 
L 209.765131 74.329396 
L 206.266586 72.998001 
L 202.07426 71.03638 
L 200.489325 70.13707 
L 197.881933 68.507742 
L 194.552202 65.944744 
L 193.689607 65.182207 
L 190.43955 61.752418 
L 189.497281 60.551649 
L 187.454637 57.560091 
L 185.304955 53.548417 
L 185.217693 53.367765 
L 183.580764 49.175439 
L 182.359542 44.983113 
L 181.469741 40.790787 
L 181.112629 38.391187 
L 180.858964 36.59846 
L 180.483184 32.406134 
L 180.302319 28.213808 
z
M 46.958191 89.581536 
L 51.150517 89.722297 
L 55.342844 89.934353 
L 59.53517 90.218851 
L 63.727496 90.577407 
L 67.919822 91.012189 
L 68.638825 91.098701 
L 72.112148 91.512581 
L 76.304474 92.09024 
L 80.496801 92.75234 
L 84.689127 93.504587 
L 88.881453 94.354293 
L 92.990341 95.291027 
L 93.073779 95.310355 
L 97.266105 96.357699 
L 101.458431 97.535648 
L 105.650758 98.864316 
L 107.439695 99.483353 
L 109.843084 100.351436 
L 114.03541 102.032937 
L 117.632197 103.675679 
L 118.227736 103.965169 
L 122.420062 106.184747 
L 125.199164 107.868005 
L 126.612388 108.800232 
L 130.804715 111.92794 
L 130.966742 112.060332 
L 134.997041 115.752717 
L 135.486427 116.252658 
L 139.08751 120.444984 
L 139.189367 120.579006 
L 142.033539 124.63731 
L 143.381693 126.896001 
L 144.460244 128.829636 
L 146.49627 133.021962 
L 147.574019 135.59471 
L 148.221349 137.214289 
L 149.708979 141.406615 
L 150.977994 145.598941 
L 151.766345 148.585692 
L 152.077332 149.791267 
L 153.045576 153.983593 
L 153.8789 158.175919 
L 154.594722 162.368246 
L 155.206348 166.560572 
L 155.724017 170.752898 
L 155.958672 173.006863 
L 156.162578 174.945224 
L 156.526444 179.13755 
L 156.812203 183.329876 
L 157.023532 187.522203 
L 157.163035 191.714529 
L 157.232381 195.906855 
L 155.958672 195.906855 
L 151.766345 195.906855 
L 147.574019 195.906855 
L 147.244063 195.906855 
L 147.143301 191.714529 
L 146.940418 187.522203 
L 146.632635 183.329876 
L 146.215622 179.13755 
L 145.683292 174.945224 
L 145.027498 170.752898 
L 144.237601 166.560572 
L 143.381693 162.723342 
L 143.30139 162.368246 
L 142.219305 158.175919 
L 140.954259 153.983593 
L 139.478314 149.791267 
L 139.189367 149.056559 
L 137.77814 145.598941 
L 135.795891 141.406615 
L 134.997041 139.906057 
L 133.486323 137.214289 
L 130.804715 133.072182 
L 130.770076 133.021962 
L 127.564492 128.829636 
L 126.612388 127.724118 
L 123.72718 124.63731 
L 122.420062 123.377668 
L 119.076548 120.444984 
L 118.227736 119.764924 
L 114.03541 116.711335 
L 113.342962 116.252658 
L 109.843084 114.09245 
L 106.110583 112.060332 
L 105.650758 111.824344 
L 101.458431 109.841294 
L 97.266105 108.104231 
L 96.642192 107.868005 
L 93.073779 106.567198 
L 88.881453 105.213448 
L 84.689127 104.023145 
L 83.324202 103.675679 
L 80.496801 102.969921 
L 76.304474 102.046992 
L 72.112148 101.248111 
L 67.919822 100.564603 
L 63.727496 99.989609 
L 59.53517 99.51774 
L 59.152835 99.483353 
L 55.342844 99.138418 
L 51.150517 98.856098 
L 46.958191 98.669121 
L 42.765865 98.575997 
L 42.765865 95.291027 
L 42.765865 91.098701 
L 42.765865 89.511334 
z
" clip-path="url(#pb9bc7a86a8)" style="fill: #f9eee7"/>
    <path d="M 164.343324 28.213808 
L 168.53565 28.213808 
L 172.727976 28.213808 
L 176.920302 28.213808 
L 180.302319 28.213808 
L 180.483184 32.406134 
L 180.858964 36.59846 
L 181.112629 38.391187 
L 181.469741 40.790787 
L 182.359542 44.983113 
L 183.580764 49.175439 
L 185.217693 53.367765 
L 185.304955 53.548417 
L 187.454637 57.560091 
L 189.497281 60.551649 
L 190.43955 61.752418 
L 193.689607 65.182207 
L 194.552202 65.944744 
L 197.881933 68.507742 
L 200.489325 70.13707 
L 202.07426 71.03638 
L 206.266586 72.998001 
L 209.765131 74.329396 
L 210.458912 74.580433 
L 214.651238 75.865268 
L 218.843564 76.968221 
L 223.03589 77.961178 
L 225.545238 78.521722 
L 227.228217 78.891435 
L 231.420543 79.800565 
L 235.612869 80.756485 
L 239.805195 81.809941 
L 242.982138 82.714048 
L 243.997521 83.004948 
L 248.189847 84.371972 
L 252.382174 86.018752 
L 254.286139 86.906375 
L 256.5745 88.008782 
L 260.766826 90.462077 
L 261.680022 91.098701 
L 264.959152 93.509251 
L 266.969991 95.291027 
L 269.151478 97.351371 
L 271.067365 99.483353 
L 273.343804 102.208321 
L 274.406608 103.675679 
L 277.228731 107.868005 
L 277.536131 108.351836 
L 279.639373 112.060332 
L 281.728457 116.092016 
L 281.803983 116.252658 
L 283.698009 120.444984 
L 285.435248 124.63731 
L 285.920783 125.877968 
L 286.996299 128.829636 
L 288.420294 133.021962 
L 289.731837 137.214289 
L 290.113109 138.514285 
L 290.918543 141.406615 
L 291.999408 145.598941 
L 292.987289 149.791267 
L 293.885257 153.983593 
L 294.305435 156.137737 
L 294.689969 158.175919 
L 295.404497 162.368246 
L 296.036679 166.560572 
L 296.587688 170.752898 
L 297.058468 174.945224 
L 297.449768 179.13755 
L 297.76217 183.329876 
L 297.996113 187.522203 
L 298.151908 191.714529 
L 298.229756 195.906855 
L 294.305435 195.906855 
L 290.113109 195.906855 
L 285.920783 195.906855 
L 285.324507 195.906855 
L 285.218699 191.714529 
L 285.006744 187.522203 
L 284.687953 183.329876 
L 284.261254 179.13755 
L 283.725149 174.945224 
L 283.077653 170.752898 
L 282.316214 166.560572 
L 281.728457 163.742812 
L 281.426543 162.368246 
L 280.388706 158.175919 
L 279.219752 153.983593 
L 277.913048 149.791267 
L 277.536131 148.684471 
L 276.41019 145.598941 
L 274.725847 141.406615 
L 273.343804 138.271958 
L 272.836892 137.214289 
L 270.664349 133.021962 
L 269.151478 130.348067 
L 268.202551 128.829636 
L 265.362002 124.63731 
L 264.959152 124.082256 
L 261.990665 120.444984 
L 260.766826 119.053072 
L 257.958883 116.252658 
L 256.5745 114.960518 
L 252.980463 112.060332 
L 252.382174 111.604753 
L 248.189847 108.841872 
L 246.456758 107.868005 
L 243.997521 106.545961 
L 239.805195 104.626846 
L 237.371065 103.675679 
L 235.612869 103.0091 
L 231.420543 101.638471 
L 227.228217 100.456457 
L 223.290503 99.483353 
L 223.03589 99.421043 
L 218.843564 98.508071 
L 214.651238 97.674746 
L 210.458912 96.891216 
L 206.266586 96.129875 
L 202.07426 95.364139 
L 201.663193 95.291027 
L 197.881933 94.5835 
L 193.689607 93.747345 
L 189.497281 92.815617 
L 185.304955 91.730128 
L 183.14359 91.098701 
L 181.112629 90.41077 
L 176.920302 88.675957 
L 173.853631 86.906375 
L 172.727976 86.060277 
L 169.474823 82.714048 
L 168.53565 81.301892 
L 167.07556 78.521722 
L 165.569367 74.329396 
L 164.526561 70.13707 
L 164.343324 69.254746 
L 163.728289 65.944744 
L 163.110121 61.752418 
L 162.624672 57.560091 
L 162.240511 53.367765 
L 161.937979 49.175439 
L 161.703618 44.983113 
L 161.527523 40.790787 
L 161.402125 36.59846 
L 161.32175 32.406134 
L 161.282544 28.213808 
z
M 46.958191 79.763357 
L 51.150517 79.853883 
L 55.342844 79.989484 
L 59.53517 80.169938 
L 63.727496 80.394959 
L 67.919822 80.66421 
L 72.112148 80.977306 
L 76.304474 81.333842 
L 80.496801 81.73341 
L 84.689127 82.175637 
L 88.881453 82.660225 
L 89.326641 82.714048 
L 93.073779 83.165075 
L 97.266105 83.707433 
L 101.458431 84.290042 
L 105.650758 84.913622 
L 109.843084 85.579593 
L 114.03541 86.29044 
L 117.486123 86.906375 
L 118.227736 87.04418 
L 122.420062 87.823961 
L 126.612388 88.664935 
L 130.804715 89.582858 
L 134.997041 90.604688 
L 136.933067 91.098701 
L 139.189367 91.746556 
L 143.381693 93.087388 
L 147.574019 94.823664 
L 148.55902 95.291027 
L 151.766345 97.247565 
L 154.375334 99.483353 
L 155.958672 101.402583 
L 157.425018 103.675679 
L 159.290462 107.868005 
L 160.150998 110.492635 
L 160.599148 112.060332 
L 161.636571 116.252658 
L 162.470026 120.444984 
L 163.173121 124.63731 
L 163.785075 128.829636 
L 164.328409 133.021962 
L 164.343324 133.139766 
L 164.84482 137.214289 
L 165.311031 141.406615 
L 165.732857 145.598941 
L 166.114769 149.791267 
L 166.4598 153.983593 
L 166.770034 158.175919 
L 167.046923 162.368246 
L 167.291487 166.560572 
L 167.504448 170.752898 
L 167.686316 174.945224 
L 167.837453 179.13755 
L 167.958115 183.329876 
L 168.048479 187.522203 
L 168.108662 191.714529 
L 168.138736 195.906855 
L 164.343324 195.906855 
L 160.150998 195.906855 
L 157.232381 195.906855 
L 157.163035 191.714529 
L 157.023532 187.522203 
L 156.812203 183.329876 
L 156.526444 179.13755 
L 156.162578 174.945224 
L 155.958672 173.006863 
L 155.724017 170.752898 
L 155.206348 166.560572 
L 154.594722 162.368246 
L 153.8789 158.175919 
L 153.045576 153.983593 
L 152.077332 149.791267 
L 151.766345 148.585692 
L 150.977994 145.598941 
L 149.708979 141.406615 
L 148.221349 137.214289 
L 147.574019 135.59471 
L 146.49627 133.021962 
L 144.460244 128.829636 
L 143.381693 126.896001 
L 142.033539 124.63731 
L 139.189367 120.579006 
L 139.08751 120.444984 
L 135.486427 116.252658 
L 134.997041 115.752717 
L 130.966742 112.060332 
L 130.804715 111.92794 
L 126.612388 108.800232 
L 125.199164 107.868005 
L 122.420062 106.184747 
L 118.227736 103.965169 
L 117.632197 103.675679 
L 114.03541 102.032937 
L 109.843084 100.351436 
L 107.439695 99.483353 
L 105.650758 98.864316 
L 101.458431 97.535648 
L 97.266105 96.357699 
L 93.073779 95.310355 
L 92.990341 95.291027 
L 88.881453 94.354293 
L 84.689127 93.504587 
L 80.496801 92.75234 
L 76.304474 92.09024 
L 72.112148 91.512581 
L 68.638825 91.098701 
L 67.919822 91.012189 
L 63.727496 90.577407 
L 59.53517 90.218851 
L 55.342844 89.934353 
L 51.150517 89.722297 
L 46.958191 89.581536 
L 42.765865 89.511334 
L 42.765865 86.906375 
L 42.765865 82.714048 
L 42.765865 79.718056 
z
" clip-path="url(#pb9bc7a86a8)" style="fill: #fddcc9"/>
    <path d="M 143.381693 28.213808 
L 147.574019 28.213808 
L 151.766345 28.213808 
L 155.958672 28.213808 
L 160.150998 28.213808 
L 161.282544 28.213808 
L 161.32175 32.406134 
L 161.402125 36.59846 
L 161.527523 40.790787 
L 161.703618 44.983113 
L 161.937979 49.175439 
L 162.240511 53.367765 
L 162.624672 57.560091 
L 163.110121 61.752418 
L 163.728289 65.944744 
L 164.343324 69.254746 
L 164.526561 70.13707 
L 165.569367 74.329396 
L 167.07556 78.521722 
L 168.53565 81.301892 
L 169.474823 82.714048 
L 172.727976 86.060277 
L 173.853631 86.906375 
L 176.920302 88.675957 
L 181.112629 90.41077 
L 183.14359 91.098701 
L 185.304955 91.730128 
L 189.497281 92.815617 
L 193.689607 93.747345 
L 197.881933 94.5835 
L 201.663193 95.291027 
L 202.07426 95.364139 
L 206.266586 96.129875 
L 210.458912 96.891216 
L 214.651238 97.674746 
L 218.843564 98.508071 
L 223.03589 99.421043 
L 223.290503 99.483353 
L 227.228217 100.456457 
L 231.420543 101.638471 
L 235.612869 103.0091 
L 237.371065 103.675679 
L 239.805195 104.626846 
L 243.997521 106.545961 
L 246.456758 107.868005 
L 248.189847 108.841872 
L 252.382174 111.604753 
L 252.980463 112.060332 
L 256.5745 114.960518 
L 257.958883 116.252658 
L 260.766826 119.053072 
L 261.990665 120.444984 
L 264.959152 124.082256 
L 265.362002 124.63731 
L 268.202551 128.829636 
L 269.151478 130.348067 
L 270.664349 133.021962 
L 272.836892 137.214289 
L 273.343804 138.271958 
L 274.725847 141.406615 
L 276.41019 145.598941 
L 277.536131 148.684471 
L 277.913048 149.791267 
L 279.219752 153.983593 
L 280.388706 158.175919 
L 281.426543 162.368246 
L 281.728457 163.742812 
L 282.316214 166.560572 
L 283.077653 170.752898 
L 283.725149 174.945224 
L 284.261254 179.13755 
L 284.687953 183.329876 
L 285.006744 187.522203 
L 285.218699 191.714529 
L 285.324507 195.906855 
L 281.728457 195.906855 
L 277.536131 195.906855 
L 273.343804 195.906855 
L 271.009483 195.906855 
L 270.862153 191.714529 
L 270.566857 187.522203 
L 270.122292 183.329876 
L 269.526431 179.13755 
L 269.151478 177.033047 
L 268.750787 174.945224 
L 267.781203 170.752898 
L 266.638403 166.560572 
L 265.315927 162.368246 
L 264.959152 161.366061 
L 263.714408 158.175919 
L 261.872655 153.983593 
L 260.766826 151.720495 
L 259.717672 149.791267 
L 257.200313 145.598941 
L 256.5745 144.644506 
L 254.172937 141.406615 
L 252.382174 139.190415 
L 250.547108 137.214289 
L 248.189847 134.859492 
L 246.039617 133.021962 
L 243.997521 131.386923 
L 240.196341 128.829636 
L 239.805195 128.580726 
L 235.612869 126.364464 
L 231.551701 124.63731 
L 231.420543 124.583738 
L 227.228217 123.249431 
L 223.03589 122.270176 
L 218.843564 121.633833 
L 214.651238 121.345332 
L 210.458912 121.430825 
L 206.266586 121.94557 
L 202.07426 122.988488 
L 198.085575 124.63731 
L 197.881933 124.735378 
L 193.689607 127.651733 
L 192.489771 128.829636 
L 189.497281 132.522699 
L 189.188972 133.021962 
L 187.071661 137.214289 
L 185.486763 141.406615 
L 185.304955 141.997143 
L 184.385805 145.598941 
L 183.548877 149.791267 
L 182.896906 153.983593 
L 182.386797 158.175919 
L 181.986933 162.368246 
L 181.67372 166.560572 
L 181.429334 170.752898 
L 181.240214 174.945224 
L 181.112629 178.645341 
L 181.097358 179.13755 
L 180.99878 183.329876 
L 180.929073 187.522203 
L 180.884554 191.714529 
L 180.862868 195.906855 
L 176.920302 195.906855 
L 172.727976 195.906855 
L 168.53565 195.906855 
L 168.138736 195.906855 
L 168.108662 191.714529 
L 168.048479 187.522203 
L 167.958115 183.329876 
L 167.837453 179.13755 
L 167.686316 174.945224 
L 167.504448 170.752898 
L 167.291487 166.560572 
L 167.046923 162.368246 
L 166.770034 158.175919 
L 166.4598 153.983593 
L 166.114769 149.791267 
L 165.732857 145.598941 
L 165.311031 141.406615 
L 164.84482 137.214289 
L 164.343324 133.139766 
L 164.328409 133.021962 
L 163.785075 128.829636 
L 163.173121 124.63731 
L 162.470026 120.444984 
L 161.636571 116.252658 
L 160.599148 112.060332 
L 160.150998 110.492635 
L 159.290462 107.868005 
L 157.425018 103.675679 
L 155.958672 101.402583 
L 154.375334 99.483353 
L 151.766345 97.247565 
L 148.55902 95.291027 
L 147.574019 94.823664 
L 143.381693 93.087388 
L 139.189367 91.746556 
L 136.933067 91.098701 
L 134.997041 90.604688 
L 130.804715 89.582858 
L 126.612388 88.664935 
L 122.420062 87.823961 
L 118.227736 87.04418 
L 117.486123 86.906375 
L 114.03541 86.29044 
L 109.843084 85.579593 
L 105.650758 84.913622 
L 101.458431 84.290042 
L 97.266105 83.707433 
L 93.073779 83.165075 
L 89.326641 82.714048 
L 88.881453 82.660225 
L 84.689127 82.175637 
L 80.496801 81.73341 
L 76.304474 81.333842 
L 72.112148 80.977306 
L 67.919822 80.66421 
L 63.727496 80.394959 
L 59.53517 80.169938 
L 55.342844 79.989484 
L 51.150517 79.853883 
L 46.958191 79.763357 
L 42.765865 79.718056 
L 42.765865 78.521722 
L 42.765865 74.329396 
L 42.765865 70.13707 
L 42.765865 68.521603 
L 46.958191 68.538468 
L 51.150517 68.57152 
L 55.342844 68.619385 
L 59.53517 68.679948 
L 63.727496 68.750293 
L 67.919822 68.826599 
L 72.112148 68.904017 
L 76.304474 68.976484 
L 80.496801 69.036479 
L 84.689127 69.074691 
L 88.881453 69.079557 
L 93.073779 69.036626 
L 97.266105 68.927659 
L 101.458431 68.729323 
L 105.650758 68.411277 
L 109.843084 67.933266 
L 114.03541 67.240585 
L 118.227736 66.256731 
L 119.246092 65.944744 
L 122.420062 64.768167 
L 126.612388 62.621902 
L 127.9161 61.752418 
L 130.804715 59.298116 
L 132.406686 57.560091 
L 134.997041 53.811393 
L 135.250962 53.367765 
L 137.126783 49.175439 
L 138.472008 44.983113 
L 139.189367 41.883746 
L 139.416307 40.790787 
L 140.039224 36.59846 
L 140.431091 32.406134 
L 140.620439 28.213808 
z
" clip-path="url(#pb9bc7a86a8)" style="fill: #f8bb9e"/>
    <path d="M 114.03541 28.213808 
L 118.227736 28.213808 
L 122.420062 28.213808 
L 126.612388 28.213808 
L 130.804715 28.213808 
L 134.997041 28.213808 
L 139.189367 28.213808 
L 140.620439 28.213808 
L 140.431091 32.406134 
L 140.039224 36.59846 
L 139.416307 40.790787 
L 139.189367 41.883746 
L 138.472008 44.983113 
L 137.126783 49.175439 
L 135.250962 53.367765 
L 134.997041 53.811393 
L 132.406686 57.560091 
L 130.804715 59.298116 
L 127.9161 61.752418 
L 126.612388 62.621902 
L 122.420062 64.768167 
L 119.246092 65.944744 
L 118.227736 66.256731 
L 114.03541 67.240585 
L 109.843084 67.933266 
L 105.650758 68.411277 
L 101.458431 68.729323 
L 97.266105 68.927659 
L 93.073779 69.036626 
L 88.881453 69.079557 
L 84.689127 69.074691 
L 80.496801 69.036479 
L 76.304474 68.976484 
L 72.112148 68.904017 
L 67.919822 68.826599 
L 63.727496 68.750293 
L 59.53517 68.679948 
L 55.342844 68.619385 
L 51.150517 68.57152 
L 46.958191 68.538468 
L 42.765865 68.521603 
L 42.765865 65.944744 
L 42.765865 61.752418 
L 42.765865 57.560091 
L 42.765865 54.163479 
L 46.958191 54.13421 
L 51.150517 54.073925 
L 55.342844 53.979071 
L 59.53517 53.844164 
L 63.727496 53.661589 
L 67.919822 53.421316 
L 68.655941 53.367765 
L 72.112148 53.071309 
L 76.304474 52.613122 
L 80.496801 52.031448 
L 84.689127 51.296886 
L 88.881453 50.372454 
L 93.073779 49.211292 
L 93.182023 49.175439 
L 97.266105 47.48558 
L 101.458431 45.307133 
L 101.981033 44.983113 
L 105.650758 41.976842 
L 106.861596 40.790787 
L 109.843084 36.633625 
L 109.86489 36.59846 
L 111.550241 32.406134 
L 112.356026 28.213808 
z
M 202.07426 122.988488 
L 206.266586 121.94557 
L 210.458912 121.430825 
L 214.651238 121.345332 
L 218.843564 121.633833 
L 223.03589 122.270176 
L 227.228217 123.249431 
L 231.420543 124.583738 
L 231.551701 124.63731 
L 235.612869 126.364464 
L 239.805195 128.580726 
L 240.196341 128.829636 
L 243.997521 131.386923 
L 246.039617 133.021962 
L 248.189847 134.859492 
L 250.547108 137.214289 
L 252.382174 139.190415 
L 254.172937 141.406615 
L 256.5745 144.644506 
L 257.200313 145.598941 
L 259.717672 149.791267 
L 260.766826 151.720495 
L 261.872655 153.983593 
L 263.714408 158.175919 
L 264.959152 161.366061 
L 265.315927 162.368246 
L 266.638403 166.560572 
L 267.781203 170.752898 
L 268.750787 174.945224 
L 269.151478 177.033047 
L 269.526431 179.13755 
L 270.122292 183.329876 
L 270.566857 187.522203 
L 270.862153 191.714529 
L 271.009483 195.906855 
L 269.151478 195.906855 
L 264.959152 195.906855 
L 260.766826 195.906855 
L 256.5745 195.906855 
L 252.512866 195.906855 
L 252.382174 193.629409 
L 252.256324 191.714529 
L 251.705013 187.522203 
L 250.876631 183.329876 
L 249.76924 179.13755 
L 248.379853 174.945224 
L 248.189847 174.467233 
L 246.45063 170.752898 
L 244.155674 166.560572 
L 243.997521 166.307262 
L 241.008484 162.368246 
L 239.805195 160.95249 
L 236.810589 158.175919 
L 235.612869 157.165458 
L 231.420543 154.552466 
L 230.009724 153.983593 
L 227.228217 152.938305 
L 223.03589 152.218728 
L 218.843564 152.404035 
L 214.651238 153.608392 
L 213.967006 153.983593 
L 210.458912 156.229638 
L 208.506695 158.175919 
L 206.266586 160.861999 
L 205.349062 162.368246 
L 203.240311 166.560572 
L 202.07426 169.440914 
L 201.652671 170.752898 
L 200.553289 174.945224 
L 199.694091 179.13755 
L 199.041636 183.329876 
L 198.57163 187.522203 
L 198.267154 191.714529 
L 198.117509 195.906855 
L 197.881933 195.906855 
L 193.689607 195.906855 
L 189.497281 195.906855 
L 185.304955 195.906855 
L 181.112629 195.906855 
L 180.862868 195.906855 
L 180.884554 191.714529 
L 180.929073 187.522203 
L 180.99878 183.329876 
L 181.097358 179.13755 
L 181.112629 178.645341 
L 181.240214 174.945224 
L 181.429334 170.752898 
L 181.67372 166.560572 
L 181.986933 162.368246 
L 182.386797 158.175919 
L 182.896906 153.983593 
L 183.548877 149.791267 
L 184.385805 145.598941 
L 185.304955 141.997143 
L 185.486763 141.406615 
L 187.071661 137.214289 
L 189.188972 133.021962 
L 189.497281 132.522699 
L 192.489771 128.829636 
L 193.689607 127.651733 
L 197.881933 124.735378 
L 198.085575 124.63731 
z
" clip-path="url(#pb9bc7a86a8)" style="fill: #ee9677"/>
    <path d="M 46.958191 28.213808 
L 51.150517 28.213808 
L 55.342844 28.213808 
L 59.53517 28.213808 
L 63.727496 28.213808 
L 67.919822 28.213808 
L 72.112148 28.213808 
L 76.304474 28.213808 
L 80.496801 28.213808 
L 84.689127 28.213808 
L 88.881453 28.213808 
L 93.073779 28.213808 
L 97.266105 28.213808 
L 101.458431 28.213808 
L 105.650758 28.213808 
L 109.843084 28.213808 
L 112.356026 28.213808 
L 111.550241 32.406134 
L 109.86489 36.59846 
L 109.843084 36.633625 
L 106.861596 40.790787 
L 105.650758 41.976842 
L 101.981033 44.983113 
L 101.458431 45.307133 
L 97.266105 47.48558 
L 93.182023 49.175439 
L 93.073779 49.211292 
L 88.881453 50.372454 
L 84.689127 51.296886 
L 80.496801 52.031448 
L 76.304474 52.613122 
L 72.112148 53.071309 
L 68.655941 53.367765 
L 67.919822 53.421316 
L 63.727496 53.661589 
L 59.53517 53.844164 
L 55.342844 53.979071 
L 51.150517 54.073925 
L 46.958191 54.13421 
L 42.765865 54.163479 
L 42.765865 53.367765 
L 42.765865 49.175439 
L 42.765865 44.983113 
L 42.765865 40.790787 
L 42.765865 36.59846 
L 42.765865 32.406134 
L 42.765865 28.213808 
z
M 214.651238 153.608392 
L 218.843564 152.404035 
L 223.03589 152.218728 
L 227.228217 152.938305 
L 230.009724 153.983593 
L 231.420543 154.552466 
L 235.612869 157.165458 
L 236.810589 158.175919 
L 239.805195 160.95249 
L 241.008484 162.368246 
L 243.997521 166.307262 
L 244.155674 166.560572 
L 246.45063 170.752898 
L 248.189847 174.467233 
L 248.379853 174.945224 
L 249.76924 179.13755 
L 250.876631 183.329876 
L 251.705013 187.522203 
L 252.256324 191.714529 
L 252.382174 193.629409 
L 252.512866 195.906855 
L 252.382174 195.906855 
L 248.189847 195.906855 
L 243.997521 195.906855 
L 239.805195 195.906855 
L 235.612869 195.906855 
L 231.420543 195.906855 
L 227.228217 195.906855 
L 223.03589 195.906855 
L 218.843564 195.906855 
L 214.651238 195.906855 
L 210.458912 195.906855 
L 206.266586 195.906855 
L 202.07426 195.906855 
L 198.117509 195.906855 
L 198.267154 191.714529 
L 198.57163 187.522203 
L 199.041636 183.329876 
L 199.694091 179.13755 
L 200.553289 174.945224 
L 201.652671 170.752898 
L 202.07426 169.440914 
L 203.240311 166.560572 
L 205.349062 162.368246 
L 206.266586 160.861999 
L 208.506695 158.175919 
L 210.458912 156.229638 
L 213.967006 153.983593 
z
" clip-path="url(#pb9bc7a86a8)" style="fill: #db6b55"/>
    <path clip-path="url(#pb9bc7a86a8)" style="fill: #c53e3d"/>
    <path clip-path="url(#pb9bc7a86a8)" style="fill: #ab162a"/>
    <path clip-path="url(#pb9bc7a86a8)" style="fill: #7c0722"/>
    <path clip-path="url(#pb9bc7a86a8)" style="fill: #67001f"/>
   </g>
   <g id="patch_3">
    <path d="M 210.458912 28.213808 
L 294.305435 28.213808 
L 294.305435 44.983113 
L 210.458912 44.983113 
z
" clip-path="url(#pb9bc7a86a8)" style="fill: url(#he28f3f50ee); opacity: 0.35; stroke: #111827; stroke-width: 1.2; stroke-linejoin: miter"/>
   </g>
   <g id="PathCollection_1">
    <defs>
     <path id="m0fedb18d95" d="M -0 4.582576 
L 4.582576 0 
L 0 -4.582576 
L -4.582576 -0 
z
" style="stroke: #111827; stroke-width: 0.7"/>
    </defs>
    <g clip-path="url(#pb9bc7a86a8)">
     <use xlink:href="#m0fedb18d95" x="210.458912" y="112.060332" style="fill: #f5b942; stroke: #111827; stroke-width: 0.7"/>
    </g>
   </g>
   <g id="matplotlib.axis_1">
    <g id="xtick_1">
     <g id="line2d_1">
      <defs>
       <path id="mfa1a2f572b" d="M 0 0 
L 0 3.5 
" style="stroke: #000000; stroke-width: 0.8"/>
      </defs>
      <g>
       <use xlink:href="#mfa1a2f572b" x="42.765865" y="195.906855" style="stroke: #000000; stroke-width: 0.8"/>
      </g>
     </g>
     <g id="text_1">
      <!-- 0 -->
      <g transform="translate(39.584615 210.505292) scale(0.1 -0.1)">
       <defs>
        <path id="DejaVuSans-30" d="M 2034 4250 
Q 1547 4250 1301 3770 
Q 1056 3291 1056 2328 
Q 1056 1369 1301 889 
Q 1547 409 2034 409 
Q 2525 409 2770 889 
Q 3016 1369 3016 2328 
Q 3016 3291 2770 3770 
Q 2525 4250 2034 4250 
z
M 2034 4750 
Q 2819 4750 3233 4129 
Q 3647 3509 3647 2328 
Q 3647 1150 3233 529 
Q 2819 -91 2034 -91 
Q 1250 -91 836 529 
Q 422 1150 422 2328 
Q 422 3509 836 4129 
Q 1250 4750 2034 4750 
z
" transform="scale(0.015625)"/>
       </defs>
       <use xlink:href="#DejaVuSans-30"/>
      </g>
     </g>
    </g>
    <g id="xtick_2">
     <g id="line2d_2">
      <g>
       <use xlink:href="#mfa1a2f572b" x="126.612388" y="195.906855" style="stroke: #000000; stroke-width: 0.8"/>
      </g>
     </g>
     <g id="text_2">
      <!-- 100 -->
      <g transform="translate(117.068638 210.505292) scale(0.1 -0.1)">
       <defs>
        <path id="DejaVuSans-31" d="M 794 531 
L 1825 531 
L 1825 4091 
L 703 3866 
L 703 4441 
L 1819 4666 
L 2450 4666 
L 2450 531 
L 3481 531 
L 3481 0 
L 794 0 
L 794 531 
z
" transform="scale(0.015625)"/>
       </defs>
       <use xlink:href="#DejaVuSans-31"/>
       <use xlink:href="#DejaVuSans-30" transform="translate(63.623047 0)"/>
       <use xlink:href="#DejaVuSans-30" transform="translate(127.246094 0)"/>
      </g>
     </g>
    </g>
    <g id="xtick_3">
     <g id="line2d_3">
      <g>
       <use xlink:href="#mfa1a2f572b" x="210.458912" y="195.906855" style="stroke: #000000; stroke-width: 0.8"/>
      </g>
     </g>
     <g id="text_3">
      <!-- 200 -->
      <g transform="translate(200.915162 210.505292) scale(0.1 -0.1)">
       <defs>
        <path id="DejaVuSans-32" d="M 1228 531 
L 3431 531 
L 3431 0 
L 469 0 
L 469 531 
Q 828 903 1448 1529 
Q 2069 2156 2228 2338 
Q 2531 2678 2651 2914 
Q 2772 3150 2772 3378 
Q 2772 3750 2511 3984 
Q 2250 4219 1831 4219 
Q 1534 4219 1204 4116 
Q 875 4013 500 3803 
L 500 4441 
Q 881 4594 1212 4672 
Q 1544 4750 1819 4750 
Q 2544 4750 2975 4387 
Q 3406 4025 3406 3419 
Q 3406 3131 3298 2873 
Q 3191 2616 2906 2266 
Q 2828 2175 2409 1742 
Q 1991 1309 1228 531 
z
" transform="scale(0.015625)"/>
       </defs>
       <use xlink:href="#DejaVuSans-32"/>
       <use xlink:href="#DejaVuSans-30" transform="translate(63.623047 0)"/>
       <use xlink:href="#DejaVuSans-30" transform="translate(127.246094 0)"/>
      </g>
     </g>
    </g>
    <g id="xtick_4">
     <g id="line2d_4">
      <g>
       <use xlink:href="#mfa1a2f572b" x="294.305435" y="195.906855" style="stroke: #000000; stroke-width: 0.8"/>
      </g>
     </g>
     <g id="text_4">
      <!-- 300 -->
      <g transform="translate(284.761685 210.505292) scale(0.1 -0.1)">
       <defs>
        <path id="DejaVuSans-33" d="M 2597 2516 
Q 3050 2419 3304 2112 
Q 3559 1806 3559 1356 
Q 3559 666 3084 287 
Q 2609 -91 1734 -91 
Q 1441 -91 1130 -33 
Q 819 25 488 141 
L 488 750 
Q 750 597 1062 519 
Q 1375 441 1716 441 
Q 2309 441 2620 675 
Q 2931 909 2931 1356 
Q 2931 1769 2642 2001 
Q 2353 2234 1838 2234 
L 1294 2234 
L 1294 2753 
L 1863 2753 
Q 2328 2753 2575 2939 
Q 2822 3125 2822 3475 
Q 2822 3834 2567 4026 
Q 2313 4219 1838 4219 
Q 1578 4219 1281 4162 
Q 984 4106 628 3988 
L 628 4550 
Q 988 4650 1302 4700 
Q 1616 4750 1894 4750 
Q 2613 4750 3031 4423 
Q 3450 4097 3450 3541 
Q 3450 3153 3228 2886 
Q 3006 2619 2597 2516 
z
" transform="scale(0.015625)"/>
       </defs>
       <use xlink:href="#DejaVuSans-33"/>
       <use xlink:href="#DejaVuSans-30" transform="translate(63.623047 0)"/>
       <use xlink:href="#DejaVuSans-30" transform="translate(127.246094 0)"/>
      </g>
     </g>
    </g>
    <g id="xtick_5">
     <g id="line2d_5">
      <g>
       <use xlink:href="#mfa1a2f572b" x="378.151959" y="195.906855" style="stroke: #000000; stroke-width: 0.8"/>
      </g>
     </g>
     <g id="text_5">
      <!-- 400 -->
      <g transform="translate(368.608209 210.505292) scale(0.1 -0.1)">
       <defs>
        <path id="DejaVuSans-34" d="M 2419 4116 
L 825 1625 
L 2419 1625 
L 2419 4116 
z
M 2253 4666 
L 3047 4666 
L 3047 1625 
L 3713 1625 
L 3713 1100 
L 3047 1100 
L 3047 0 
L 2419 0 
L 2419 1100 
L 313 1100 
L 313 1709 
L 2253 4666 
z
" transform="scale(0.015625)"/>
       </defs>
       <use xlink:href="#DejaVuSans-34"/>
       <use xlink:href="#DejaVuSans-30" transform="translate(63.623047 0)"/>
       <use xlink:href="#DejaVuSans-30" transform="translate(127.246094 0)"/>
      </g>
     </g>
    </g>
    <g id="text_6">
     <!-- x [mm] -->
     <g transform="translate(192.268287 224.183417) scale(0.1 -0.1)">
      <defs>
       <path id="DejaVuSans-78" d="M 3513 3500 
L 2247 1797 
L 3578 0 
L 2900 0 
L 1881 1375 
L 863 0 
L 184 0 
L 1544 1831 
L 300 3500 
L 978 3500 
L 1906 2253 
L 2834 3500 
L 3513 3500 
z
" transform="scale(0.015625)"/>
       <path id="DejaVuSans-20" transform="scale(0.015625)"/>
       <path id="DejaVuSans-5b" d="M 550 4863 
L 1875 4863 
L 1875 4416 
L 1125 4416 
L 1125 -397 
L 1875 -397 
L 1875 -844 
L 550 -844 
L 550 4863 
z
" transform="scale(0.015625)"/>
       <path id="DejaVuSans-6d" d="M 3328 2828 
Q 3544 3216 3844 3400 
Q 4144 3584 4550 3584 
Q 5097 3584 5394 3201 
Q 5691 2819 5691 2113 
L 5691 0 
L 5113 0 
L 5113 2094 
Q 5113 2597 4934 2840 
Q 4756 3084 4391 3084 
Q 3944 3084 3684 2787 
Q 3425 2491 3425 1978 
L 3425 0 
L 2847 0 
L 2847 2094 
Q 2847 2600 2669 2842 
Q 2491 3084 2119 3084 
Q 1678 3084 1418 2786 
Q 1159 2488 1159 1978 
L 1159 0 
L 581 0 
L 581 3500 
L 1159 3500 
L 1159 2956 
Q 1356 3278 1631 3431 
Q 1906 3584 2284 3584 
Q 2666 3584 2933 3390 
Q 3200 3197 3328 2828 
z
" transform="scale(0.015625)"/>
       <path id="DejaVuSans-5d" d="M 1947 4863 
L 1947 -844 
L 622 -844 
L 622 -397 
L 1369 -397 
L 1369 4416 
L 622 4416 
L 622 4863 
L 1947 4863 
z
" transform="scale(0.015625)"/>
      </defs>
      <use xlink:href="#DejaVuSans-78"/>
      <use xlink:href="#DejaVuSans-20" transform="translate(59.179688 0)"/>
      <use xlink:href="#DejaVuSans-5b" transform="translate(90.966797 0)"/>
      <use xlink:href="#DejaVuSans-6d" transform="translate(129.980469 0)"/>
      <use xlink:href="#DejaVuSans-6d" transform="translate(227.392578 0)"/>
      <use xlink:href="#DejaVuSans-5d" transform="translate(324.804688 0)"/>
     </g>
    </g>
   </g>
   <g id="matplotlib.axis_2">
    <g id="ytick_1">
     <g id="line2d_6">
      <defs>
       <path id="mc5debf7c5b" d="M 0 0 
L -3.5 0 
" style="stroke: #000000; stroke-width: 0.8"/>
      </defs>
      <g>
       <use xlink:href="#mc5debf7c5b" x="42.765865" y="28.213808" style="stroke: #000000; stroke-width: 0.8"/>
      </g>
     </g>
     <g id="text_7">
      <!-- 0 -->
      <g transform="translate(29.403365 32.013027) scale(0.1 -0.1)">
       <use xlink:href="#DejaVuSans-30"/>
      </g>
     </g>
    </g>
    <g id="ytick_2">
     <g id="line2d_7">
      <g>
       <use xlink:href="#mc5debf7c5b" x="42.765865" y="112.060332" style="stroke: #000000; stroke-width: 0.8"/>
      </g>
     </g>
     <g id="text_8">
      <!-- 100 -->
      <g transform="translate(16.678365 115.85955) scale(0.1 -0.1)">
       <use xlink:href="#DejaVuSans-31"/>
       <use xlink:href="#DejaVuSans-30" transform="translate(63.623047 0)"/>
       <use xlink:href="#DejaVuSans-30" transform="translate(127.246094 0)"/>
      </g>
     </g>
    </g>
    <g id="ytick_3">
     <g id="line2d_8">
      <g>
       <use xlink:href="#mc5debf7c5b" x="42.765865" y="195.906855" style="stroke: #000000; stroke-width: 0.8"/>
      </g>
     </g>
     <g id="text_9">
      <!-- 200 -->
      <g transform="translate(16.678365 199.706074) scale(0.1 -0.1)">
       <use xlink:href="#DejaVuSans-32"/>
       <use xlink:href="#DejaVuSans-30" transform="translate(63.623047 0)"/>
       <use xlink:href="#DejaVuSans-30" transform="translate(127.246094 0)"/>
      </g>
     </g>
    </g>
    <g id="text_10">
     <!-- y [mm] -->
     <g transform="translate(10.598678 130.250957) rotate(-90) scale(0.1 -0.1)">
      <defs>
       <path id="DejaVuSans-79" d="M 2059 -325 
Q 1816 -950 1584 -1140 
Q 1353 -1331 966 -1331 
L 506 -1331 
L 506 -850 
L 844 -850 
Q 1081 -850 1212 -737 
Q 1344 -625 1503 -206 
L 1606 56 
L 191 3500 
L 800 3500 
L 1894 763 
L 2988 3500 
L 3597 3500 
L 2059 -325 
z
" transform="scale(0.015625)"/>
      </defs>
      <use xlink:href="#DejaVuSans-79"/>
      <use xlink:href="#DejaVuSans-20" transform="translate(59.179688 0)"/>
      <use xlink:href="#DejaVuSans-5b" transform="translate(90.966797 0)"/>
      <use xlink:href="#DejaVuSans-6d" transform="translate(129.980469 0)"/>
      <use xlink:href="#DejaVuSans-6d" transform="translate(227.392578 0)"/>
      <use xlink:href="#DejaVuSans-5d" transform="translate(324.804688 0)"/>
     </g>
    </g>
   </g>
   <g id="QuadContourSet_2">
    <path d="M 210.458912 28.213808 
L 210.458912 32.406134 
L 210.458912 36.59846 
L 210.458912 40.790787 
L 210.458912 44.983113 
L 210.458912 44.983113 
L 214.651238 44.983113 
L 218.843564 44.983113 
L 223.03589 44.983113 
L 227.228217 44.983113 
L 231.420543 44.983113 
L 235.612869 44.983113 
L 239.805195 44.983113 
L 243.997521 44.983113 
L 248.189847 44.983113 
L 252.382174 44.983113 
L 256.5745 44.983113 
L 260.766826 44.983113 
L 264.959152 44.983113 
L 269.151478 44.983113 
L 273.343804 44.983113 
L 277.536131 44.983113 
L 281.728457 44.983113 
L 285.920783 44.983113 
L 287.676498 49.175439 
L 287.456497 53.367765 
L 287.642772 57.560091 
L 288.10913 61.752418 
L 288.784104 65.944744 
L 289.61317 70.13707 
L 290.113109 72.205971 
L 290.504613 74.329396 
L 291.436928 78.521722 
L 292.442867 82.714048 
L 293.495418 86.906375 
L 294.305435 89.991552 
L 294.560103 91.098701 
L 295.602501 95.291027 
L 296.654391 99.483353 
L 297.702885 103.675679 
L 298.497761 106.855633 
L 298.732375 107.868005 
L 299.726489 112.060332 
L 300.698755 116.252658 
L 301.642859 120.444984 
L 302.553797 124.63731 
L 302.690088 125.272874 
L 303.423212 128.829636 
L 304.253487 133.021962 
L 305.042323 137.214289 
L 305.787035 141.406615 
L 306.485414 145.598941 
L 306.882414 148.137383 
L 307.136917 149.791267 
L 307.740859 153.983593 
L 308.293897 158.175919 
L 308.794753 162.368246 
L 309.242357 166.560572 
L 309.635809 170.752898 
L 309.974359 174.945224 
L 310.257388 179.13755 
L 310.484395 183.329876 
L 310.654987 187.522203 
L 310.768874 191.714529 
L 310.825866 195.906855 
M 147.244063 195.906855 
L 147.143301 191.714529 
L 146.940418 187.522203 
L 146.632635 183.329876 
L 146.215622 179.13755 
L 145.683292 174.945224 
L 145.027498 170.752898 
L 144.237601 166.560572 
L 143.381693 162.723342 
L 143.30139 162.368246 
L 142.219305 158.175919 
L 140.954259 153.983593 
L 139.478314 149.791267 
L 139.189367 149.056559 
L 137.77814 145.598941 
L 135.795891 141.406615 
L 134.997041 139.906057 
L 133.486323 137.214289 
L 130.804715 133.072182 
L 130.770076 133.021962 
L 127.564492 128.829636 
L 126.612388 127.724118 
L 123.72718 124.63731 
L 122.420062 123.377668 
L 119.076548 120.444984 
L 118.227736 119.764924 
L 114.03541 116.711335 
L 113.342962 116.252658 
L 109.843084 114.09245 
L 106.110583 112.060332 
L 105.650758 111.824344 
L 101.458431 109.841294 
L 97.266105 108.104231 
L 96.642192 107.868005 
L 93.073779 106.567198 
L 88.881453 105.213448 
L 84.689127 104.023145 
L 83.324202 103.675679 
L 80.496801 102.969921 
L 76.304474 102.046992 
L 72.112148 101.248111 
L 67.919822 100.564603 
L 63.727496 99.989609 
L 59.53517 99.51774 
L 59.152835 99.483353 
L 55.342844 99.138418 
L 51.150517 98.856098 
L 46.958191 98.669121 
L 42.765865 98.575997 
" clip-path="url(#pb9bc7a86a8)" style="fill: none; stroke: #18202b; stroke-width: 0.75"/>
   </g>
   <g id="patch_4">
    <path d="M 42.765865 195.906855 
L 42.765865 28.213808 
" style="fill: none; stroke: #000000; stroke-width: 0.8; stroke-linejoin: miter; stroke-linecap: square"/>
   </g>
   <g id="patch_5">
    <path d="M 378.151959 195.906855 
L 378.151959 28.213808 
" style="fill: none; stroke: #000000; stroke-width: 0.8; stroke-linejoin: miter; stroke-linecap: square"/>
   </g>
   <g id="patch_6">
    <path d="M 42.765865 195.906855 
L 378.151959 195.906855 
" style="fill: none; stroke: #000000; stroke-width: 0.8; stroke-linejoin: miter; stroke-linecap: square"/>
   </g>
   <g id="patch_7">
    <path d="M 42.765865 28.213808 
L 378.151959 28.213808 
" style="fill: none; stroke: #000000; stroke-width: 0.8; stroke-linejoin: miter; stroke-linecap: square"/>
   </g>
   <g id="text_11">
    <!-- Mode 4   86.2 Hz -->
    <g transform="translate(159.737349 22.213808) scale(0.12 -0.12)">
     <defs>
      <path id="DejaVuSans-4d" d="M 628 4666 
L 1569 4666 
L 2759 1491 
L 3956 4666 
L 4897 4666 
L 4897 0 
L 4281 0 
L 4281 4097 
L 3078 897 
L 2444 897 
L 1241 4097 
L 1241 0 
L 628 0 
L 628 4666 
z
" transform="scale(0.015625)"/>
      <path id="DejaVuSans-6f" d="M 1959 3097 
Q 1497 3097 1228 2736 
Q 959 2375 959 1747 
Q 959 1119 1226 758 
Q 1494 397 1959 397 
Q 2419 397 2687 759 
Q 2956 1122 2956 1747 
Q 2956 2369 2687 2733 
Q 2419 3097 1959 3097 
z
M 1959 3584 
Q 2709 3584 3137 3096 
Q 3566 2609 3566 1747 
Q 3566 888 3137 398 
Q 2709 -91 1959 -91 
Q 1206 -91 779 398 
Q 353 888 353 1747 
Q 353 2609 779 3096 
Q 1206 3584 1959 3584 
z
" transform="scale(0.015625)"/>
      <path id="DejaVuSans-64" d="M 2906 2969 
L 2906 4863 
L 3481 4863 
L 3481 0 
L 2906 0 
L 2906 525 
Q 2725 213 2448 61 
Q 2172 -91 1784 -91 
Q 1150 -91 751 415 
Q 353 922 353 1747 
Q 353 2572 751 3078 
Q 1150 3584 1784 3584 
Q 2172 3584 2448 3432 
Q 2725 3281 2906 2969 
z
M 947 1747 
Q 947 1113 1208 752 
Q 1469 391 1925 391 
Q 2381 391 2643 752 
Q 2906 1113 2906 1747 
Q 2906 2381 2643 2742 
Q 2381 3103 1925 3103 
Q 1469 3103 1208 2742 
Q 947 2381 947 1747 
z
" transform="scale(0.015625)"/>
      <path id="DejaVuSans-65" d="M 3597 1894 
L 3597 1613 
L 953 1613 
Q 991 1019 1311 708 
Q 1631 397 2203 397 
Q 2534 397 2845 478 
Q 3156 559 3463 722 
L 3463 178 
Q 3153 47 2828 -22 
Q 2503 -91 2169 -91 
Q 1331 -91 842 396 
Q 353 884 353 1716 
Q 353 2575 817 3079 
Q 1281 3584 2069 3584 
Q 2775 3584 3186 3129 
Q 3597 2675 3597 1894 
z
M 3022 2063 
Q 3016 2534 2758 2815 
Q 2500 3097 2075 3097 
Q 1594 3097 1305 2825 
Q 1016 2553 972 2059 
L 3022 2063 
z
" transform="scale(0.015625)"/>
      <path id="DejaVuSans-38" d="M 2034 2216 
Q 1584 2216 1326 1975 
Q 1069 1734 1069 1313 
Q 1069 891 1326 650 
Q 1584 409 2034 409 
Q 2484 409 2743 651 
Q 3003 894 3003 1313 
Q 3003 1734 2745 1975 
Q 2488 2216 2034 2216 
z
M 1403 2484 
Q 997 2584 770 2862 
Q 544 3141 544 3541 
Q 544 4100 942 4425 
Q 1341 4750 2034 4750 
Q 2731 4750 3128 4425 
Q 3525 4100 3525 3541 
Q 3525 3141 3298 2862 
Q 3072 2584 2669 2484 
Q 3125 2378 3379 2068 
Q 3634 1759 3634 1313 
Q 3634 634 3220 271 
Q 2806 -91 2034 -91 
Q 1263 -91 848 271 
Q 434 634 434 1313 
Q 434 1759 690 2068 
Q 947 2378 1403 2484 
z
M 1172 3481 
Q 1172 3119 1398 2916 
Q 1625 2713 2034 2713 
Q 2441 2713 2670 2916 
Q 2900 3119 2900 3481 
Q 2900 3844 2670 4047 
Q 2441 4250 2034 4250 
Q 1625 4250 1398 4047 
Q 1172 3844 1172 3481 
z
" transform="scale(0.015625)"/>
      <path id="DejaVuSans-36" d="M 2113 2584 
Q 1688 2584 1439 2293 
Q 1191 2003 1191 1497 
Q 1191 994 1439 701 
Q 1688 409 2113 409 
Q 2538 409 2786 701 
Q 3034 994 3034 1497 
Q 3034 2003 2786 2293 
Q 2538 2584 2113 2584 
z
M 3366 4563 
L 3366 3988 
Q 3128 4100 2886 4159 
Q 2644 4219 2406 4219 
Q 1781 4219 1451 3797 
Q 1122 3375 1075 2522 
Q 1259 2794 1537 2939 
Q 1816 3084 2150 3084 
Q 2853 3084 3261 2657 
Q 3669 2231 3669 1497 
Q 3669 778 3244 343 
Q 2819 -91 2113 -91 
Q 1303 -91 875 529 
Q 447 1150 447 2328 
Q 447 3434 972 4092 
Q 1497 4750 2381 4750 
Q 2619 4750 2861 4703 
Q 3103 4656 3366 4563 
z
" transform="scale(0.015625)"/>
      <path id="DejaVuSans-2e" d="M 684 794 
L 1344 794 
L 1344 0 
L 684 0 
L 684 794 
z
" transform="scale(0.015625)"/>
      <path id="DejaVuSans-48" d="M 628 4666 
L 1259 4666 
L 1259 2753 
L 3553 2753 
L 3553 4666 
L 4184 4666 
L 4184 0 
L 3553 0 
L 3553 2222 
L 1259 2222 
L 1259 0 
L 628 0 
L 628 4666 
z
" transform="scale(0.015625)"/>
      <path id="DejaVuSans-7a" d="M 353 3500 
L 3084 3500 
L 3084 2975 
L 922 459 
L 3084 459 
L 3084 0 
L 275 0 
L 275 525 
L 2438 3041 
L 353 3041 
L 353 3500 
z
" transform="scale(0.015625)"/>
     </defs>
     <use xlink:href="#DejaVuSans-4d"/>
     <use xlink:href="#DejaVuSans-6f" transform="translate(86.279297 0)"/>
     <use xlink:href="#DejaVuSans-64" transform="translate(147.460938 0)"/>
     <use xlink:href="#DejaVuSans-65" transform="translate(210.9375 0)"/>
     <use xlink:href="#DejaVuSans-20" transform="translate(272.460938 0)"/>
     <use xlink:href="#DejaVuSans-34" transform="translate(304.248047 0)"/>
     <use xlink:href="#DejaVuSans-20" transform="translate(367.871094 0)"/>
     <use xlink:href="#DejaVuSans-20" transform="translate(399.658203 0)"/>
     <use xlink:href="#DejaVuSans-20" transform="translate(431.445312 0)"/>
     <use xlink:href="#DejaVuSans-38" transform="translate(463.232422 0)"/>
     <use xlink:href="#DejaVuSans-36" transform="translate(526.855469 0)"/>
     <use xlink:href="#DejaVuSans-2e" transform="translate(590.478516 0)"/>
     <use xlink:href="#DejaVuSans-32" transform="translate(622.265625 0)"/>
     <use xlink:href="#DejaVuSans-20" transform="translate(685.888672 0)"/>
     <use xlink:href="#DejaVuSans-48" transform="translate(717.675781 0)"/>
     <use xlink:href="#DejaVuSans-7a" transform="translate(792.871094 0)"/>
    </g>
   </g>
  </g>
  <g id="axes_2">
   <g id="patch_8">
    <path d="M 397.757292 189.393851 
L 406.263979 189.393851 
L 406.263979 34.726812 
L 397.757292 34.726812 
z
" style="fill: #ffffff"/>
   </g>
   <g id="patch_9">
    <path d="M 397.757292 189.393851 
L 402.010635 197.127203 
L 406.263979 189.393851 
" style="fill: #053061"/>
   </g>
   <g id="patch_10">
    <path d="M 397.757292 34.726812 
L 402.010635 26.99346 
L 406.263979 34.726812 
" style="fill: #67001f"/>
   </g>
   <g id="QuadMesh_1">
    <path d="M 397.757292 189.393851 
L 406.263979 189.393851 
L 406.263979 179.727161 
L 397.757292 179.727161 
L 397.757292 189.393851 
" clip-path="url(#p6cf9b24204)" style="fill: #0e4179"/>
    <path d="M 397.757292 179.727161 
L 406.263979 179.727161 
L 406.263979 170.060471 
L 397.757292 170.060471 
L 397.757292 179.727161 
" clip-path="url(#p6cf9b24204)" style="fill: #1f63a8"/>
    <path d="M 397.757292 170.060471 
L 406.263979 170.060471 
L 406.263979 160.393781 
L 397.757292 160.393781 
L 397.757292 170.060471 
" clip-path="url(#p6cf9b24204)" style="fill: #3480b9"/>
    <path d="M 397.757292 160.393781 
L 406.263979 160.393781 
L 406.263979 150.727091 
L 397.757292 150.727091 
L 397.757292 160.393781 
" clip-path="url(#p6cf9b24204)" style="fill: #529dc8"/>
    <path d="M 397.757292 150.727091 
L 406.263979 150.727091 
L 406.263979 141.060401 
L 397.757292 141.060401 
L 397.757292 150.727091 
" clip-path="url(#p6cf9b24204)" style="fill: #84bcd9"/>
    <path d="M 397.757292 141.060401 
L 406.263979 141.060401 
L 406.263979 131.393711 
L 397.757292 131.393711 
L 397.757292 141.060401 
" clip-path="url(#p6cf9b24204)" style="fill: #aed3e6"/>
    <path d="M 397.757292 131.393711 
L 406.263979 131.393711 
L 406.263979 121.727021 
L 397.757292 121.727021 
L 397.757292 131.393711 
" clip-path="url(#p6cf9b24204)" style="fill: #d4e6f1"/>
    <path d="M 397.757292 121.727021 
L 406.263979 121.727021 
L 406.263979 112.060332 
L 397.757292 112.060332 
L 397.757292 121.727021 
" clip-path="url(#p6cf9b24204)" style="fill: #ecf2f5"/>
    <path d="M 397.757292 112.060332 
L 406.263979 112.060332 
L 406.263979 102.393642 
L 397.757292 102.393642 
L 397.757292 112.060332 
" clip-path="url(#p6cf9b24204)" style="fill: #f9eee7"/>
    <path d="M 397.757292 102.393642 
L 406.263979 102.393642 
L 406.263979 92.726952 
L 397.757292 92.726952 
L 397.757292 102.393642 
" clip-path="url(#p6cf9b24204)" style="fill: #fddcc9"/>
    <path d="M 397.757292 92.726952 
L 406.263979 92.726952 
L 406.263979 83.060262 
L 397.757292 83.060262 
L 397.757292 92.726952 
" clip-path="url(#p6cf9b24204)" style="fill: #f8bb9e"/>
    <path d="M 397.757292 83.060262 
L 406.263979 83.060262 
L 406.263979 73.393572 
L 397.757292 73.393572 
L 397.757292 83.060262 
" clip-path="url(#p6cf9b24204)" style="fill: #ee9677"/>
    <path d="M 397.757292 73.393572 
L 406.263979 73.393572 
L 406.263979 63.726882 
L 397.757292 63.726882 
L 397.757292 73.393572 
" clip-path="url(#p6cf9b24204)" style="fill: #db6b55"/>
    <path d="M 397.757292 63.726882 
L 406.263979 63.726882 
L 406.263979 54.060192 
L 397.757292 54.060192 
L 397.757292 63.726882 
" clip-path="url(#p6cf9b24204)" style="fill: #c53e3d"/>
    <path d="M 397.757292 54.060192 
L 406.263979 54.060192 
L 406.263979 44.393502 
L 397.757292 44.393502 
L 397.757292 54.060192 
" clip-path="url(#p6cf9b24204)" style="fill: #ab162a"/>
    <path d="M 397.757292 44.393502 
L 406.263979 44.393502 
L 406.263979 34.726812 
L 397.757292 34.726812 
L 397.757292 44.393502 
" clip-path="url(#p6cf9b24204)" style="fill: #7c0722"/>
   </g>
   <g id="matplotlib.axis_3"/>
   <g id="matplotlib.axis_4">
    <g id="ytick_4">
     <g id="line2d_9">
      <defs>
       <path id="m3aa1837f28" d="M 0 0 
L 3.5 0 
" style="stroke: #000000; stroke-width: 0.8"/>
      </defs>
      <g>
       <use xlink:href="#m3aa1837f28" x="406.263979" y="189.393851" style="stroke: #000000; stroke-width: 0.8"/>
      </g>
     </g>
     <g id="text_12">
      <!-- −1.00 -->
      <g transform="translate(413.263979 193.19307) scale(0.1 -0.1)">
       <defs>
        <path id="DejaVuSans-2212" d="M 678 2272 
L 4684 2272 
L 4684 1741 
L 678 1741 
L 678 2272 
z
" transform="scale(0.015625)"/>
       </defs>
       <use xlink:href="#DejaVuSans-2212"/>
       <use xlink:href="#DejaVuSans-31" transform="translate(83.789062 0)"/>
       <use xlink:href="#DejaVuSans-2e" transform="translate(147.412109 0)"/>
       <use xlink:href="#DejaVuSans-30" transform="translate(179.199219 0)"/>
       <use xlink:href="#DejaVuSans-30" transform="translate(242.822266 0)"/>
      </g>
     </g>
    </g>
    <g id="ytick_5">
     <g id="line2d_10">
      <g>
       <use xlink:href="#m3aa1837f28" x="406.263979" y="170.060471" style="stroke: #000000; stroke-width: 0.8"/>
      </g>
     </g>
     <g id="text_13">
      <!-- −0.75 -->
      <g transform="translate(413.263979 173.85969) scale(0.1 -0.1)">
       <defs>
        <path id="DejaVuSans-37" d="M 525 4666 
L 3525 4666 
L 3525 4397 
L 1831 0 
L 1172 0 
L 2766 4134 
L 525 4134 
L 525 4666 
z
" transform="scale(0.015625)"/>
        <path id="DejaVuSans-35" d="M 691 4666 
L 3169 4666 
L 3169 4134 
L 1269 4134 
L 1269 2991 
Q 1406 3038 1543 3061 
Q 1681 3084 1819 3084 
Q 2600 3084 3056 2656 
Q 3513 2228 3513 1497 
Q 3513 744 3044 326 
Q 2575 -91 1722 -91 
Q 1428 -91 1123 -41 
Q 819 9 494 109 
L 494 744 
Q 775 591 1075 516 
Q 1375 441 1709 441 
Q 2250 441 2565 725 
Q 2881 1009 2881 1497 
Q 2881 1984 2565 2268 
Q 2250 2553 1709 2553 
Q 1456 2553 1204 2497 
Q 953 2441 691 2322 
L 691 4666 
z
" transform="scale(0.015625)"/>
       </defs>
       <use xlink:href="#DejaVuSans-2212"/>
       <use xlink:href="#DejaVuSans-30" transform="translate(83.789062 0)"/>
       <use xlink:href="#DejaVuSans-2e" transform="translate(147.412109 0)"/>
       <use xlink:href="#DejaVuSans-37" transform="translate(179.199219 0)"/>
       <use xlink:href="#DejaVuSans-35" transform="translate(242.822266 0)"/>
      </g>
     </g>
    </g>
    <g id="ytick_6">
     <g id="line2d_11">
      <g>
       <use xlink:href="#m3aa1837f28" x="406.263979" y="150.727091" style="stroke: #000000; stroke-width: 0.8"/>
      </g>
     </g>
     <g id="text_14">
      <!-- −0.50 -->
      <g transform="translate(413.263979 154.52631) scale(0.1 -0.1)">
       <use xlink:href="#DejaVuSans-2212"/>
       <use xlink:href="#DejaVuSans-30" transform="translate(83.789062 0)"/>
       <use xlink:href="#DejaVuSans-2e" transform="translate(147.412109 0)"/>
       <use xlink:href="#DejaVuSans-35" transform="translate(179.199219 0)"/>
       <use xlink:href="#DejaVuSans-30" transform="translate(242.822266 0)"/>
      </g>
     </g>
    </g>
    <g id="ytick_7">
     <g id="line2d_12">
      <g>
       <use xlink:href="#m3aa1837f28" x="406.263979" y="131.393711" style="stroke: #000000; stroke-width: 0.8"/>
      </g>
     </g>
     <g id="text_15">
      <!-- −0.25 -->
      <g transform="translate(413.263979 135.19293) scale(0.1 -0.1)">
       <use xlink:href="#DejaVuSans-2212"/>
       <use xlink:href="#DejaVuSans-30" transform="translate(83.789062 0)"/>
       <use xlink:href="#DejaVuSans-2e" transform="translate(147.412109 0)"/>
       <use xlink:href="#DejaVuSans-32" transform="translate(179.199219 0)"/>
       <use xlink:href="#DejaVuSans-35" transform="translate(242.822266 0)"/>
      </g>
     </g>
    </g>
    <g id="ytick_8">
     <g id="line2d_13">
      <g>
       <use xlink:href="#m3aa1837f28" x="406.263979" y="112.060332" style="stroke: #000000; stroke-width: 0.8"/>
      </g>
     </g>
     <g id="text_16">
      <!-- 0.00 -->
      <g transform="translate(413.263979 115.85955) scale(0.1 -0.1)">
       <use xlink:href="#DejaVuSans-30"/>
       <use xlink:href="#DejaVuSans-2e" transform="translate(63.623047 0)"/>
       <use xlink:href="#DejaVuSans-30" transform="translate(95.410156 0)"/>
       <use xlink:href="#DejaVuSans-30" transform="translate(159.033203 0)"/>
      </g>
     </g>
    </g>
    <g id="ytick_9">
     <g id="line2d_14">
      <g>
       <use xlink:href="#m3aa1837f28" x="406.263979" y="92.726952" style="stroke: #000000; stroke-width: 0.8"/>
      </g>
     </g>
     <g id="text_17">
      <!-- 0.25 -->
      <g transform="translate(413.263979 96.52617) scale(0.1 -0.1)">
       <use xlink:href="#DejaVuSans-30"/>
       <use xlink:href="#DejaVuSans-2e" transform="translate(63.623047 0)"/>
       <use xlink:href="#DejaVuSans-32" transform="translate(95.410156 0)"/>
       <use xlink:href="#DejaVuSans-35" transform="translate(159.033203 0)"/>
      </g>
     </g>
    </g>
    <g id="ytick_10">
     <g id="line2d_15">
      <g>
       <use xlink:href="#m3aa1837f28" x="406.263979" y="73.393572" style="stroke: #000000; stroke-width: 0.8"/>
      </g>
     </g>
     <g id="text_18">
      <!-- 0.50 -->
      <g transform="translate(413.263979 77.192791) scale(0.1 -0.1)">
       <use xlink:href="#DejaVuSans-30"/>
       <use xlink:href="#DejaVuSans-2e" transform="translate(63.623047 0)"/>
       <use xlink:href="#DejaVuSans-35" transform="translate(95.410156 0)"/>
       <use xlink:href="#DejaVuSans-30" transform="translate(159.033203 0)"/>
      </g>
     </g>
    </g>
    <g id="ytick_11">
     <g id="line2d_16">
      <g>
       <use xlink:href="#m3aa1837f28" x="406.263979" y="54.060192" style="stroke: #000000; stroke-width: 0.8"/>
      </g>
     </g>
     <g id="text_19">
      <!-- 0.75 -->
      <g transform="translate(413.263979 57.859411) scale(0.1 -0.1)">
       <use xlink:href="#DejaVuSans-30"/>
       <use xlink:href="#DejaVuSans-2e" transform="translate(63.623047 0)"/>
       <use xlink:href="#DejaVuSans-37" transform="translate(95.410156 0)"/>
       <use xlink:href="#DejaVuSans-35" transform="translate(159.033203 0)"/>
      </g>
     </g>
    </g>
    <g id="ytick_12">
     <g id="line2d_17">
      <g>
       <use xlink:href="#m3aa1837f28" x="406.263979" y="34.726812" style="stroke: #000000; stroke-width: 0.8"/>
      </g>
     </g>
     <g id="text_20">
      <!-- 1.00 -->
      <g transform="translate(413.263979 38.526031) scale(0.1 -0.1)">
       <use xlink:href="#DejaVuSans-31"/>
       <use xlink:href="#DejaVuSans-2e" transform="translate(63.623047 0)"/>
       <use xlink:href="#DejaVuSans-30" transform="translate(95.410156 0)"/>
       <use xlink:href="#DejaVuSans-30" transform="translate(159.033203 0)"/>
      </g>
     </g>
    </g>
    <g id="text_21">
     <!-- normalized deflection -->
     <g transform="translate(455.507729 166.236113) rotate(-90) scale(0.1 -0.1)">
      <defs>
       <path id="DejaVuSans-6e" d="M 3513 2113 
L 3513 0 
L 2938 0 
L 2938 2094 
Q 2938 2591 2744 2837 
Q 2550 3084 2163 3084 
Q 1697 3084 1428 2787 
Q 1159 2491 1159 1978 
L 1159 0 
L 581 0 
L 581 3500 
L 1159 3500 
L 1159 2956 
Q 1366 3272 1645 3428 
Q 1925 3584 2291 3584 
Q 2894 3584 3203 3211 
Q 3513 2838 3513 2113 
z
" transform="scale(0.015625)"/>
       <path id="DejaVuSans-72" d="M 2631 2963 
Q 2534 3019 2420 3045 
Q 2306 3072 2169 3072 
Q 1681 3072 1420 2755 
Q 1159 2438 1159 1844 
L 1159 0 
L 581 0 
L 581 3500 
L 1159 3500 
L 1159 2956 
Q 1341 3275 1631 3429 
Q 1922 3584 2338 3584 
Q 2397 3584 2469 3576 
Q 2541 3569 2628 3553 
L 2631 2963 
z
" transform="scale(0.015625)"/>
       <path id="DejaVuSans-61" d="M 2194 1759 
Q 1497 1759 1228 1600 
Q 959 1441 959 1056 
Q 959 750 1161 570 
Q 1363 391 1709 391 
Q 2188 391 2477 730 
Q 2766 1069 2766 1631 
L 2766 1759 
L 2194 1759 
z
M 3341 1997 
L 3341 0 
L 2766 0 
L 2766 531 
Q 2569 213 2275 61 
Q 1981 -91 1556 -91 
Q 1019 -91 701 211 
Q 384 513 384 1019 
Q 384 1609 779 1909 
Q 1175 2209 1959 2209 
L 2766 2209 
L 2766 2266 
Q 2766 2663 2505 2880 
Q 2244 3097 1772 3097 
Q 1472 3097 1187 3025 
Q 903 2953 641 2809 
L 641 3341 
Q 956 3463 1253 3523 
Q 1550 3584 1831 3584 
Q 2591 3584 2966 3190 
Q 3341 2797 3341 1997 
z
" transform="scale(0.015625)"/>
       <path id="DejaVuSans-6c" d="M 603 4863 
L 1178 4863 
L 1178 0 
L 603 0 
L 603 4863 
z
" transform="scale(0.015625)"/>
       <path id="DejaVuSans-69" d="M 603 3500 
L 1178 3500 
L 1178 0 
L 603 0 
L 603 3500 
z
M 603 4863 
L 1178 4863 
L 1178 4134 
L 603 4134 
L 603 4863 
z
" transform="scale(0.015625)"/>
       <path id="DejaVuSans-66" d="M 2375 4863 
L 2375 4384 
L 1825 4384 
Q 1516 4384 1395 4259 
Q 1275 4134 1275 3809 
L 1275 3500 
L 2222 3500 
L 2222 3053 
L 1275 3053 
L 1275 0 
L 697 0 
L 697 3053 
L 147 3053 
L 147 3500 
L 697 3500 
L 697 3744 
Q 697 4328 969 4595 
Q 1241 4863 1831 4863 
L 2375 4863 
z
" transform="scale(0.015625)"/>
       <path id="DejaVuSans-63" d="M 3122 3366 
L 3122 2828 
Q 2878 2963 2633 3030 
Q 2388 3097 2138 3097 
Q 1578 3097 1268 2742 
Q 959 2388 959 1747 
Q 959 1106 1268 751 
Q 1578 397 2138 397 
Q 2388 397 2633 464 
Q 2878 531 3122 666 
L 3122 134 
Q 2881 22 2623 -34 
Q 2366 -91 2075 -91 
Q 1284 -91 818 406 
Q 353 903 353 1747 
Q 353 2603 823 3093 
Q 1294 3584 2113 3584 
Q 2378 3584 2631 3529 
Q 2884 3475 3122 3366 
z
" transform="scale(0.015625)"/>
       <path id="DejaVuSans-74" d="M 1172 4494 
L 1172 3500 
L 2356 3500 
L 2356 3053 
L 1172 3053 
L 1172 1153 
Q 1172 725 1289 603 
Q 1406 481 1766 481 
L 2356 481 
L 2356 0 
L 1766 0 
Q 1100 0 847 248 
Q 594 497 594 1153 
L 594 3053 
L 172 3053 
L 172 3500 
L 594 3500 
L 594 4494 
L 1172 4494 
z
" transform="scale(0.015625)"/>
      </defs>
      <use xlink:href="#DejaVuSans-6e"/>
      <use xlink:href="#DejaVuSans-6f" transform="translate(63.378906 0)"/>
      <use xlink:href="#DejaVuSans-72" transform="translate(124.560547 0)"/>
      <use xlink:href="#DejaVuSans-6d" transform="translate(163.923828 0)"/>
      <use xlink:href="#DejaVuSans-61" transform="translate(261.335938 0)"/>
      <use xlink:href="#DejaVuSans-6c" transform="translate(322.615234 0)"/>
      <use xlink:href="#DejaVuSans-69" transform="translate(350.398438 0)"/>
      <use xlink:href="#DejaVuSans-7a" transform="translate(378.181641 0)"/>
      <use xlink:href="#DejaVuSans-65" transform="translate(430.671875 0)"/>
      <use xlink:href="#DejaVuSans-64" transform="translate(492.195312 0)"/>
      <use xlink:href="#DejaVuSans-20" transform="translate(555.671875 0)"/>
      <use xlink:href="#DejaVuSans-64" transform="translate(587.458984 0)"/>
      <use xlink:href="#DejaVuSans-65" transform="translate(650.935547 0)"/>
      <use xlink:href="#DejaVuSans-66" transform="translate(712.458984 0)"/>
      <use xlink:href="#DejaVuSans-6c" transform="translate(747.664062 0)"/>
      <use xlink:href="#DejaVuSans-65" transform="translate(775.447266 0)"/>
      <use xlink:href="#DejaVuSans-63" transform="translate(836.970703 0)"/>
      <use xlink:href="#DejaVuSans-74" transform="translate(891.951172 0)"/>
      <use xlink:href="#DejaVuSans-69" transform="translate(931.160156 0)"/>
      <use xlink:href="#DejaVuSans-6f" transform="translate(958.943359 0)"/>
      <use xlink:href="#DejaVuSans-6e" transform="translate(1020.125 0)"/>
     </g>
    </g>
   </g>
   <g id="LineCollection_1"/>
   <g id="patch_11">
    <path d="M 397.757292 189.393851 
L 402.010635 197.127203 
L 406.263979 189.393851 
L 406.263979 34.726812 
L 402.010635 26.99346 
L 397.757292 34.726812 
L 397.757292 189.393851 
z
" style="fill: none; stroke: #000000; stroke-width: 0.8; stroke-linejoin: miter; stroke-linecap: square"/>
   </g>
  </g>
 </g>
 <defs>
  <clipPath id="pb9bc7a86a8">
   <rect x="42.765865" y="28.213808" width="335.386094" height="167.693047"/>
  </clipPath>
  <clipPath id="p6cf9b24204">
   <rect x="397.757292" y="34.726812" width="8.506687" height="154.667039"/>
  </clipPath>
 </defs>
 <defs>
  <pattern id="he28f3f50ee" patternUnits="userSpaceOnUse" x="0" y="0" width="72" height="72">
   <rect x="0" y="0" width="73" height="73" fill="#333333"/>
   <path d="M -36 36 
L 36 -36 
M -33 39 
L 39 -33 
M -30 42 
L 42 -30 
M -27 45 
L 45 -27 
M -24 48 
L 48 -24 
M -21 51 
L 51 -21 
M -18 54 
L 54 -18 
M -15 57 
L 57 -15 
M -12 60 
L 60 -12 
M -9 63 
L 63 -9 
M -6 66 
L 66 -6 
M -3 69 
L 69 -3 
M 0 72 
L 72 0 
M 3 75 
L 75 3 
M 6 78 
L 78 6 
M 9 81 
L 81 9 
M 12 84 
L 84 12 
M 15 87 
L 87 15 
M 18 90 
L 90 18 
M 21 93 
L 93 21 
M 24 96 
L 96 24 
M 27 99 
L 99 27 
M 30 102 
L 102 30 
M 33 105 
L 105 33 
M 36 108 
L 108 36 
" style="fill: #111827; stroke: #111827; stroke-width: 1.0; stroke-linecap: butt; stroke-linejoin: miter; stroke-opacity: 0.35"/>
  </pattern>
 </defs>
</svg>
